<svg width="391" height="621" viewBox="0 0 391 621" fill="none" xmlns="http://www.w3.org/2000/svg">
<path d="M105.5 672.373C263.177 672.373 391 599.76 391 510.187C391 420.613 263.177 348 105.5 348C-52.1773 348 -180 420.613 -180 510.187C-180 599.76 -52.1773 672.373 105.5 672.373Z" fill="#F5F5F5"/>
<path d="M265.307 614.595L52.193 491.542C50.3183 490.462 48.7612 488.907 47.6785 487.033C46.5958 485.16 46.0258 483.035 46.0258 480.871C46.0258 478.707 46.5958 476.582 47.6785 474.709C48.7612 472.835 50.3183 471.28 52.193 470.2L73.2161 456.943C76.8452 454.853 80.9596 453.753 85.1476 453.753C89.3355 453.753 93.45 454.853 97.079 456.943L310.222 580.01C312.097 581.09 313.654 582.645 314.737 584.518C315.82 586.392 316.39 588.517 316.39 590.681C316.39 592.845 315.82 594.97 314.737 596.843C313.654 598.717 312.097 600.272 310.222 601.352L289.199 614.595C285.569 616.696 281.448 617.802 277.253 617.802C273.059 617.802 268.938 616.696 265.307 614.595Z" fill="#E0E0E0"/>
<path d="M321.123 489.119L341.408 500.783C341.408 500.783 331.048 468.227 336.568 435.41C338.655 423.007 343.132 416.85 344.697 413.532C346.261 410.214 358.388 389.712 347.594 380.324C336.8 370.935 311.691 389.814 313.053 440.336C313.672 456.872 316.384 473.264 321.123 489.119Z" fill="#3E63F6"/>
<path opacity="0.5" d="M321.123 489.119L341.408 500.783C341.408 500.783 331.048 468.227 336.568 435.41C338.655 423.007 343.132 416.85 344.697 413.532C346.261 410.214 358.388 389.712 347.594 380.324C336.8 370.935 311.691 389.814 313.053 440.336C313.672 456.872 316.384 473.264 321.123 489.119Z" fill="black"/>
<path d="M330.556 495.262C330.408 495.266 330.263 495.223 330.141 495.14C330.019 495.056 329.926 494.937 329.875 494.799C329.802 494.582 322.051 473.399 322.297 439.351C322.543 405.302 340.437 386.814 340.611 386.641C340.678 386.573 340.758 386.519 340.847 386.482C340.935 386.445 341.03 386.426 341.125 386.426C341.221 386.426 341.315 386.445 341.404 386.482C341.492 386.519 341.572 386.573 341.64 386.641C341.707 386.708 341.761 386.788 341.798 386.876C341.835 386.965 341.854 387.059 341.854 387.155C341.854 387.251 341.835 387.345 341.798 387.434C341.761 387.522 341.707 387.602 341.64 387.669C341.466 387.843 323.992 405.78 323.746 439.365C323.5 472.95 331.15 494.103 331.237 494.306C331.302 494.487 331.293 494.686 331.211 494.86C331.13 495.034 330.983 495.168 330.802 495.234C330.722 495.258 330.639 495.268 330.556 495.262Z" fill="white"/>
<path d="M329.585 494.103L357.316 510.041C360.206 511.749 363.633 512.305 366.914 511.599C370.196 510.893 373.09 508.976 375.021 506.23C376.857 503.374 377.631 499.964 377.209 496.595C375.876 482.194 369.617 478.876 377.282 472.457C384.946 466.039 386.946 465.59 386.511 459.417C386.076 453.245 381.86 450.55 379.861 448.116C377.861 445.682 372.327 440.582 376.094 433.048C379.861 425.514 385.004 418.226 377.209 414.894C372.558 412.894 364.807 415.56 359.707 421.095C354.607 426.629 350.405 430.614 345.522 431.947C340.64 433.28 330.469 433.497 330.903 441.915C331.338 450.333 333.569 453.216 331.57 456.969C327.803 463.981 311.416 467.966 329.585 494.103Z" fill="#3E63F6"/>
<path d="M343.291 502.681C343.111 502.675 342.938 502.604 342.805 502.482C342.672 502.36 342.588 502.194 342.567 502.014C342.567 501.522 338.307 451.796 372.5 418.704C372.641 418.588 372.821 418.529 373.004 418.54C373.186 418.55 373.358 418.63 373.485 418.762C373.611 418.894 373.683 419.069 373.686 419.251C373.689 419.434 373.622 419.611 373.5 419.747C339.799 452.361 343.972 501.391 344.016 501.884C344.032 502.074 343.972 502.262 343.85 502.409C343.728 502.555 343.553 502.648 343.364 502.666L343.291 502.681Z" fill="white"/>
<path d="M348.782 459.881C348.6 459.882 348.424 459.813 348.29 459.69C348.155 459.566 348.073 459.397 348.058 459.215C347.755 455.361 346.669 451.61 344.868 448.19C343.067 444.769 340.588 441.752 337.583 439.322C337.504 439.267 337.438 439.197 337.386 439.116C337.335 439.035 337.301 438.945 337.284 438.851C337.268 438.756 337.271 438.66 337.292 438.567C337.314 438.473 337.353 438.385 337.409 438.307C337.462 438.23 337.531 438.163 337.611 438.112C337.69 438.061 337.779 438.026 337.872 438.01C337.965 437.994 338.061 437.997 338.153 438.018C338.245 438.039 338.332 438.078 338.409 438.134C341.611 440.674 344.252 443.851 346.162 447.465C348.073 451.079 349.212 455.05 349.507 459.128C349.523 459.321 349.462 459.514 349.337 459.663C349.213 459.812 349.034 459.906 348.84 459.925L348.782 459.881Z" fill="white"/>
<path d="M346.421 468.415C346.246 468.417 346.076 468.355 345.943 468.241C345.799 468.113 345.711 467.934 345.697 467.741C345.684 467.549 345.746 467.359 345.87 467.212C346.218 466.807 354.781 457.36 374.848 459.867C375.038 459.892 375.21 459.991 375.327 460.144C375.444 460.296 375.495 460.488 375.471 460.678C375.445 460.869 375.346 461.043 375.195 461.162C375.043 461.281 374.851 461.336 374.659 461.316C355.389 458.896 347.029 468.082 346.942 468.169C346.876 468.243 346.796 468.302 346.707 468.345C346.617 468.387 346.52 468.411 346.421 468.415Z" fill="white"/>
<path d="M258.816 599.889L71.3906 491.672C58.1624 484.037 47.4407 463.55 47.4407 445.917V44.5797C47.4407 26.9469 58.1624 18.8477 71.3906 26.4833L258.816 134.699C272.045 142.335 282.766 162.822 282.766 180.455V581.792C282.766 599.41 272.045 607.524 258.816 599.889Z" fill="#455A64"/>
<path d="M280.405 122.08L92.9643 13.8636C87.3137 10.6037 82.1267 10.227 78.0264 12.2264C77.5244 12.4778 77.0403 12.7634 76.5775 13.0812L55.5689 25.2952C59.7996 22.7597 65.3343 22.9481 71.4051 26.4543L258.831 134.671C272.059 142.306 282.781 162.793 282.781 180.426V581.763C282.781 591.094 279.782 597.701 275 600.83L295.734 588.761C301.022 585.95 304.427 579.068 304.427 569.201V167.864C304.427 150.202 293.633 129.715 280.405 122.08Z" fill="#37474F"/>
<path d="M282.766 180.426V581.763C282.766 591.094 279.767 597.701 274.986 600.83L295.734 588.761C301.022 585.95 304.427 579.068 304.427 569.201V167.864L282.839 180.397L282.766 180.426Z" fill="#263238"/>
<path d="M304.355 199L282.766 211.461V221.197L304.355 208.722V199Z" fill="#37474F"/>
<path d="M294.893 263.75C292.966 264.866 291.402 263.678 291.402 261.113V240.177C291.421 238.869 291.747 237.583 292.354 236.423C292.96 235.263 293.83 234.261 294.893 233.498C296.82 232.382 298.385 233.498 298.385 236.135V257.071C298.366 258.38 298.04 259.666 297.433 260.826C296.827 261.986 295.957 262.987 294.893 263.75Z" fill="#37474F"/>
<path d="M291.387 261.171V240.177C291.407 238.869 291.733 237.583 292.339 236.423C292.946 235.263 293.815 234.261 294.879 233.498C295.197 233.276 295.567 233.14 295.953 233.105C296.339 233.069 296.728 233.135 297.081 233.295L294.459 231.948C294.1 231.775 293.702 231.7 293.305 231.731C292.908 231.761 292.527 231.896 292.198 232.122C291.134 232.885 290.263 233.886 289.654 235.046C289.045 236.205 288.716 237.491 288.692 238.801V259.723C288.638 260.251 288.718 260.785 288.926 261.274C289.134 261.763 289.462 262.191 289.88 262.519L292.619 263.968C292.183 263.654 291.839 263.229 291.622 262.737C291.406 262.246 291.325 261.705 291.387 261.171Z" fill="#455A64"/>
<path d="M294.893 314.417C292.966 315.533 291.402 314.417 291.402 311.78V290.844C291.422 289.536 291.749 288.25 292.355 287.09C292.961 285.931 293.831 284.929 294.893 284.165C296.82 283.049 298.385 284.165 298.385 286.816V307.738C298.368 309.047 298.043 310.334 297.436 311.494C296.83 312.655 295.959 313.656 294.893 314.417Z" fill="#37474F"/>
<path d="M291.387 311.78V290.844C291.408 289.536 291.734 288.25 292.341 287.09C292.947 285.931 293.816 284.929 294.879 284.165C295.198 283.947 295.568 283.813 295.954 283.778C296.339 283.742 296.727 283.806 297.081 283.962L294.459 282.6C294.102 282.42 293.703 282.341 293.304 282.372C292.906 282.402 292.523 282.541 292.198 282.774C291.131 283.535 290.258 284.536 289.649 285.696C289.04 286.856 288.712 288.143 288.692 289.453V310.433C288.637 310.962 288.716 311.496 288.924 311.985C289.132 312.474 289.461 312.902 289.88 313.229L292.619 314.678C292.165 314.357 291.81 313.916 291.592 313.404C291.375 312.892 291.304 312.33 291.387 311.78Z" fill="#455A64"/>
<path d="M252.268 145.957L68.0871 39.5811C67.3184 39.1389 66.4474 38.9054 65.5606 38.9037C64.6738 38.9021 63.802 39.1324 63.0317 39.5717C62.2613 40.0111 61.6193 40.6442 61.1692 41.4083C60.7192 42.1724 60.4767 43.041 60.466 43.9277V445.917C60.466 459.334 69.9851 475.807 81.605 482.515L261.265 586.298C262.117 586.788 263.083 587.046 264.066 587.045C265.049 587.044 266.015 586.785 266.866 586.293C267.717 585.802 268.424 585.095 268.916 584.244C269.408 583.393 269.667 582.427 269.668 581.444V176.137C269.741 165.068 261.888 151.492 252.268 145.957Z" fill="#3E63F6"/>
<path opacity="0.9" d="M252.268 145.957L68.0871 39.5811C67.3184 39.1389 66.4474 38.9054 65.5606 38.9037C64.6738 38.9021 63.802 39.1324 63.0317 39.5717C62.2613 40.0111 61.6193 40.6442 61.1692 41.4083C60.7192 42.1724 60.4767 43.041 60.466 43.9277V445.917C60.466 459.334 69.9851 475.807 81.605 482.515L261.265 586.298C262.117 586.788 263.083 587.046 264.066 587.045C265.049 587.044 266.015 586.785 266.866 586.293C267.717 585.802 268.424 585.095 268.916 584.244C269.408 583.393 269.667 582.427 269.668 581.444V176.137C269.741 165.068 261.888 151.492 252.268 145.957Z" fill="white"/>
<path d="M123.173 67.356L126.027 79.3671L187.083 114.575L197.631 108.953L123.173 67.356Z" fill="#455A64"/>
<path d="M141.125 78.9614C141.125 80.9608 139.676 81.7577 137.995 80.7725C137.093 80.1735 136.344 79.3712 135.808 78.4301C135.272 77.489 134.964 76.4353 134.909 75.3537C134.909 73.3688 136.358 72.5574 138.039 73.5571C138.941 74.153 139.69 74.9526 140.226 75.8914C140.762 76.8301 141.07 77.8818 141.125 78.9614Z" fill="#263238"/>
<path d="M182.258 104.389C181.924 104.386 181.596 104.302 181.302 104.143L150.122 86.7563C149.682 86.4978 149.36 86.0774 149.226 85.5849C149.091 85.0924 149.155 84.5668 149.403 84.1204C149.65 83.6741 150.063 83.3423 150.552 83.1959C151.041 83.0495 151.568 83.1001 152.02 83.337L183.214 100.723C183.594 100.934 183.892 101.265 184.063 101.664C184.233 102.063 184.266 102.507 184.157 102.927C184.047 103.347 183.801 103.718 183.458 103.983C183.114 104.248 182.692 104.39 182.258 104.389Z" fill="#263238"/>
<path d="M99.0929 123.239C97.1949 122.138 95.8185 123.094 95.8185 125.514C95.8185 126.724 96.1174 127.915 96.6886 128.982C97.2599 130.048 98.0858 130.957 99.0929 131.628C99.6324 131.955 100.251 132.128 100.882 132.128C101.513 132.128 102.132 131.955 102.672 131.628L105.7 137.105C104.634 137.692 103.427 137.973 102.211 137.914C100.996 137.855 99.8212 137.459 98.8176 136.771C96.3576 135.266 94.3065 133.178 92.8458 130.691C91.3851 128.205 90.5599 125.396 90.4432 122.514C90.4432 117.139 94.0509 115.27 99.0205 118.168C101.827 119.975 104.126 122.469 105.7 125.412L102.672 127.817C101.925 125.99 100.686 124.405 99.0929 123.239Z" fill="#3E63F6"/>
<path d="M123.13 141.393C123.13 146.812 119.464 148.638 114.436 145.74C111.906 144.228 109.789 142.114 108.272 139.586C106.755 137.059 105.887 134.195 105.743 131.251C105.743 125.832 109.409 124.007 114.436 126.905C116.973 128.41 119.095 130.522 120.613 133.051C122.13 135.58 122.995 138.447 123.13 141.393ZM111.119 134.482C111.144 135.726 111.465 136.946 112.054 138.042C112.644 139.138 113.485 140.078 114.509 140.785C116.306 141.828 117.754 140.785 117.754 138.322C117.75 137.106 117.452 135.909 116.887 134.832C116.322 133.755 115.507 132.83 114.509 132.135C112.683 131.077 111.119 131.976 111.119 134.482Z" fill="#3E63F6"/>
<path d="M128.969 135.641L135.228 148.681V139.292L139.966 142.031V160.301L135.619 157.78L129.389 144.856V154.187L124.622 151.434V133.12L128.969 135.641Z" fill="#3E63F6"/>
<path d="M155.454 150.927V155.708L150.934 153.1V166.604L145.703 163.575V150.072L141.212 147.479V142.712L155.454 150.927Z" fill="#3E63F6"/>
<path d="M165.654 172.515L159.714 169.081L158.902 171.197L153.542 168.096L160.221 153.68L165.596 156.78L172.029 178.774L166.451 175.558L165.654 172.515ZM164.365 167.444L162.742 161.199L161.076 165.546L164.365 167.444Z" fill="#3E63F6"/>
<path d="M180.331 170.139C178.433 169.052 177.057 169.994 177.057 172.428C177.059 173.638 177.359 174.828 177.93 175.894C178.501 176.96 179.326 177.87 180.331 178.542C180.874 178.866 181.495 179.038 182.128 179.038C182.76 179.038 183.381 178.866 183.924 178.542L186.952 184.019C185.883 184.6 184.674 184.876 183.458 184.818C182.241 184.759 181.065 184.367 180.056 183.686C177.594 182.179 175.541 180.089 174.081 177.599C172.62 175.11 171.796 172.299 171.681 169.414C171.681 164.039 175.304 162.17 180.259 165.068C183.061 166.884 185.363 169.375 186.952 172.312L183.924 174.703C183.161 172.885 181.919 171.308 180.331 170.139Z" fill="#3E63F6"/>
<path d="M201.238 177.369V182.136L196.718 179.528V193.074L191.487 190.046V176.543L186.996 173.949V169.183L201.238 177.369Z" fill="#3E63F6"/>
<path d="M216.698 199.797C217.987 200.536 218.973 199.957 218.973 198.146V187.612L224.217 190.626V201.159C224.217 206.013 221.32 207.462 216.683 204.81C214.45 203.57 212.572 201.777 211.23 199.603C209.888 197.428 209.127 194.946 209.019 192.394V181.86L214.264 184.888V195.422C214.284 196.294 214.516 197.148 214.94 197.91C215.364 198.673 215.967 199.32 216.698 199.797Z" fill="#3E63F6"/>
<path d="M232.664 199.855C232.07 199.522 231.694 199.507 231.694 200.058C231.694 202.347 239.88 205.651 239.88 212.272C239.88 216.329 236.794 216.343 233.229 214.286C230.096 212.366 227.397 209.815 225.304 206.795L227.246 203.376C228.839 205.843 230.884 207.986 233.273 209.693C234.041 210.142 234.533 210.142 234.533 209.49C234.533 207.114 226.333 203.956 226.333 197.537C226.333 193.886 228.999 193.19 233.113 195.509C235.764 197.112 238.097 199.189 239.996 201.637L238.098 205.144C236.53 203.147 234.703 201.368 232.664 199.855Z" fill="#3E63F6"/>
<path d="M72.7379 213.272C78.6167 206.052 81.5759 196.89 81.0317 187.595C80.4876 178.3 76.4796 169.547 69.7985 163.062C63.1174 156.577 54.2485 152.831 44.9415 152.564C35.6345 152.297 26.5654 155.528 19.5234 161.619C12.4815 167.71 7.97813 176.22 6.90188 185.468C5.82563 194.717 8.25463 204.032 13.7097 211.578C19.1647 219.123 27.2496 224.35 36.3692 226.228C45.4888 228.105 54.9809 226.496 62.9726 221.719L81.1124 229.601L72.7379 213.272Z" fill="#3E63F6"/>
<path opacity="0.4" d="M72.7379 213.272C78.6167 206.052 81.5759 196.89 81.0317 187.595C80.4876 178.3 76.4796 169.547 69.7985 163.062C63.1174 156.577 54.2485 152.831 44.9415 152.564C35.6345 152.297 26.5654 155.528 19.5234 161.619C12.4815 167.71 7.97813 176.22 6.90188 185.468C5.82563 194.717 8.25463 204.032 13.7097 211.578C19.1647 219.123 27.2496 224.35 36.3692 226.228C45.4888 228.105 54.9809 226.496 62.9726 221.719L81.1124 229.601L72.7379 213.272Z" fill="black"/>
<path d="M30.0832 187.772C30.0832 187.207 29.6775 186.888 28.9386 186.888C27.2246 187.112 25.6238 187.867 24.3601 189.047L22.3027 185.048C24.4684 183.418 27.0845 182.497 29.7934 182.411C33.2707 182.411 35.9076 184.236 35.9076 186.96C35.9076 188.902 34.4588 190.771 32.6042 192.64L30.0107 195.204H36.1395V199.464H22.9692V195.972L28.8371 189.901C29.469 189.343 29.9056 188.596 30.0832 187.772Z" fill="white"/>
<path d="M46.8611 182.657L42.8623 192.249H44.4995V189.018H49.5416V192.249H51.4541V196.204H49.5416V199.464H44.4995V196.204H37.3276V192.611L41.6742 182.657H46.8611Z" fill="white"/>
<path d="M67.0149 191.104V199.464H61.6251V192.654C61.6562 192.433 61.6394 192.207 61.5757 191.992C61.512 191.777 61.403 191.579 61.2561 191.41C61.1091 191.241 60.9276 191.106 60.7238 191.013C60.5201 190.92 60.2987 190.872 60.0748 190.872C59.0172 190.872 58.3507 191.698 58.3507 192.973V199.464H52.9609V181.701H58.3507V188.235C58.7723 187.569 59.3599 187.023 60.0559 186.653C60.7519 186.282 61.5323 186.098 62.3206 186.12C62.9666 186.103 63.6088 186.223 64.2053 186.472C64.8018 186.72 65.3392 187.092 65.7822 187.562C66.2253 188.033 66.5641 188.591 66.7765 189.202C66.9889 189.812 67.0702 190.46 67.0149 191.104Z" fill="white"/>
<path d="M242.763 325.733V505.755C242.766 507.791 242.233 509.792 241.216 511.557C240.2 513.321 238.737 514.787 236.975 515.806C235.212 516.826 233.212 517.363 231.176 517.363C229.14 517.364 227.14 516.829 225.377 515.81L128.418 459.826L111.234 449.916C105.317 446.495 100.402 441.58 96.9796 435.663C93.5573 429.747 91.7481 423.036 91.7326 416.201V236.164C91.7296 234.128 92.263 232.127 93.2791 230.362C94.2952 228.598 95.7582 227.132 97.5207 226.113C99.2833 225.094 101.283 224.557 103.319 224.556C105.355 224.555 107.356 225.091 109.119 226.109L223.29 292.018C229.21 295.434 234.126 300.348 237.544 306.266C240.962 312.185 242.762 318.899 242.763 325.733Z" fill="#3E63F6"/>
<path opacity="0.5" d="M242.763 325.733V505.755C242.766 507.791 242.233 509.792 241.216 511.557C240.2 513.321 238.737 514.787 236.975 515.806C235.212 516.826 233.212 517.363 231.176 517.363C229.14 517.364 227.14 516.829 225.377 515.81L128.418 459.826L111.234 449.916C105.317 446.495 100.402 441.58 96.9796 435.663C93.5573 429.747 91.7481 423.036 91.7326 416.201V236.164C91.7296 234.128 92.263 232.127 93.2791 230.362C94.2952 228.598 95.7582 227.132 97.5207 226.113C99.2833 225.094 101.283 224.557 103.319 224.556C105.355 224.555 107.356 225.091 109.119 226.109L223.29 292.018C229.21 295.434 234.126 300.348 237.544 306.266C240.962 312.185 242.762 318.899 242.763 325.733Z" fill="white"/>
<path d="M186.909 432.254C186.909 432.254 205.063 462.362 191.951 496.309L128.375 459.826L186.909 432.254Z" fill="#263238"/>
<path d="M215.861 296.984C217.235 285.825 209.303 275.666 198.145 274.292C186.987 272.918 176.827 280.849 175.453 292.008C174.079 303.166 182.011 313.326 193.169 314.7C204.328 316.074 214.487 308.142 215.861 296.984Z" fill="#263238"/>
<path d="M195.762 237.395C195.762 237.395 202.006 227.253 203.919 227.992C205.831 228.731 202.673 238.395 202.673 238.395C202.673 238.395 212.119 240.366 210.366 242.742C208.613 245.118 197.066 244.553 197.066 244.553L195.762 237.395Z" fill="#263238"/>
<path d="M200.108 263.533C195.762 296.191 168.233 296.191 168.233 296.191L110.568 270.806C110.568 270.806 106.221 266.996 104.888 258.245C104.377 254.66 104.377 251.021 104.888 247.436C104.888 247.436 104.888 247.364 104.888 247.335C106.728 233.599 117.001 218.835 139.372 214.3C144.274 213.311 149.265 212.825 154.266 212.852C156.685 212.843 159.104 212.964 161.51 213.214C178.897 214.923 191.082 223.037 196.892 235.657C198.199 238.505 199.171 241.495 199.789 244.567C200.969 250.826 201.076 257.239 200.108 263.533Z" fill="#263238"/>
<path d="M61.6686 326.704C61.6686 326.704 41.1961 325.994 33.3142 345.945C33.3142 345.945 42.0074 351.813 53.41 345.945C64.8127 340.077 61.6686 326.704 61.6686 326.704Z" fill="#3E63F6"/>
<path opacity="0.5" d="M61.6686 326.704C61.6686 326.704 41.1961 325.994 33.3142 345.945C33.3142 345.945 42.0074 351.813 53.41 345.945C64.8127 340.077 61.6686 326.704 61.6686 326.704Z" fill="black"/>
<path d="M61.0891 336.31C61.0891 336.31 55.2936 311.129 52.2365 310.824C49.1794 310.52 48.5853 318.503 48.8316 323.009L41.5873 307.419C41.3575 306.935 41.0309 306.503 40.6276 306.149C40.2243 305.796 39.753 305.529 39.2426 305.365C38.7321 305.2 38.1935 305.142 37.6598 305.194C37.1261 305.246 36.6087 305.407 36.1395 305.666C28.8952 309.651 16.1886 321.763 42.9782 351.711L61.0891 336.31Z" fill="#945959"/>
<path d="M135.271 318.894L130.925 318.329C126.544 317.749 122.088 318.344 118.014 320.055C113.94 321.767 110.395 324.531 107.743 328.066L81.8803 362.491L61.5961 326.704C61.5961 326.704 59.1621 351.045 33.2418 345.945L61.0746 392.787C62.836 395.752 65.2877 398.248 68.221 400.063C71.1544 401.877 74.4825 402.956 77.9225 403.208C81.3624 403.46 84.8122 402.877 87.9785 401.509C91.1448 400.141 93.9338 398.029 96.1083 395.351L119.928 366.07L135.271 318.894Z" fill="#3E63F6"/>
<path d="M190.473 399.234C184.678 413.926 184.04 416.795 187.575 424.14C190.037 429.566 191.978 435.213 193.371 441.005C193.371 441.005 166.509 471.113 128.273 459.841L111.09 449.93C107.516 447.869 104.297 445.247 101.556 442.164L106.786 403.161C107.05 401.108 106.842 399.022 106.178 397.061L100.687 380.964C98.0071 373.102 97.6083 364.642 99.5365 356.562C101.465 348.483 105.641 341.115 111.582 335.31L130.041 317.272L178.52 323.473L185.764 325.545C190.507 326.916 194.595 329.953 197.278 334.098C199.961 338.242 201.059 343.215 200.369 348.104C197.993 365.2 194.11 390.005 190.473 399.234Z" fill="#3E63F6"/>
<path opacity="0.5" d="M190.473 399.234C184.678 413.926 184.04 416.795 187.575 424.14C190.037 429.566 191.978 435.213 193.371 441.005C193.371 441.005 166.509 471.113 128.273 459.841L111.09 449.93C107.516 447.869 104.297 445.247 101.556 442.164L106.786 403.161C107.05 401.108 106.842 399.022 106.178 397.061L100.687 380.964C98.0071 373.102 97.6083 364.642 99.5365 356.562C101.465 348.483 105.641 341.115 111.582 335.31L130.041 317.272L178.52 323.473L185.764 325.545C190.507 326.916 194.595 329.953 197.278 334.098C199.961 338.242 201.059 343.215 200.369 348.104C197.993 365.2 194.11 390.005 190.473 399.234Z" fill="black"/>
<path d="M161.235 355.348L151.528 347.075C150.499 346.196 149.26 345.599 147.931 345.345C146.602 345.091 145.23 345.188 143.95 345.626L132.214 349.668L130.635 343.091C130.388 342.067 129.937 341.104 129.308 340.26C128.68 339.416 127.887 338.708 126.977 338.178C126.067 337.649 125.059 337.309 124.015 337.18C122.97 337.051 121.91 337.134 120.898 337.426L115.813 338.874L124.419 322.386C127.229 317.016 131.558 312.592 136.865 309.665L140.241 307.811L168.132 309.259C168.132 309.259 178.52 313.606 178.52 323.386L161.235 355.261" fill="#3E63F6"/>
<path d="M168.248 321.618L140.284 343.409V274.023H168.248V321.618Z" fill="#945959"/>
<path d="M140.719 315.895L132.214 349.726L168.132 321.618L140.719 315.895Z" fill="#945959"/>
<path d="M140.284 310.868C146.502 308.559 152.186 305.01 156.991 300.437C161.795 295.865 165.62 290.363 168.233 284.266V274.023H140.27L140.284 310.868Z" fill="#703838"/>
<path d="M146.312 222.602C135.706 222.602 113.161 228.514 110.554 256.274C107.946 284.035 110.467 305.536 124.781 307.622C139.096 309.709 172.362 299.32 176.825 263.388C181.287 227.456 156.642 222.602 146.312 222.602Z" fill="#945959"/>
<path d="M129.621 268.025V284.382L120.029 281.441L129.621 268.025Z" fill="#703838"/>
<path d="M140.284 274.182C142.125 274.182 143.617 272.69 143.617 270.85C143.617 269.009 142.125 267.518 140.284 267.518C138.444 267.518 136.952 269.009 136.952 270.85C136.952 272.69 138.444 274.182 140.284 274.182Z" fill="#263238"/>
<path d="M121.681 268.532C121.678 269.19 121.48 269.833 121.112 270.379C120.744 270.925 120.223 271.35 119.614 271.6C119.005 271.85 118.335 271.914 117.689 271.784C117.044 271.654 116.452 271.335 115.987 270.868C115.522 270.402 115.206 269.808 115.079 269.162C114.952 268.516 115.018 267.847 115.271 267.239C115.524 266.631 115.951 266.111 116.499 265.745C117.046 265.38 117.69 265.185 118.348 265.185C118.787 265.185 119.222 265.271 119.627 265.44C120.032 265.608 120.4 265.855 120.71 266.166C121.02 266.477 121.265 266.846 121.431 267.252C121.598 267.658 121.683 268.093 121.681 268.532Z" fill="#263238"/>
<path d="M114.277 261.577L120.797 257.709C120.797 257.709 118.305 255.115 115.813 256.665C113.321 258.216 114.277 261.577 114.277 261.577Z" fill="#263238"/>
<path d="M125.115 291.018C128.29 291.25 131.45 290.402 134.083 288.613C134.083 288.613 134.706 293.351 130.736 294.249C126.766 295.147 125.115 291.018 125.115 291.018Z" fill="#703838"/>
<path d="M119.421 232.049C119.421 232.049 123.405 270.372 175.521 271.574C175.521 271.574 191.27 233.484 160.148 221.11C129.027 208.737 119.421 232.049 119.421 232.049Z" fill="#263238"/>
<path d="M190.864 265.837L184.46 262.128C182.026 260.679 178.665 260.882 174.941 263.026C167.552 267.286 161.554 277.674 161.554 286.208C161.554 290.482 163.003 293.452 165.495 294.901L171.783 298.523L172.145 298.726L172.362 298.857C174.739 300.016 177.912 299.74 181.403 297.726C188.793 293.38 194.791 283.078 194.791 274.545C194.747 270.227 193.255 267.242 190.864 265.837Z" fill="#3E63F6"/>
<path d="M190.814 287.66C196.039 278.609 196.039 268.827 190.814 265.81C185.589 262.794 177.117 267.685 171.892 276.735C166.667 285.786 166.667 295.568 171.892 298.585C177.117 301.601 185.589 296.71 190.814 287.66Z" fill="#3E63F6"/>
<path opacity="0.5" d="M190.814 287.66C196.039 278.609 196.039 268.827 190.814 265.81C185.589 262.794 177.117 267.685 171.892 276.735C166.667 285.786 166.667 295.568 171.892 298.585C177.117 301.601 185.589 296.71 190.814 287.66Z" fill="black"/>
<path d="M193.429 273.878L189.082 271.343C187.431 270.357 185.127 270.488 182.577 271.951C179.913 273.692 177.696 276.035 176.106 278.791C174.515 281.547 173.595 284.639 173.42 287.816C173.42 290.714 174.449 292.786 176.115 293.742L180.462 296.22C180.539 296.276 180.621 296.324 180.708 296.364L180.853 296.451C181.872 296.838 182.97 296.969 184.051 296.832C185.132 296.696 186.163 296.296 187.054 295.669C189.716 293.93 191.931 291.589 193.522 288.835C195.113 286.082 196.034 282.993 196.211 279.818C196.095 276.877 195.081 274.834 193.429 273.878Z" fill="#3E63F6"/>
<path d="M196.095 279.789C195.918 282.964 194.997 286.053 193.406 288.806C191.816 291.56 189.6 293.901 186.938 295.64C181.867 298.538 177.767 296.191 177.767 290.352C177.938 287.174 178.859 284.082 180.453 281.327C182.046 278.573 184.269 276.234 186.938 274.501C191.995 271.574 196.095 273.936 196.095 279.789Z" fill="#3E63F6"/>
<path opacity="0.3" d="M196.095 279.789C195.918 282.964 194.997 286.053 193.406 288.806C191.816 291.56 189.6 293.901 186.938 295.64C181.867 298.538 177.767 296.191 177.767 290.352C177.938 287.174 178.859 284.082 180.453 281.327C182.046 278.573 184.269 276.234 186.938 274.501C191.995 271.574 196.095 273.936 196.095 279.789Z" fill="black"/>
<path d="M170.971 215.126C166.818 211.918 161.731 210.153 156.483 210.099H155.193C149.879 210.041 144.573 210.527 139.357 211.548C140.313 211.548 141.27 211.548 142.255 211.548H139.357V214.243H142.052C151.34 214.558 160.141 218.473 166.594 225.16C173.048 231.846 176.649 240.78 176.636 250.073V261.476C176.636 261.926 176.73 262.372 176.913 262.784C177.096 263.196 177.364 263.565 177.699 263.867C178.033 264.169 178.428 264.397 178.856 264.537C179.285 264.676 179.738 264.724 180.186 264.678H180.519L183.417 263.779C183.224 263.84 183.025 263.879 182.823 263.895C183.687 263.778 184.478 263.347 185.044 262.684C185.611 262.022 185.913 261.174 185.895 260.302V249.725C185.866 230.586 177.593 220.299 170.971 215.126Z" fill="#3E63F6"/>
<path d="M152.73 306.825C151.535 306.825 150.354 306.569 149.267 306.072L140.212 301.885C140.07 301.834 139.941 301.755 139.831 301.651C139.722 301.548 139.635 301.423 139.577 301.285C139.518 301.146 139.489 300.997 139.491 300.846C139.493 300.696 139.527 300.548 139.589 300.411C139.651 300.274 139.741 300.151 139.854 300.051C139.966 299.951 140.098 299.875 140.241 299.828C140.384 299.782 140.535 299.765 140.684 299.78C140.834 299.795 140.979 299.841 141.11 299.914L150.166 304.101C151.32 304.639 152.614 304.802 153.866 304.568C155.118 304.334 156.266 303.715 157.149 302.798L165.842 293.815C166.046 293.611 166.322 293.497 166.61 293.497C166.898 293.497 167.174 293.611 167.378 293.815C167.578 294.02 167.69 294.296 167.69 294.582C167.69 294.869 167.578 295.145 167.378 295.35L158.685 304.333C157.911 305.128 156.985 305.758 155.962 306.186C154.938 306.615 153.839 306.832 152.73 306.825Z" fill="#3E63F6"/>
<path opacity="0.5" d="M152.73 306.825C151.535 306.825 150.354 306.569 149.267 306.072L140.212 301.885C140.07 301.834 139.941 301.755 139.831 301.651C139.722 301.548 139.635 301.423 139.577 301.285C139.518 301.146 139.489 300.997 139.491 300.846C139.493 300.696 139.527 300.548 139.589 300.411C139.651 300.274 139.741 300.151 139.854 300.051C139.966 299.951 140.098 299.875 140.241 299.828C140.384 299.782 140.535 299.765 140.684 299.78C140.834 299.795 140.979 299.841 141.11 299.914L150.166 304.101C151.32 304.639 152.614 304.802 153.866 304.568C155.118 304.334 156.266 303.715 157.149 302.798L165.842 293.815C166.046 293.611 166.322 293.497 166.61 293.497C166.898 293.497 167.174 293.611 167.378 293.815C167.578 294.02 167.69 294.296 167.69 294.582C167.69 294.869 167.578 295.145 167.378 295.35L158.685 304.333C157.911 305.128 156.985 305.758 155.962 306.186C154.938 306.615 153.839 306.832 152.73 306.825Z" fill="black"/>
<path d="M142.588 298.842C142.588 299.679 142.34 300.497 141.875 301.193C141.41 301.888 140.749 302.431 139.976 302.751C139.203 303.071 138.353 303.155 137.532 302.991C136.711 302.828 135.957 302.425 135.366 301.834C134.774 301.242 134.371 300.488 134.208 299.667C134.045 298.847 134.128 297.996 134.449 297.223C134.769 296.45 135.311 295.789 136.007 295.324C136.703 294.86 137.521 294.611 138.357 294.611C139.479 294.611 140.555 295.057 141.349 295.851C142.142 296.644 142.588 297.72 142.588 298.842Z" fill="#3E63F6"/>
<path opacity="0.5" d="M142.588 298.842C142.588 299.679 142.34 300.497 141.875 301.193C141.41 301.888 140.749 302.431 139.976 302.751C139.203 303.071 138.353 303.155 137.532 302.991C136.711 302.828 135.957 302.425 135.366 301.834C134.774 301.242 134.371 300.488 134.208 299.667C134.045 298.847 134.128 297.996 134.449 297.223C134.769 296.45 135.311 295.789 136.007 295.324C136.703 294.86 137.521 294.611 138.357 294.611C139.479 294.611 140.555 295.057 141.349 295.851C142.142 296.644 142.588 297.72 142.588 298.842Z" fill="black"/>
<path d="M185.866 249.725V260.302C185.884 261.174 185.582 262.022 185.015 262.684C184.449 263.347 183.658 263.778 182.794 263.895C182.317 263.946 181.834 263.896 181.378 263.748C180.921 263.6 180.501 263.357 180.144 263.036C179.787 262.715 179.502 262.322 179.307 261.884C179.112 261.445 179.012 260.97 179.013 260.49V249.725C179.021 244.588 177.99 239.501 175.981 234.772C173.972 230.044 171.027 225.77 167.324 222.209C163.621 218.648 159.235 215.872 154.432 214.05C149.628 212.228 144.505 211.396 139.372 211.606C144.587 210.585 149.893 210.099 155.208 210.157H156.468C161.716 210.211 166.803 211.976 170.957 215.184C177.593 220.299 185.866 230.586 185.866 249.725Z" fill="#3E63F6"/>
<path opacity="0.5" d="M185.866 249.725V260.302C185.884 261.174 185.582 262.022 185.015 262.684C184.449 263.347 183.658 263.778 182.794 263.895C182.317 263.946 181.834 263.896 181.378 263.748C180.921 263.6 180.501 263.357 180.144 263.036C179.787 262.715 179.502 262.322 179.307 261.884C179.112 261.445 179.012 260.97 179.013 260.49V249.725C179.021 244.588 177.99 239.501 175.981 234.772C173.972 230.044 171.027 225.77 167.324 222.209C163.621 218.648 159.235 215.872 154.432 214.05C149.628 212.228 144.505 211.396 139.372 211.606C144.587 210.585 149.893 210.099 155.208 210.157H156.468C161.716 210.211 166.803 211.976 170.957 215.184C177.593 220.299 185.866 230.586 185.866 249.725Z" fill="black"/>
<path d="M169.58 449.047C169.58 449.047 162.568 468.36 187.633 477.053C187.633 477.053 195.82 465.028 187.633 455.19C179.447 445.352 169.58 449.047 169.58 449.047Z" fill="#3E63F6"/>
<path opacity="0.7" d="M169.58 449.047C169.58 449.047 162.568 468.36 187.633 477.053C187.633 477.053 195.82 465.028 187.633 455.19C179.447 445.352 169.58 449.047 169.58 449.047Z" fill="black"/>
<path d="M178.375 449.93C178.375 449.93 153.889 458.899 154.02 462.376C154.15 465.853 164.422 463.477 164.422 463.477L160.67 465.94C156.718 468.519 153.657 472.252 151.904 476.633C151.522 477.599 151.509 478.672 151.867 479.647C152.225 480.623 152.929 481.432 153.846 481.921L163.147 486.848C163.673 487.126 164.249 487.297 164.841 487.349C165.433 487.401 166.03 487.334 166.596 487.152C167.162 486.97 167.686 486.676 168.136 486.287C168.586 485.899 168.954 485.425 169.218 484.892C169.737 483.867 170.453 482.956 171.326 482.21C172.199 481.463 173.211 480.898 174.304 480.545C179.36 478.864 188.792 474.025 192.574 460.782L178.375 449.93Z" fill="#945959"/>
<path d="M185.721 325.516C185.721 325.516 172.681 332.76 179.607 354.754C186.532 376.748 199.529 410.869 199.529 410.869L169.581 449.047C172.78 449.432 175.862 450.489 178.626 452.146C181.39 453.804 183.773 456.026 185.62 458.667C187.389 461.353 188.494 464.42 188.844 467.617C189.194 470.814 188.779 474.048 187.633 477.053L224.811 429.24C228.25 424.822 230.532 419.616 231.453 414.094C232.374 408.571 231.904 402.907 230.085 397.612L214.148 351.074C212.2 345.389 208.962 340.232 204.689 336.007C200.416 331.782 195.223 328.603 189.517 326.718L185.721 325.516Z" fill="#3E63F6"/>
<path d="M211.288 7.42587L224.864 15.1484V10.3381C224.864 10.0049 224.864 9.65713 224.864 9.32389C224.864 8.99065 224.864 8.6719 224.864 8.35314V8.17928C225.357 1.81874 230.181 -0.629854 236.064 2.77499C238.727 4.413 241.009 6.6014 242.758 9.19349C244.076 0.500266 251.132 -2.57134 259.666 2.34033C269.142 7.81706 276.821 21.1757 276.821 32.0712V42.3581C276.807 43.181 277.01 43.993 277.409 44.7127C277.809 45.4323 278.39 46.0344 279.095 46.4585L287.093 51.1383C288.819 52.1617 290.25 53.6156 291.245 55.3579C292.241 57.1001 292.767 59.0709 292.773 61.0776C292.773 61.9101 292.554 62.7279 292.137 63.4488C291.721 64.1696 291.122 64.7681 290.401 65.1838C289.679 65.5995 288.861 65.8178 288.029 65.8168C287.196 65.8158 286.379 65.5954 285.659 65.1779L211.491 22.3058C209.523 21.1631 207.889 19.5255 206.75 17.5556C205.612 15.5858 205.008 13.3523 205 11.077C204.999 10.3405 205.192 9.61681 205.559 8.97837C205.926 8.33993 206.455 7.8092 207.092 7.43939C207.729 7.06957 208.452 6.87367 209.188 6.87129C209.925 6.86892 210.649 7.06017 211.288 7.42587Z" fill="#E6E6E6"/>
<path d="M314.781 5.41194L324.648 11.077V7.54178C324.648 7.29547 324.648 7.04916 324.648 6.80286C324.648 6.55655 324.648 6.32473 324.648 6.09291V6.00598C325.01 1.38408 328.516 -0.398032 332.79 2.07954C334.726 3.26547 336.386 4.85114 337.659 6.73041C338.629 0.442312 343.758 -1.83241 349.96 1.7463C356.856 5.73069 362.434 15.4092 362.434 23.3635V30.8541C362.439 31.4413 362.597 32.0171 362.892 32.5251C363.186 33.033 363.608 33.4558 364.115 33.7519L369.91 37.1567C371.172 37.8983 372.216 38.9574 372.941 40.2284C373.665 41.4994 374.044 42.9381 374.04 44.4011C374.039 45.0003 373.882 45.5889 373.584 46.1089C373.286 46.6289 372.858 47.0624 372.342 47.3666C371.826 47.6708 371.239 47.8352 370.64 47.8436C370.041 47.8521 369.45 47.7043 368.925 47.4147L314.926 16.235C313.495 15.4072 312.307 14.2179 311.48 12.7863C310.654 11.3546 310.218 9.73092 310.217 8.07786C310.216 7.54285 310.355 7.01692 310.621 6.55265C310.887 6.08837 311.27 5.702 311.732 5.43215C312.194 5.16229 312.719 5.0184 313.254 5.01486C313.789 5.01131 314.315 5.14823 314.781 5.41194Z" fill="#E6E6E6"/>
</svg>
