<svg width="400" height="720" viewBox="0 0 400 720" fill="none" xmlns="http://www.w3.org/2000/svg">
<path d="M0 15C0 6.71571 6.71573 0 15 0H400V720H15C6.71574 720 0 713.284 0 705V15Z" fill="#94A9E5"/>
<mask id="mask0" mask-type="alpha" maskUnits="userSpaceOnUse" x="0" y="0" width="400" height="720">
<path d="M0 0H400V720H0V0Z" fill="#1F1A6B"/>
</mask>
<g mask="url(#mask0)">
<path d="M105.5 771.373C263.177 771.373 391 698.76 391 609.187C391 519.613 263.177 447 105.5 447C-52.1773 447 -180 519.613 -180 609.187C-180 698.76 -52.1773 771.373 105.5 771.373Z" fill="#F5F5F5"/>
<path d="M265.307 713.595L52.193 590.542C50.3183 589.462 48.7612 587.907 47.6785 586.033C46.5958 584.16 46.0258 582.035 46.0258 579.871C46.0258 577.707 46.5958 575.582 47.6785 573.709C48.7612 571.835 50.3183 570.28 52.193 569.2L73.2161 555.943C76.8452 553.853 80.9596 552.753 85.1476 552.753C89.3355 552.753 93.45 553.853 97.079 555.943L310.222 679.01C312.097 680.09 313.654 681.645 314.737 683.518C315.82 685.392 316.39 687.517 316.39 689.681C316.39 691.845 315.82 693.97 314.737 695.843C313.654 697.717 312.097 699.272 310.222 700.352L289.199 713.595C285.569 715.696 281.448 716.802 277.253 716.802C273.059 716.802 268.938 715.696 265.307 713.595Z" fill="#E0E0E0"/>
<path d="M321.123 588.119L341.408 599.783C341.408 599.783 331.048 567.227 336.568 534.41C338.655 522.007 343.132 515.85 344.697 512.532C346.261 509.214 358.388 488.712 347.594 479.324C336.8 469.935 311.691 488.814 313.053 539.336C313.672 555.872 316.384 572.264 321.123 588.119Z" fill="#3E63F6"/>
<path opacity="0.5" d="M321.123 588.119L341.408 599.783C341.408 599.783 331.048 567.227 336.568 534.41C338.655 522.007 343.132 515.85 344.697 512.532C346.261 509.214 358.388 488.712 347.594 479.324C336.8 469.935 311.691 488.814 313.053 539.336C313.672 555.872 316.384 572.264 321.123 588.119Z" fill="black"/>
<path d="M330.556 594.262C330.408 594.266 330.263 594.223 330.141 594.14C330.019 594.056 329.926 593.937 329.875 593.799C329.802 593.582 322.051 572.399 322.297 538.351C322.543 504.302 340.437 485.814 340.611 485.641C340.678 485.573 340.758 485.519 340.847 485.482C340.935 485.445 341.03 485.426 341.125 485.426C341.221 485.426 341.315 485.445 341.404 485.482C341.492 485.519 341.572 485.573 341.64 485.641C341.707 485.708 341.761 485.788 341.798 485.876C341.835 485.965 341.854 486.059 341.854 486.155C341.854 486.251 341.835 486.345 341.798 486.434C341.761 486.522 341.707 486.602 341.64 486.669C341.466 486.843 323.992 504.78 323.746 538.365C323.5 571.95 331.15 593.103 331.237 593.306C331.302 593.487 331.293 593.686 331.211 593.86C331.13 594.034 330.983 594.168 330.802 594.234C330.722 594.258 330.639 594.268 330.556 594.262Z" fill="white"/>
<path d="M329.585 593.103L357.316 609.041C360.206 610.749 363.633 611.305 366.914 610.599C370.196 609.893 373.09 607.976 375.021 605.23C376.857 602.374 377.631 598.964 377.209 595.595C375.876 581.194 369.617 577.876 377.282 571.457C384.946 565.039 386.946 564.59 386.511 558.417C386.076 552.245 381.86 549.55 379.861 547.116C377.861 544.682 372.327 539.582 376.094 532.048C379.861 524.514 385.004 517.226 377.209 513.894C372.558 511.894 364.807 514.56 359.707 520.095C354.607 525.629 350.405 529.614 345.522 530.947C340.64 532.28 330.469 532.497 330.903 540.915C331.338 549.333 333.569 552.216 331.57 555.969C327.803 562.981 311.416 566.966 329.585 593.103Z" fill="#3E63F6"/>
<path d="M343.291 601.681C343.111 601.675 342.938 601.604 342.805 601.482C342.672 601.36 342.588 601.194 342.567 601.014C342.567 600.522 338.307 550.796 372.5 517.704C372.641 517.588 372.821 517.529 373.004 517.54C373.186 517.55 373.358 517.63 373.485 517.762C373.611 517.894 373.683 518.069 373.686 518.251C373.689 518.434 373.622 518.611 373.5 518.747C339.799 551.361 343.972 600.391 344.016 600.884C344.032 601.074 343.972 601.262 343.85 601.409C343.728 601.555 343.553 601.648 343.364 601.666L343.291 601.681Z" fill="white"/>
<path d="M348.782 558.881C348.6 558.882 348.424 558.813 348.29 558.69C348.155 558.566 348.073 558.397 348.058 558.215C347.755 554.361 346.669 550.61 344.868 547.19C343.067 543.769 340.588 540.752 337.583 538.322C337.504 538.267 337.438 538.197 337.386 538.116C337.335 538.035 337.301 537.945 337.284 537.851C337.268 537.756 337.271 537.66 337.292 537.567C337.314 537.473 337.353 537.385 337.409 537.307C337.462 537.23 337.531 537.163 337.611 537.112C337.69 537.061 337.779 537.026 337.872 537.01C337.965 536.994 338.061 536.997 338.153 537.018C338.245 537.039 338.332 537.078 338.409 537.134C341.611 539.674 344.252 542.851 346.162 546.465C348.073 550.079 349.212 554.05 349.507 558.128C349.523 558.321 349.462 558.514 349.337 558.663C349.213 558.812 349.034 558.906 348.84 558.925L348.782 558.881Z" fill="white"/>
<path d="M346.421 567.415C346.246 567.417 346.076 567.355 345.943 567.241C345.799 567.113 345.711 566.934 345.697 566.741C345.684 566.549 345.746 566.359 345.87 566.212C346.218 565.807 354.781 556.36 374.848 558.867C375.038 558.892 375.21 558.991 375.327 559.144C375.444 559.296 375.495 559.488 375.471 559.678C375.445 559.869 375.346 560.043 375.195 560.162C375.043 560.281 374.851 560.336 374.659 560.316C355.389 557.896 347.029 567.082 346.942 567.169C346.876 567.243 346.796 567.302 346.707 567.345C346.617 567.387 346.52 567.411 346.421 567.415Z" fill="white"/>
<path d="M258.816 698.889L71.3906 590.672C58.1624 583.037 47.4407 562.55 47.4407 544.917V143.58C47.4407 125.947 58.1624 117.848 71.3906 125.483L258.816 233.699C272.045 241.335 282.766 261.822 282.766 279.455V680.792C282.766 698.41 272.045 706.524 258.816 698.889Z" fill="#455A64"/>
<path d="M280.405 221.08L92.9643 112.864C87.3137 109.604 82.1267 109.227 78.0264 111.226C77.5244 111.478 77.0403 111.763 76.5775 112.081L55.5689 124.295C59.7996 121.76 65.3343 121.948 71.4051 125.454L258.831 233.671C272.059 241.306 282.781 261.793 282.781 279.426V680.763C282.781 690.094 279.782 696.701 275 699.83L295.734 687.761C301.022 684.95 304.427 678.068 304.427 668.201V266.864C304.427 249.202 293.633 228.715 280.405 221.08Z" fill="#37474F"/>
<path d="M282.766 279.426V680.763C282.766 690.094 279.767 696.701 274.986 699.83L295.734 687.761C301.022 684.95 304.427 678.068 304.427 668.201V266.864L282.839 279.397L282.766 279.426Z" fill="#263238"/>
<path d="M304.355 298L282.766 310.461V320.197L304.355 307.722V298Z" fill="#37474F"/>
<path d="M294.893 362.75C292.966 363.866 291.402 362.678 291.402 360.113V339.177C291.421 337.869 291.747 336.583 292.354 335.423C292.96 334.263 293.83 333.261 294.893 332.498C296.82 331.382 298.385 332.498 298.385 335.135V356.071C298.366 357.38 298.04 358.666 297.433 359.826C296.827 360.986 295.957 361.987 294.893 362.75Z" fill="#37474F"/>
<path d="M291.387 360.171V339.177C291.407 337.869 291.733 336.583 292.339 335.423C292.946 334.263 293.815 333.261 294.879 332.498C295.197 332.276 295.567 332.14 295.953 332.105C296.339 332.069 296.728 332.135 297.081 332.295L294.459 330.948C294.1 330.775 293.702 330.7 293.305 330.731C292.908 330.761 292.527 330.896 292.198 331.122C291.134 331.885 290.263 332.886 289.654 334.046C289.045 335.205 288.716 336.491 288.692 337.801V358.723C288.638 359.251 288.718 359.785 288.926 360.274C289.134 360.763 289.462 361.191 289.88 361.519L292.619 362.968C292.183 362.654 291.839 362.229 291.622 361.737C291.406 361.246 291.325 360.705 291.387 360.171Z" fill="#455A64"/>
<path d="M294.893 413.417C292.966 414.533 291.402 413.417 291.402 410.78V389.844C291.422 388.536 291.749 387.25 292.355 386.09C292.961 384.931 293.831 383.929 294.893 383.165C296.82 382.049 298.385 383.165 298.385 385.816V406.738C298.368 408.047 298.043 409.334 297.436 410.494C296.83 411.655 295.959 412.656 294.893 413.417Z" fill="#37474F"/>
<path d="M291.387 410.78V389.844C291.408 388.536 291.734 387.25 292.341 386.09C292.947 384.931 293.816 383.929 294.879 383.165C295.198 382.947 295.568 382.813 295.954 382.778C296.339 382.742 296.727 382.806 297.081 382.962L294.459 381.6C294.102 381.42 293.703 381.341 293.304 381.372C292.906 381.402 292.523 381.541 292.198 381.774C291.131 382.535 290.258 383.536 289.649 384.696C289.04 385.856 288.712 387.143 288.692 388.453V409.433C288.637 409.962 288.716 410.496 288.924 410.985C289.132 411.474 289.461 411.902 289.88 412.229L292.619 413.678C292.165 413.357 291.81 412.916 291.592 412.404C291.375 411.892 291.304 411.33 291.387 410.78Z" fill="#455A64"/>
<path d="M252.268 244.957L68.0871 138.581C67.3184 138.139 66.4474 137.905 65.5606 137.904C64.6738 137.902 63.802 138.132 63.0317 138.572C62.2613 139.011 61.6193 139.644 61.1692 140.408C60.7192 141.172 60.4767 142.041 60.466 142.928V544.917C60.466 558.334 69.9851 574.807 81.605 581.515L261.265 685.298C262.117 685.788 263.083 686.046 264.066 686.045C265.049 686.044 266.015 685.785 266.866 685.293C267.717 684.802 268.424 684.095 268.916 683.244C269.408 682.393 269.667 681.427 269.668 680.444V275.137C269.741 264.068 261.888 250.492 252.268 244.957Z" fill="#3E63F6"/>
<path opacity="0.9" d="M252.268 244.957L68.0871 138.581C67.3184 138.139 66.4474 137.905 65.5606 137.904C64.6738 137.902 63.802 138.132 63.0317 138.572C62.2613 139.011 61.6193 139.644 61.1692 140.408C60.7192 141.172 60.4767 142.041 60.466 142.928V544.917C60.466 558.334 69.9851 574.807 81.605 581.515L261.265 685.298C262.117 685.788 263.083 686.046 264.066 686.045C265.049 686.044 266.015 685.785 266.866 685.293C267.717 684.802 268.424 684.095 268.916 683.244C269.408 682.393 269.667 681.427 269.668 680.444V275.137C269.741 264.068 261.888 250.492 252.268 244.957Z" fill="white"/>
<path d="M123.173 166.356L126.027 178.367L187.083 213.575L197.631 207.953L123.173 166.356Z" fill="#455A64"/>
<path d="M141.125 177.961C141.125 179.961 139.676 180.758 137.995 179.772C137.093 179.173 136.344 178.371 135.808 177.43C135.272 176.489 134.964 175.435 134.909 174.354C134.909 172.369 136.358 171.557 138.039 172.557C138.941 173.153 139.69 173.953 140.226 174.891C140.762 175.83 141.07 176.882 141.125 177.961Z" fill="#263238"/>
<path d="M182.258 203.389C181.924 203.386 181.596 203.302 181.302 203.143L150.122 185.756C149.682 185.498 149.36 185.077 149.226 184.585C149.091 184.092 149.155 183.567 149.403 183.12C149.65 182.674 150.063 182.342 150.552 182.196C151.041 182.049 151.568 182.1 152.02 182.337L183.214 199.723C183.594 199.934 183.892 200.265 184.063 200.664C184.233 201.063 184.266 201.507 184.157 201.927C184.047 202.347 183.801 202.718 183.458 202.983C183.114 203.248 182.692 203.39 182.258 203.389Z" fill="#263238"/>
<path d="M99.0929 222.239C97.1949 221.138 95.8185 222.094 95.8185 224.514C95.8185 225.724 96.1174 226.915 96.6886 227.982C97.2599 229.048 98.0858 229.957 99.0929 230.628C99.6324 230.955 100.251 231.128 100.882 231.128C101.513 231.128 102.132 230.955 102.672 230.628L105.7 236.105C104.634 236.692 103.427 236.973 102.211 236.914C100.996 236.855 99.8212 236.459 98.8176 235.771C96.3576 234.266 94.3065 232.178 92.8458 229.691C91.3851 227.205 90.5599 224.396 90.4432 221.514C90.4432 216.139 94.0509 214.27 99.0205 217.168C101.827 218.975 104.126 221.469 105.7 224.412L102.672 226.817C101.925 224.99 100.686 223.405 99.0929 222.239Z" fill="#3E63F6"/>
<path d="M123.13 240.393C123.13 245.812 119.464 247.638 114.436 244.74C111.906 243.228 109.789 241.114 108.272 238.586C106.755 236.059 105.887 233.195 105.743 230.251C105.743 224.832 109.409 223.007 114.436 225.905C116.973 227.41 119.095 229.522 120.613 232.051C122.13 234.58 122.995 237.447 123.13 240.393ZM111.119 233.482C111.144 234.726 111.465 235.946 112.054 237.042C112.644 238.138 113.485 239.078 114.509 239.785C116.306 240.828 117.754 239.785 117.754 237.322C117.75 236.106 117.452 234.909 116.887 233.832C116.322 232.755 115.507 231.83 114.509 231.135C112.683 230.077 111.119 230.976 111.119 233.482Z" fill="#3E63F6"/>
<path d="M128.969 234.641L135.228 247.681V238.292L139.966 241.031V259.301L135.619 256.78L129.389 243.856V253.187L124.622 250.434V232.12L128.969 234.641Z" fill="#3E63F6"/>
<path d="M155.454 249.927V254.708L150.934 252.1V265.604L145.703 262.575V249.072L141.212 246.479V241.712L155.454 249.927Z" fill="#3E63F6"/>
<path d="M165.654 271.515L159.714 268.081L158.902 270.197L153.542 267.096L160.221 252.68L165.596 255.78L172.029 277.774L166.451 274.558L165.654 271.515ZM164.365 266.444L162.742 260.199L161.076 264.546L164.365 266.444Z" fill="#3E63F6"/>
<path d="M180.331 269.139C178.433 268.052 177.057 268.994 177.057 271.428C177.059 272.638 177.359 273.828 177.93 274.894C178.501 275.96 179.326 276.87 180.331 277.542C180.874 277.866 181.495 278.038 182.128 278.038C182.76 278.038 183.381 277.866 183.924 277.542L186.952 283.019C185.883 283.6 184.674 283.876 183.458 283.818C182.241 283.759 181.065 283.367 180.056 282.686C177.594 281.179 175.541 279.089 174.081 276.599C172.62 274.11 171.796 271.299 171.681 268.414C171.681 263.039 175.304 261.17 180.259 264.068C183.061 265.884 185.363 268.375 186.952 271.312L183.924 273.703C183.161 271.885 181.919 270.308 180.331 269.139Z" fill="#3E63F6"/>
<path d="M201.238 276.369V281.136L196.718 278.528V292.074L191.487 289.046V275.543L186.996 272.949V268.183L201.238 276.369Z" fill="#3E63F6"/>
<path d="M216.698 298.797C217.987 299.536 218.973 298.957 218.973 297.146V286.612L224.217 289.626V300.159C224.217 305.013 221.32 306.462 216.683 303.81C214.45 302.57 212.572 300.777 211.23 298.603C209.888 296.428 209.127 293.946 209.019 291.394V280.86L214.264 283.888V294.422C214.284 295.294 214.516 296.148 214.94 296.91C215.364 297.673 215.967 298.32 216.698 298.797Z" fill="#3E63F6"/>
<path d="M232.664 298.855C232.07 298.522 231.694 298.507 231.694 299.058C231.694 301.347 239.88 304.651 239.88 311.272C239.88 315.329 236.794 315.343 233.229 313.286C230.096 311.366 227.397 308.815 225.304 305.795L227.246 302.376C228.839 304.843 230.884 306.986 233.273 308.693C234.041 309.142 234.533 309.142 234.533 308.49C234.533 306.114 226.333 302.956 226.333 296.537C226.333 292.886 228.999 292.19 233.113 294.509C235.764 296.112 238.097 298.189 239.996 300.637L238.098 304.144C236.53 302.147 234.703 300.368 232.664 298.855Z" fill="#3E63F6"/>
<path d="M72.7379 312.272C78.6167 305.052 81.5759 295.89 81.0317 286.595C80.4876 277.3 76.4796 268.547 69.7985 262.062C63.1174 255.577 54.2485 251.831 44.9415 251.564C35.6345 251.297 26.5654 254.528 19.5234 260.619C12.4815 266.71 7.97813 275.22 6.90188 284.468C5.82563 293.717 8.25463 303.032 13.7097 310.578C19.1647 318.123 27.2496 323.35 36.3692 325.228C45.4888 327.105 54.9809 325.496 62.9726 320.719L81.1124 328.601L72.7379 312.272Z" fill="#3E63F6"/>
<path opacity="0.4" d="M72.7379 312.272C78.6167 305.052 81.5759 295.89 81.0317 286.595C80.4876 277.3 76.4796 268.547 69.7985 262.062C63.1174 255.577 54.2485 251.831 44.9415 251.564C35.6345 251.297 26.5654 254.528 19.5234 260.619C12.4815 266.71 7.97813 275.22 6.90188 284.468C5.82563 293.717 8.25463 303.032 13.7097 310.578C19.1647 318.123 27.2496 323.35 36.3692 325.228C45.4888 327.105 54.9809 325.496 62.9726 320.719L81.1124 328.601L72.7379 312.272Z" fill="black"/>
<path d="M30.0832 286.772C30.0832 286.207 29.6775 285.888 28.9386 285.888C27.2246 286.112 25.6238 286.867 24.3601 288.047L22.3027 284.048C24.4684 282.418 27.0845 281.497 29.7934 281.411C33.2707 281.411 35.9076 283.236 35.9076 285.96C35.9076 287.902 34.4588 289.771 32.6042 291.64L30.0107 294.204H36.1395V298.464H22.9692V294.972L28.8371 288.901C29.469 288.343 29.9056 287.596 30.0832 286.772Z" fill="white"/>
<path d="M46.8611 281.657L42.8623 291.249H44.4995V288.018H49.5416V291.249H51.4541V295.204H49.5416V298.464H44.4995V295.204H37.3276V291.611L41.6742 281.657H46.8611Z" fill="white"/>
<path d="M67.0149 290.104V298.464H61.6251V291.654C61.6562 291.433 61.6394 291.207 61.5757 290.992C61.512 290.777 61.403 290.579 61.2561 290.41C61.1091 290.241 60.9276 290.106 60.7238 290.013C60.5201 289.92 60.2987 289.872 60.0748 289.872C59.0172 289.872 58.3507 290.698 58.3507 291.973V298.464H52.9609V280.701H58.3507V287.235C58.7723 286.569 59.3599 286.023 60.0559 285.653C60.7519 285.282 61.5323 285.098 62.3206 285.12C62.9666 285.103 63.6088 285.223 64.2053 285.472C64.8018 285.72 65.3392 286.092 65.7822 286.562C66.2253 287.033 66.5641 287.591 66.7765 288.202C66.9889 288.812 67.0702 289.46 67.0149 290.104Z" fill="white"/>
<path d="M242.763 424.733V604.755C242.766 606.791 242.233 608.792 241.216 610.557C240.2 612.321 238.737 613.787 236.975 614.806C235.212 615.826 233.212 616.363 231.176 616.363C229.14 616.364 227.14 615.829 225.377 614.81L128.418 558.826L111.234 548.916C105.317 545.495 100.402 540.58 96.9796 534.663C93.5573 528.747 91.7481 522.036 91.7326 515.201V335.164C91.7296 333.128 92.263 331.127 93.2791 329.362C94.2952 327.598 95.7582 326.132 97.5207 325.113C99.2833 324.094 101.283 323.557 103.319 323.556C105.355 323.555 107.356 324.091 109.119 325.109L223.29 391.018C229.21 394.434 234.126 399.348 237.544 405.266C240.962 411.185 242.762 417.899 242.763 424.733Z" fill="#3E63F6"/>
<path opacity="0.5" d="M242.763 424.733V604.755C242.766 606.791 242.233 608.792 241.216 610.557C240.2 612.321 238.737 613.787 236.975 614.806C235.212 615.826 233.212 616.363 231.176 616.363C229.14 616.364 227.14 615.829 225.377 614.81L128.418 558.826L111.234 548.916C105.317 545.495 100.402 540.58 96.9796 534.663C93.5573 528.747 91.7481 522.036 91.7326 515.201V335.164C91.7296 333.128 92.263 331.127 93.2791 329.362C94.2952 327.598 95.7582 326.132 97.5207 325.113C99.2833 324.094 101.283 323.557 103.319 323.556C105.355 323.555 107.356 324.091 109.119 325.109L223.29 391.018C229.21 394.434 234.126 399.348 237.544 405.266C240.962 411.185 242.762 417.899 242.763 424.733Z" fill="white"/>
<path d="M186.909 531.254C186.909 531.254 205.063 561.362 191.951 595.309L128.375 558.826L186.909 531.254Z" fill="#263238"/>
<path d="M215.861 395.984C217.235 384.825 209.303 374.666 198.145 373.292C186.987 371.918 176.827 379.849 175.453 391.008C174.079 402.166 182.011 412.326 193.169 413.7C204.328 415.074 214.487 407.142 215.861 395.984Z" fill="#263238"/>
<path d="M195.762 336.395C195.762 336.395 202.006 326.253 203.919 326.992C205.831 327.731 202.673 337.395 202.673 337.395C202.673 337.395 212.119 339.366 210.366 341.742C208.613 344.118 197.066 343.553 197.066 343.553L195.762 336.395Z" fill="#263238"/>
<path d="M200.108 362.533C195.762 395.191 168.233 395.191 168.233 395.191L110.568 369.806C110.568 369.806 106.221 365.996 104.888 357.245C104.377 353.66 104.377 350.021 104.888 346.436C104.888 346.436 104.888 346.364 104.888 346.335C106.728 332.599 117.001 317.835 139.372 313.3C144.274 312.311 149.265 311.825 154.266 311.852C156.685 311.843 159.104 311.964 161.51 312.214C178.897 313.923 191.082 322.037 196.892 334.657C198.199 337.505 199.171 340.495 199.789 343.567C200.969 349.826 201.076 356.239 200.108 362.533Z" fill="#263238"/>
<path d="M61.6686 425.704C61.6686 425.704 41.1961 424.994 33.3142 444.945C33.3142 444.945 42.0074 450.813 53.41 444.945C64.8127 439.077 61.6686 425.704 61.6686 425.704Z" fill="#3E63F6"/>
<path opacity="0.5" d="M61.6686 425.704C61.6686 425.704 41.1961 424.994 33.3142 444.945C33.3142 444.945 42.0074 450.813 53.41 444.945C64.8127 439.077 61.6686 425.704 61.6686 425.704Z" fill="black"/>
<path d="M61.0891 435.31C61.0891 435.31 55.2936 410.129 52.2365 409.824C49.1794 409.52 48.5853 417.503 48.8316 422.009L41.5873 406.419C41.3575 405.935 41.0309 405.503 40.6276 405.149C40.2243 404.796 39.753 404.529 39.2426 404.365C38.7321 404.2 38.1935 404.142 37.6598 404.194C37.1261 404.246 36.6087 404.407 36.1395 404.666C28.8952 408.651 16.1886 420.763 42.9782 450.711L61.0891 435.31Z" fill="#945959"/>
<path d="M135.271 417.894L130.925 417.329C126.544 416.749 122.088 417.344 118.014 419.055C113.94 420.767 110.395 423.531 107.743 427.066L81.8803 461.491L61.5961 425.704C61.5961 425.704 59.1621 450.045 33.2418 444.945L61.0746 491.787C62.836 494.752 65.2877 497.248 68.221 499.063C71.1544 500.877 74.4825 501.956 77.9225 502.208C81.3624 502.46 84.8122 501.877 87.9785 500.509C91.1448 499.141 93.9338 497.029 96.1083 494.351L119.928 465.07L135.271 417.894Z" fill="#3E63F6"/>
<path d="M190.473 498.234C184.678 512.926 184.04 515.795 187.575 523.14C190.037 528.566 191.978 534.213 193.371 540.005C193.371 540.005 166.509 570.113 128.273 558.841L111.09 548.93C107.516 546.869 104.297 544.247 101.556 541.164L106.786 502.161C107.05 500.108 106.842 498.022 106.178 496.061L100.687 479.964C98.0071 472.102 97.6083 463.642 99.5365 455.562C101.465 447.483 105.641 440.115 111.582 434.31L130.041 416.272L178.52 422.473L185.764 424.545C190.507 425.916 194.595 428.953 197.278 433.098C199.961 437.242 201.059 442.215 200.369 447.104C197.993 464.2 194.11 489.005 190.473 498.234Z" fill="#3E63F6"/>
<path opacity="0.5" d="M190.473 498.234C184.678 512.926 184.04 515.795 187.575 523.14C190.037 528.566 191.978 534.213 193.371 540.005C193.371 540.005 166.509 570.113 128.273 558.841L111.09 548.93C107.516 546.869 104.297 544.247 101.556 541.164L106.786 502.161C107.05 500.108 106.842 498.022 106.178 496.061L100.687 479.964C98.0071 472.102 97.6083 463.642 99.5365 455.562C101.465 447.483 105.641 440.115 111.582 434.31L130.041 416.272L178.52 422.473L185.764 424.545C190.507 425.916 194.595 428.953 197.278 433.098C199.961 437.242 201.059 442.215 200.369 447.104C197.993 464.2 194.11 489.005 190.473 498.234Z" fill="black"/>
<path d="M161.235 454.348L151.528 446.075C150.499 445.196 149.26 444.599 147.931 444.345C146.602 444.091 145.23 444.188 143.95 444.626L132.214 448.668L130.635 442.091C130.388 441.067 129.937 440.104 129.308 439.26C128.68 438.416 127.887 437.708 126.977 437.178C126.067 436.649 125.059 436.309 124.015 436.18C122.97 436.051 121.91 436.134 120.898 436.426L115.813 437.874L124.419 421.386C127.229 416.016 131.558 411.592 136.865 408.665L140.241 406.811L168.132 408.259C168.132 408.259 178.52 412.606 178.52 422.386L161.235 454.261" fill="#3E63F6"/>
<path d="M168.248 420.618L140.284 442.409V373.023H168.248V420.618Z" fill="#945959"/>
<path d="M140.719 414.895L132.214 448.726L168.132 420.618L140.719 414.895Z" fill="#945959"/>
<path d="M140.284 409.868C146.502 407.559 152.186 404.01 156.991 399.437C161.795 394.865 165.62 389.363 168.233 383.266V373.023H140.27L140.284 409.868Z" fill="#703838"/>
<path d="M146.312 321.602C135.706 321.602 113.161 327.514 110.554 355.274C107.946 383.035 110.467 404.536 124.781 406.622C139.096 408.709 172.362 398.32 176.825 362.388C181.287 326.456 156.642 321.602 146.312 321.602Z" fill="#945959"/>
<path d="M129.621 367.025V383.382L120.029 380.441L129.621 367.025Z" fill="#703838"/>
<path d="M140.284 373.182C142.125 373.182 143.617 371.69 143.617 369.85C143.617 368.009 142.125 366.518 140.284 366.518C138.444 366.518 136.952 368.009 136.952 369.85C136.952 371.69 138.444 373.182 140.284 373.182Z" fill="#263238"/>
<path d="M121.681 367.532C121.678 368.19 121.48 368.833 121.112 369.379C120.744 369.925 120.223 370.35 119.614 370.6C119.005 370.85 118.335 370.914 117.689 370.784C117.044 370.654 116.452 370.335 115.987 369.868C115.522 369.402 115.206 368.808 115.079 368.162C114.952 367.516 115.018 366.847 115.271 366.239C115.524 365.631 115.951 365.111 116.499 364.745C117.046 364.38 117.69 364.185 118.348 364.185C118.787 364.185 119.222 364.271 119.627 364.44C120.032 364.608 120.4 364.855 120.71 365.166C121.02 365.477 121.265 365.846 121.431 366.252C121.598 366.658 121.683 367.093 121.681 367.532Z" fill="#263238"/>
<path d="M114.277 360.577L120.797 356.709C120.797 356.709 118.305 354.115 115.813 355.665C113.321 357.216 114.277 360.577 114.277 360.577Z" fill="#263238"/>
<path d="M125.115 390.018C128.29 390.25 131.45 389.402 134.083 387.613C134.083 387.613 134.706 392.351 130.736 393.249C126.766 394.147 125.115 390.018 125.115 390.018Z" fill="#703838"/>
<path d="M119.421 331.049C119.421 331.049 123.405 369.372 175.521 370.574C175.521 370.574 191.27 332.484 160.148 320.11C129.027 307.737 119.421 331.049 119.421 331.049Z" fill="#263238"/>
<path d="M190.864 364.837L184.46 361.128C182.026 359.679 178.665 359.882 174.941 362.026C167.552 366.286 161.554 376.674 161.554 385.208C161.554 389.482 163.003 392.452 165.495 393.901L171.783 397.523L172.145 397.726L172.362 397.857C174.739 399.016 177.912 398.74 181.403 396.726C188.793 392.38 194.791 382.078 194.791 373.545C194.747 369.227 193.255 366.242 190.864 364.837Z" fill="#3E63F6"/>
<path d="M190.814 386.66C196.039 377.609 196.039 367.827 190.814 364.81C185.589 361.794 177.117 366.685 171.892 375.735C166.667 384.786 166.667 394.568 171.892 397.585C177.117 400.601 185.589 395.71 190.814 386.66Z" fill="#3E63F6"/>
<path opacity="0.5" d="M190.814 386.66C196.039 377.609 196.039 367.827 190.814 364.81C185.589 361.794 177.117 366.685 171.892 375.735C166.667 384.786 166.667 394.568 171.892 397.585C177.117 400.601 185.589 395.71 190.814 386.66Z" fill="black"/>
<path d="M193.429 372.878L189.082 370.343C187.431 369.357 185.127 369.488 182.577 370.951C179.913 372.692 177.696 375.035 176.106 377.791C174.515 380.547 173.595 383.639 173.42 386.816C173.42 389.714 174.449 391.786 176.115 392.742L180.462 395.22C180.539 395.276 180.621 395.324 180.708 395.364L180.853 395.451C181.872 395.838 182.97 395.969 184.051 395.832C185.132 395.696 186.163 395.296 187.054 394.669C189.716 392.93 191.931 390.589 193.522 387.835C195.113 385.082 196.034 381.993 196.211 378.818C196.095 375.877 195.081 373.834 193.429 372.878Z" fill="#3E63F6"/>
<path d="M196.095 378.789C195.918 381.964 194.997 385.053 193.406 387.806C191.816 390.56 189.6 392.901 186.938 394.64C181.867 397.538 177.767 395.191 177.767 389.352C177.938 386.174 178.859 383.082 180.453 380.327C182.046 377.573 184.269 375.234 186.938 373.501C191.995 370.574 196.095 372.936 196.095 378.789Z" fill="#3E63F6"/>
<path opacity="0.3" d="M196.095 378.789C195.918 381.964 194.997 385.053 193.406 387.806C191.816 390.56 189.6 392.901 186.938 394.64C181.867 397.538 177.767 395.191 177.767 389.352C177.938 386.174 178.859 383.082 180.453 380.327C182.046 377.573 184.269 375.234 186.938 373.501C191.995 370.574 196.095 372.936 196.095 378.789Z" fill="black"/>
<path d="M170.971 314.126C166.818 310.918 161.731 309.153 156.483 309.099H155.193C149.879 309.041 144.573 309.527 139.357 310.548C140.313 310.548 141.27 310.548 142.255 310.548H139.357V313.243H142.052C151.34 313.558 160.141 317.473 166.594 324.16C173.048 330.846 176.649 339.78 176.636 349.073V360.476C176.636 360.926 176.73 361.372 176.913 361.784C177.096 362.196 177.364 362.565 177.699 362.867C178.033 363.169 178.428 363.397 178.856 363.537C179.285 363.676 179.738 363.724 180.186 363.678H180.519L183.417 362.779C183.224 362.84 183.025 362.879 182.823 362.895C183.687 362.778 184.478 362.347 185.044 361.684C185.611 361.022 185.913 360.174 185.895 359.302V348.725C185.866 329.586 177.593 319.299 170.971 314.126Z" fill="#3E63F6"/>
<path d="M152.73 405.825C151.535 405.825 150.354 405.569 149.267 405.072L140.212 400.885C140.07 400.834 139.941 400.755 139.831 400.651C139.722 400.548 139.635 400.423 139.577 400.285C139.518 400.146 139.489 399.997 139.491 399.846C139.493 399.696 139.527 399.548 139.589 399.411C139.651 399.274 139.741 399.151 139.854 399.051C139.966 398.951 140.098 398.875 140.241 398.828C140.384 398.782 140.535 398.765 140.684 398.78C140.834 398.795 140.979 398.841 141.11 398.914L150.166 403.101C151.32 403.639 152.614 403.802 153.866 403.568C155.118 403.334 156.266 402.715 157.149 401.798L165.842 392.815C166.046 392.611 166.322 392.497 166.61 392.497C166.898 392.497 167.174 392.611 167.378 392.815C167.578 393.02 167.69 393.296 167.69 393.582C167.69 393.869 167.578 394.145 167.378 394.35L158.685 403.333C157.911 404.128 156.985 404.758 155.962 405.186C154.938 405.615 153.839 405.832 152.73 405.825Z" fill="#3E63F6"/>
<path opacity="0.5" d="M152.73 405.825C151.535 405.825 150.354 405.569 149.267 405.072L140.212 400.885C140.07 400.834 139.941 400.755 139.831 400.651C139.722 400.548 139.635 400.423 139.577 400.285C139.518 400.146 139.489 399.997 139.491 399.846C139.493 399.696 139.527 399.548 139.589 399.411C139.651 399.274 139.741 399.151 139.854 399.051C139.966 398.951 140.098 398.875 140.241 398.828C140.384 398.782 140.535 398.765 140.684 398.78C140.834 398.795 140.979 398.841 141.11 398.914L150.166 403.101C151.32 403.639 152.614 403.802 153.866 403.568C155.118 403.334 156.266 402.715 157.149 401.798L165.842 392.815C166.046 392.611 166.322 392.497 166.61 392.497C166.898 392.497 167.174 392.611 167.378 392.815C167.578 393.02 167.69 393.296 167.69 393.582C167.69 393.869 167.578 394.145 167.378 394.35L158.685 403.333C157.911 404.128 156.985 404.758 155.962 405.186C154.938 405.615 153.839 405.832 152.73 405.825Z" fill="black"/>
<path d="M142.588 397.842C142.588 398.679 142.34 399.497 141.875 400.193C141.41 400.888 140.749 401.431 139.976 401.751C139.203 402.071 138.353 402.155 137.532 401.991C136.711 401.828 135.957 401.425 135.366 400.834C134.774 400.242 134.371 399.488 134.208 398.667C134.045 397.847 134.128 396.996 134.449 396.223C134.769 395.45 135.311 394.789 136.007 394.324C136.703 393.86 137.521 393.611 138.357 393.611C139.479 393.611 140.555 394.057 141.349 394.851C142.142 395.644 142.588 396.72 142.588 397.842Z" fill="#3E63F6"/>
<path opacity="0.5" d="M142.588 397.842C142.588 398.679 142.34 399.497 141.875 400.193C141.41 400.888 140.749 401.431 139.976 401.751C139.203 402.071 138.353 402.155 137.532 401.991C136.711 401.828 135.957 401.425 135.366 400.834C134.774 400.242 134.371 399.488 134.208 398.667C134.045 397.847 134.128 396.996 134.449 396.223C134.769 395.45 135.311 394.789 136.007 394.324C136.703 393.86 137.521 393.611 138.357 393.611C139.479 393.611 140.555 394.057 141.349 394.851C142.142 395.644 142.588 396.72 142.588 397.842Z" fill="black"/>
<path d="M185.866 348.725V359.302C185.884 360.174 185.582 361.022 185.015 361.684C184.449 362.347 183.658 362.778 182.794 362.895C182.317 362.946 181.834 362.896 181.378 362.748C180.921 362.6 180.501 362.357 180.144 362.036C179.787 361.715 179.502 361.322 179.307 360.884C179.112 360.445 179.012 359.97 179.013 359.49V348.725C179.021 343.588 177.99 338.501 175.981 333.772C173.972 329.044 171.027 324.77 167.324 321.209C163.621 317.648 159.235 314.872 154.432 313.05C149.628 311.228 144.505 310.396 139.372 310.606C144.587 309.585 149.893 309.099 155.208 309.157H156.468C161.716 309.211 166.803 310.976 170.957 314.184C177.593 319.299 185.866 329.586 185.866 348.725Z" fill="#3E63F6"/>
<path opacity="0.5" d="M185.866 348.725V359.302C185.884 360.174 185.582 361.022 185.015 361.684C184.449 362.347 183.658 362.778 182.794 362.895C182.317 362.946 181.834 362.896 181.378 362.748C180.921 362.6 180.501 362.357 180.144 362.036C179.787 361.715 179.502 361.322 179.307 360.884C179.112 360.445 179.012 359.97 179.013 359.49V348.725C179.021 343.588 177.99 338.501 175.981 333.772C173.972 329.044 171.027 324.77 167.324 321.209C163.621 317.648 159.235 314.872 154.432 313.05C149.628 311.228 144.505 310.396 139.372 310.606C144.587 309.585 149.893 309.099 155.208 309.157H156.468C161.716 309.211 166.803 310.976 170.957 314.184C177.593 319.299 185.866 329.586 185.866 348.725Z" fill="black"/>
<path d="M169.58 548.047C169.58 548.047 162.568 567.36 187.633 576.053C187.633 576.053 195.82 564.028 187.633 554.19C179.447 544.352 169.58 548.047 169.58 548.047Z" fill="#3E63F6"/>
<path opacity="0.7" d="M169.58 548.047C169.58 548.047 162.568 567.36 187.633 576.053C187.633 576.053 195.82 564.028 187.633 554.19C179.447 544.352 169.58 548.047 169.58 548.047Z" fill="black"/>
<path d="M178.375 548.93C178.375 548.93 153.889 557.899 154.02 561.376C154.15 564.853 164.422 562.477 164.422 562.477L160.67 564.94C156.718 567.519 153.657 571.252 151.904 575.633C151.522 576.599 151.509 577.672 151.867 578.647C152.225 579.623 152.929 580.432 153.846 580.921L163.147 585.848C163.673 586.126 164.249 586.297 164.841 586.349C165.433 586.401 166.03 586.334 166.596 586.152C167.162 585.97 167.686 585.676 168.136 585.287C168.586 584.899 168.954 584.425 169.218 583.892C169.737 582.867 170.453 581.956 171.326 581.21C172.199 580.463 173.211 579.898 174.304 579.545C179.36 577.864 188.792 573.025 192.574 559.782L178.375 548.93Z" fill="#945959"/>
<path d="M185.721 424.516C185.721 424.516 172.681 431.76 179.607 453.754C186.532 475.748 199.529 509.869 199.529 509.869L169.581 548.047C172.78 548.432 175.862 549.489 178.626 551.146C181.39 552.804 183.773 555.026 185.62 557.667C187.389 560.353 188.494 563.42 188.844 566.617C189.194 569.814 188.779 573.048 187.633 576.053L224.811 528.24C228.25 523.822 230.532 518.616 231.453 513.094C232.374 507.571 231.904 501.907 230.085 496.612L214.148 450.074C212.2 444.389 208.962 439.232 204.689 435.007C200.416 430.782 195.223 427.603 189.517 425.718L185.721 424.516Z" fill="#3E63F6"/>
<path d="M211.288 106.426L224.864 114.148V109.338C224.864 109.005 224.864 108.657 224.864 108.324C224.864 107.991 224.864 107.672 224.864 107.353V107.179C225.357 100.819 230.181 98.3701 236.064 101.775C238.727 103.413 241.009 105.601 242.758 108.193C244.076 99.5003 251.132 96.4287 259.666 101.34C269.142 106.817 276.821 120.176 276.821 131.071V141.358C276.807 142.181 277.01 142.993 277.409 143.713C277.809 144.432 278.39 145.034 279.095 145.458L287.093 150.138C288.819 151.162 290.25 152.616 291.245 154.358C292.241 156.1 292.767 158.071 292.773 160.078C292.773 160.91 292.554 161.728 292.137 162.449C291.721 163.17 291.122 163.768 290.401 164.184C289.679 164.6 288.861 164.818 288.029 164.817C287.196 164.816 286.379 164.595 285.659 164.178L211.491 121.306C209.523 120.163 207.889 118.525 206.75 116.556C205.612 114.586 205.008 112.352 205 110.077C204.999 109.341 205.192 108.617 205.559 107.978C205.926 107.34 206.455 106.809 207.092 106.439C207.729 106.07 208.452 105.874 209.188 105.871C209.925 105.869 210.649 106.06 211.288 106.426Z" fill="#E6E6E6"/>
<path d="M314.781 104.412L324.648 110.077V106.542C324.648 106.295 324.648 106.049 324.648 105.803C324.648 105.557 324.648 105.325 324.648 105.093V105.006C325.01 100.384 328.516 98.602 332.79 101.08C334.726 102.265 336.386 103.851 337.659 105.73C338.629 99.4423 343.758 97.1676 349.96 100.746C356.856 104.731 362.434 114.409 362.434 122.363V129.854C362.439 130.441 362.597 131.017 362.892 131.525C363.186 132.033 363.608 132.456 364.115 132.752L369.91 136.157C371.172 136.898 372.216 137.957 372.941 139.228C373.665 140.499 374.044 141.938 374.04 143.401C374.039 144 373.882 144.589 373.584 145.109C373.286 145.629 372.858 146.062 372.342 146.367C371.826 146.671 371.239 146.835 370.64 146.844C370.041 146.852 369.45 146.704 368.925 146.415L314.926 115.235C313.495 114.407 312.307 113.218 311.48 111.786C310.654 110.355 310.218 108.731 310.217 107.078C310.216 106.543 310.355 106.017 310.621 105.553C310.887 105.088 311.27 104.702 311.732 104.432C312.194 104.162 312.719 104.018 313.254 104.015C313.789 104.011 314.315 104.148 314.781 104.412Z" fill="#E6E6E6"/>
</g>
</svg>
