<svg width="100" height="80" viewBox="0 0 100 80" fill="none" xmlns="http://www.w3.org/2000/svg">
<path d="M50 79.2725C77.6142 79.2725 100 66.3485 100 50.406C100 34.4634 77.6142 21.5395 50 21.5395C22.3858 21.5395 0 34.4634 0 50.406C0 66.3485 22.3858 79.2725 50 79.2725Z" fill="#F5F5F5"/>
<path d="M86.7479 57.6893L64.7116 70.3962C64.5411 70.4813 64.353 70.5257 64.1624 70.5257C63.9717 70.5257 63.7837 70.4813 63.6131 70.3962L17.319 43.6256C17.0157 43.4494 17.0157 43.1665 17.319 42.9944L39.3593 30.2875C39.5286 30.2005 39.7162 30.1551 39.9066 30.1551C40.0969 30.1551 40.2845 30.2005 40.4538 30.2875L86.7724 57.0539C87.0512 57.2343 87.0512 57.5171 86.7479 57.6893Z" fill="#E0E0E0"/>
<path d="M41.5276 0.397606L22.3647 11.3829V43.8798L41.5276 32.8945V0.397606Z" fill="#3E63F6"/>
<path opacity="0.35" d="M41.5276 0.397606L22.3647 11.3829V43.8798L41.5276 32.8945V0.397606Z" fill="black"/>
<path d="M22.9099 11.924L41.5275 1.31578C42.3719 2.29954 43.6235 2.98271 45.2822 3.36528L26.808 13.9489C26.808 13.9489 25.7546 13.703 22.9099 11.924Z" fill="#F5F5F5"/>
<path d="M28.3865 13.8915C27.8975 14.1399 27.3568 14.2694 26.8083 14.2694C26.2599 14.2694 25.7192 14.1399 25.2302 13.8915L22.4634 12.2929C21.5903 11.7928 21.5903 10.9771 22.4634 10.4729L40.8392 0L41.5278 0.4099L23.4144 10.7845C22.8897 11.0837 22.8938 11.5756 23.4144 11.8748L25.9885 13.3422C26.2817 13.4919 26.6062 13.57 26.9354 13.57C27.2646 13.57 27.5891 13.4919 27.8823 13.3422L45.9876 2.98407L46.7664 3.43496L28.3865 13.8915Z" fill="#3E63F6"/>
<path opacity="0.25" d="M28.3865 13.8915C27.8975 14.1399 27.3568 14.2694 26.8083 14.2694C26.2599 14.2694 25.7192 14.1399 25.2302 13.8915L22.4634 12.2929C21.5903 11.7928 21.5903 10.9771 22.4634 10.4729L40.8392 0L41.5278 0.4099L23.4144 10.7845C22.8897 11.0837 22.8938 11.5756 23.4144 11.8748L25.9885 13.3422C26.2817 13.4919 26.6062 13.57 26.9354 13.57C27.2646 13.57 27.5891 13.4919 27.8823 13.3422L45.9876 2.98407L46.7664 3.43496L28.3865 13.8915Z" fill="black"/>
<path d="M46.7621 3.42266V35.9195L28.3863 46.3884C27.8967 46.6349 27.3562 46.7633 26.8081 46.7633C26.26 46.7633 25.7196 46.6349 25.23 46.3884L22.4591 44.7897C22.2797 44.7093 22.1248 44.5827 22.0102 44.4228C21.8957 44.263 21.8257 44.0756 21.8074 43.8798V11.3829C21.8257 11.5787 21.8957 11.7661 22.0102 11.926C22.1248 12.0859 22.2797 12.2125 22.4591 12.2929L25.23 13.8956C25.7196 14.1421 26.26 14.2705 26.8081 14.2705C27.3562 14.2705 27.8967 14.1421 28.3863 13.8956L46.7621 3.42266Z" fill="#3E63F6"/>
<path opacity="0.05" d="M46.7621 3.42266V35.9195L28.3863 46.3884C27.8967 46.6349 27.3562 46.7633 26.8081 46.7633C26.26 46.7633 25.7196 46.6349 25.23 46.3884L22.4591 44.7897C22.2797 44.7093 22.1248 44.5827 22.0102 44.4228C21.8957 44.263 21.8257 44.0756 21.8074 43.8798V11.3829C21.8257 11.5787 21.8957 11.7661 22.0102 11.926C22.1248 12.0859 22.2797 12.2125 22.4591 12.2929L25.23 13.8956C25.7196 14.1421 26.26 14.2705 26.8081 14.2705C27.3562 14.2705 27.8967 14.1421 28.3863 13.8956L46.7621 3.42266Z" fill="black"/>
<path d="M26.8081 14.2727C26.2586 14.2831 25.7155 14.1534 25.23 13.8956L22.4591 12.2929C22.2797 12.2125 22.1248 12.0859 22.0102 11.926C21.8957 11.7661 21.8257 11.5787 21.8074 11.3829V43.8798C21.8257 44.0756 21.8957 44.263 22.0102 44.4228C22.1248 44.5827 22.2797 44.7093 22.4591 44.7897L25.23 46.3884C25.7155 46.6461 26.2586 46.7759 26.8081 46.7655V14.2727Z" fill="#3E63F6"/>
<path opacity="0.2" d="M26.8081 14.2727C26.2586 14.2831 25.7155 14.1534 25.23 13.8956L22.4591 12.2929C22.2797 12.2125 22.1248 12.0859 22.0102 11.926C21.8957 11.7661 21.8257 11.5787 21.8074 11.3829V43.8798C21.8257 44.0756 21.8957 44.263 22.0102 44.4228C22.1248 44.5827 22.2797 44.7093 22.4591 44.7897L25.23 46.3884C25.7155 46.6461 26.2586 46.7759 26.8081 46.7655V14.2727Z" fill="black"/>
<path d="M46.1925 7.77579L30.1409 17.1051V47.8271L46.1925 38.5019V7.77579Z" fill="#3E63F6"/>
<path opacity="0.55" d="M46.1925 7.77579L30.1409 17.1051V47.8271L46.1925 38.5019V7.77579Z" fill="white"/>
<path d="M30.657 17.6134L46.1922 8.64478C47.1394 9.65703 48.384 10.3418 49.746 10.6L34.342 19.5235C34.342 19.5235 33.3459 19.2981 30.657 17.6134Z" fill="#F5F5F5"/>
<path d="M35.8344 19.4784C35.3725 19.7144 34.8611 19.8375 34.3424 19.8375C33.8237 19.8375 33.3123 19.7144 32.8504 19.4784L30.2352 17.9659C29.4154 17.4904 29.4154 16.7362 30.2352 16.2443L45.545 7.40277L46.1926 7.77578L31.1329 16.5271C31.0249 16.5637 30.931 16.6331 30.8645 16.7258C30.798 16.8184 30.7623 16.9296 30.7623 17.0436C30.7623 17.1576 30.798 17.2688 30.8645 17.3615C30.931 17.4541 31.0249 17.5236 31.1329 17.5601L33.5636 18.9455C33.841 19.087 34.1479 19.1607 34.4592 19.1607C34.7706 19.1607 35.0775 19.087 35.3549 18.9455L50.4064 10.2147L51.1442 10.6246L35.8344 19.4784Z" fill="#3E63F6"/>
<path opacity="0.8" d="M35.8344 19.4784C35.3725 19.7144 34.8611 19.8375 34.3424 19.8375C33.8237 19.8375 33.3123 19.7144 32.8504 19.4784L30.2352 17.9659C29.4154 17.4904 29.4154 16.7362 30.2352 16.2443L45.545 7.40277L46.1926 7.77578L31.1329 16.5271C31.0249 16.5637 30.931 16.6331 30.8645 16.7258C30.798 16.8184 30.7623 16.9296 30.7623 17.0436C30.7623 17.1576 30.798 17.2688 30.8645 17.3615C30.931 17.4541 31.0249 17.5236 31.1329 17.5601L33.5636 18.9455C33.841 19.087 34.1479 19.1607 34.4592 19.1607C34.7706 19.1607 35.0775 19.087 35.3549 18.9455L50.4064 10.2147L51.1442 10.6246L35.8344 19.4784Z" fill="white"/>
<path d="M51.1439 10.6369V41.3589L35.8342 50.2004C35.3722 50.4364 34.8609 50.5595 34.3421 50.5595C33.8234 50.5595 33.312 50.4364 32.8501 50.2004L30.2308 48.6879C30.0608 48.6124 29.9141 48.4928 29.8059 48.3414C29.6978 48.19 29.6322 48.0124 29.616 47.8271V17.0846C29.633 17.2697 29.699 17.4469 29.807 17.5982C29.915 17.7494 30.0613 17.8692 30.2308 17.9454L32.8501 19.4579C33.312 19.694 33.8234 19.817 34.3421 19.817C34.8609 19.817 35.3722 19.694 35.8342 19.4579L51.1439 10.6369Z" fill="#3E63F6"/>
<path opacity="0.7" d="M51.1439 10.6369V41.3589L35.8342 50.2004C35.3722 50.4364 34.8609 50.5595 34.3421 50.5595C33.8234 50.5595 33.312 50.4364 32.8501 50.2004L30.2308 48.6879C30.0608 48.6124 29.9141 48.4928 29.8059 48.3414C29.6978 48.19 29.6322 48.0124 29.616 47.8271V17.0846C29.633 17.2697 29.699 17.4469 29.807 17.5982C29.915 17.7494 30.0613 17.8692 30.2308 17.9454L32.8501 19.4579C33.312 19.694 33.8234 19.817 34.3421 19.817C34.8609 19.817 35.3722 19.694 35.8342 19.4579L51.1439 10.6369Z" fill="white"/>
<path d="M34.3421 19.8351C33.8225 19.8456 33.3088 19.7228 32.8501 19.4784L30.2308 17.9659C30.0613 17.8897 29.915 17.7699 29.807 17.6187C29.699 17.4674 29.633 17.2902 29.616 17.1051V47.8476C29.6322 48.0329 29.6978 48.2105 29.8059 48.3619C29.9141 48.5133 30.0608 48.6329 30.2308 48.7084L32.8501 50.2209C33.3088 50.4653 33.8225 50.5881 34.3421 50.5775V19.8351Z" fill="#3E63F6"/>
<path opacity="0.55" d="M34.3421 19.8351C33.8225 19.8456 33.3088 19.7228 32.8501 19.4784L30.2308 17.9659C30.0613 17.8897 29.915 17.7699 29.807 17.6187C29.699 17.4674 29.633 17.2902 29.616 17.1051V47.8476C29.6322 48.0329 29.6978 48.2105 29.8059 48.3619C29.9141 48.5133 30.0608 48.6329 30.2308 48.7084L32.8501 50.2209C33.3088 50.4653 33.8225 50.5881 34.3421 50.5775V19.8351Z" fill="white"/>
<path d="M66.3181 13.2111L66.4902 15.5475L45.8313 26.6312L45.364 25.2703L66.3181 13.2111Z" fill="#3E63F6"/>
<path opacity="0.35" d="M66.3181 13.2111L66.4902 15.5475L45.8313 26.6312L45.364 25.2703L66.3181 13.2111Z" fill="black"/>
<path d="M45.6392 25.8114L65.6505 14.2604L69.1305 16.2689L48.7257 28.2052L45.6392 25.8114Z" fill="#F5F5F5"/>
<path d="M52.4845 26.9673L54.9726 46.954C54.9584 47.2111 54.8838 47.4612 54.7549 47.6841C54.626 47.907 54.4464 48.0964 54.2307 48.237L42.6223 54.9552C42.4366 55.0563 42.2309 55.1151 42.0198 55.1274L48.7257 28.9512C48.9366 28.9409 49.1425 28.8834 49.3283 28.7831L50.1481 28.2995L52.4845 26.9673Z" fill="#3E63F6"/>
<path opacity="0.35" d="M52.4845 26.9673L54.9726 46.954C54.9584 47.2111 54.8838 47.4612 54.7549 47.6841C54.626 47.907 54.4464 48.0964 54.2307 48.237L42.6223 54.9552C42.4366 55.0563 42.2309 55.1151 42.0198 55.1274L48.7257 28.9512C48.9366 28.9409 49.1425 28.8834 49.3283 28.7831L50.1481 28.2995L52.4845 26.9673Z" fill="black"/>
<path d="M47.8443 28.7913L45.7743 27.0206L44.2536 25.7171C44.0978 25.4712 43.9175 25.2867 44.0158 25.0818L37.4042 51.0366V51.0612C37.3058 51.2662 37.2771 51.7252 37.5599 51.881L41.1465 54.9511C41.4176 55.0963 41.7262 55.1563 42.0319 55.1233L48.7256 28.9512C48.4225 28.9866 48.1157 28.9309 47.8443 28.7913Z" fill="#3E63F6"/>
<path opacity="0.25" d="M47.8443 28.7913L45.7743 27.0206L44.2536 25.7171C44.0978 25.4712 43.9175 25.2867 44.0158 25.0818L37.4042 51.0366V51.0612C37.3058 51.2662 37.2771 51.7252 37.5599 51.881L41.1465 54.9511C41.4176 55.0963 41.7262 55.1563 42.0319 55.1233L48.7256 28.9512C48.4225 28.9866 48.1157 28.9309 47.8443 28.7913Z" fill="black"/>
<path d="M44.2533 24.8522C43.8434 25.09 43.9458 25.3523 44.2533 25.7089L47.844 28.7832C48.0739 28.8998 48.3281 28.9606 48.5859 28.9606C48.8437 28.9606 49.0979 28.8998 49.3278 28.7832L52.4841 26.9591C52.894 26.7255 52.9677 26.3811 52.6439 26.1967C52.4317 26.1089 52.2019 26.0717 51.9728 26.0881C51.7438 26.1044 51.5216 26.1739 51.324 26.291L48.8319 27.7215C48.7548 27.7598 48.6699 27.7797 48.5839 27.7797C48.4978 27.7797 48.4129 27.7598 48.3359 27.7215L45.7125 25.4425C45.5772 25.3646 45.5772 25.2375 45.7125 25.1555L66.3182 13.1947L65.3303 12.6249L44.2533 24.8522Z" fill="#3E63F6"/>
<path opacity="0.15" d="M44.2533 24.8522C43.8434 25.09 43.9458 25.3523 44.2533 25.7089L47.844 28.7832C48.0739 28.8998 48.3281 28.9606 48.5859 28.9606C48.8437 28.9606 49.0979 28.8998 49.3278 28.7832L52.4841 26.9591C52.894 26.7255 52.9677 26.3811 52.6439 26.1967C52.4317 26.1089 52.2019 26.0717 51.9728 26.0881C51.7438 26.1044 51.5216 26.1739 51.324 26.291L48.8319 27.7215C48.7548 27.7598 48.6699 27.7797 48.5839 27.7797C48.4978 27.7797 48.4129 27.7598 48.3359 27.7215L45.7125 25.4425C45.5772 25.3646 45.5772 25.2375 45.7125 25.1555L66.3182 13.1947L65.3303 12.6249L44.2533 24.8522Z" fill="black"/>
<path d="M70.3109 13.5636L51.5457 24.4669V60.3741L70.3109 49.4749V13.5636Z" fill="#455A64"/>
<path d="M52.1604 25.0613L70.319 14.5801C71.2535 15.6732 72.6376 16.4342 74.4712 16.8633L56.4562 27.3116C56.4562 27.3116 55.2961 27.0288 52.1604 25.0613Z" fill="#F5F5F5"/>
<path d="M58.2024 27.2378C57.662 27.5125 57.0644 27.6557 56.4583 27.6557C55.8521 27.6557 55.2545 27.5125 54.7141 27.2378L51.6563 25.4753C50.693 24.9178 50.693 24.016 51.6563 23.4586L69.5525 13.125L70.3108 13.5636L52.7097 23.7906C52.1318 24.1226 52.1318 24.6637 52.7097 24.9957L55.5503 26.6353C55.8752 26.7989 56.2339 26.8841 56.5976 26.8841C56.9614 26.8841 57.3201 26.7989 57.6449 26.6353L75.2419 16.4288L76.0986 16.9248L58.2024 27.2378Z" fill="#263238"/>
<path d="M76.0993 16.9043V52.8156L58.2031 63.1451C57.6627 63.4197 57.0651 63.5629 56.4589 63.5629C55.8528 63.5629 55.2552 63.4197 54.7148 63.1451L51.657 61.3825C51.4582 61.2934 51.2866 61.1531 51.1599 60.9759C51.0331 60.7987 50.9557 60.591 50.9355 60.3741V24.4669C50.9564 24.6831 51.0341 24.8899 51.1608 25.0663C51.2876 25.2427 51.4587 25.3824 51.657 25.4712L54.7148 27.2419C55.2558 27.5147 55.8531 27.6568 56.4589 27.6568C57.0648 27.6568 57.6621 27.5147 58.2031 27.2419L76.0993 16.9043Z" fill="#455A64"/>
<path d="M56.4569 27.66C55.8507 27.6746 55.2509 27.5335 54.7148 27.2501L51.657 25.4794C51.4587 25.3906 51.2876 25.2509 51.1608 25.0745C51.0341 24.8981 50.9564 24.6913 50.9355 24.4751V60.3823C50.9557 60.5992 51.0331 60.8069 51.1599 60.9841C51.2866 61.1612 51.4582 61.3016 51.657 61.3907L54.7148 63.1533C55.2509 63.4366 55.8507 63.5777 56.4569 63.5631V27.66Z" fill="#37474F"/>
<path d="M77.9842 17.9946L59.219 28.8979V64.8092L77.9842 53.9059V17.9946Z" fill="#3E63F6"/>
<path opacity="0.35" d="M77.9842 17.9946L59.219 28.8979V64.8092L77.9842 53.9059V17.9946Z" fill="black"/>
<path d="M59.8259 29.4923L77.9845 19.0111C78.9191 20.1042 80.3031 20.8653 82.1368 21.2943L64.1299 31.7344C64.1299 31.7344 62.9658 31.4598 59.8259 29.4923Z" fill="#EBEBEB"/>
<path d="M59.8259 29.4923L77.9845 19.0111C78.9191 20.1042 80.3031 20.8653 82.1368 21.2943L64.1299 31.7344C64.1299 31.7344 62.9658 31.4598 59.8259 29.4923Z" fill="#F5F5F5"/>
<path d="M65.8757 31.6688C65.3354 31.9435 64.7378 32.0867 64.1316 32.0867C63.5254 32.0867 62.9278 31.9435 62.3875 31.6688L59.3296 29.9063C58.3664 29.3488 58.3664 28.447 59.3296 27.8896L77.2258 17.5601L77.9842 17.9946L60.3831 28.2421C59.8051 28.5741 59.8051 29.1152 60.3831 29.4472L63.2237 31.0868C63.5485 31.2504 63.9072 31.3356 64.271 31.3356C64.6347 31.3356 64.9934 31.2504 65.3183 31.0868L82.903 20.8434L83.7638 21.3394L65.8757 31.6688Z" fill="#3E63F6"/>
<path opacity="0.25" d="M65.8757 31.6688C65.3354 31.9435 64.7378 32.0867 64.1316 32.0867C63.5254 32.0867 62.9278 31.9435 62.3875 31.6688L59.3296 29.9063C58.3664 29.3488 58.3664 28.447 59.3296 27.8896L77.2258 17.5601L77.9842 17.9946L60.3831 28.2421C59.8051 28.5741 59.8051 29.1152 60.3831 29.4472L63.2237 31.0868C63.5485 31.2504 63.9072 31.3356 64.271 31.3356C64.6347 31.3356 64.9934 31.2504 65.3183 31.0868L82.903 20.8434L83.7638 21.3394L65.8757 31.6688Z" fill="black"/>
<path d="M83.768 21.3353V57.2343L65.8759 67.5679C65.335 67.8406 64.7376 67.9827 64.1318 67.9827C63.526 67.9827 62.9286 67.8406 62.3877 67.5679L59.3298 65.8012C59.131 65.7121 58.9595 65.5718 58.8327 65.3946C58.706 65.2174 58.6286 65.0098 58.6084 64.7928V28.8856C58.6292 29.1018 58.707 29.3086 58.8337 29.485C58.9604 29.6614 59.1316 29.8011 59.3298 29.8899L62.3877 31.6606C62.928 31.9353 63.5256 32.0785 64.1318 32.0785C64.738 32.0785 65.3356 31.9353 65.8759 31.6606L83.768 21.3353Z" fill="#3E63F6"/>
<path opacity="0.15" d="M64.1297 32.0911C63.5236 32.1056 62.9238 31.9645 62.3877 31.6812L59.3298 29.9104C59.1316 29.8216 58.9604 29.6819 58.8337 29.5055C58.707 29.3291 58.6292 29.1223 58.6084 28.9061V64.8133C58.6286 65.0303 58.706 65.2379 58.8327 65.4151C58.9595 65.5923 59.131 65.7326 59.3298 65.8217L62.3877 67.5884C62.9244 67.87 63.5237 68.011 64.1297 67.9983V32.0911Z" fill="black"/>
</svg>
