<svg width="75" height="95" viewBox="0 0 75 95" fill="none" xmlns="http://www.w3.org/2000/svg">
<path d="M10.9837 88.6052C-3.66124 80.1503 -3.66124 66.4418 10.9837 57.9869C25.6287 49.532 49.3713 49.532 64.0163 57.9869C78.6612 66.4418 78.6612 80.1503 64.0163 88.6052C49.3713 97.0601 25.6302 97.0616 10.9837 88.6052Z" fill="#F5F5F5"/>
<path d="M18.8224 90.3456L13.5399 87.2955C13.2253 87.1141 13.2253 86.8178 13.5399 86.6364L54.148 63.21C54.3259 63.1194 54.5226 63.0722 54.7222 63.0722C54.9218 63.0722 55.1185 63.1194 55.2964 63.21L60.5788 66.2439C60.8934 66.4254 60.8934 66.7216 60.5788 66.9031L19.9638 90.3456C19.7869 90.435 19.5914 90.4816 19.3931 90.4816C19.1948 90.4816 18.9993 90.435 18.8224 90.3456Z" fill="#E0E0E0"/>
<path d="M18.5398 85.8394C20.9399 79.5511 19.7754 74.7464 18.7098 71.7124C17.6441 68.6785 14.8054 65.3069 12.4444 65.2816C10.2372 65.2656 9.54592 67.9274 11.3374 70.4768C13.1288 73.0261 17.0791 77.948 17.1021 81.2713L16.9229 84.1674L18.5398 85.8394Z" fill="#3E63F6"/>
<path opacity="0.15" d="M18.5398 85.8394C20.9399 79.5511 19.7754 74.7464 18.7098 71.7124C17.6441 68.6785 14.8054 65.3069 12.4444 65.2816C10.2372 65.2656 9.54592 67.9274 11.3374 70.4768C13.1288 73.0261 17.0791 77.948 17.1021 81.2713L16.9229 84.1674L18.5398 85.8394Z" fill="black"/>
<path d="M18.0965 82.7182C18.0685 82.7054 18.0452 82.6841 18.0299 82.6573C18.0147 82.6305 18.0082 82.5996 18.0115 82.5689C18.836 75.9016 15.43 69.1263 12.7612 67.0041C12.7317 66.9807 12.7128 66.9464 12.7085 66.909C12.7041 66.8715 12.7149 66.8339 12.7383 66.8043C12.7499 66.79 12.7642 66.778 12.7804 66.7692C12.7966 66.7604 12.8144 66.7549 12.8327 66.753C12.8511 66.751 12.8696 66.7528 12.8873 66.758C12.905 66.7633 12.9215 66.772 12.9358 66.7837C15.6574 68.9449 19.1369 75.8235 18.2917 82.6034C18.2871 82.6404 18.2682 82.6741 18.239 82.6973C18.2098 82.7205 18.1726 82.7313 18.1355 82.7274L18.0965 82.7182Z" fill="white"/>
<path d="M18.6573 86.9028C18.4543 87.0193 18.2278 87.0886 17.9944 87.1055C17.761 87.1224 17.5268 87.0864 17.3093 87.0004C17.0917 86.9143 16.8963 86.7803 16.7376 86.6084C16.5789 86.4364 16.461 86.2309 16.3927 86.0071C16.0328 84.9049 15.4892 83.8714 14.785 82.9502C13.0832 80.6167 10.4948 78.9126 10.2605 77.4794C9.98031 75.7569 11.6799 74.8152 13.8824 75.9085C15.8139 76.8639 19.236 80.2722 18.6688 86.8982L18.6573 86.9028Z" fill="#3E63F6"/>
<path d="M17.7317 87.4035C17.7065 87.3927 17.6851 87.3748 17.67 87.3519C17.6549 87.3291 17.6468 87.3023 17.6468 87.2749C17.6031 81.2667 14.1833 77.9663 12.3827 77.0614C12.366 77.0531 12.351 77.0416 12.3388 77.0275C12.3266 77.0134 12.3173 76.9969 12.3116 76.9792C12.3058 76.9614 12.3036 76.9427 12.3052 76.9241C12.3068 76.9055 12.312 76.8873 12.3207 76.8708C12.3287 76.8541 12.3401 76.8393 12.354 76.8271C12.3679 76.8149 12.3841 76.8056 12.4017 76.7998C12.4193 76.794 12.4378 76.7918 12.4563 76.7934C12.4747 76.7949 12.4927 76.8002 12.509 76.8088C14.5026 77.8102 17.8856 81.1404 17.9293 87.2726C17.9296 87.2912 17.9262 87.3096 17.9193 87.3269C17.9124 87.3442 17.9021 87.3599 17.889 87.3731C17.876 87.3864 17.8605 87.3969 17.8433 87.4041C17.8262 87.4113 17.8077 87.415 17.7892 87.415C17.7695 87.4149 17.7499 87.411 17.7317 87.4035Z" fill="white"/>
<path d="M18.9005 88.9942L18.0875 88.5349C17.9533 88.4458 17.8418 88.3264 17.7621 88.1864C17.6823 88.0464 17.6364 87.8897 17.6282 87.7288V22.5184C17.6364 22.3578 17.6823 22.2014 17.7621 22.0617C17.8419 21.9221 17.9533 21.8032 18.0875 21.7145L55.494 0.111727C55.6367 0.0407246 55.7939 0.00377274 55.9533 0.00377274C56.1127 0.00377274 56.2699 0.0407246 56.4127 0.111727L57.2257 0.582551C57.36 0.671066 57.4716 0.789964 57.5514 0.929618C57.6312 1.06927 57.677 1.22575 57.685 1.3864V66.583C57.6768 66.7436 57.6309 66.9 57.5511 67.0396C57.4713 67.1793 57.3599 67.2982 57.2257 67.3868L19.8284 88.9942C19.6848 89.0678 19.5258 89.1062 19.3645 89.1062C19.2032 89.1062 19.0441 89.0678 18.9005 88.9942Z" fill="#3E63F6"/>
<path opacity="0.3" d="M18.9005 88.9942L18.0875 88.5349C17.9533 88.4458 17.8418 88.3264 17.7621 88.1864C17.6823 88.0464 17.6364 87.8897 17.6282 87.7288V22.5184C17.6364 22.3578 17.6823 22.2014 17.7621 22.0617C17.8419 21.9221 17.9533 21.8032 18.0875 21.7145L55.494 0.111727C55.6367 0.0407246 55.7939 0.00377274 55.9533 0.00377274C56.1127 0.00377274 56.2699 0.0407246 56.4127 0.111727L57.2257 0.582551C57.36 0.671066 57.4716 0.789964 57.5514 0.929618C57.6312 1.06927 57.677 1.22575 57.685 1.3864V66.583C57.6768 66.7436 57.6309 66.9 57.5511 67.0396C57.4713 67.1793 57.3599 67.2982 57.2257 67.3868L19.8284 88.9942C19.6848 89.0678 19.5258 89.1062 19.3645 89.1062C19.2032 89.1062 19.0441 89.0678 18.9005 88.9942Z" fill="black"/>
<path opacity="0.4" d="M57.6938 1.31376C57.6616 1.08409 57.4641 0.985328 57.2344 1.12083L19.828 22.7099C19.6905 22.7944 19.5774 22.9131 19.4995 23.0544L17.7563 22.0484C17.8342 21.9071 17.9473 21.7884 18.0848 21.7039L55.4912 0.110283C55.6355 0.0377663 55.7948 0 55.9563 0C56.1178 0 56.2771 0.0377663 56.4214 0.110283L57.2344 0.581107C57.3592 0.663037 57.4648 0.770895 57.544 0.897327C57.6233 1.02376 57.6744 1.1658 57.6938 1.31376Z" fill="#3E63F6"/>
<path opacity="0.15" d="M19.748 89.0181C19.7395 89.0235 19.7302 89.0274 19.7204 89.0296C19.7052 89.0373 19.689 89.0427 19.6722 89.0456H19.6538C19.6253 89.055 19.5962 89.0619 19.5665 89.0663C19.3815 89.102 19.1902 89.0869 19.013 89.0227C18.9773 89.0094 18.9428 88.9933 18.9097 88.9744L18.0944 88.5151C17.9608 88.4258 17.8498 88.3067 17.7701 88.1672C17.6904 88.0277 17.6442 87.8717 17.635 87.7113V22.517C17.6407 22.3549 17.6874 22.1969 17.7705 22.0576L19.5137 23.0636C19.4295 23.2024 19.3828 23.3606 19.3782 23.5229V88.7149C19.3737 88.8015 19.3979 88.887 19.4471 88.9584C19.4771 88.9939 19.5165 89.0202 19.5608 89.0345C19.605 89.0487 19.6524 89.0502 19.6975 89.0388L19.748 89.0181Z" fill="black"/>
<path d="M46.0155 9.49003L45.9466 9.44869L45.1749 9.00543C44.8945 8.84942 44.5903 8.74078 44.2746 8.68389C44.1414 8.65403 44.0219 8.61958 43.9163 8.58743C43.7996 8.54741 43.6853 8.50063 43.5741 8.44733L43.6338 8.37613L42.761 7.87315C42.689 7.83179 42.6117 7.80013 42.5314 7.77899C42.2029 7.7009 41.7114 7.89152 41.2199 7.8364C41.0418 7.81783 40.8699 7.76076 40.716 7.66915C40.5622 7.57754 40.43 7.45359 40.3288 7.30587C40.0325 6.90394 39.8511 6.20115 39.587 5.62008L39.8167 5.28017C39.7932 5.26532 39.7686 5.25227 39.7432 5.24113L38.9439 4.78178C38.809 4.7022 38.655 4.66091 38.4983 4.66236C38.2 4.67776 37.9109 4.77121 37.66 4.93337C35.7446 6.04038 35.6803 8.66781 34.989 10.3949C34.2977 12.1221 33.3193 12.6595 32.791 13.4036C32.2628 14.1478 32.2214 14.6967 31.0455 16.3204C29.8696 17.9442 29.8191 18.3415 29.8191 18.647V21.0677L30.6918 21.5684L46.3669 12.5125L46.0155 9.49003ZM31.6404 18.8124C31.436 18.9295 31.2706 18.7733 31.2706 18.4564C31.268 18.3062 31.3 18.1575 31.3641 18.0216C31.4282 17.8858 31.5228 17.7666 31.6404 17.6732C31.8448 17.5538 32.0102 17.7145 32.0102 18.0292C32.0131 18.1794 31.9813 18.3283 31.9171 18.4641C31.853 18.6 31.7583 18.7192 31.6404 18.8124ZM38.5305 12.0256C38.4313 12.0973 38.3168 12.145 38.1961 12.165C38.0753 12.185 37.9516 12.1768 37.8346 12.141C37.7175 12.1052 37.6104 12.0427 37.5215 11.9585C37.4327 11.8744 37.3645 11.7708 37.3224 11.6558C36.7161 11.773 36.2637 11.1965 36.2637 10.1767C36.2637 8.98935 36.8907 7.66645 37.6623 7.22089C37.7611 7.14867 37.8752 7.10044 37.9958 7.08C38.1164 7.05956 38.2401 7.06749 38.3571 7.10314C38.4741 7.1388 38.5812 7.20121 38.6699 7.28543C38.7586 7.36965 38.8265 7.47336 38.8681 7.58836C39.4767 7.46893 39.9269 8.0477 39.9269 9.06744C39.9246 10.2548 39.2907 11.5777 38.5282 12.0256H38.5305ZM43.7348 11.8235C43.5304 11.9406 43.3651 11.7821 43.3651 11.4675C43.3621 11.3176 43.394 11.1691 43.4581 11.0336C43.5223 10.8981 43.617 10.7793 43.7348 10.6866C43.9392 10.5672 44.1046 10.7257 44.1046 11.0426C44.107 11.1924 44.075 11.3408 44.0108 11.4762C43.9467 11.6116 43.8523 11.7304 43.7348 11.8235Z" fill="#455A64"/>
<path opacity="0.5" d="M31.5624 19.2464L29.8743 18.2726C29.8364 18.3938 29.8178 18.5201 29.8192 18.647V21.0677L30.6919 21.5684L31.5624 21.0654V19.2464Z" fill="#37474F"/>
<path opacity="0.5" d="M33.3033 16.2286L34.1761 14.2167L32.798 13.4036C32.3915 13.9663 32.2721 14.4211 31.7278 15.3145L33.3033 16.2286Z" fill="#37474F"/>
<path opacity="0.5" d="M36.7896 12.2047L36.9021 11.6168C36.5162 11.456 36.2613 10.9278 36.2613 10.1768C36.2613 9.1685 36.7207 8.06378 37.3224 7.48042L36.1143 6.7914C35.5999 7.96273 35.4092 9.34534 34.9889 10.3972C34.8994 10.6269 34.8052 10.8221 34.7087 11.0105L36.7896 12.2047Z" fill="#37474F"/>
<path d="M46.0156 9.49003L45.9467 9.44869C45.6904 9.32907 45.4205 9.24114 45.1429 9.18687C44.687 9.1027 44.2629 8.89541 43.9164 8.58743C43.83 8.50724 43.7353 8.43642 43.6339 8.37613C43.5628 8.3329 43.4853 8.30113 43.4043 8.28197C42.876 8.15565 41.916 8.74131 41.2247 7.8364L41.204 7.80884C40.7217 7.15888 40.5449 5.70736 39.826 5.28247C39.8025 5.26762 39.7779 5.25457 39.7525 5.24342C39.4562 5.10332 39.0635 5.12859 38.5375 5.43405C36.6221 6.54106 36.5578 9.16849 35.8665 10.8933C35.1752 12.6181 34.2014 13.1648 33.6685 13.9089C33.1357 14.653 33.1012 15.2019 31.923 16.8257C30.7448 18.4495 30.7012 18.8445 30.7012 19.1523V21.5707L46.367 12.5125V10.0987C46.3786 9.97333 46.351 9.8475 46.288 9.7385C46.2251 9.6295 46.1299 9.54269 46.0156 9.49003ZM32.5087 19.3153C32.3066 19.4325 32.1412 19.274 32.1412 18.9594C32.1387 18.8091 32.1704 18.6602 32.2341 18.5241C32.2978 18.388 32.3917 18.2682 32.5087 18.1739C32.7154 18.0567 32.8785 18.2175 32.8785 18.5322C32.8816 18.6824 32.8498 18.8313 32.7857 18.9672C32.7215 19.1031 32.6267 19.2223 32.5087 19.3153ZM38.5283 12.0256C38.4291 12.0973 38.3147 12.145 38.1939 12.165C38.0732 12.185 37.9494 12.1768 37.8324 12.141C37.7154 12.1052 37.6082 12.0427 37.5194 11.9585C37.4305 11.8744 37.3624 11.7708 37.3203 11.6558C37.1842 11.3489 37.1191 11.0153 37.1297 10.6797C37.1297 9.49233 37.7567 8.16713 38.5283 7.72157C38.6331 7.65955 38.7471 7.61459 38.866 7.58836C39.4746 7.46893 39.9247 8.0477 39.9247 9.06744C39.9247 10.2548 39.2909 11.5777 38.5283 12.0256ZM44.6054 12.3311C44.3987 12.4482 44.2334 12.2897 44.2334 11.9774C44.2305 11.8269 44.2626 11.6779 44.3272 11.542C44.3918 11.4061 44.487 11.287 44.6054 11.1942C44.8075 11.0771 44.9729 11.2355 44.9729 11.5502C44.9758 11.6998 44.9441 11.8481 44.8804 11.9835C44.8167 12.119 44.7226 12.2379 44.6054 12.3311Z" fill="#37474F"/>
<path d="M39.9245 9.06744C39.9245 10.2548 39.2998 11.5777 38.5281 12.0256C38.4289 12.0973 38.3145 12.145 38.1937 12.165C38.073 12.185 37.9492 12.1768 37.8322 12.141C37.7152 12.1052 37.608 12.0427 37.5192 11.9585C37.4303 11.8744 37.3622 11.7708 37.3201 11.6558C37.4401 11.6311 37.5551 11.5861 37.66 11.5226C38.4317 11.0771 39.061 9.75645 39.061 8.56446C39.0713 8.22892 39.0062 7.89535 38.8703 7.58836C39.4744 7.45975 39.9245 8.05459 39.9245 9.06744Z" fill="#263238"/>
<path d="M32.5109 19.313C32.3065 19.4325 32.1388 19.274 32.1388 18.9594C32.1364 18.8087 32.1688 18.6595 32.2333 18.5233C32.2978 18.3871 32.3928 18.2675 32.5109 18.1739C32.7153 18.0568 32.8806 18.2175 32.8806 18.5322C32.8836 18.6821 32.8517 18.8306 32.7876 18.9661C32.7234 19.1016 32.6287 19.2204 32.5109 19.313Z" fill="#263238"/>
<path d="M44.6033 12.3334C44.3989 12.4505 44.2335 12.292 44.2335 11.9774C44.2309 11.8272 44.2629 11.6784 44.3271 11.5426C44.3912 11.4068 44.4857 11.2876 44.6033 11.1942C44.8077 11.0748 44.9731 11.2355 44.9731 11.5502C44.9757 11.7003 44.9437 11.8491 44.8796 11.9849C44.8155 12.1207 44.7209 12.24 44.6033 12.3334Z" fill="#263238"/>
<path d="M22.2564 26.6305L54.8076 7.83655C54.8939 7.79349 54.9891 7.77107 55.0855 7.77107C55.182 7.77107 55.2771 7.79349 55.3634 7.83655L55.6781 8.01799C55.7592 8.07092 55.8268 8.14211 55.8755 8.22587C55.9241 8.30962 55.9525 8.40361 55.9583 8.5003V64.7834C55.9525 64.8801 55.9241 64.9741 55.8755 65.0578C55.8268 65.1416 55.7592 65.2128 55.6781 65.2657L23.1292 84.0596C23.0425 84.1027 22.9469 84.1252 22.8501 84.1252C22.7533 84.1252 22.6578 84.1027 22.5711 84.0596L22.2564 83.8759C22.1752 83.8233 22.1077 83.7521 22.0593 83.6682C22.011 83.5844 21.9833 83.4903 21.9785 83.3936V27.1243C21.9821 27.0258 22.0092 26.9296 22.0575 26.8437C22.1059 26.7578 22.1741 26.6847 22.2564 26.6305Z" fill="#F5F5F5"/>
<path d="M23.0621 84.0893C23.0284 84.1012 22.9938 84.1104 22.9587 84.1169H22.9036C22.8479 84.1226 22.7917 84.1226 22.7359 84.1169C22.7008 84.1104 22.6663 84.1012 22.6326 84.0893L22.5706 84.0595L22.2559 83.878C22.1748 83.8253 22.1074 83.7541 22.0591 83.6702C22.0108 83.5864 21.983 83.4924 21.978 83.3957V27.1264C21.9807 27.0292 22.0084 26.9343 22.0584 26.8508L22.9312 27.3538C22.8806 27.4371 22.8521 27.532 22.8485 27.6294V83.8987C22.8485 84.0503 22.938 84.1261 23.0621 84.0893Z" fill="#E0E0E0"/>
<path d="M55.6781 8.01799L55.368 7.83655C55.2817 7.79349 55.1866 7.77107 55.0901 7.77107C54.9937 7.77107 54.8985 7.79349 54.8122 7.83655L22.2564 26.6305C22.1756 26.6835 22.1083 26.7548 22.0601 26.8386C22.0118 26.9224 21.9839 27.0163 21.9785 27.1128V36.3984L22.849 36.906L55.9583 17.7951V8.5003C55.9525 8.40361 55.9241 8.30962 55.8755 8.22587C55.8268 8.14211 55.7592 8.07092 55.6781 8.01799Z" fill="#3E63F6"/>
<path opacity="0.4" d="M55.6781 8.01799L55.368 7.83655C55.2817 7.79349 55.1866 7.77107 55.0901 7.77107C54.9937 7.77107 54.8985 7.79349 54.8122 7.83655L22.2564 26.6305C22.1756 26.6835 22.1083 26.7548 22.0601 26.8386C22.0118 26.9224 21.9839 27.0163 21.9785 27.1128V36.3984L22.849 36.906L55.9583 17.7951V8.5003C55.9525 8.40361 55.9241 8.30962 55.8755 8.22587C55.8268 8.14211 55.7592 8.07092 55.6781 8.01799Z" fill="white"/>
<path d="M55.946 8.41747C55.9115 8.30263 55.8036 8.26588 55.6772 8.33938L23.1283 27.1333C23.0449 27.1839 22.9766 27.2561 22.9308 27.3423L22.0649 26.8393C22.1121 26.7542 22.1801 26.6823 22.2625 26.6303L54.8068 7.8387C54.8924 7.79344 54.9878 7.76979 55.0847 7.76979C55.1816 7.76979 55.2769 7.79344 55.3626 7.8387L55.6772 8.01784C55.7463 8.06326 55.8057 8.122 55.8518 8.19061C55.8979 8.25923 55.93 8.33635 55.946 8.41747Z" fill="#3E63F6"/>
<path opacity="0.6" d="M55.946 8.41747C55.9115 8.30263 55.8036 8.26588 55.6772 8.33938L23.1283 27.1333C23.0449 27.1839 22.9766 27.2561 22.9308 27.3423L22.0649 26.8393C22.1121 26.7542 22.1801 26.6823 22.2625 26.6303L54.8068 7.8387C54.8924 7.79344 54.9878 7.76979 55.0847 7.76979C55.1816 7.76979 55.2769 7.79344 55.3626 7.8387L55.6772 8.01784C55.7463 8.06326 55.8057 8.122 55.8518 8.19061C55.8979 8.25923 55.93 8.33635 55.946 8.41747Z" fill="white"/>
<path d="M21.978 27.115V36.3982L22.8485 36.9012V27.6156C22.8524 27.519 22.8808 27.4249 22.9312 27.3423L22.0653 26.8393C22.0123 26.9219 21.9822 27.017 21.978 27.115Z" fill="#3E63F6"/>
<path d="M48.833 13.755L47.9671 13.252C47.8307 13.1856 47.6801 13.1535 47.5285 13.1583C47.3768 13.1631 47.2286 13.2047 47.0966 13.2796C46.0838 13.7252 45.6474 13.9273 45.1238 14.1455L44.7448 14.297C44.5427 14.3797 44.1316 14.3108 44.2579 13.608L45.3925 11.1H45.3741L44.522 10.6062C44.4789 10.5809 44.4314 10.5637 44.3819 10.5557C44.3521 10.5557 44.3199 10.5557 44.2855 10.5557C43.7343 10.5419 43.5781 6.99122 43.5735 6.88097L43.5368 6.8603L42.6939 6.3757C42.5472 6.29161 42.3806 6.24876 42.2116 6.25168C41.9315 6.26415 41.6584 6.34286 41.4146 6.48135C40.0917 7.17036 38.755 9.23739 38.4289 11.0748C38.2222 12.2415 37.0509 14.0352 36.3618 14.6967C35.6728 15.3581 35.6384 15.9116 35.6384 15.9116L35.3191 17.7834L35.1561 18.7136C35.032 19.4279 34.2994 20.1192 34.2994 20.1192L31.5686 22.1656C29.8599 23.5849 29.3776 25.0181 29.0422 26.7911V26.8049C29.0422 26.8669 29.0422 26.9083 29.0721 26.9266C29.0765 26.9295 29.0817 26.931 29.087 26.931C29.0923 26.931 29.0975 26.9295 29.102 26.9266L29.4511 26.7268L48.2473 15.8978C48.2919 15.8678 48.3301 15.8291 48.3597 15.7842C48.3892 15.7393 48.4096 15.6889 48.4195 15.636C48.5275 14.9883 48.8398 13.778 48.8398 13.778L48.833 13.755ZM43.1945 9.38209C42.9924 10.519 42.1748 11.7867 41.3572 12.2139C40.7945 12.5079 40.3857 12.3242 40.2479 11.8074C40.1471 11.8476 40.0377 11.8615 39.93 11.8478C39.8224 11.8342 39.7199 11.7934 39.6324 11.7293C39.3705 11.5226 41.7637 7.41611 41.9589 7.50568C42.0527 7.55445 42.134 7.62415 42.1965 7.70938C42.259 7.79461 42.3011 7.89308 42.3195 7.99717C42.9901 7.79277 43.3737 8.36005 43.1945 9.38209Z" fill="#455A64"/>
<path opacity="0.5" d="M31.7711 24.166L30.3931 23.3759C29.5984 24.4209 29.2815 25.521 29.0449 26.7957V26.8095C29.0449 26.8715 29.0449 26.9128 29.0748 26.9312C29.0792 26.9341 29.0844 26.9356 29.0897 26.9356C29.095 26.9356 29.1002 26.9341 29.1046 26.9312L30.1841 26.0746L31.7711 24.166Z" fill="#37474F"/>
<path opacity="0.5" d="M35.0691 19.0283L36.9983 20.1422L37.6598 16.2378L35.9212 15.2318C35.7819 15.4309 35.6886 15.6583 35.6479 15.8978L35.3286 17.7697L35.1564 18.7136C35.1388 18.8214 35.1095 18.9269 35.0691 19.0283Z" fill="#37474F"/>
<path opacity="0.5" d="M39.3433 8.64944C38.901 9.39136 38.5902 10.2041 38.4246 11.0518C38.285 11.6522 38.0525 12.2272 37.7356 12.7559L39.3915 13.7137L40.2252 11.8235C40.1273 11.8596 40.022 11.8709 39.9186 11.8565C39.8152 11.842 39.717 11.8023 39.6327 11.7408C39.4972 11.6352 40.0668 10.496 40.6754 9.42802L39.3433 8.64944Z" fill="#37474F"/>
<path d="M48.8469 13.7619H48.8331C48.697 13.6972 48.5474 13.666 48.3968 13.6708C48.2462 13.6756 48.0989 13.7163 47.9672 13.7895C46.7247 14.3361 46.3595 14.5175 45.6131 14.8092C45.4179 14.8873 45.0206 14.823 45.1239 14.1523C45.1228 14.1371 45.1228 14.1217 45.1239 14.1064L45.2939 13.151L45.5534 11.6604C45.5534 11.6604 45.6614 11.2516 45.388 11.0954H45.3697C45.3021 11.0637 45.2284 11.0472 45.1538 11.0472C44.9953 11.0285 44.8432 10.9741 44.7087 10.8882C44.5743 10.8023 44.461 10.6871 44.3775 10.5511C44.2314 10.3349 44.1303 10.0915 44.0802 9.83547C44.0301 9.5794 44.032 9.31586 44.0858 9.06055C44.281 7.94435 44.0651 7.16117 43.569 6.86949C43.5579 6.86021 43.5455 6.85249 43.5323 6.84652C43.2108 6.67657 42.7836 6.70413 42.2806 6.96825C40.9577 7.65726 39.621 9.7243 39.2949 11.5617C39.0905 12.7284 37.9169 14.5244 37.2393 15.1836C36.5618 15.8427 36.5136 16.3985 36.5136 16.3985L36.1966 18.2726L36.0267 19.2281C35.9026 19.9423 35.1677 20.6337 35.1677 20.6337L32.4392 22.68C31.3508 23.5474 30.5653 24.7374 30.1953 26.0791C30.1953 26.0791 29.171 26.8738 29.1067 26.9381L29.4558 26.7383L48.2888 15.9093C48.2888 15.9093 48.5047 15.7899 48.5506 15.76C48.5965 15.7302 49.359 15.0136 49.359 15.0136C49.343 14.3889 49.1661 13.9502 48.8469 13.7619ZM43.1947 9.38209C42.9926 10.519 42.1749 11.7867 41.3573 12.2139C40.7946 12.5079 40.3858 12.3242 40.248 11.8074C40.1875 11.5165 40.1875 11.2163 40.248 10.9255C40.4501 9.77712 41.27 8.52312 42.0854 8.09823C42.1586 8.0575 42.2355 8.02367 42.315 7.99717C42.9903 7.79277 43.3738 8.36005 43.1947 9.38209Z" fill="#37474F"/>
<path d="M43.1947 9.38209C42.9926 10.519 42.175 11.7867 41.3574 12.2139C40.7947 12.5079 40.3858 12.3242 40.248 11.8074C40.3273 11.7813 40.4042 11.7482 40.4777 11.7087C41.2908 11.2815 42.113 10.016 42.3151 8.87911C42.3768 8.58837 42.3768 8.28792 42.3151 7.99717C42.9903 7.79277 43.3739 8.36005 43.1947 9.38209Z" fill="#263238"/>
<path d="M42.4074 8.0454C42.4837 8.04059 42.56 8.05561 42.6288 8.08902C42.6977 8.12242 42.7567 8.17307 42.8001 8.23603C43.1377 8.71604 42.8139 9.93789 42.6738 10.3283C42.4786 10.8749 41.2177 12.1496 40.8686 12.1496C40.7538 12.1314 40.6441 12.0898 40.5461 12.0274C40.4481 11.9649 40.364 11.883 40.299 11.7867C40.2412 11.5057 40.2412 11.2157 40.299 10.9347C40.4988 9.81387 41.3096 8.56216 42.1088 8.14416C42.1821 8.1053 42.259 8.07376 42.3385 8.05H42.4143L42.4074 8.0454ZM42.4143 7.99717C42.3852 7.99494 42.3561 7.99494 42.327 7.99717C42.2475 8.02367 42.1706 8.0575 42.0973 8.09823C41.282 8.52312 40.4621 9.7886 40.26 10.9255C40.1995 11.2163 40.1995 11.5165 40.26 11.8074C40.3301 11.9126 40.4211 12.0021 40.5274 12.0705C40.6337 12.1389 40.753 12.1846 40.8778 12.2047C41.2544 12.2047 42.5268 10.9163 42.7289 10.3467C42.931 9.77712 43.372 7.99258 42.412 7.99258L42.4143 7.99717Z" fill="#263238"/>
<path d="M29.1137 26.9335L48.3026 15.9093L48.5668 15.7623C48.615 15.7325 49.3729 15.0136 49.3729 15.0136L30.2 26.0631C30.2 26.0631 29.0379 26.9817 29.1137 26.9335Z" fill="#263238"/>
<path d="M48.9528 29.7676C48.9193 29.7671 48.8873 29.7537 48.8633 29.7302C48.8394 29.7066 48.8254 29.6749 48.8242 29.6413V25.4361C48.8244 25.414 48.8304 25.3923 48.8417 25.3733C48.853 25.3544 48.8692 25.3387 48.8885 25.3281L52.5035 23.2404C52.5227 23.2291 52.5445 23.2231 52.5667 23.2231C52.5889 23.2231 52.6107 23.2291 52.6299 23.2404C52.6492 23.2516 52.6654 23.2677 52.6767 23.287C52.6879 23.3063 52.694 23.3283 52.6942 23.3507V27.5536C52.694 27.576 52.6879 27.5979 52.6767 27.6173C52.6654 27.6366 52.6492 27.6527 52.6299 27.6639L49.0148 29.7493C48.9962 29.7609 48.9748 29.7672 48.9528 29.7676ZM49.0792 25.5096V29.414L52.4392 27.4732V23.5688L49.0792 25.5096Z" fill="#455A64"/>
<path d="M24.9939 38.9958V39.2852C24.9939 39.4437 25.1041 39.5149 25.2419 39.4276L37.4834 32.3606C37.5557 32.3143 37.616 32.2514 37.6591 32.1771C37.7023 32.1028 37.7271 32.0193 37.7314 31.9334V31.6418C37.7314 31.4856 37.6212 31.4121 37.4834 31.4994L25.2419 38.5686C25.1696 38.615 25.1093 38.6779 25.0662 38.7522C25.023 38.8265 24.9983 38.91 24.9939 38.9958Z" fill="#E0E0E0"/>
<path d="M24.9939 40.8263V41.1157C24.9939 41.2741 25.1041 41.3453 25.2419 41.2581L46.8907 28.7594C46.9622 28.7124 47.0218 28.6493 47.0644 28.5751C47.1071 28.5009 47.1318 28.4177 47.1364 28.3322V28.0405C47.1364 27.8821 47.0262 27.8109 46.8907 27.8981L25.2419 40.3991C25.1698 40.4457 25.1098 40.5087 25.0667 40.5829C25.0236 40.6572 24.9986 40.7406 24.9939 40.8263Z" fill="#E0E0E0"/>
<path d="M24.9939 42.5695V42.8589C24.9939 43.0173 25.1041 43.0885 25.2419 43.0013L46.8907 30.5003C46.9624 30.4534 47.022 30.3903 47.0647 30.3161C47.1074 30.2419 47.132 30.1586 47.1364 30.0731V29.7837C47.1364 29.6253 47.0262 29.5541 46.8907 29.6413L25.2419 42.14C25.1697 42.187 25.1095 42.2504 25.0664 42.325C25.0233 42.3996 24.9985 42.4834 24.9939 42.5695Z" fill="#E0E0E0"/>
<path d="M50.7139 27.8017L49.8733 26.9932L50.1535 26.3984L50.6335 26.8577L52.7051 22.4733L53.068 22.8201L50.7139 27.8017Z" fill="#3E63F6"/>
<path d="M48.9528 36.9104C48.9301 36.9103 48.9079 36.9039 48.8885 36.892C48.8691 36.8808 48.853 36.8648 48.8417 36.8454C48.8305 36.8261 48.8244 36.8042 48.8242 36.7818V32.5788C48.8244 32.5564 48.8305 32.5345 48.8417 32.5152C48.853 32.4958 48.8691 32.4798 48.8885 32.4686L52.5035 30.3832C52.5227 30.3718 52.5445 30.3659 52.5667 30.3659C52.5889 30.3659 52.6107 30.3718 52.6299 30.3832C52.6492 30.3944 52.6654 30.4104 52.6767 30.4297C52.6879 30.4491 52.694 30.471 52.6942 30.4934V34.6964C52.694 34.7188 52.6879 34.7407 52.6767 34.76C52.6654 34.7794 52.6492 34.7954 52.6299 34.8066L49.0148 36.892C48.9962 36.9036 48.9748 36.91 48.9528 36.9104ZM49.0792 32.6523V36.5567L52.4392 34.616V30.7116L49.0792 32.6523Z" fill="#455A64"/>
<path d="M24.9939 46.1386V46.428C24.9939 46.5864 25.1041 46.6576 25.2419 46.5704L37.4834 39.5034C37.5555 39.4568 37.6155 39.3938 37.6587 39.3196C37.7018 39.2453 37.7267 39.1619 37.7314 39.0762V38.7845C37.7314 38.6284 37.6212 38.5549 37.4834 38.6421L25.2419 45.7114C25.1696 45.7577 25.1093 45.8206 25.0662 45.8949C25.023 45.9692 24.9983 46.0528 24.9939 46.1386Z" fill="#E0E0E0"/>
<path d="M24.9939 47.9691V48.2584C24.9939 48.4169 25.1041 48.4881 25.2419 48.4008L46.8907 35.9022C46.962 35.8549 47.0213 35.7917 47.064 35.7176C47.1066 35.6434 47.1314 35.5604 47.1364 35.475V35.1833C47.1364 35.0248 47.0262 34.9536 46.8907 35.0409L25.2419 47.5419C25.1696 47.5882 25.1093 47.6511 25.0662 47.7254C25.023 47.7997 24.9983 47.8832 24.9939 47.9691Z" fill="#E0E0E0"/>
<path d="M25.1288 48.5708C25.0847 48.5705 25.0414 48.5595 25.0025 48.5386C24.9581 48.5093 24.9222 48.4688 24.8985 48.4213C24.8747 48.3737 24.8638 48.3207 24.867 48.2676V47.9782C24.868 47.867 24.8969 47.7579 24.9511 47.6607C25.0052 47.5636 25.0829 47.4817 25.1771 47.4224L46.8258 34.9215C46.8689 34.8892 46.9206 34.8704 46.9743 34.8672C47.0281 34.864 47.0816 34.8766 47.1283 34.9035C47.1749 34.9303 47.2127 34.9703 47.2369 35.0184C47.2611 35.0665 47.2707 35.1206 47.2645 35.1741V35.4796C47.2596 35.5877 47.2287 35.6931 47.1743 35.7866C47.1199 35.8802 47.0437 35.9593 46.9521 36.017L25.3034 48.5111C25.2519 48.5468 25.1914 48.5675 25.1288 48.5708ZM47.0004 35.1419C46.9829 35.1436 46.9662 35.1499 46.9521 35.1603L25.3034 47.6521C25.2508 47.6876 25.207 47.7346 25.1752 47.7895C25.1433 47.8444 25.1244 47.9058 25.1196 47.969V48.2584C25.1145 48.2749 25.1145 48.2925 25.1196 48.309C25.1363 48.3071 25.1522 48.3008 25.1656 48.2906L46.8143 35.7919C46.8671 35.7566 46.9111 35.7097 46.943 35.6548C46.9748 35.5998 46.9937 35.5383 46.9981 35.475V35.1833C47.0033 35.1669 47.0041 35.1495 47.0004 35.1328V35.1419Z" fill="#E0E0E0"/>
<path d="M24.9939 49.7191V50.0108C24.9939 50.167 25.1041 50.2405 25.2419 50.1532L46.8907 37.6522C46.9624 37.6054 47.022 37.5423 47.0647 37.4681C47.1074 37.3938 47.132 37.3106 47.1364 37.2251V36.9334C47.1364 36.7772 47.0262 36.7037 46.8907 36.791L25.2419 49.2828C25.1687 49.3304 25.108 49.3949 25.0649 49.4708C25.0217 49.5467 24.9974 49.6319 24.9939 49.7191Z" fill="#E0E0E0"/>
<path d="M50.7139 34.9444L49.8733 34.136L50.1535 33.5388L50.6335 34.0005L52.7051 29.6138L53.068 29.9629L50.7139 34.9444Z" fill="#3E63F6"/>
<path d="M48.9528 44.0509C48.9303 44.0516 48.9081 44.046 48.8885 44.0348C48.8691 44.0236 48.853 44.0075 48.8417 43.9882C48.8305 43.9689 48.8244 43.9469 48.8242 43.9245V39.7216C48.8244 39.6992 48.8305 39.6772 48.8417 39.6579C48.853 39.6386 48.8691 39.6225 48.8885 39.6113L52.5035 37.5259C52.5228 37.5153 52.5444 37.5098 52.5664 37.5099C52.5883 37.5101 52.6099 37.5158 52.629 37.5266C52.6481 37.5375 52.6641 37.553 52.6756 37.5718C52.687 37.5905 52.6934 37.6119 52.6942 37.6339V41.8391C52.6937 41.8615 52.6876 41.8833 52.6764 41.9026C52.6651 41.9219 52.6491 41.938 52.6299 41.9494L49.0148 44.0348C48.996 44.0457 48.9746 44.0513 48.9528 44.0509ZM49.0792 39.7951V43.6995L52.4392 41.7611V37.8566L49.0792 39.7951Z" fill="#455A64"/>
<path d="M24.9939 53.2813V53.5707C24.9939 53.7292 25.1041 53.8004 25.2419 53.7131L37.4834 46.6461C37.5555 46.5996 37.6155 46.5366 37.6587 46.4623C37.7018 46.3881 37.7267 46.3047 37.7314 46.219V45.9273C37.7314 45.7688 37.6212 45.6976 37.4834 45.7849L25.2419 52.8519C25.1697 52.8988 25.1095 52.9622 25.0664 53.0368C25.0233 53.1115 24.9985 53.1953 24.9939 53.2813Z" fill="#E0E0E0"/>
<path d="M24.9939 55.1118V55.4012C24.9939 55.5597 25.1041 55.6309 25.2419 55.5436L46.8907 43.0449C46.9623 42.9974 47.0218 42.9339 47.0645 42.8593C47.1071 42.7847 47.1318 42.7012 47.1364 42.6154V42.326C47.1364 42.1676 47.0262 42.0964 46.8907 42.1836L25.2419 54.6846C25.1696 54.7309 25.1093 54.7939 25.0662 54.8682C25.023 54.9425 24.9983 55.026 24.9939 55.1118Z" fill="#E0E0E0"/>
<path d="M24.9939 56.8527V57.1444C24.9939 57.3006 25.1041 57.3741 25.2419 57.2868L46.8907 44.7858C46.9624 44.739 47.022 44.6759 47.0647 44.6016C47.1074 44.5274 47.132 44.4441 47.1364 44.3586V44.0669C47.1364 43.9108 47.0262 43.8373 46.8907 43.9245L25.2419 56.4255C25.1698 56.4721 25.1098 56.5351 25.0667 56.6094C25.0236 56.6836 24.9986 56.767 24.9939 56.8527Z" fill="#E0E0E0"/>
<path d="M50.7139 42.0872L49.8733 41.2787L50.1535 40.6816L50.6335 41.1432L52.7051 36.7565L53.068 37.1056L50.7139 42.0872Z" fill="#3E63F6"/>
<path d="M48.9528 51.1936C48.9303 51.1943 48.9081 51.1887 48.8885 51.1775C48.8691 51.1663 48.853 51.1503 48.8417 51.131C48.8305 51.1116 48.8244 51.0897 48.8242 51.0673V46.8643C48.8244 46.8419 48.8305 46.82 48.8417 46.8007C48.853 46.7813 48.8691 46.7653 48.8885 46.7541L52.5035 44.6664C52.523 44.6561 52.5447 44.6508 52.5667 44.6508C52.5887 44.6508 52.6104 44.6561 52.6299 44.6664C52.6491 44.6777 52.6651 44.6938 52.6764 44.7131C52.6876 44.7324 52.6937 44.7543 52.6942 44.7766V48.9819C52.694 49.004 52.688 49.0256 52.6767 49.0446C52.6654 49.0636 52.6492 49.0792 52.6299 49.0898L49.0148 51.1775C48.996 51.1884 48.9746 51.194 48.9528 51.1936ZM49.0792 46.9378V50.8422L52.4392 48.9038V44.9994L49.0792 46.9378Z" fill="#455A64"/>
<path d="M24.9939 60.4218V60.7135C24.9939 60.8696 25.1041 60.9431 25.2419 60.8559L37.4834 53.7889C37.5554 53.7422 37.6153 53.6791 37.6584 53.6049C37.7015 53.5307 37.7265 53.4474 37.7314 53.3617V53.07C37.7314 52.9116 37.6212 52.8404 37.4834 52.9276L25.2419 59.9946C25.17 60.0413 25.11 60.1044 25.0669 60.1786C25.0238 60.2528 24.9988 60.3361 24.9939 60.4218Z" fill="#E0E0E0"/>
<path d="M24.9939 62.2546V62.5439C24.9939 62.7001 25.1041 62.7736 25.2419 62.6863L46.8907 50.1785C46.9624 50.1316 47.022 50.0685 47.0647 49.9943C47.1074 49.9201 47.132 49.8368 47.1364 49.7513V49.4665C47.1364 49.3103 47.0262 49.2368 46.8907 49.3241L25.2419 61.8251C25.1697 61.872 25.1095 61.9354 25.0664 62.0101C25.0233 62.0847 24.9985 62.1685 24.9939 62.2546Z" fill="#E0E0E0"/>
<path d="M24.9939 63.9955V64.2849C24.9939 64.4433 25.1041 64.5145 25.2419 64.4295L46.8907 51.9286C46.9622 51.8816 47.0218 51.8184 47.0644 51.7442C47.1071 51.67 47.1318 51.5869 47.1364 51.5014V51.2097C47.1364 51.0535 47.0262 50.98 46.8907 51.0673L25.2419 63.5683C25.1698 63.6149 25.1098 63.6779 25.0667 63.7521C25.0236 63.8264 24.9986 63.9097 24.9939 63.9955Z" fill="#E0E0E0"/>
<path d="M50.7139 49.2299L49.8733 48.4192L50.1535 47.8243L50.6335 48.286L52.7051 43.8993L53.068 44.2484L50.7139 49.2299Z" fill="#3E63F6"/>
<path d="M48.9528 58.3364C48.9303 58.3371 48.9081 58.3315 48.8885 58.3203C48.8691 58.3091 48.853 58.2931 48.8417 58.2737C48.8305 58.2544 48.8244 58.2324 48.8242 58.2101V54.0071C48.8244 53.9847 48.8305 53.9628 48.8417 53.9434C48.853 53.9241 48.8691 53.908 48.8885 53.8968L52.5035 51.8091C52.5227 51.7978 52.5445 51.7919 52.5667 51.7919C52.5889 51.7919 52.6107 51.7978 52.6299 51.8091C52.6492 51.8203 52.6654 51.8364 52.6767 51.8557C52.6879 51.8751 52.694 51.897 52.6942 51.9194V56.1224C52.694 56.1447 52.6879 56.1667 52.6767 56.186C52.6654 56.2053 52.6492 56.2214 52.6299 56.2326L49.0148 58.3203C48.996 58.3312 48.9746 58.3368 48.9528 58.3364ZM49.0792 54.0806V57.985L52.4392 56.0443V52.1399L49.0792 54.0806Z" fill="#455A64"/>
<path d="M24.9939 67.5645V67.8631C24.9939 68.0193 25.1041 68.0928 25.2419 68.0055L37.4834 60.9385C37.5557 60.8916 37.6158 60.8282 37.6589 60.7536C37.702 60.6789 37.7269 60.5951 37.7314 60.5091V60.2197C37.7314 60.0612 37.6212 59.99 37.4834 60.0773L25.2419 67.1442C25.1707 67.1902 25.1112 67.2521 25.0682 67.325C25.0251 67.398 24.9997 67.48 24.9939 67.5645Z" fill="#E0E0E0"/>
<path d="M24.9939 69.395V69.6867C24.9939 69.8429 25.1041 69.9164 25.2419 69.8291L46.8907 57.3281C46.9624 57.2813 47.022 57.2182 47.0647 57.1439C47.1074 57.0697 47.132 56.9865 47.1364 56.9009V56.6093C47.1364 56.4531 47.0262 56.3796 46.8907 56.4669L25.2419 68.9678C25.17 69.0146 25.11 69.0776 25.0669 69.1518C25.0238 69.226 24.9988 69.3093 24.9939 69.395Z" fill="#E0E0E0"/>
<path d="M24.9939 71.1382V71.4276C24.9939 71.5861 25.1041 71.6573 25.2419 71.57L46.8907 59.0713C46.9622 59.0243 47.0218 58.9612 47.0644 58.887C47.1071 58.8128 47.1318 58.7296 47.1364 58.6441V58.3525C47.1364 58.194 47.0262 58.1228 46.8907 58.2101L25.2419 70.711C25.1696 70.7573 25.1093 70.8203 25.0662 70.8946C25.023 70.9689 24.9983 71.0524 24.9939 71.1382Z" fill="#E0E0E0"/>
<path d="M50.7139 56.3704L49.8733 55.562L50.1535 54.9671L50.6335 55.4265L52.7051 51.042L53.068 51.3911L50.7139 56.3704Z" fill="#3E63F6"/>
<path d="M48.9528 65.4745C48.9303 65.4752 48.9081 65.4697 48.8885 65.4585C48.8691 65.4473 48.853 65.4312 48.8417 65.4119C48.8305 65.3926 48.8244 65.3706 48.8242 65.3482V61.1453C48.8244 61.1229 48.8305 61.1009 48.8417 61.0816C48.853 61.0623 48.8691 61.0462 48.8885 61.035L52.5035 58.9473C52.5227 58.936 52.5445 58.93 52.5667 58.93C52.5889 58.93 52.6107 58.936 52.6299 58.9473C52.6492 58.9585 52.6654 58.9746 52.6767 58.9939C52.6879 59.0132 52.694 59.0352 52.6942 59.0576V63.2697C52.694 63.2921 52.6879 63.314 52.6767 63.3334C52.6654 63.3527 52.6492 63.3688 52.6299 63.38L49.0148 65.4677C48.9952 65.4754 48.9738 65.4778 48.9528 65.4745ZM49.0792 61.2188V65.1232L52.4392 63.1847V59.2803L49.0792 61.2188Z" fill="#455A64"/>
<path d="M24.9939 74.7027V74.9944C24.9939 75.1506 25.1041 75.2241 25.2419 75.1368L37.4834 68.0698C37.5557 68.0228 37.6158 67.9595 37.6589 67.8848C37.702 67.8102 37.7269 67.7264 37.7314 67.6403V67.3509C37.7314 67.1925 37.6212 67.1213 37.4834 67.2085L25.2419 74.2755C25.1698 74.3221 25.1098 74.3851 25.0667 74.4593C25.0236 74.5336 24.9986 74.617 24.9939 74.7027Z" fill="#E0E0E0"/>
<path d="M24.9939 76.5332V76.8203C24.9939 76.9764 25.1041 77.0499 25.2419 76.9627L46.8907 64.4617C46.9624 64.4148 47.022 64.3517 47.0647 64.2775C47.1074 64.2033 47.132 64.12 47.1364 64.0345V63.7428C47.1364 63.5866 47.0262 63.5132 46.8907 63.6004L25.2419 76.106C25.17 76.1527 25.11 76.2158 25.0669 76.29C25.0238 76.3642 24.9988 76.4475 24.9939 76.5332Z" fill="#E0E0E0"/>
<path d="M24.9939 78.2764V78.5658C24.9939 78.7242 25.1041 78.7954 25.2419 78.7082L46.8907 66.2095C46.9622 66.1625 47.0218 66.0994 47.0644 66.0252C47.1071 65.951 47.1318 65.8678 47.1364 65.7823V65.4906C47.1364 65.3321 47.0262 65.2609 46.8907 65.3482L25.2419 77.8492C25.1696 77.8955 25.1093 77.9584 25.0662 78.0327C25.023 78.107 24.9983 78.1906 24.9939 78.2764Z" fill="#E0E0E0"/>
<path d="M50.7139 63.5109L49.8733 62.7001L50.1535 62.1053L50.6335 62.5669L52.7051 58.1802L53.068 58.5293L50.7139 63.5109Z" fill="#3E63F6"/>
<path d="M25.5449 31.0125L37.1616 24.2992C37.3293 24.2027 37.4648 24.2808 37.4648 24.476V24.5633C37.4593 24.6687 37.429 24.7713 37.3763 24.8627C37.3237 24.9541 37.2501 25.0317 37.1616 25.0893L25.5449 31.8048C25.3772 31.9013 25.2417 31.8232 25.2417 31.6303V31.5407C25.247 31.435 25.2772 31.332 25.3299 31.2402C25.3825 31.1484 25.4562 31.0703 25.5449 31.0125Z" fill="#FAFAFA"/>
<path d="M25.5449 32.6018L32.458 28.6101C32.6256 28.5136 32.7611 28.5917 32.7611 28.787V28.8742C32.7557 28.9796 32.7254 29.0822 32.6727 29.1736C32.62 29.265 32.5464 29.3427 32.458 29.4002L25.5449 33.3919C25.3772 33.4883 25.2417 33.4102 25.2417 33.215V33.1277C25.2473 33.0224 25.2777 32.9199 25.3304 32.8285C25.383 32.7371 25.4565 32.6594 25.5449 32.6018Z" fill="#FAFAFA"/>
<path d="M48.7873 17.4918L53.9549 14.506C54.0376 14.4578 54.1065 14.506 54.1065 14.5933V14.7908C54.1033 14.8433 54.088 14.8942 54.0617 14.9397C54.0354 14.9851 53.9988 15.0238 53.9549 15.0527L48.7873 18.0384C48.7046 18.0866 48.6357 18.0384 48.6357 17.9511V17.7536C48.6389 17.7012 48.6543 17.6502 48.6806 17.6047C48.7069 17.5593 48.7434 17.5206 48.7873 17.4918Z" fill="#3E63F6"/>
<path d="M48.7873 19.8734L53.9549 16.8877C54.0376 16.8395 54.1065 16.8877 54.1065 16.975V17.1702C54.1033 17.2226 54.088 17.2736 54.0617 17.3191C54.0354 17.3645 53.9988 17.4032 53.9549 17.432L48.7873 20.4178C48.7046 20.466 48.6357 20.4178 48.6357 20.3305V20.1353C48.6389 20.0828 48.6543 20.0319 48.6806 19.9864C48.7069 19.941 48.7434 19.9023 48.7873 19.8734Z" fill="#3E63F6"/>
<path d="M49.8553 18.0613L53.9573 15.6934C54.0399 15.6452 54.1088 15.6934 54.1088 15.7807V15.9759C54.1057 16.0284 54.0903 16.0793 54.064 16.1248C54.0377 16.1702 54.0011 16.2089 53.9573 16.2378L49.8553 18.6057C49.7727 18.6539 49.7061 18.6057 49.7061 18.5184V18.3232C49.7088 18.2709 49.7237 18.22 49.7496 18.1745C49.7755 18.1291 49.8117 18.0903 49.8553 18.0613Z" fill="#3E63F6"/>
</svg>
