<svg width="141" height="120" viewBox="0 0 141 120" fill="none" xmlns="http://www.w3.org/2000/svg">
<path d="M119.635 45.4027C92.2471 28.4637 47.9846 28.4637 20.7728 45.4027C-6.43895 62.3417 -6.29186 89.8015 21.0935 106.737C48.4788 123.673 92.7472 123.673 119.959 106.737C147.171 89.8015 147.027 62.3449 119.635 45.4027Z" fill="#A2A1A1"/>
<path d="M9.82062 75.1915L38.0037 58.9109L60.5109 71.87C61.6455 70.5543 63.0028 69.4486 64.5208 68.6035C72.5441 63.9706 85.517 63.9706 93.4818 68.6035C101.447 73.2365 101.398 80.7469 93.3888 85.3798C91.654 86.3608 89.8041 87.1227 87.8817 87.6481L90.143 88.9492C90.2963 89.0408 90.4232 89.1707 90.5114 89.326C90.5995 89.4814 90.6458 89.6569 90.6458 89.8355C90.6458 90.0141 90.5995 90.1896 90.5114 90.345C90.4232 90.5003 90.2963 90.6302 90.143 90.7218L63.9839 105.818C63.3628 106.177 62.6582 106.366 61.941 106.366C61.2239 106.366 60.5193 106.177 59.8982 105.818L9.82062 76.9641C9.66732 76.8725 9.54041 76.7427 9.45229 76.5873C9.36416 76.432 9.31784 76.2564 9.31784 76.0778C9.31784 75.8992 9.36416 75.7237 9.45229 75.5683C9.54041 75.413 9.66732 75.2832 9.82062 75.1915Z" fill="#484747"/>
<path d="M124.202 88.216C121.482 86.6431 117.084 86.6431 114.378 88.216C111.673 89.789 111.69 92.3464 114.409 93.9057C117.128 95.4649 121.531 95.4787 124.236 93.9057C126.941 92.3327 126.924 89.789 124.202 88.216Z" fill="#484747"/>
<path d="M125.885 78.3934L119.294 78.5862L112.702 78.3934C112.42 82.8439 113.287 87.3805 114.485 89.5937C114.768 90.1638 115.225 90.6291 115.79 90.9223C117.734 92.0444 120.877 92.0444 122.808 90.9223C123.384 90.6216 123.843 90.137 124.112 89.5455C125.307 87.3323 126.167 82.8198 125.885 78.3934Z" fill="white"/>
<path d="M123.937 75.6949C126.522 77.1853 126.532 79.6016 123.968 81.0919C121.404 82.5823 117.232 82.5823 114.647 81.0919C112.062 79.6016 112.052 77.1853 114.619 75.6949C117.187 74.2045 121.355 74.2045 123.937 75.6949Z" fill="#EBEBEB"/>
<path d="M122.918 76.2869C124.932 77.4503 124.942 79.3365 122.942 80.4999C120.942 81.6633 117.683 81.6633 115.669 80.4999C113.656 79.3365 113.645 77.4503 115.645 76.2869C117.645 75.1235 120.901 75.1235 122.918 76.2869Z" fill="#E0E0E0"/>
<g opacity="0.15">
<path opacity="0.15" d="M122.918 76.2869C124.932 77.4503 124.942 79.3365 122.942 80.4999C120.942 81.6633 117.683 81.6633 115.669 80.4999C113.656 79.3365 113.645 77.4503 115.645 76.2869C117.645 75.1235 120.901 75.1235 122.918 76.2869Z" fill="black"/>
</g>
<path d="M130.129 50.2723C115.277 55.1324 115.143 65.0729 118.492 72.1462C119.335 73.5781 121.892 74.3456 124.116 65.5479L120.213 66.047L124.77 63.7443L125.95 60.2128L122.164 60.495L126.983 58.4711C127.862 55.676 128.912 52.9378 130.129 50.2723Z" fill="#3E63F6"/>
<path opacity="0.2" d="M130.129 50.2723C115.277 55.1324 115.143 65.0729 118.492 72.1462C119.335 73.5781 121.892 74.3456 124.116 65.5479L120.213 66.047L124.77 63.7443L125.95 60.2128L122.164 60.495L126.983 58.4711C127.862 55.676 128.912 52.9378 130.129 50.2723Z" fill="black"/>
<path opacity="0.2" d="M130.129 50.2723C115.277 55.1324 115.143 65.0729 118.492 72.1462C119.335 73.5781 121.892 74.3456 124.116 65.5479L120.213 66.047L124.77 63.7443L125.95 60.2128L122.164 60.495L126.983 58.4711C127.862 55.676 128.912 52.9378 130.129 50.2723Z" fill="white"/>
<path d="M125.93 52.754C118.096 58.6983 117.39 65.5135 119.607 72.6281C118.819 66.3636 117.972 60.0304 125.93 52.754Z" fill="white"/>
<path d="M104.975 60.3643C119.614 62.4295 121.39 71.6574 119.448 78.803C118.898 80.2762 116.647 81.4155 113.112 73.5918L116.829 73.4094L112.213 72.0326L110.527 68.9348L114.1 68.5596L109.281 67.4754C107.993 65.0186 106.555 62.6437 104.975 60.3643Z" fill="#3E63F6"/>
<path opacity="0.2" d="M104.975 60.3643C119.614 62.4295 121.39 71.6574 119.448 78.803C118.898 80.2762 116.647 81.4155 113.112 73.5918L116.829 73.4094L112.213 72.0326L110.527 68.9348L114.1 68.5596L109.281 67.4754C107.993 65.0186 106.555 62.6437 104.975 60.3643Z" fill="white"/>
<path opacity="0.1" d="M104.975 60.3643C119.614 62.4295 121.39 71.6574 119.448 78.803C118.898 80.2762 116.647 81.4155 113.112 73.5918L116.829 73.4094L112.213 72.0326L110.527 68.9348L114.1 68.5596L109.281 67.4754C107.993 65.0186 106.555 62.6437 104.975 60.3643Z" fill="black"/>
<path d="M109.298 61.9785C117.579 66.2156 119.373 72.4422 118.492 79.4363C118.182 73.4714 117.917 67.4341 109.298 61.9785Z" fill="white"/>
<path d="M134.407 63.8235C120.984 64.0437 118.347 72.1634 119.297 78.8202C119.641 80.197 121.531 81.4912 125.589 74.8344L122.261 74.2527L126.577 73.5161L128.442 70.9208L125.262 70.1877L129.737 69.7506C131.17 67.6809 132.73 65.7015 134.407 63.8235Z" fill="#3E63F6"/>
<path d="M130.335 64.7941C122.395 67.6854 120.085 73.0996 120.096 79.5018C121.042 74.1598 121.958 68.7455 130.335 64.7941Z" fill="white"/>
<path opacity="0.2" d="M134.407 63.8235C120.984 64.0437 118.347 72.1634 119.297 78.8202C119.641 80.197 121.531 81.4912 125.589 74.8344L122.261 74.2527L126.577 73.5161L128.442 70.9208L125.262 70.1877L129.737 69.7506C131.17 67.6809 132.73 65.7015 134.407 63.8235Z" fill="white"/>
<path d="M71.1902 77.9289L72.1196 78.5209C72.2861 78.5954 72.4693 78.6244 72.6507 78.6051C72.8321 78.5857 73.0051 78.5187 73.1522 78.4107C73.5848 78.1313 73.9449 77.7531 74.2028 77.3073C74.4607 76.8615 74.6091 76.3608 74.6357 75.8465C74.6519 75.6673 74.6223 75.487 74.5494 75.3226C74.4765 75.1581 74.3628 75.015 74.2192 74.9068L73.9438 74.7347L82.8414 71.1172C82.851 71.2256 82.8875 71.3299 82.9476 71.4207C83.0077 71.5114 83.0895 71.5858 83.1856 71.6369L82.3836 78.6345V79.581C82.0244 79.872 81.7298 80.2348 81.5188 80.6461C81.3078 81.0574 81.185 81.5083 81.1582 81.9698C81.1403 82.1575 81.1741 82.3466 81.256 82.5165C81.3379 82.6864 81.4648 82.8306 81.6229 82.9335L82.5523 83.5255H82.5695C82.7365 83.5976 82.9193 83.6254 83.1002 83.6061C83.2811 83.5868 83.454 83.5211 83.6021 83.4154C84.0348 83.1352 84.3948 82.7564 84.6527 82.31C84.9106 81.8636 85.0589 81.3625 85.0856 80.8477C85.1018 80.6686 85.0721 80.4882 84.9993 80.3238C84.9264 80.1594 84.8127 80.0162 84.6691 79.908L83.7019 79.3091C83.5526 79.2206 83.379 79.182 83.2062 79.199L84.2388 71.9088C84.4596 71.9064 84.6787 71.8716 84.8894 71.8056L93.3154 76.3593L92.83 76.6657C92.6846 76.7723 92.5697 76.9151 92.4966 77.08C92.4235 77.2448 92.3949 77.426 92.4136 77.6053C92.4403 78.1192 92.5884 78.6195 92.8456 79.0652C93.1029 79.5109 93.462 79.8894 93.8936 80.1696C94.0407 80.2775 94.2137 80.3446 94.3951 80.3639C94.5764 80.3833 94.7597 80.3542 94.9262 80.2797L95.8556 79.6877C96.0136 79.5841 96.1401 79.4392 96.2215 79.2686C96.3028 79.0981 96.3358 78.9085 96.3168 78.7205C96.2915 78.2633 96.1713 77.8163 95.9639 77.408C95.7565 76.9998 95.4664 76.6391 95.1121 76.349V74.8793L87.2816 70.2257L91.4119 69.1931C91.1417 69.6372 90.99 70.1433 90.9714 70.6628C90.9528 70.8511 90.9863 71.0409 91.0682 71.2115C91.1502 71.3821 91.2774 71.5268 91.436 71.63L92.3654 72.2255H92.3826C92.5491 72.3 92.7324 72.329 92.9137 72.3097C93.0951 72.2903 93.2681 72.2233 93.4152 72.1153C93.8468 71.8351 94.2059 71.4566 94.4632 71.0109C94.7204 70.5652 94.8685 70.065 94.8952 69.551C94.9139 69.3717 94.8853 69.1906 94.8122 69.0257C94.7392 68.8609 94.6242 68.718 94.4788 68.6114L93.5322 67.9953C93.4281 67.9378 93.3134 67.902 93.1951 67.8902C93.0767 67.8783 92.9572 67.8907 92.8438 67.9264V67.6924L92.3413 67.5203L85.6191 67.8645V66.677C85.6914 66.6426 85.7636 66.615 85.829 66.5772C86.0115 66.4955 86.1692 66.3673 86.2864 66.2053C86.4036 66.0434 86.4762 65.8535 86.4968 65.6547V57.893H81.9809V65.6685C81.9984 65.8668 82.0686 66.0569 82.1842 66.2191C82.2998 66.3812 82.4565 66.5096 82.6383 66.5909C82.7097 66.6306 82.7832 66.6662 82.8586 66.6976V67.6958L78.0019 66.646L77.7679 66.7389V67.6304L76.8179 68.2293C76.6725 68.3359 76.5575 68.4788 76.4844 68.6437C76.4114 68.8085 76.3827 68.9896 76.4014 69.169C76.4342 69.8628 76.6915 70.5272 77.1346 71.0621L72.4397 73.1755V74.2872C72.3738 74.3147 72.3094 74.3457 72.2469 74.3802C71.8154 74.6608 71.4562 75.0393 71.1985 75.4849C70.9407 75.9304 70.7917 76.4305 70.7634 76.9445C70.7375 77.1319 70.7636 77.3228 70.8389 77.4964C70.9142 77.67 71.0357 77.8196 71.1902 77.9289ZM73.9886 72.9139L77.3893 71.3994L72.7907 73.4439L73.9886 72.9139ZM80.0017 69.0898L80.6901 69.4581L80.2151 69.675C80.162 69.4738 80.0905 69.278 80.0017 69.0898ZM82.8483 68.9659L80.2874 70.1052L82.8483 68.9659Z" fill="#E0E0E0"/>
<path d="M93.7559 69.8849L94.4994 68.6114L93.5322 67.9953C93.3623 67.9098 93.1721 67.873 92.9827 67.8888C92.7932 67.9046 92.6117 67.9724 92.4583 68.0848C92.0274 68.366 91.6686 68.7447 91.4109 69.1901C91.1533 69.6355 91.0039 70.1353 90.9748 70.649C90.9562 70.8373 90.9897 71.0272 91.0716 71.1977C91.1536 71.3683 91.2808 71.5131 91.4395 71.6162L92.3895 72.222L93.1708 70.8796C93.4187 70.5821 93.6164 70.2461 93.7559 69.8849Z" fill="#37474F"/>
<path d="M93.4255 68.7008C94.2447 68.2293 94.9125 68.6079 94.9159 69.551C94.8891 70.0649 94.7411 70.5652 94.4838 71.0109C94.2266 71.4566 93.8675 71.8351 93.4358 72.1153C92.6132 72.5903 91.9455 72.2117 91.942 71.2651C91.9703 70.7512 92.1193 70.2511 92.3771 69.8056C92.6348 69.36 92.994 68.9815 93.4255 68.7008Z" fill="#455A64"/>
<path d="M77.5235 69.5235L76.78 68.2465L77.7472 67.651C77.9171 67.5656 78.1073 67.5288 78.2968 67.5446C78.4863 67.5604 78.6677 67.6282 78.8211 67.7405C79.2527 68.0208 79.6119 68.3992 79.8691 68.8449C80.1264 69.2906 80.2744 69.7909 80.3012 70.3048C80.3219 70.4925 80.2896 70.6822 80.2081 70.8525C80.1266 71.0229 79.9991 71.167 79.84 71.2686L78.8831 71.864L78.0983 70.5182C77.8542 70.2199 77.66 69.884 77.5235 69.5235Z" fill="#37474F"/>
<path d="M77.8505 68.3395C77.0313 67.8645 76.3635 68.2431 76.3601 69.1862C76.3872 69.7005 76.5353 70.2012 76.7925 70.6474C77.0497 71.0936 77.4087 71.4728 77.8401 71.7539C78.6628 72.2255 79.3305 71.8469 79.334 70.9038C79.3057 70.3898 79.1567 69.8897 78.8989 69.4442C78.6412 68.9986 78.282 68.6202 77.8505 68.3395Z" fill="#455A64"/>
<path d="M82.8483 66.3638H85.6019V71.1137C85.5904 71.2354 85.5467 71.3518 85.4753 71.451C85.4039 71.5502 85.3074 71.6286 85.1957 71.6782C84.8936 71.8326 84.5592 71.9131 84.2199 71.9131C83.8806 71.9131 83.5462 71.8326 83.2441 71.6782C83.1337 71.6277 83.0386 71.5488 82.9685 71.4497C82.8983 71.3506 82.8557 71.2347 82.8448 71.1137L82.8483 66.3638Z" fill="#EBEBEB"/>
<path d="M92.8301 67.6958V68.8283L85.6053 70.6491V68.25L92.8301 67.6958Z" fill="#E0E0E0"/>
<path d="M92.8301 67.6958L92.3275 67.5237L85.6053 67.8783V68.25L92.8301 67.6958Z" fill="#F5F5F5"/>
<path d="M93.5529 77.9771L92.8094 76.7035L93.7766 76.0909C93.9465 76.0054 94.1367 75.9686 94.3261 75.9844C94.5156 76.0002 94.6971 76.068 94.8505 76.1803C95.2815 76.4612 95.6402 76.8398 95.8974 77.2854C96.1546 77.731 96.303 78.2309 96.3306 78.7446C96.3495 78.9326 96.3165 79.1222 96.2352 79.2927C96.1539 79.4633 96.0273 79.6082 95.8693 79.7118L94.9193 80.3142L94.1346 78.9718C93.8882 78.6738 93.6918 78.3379 93.5529 77.9771Z" fill="#37474F"/>
<path d="M93.8833 76.7792C93.0641 76.3042 92.3963 76.6828 92.3929 77.6259C92.4197 78.1398 92.5677 78.6401 92.825 79.0858C93.0822 79.5315 93.4413 79.91 93.873 80.1902C94.6956 80.6652 95.3634 80.2866 95.3668 79.3435C95.3386 78.8295 95.1895 78.3295 94.9317 77.8839C94.674 77.4384 94.3148 77.0599 93.8833 76.7792Z" fill="#455A64"/>
<path d="M83.9325 81.1987L84.6794 79.9217L83.7019 79.3091C83.532 79.2237 83.3418 79.1868 83.1523 79.2026C82.9628 79.2184 82.7814 79.2862 82.628 79.3986C82.1965 79.6792 81.8373 80.0577 81.5795 80.5033C81.3218 80.9488 81.1727 81.4489 81.1445 81.9628C81.1265 82.1506 81.1603 82.3397 81.2423 82.5096C81.3242 82.6795 81.4511 82.8237 81.6092 82.9266L82.5557 83.5324L83.3405 82.1866C83.5913 81.8925 83.7914 81.5586 83.9325 81.1987Z" fill="#37474F"/>
<path d="M83.6055 80.0147C84.4247 79.5397 85.0924 79.9218 85.0959 80.8614C85.0693 81.3763 84.9209 81.8774 84.663 82.3238C84.4052 82.7701 84.0451 83.149 83.6124 83.4292C82.7932 83.9007 82.1254 83.5221 82.122 82.579C82.1491 82.0648 82.2977 81.5643 82.5556 81.1186C82.8135 80.6729 83.1733 80.2946 83.6055 80.0147Z" fill="#455A64"/>
<path d="M73.5033 76.1941L74.2502 74.9206L73.283 74.3079C73.1131 74.2225 72.9229 74.1856 72.7334 74.2014C72.5439 74.2172 72.3625 74.285 72.2091 74.3974C71.7776 74.6781 71.4184 75.0565 71.1606 75.5021C70.9029 75.9476 70.7538 76.4477 70.7256 76.9617C70.707 77.15 70.7405 77.3398 70.8224 77.5104C70.9044 77.6809 71.0316 77.8257 71.1902 77.9289L72.1368 78.5312L72.9216 77.1888C73.1684 76.8912 73.3649 76.5552 73.5033 76.1941Z" fill="#37474F"/>
<path d="M73.1763 75.0135C73.9955 74.5385 74.6632 74.9171 74.6667 75.8602C74.6401 76.3746 74.4917 76.8753 74.2338 77.3211C73.9759 77.7669 73.6158 78.1451 73.1832 78.4245C72.364 78.8995 71.6962 78.5209 71.6928 77.5778C71.7194 77.0634 71.8677 76.5627 72.1256 76.1169C72.3836 75.6711 72.7436 75.2929 73.1763 75.0135Z" fill="#455A64"/>
<path d="M94.5648 75.2028V77.0339L84.8928 71.809V69.2791L94.5648 75.2028Z" fill="#E0E0E0"/>
<path d="M95.1259 74.8861L85.447 69.138L84.8928 69.2791L94.5648 75.2028L95.1259 74.8861Z" fill="#F5F5F5"/>
<path d="M95.1259 76.7207L94.5648 77.034V75.2028L95.1259 74.8861V76.7207Z" fill="#F0F0F0"/>
<path d="M84.2423 69.2791L83.0617 78.631V80.3004L84.2423 71.9122V69.2791Z" fill="#E0E0E0"/>
<path d="M83.0617 78.631H82.3802V80.3038H83.0617V78.631Z" fill="#F0F0F0"/>
<path d="M82.3802 78.631L83.4541 69.2791H84.2423L83.0617 78.631H82.3802Z" fill="#F5F5F5"/>
<path d="M72.7907 73.4439V75.2028L82.8483 71.1137V68.9659L72.7907 73.4439Z" fill="#E0E0E0"/>
<path d="M72.4018 74.9412L72.7908 75.2028V73.4439L72.4018 73.1927V74.9412Z" fill="#F0F0F0"/>
<path d="M73.9886 72.9139L72.7908 73.4439L72.4018 73.1927L82.8483 68.4875V68.9659L73.9886 72.9139Z" fill="#F5F5F5"/>
<path d="M77.7575 66.7389V67.8886L80.6901 69.4581L82.8482 68.4875V68.0159L77.7575 66.7389Z" fill="#E0E0E0"/>
<path d="M77.7575 66.7389L77.9881 66.646L82.8482 67.6958V68.0159L77.7575 66.7389Z" fill="#F5F5F5"/>
<path d="M81.9809 57.893H86.4934V65.6685C86.4728 65.8673 86.4002 66.0572 86.283 66.2191C86.1658 66.381 86.0081 66.5093 85.8256 66.5909C85.3319 66.8421 84.7859 66.973 84.232 66.973C83.6781 66.973 83.132 66.8421 82.6383 66.5909C82.4566 66.5096 82.2998 66.3812 82.1842 66.2191C82.0686 66.0569 81.9985 65.8668 81.9809 65.6685V57.893Z" fill="#E0E0E0"/>
<path d="M64.2064 45.3986C64.4208 45.0569 64.7149 44.7722 65.0634 44.569L66.75 43.7051C66.75 37.6919 65.862 38.2805 64.2064 35.9228C62.5508 33.565 65.0875 32.0987 67.0013 33.1451C67.0013 33.1451 77.6921 36.291 80.5214 33.5134C84.0392 30.0714 82.566 21.3562 82.1461 17.9487C81.7261 14.5411 82.1461 12.1833 83.0892 11.1886C84.0323 10.1938 85.3953 8.72411 89.8217 10.5587C89.8217 10.5587 101.755 15.7217 107.596 18.613C108.969 18.9008 110.239 19.5509 111.276 20.4957C111.571 20.7359 111.806 21.041 111.964 21.3872C112.039 21.5595 112.066 21.7487 112.043 21.9351C112.02 22.1215 111.948 22.2983 111.833 22.4473C111.652 22.6363 111.406 22.7495 111.145 22.764L103.772 50.0005C103.533 50.8817 103.111 51.7029 102.535 52.4114C101.959 53.1198 101.24 53.6997 100.427 54.1137L87.5225 60.6225C86.9071 60.933 86.2262 61.0916 85.537 61.085C84.8477 61.0784 84.1701 60.9068 83.5607 60.5847L65.1805 50.8197C63.3459 49.7733 63.1738 46.9647 64.2064 45.3986Z" fill="#37474F"/>
<path d="M64.2064 45.3986C64.4539 45.7785 64.7876 46.0946 65.1805 46.321L83.5607 56.0826C84.1695 56.4061 84.8472 56.5787 85.5366 56.5859C86.226 56.5931 86.907 56.4346 87.5225 56.1239L100.399 49.6013C101.213 49.1872 101.931 48.6074 102.507 47.8989C103.084 47.1905 103.505 46.3693 103.745 45.4881L109.94 22.5368L110.253 22.6332C110.516 22.7177 110.79 22.7584 111.066 22.7537H111.1L103.727 49.9902C103.488 50.8714 103.066 51.6926 102.49 52.4011C101.914 53.1095 101.196 53.6894 100.382 54.1034L87.5225 60.6225C86.9071 60.933 86.2263 61.0916 85.537 61.085C84.8477 61.0784 84.1701 60.9069 83.5607 60.5847L65.1805 50.8197C63.3459 49.7734 63.1738 46.9647 64.2064 45.3986Z" fill="#37474F"/>
<path d="M65.0635 44.569L78.3805 37.7367L95.9347 46.7616C95.3634 46.8993 94.7851 47.0128 94.2137 47.1299C92.7061 47.4328 91.1676 47.7666 89.8562 48.5721C88.5448 49.3775 87.4881 50.7577 87.4777 52.2963L87.9458 55.9138L87.5397 56.1238C86.9243 56.4346 86.2432 56.5931 85.5538 56.5859C84.8644 56.5787 84.1868 56.4061 83.578 56.0825L65.1805 46.3107C64.7876 46.0842 64.4539 45.7682 64.2064 45.3882C64.4221 45.0503 64.7161 44.7693 65.0635 44.569Z" fill="#455A64"/>
<path opacity="0.1" d="M65.0635 44.569L78.3805 37.7367L95.9347 46.7616C95.3634 46.8993 94.7851 47.0128 94.2137 47.1299C92.7061 47.4328 91.1676 47.7666 89.8562 48.5721C88.5448 49.3775 87.4881 50.7577 87.4777 52.2963L87.9458 55.9138L87.5397 56.1238C86.9243 56.4346 86.2432 56.5931 85.5538 56.5859C84.8644 56.5787 84.1868 56.4061 83.578 56.0825L65.1805 46.3107C64.7876 46.0842 64.4539 45.7682 64.2064 45.3882C64.4221 45.0503 64.7161 44.7693 65.0635 44.569Z" fill="black"/>
<path d="M67.0013 33.1451C67.0013 33.1451 77.6921 36.2911 80.5215 33.5134C84.0392 30.0714 82.566 21.3562 82.1461 17.9487C81.7262 14.5411 82.1461 12.1833 83.0892 11.1886C84.0323 10.1938 85.3953 8.72411 89.8217 10.5587C85.3471 12.8648 84.7654 23.8241 86.1801 28.223C82.6693 31.8371 82.9102 37.4338 82.8414 40.0325C82.8414 40.0325 73.7097 42.2629 68.9391 44.8857L67.0013 33.1451Z" fill="#455A64"/>
<path opacity="0.1" d="M67.0013 33.1451C67.0013 33.1451 77.6921 36.2911 80.5215 33.5134C84.0392 30.0714 82.566 21.3562 82.1461 17.9487C81.7262 14.5411 82.1461 12.1833 83.0892 11.1886C84.0323 10.1938 85.3953 8.72411 89.8217 10.5587C85.3471 12.8648 84.7654 23.8241 86.1801 28.223C82.6693 31.8371 82.9102 37.4338 82.8414 40.0325C82.8414 40.0325 73.7097 42.2629 68.9391 44.8857L67.0013 33.1451Z" fill="white"/>
<path d="M68.9392 44.8857L66.7501 43.7051C66.7501 37.6919 65.862 38.2805 64.2064 35.9228C62.5508 33.565 65.0876 32.0987 67.0013 33.1451C68.9151 34.1914 69.6861 37.3615 68.9392 44.8857Z" fill="#455A64"/>
<path opacity="0.2" d="M68.9392 44.8857L66.7501 43.7051C66.7501 37.6919 65.862 38.2805 64.2064 35.9228C62.5508 33.565 65.0876 32.0987 67.0013 33.1451C68.9151 34.1914 69.6861 37.3615 68.9392 44.8857Z" fill="white"/>
<path d="M89.8217 10.5587C89.8217 10.5587 101.8 15.7458 107.627 18.6302L107.204 20.7573L88.1042 12.0835C88.5532 11.4511 89.1406 10.9296 89.8217 10.5587Z" fill="#455A64"/>
<path opacity="0.1" d="M89.8217 10.5587C89.8217 10.5587 101.8 15.7458 107.627 18.6302L107.204 20.7573L88.1042 12.0835C88.5532 11.4511 89.1406 10.9296 89.8217 10.5587Z" fill="white"/>
<path d="M86.1801 28.223C84.972 24.4678 85.2198 15.9351 88.1042 12.0835L107.204 20.7573L102.839 42.6381L95.921 46.7685L82.8414 40.0394C82.9102 37.4338 82.6693 31.8543 86.1801 28.223Z" fill="#455A64"/>
<path d="M98.0034 32.6115C97.6798 32.4222 97.4148 32.5737 97.4148 32.9557C97.425 33.1587 97.4834 33.3564 97.5852 33.5324C97.6869 33.7083 97.8291 33.8576 98 33.9677C98.3235 34.157 98.5851 34.0055 98.5885 33.6235C98.5775 33.4207 98.5188 33.2233 98.4171 33.0475C98.3154 32.8716 98.1737 32.7223 98.0034 32.6115Z" fill="#455A64"/>
<path d="M95.0605 30.8733C94.7369 30.6875 94.4719 30.8355 94.4719 31.2175C94.4829 31.4208 94.5416 31.6187 94.6433 31.795C94.7449 31.9714 94.8867 32.1214 95.057 32.2329C95.3806 32.4188 95.6456 32.2673 95.6456 31.8887C95.6351 31.6853 95.5766 31.4873 95.4749 31.3108C95.3732 31.1343 95.2312 30.9844 95.0605 30.8733Z" fill="#455A64"/>
<path d="M92.09 29.1351C91.7665 28.9493 91.5049 29.1007 91.5014 29.4793C91.5125 29.6822 91.5712 29.8795 91.6729 30.0553C91.7746 30.2312 91.9163 30.3805 92.0866 30.4913C92.4101 30.6771 92.6752 30.5291 92.6752 30.1471C92.6644 29.9442 92.6058 29.7467 92.5041 29.5709C92.4024 29.395 92.2605 29.2457 92.09 29.1351Z" fill="#455A64"/>
<path d="M89.1368 27.4004C88.7926 27.2111 88.5482 27.3625 88.5448 27.7446C88.5558 27.9474 88.6146 28.1447 88.7162 28.3206C88.8179 28.4964 88.9596 28.6458 89.1299 28.7565C89.4741 28.9458 89.7185 28.7944 89.7185 28.4123C89.709 28.2095 89.6512 28.012 89.55 27.836C89.4489 27.66 89.3072 27.5107 89.1368 27.4004Z" fill="#455A64"/>
<g opacity="0.2">
<path opacity="0.2" d="M98.0034 32.6116C97.6798 32.4223 97.4148 32.5737 97.4148 32.9558C97.425 33.1588 97.4834 33.3565 97.5851 33.5324C97.6869 33.7084 97.8291 33.8576 97.9999 33.9677C98.3235 34.157 98.5851 34.0056 98.5885 33.6235C98.5775 33.4207 98.5187 33.2234 98.4171 33.0475C98.3154 32.8717 98.1736 32.7223 98.0034 32.6116Z" fill="white"/>
<path opacity="0.2" d="M95.0604 30.8734C94.7369 30.6875 94.4719 30.8355 94.4719 31.2176C94.4829 31.4209 94.5416 31.6187 94.6433 31.7951C94.7449 31.9715 94.8866 32.1215 95.057 32.233C95.3805 32.4188 95.6456 32.2674 95.6456 31.8888C95.6351 31.6854 95.5766 31.4873 95.4749 31.3108C95.3732 31.1344 95.2312 30.9845 95.0604 30.8734Z" fill="white"/>
<path opacity="0.2" d="M92.09 29.1352C91.7665 28.9493 91.5049 29.1007 91.5014 29.4794C91.5125 29.6822 91.5712 29.8795 91.6729 30.0554C91.7746 30.2312 91.9163 30.3806 92.0866 30.4913C92.4101 30.6772 92.6752 30.5292 92.6752 30.1471C92.6644 29.9442 92.6058 29.7468 92.5041 29.5709C92.4024 29.395 92.2605 29.2457 92.09 29.1352Z" fill="white"/>
<path opacity="0.2" d="M89.1368 27.4004C88.7926 27.2111 88.5482 27.3625 88.5448 27.7446C88.5558 27.9474 88.6146 28.1447 88.7162 28.3206C88.8179 28.4964 88.9596 28.6458 89.1299 28.7565C89.4741 28.9458 89.7185 28.7944 89.7185 28.4123C89.709 28.2095 89.6512 28.012 89.55 27.836C89.4489 27.66 89.3072 27.5107 89.1368 27.4004Z" fill="white"/>
</g>
<path d="M89.839 48.5721C91.1504 47.7667 92.6889 47.4328 94.1965 47.1299C94.7713 47.0129 95.3496 46.8993 95.9175 46.7616C96.8461 46.5572 97.7433 46.2296 98.5851 45.7875C100.698 44.6207 102.117 42.4385 102.798 40.122C103.48 37.8055 103.486 35.3514 103.349 32.942C103.211 30.5326 102.908 28.1232 102.981 25.7138C103.022 24.3095 103.235 22.8053 104.185 21.7727C105.135 20.7401 106.746 20.3753 108.178 20.568C108.645 20.6374 109.106 20.7468 109.555 20.895L110.191 21.635L109.947 22.5368L103.752 45.4881C103.317 47.0792 102.298 48.4475 100.898 49.319C100.736 49.4188 100.575 49.5152 100.406 49.6013L87.9287 55.9139L87.4605 52.2963C87.4881 50.7578 88.5207 49.3775 89.839 48.5721Z" fill="#37474F"/>
<path d="M89.8217 46.1042C94.3824 44.8065 98.8639 44.6379 100.513 41.3611C102.161 38.0843 102.289 33.5753 101.459 25.7035C101.352 24.6904 101.376 23.6676 101.531 22.6607C102.017 19.7213 103.786 18.4649 105.82 18.434C107.835 18.4028 109.786 19.1414 111.276 20.4992C111.571 20.7394 111.806 21.0445 111.964 21.3906C112.039 21.563 112.066 21.7521 112.043 21.9385C112.02 22.1249 111.948 22.3018 111.833 22.4508C111.652 22.6397 111.406 22.7529 111.145 22.7674H111.11C110.835 22.7721 110.56 22.7314 110.298 22.647L109.985 22.5506C109.427 22.375 108.88 22.1651 108.312 22.024C107.638 21.8257 106.921 21.8257 106.247 22.024C105.927 22.1481 105.641 22.3459 105.412 22.6012C105.183 22.8566 105.017 23.1623 104.929 23.4937C103.008 29.7753 105.445 36.5251 103.283 41.7122C101.514 46.4277 95.4012 48.3862 91.0884 49.7837C91.5075 49.6198 91.8774 49.3507 92.1623 49.0023C92.3775 48.6701 92.4779 48.2764 92.448 47.8817C92.4182 47.4869 92.2598 47.1128 91.9971 46.8167C91.722 46.5268 91.3792 46.31 90.9994 46.1856C90.6197 46.0612 90.215 46.0332 89.8217 46.1042Z" fill="#455A64"/>
<path opacity="0.1" d="M89.8217 46.1042C94.3824 44.8065 98.8639 44.6379 100.513 41.3611C102.161 38.0843 102.289 33.5753 101.459 25.7035C101.352 24.6904 101.376 23.6676 101.531 22.6607C102.017 19.7213 103.786 18.4649 105.82 18.434C107.835 18.4028 109.786 19.1414 111.276 20.4992C111.571 20.7394 111.806 21.0445 111.964 21.3906C112.039 21.563 112.066 21.7521 112.043 21.9385C112.02 22.1249 111.948 22.3018 111.833 22.4508C111.652 22.6397 111.406 22.7529 111.145 22.7674H111.11C110.835 22.7721 110.56 22.7314 110.298 22.647L109.985 22.5506C109.427 22.375 108.88 22.1651 108.312 22.024C107.638 21.8257 106.921 21.8257 106.247 22.024C105.927 22.1481 105.641 22.3459 105.412 22.6012C105.183 22.8566 105.017 23.1623 104.929 23.4937C103.008 29.7753 105.445 36.5251 103.283 41.7122C101.514 46.4277 95.4012 48.3862 91.0884 49.7837C91.5075 49.6198 91.8774 49.3507 92.1623 49.0023C92.3775 48.6701 92.4779 48.2764 92.448 47.8817C92.4182 47.4869 92.2598 47.1128 91.9971 46.8167C91.722 46.5268 91.3792 46.31 90.9994 46.1856C90.6197 46.0612 90.215 46.0332 89.8217 46.1042Z" fill="white"/>
<path d="M86.6586 49.3328C86.9259 48.5887 87.3208 47.8969 87.8254 47.2882C88.3372 46.6784 89.0412 46.2609 89.8218 46.1042C90.2104 46.0332 90.6104 46.0589 90.9868 46.1789C91.3631 46.299 91.7042 46.5097 91.9799 46.7926C92.2426 47.0887 92.401 47.4628 92.4308 47.8576C92.4607 48.2523 92.3603 48.646 92.1451 48.9782C91.8602 49.3266 91.4904 49.5957 91.0712 49.7596C90.7273 49.906 90.3917 50.0715 90.0661 50.2552C89.2162 50.8307 88.6046 51.6956 88.3451 52.6887C88.0915 53.6741 87.9574 54.6865 87.9459 55.7039L87.9287 55.9001L85.7946 54.7161C85.7013 52.8809 85.9956 51.0466 86.6586 49.3328Z" fill="#455A64"/>
<path opacity="0.2" d="M86.6586 49.3328C86.9259 48.5887 87.3208 47.8969 87.8254 47.2882C88.3372 46.6784 89.0412 46.2609 89.8218 46.1042C90.2104 46.0332 90.6104 46.0589 90.9868 46.1789C91.3631 46.299 91.7042 46.5097 91.9799 46.7926C92.2426 47.0887 92.401 47.4628 92.4308 47.8576C92.4607 48.2523 92.3603 48.646 92.1451 48.9782C91.8602 49.3266 91.4904 49.5957 91.0712 49.7596C90.7273 49.906 90.3917 50.0715 90.0661 50.2552C89.2162 50.8307 88.6046 51.6956 88.3451 52.6887C88.0915 53.6741 87.9574 54.6865 87.9459 55.7039L87.9287 55.9001L85.7946 54.7161C85.7013 52.8809 85.9956 51.0466 86.6586 49.3328Z" fill="white"/>
<path opacity="0.2" d="M83.9669 18.7747C88.6893 19.5561 90.0042 21.4629 90.5067 23.0118L86.0803 26.1716L81.3682 20.1206L83.9669 18.7747Z" fill="black"/>
<path opacity="0.2" d="M110.161 29.3933L108.532 28.0681C108.638 28.395 108.831 28.6871 109.09 28.9132C109.349 29.1392 109.664 29.2909 110.002 29.352L110.161 29.3933Z" fill="black"/>
<path opacity="0.2" d="M97.5077 31.5342L95.4425 32.9385L96.7161 30.715L97.5077 31.5342Z" fill="black"/>
<path opacity="0.2" d="M92.9712 40.208C91.7038 40.2037 90.4406 40.3528 89.2091 40.652C90.0601 39.6701 91.126 38.8974 92.3241 38.3941L92.9712 40.208Z" fill="black"/>
<path d="M78.859 58.0479C80.9655 57.1392 83.8327 55.6213 84.9169 53.5974C86.0011 51.5735 85.8944 47.8734 85.4814 45.6154L68.533 40.9171C68.0236 45.8322 63.5077 49.0505 63.5077 49.0505L78.859 58.0479Z" fill="#263238"/>
<path d="M55.1952 27.0011L53.5913 25.8136C53.0936 25.4442 52.7154 24.9367 52.5036 24.3542L52.125 23.3216C51.8602 22.6076 51.3939 21.9859 50.7826 21.5318C49.8668 20.8518 49.041 20.0584 48.325 19.1705C48.0946 19.4221 47.9581 19.7455 47.9386 20.086C47.9192 20.4266 48.018 20.7634 48.2183 21.0396C48.5177 21.4369 48.8455 21.8119 49.1993 22.1616L48.3147 22.2236C47.6785 22.2685 47.0443 22.1132 46.5008 21.7796L44.26 20.4028C44.197 20.3635 44.1248 20.3415 44.0506 20.3389C43.9764 20.3364 43.9028 20.3534 43.8372 20.3883C43.7716 20.4231 43.7164 20.4746 43.6771 20.5376C43.6377 20.6006 43.6156 20.6728 43.6129 20.747C43.6409 21.8569 43.8598 22.9537 44.26 23.9893C44.4396 24.4824 44.7235 24.9308 45.0924 25.3038C45.4614 25.6769 45.9065 25.9659 46.3975 26.1509C47.585 26.6053 48.7415 27.0011 49.4024 27.2214C49.78 27.3473 50.1355 27.532 50.4556 27.7687L52.8065 29.5206L55.1952 27.0011Z" fill="#FFA8A7"/>
<path d="M53.4536 25.4556L55.4775 26.7601C55.4134 27.5137 55.1341 28.233 54.6727 28.8322C54.2114 29.4315 53.5875 29.8855 52.8754 30.1402L51.0201 28.3848C51.0201 28.3848 52.8065 28.1094 53.4536 25.4556Z" fill="#3E63F6"/>
<path opacity="0.6" d="M53.4536 25.4556L55.4775 26.7601C55.4134 27.5137 55.1341 28.233 54.6727 28.8322C54.2114 29.4315 53.5875 29.8855 52.8754 30.1402L51.0201 28.3848C51.0201 28.3848 52.8065 28.1094 53.4536 25.4556Z" fill="white"/>
<path d="M54.7237 28.7565C55.1495 28.1707 55.4098 27.4812 55.4775 26.7601L61.8039 30.8389L65.535 20.3959C65.7792 19.7119 66.2077 19.1088 66.7732 18.6532C67.3388 18.1977 68.0193 17.9073 68.7395 17.8144L70.5638 17.5803L68.86 29.8063L65.9515 35.6405C65.6914 36.1623 65.317 36.6187 64.8561 36.9759C64.3953 37.333 63.8599 37.5817 63.2897 37.7034C62.7195 37.8251 62.1292 37.8167 61.5627 37.6789C60.9962 37.541 60.468 37.2772 60.0175 36.9071L52.8719 30.1333C53.6101 29.8645 54.2537 29.386 54.7237 28.7565Z" fill="#3E63F6"/>
<path opacity="0.4" d="M54.7237 28.7565C55.1495 28.1707 55.4098 27.4812 55.4775 26.7601L61.8039 30.8389L65.535 20.3959C65.7792 19.7119 66.2077 19.1088 66.7732 18.6532C67.3388 18.1977 68.0193 17.9073 68.7395 17.8144L70.5638 17.5803L68.86 29.8063L65.9515 35.6405C65.6914 36.1623 65.317 36.6187 64.8561 36.9759C64.3953 37.333 63.8599 37.5817 63.2897 37.7034C62.7195 37.8251 62.1292 37.8167 61.5627 37.6789C60.9962 37.541 60.468 37.2772 60.0175 36.9071L52.8719 30.1333C53.6101 29.8645 54.2537 29.386 54.7237 28.7565Z" fill="white"/>
<path opacity="0.2" d="M61.8004 30.8389L64.1961 32.6356L62.4648 28.9768L61.8004 30.8389Z" fill="black"/>
<path d="M73.9266 17.2224L70.5604 17.5666C67.8068 20.0001 66.3783 25.1011 66.9704 30.7357C67.3337 34.6012 67.4728 38.4846 67.3868 42.3662C74.8594 47.8252 84.2939 46.7892 85.4814 45.6017L84.9272 35.7507C84.866 34.9728 84.996 34.1917 85.3059 33.4755C85.9943 31.8371 87.2712 28.6085 87.4399 26.1096C87.5381 23.8818 87.0641 21.6659 86.0631 19.6731L81.1686 17.5356L73.9266 17.2224Z" fill="#3E63F6"/>
<g opacity="0.5">
<path opacity="0.5" d="M73.9266 17.2224L70.5604 17.5666C67.8068 20.0001 66.3783 25.1011 66.9704 30.7357C67.3337 34.6012 67.4728 38.4846 67.3868 42.3662C74.8594 47.8252 84.2939 46.7892 85.4814 45.6017L84.9272 35.7507C84.866 34.9728 84.996 34.1917 85.3059 33.4755C85.9943 31.8371 87.2712 28.6085 87.4399 26.1096C87.5381 23.8818 87.0641 21.6659 86.0631 19.6731L81.1686 17.5356L73.9266 17.2224Z" fill="white"/>
</g>
<path d="M72.9904 22.1341C70.1748 28.6154 70.2196 35.2894 70.2196 35.2894L71.5964 38.2702L73.7717 35.4237C73.603 31.0567 73.6904 26.6836 74.0333 22.3269L72.9904 22.1341Z" fill="#3E63F6"/>
<path d="M72.8734 19.6869C72.8142 20.5044 72.8535 21.326 72.9904 22.1341C73.316 22.2936 73.6792 22.3603 74.0402 22.3269C74.7016 21.7395 75.2682 21.0533 75.7199 20.2927L74.0402 19.6869H72.8734Z" fill="#3E63F6"/>
<path d="M74.0402 19.6868C75.4893 20.2204 76.7938 22.7846 76.7938 22.7846C80.6006 19.5492 81.1927 17.5322 81.1927 17.5322C80.6986 16.7781 80.0738 16.1184 79.3477 15.584L74.0402 19.6868Z" fill="#3E63F6"/>
<path d="M74.0402 19.6869C72.9319 19.7144 71.9543 21.2599 71.9543 21.2599C71.7753 18.5579 74.0402 16.4824 74.0402 16.4824V19.6869Z" fill="#3E63F6"/>
<g opacity="0.35">
<path opacity="0.35" d="M74.0402 19.6868C75.4893 20.2203 76.7938 22.7846 76.7938 22.7846C80.6007 19.5491 81.1927 17.5321 81.1927 17.5321C80.6986 16.7781 80.0738 16.1184 79.3478 15.584L74.0402 19.6868Z" fill="white"/>
<path opacity="0.35" d="M74.0402 19.6868C72.9319 19.7144 71.9544 21.2598 71.9544 21.2598C71.7754 18.5579 74.0402 16.4823 74.0402 16.4823V19.6868Z" fill="white"/>
</g>
<path d="M81.1824 4.71763C80.6945 4.14454 80.0089 3.77594 79.2617 3.68503L69.2455 4.62813C68.089 7.11325 69.0115 8.75853 69.0115 8.75853C68.8566 12.5447 68.7258 14.9541 70.3676 15.7561C71.2625 16.1932 72.6256 16.3791 74.0299 16.2724C75.1984 16.2014 76.3402 15.8934 77.3858 15.3672L77.4375 15.3396C77.8013 15.1426 78.1182 14.8693 78.3665 14.5384C78.6149 14.2075 78.7887 13.8268 78.8762 13.4224C79.0442 12.6847 79.1592 11.9359 79.2204 11.1817C79.2368 10.7522 79.2828 10.3244 79.3581 9.90127C79.4365 9.47838 79.6321 9.086 79.9226 8.76885C80.0671 8.61284 80.2482 8.49528 80.4495 8.42677C80.6508 8.35827 80.866 8.34098 81.0757 8.37646C81.1475 8.39411 81.2169 8.42071 81.2822 8.45563C81.5644 6.76561 81.6367 5.30621 81.1824 4.71763Z" fill="#37474F"/>
<path d="M77.5063 5.00672C77.3339 5.7141 77.3808 6.45716 77.6405 7.13731C77.8998 7.81033 78.1125 8.50035 78.2773 9.20251C78.4062 9.9106 78.3099 10.6413 78.0019 11.2918C77.8463 11.611 77.6226 11.8922 77.3467 12.1158C77.0708 12.3394 76.7493 12.4999 76.4048 12.586C75.3275 12.8166 74.2742 12.1798 73.1969 11.9664C72.1584 11.7833 71.0887 11.9748 70.1783 12.5068C70.1012 12.5534 70.0134 12.5792 69.9234 12.5817C69.8334 12.5842 69.7443 12.5632 69.6648 12.5209C69.5854 12.4785 69.5182 12.4163 69.4701 12.3402C69.4219 12.2641 69.3943 12.1768 69.3901 12.0869C69.2627 9.90468 69.2627 6.48333 69.5828 4.87936L77.5063 5.00672Z" fill="#FFA8A7"/>
<path d="M79.4063 12.2693C79.4063 12.2693 79.4063 13.1539 79.365 14.2106C79.8132 13.8226 80.1375 13.3116 80.2978 12.7409C79.9517 12.7021 79.6331 12.5336 79.4063 12.2693Z" fill="#37474F"/>
<path d="M69.7549 3.03104L68.5089 2.15333C68.3797 2.57571 68.3558 3.02326 68.4392 3.45701C68.5226 3.89075 68.7108 4.29753 68.9874 4.6419C69.553 5.31121 70.3258 5.77271 71.1834 5.9533C72.0323 6.12773 72.9033 6.16838 73.7649 6.07377C75.0272 5.96896 76.276 5.73835 77.4925 5.38537C78.0457 5.26988 78.5544 4.99881 78.9588 4.60403C79.2128 4.27466 79.3568 3.87374 79.3704 3.45802C79.384 3.04229 79.2665 2.63283 79.0345 2.28757C78.797 1.94967 78.4897 1.66667 78.1334 1.45766C77.7772 1.24865 77.3802 1.1185 76.9693 1.07599C76.1368 1.00844 75.2987 1.07586 74.4877 1.27562C73.6777 1.47552 72.8397 1.53604 72.0094 1.4546C71.5923 1.40969 71.1923 1.26404 70.8439 1.0302C70.4955 0.796346 70.2092 0.481311 70.0096 0.112228C69.3143 1.26185 69.7549 3.03104 69.7549 3.03104Z" fill="#37474F"/>
<path d="M72.9009 8.87552L71.0732 11.1197L72.7494 11.722L72.9009 8.87552Z" fill="#F28F8F"/>
<path d="M74.2846 12.8373L72.8733 13.2779C72.9606 13.4462 73.1011 13.581 73.2729 13.6613C73.4447 13.7416 73.6382 13.7629 73.8233 13.7219C73.9888 13.6482 74.1245 13.5206 74.2082 13.36C74.292 13.1994 74.3189 13.0151 74.2846 12.8373Z" fill="#F28F8F"/>
<path opacity="0.3" d="M74.2846 12.8373L72.8733 13.2779C72.9606 13.4462 73.1011 13.581 73.2729 13.6613C73.4447 13.7416 73.6382 13.7629 73.8233 13.7219C73.9888 13.6482 74.1245 13.5206 74.2082 13.36C74.292 13.1994 74.3189 13.0151 74.2846 12.8373Z" fill="black"/>
<path d="M73.3759 13.6943C73.523 13.7511 73.6842 13.7607 73.8371 13.7219C73.9686 13.6711 74.0823 13.5826 74.1637 13.4675C74.2452 13.3523 74.2908 13.2157 74.2949 13.0748C74.1071 13.0445 73.9146 13.081 73.751 13.178C73.6573 13.2348 73.5758 13.3097 73.5114 13.3983C73.4469 13.487 73.4009 13.5876 73.3759 13.6943Z" fill="#F28F8F"/>
<path d="M75.386 9.36773C75.3791 9.46651 75.3432 9.56104 75.2827 9.63945C75.2222 9.71787 75.14 9.77668 75.0462 9.8085C74.9524 9.84032 74.8514 9.84373 74.7557 9.81831C74.66 9.79288 74.5739 9.73975 74.5083 9.66559C74.4427 9.59143 74.4005 9.49953 74.3869 9.40145C74.3734 9.30337 74.3891 9.20347 74.4321 9.11428C74.4751 9.0251 74.5435 8.95062 74.6287 8.90018C74.7139 8.84974 74.8121 8.8256 74.911 8.83078C74.9777 8.83428 75.0429 8.85101 75.1031 8.88001C75.1632 8.909 75.2169 8.94968 75.2611 8.99966C75.3053 9.04965 75.3391 9.10794 75.3606 9.17113C75.382 9.23433 75.3907 9.30116 75.386 9.36773Z" fill="#263238"/>
<path d="M71.1868 8.97193C71.1806 9.0709 71.1452 9.16581 71.0851 9.24471C71.025 9.32361 70.9429 9.38296 70.8492 9.41531C70.7554 9.44765 70.6542 9.45152 70.5582 9.42645C70.4623 9.40138 70.3759 9.34848 70.3099 9.27441C70.244 9.20034 70.2014 9.10841 70.1876 9.01021C70.1738 8.912 70.1894 8.81191 70.2324 8.72253C70.2753 8.63314 70.3438 8.55847 70.4291 8.50792C70.5144 8.45736 70.6128 8.43318 70.7118 8.43841C70.8455 8.4464 70.9705 8.50703 71.0595 8.60703C71.1486 8.70703 71.1943 8.83825 71.1868 8.97193Z" fill="#263238"/>
<path d="M70.8047 6.92047L69.6517 7.63985C69.6112 7.49791 69.6145 7.34706 69.6612 7.20705C69.7079 7.06703 69.7957 6.94435 69.9132 6.85507C70.0527 6.78013 70.2106 6.74648 70.3685 6.75806C70.5264 6.76964 70.6777 6.82598 70.8047 6.92047Z" fill="#263238"/>
<path d="M75.0969 7.09603C75.4411 7.37483 75.8128 7.65363 76.1673 7.93587C76.2237 7.79861 76.2371 7.64748 76.2058 7.50244C76.1745 7.3574 76.0998 7.22529 75.9918 7.12356C75.8604 7.03503 75.7067 6.98546 75.5483 6.98059C75.39 6.97572 75.2335 7.01574 75.0969 7.09603Z" fill="#263238"/>
<path d="M81.9809 9.18876C81.8499 8.86685 81.6048 8.60457 81.2925 8.45218C81.2272 8.41725 81.1578 8.39066 81.086 8.37301C80.8763 8.33752 80.6611 8.35482 80.4598 8.42332C80.2585 8.49183 80.0774 8.60939 79.9329 8.7654C79.6424 9.08254 79.4468 9.47492 79.3684 9.89782C79.2931 10.3209 79.2471 10.7488 79.2307 11.1782C79.1729 11.951 79.0578 12.7183 78.8865 13.4741C78.796 13.8687 78.6215 14.2393 78.375 14.5606C78.1286 14.8819 77.8158 15.1464 77.4581 15.3362L77.4099 15.3637C76.3642 15.89 75.2224 16.198 74.054 16.269V19.6869L78.7902 16.8816C78.9584 16.7825 79.0984 16.6419 79.1967 16.4731C79.2949 16.3043 79.3481 16.1131 79.3512 15.9179C79.3512 15.3706 79.3753 14.7682 79.3891 14.1969C79.4131 13.1402 79.4304 12.2556 79.4304 12.2556C79.6572 12.5199 79.9757 12.6884 80.3218 12.7271C80.4779 12.7506 80.6371 12.7424 80.79 12.703C81.0136 12.6293 81.2202 12.5116 81.3975 12.3567C81.5749 12.2018 81.7194 12.0129 81.8225 11.8012C82.0335 11.3719 82.1508 10.9026 82.1667 10.4244C82.1972 10.0039 82.1337 9.58178 81.9809 9.18876Z" fill="#FFA8A7"/>
<path opacity="0.2" d="M78.057 15.2949C78.3375 14.9304 78.537 14.5103 78.6421 14.0627C78.3835 14.6049 77.9592 15.0509 77.4305 15.3362L77.3824 15.3637C76.3367 15.89 75.1949 16.198 74.0264 16.269V17.1398C74.7021 17.0804 75.368 16.9383 76.009 16.7164C76.8132 16.4474 77.5237 15.9542 78.057 15.2949Z" fill="black"/>
<path d="M36.1232 84.5513C37.0904 85.5667 38.5567 85.9969 39.9575 85.9625C41.3615 85.8664 42.7365 85.5166 44.0157 84.9299C45.3133 84.3964 46.9414 82.906 48.3422 82.9335C49.7143 82.9225 51.0844 82.8282 52.4451 82.6513C52.4959 80.782 52.3003 78.9141 51.8634 77.0959L45.3236 76.9204C43.5579 79.3298 40.1193 81.3571 37.5172 82.1143C37.1168 82.2269 36.7548 82.4467 36.4703 82.75C36.1858 83.0533 35.9896 83.4286 35.9029 83.8353C35.9012 83.849 35.9012 83.8629 35.9029 83.8766C35.9474 84.11 36.0214 84.3367 36.1232 84.5513Z" fill="#455A64"/>
<path d="M48.3422 82.9404C46.9414 82.9129 45.3133 84.4032 44.0157 84.9368C42.7365 85.5234 41.3615 85.8733 39.9575 85.9694C38.5567 86.0038 37.0904 85.5735 36.1232 84.5581C36.0196 84.346 35.9432 84.1217 35.896 83.8904C35.8943 83.8767 35.8943 83.8628 35.896 83.8491C35.8336 84.1372 35.8336 84.4353 35.896 84.7234C35.9436 84.9534 36.0199 85.1766 36.1232 85.3877C37.0904 86.403 38.5567 86.8333 39.9575 86.7989C41.3618 86.7045 42.7371 86.3546 44.0157 85.7663C45.3133 85.2328 46.9414 83.7389 48.3422 83.7665C49.6929 83.7769 51.0427 83.6987 52.3831 83.5324C52.413 83.241 52.4336 82.9484 52.4451 82.6547C51.0845 82.8328 49.7144 82.9282 48.3422 82.9404Z" fill="#263238"/>
<path d="M66.8361 86.6027C66.8382 87.2696 66.7724 87.935 66.6399 88.5887C66.4283 89.7521 65.7777 90.7897 64.8225 91.4868C63.9827 92.0376 62.9432 92.1925 61.9381 92.2544C61.0488 92.3483 60.1497 92.2556 59.2981 91.9825C58.6539 91.7501 58.1086 91.3043 57.7527 90.7193C57.7527 90.7193 57.7527 90.7434 57.7527 90.7537C57.8761 91.1833 58.1024 91.5765 58.4118 91.8991C58.7213 92.2217 59.1046 92.4642 59.5287 92.6055C60.38 92.8799 61.2794 92.9726 62.1687 92.8774C63.1738 92.8155 64.2133 92.664 65.0531 92.1098C66.0093 91.4137 66.6603 90.3756 66.8705 89.2117C67.0064 88.5586 67.0722 87.8928 67.0667 87.2257C67.0701 86.7699 67.1664 86.3195 67.3499 85.9023C67.5334 85.485 67.8001 85.1096 68.1337 84.799C68.2955 84.6442 68.4538 84.4858 68.5984 84.3206C68.7004 84.2019 68.7779 84.0641 68.8264 83.9152C68.8748 83.7663 68.8933 83.6093 68.8806 83.4532C68.8806 83.3293 68.8565 83.2088 68.8428 83.0918C68.6018 83.3706 68.0373 84.0418 67.8928 84.176C67.5609 84.4874 67.296 84.8632 67.1143 85.2804C66.9326 85.6977 66.8379 86.1476 66.8361 86.6027Z" fill="#263238"/>
<path d="M61.828 79.698C62.0464 81.0615 61.8696 82.459 61.3186 83.7252C60.769 84.9835 60.0523 86.1621 59.188 87.2291C58.7629 87.7332 58.3892 88.2786 58.0728 88.8572C57.7599 89.4293 57.6484 90.0899 57.7561 90.7331C58.1121 91.3181 58.6574 91.7638 59.3016 91.9963C60.1531 92.2694 61.0523 92.362 61.9416 92.2682C62.9467 92.2062 63.9861 92.0513 64.826 91.5006C65.7811 90.8035 66.4318 89.7659 66.6434 88.6025C66.7759 87.9488 66.8416 87.2834 66.8396 86.6164C66.8399 86.1579 66.9345 85.7044 67.1175 85.284C67.3004 84.8636 67.5679 84.4853 67.9031 84.1726C68.0477 84.0384 68.6122 83.3672 68.8531 83.0884C68.7204 82.0942 68.3866 81.1373 67.8722 80.2763L61.828 79.698Z" fill="#455A64"/>
<path d="M55.6496 68.0125C54.8408 71.4338 54.2935 73.5851 52.8065 78.1801C52.8065 78.1801 47.0515 79.4124 44.7832 77.1682L47.3751 64.6531L55.6496 68.0125Z" fill="#263238"/>
<path d="M69.6723 68.9934C69.452 72.5008 69.5828 75.664 68.8944 80.4449C68.8944 80.4449 63.993 82.073 61.3771 80.2453L60.9468 71.8847L69.6723 68.9934Z" fill="#263238"/>
<path d="M12.1841 45.2643V75.6847L13.258 75.0617V44.6447L12.1841 45.2643Z" fill="#455A64"/>
<path d="M12.1841 45.2643V75.6847L11.1067 75.0617V44.6447L12.1841 45.2643Z" fill="#37474F"/>
<path d="M13.258 53.3771L38.4327 38.8415V37.6885L13.258 52.2206V53.3771Z" fill="#455A64"/>
<path d="M13.258 51.0021L37.3554 37.0655L38.4327 37.6885L13.258 52.2206V51.0021Z" fill="#37474F"/>
<path d="M88.1627 58.8533V89.2702L89.24 88.6507V58.2303L88.1627 58.8533Z" fill="#455A64"/>
<path d="M88.1627 58.8533V89.2702L87.0888 88.6507V58.2303L88.1627 58.8533Z" fill="#37474F"/>
<path d="M61.9141 74.0153V104.432L62.988 103.809V73.3923L61.9141 74.0153Z" fill="#455A64"/>
<path d="M61.9141 74.0153V104.432L60.8367 103.809V73.3923L61.9141 74.0153Z" fill="#37474F"/>
<path d="M62.9879 82.1246L88.1627 67.5925V66.436L62.9879 80.9681V82.1246Z" fill="#455A64"/>
<path d="M62.9879 79.7497L87.0888 65.8165L88.1627 66.4361L62.9879 80.9682V79.7497Z" fill="#37474F"/>
<g opacity="0.2">
<path opacity="0.2" d="M88.1627 58.8533V89.2702L89.2401 88.6507V58.2303L88.1627 58.8533Z" fill="white"/>
<path opacity="0.2" d="M88.1627 58.8533V89.2702L87.0888 88.6507V58.2303L88.1627 58.8533Z" fill="white"/>
<path opacity="0.2" d="M61.9141 74.0153V104.432L62.988 103.809V73.3923L61.9141 74.0153Z" fill="white"/>
<path opacity="0.2" d="M61.9141 74.0153V104.432L60.8367 103.809V73.3923L61.9141 74.0153Z" fill="white"/>
<path opacity="0.2" d="M62.988 82.1246L88.1627 67.5925V66.436L62.988 80.9681V82.1246Z" fill="white"/>
<path opacity="0.2" d="M62.988 79.7497L87.0888 65.8165L88.1627 66.4361L62.988 80.9682V79.7497Z" fill="white"/>
</g>
<g opacity="0.2">
<path opacity="0.2" d="M12.1841 45.2643V75.6847L13.258 75.0617V44.6448L12.1841 45.2643Z" fill="white"/>
<path opacity="0.2" d="M12.1841 45.2643V75.6847L11.1067 75.0617V44.6448L12.1841 45.2643Z" fill="white"/>
<path opacity="0.2" d="M13.258 53.3771L38.4327 38.8416V37.6885L13.258 52.2206V53.3771Z" fill="white"/>
<path opacity="0.2" d="M13.258 51.0021L37.3554 37.0655L38.4327 37.6885L13.258 52.2206V51.0021Z" fill="white"/>
</g>
<path d="M61.914 71.0759L11.1067 41.7948L38.4293 26.0132L89.2401 55.2943L61.914 71.0759Z" fill="#3E63F6"/>
<path d="M61.914 74.0153L11.1067 44.6447V41.7948L61.914 71.0758V74.0153Z" fill="#3E63F6"/>
<path d="M61.9141 71.0724L89.2401 55.2908V58.2303L61.9141 74.0153V71.0724Z" fill="#3E63F6"/>
<path opacity="0.3" d="M61.914 71.0759L11.1067 41.7948L38.4293 26.0132L89.2401 55.2943L61.914 71.0759Z" fill="white"/>
<path opacity="0.1" d="M61.9141 71.0724L89.2401 55.2908V58.2303L61.9141 74.0153V71.0724Z" fill="white"/>
<path opacity="0.2" d="M61.914 74.0153L11.1067 44.6447V41.7948L61.914 71.0758V74.0153Z" fill="white"/>
<path opacity="0.2" d="M38.4293 26.0132L89.2366 55.2943L89.2401 55.2909V58.2303L61.914 74.0153L11.1067 44.6448V41.7948L38.4293 26.0132Z" fill="black"/>
<path d="M40.9798 32.9798L36.9045 41.8877L26.2687 40.239L30.344 31.3311L40.9798 32.9798Z" fill="#E6E6E6"/>
<path d="M44.9725 34.7043L35.7652 42.2147L26.7885 38.5146L35.9958 31.0076L44.9725 34.7043Z" fill="#F0F0F0"/>
<path d="M46.8587 32.1951L52.3763 37.7195L38.6014 42.318L33.0804 36.797L46.8587 32.1951Z" fill="white"/>
<path d="M39.7442 47.9043L57.6116 58.2303L57.6838 58.2648H57.7217C57.7676 58.2821 57.8148 58.296 57.8628 58.3061L57.9592 58.3267H58.028H58.2036H58.386L58.503 58.3061L58.6476 58.2682C58.69 58.2537 58.7314 58.2364 58.7715 58.2166L64.5196 54.8744L46.0637 44.2042L39.7442 47.9043Z" fill="#37474F"/>
<path d="M56.7442 45.0647L53.3813 47.0439C53.3308 47.0745 53.2889 47.1177 53.2599 47.1693C53.2309 47.2208 53.2157 47.279 53.2157 47.3381C53.2157 47.3973 53.2309 47.4555 53.2599 47.507C53.2889 47.5586 53.3308 47.6018 53.3813 47.6324L58.4067 50.534C58.4924 50.5839 58.5897 50.6102 58.6889 50.6102C58.7881 50.6102 58.8854 50.5839 58.9711 50.534L62.3305 48.5583C62.3811 48.5276 62.4229 48.4844 62.452 48.4329C62.481 48.3814 62.4962 48.3232 62.4962 48.264C62.4962 48.2049 62.481 48.1467 62.452 48.0952C62.4229 48.0436 62.3811 48.0004 62.3305 47.9698L57.3018 45.0682C57.2171 45.0193 57.1212 44.9934 57.0234 44.9928C56.9257 44.9922 56.8295 45.017 56.7442 45.0647Z" fill="#37474F"/>
<path d="M35.6516 34.2637L36.0922 34.0434C36.1709 34.0094 36.2565 33.9945 36.342 33.9999C36.4275 34.0053 36.5106 34.0308 36.5844 34.0744L55.1058 44.841C55.3924 45.009 55.6383 45.2385 55.8257 45.5128C56.0132 45.7872 56.1376 46.0996 56.19 46.4277L58.0934 58.5367C58.1128 58.6546 58.093 58.7757 58.0371 58.8814C57.9811 58.9871 57.8921 59.0715 57.7836 59.1218L57.3568 59.3318C57.2797 59.3614 57.1969 59.3731 57.1146 59.3659C57.0323 59.3588 56.9527 59.333 56.8818 59.2905L38.3605 48.5239C38.0727 48.3572 37.826 48.1281 37.6384 47.8535C37.4507 47.5789 37.327 47.2658 37.2762 46.9371L35.3694 34.8316C35.3526 34.7195 35.3707 34.6049 35.4212 34.5033C35.4717 34.4018 35.5521 34.3181 35.6516 34.2637Z" fill="#455A64"/>
<path d="M45.7539 45.3332C46.2233 45.628 46.6281 46.0148 46.944 46.4703C47.2599 46.9258 47.4803 47.4405 47.5919 47.9835C47.7124 48.9266 47.0859 49.2777 46.191 48.7579C45.7211 48.4645 45.3158 48.0786 44.9998 47.6235C44.6838 47.1685 44.4637 46.6539 44.353 46.111C44.2325 45.1679 44.859 44.8203 45.7539 45.3332Z" fill="white"/>
<path opacity="0.3" d="M57.7183 58.7019L55.8217 46.6067C55.7687 46.2784 55.6437 45.9658 55.4556 45.6915C55.2676 45.4172 55.0212 45.1878 54.7341 45.02L36.2024 34.2637C36.1186 34.2137 36.0228 34.1873 35.9253 34.1873C35.8277 34.1873 35.732 34.2137 35.6482 34.2637L36.0888 34.0434C36.1674 34.0094 36.253 33.9945 36.3386 33.9999C36.4241 34.0053 36.5072 34.0308 36.581 34.0744L55.1024 44.841C55.389 45.009 55.6349 45.2385 55.8223 45.5128C56.0098 45.7872 56.1342 46.0996 56.1866 46.4277L58.09 58.5367C58.1094 58.6546 58.0896 58.7757 58.0336 58.8814C57.9777 58.9871 57.8887 59.0715 57.7802 59.1218L57.3534 59.3318C57.4796 59.2879 57.5858 59.2002 57.6528 59.0846C57.7198 58.969 57.743 58.8332 57.7183 58.7019Z" fill="black"/>
<path d="M86.0734 19.6869L79.007 38.6178L67.3834 43.1303C66.7912 43.3746 66.1494 43.4749 65.5109 43.4229L62.389 42.8687C61.9472 42.8308 61.5048 42.9345 61.1258 43.1647L58.9711 44.4692C58.7541 44.5997 58.5609 44.7662 58.3997 44.9614L57.3431 46.2109C57.2728 46.2944 57.2206 46.3915 57.1896 46.4962C57.1587 46.6008 57.1498 46.7107 57.1633 46.819C57.1769 46.9273 57.2127 47.0316 57.2685 47.1254C57.3243 47.2191 57.3989 47.3004 57.4876 47.3639L58.1519 47.8389C58.5025 48.0893 58.9149 48.2389 59.3445 48.2717C59.774 48.3045 60.2044 48.2191 60.5889 48.0248L62.2548 47.185L63.0223 47.3674C64.6983 47.7676 66.4596 47.6005 68.0305 46.8924L80.6385 44.3453C81.5625 44.1508 82.4224 43.726 83.1384 43.1105C83.8545 42.4949 84.4034 41.7085 84.7345 40.8242C84.7345 40.8242 90.7579 26.5261 89.3364 23.2906C88.7168 21.8932 86.0734 19.6869 86.0734 19.6869Z" fill="#FFA8A7"/>
<path d="M86.0734 19.6869L78.7799 38.3941L67.1597 42.8343C69.3247 44.0459 69.4383 46.7547 69.2249 47.0748L81.53 44.5002C82.3163 44.3312 83.0475 43.967 83.6562 43.4413C84.2649 42.9156 84.7316 42.2453 85.0133 41.4919L89.9526 28.4123C90.5835 26.7405 90.5301 24.8875 89.804 23.2548C89.0778 21.6221 87.7375 20.3414 86.0734 19.6903V19.6869Z" fill="#3E63F6"/>
<path opacity="0.4" d="M86.0734 19.6869L78.7799 38.3941L67.1597 42.8343C69.3247 44.0459 69.4383 46.7547 69.2249 47.0748L81.53 44.5002C82.3163 44.3312 83.0475 43.967 83.6562 43.4413C84.2649 42.9156 84.7316 42.2453 85.0133 41.4919L89.9526 28.4123C90.5835 26.7405 90.5301 24.8875 89.804 23.2548C89.0778 21.6221 87.7375 20.3414 86.0734 19.6903V19.6869Z" fill="white"/>
<path opacity="0.4" d="M71.9372 43.8049C71.625 42.9338 71.0607 42.1753 70.316 41.6261L67.1597 42.8343C69.3247 44.0458 69.4383 46.7547 69.2249 47.0748L72.0507 46.4828C72.2771 45.5984 72.2376 44.6669 71.9372 43.8049Z" fill="white"/>
<path opacity="0.2" d="M78.7798 38.3941C80.9208 38.4251 82.4111 39.351 82.6383 40.029C82.27 36.8211 79.1757 37.389 79.1757 37.389L78.7798 38.3941Z" fill="black"/>
</svg>
