<svg width="466" height="774" viewBox="0 0 466 774" fill="none" xmlns="http://www.w3.org/2000/svg">
<path d="M0 20C0 8.95432 8.95431 0 20 0H466V774H20C8.9543 774 0 765.046 0 754V20Z" fill="#94A9E5"/>
<mask id="mask0" mask-type="alpha" maskUnits="userSpaceOnUse" x="0" y="0" width="466" height="774">
<path d="M0 15C0 6.71574 6.71573 0 15 0H466V774H15C6.71572 774 0 767.284 0 759V15Z" fill="#94A9E5"/>
</mask>
<g mask="url(#mask0)">
<path d="M60.6144 848C272.479 848 444.229 748.842 444.229 626.524C444.229 504.207 272.479 405.049 60.6144 405.049C-151.25 405.049 -323 504.207 -323 626.524C-323 748.842 -151.25 848 60.6144 848Z" fill="#F5F5F5"/>
<path d="M245.122 742.627C290.94 742.627 328.083 721.185 328.083 694.735C328.083 668.285 290.94 646.843 245.122 646.843C199.303 646.843 162.16 668.285 162.16 694.735C162.16 721.185 199.303 742.627 245.122 742.627Z" fill="#E0E0E0"/>
<path d="M202.006 532.559L-19.8924 660.694C-26.1384 664.368 -37.0321 663.854 -44.2518 659.684L-123.025 614.198C-130.226 610.047 -131.016 603.745 -124.862 600.145L97.0364 472.01C103.282 468.336 114.176 468.85 121.396 473.02L200.169 518.506C207.462 522.658 208.252 528.959 202.006 532.559Z" fill="#E0E0E0"/>
<path d="M339.329 606.87L356.818 617.029C356.818 617.029 348 588.885 352.887 560.558C354.067 553.888 356.478 547.497 359.996 541.709C361.374 538.844 371.918 521.189 362.641 513.033C353.364 504.876 331.595 521.098 332.569 564.709C333.035 578.992 335.307 593.158 339.329 606.87Z" fill="#3E63F6"/>
<path opacity="0.5" d="M339.329 606.87L356.818 617.029C356.818 617.029 348 588.885 352.887 560.558C354.067 553.888 356.478 547.497 359.996 541.709C361.374 538.844 371.918 521.189 362.641 513.033C353.364 504.876 331.595 521.098 332.569 564.709C333.035 578.992 335.307 593.158 339.329 606.87Z" fill="black"/>
<path d="M347.467 612.399C347.302 612.398 347.142 612.346 347.007 612.251C346.873 612.156 346.77 612.022 346.714 611.867C346.714 611.683 340.046 593.331 340.395 563.901C340.744 534.471 356.304 518.489 356.469 518.342C356.541 518.269 356.626 518.21 356.721 518.171C356.816 518.131 356.917 518.11 357.02 518.11C357.123 518.11 357.224 518.131 357.319 518.171C357.414 518.21 357.499 518.269 357.571 518.342C357.645 518.415 357.704 518.503 357.744 518.599C357.784 518.695 357.804 518.798 357.804 518.902C357.804 519.007 357.784 519.11 357.744 519.206C357.704 519.302 357.645 519.389 357.571 519.463C357.424 519.61 342.324 534.986 341.974 563.919C341.625 592.853 348.147 611.15 348.202 611.334C348.24 611.43 348.258 611.533 348.256 611.637C348.253 611.74 348.23 611.842 348.187 611.937C348.144 612.031 348.083 612.116 348.006 612.186C347.93 612.256 347.84 612.31 347.743 612.344L347.467 612.399Z" fill="white"/>
<path d="M352.887 614.806L381.765 631.854C381.765 631.854 394.992 629.907 394 617.451C393.008 604.996 387.625 602.075 394.312 596.601C400.999 591.126 402.726 590.777 402.395 585.413C402.065 580.049 398.482 577.716 396.774 575.603C395.066 573.491 390.363 569.008 393.688 562.56C397.013 556.112 401.514 549.848 394.827 546.872C390.822 545.034 384.098 547.331 379.653 552.052C375.207 556.773 371.514 560.19 367.308 561.237C363.101 562.284 354.283 562.413 354.577 569.688C354.871 576.963 356.763 579.479 354.999 582.694C351.674 588.775 337.474 592.063 352.887 614.806Z" fill="#3E63F6"/>
<path opacity="0.2" d="M352.887 614.806L381.765 631.854C381.765 631.854 394.992 629.907 394 617.451C393.008 604.996 387.625 602.075 394.312 596.601C400.999 591.126 402.726 590.777 402.395 585.413C402.065 580.049 398.482 577.716 396.774 575.603C395.066 573.491 390.363 569.008 393.688 562.56C397.013 556.112 401.514 549.848 394.827 546.872C390.822 545.034 384.098 547.331 379.653 552.052C375.207 556.773 371.514 560.19 367.308 561.237C363.101 562.284 354.283 562.413 354.577 569.688C354.871 576.963 356.763 579.479 354.999 582.694C351.674 588.775 337.474 592.063 352.887 614.806Z" fill="black"/>
<path d="M364.644 622.522C364.443 622.522 364.25 622.446 364.104 622.31C363.957 622.174 363.868 621.987 363.854 621.787C363.854 621.364 360.694 578.304 390.601 550.031C390.755 549.888 390.959 549.811 391.169 549.818C391.379 549.824 391.578 549.915 391.722 550.068C391.866 550.222 391.943 550.426 391.936 550.636C391.929 550.846 391.839 551.045 391.685 551.189C362.292 578.928 365.415 621.236 365.452 621.658C365.467 621.87 365.399 622.079 365.261 622.24C365.124 622.402 364.928 622.503 364.717 622.522H364.644Z" fill="white"/>
<path d="M369.898 585.615C369.697 585.616 369.504 585.54 369.358 585.404C369.211 585.267 369.122 585.08 369.108 584.88C368.884 581.574 367.99 578.348 366.481 575.399C364.971 572.449 362.877 569.837 360.327 567.722C360.242 567.661 360.171 567.583 360.116 567.494C360.062 567.405 360.025 567.306 360.009 567.203C359.993 567.099 359.997 566.994 360.022 566.892C360.046 566.791 360.091 566.695 360.152 566.611C360.214 566.526 360.291 566.455 360.38 566.4C360.469 566.346 360.568 566.31 360.672 566.293C360.775 566.277 360.88 566.281 360.982 566.306C361.083 566.33 361.179 566.375 361.264 566.436C364.018 568.681 366.278 571.472 367.9 574.634C369.522 577.796 370.471 581.26 370.688 584.807C370.703 585.014 370.636 585.218 370.502 585.376C370.368 585.534 370.178 585.633 369.971 585.652L369.898 585.615Z" fill="white"/>
<path d="M367.693 592.963C367.496 592.966 367.306 592.894 367.161 592.761C367.016 592.611 366.935 592.41 366.935 592.201C366.935 591.992 367.016 591.791 367.161 591.641C367.473 591.292 375.005 583.153 392.42 585.542C392.626 585.578 392.811 585.691 392.937 585.858C393.064 586.025 393.122 586.234 393.1 586.442C393.068 586.65 392.956 586.838 392.788 586.965C392.62 587.092 392.409 587.148 392.2 587.121C375.666 584.862 368.41 592.633 368.318 592.633C368.25 592.736 368.157 592.82 368.048 592.878C367.939 592.936 367.817 592.965 367.693 592.963Z" fill="white"/>
<path d="M-95.028 182.508C-95.0261 177.159 -93.6181 171.905 -90.9452 167.271C-88.2722 162.638 -84.4283 158.789 -79.7988 156.11L114.048 44.1961C115.341 43.4505 116.785 43.0041 118.273 42.8896C119.762 42.7752 121.257 42.9957 122.649 43.5349C124.041 44.0741 125.294 44.9183 126.317 46.0055C127.34 47.0927 128.107 48.3953 128.56 49.8175C128.04 47.5389 127.066 45.3885 125.696 43.4947C124.326 41.601 122.589 40.0026 120.587 38.7952L119.889 38.391C115.065 35.5211 109.557 34.0044 103.944 34.0004C102.15 33.9835 100.385 34.4533 98.8367 35.3599L-95.0096 147.329C-99.6463 150.001 -103.497 153.849 -106.174 158.483C-108.851 163.117 -110.259 168.375 -110.257 173.727V592.925C-110.255 594.677 -109.793 596.397 -108.916 597.913C-108.04 599.429 -106.78 600.689 -105.264 601.565C-103.748 602.441 -102.028 602.904 -100.276 602.906C-98.525 602.908 -96.8038 602.45 -95.2852 601.578L-95.028 601.431V182.508Z" fill="#37474F"/>
<path d="M113.79 498.445L-80.056 610.359C-81.5723 611.237 -83.293 611.699 -85.045 611.701C-86.797 611.702 -88.5184 611.242 -90.0361 610.367C-91.5538 609.492 -92.8142 608.232 -93.6905 606.715C-94.5668 605.198 -95.0281 603.477 -95.028 601.725V182.508C-95.0261 177.159 -93.6181 171.905 -90.9452 167.271C-88.2723 162.638 -84.4284 158.789 -79.7988 156.11L114.048 44.1961C115.566 43.3236 117.287 42.8656 119.039 42.8678C120.79 42.87 122.51 43.3325 124.026 44.2088C125.543 45.0851 126.802 46.3446 127.679 47.8609C128.555 49.3773 129.017 51.0973 129.02 52.8487V472.047C129.021 477.397 127.615 482.653 124.942 487.286C122.268 491.92 118.422 495.769 113.79 498.445Z" fill="#455A64"/>
<path d="M107.122 84.5012V436.941C107.118 441.666 105.872 446.307 103.508 450.399C101.145 454.49 97.7473 457.889 93.6561 460.253L-77.5209 559.068C-78.8114 559.817 -80.2726 560.222 -81.7645 560.244C-81.2707 561.386 -80.5407 562.411 -79.6224 563.251C-78.7042 564.091 -77.6185 564.728 -76.4368 565.118C-75.2551 565.508 -74.0042 565.644 -72.7662 565.517C-71.5283 565.389 -70.3313 565.001 -69.2542 564.377L101.923 465.544C106.013 463.18 109.409 459.781 111.77 455.689C114.13 451.597 115.372 446.956 115.37 442.231V93.2823C115.374 91.0428 114.523 88.8864 112.989 87.2541C111.456 85.6218 109.357 84.637 107.122 84.5012Z" fill="#37474F"/>
<path d="M-81.7645 560.152C-80.2726 560.13 -78.8113 559.725 -77.5209 558.976L93.6562 460.161C97.7339 457.805 101.123 454.421 103.486 450.347C105.848 446.273 107.102 441.65 107.122 436.941V84.5012C105.403 84.5157 103.709 84.9109 102.162 85.6585L-69.0153 184.474C-73.109 186.835 -76.5088 190.233 -78.8726 194.325C-81.2364 198.418 -82.4809 203.06 -82.4809 207.786V556.643C-82.4827 557.869 -82.2326 559.082 -81.7461 560.207L-81.7645 560.152Z" fill="#3E63F6"/>
<g opacity="0.5">
<path opacity="0.5" d="M-81.7645 560.152C-80.2726 560.13 -78.8113 559.725 -77.5209 558.976L93.6562 460.161C97.7339 457.805 101.123 454.421 103.486 450.347C105.848 446.273 107.102 441.65 107.122 436.941V84.5012C105.403 84.5157 103.709 84.9109 102.162 85.6585L-69.0153 184.474C-73.109 186.835 -76.5088 190.233 -78.8726 194.325C-81.2364 198.418 -82.4809 203.06 -82.4809 207.786V556.643C-82.4827 557.869 -82.2326 559.082 -81.7461 560.207L-81.7645 560.152Z" fill="white"/>
</g>
<path d="M1.34402 126.221C1.28223 127.291 0.970917 128.332 0.435026 129.26C-0.100865 130.188 -0.846489 130.978 -1.74225 131.567C-3.45071 132.54 -4.82849 131.75 -4.82849 129.73C-4.76956 128.659 -4.45948 127.617 -3.92333 126.688C-3.38718 125.76 -2.64003 124.97 -1.74225 124.384C-0.0521541 123.465 1.34402 124.255 1.34402 126.221Z" fill="#263238"/>
<path d="M47.6195 103.055L10.4007 124.641C8.91267 125.486 7.71857 124.641 7.71857 122.62C7.73412 121.618 7.98499 120.634 8.45088 119.747C8.91678 118.86 9.58467 118.095 10.4007 117.513L47.6746 96.0012C49.1442 95.1377 50.3383 96.0011 50.3383 98.0035C50.3086 98.9989 50.0474 99.9737 49.5755 100.851C49.1036 101.727 48.4339 102.482 47.6195 103.055Z" fill="#263238"/>
<path d="M41.3184 511.672C43.5413 511.672 44.9926 514.042 44.9926 517.698C44.9926 523.429 41.4103 530.355 37.1483 532.817L19.3105 543.123C18.5135 543.619 17.6029 543.904 16.6651 543.949C14.4423 543.949 12.991 541.58 12.991 537.924C12.991 532.174 16.6651 525.248 20.8352 522.805L38.6731 512.499C39.4754 512 40.3927 511.715 41.3368 511.672H41.3184ZM41.3368 510.147C40.1245 510.184 38.9443 510.545 37.9199 511.195L20.0821 521.482C15.3241 524.219 11.4662 531.586 11.4662 538.016C11.4662 542.737 13.6156 545.566 16.6651 545.566C17.8774 545.53 19.0576 545.168 20.0821 544.519L37.9199 534.231C42.6595 531.494 46.5173 524.127 46.5173 517.698C46.5173 512.977 44.3863 510.147 41.3368 510.147Z" fill="#263238"/>
<path d="M-53.4003 216.494L-35.3787 225.679L157.512 113.453L170.372 105.958L152.571 95.9277L152.075 95.6337C149.227 93.9253 145.516 94.0355 141.42 96.4053L-41.1471 201.797C-46.6002 205.371 -50.8658 210.487 -53.4003 216.494Z" fill="#E0E0E0"/>
<path d="M-35.3788 226.579C-35.5266 226.578 -35.6717 226.54 -35.8013 226.469L-53.8229 217.284C-53.9287 217.233 -54.0233 217.161 -54.1011 217.073C-54.179 216.985 -54.2384 216.883 -54.2761 216.772C-54.3137 216.66 -54.3288 216.543 -54.3204 216.426C-54.3119 216.309 -54.2802 216.194 -54.227 216.09C-51.6011 209.932 -47.2094 204.69 -41.6064 201.026L140.997 95.597C145.222 93.172 149.337 92.8965 152.571 94.8438H152.718L153.085 95.0642L170.868 105.076C171.007 105.161 171.122 105.279 171.202 105.421C171.283 105.562 171.326 105.722 171.327 105.884C171.33 106.046 171.289 106.204 171.208 106.344C171.127 106.483 171.009 106.597 170.868 106.674L-34.8828 226.395C-35.0275 226.502 -35.1995 226.566 -35.3788 226.579ZM-52.1879 216.016L-35.3972 224.614L168.516 105.958L151.597 96.4053L151.468 96.295C148.841 94.7886 145.443 95.101 141.879 97.1585L-40.7246 202.587C-45.7435 205.884 -49.7196 210.542 -52.1879 216.016Z" fill="#E0E0E0"/>
<path d="M-39.5489 242.415V635.545C-39.5489 641.736 -37.5649 646.182 -34.4235 648.276L-33.3764 648.845C-30.6392 650.131 -27.2039 649.856 -23.4746 647.688L64.796 596.765L159.202 540C164.037 536.975 168.041 532.792 170.851 527.83C173.661 522.867 175.188 517.282 175.295 511.58V118.45C175.295 112.461 173.458 108.126 170.482 105.94C169.98 105.563 169.43 105.254 168.847 105.021C167.254 104.458 165.551 104.278 163.876 104.495C162.2 104.712 160.599 105.32 159.202 106.27L-23.4011 213.481C-28.5529 216.177 -32.7197 220.434 -35.3053 225.642C-37.9559 230.846 -39.406 236.577 -39.5489 242.415Z" fill="#FAFAFA"/>
<path d="M159.202 540C121.635 562.412 23.8847 620.738 -24.5034 649.892C-25.947 650.756 -27.5937 651.222 -29.2759 651.242C-30.9581 651.262 -32.6155 650.836 -34.0794 650.007C-35.5432 649.178 -36.7611 647.976 -37.609 646.523C-38.4568 645.07 -38.9044 643.418 -38.9059 641.736V237.473C-38.9061 232.871 -37.7023 228.349 -35.4143 224.356C-33.1262 220.363 -29.8334 217.038 -25.8629 214.712L160.011 105.738C161.455 104.895 163.095 104.448 164.767 104.441C166.439 104.435 168.083 104.868 169.534 105.699C170.984 106.53 172.191 107.728 173.031 109.173C173.872 110.618 174.317 112.259 174.321 113.931V513.234C174.323 518.62 172.932 523.916 170.283 528.606C167.634 533.296 163.817 537.221 159.202 540Z" fill="#FAFAFA"/>
<path d="M158.67 539.191C129.167 556.754 99.6756 574.365 70.1969 592.025L17.8408 623.347L-6.04095 637.676L-16.4938 643.959C-19.7087 645.888 -23.1256 648.643 -26.6895 649.874C-32.5864 651.932 -37.8955 647.21 -38.0425 641.387C-38.0425 640.45 -38.0425 639.55 -38.0425 638.576V267.931C-38.0425 258.066 -38.0425 248.183 -38.0425 238.318C-38.11 233.647 -36.93 229.043 -34.6243 224.981C-32.3186 220.918 -28.9706 217.545 -24.9259 215.208C-20.6639 212.691 -16.3836 210.211 -12.0665 207.713L47.9318 172.404L119.118 130.685C132.62 122.785 146.086 114.813 159.533 106.95C163.722 104.525 168.994 104.764 171.915 109.154C172.948 110.907 173.434 112.929 173.311 114.96V511.691C173.495 517.169 172.234 522.6 169.655 527.437C167.075 532.275 163.267 536.347 158.615 539.246C157.604 539.871 158.523 541.469 159.533 540.845C164.426 537.815 168.444 533.561 171.189 528.502C173.934 523.444 175.311 517.757 175.185 512.003V143.213C175.185 133.624 175.277 124.016 175.185 114.408C175.232 112.485 174.754 110.585 173.804 108.912C172.853 107.24 171.465 105.857 169.789 104.913C168.112 103.969 166.21 103.499 164.287 103.554C162.364 103.609 160.492 104.186 158.872 105.223C154.389 107.813 149.944 110.459 145.498 113.067L83.883 149.313L12.0541 191.418C-0.621647 198.858 -13.481 206.243 -26.1016 213.738C-30.3504 216.238 -33.8637 219.816 -36.2862 224.109C-38.7087 228.403 -39.9546 233.26 -39.8979 238.189C-39.8979 241.496 -39.8979 244.803 -39.8979 248.11V639.825C-39.8979 640.45 -39.8979 641.093 -39.8979 641.662C-39.8781 643.305 -39.4747 644.921 -38.7198 646.38C-37.9649 647.839 -36.8794 649.102 -35.55 650.068C-34.2205 651.033 -32.6839 651.674 -31.0626 651.941C-29.4413 652.207 -27.7802 652.091 -26.2118 651.601C-22.7398 650.444 -19.4698 647.835 -16.3468 645.961L-5.69191 639.55L18.1898 625.258C52.9225 604.438 87.6857 583.654 122.48 562.908L159.643 540.734C160.599 540.183 159.68 538.585 158.67 539.191Z" fill="#EBEBEB"/>
<path d="M-25.9363 214.657L160.011 105.738C161.455 104.895 163.095 104.448 164.767 104.441C166.439 104.435 168.083 104.868 169.534 105.699C170.984 106.53 172.191 107.728 173.031 109.173C173.872 110.618 174.317 112.259 174.321 113.931V131.475L-38.9243 254.558V237.436C-38.9333 232.836 -37.7394 228.314 -35.4611 224.318C-33.1828 220.323 -29.8993 216.992 -25.9363 214.657Z" fill="#EBEBEB"/>
<path d="M101.814 310.288C120.67 277.629 120.67 242.328 101.814 231.442C82.9583 220.555 52.3868 238.206 33.5309 270.865C14.6749 303.525 14.6749 338.826 33.5307 349.712C52.3866 360.598 82.958 342.948 101.814 310.288Z" fill="#3E63F6"/>
<path opacity="0.5" d="M101.814 310.288C120.67 277.629 120.67 242.328 101.814 231.442C82.9583 220.555 52.3868 238.206 33.5309 270.865C14.6749 303.525 14.6749 338.826 33.5307 349.712C52.3866 360.598 82.958 342.948 101.814 310.288Z" fill="white"/>
<path d="M59.0093 290.784C58.7246 290.784 58.4427 290.728 58.1797 290.619C57.9167 290.51 57.6778 290.351 57.4765 290.149C57.2752 289.948 57.1155 289.709 57.0066 289.446C56.8976 289.183 56.8416 288.901 56.8416 288.617V274.343C57.0004 270.956 57.967 267.657 59.6607 264.72C61.3545 261.783 63.7262 259.294 66.578 257.46C67.7323 256.509 69.1495 255.933 70.6401 255.808C72.1307 255.684 73.6238 256.018 74.9198 256.764C76.2158 257.511 77.2529 258.636 77.8928 259.988C78.5326 261.34 78.7446 262.855 78.5005 264.331V278.623C78.5005 279.198 78.2721 279.749 77.8655 280.156C77.459 280.562 76.9077 280.791 76.3327 280.791C75.7578 280.791 75.2065 280.562 74.7999 280.156C74.3934 279.749 74.165 279.198 74.165 278.623V264.257C74.4519 263.539 74.469 262.742 74.213 262.012C73.957 261.283 73.4453 260.671 72.7727 260.29C72.1002 259.909 71.3122 259.784 70.5549 259.94C69.7976 260.095 69.1222 260.519 68.6538 261.134C66.4676 262.595 64.6474 264.539 63.3347 266.817C62.0221 269.095 61.2523 271.645 61.0852 274.269V288.543C61.1051 289.115 60.898 289.672 60.5091 290.092C60.1202 290.511 59.5811 290.76 59.0093 290.784Z" fill="#37474F"/>
<path d="M85.1689 269.419C84.6613 269.209 84.1086 269.131 83.5625 269.192C83.0163 269.253 82.4946 269.451 82.0459 269.768L53.1674 286.449C51.9006 287.244 50.8524 288.343 50.1179 289.645C48.9624 291.521 48.3283 293.671 48.2808 295.873V320.875C48.2161 321.576 48.3114 322.283 48.5596 322.942C48.8079 323.6 49.2025 324.194 49.7137 324.678C49.8701 324.8 50.0433 324.899 50.2281 324.972C50.7172 325.154 51.243 325.216 51.761 325.152C52.279 325.088 52.774 324.9 53.2041 324.605L82.0459 307.906C83.5505 306.832 84.7817 305.42 85.64 303.783C86.4984 302.146 86.96 300.33 86.9876 298.482V273.443C87.0892 272.669 86.9727 271.883 86.6514 271.172C86.3301 270.461 85.8166 269.854 85.1689 269.419Z" fill="#3E63F6"/>
<path d="M71.0236 295.487L73.8159 303.497L64.0244 309.137L66.4677 299.253L66.8168 297.857C65.1634 297.857 64.0244 296.626 64.0244 294.385C64.0369 293.473 64.1919 292.568 64.4837 291.703C65.2465 289.316 66.8104 287.265 68.911 285.898C71.6115 284.336 73.8159 285.604 73.8159 288.727C73.6818 291.233 72.6967 293.617 71.0236 295.487Z" fill="#455A64"/>
<path d="M66.3942 299.161L66.7433 297.765C65.0899 297.765 63.9509 296.534 63.9509 294.293C63.9634 293.381 64.1184 292.476 64.4102 291.611L71.0236 295.487L73.8159 303.497L66.3942 299.161Z" fill="#37474F"/>
<path d="M138.995 383.041L-3.56089 465.286C-9.45785 468.685 -14.2342 465.066 -14.2342 457.222V435.636C-14.2342 427.774 -9.45785 418.644 -3.56089 415.245L138.995 333C144.892 329.601 149.668 333.202 149.668 341.065V362.65C149.576 370.513 144.8 379.624 138.995 383.041Z" fill="#3E63F6"/>
<path d="M22.066 413.298H19.3104V436.132H22.066V413.298Z" fill="#FAFAFA"/>
<path d="M31.0922 419.823L11.2261 431.24L12.6039 433.638L32.47 422.22L31.0922 419.823Z" fill="#FAFAFA"/>
<path d="M14.3732 419.51L12.9954 421.897L26.9797 429.971L28.3575 427.584L14.3732 419.51Z" fill="#FAFAFA"/>
<path d="M28.4443 410.65L14.4551 434.991L16.8525 436.369L30.8417 412.028L28.4443 410.65Z" fill="#FAFAFA"/>
<path d="M69.0396 387.726H66.2841V410.561H69.0396V387.726Z" fill="#FAFAFA"/>
<path d="M76.8465 392.281L57.0711 403.698L58.4489 406.085L78.2243 394.668L76.8465 392.281Z" fill="#FAFAFA"/>
<path d="M61.365 393.931L59.9872 396.317L73.9715 404.391L75.3493 402.004L61.365 393.931Z" fill="#FAFAFA"/>
<path d="M75.3185 384.874L61.3293 409.215L63.7267 410.593L77.7159 386.252L75.3185 384.874Z" fill="#FAFAFA"/>
<path d="M116.013 362.136H113.258V384.97H116.013V362.136Z" fill="#FAFAFA"/>
<path d="M125.419 368.441L105.553 379.859L106.931 382.256L126.797 370.839L125.419 368.441Z" fill="#FAFAFA"/>
<path d="M108.341 368.342L106.963 370.728L120.947 378.802L122.325 376.416L108.341 368.342Z" fill="#FAFAFA"/>
<path d="M120.44 360.728L106.45 384.958L108.837 386.336L122.826 362.106L120.44 360.728Z" fill="#FAFAFA"/>
<path d="M143.128 412.765C144.965 412.765 145.902 415.612 145.902 418.442V440.027C145.902 446.585 141.842 454.466 137.066 457.24L-5.39795 539.485C-6.12107 539.947 -6.9487 540.218 -7.80449 540.275C-9.64155 540.275 -10.5601 537.428 -10.5601 534.599V513.013C-10.5601 506.455 -6.51855 498.574 -1.72383 495.8L140.832 413.555C141.549 413.095 142.37 412.823 143.22 412.765H143.128ZM143.22 409.091C141.724 409.146 140.268 409.589 138.995 410.377L-3.56089 492.622C-9.45785 496.021 -14.2342 505.151 -14.2342 513.013V534.599C-14.2342 540.441 -11.5888 543.949 -7.80449 543.949C-6.30213 543.897 -4.83936 543.454 -3.56089 542.663L138.995 460.418C144.892 457.02 149.668 447.89 149.668 440.027V418.442C149.668 412.6 147.004 409.091 143.22 409.091Z" fill="#3E63F6"/>
<path d="M68.4002 471.896C68.2389 472.105 68.0406 472.308 67.8054 472.505C67.5769 472.699 67.3315 472.871 67.0694 473.021C66.3569 473.431 65.8091 473.544 65.426 473.361C65.0429 473.178 64.8513 472.688 64.8513 471.889V469.773L64.0549 470.23V468.579L64.8513 468.121V466.482L66.7669 465.381V467.021L68.0171 466.302V467.953L66.7669 468.672V470.765C66.7669 470.99 66.8174 471.139 66.9182 471.213C67.0257 471.275 67.1669 471.256 67.3416 471.156C67.5634 471.028 67.7583 470.85 67.9264 470.622L68.4002 471.896ZM74.5669 465.468C74.5669 465.484 74.5568 465.672 74.5366 466.032L70.5643 468.315C70.6449 468.594 70.7995 468.757 71.0281 468.804C71.2633 468.84 71.5557 468.757 71.9052 468.556C72.1673 468.405 72.3925 468.233 72.5807 468.04C72.7756 467.843 72.9705 467.591 73.1655 467.285L74.1737 467.915C73.6427 468.903 72.8664 469.69 71.8447 470.277C71.2062 470.644 70.6449 470.827 70.161 470.826C69.677 470.825 69.3006 470.654 69.0318 470.312C68.7697 469.967 68.6386 469.48 68.6386 468.852C68.6386 468.232 68.7663 467.604 69.0217 466.969C69.2838 466.322 69.6434 465.728 70.1005 465.186C70.5576 464.644 71.0717 464.209 71.6431 463.881C72.1875 463.568 72.6815 463.416 73.1251 463.425C73.5687 463.425 73.9183 463.601 74.1737 463.95C74.4358 464.288 74.5669 464.794 74.5669 465.468ZM71.6531 465.445C71.3574 465.615 71.1087 465.855 70.9071 466.164C70.7121 466.47 70.5878 466.805 70.534 467.17L72.7723 465.883C72.7185 465.581 72.5908 465.391 72.3891 465.313C72.1942 465.231 71.9489 465.275 71.6531 465.445ZM77.2749 461.505C77.4699 461.106 77.7219 460.748 78.0311 460.431C78.347 460.102 78.7066 459.821 79.1099 459.59V461.578C78.9351 461.655 78.7906 461.727 78.6764 461.792C78.2663 462.028 77.9437 462.341 77.7085 462.732C77.4799 463.12 77.3657 463.577 77.3657 464.104V466.999L75.4501 468.1V461.798L77.2749 460.749V461.505Z" fill="#3E63F6"/>
<path d="M292.169 396.893C292.169 396.893 305.561 395.993 313.148 414.602C317.869 426.175 323.619 443.995 327.293 455.936C328.408 459.541 328.435 463.396 327.37 467.017C326.305 470.637 324.195 473.863 321.304 476.29L297.955 495.892L289.633 480.699C294.486 474.224 299.823 468.126 305.598 462.457L289.633 414.602L292.169 396.893Z" fill="#FFA8A7"/>
<path d="M298.341 453.731C298.341 453.731 319.614 456.542 324.923 440.137C324.923 440.137 315.738 416.127 311.623 408.154C307.508 400.181 298.911 394.376 292.169 396.893C285.427 399.41 298.341 453.731 298.341 453.731Z" fill="#3E63F6"/>
<path opacity="0.4" d="M298.341 453.731C298.341 453.731 319.614 456.542 324.923 440.137C324.923 440.137 315.738 416.127 311.623 408.154C307.508 400.181 298.911 394.376 292.169 396.893C285.427 399.41 298.341 453.731 298.341 453.731Z" fill="white"/>
<path d="M284.122 669.145C284.122 669.145 274.019 660.492 270.087 660.088C266.156 659.684 259.359 666.408 265.109 678.073C266.707 681.325 273.21 684.833 277.27 691.061C281.33 697.289 284.967 701.973 291.195 701.11C297.423 700.246 298.231 696.756 297.827 692.696C297.3 688.982 296.558 685.302 295.604 681.674L284.122 669.145Z" fill="#37474F"/>
<path d="M291.471 699.254C285.059 700.136 281.293 695.304 277.105 688.893C272.916 682.482 266.229 678.844 264.576 675.501C263.914 674.162 263.373 672.766 262.959 671.331C263.265 673.682 263.974 675.962 265.054 678.073C266.652 681.324 273.155 684.833 277.215 691.061C281.275 697.288 284.912 701.973 291.14 701.11C295.916 700.467 297.496 698.244 297.79 695.415C296.982 697.325 295.236 698.758 291.471 699.254Z" fill="#263238"/>
<path d="M278.758 680.277C278.596 680.281 278.436 680.236 278.299 680.149C278.185 680.089 278.084 680.007 278.002 679.908C277.92 679.809 277.859 679.695 277.821 679.572C277.784 679.449 277.771 679.32 277.783 679.192C277.796 679.064 277.834 678.939 277.895 678.826C279.951 675.183 283.366 672.502 287.392 671.368C287.64 671.33 287.893 671.387 288.1 671.528C288.307 671.669 288.453 671.883 288.509 672.127C288.565 672.372 288.526 672.628 288.401 672.845C288.275 673.062 288.073 673.223 287.833 673.297C284.368 674.308 281.426 676.618 279.622 679.745C279.539 679.903 279.415 680.036 279.263 680.13C279.111 680.224 278.937 680.275 278.758 680.277Z" fill="#EBEBEB"/>
<path d="M274.937 676.787C274.778 676.786 274.621 676.748 274.478 676.677C274.364 676.617 274.263 676.535 274.181 676.436C274.099 676.337 274.038 676.223 274 676.1C273.963 675.977 273.95 675.847 273.962 675.719C273.975 675.591 274.013 675.467 274.074 675.354C275.091 673.546 276.455 671.956 278.088 670.676C279.721 669.396 281.591 668.451 283.59 667.896C283.722 667.827 283.867 667.789 284.016 667.786C284.165 667.782 284.312 667.813 284.447 667.875C284.582 667.938 284.701 668.03 284.795 668.145C284.888 668.261 284.954 668.396 284.988 668.541C285.021 668.686 285.021 668.837 284.987 668.981C284.953 669.126 284.886 669.261 284.792 669.376C284.698 669.491 284.579 669.583 284.444 669.645C284.308 669.707 284.161 669.737 284.012 669.733C280.547 670.756 277.608 673.07 275.801 676.199C275.729 676.37 275.61 676.517 275.456 676.621C275.303 676.726 275.123 676.783 274.937 676.787Z" fill="#EBEBEB"/>
<path d="M270.657 673.315C270.497 673.314 270.34 673.276 270.198 673.205C269.966 673.08 269.794 672.869 269.718 672.618C269.643 672.366 269.67 672.095 269.793 671.864C271.856 668.223 275.278 665.547 279.309 664.424C279.435 664.394 279.565 664.389 279.692 664.41C279.82 664.431 279.941 664.477 280.051 664.545C280.16 664.614 280.255 664.703 280.329 664.808C280.404 664.914 280.457 665.033 280.485 665.159C280.54 665.414 280.491 665.681 280.35 665.901C280.209 666.121 279.987 666.277 279.732 666.334C276.267 667.357 273.327 669.672 271.52 672.801C271.438 672.958 271.314 673.09 271.162 673.181C271.009 673.271 270.834 673.318 270.657 673.315Z" fill="#EBEBEB"/>
<path d="M230.352 697.527C230.352 697.527 216.812 693.137 212.771 694.349C208.729 695.562 204.78 705.004 215.251 714.171C218.154 716.706 226.016 717.515 232.593 721.997C239.169 726.479 244.681 729.584 250.486 726.185C256.291 722.787 255.813 718.837 254.766 714.649C253.462 709.248 252.396 705.316 252.396 705.316L230.352 697.527Z" fill="#37474F"/>
<path d="M250.045 724.22C244.075 727.729 238.361 724.514 231.674 719.884C224.988 715.255 216.794 714.373 213.8 711.82C212.588 710.766 211.475 709.604 210.475 708.348C211.743 710.554 213.384 712.524 215.325 714.171C218.227 716.706 226.09 717.514 232.666 721.997C239.243 726.479 244.754 729.584 250.559 726.185C254.987 723.595 255.648 720.674 254.785 717.827C254.729 720.05 253.48 722.199 250.045 724.22Z" fill="#263238"/>
<path d="M227.174 710.038H227.082C226.822 710.01 226.583 709.88 226.418 709.677C226.252 709.474 226.174 709.214 226.2 708.954C226.732 704.531 228.999 700.501 232.501 697.748C232.605 697.673 232.722 697.619 232.847 697.59C232.971 697.561 233.1 697.556 233.226 697.577C233.353 697.597 233.474 697.642 233.582 697.709C233.691 697.777 233.786 697.865 233.86 697.968C234.013 698.181 234.075 698.445 234.033 698.703C233.992 698.961 233.851 699.192 233.64 699.346C230.612 701.788 228.639 705.3 228.129 709.156C228.106 709.395 227.996 709.617 227.82 709.78C227.644 709.942 227.413 710.034 227.174 710.038Z" fill="#EBEBEB"/>
<path d="M232.685 711.857C232.428 711.829 232.192 711.702 232.027 711.503C231.863 711.304 231.782 711.049 231.803 710.791C232.342 706.366 234.607 702.332 238.104 699.567C238.319 699.416 238.584 699.357 238.842 699.402C239.1 699.447 239.33 699.592 239.482 699.805C239.556 699.91 239.608 700.029 239.636 700.154C239.664 700.279 239.667 700.409 239.645 700.535C239.623 700.661 239.576 700.782 239.507 700.89C239.438 700.998 239.348 701.091 239.243 701.165C236.208 703.6 234.233 707.116 233.732 710.975C233.708 711.23 233.585 711.466 233.389 711.631C233.193 711.796 232.94 711.877 232.685 711.857Z" fill="#EBEBEB"/>
<path d="M221.956 708.146H221.864C221.608 708.118 221.372 707.991 221.207 707.792C221.043 707.593 220.962 707.337 220.983 707.08C221.512 702.651 223.779 698.614 227.284 695.856C227.496 695.705 227.759 695.644 228.016 695.687C228.272 695.73 228.501 695.873 228.652 696.085C228.803 696.297 228.864 696.56 228.821 696.817C228.778 697.074 228.635 697.303 228.423 697.454C225.388 699.889 223.413 703.405 222.912 707.264C222.889 707.503 222.779 707.725 222.603 707.887C222.426 708.05 222.196 708.142 221.956 708.146Z" fill="#EBEBEB"/>
<path d="M296.247 671.717C297.459 658.306 300.086 637.29 301.189 627.462C302.673 615.041 302.314 602.468 300.123 590.151C299.56 587.248 299.418 584.278 299.701 581.334C302.364 554.623 304.091 511.323 302.621 501.807L265.127 509.743C265.127 509.743 269.72 570.495 271.74 590.703C273.761 610.91 281.293 671.9 281.293 671.9C283.532 673.333 286.14 674.079 288.797 674.046C291.455 674.013 294.044 673.204 296.247 671.717Z" fill="#455A64"/>
<path d="M290.846 685.513C291.881 685.271 292.849 684.799 293.676 684.131C294.503 683.463 295.168 682.616 295.622 681.655C295.622 679.542 295.861 676.015 296.247 671.717C294.044 673.203 291.455 674.013 288.798 674.046C286.14 674.078 283.532 673.333 281.293 671.9L282.616 683.18C283.718 684.172 285.033 684.898 286.46 685.303C287.887 685.707 289.387 685.779 290.846 685.513Z" fill="#FFA8A7"/>
<path d="M254.068 695.305C255.593 674.987 258.55 635.655 258.936 629.464C259.224 622.635 258.793 615.794 257.65 609.055C256.987 605.411 256.987 601.677 257.65 598.032L274.184 506.584L228.864 505.922L225.906 601.725C225.873 602.951 225.922 604.179 226.053 605.399L235.661 694.698C235.661 694.698 245.03 702.579 254.068 695.305Z" fill="#455A64"/>
<path d="M246.499 712.059C247.909 711.896 249.255 711.384 250.416 710.569C251.577 709.754 252.517 708.662 253.15 707.392L254.068 695.305C245.03 702.653 235.698 694.735 235.698 694.735L237.131 708.109C237.131 708.109 239.225 712.738 246.499 712.059Z" fill="#FFA8A7"/>
<path d="M249.806 402.992L239.114 406.666L227.614 461.061L228.184 509.284C228.184 509.284 236.395 515.842 268.471 515.842C286.474 515.842 298.212 509.045 302.621 501.826L299.737 472.69C299.737 472.69 302.621 443.977 302.621 429.776C302.621 415.576 303.264 403.947 292.169 396.911L282.285 397.738L249.806 402.992Z" fill="#3E63F6"/>
<path opacity="0.2" d="M249.806 402.992L239.114 406.666L227.614 461.061L228.184 509.284C228.184 509.284 236.395 515.842 268.471 515.842C286.474 515.842 298.212 509.045 302.621 501.826L299.737 472.69C299.737 472.69 302.621 443.977 302.621 429.776C302.621 415.576 303.264 403.947 292.169 396.911L282.285 397.738L249.806 402.992Z" fill="white"/>
<path d="M238.196 356.239L232.85 366.839C232.773 366.992 232.73 367.161 232.724 367.333C232.718 367.505 232.749 367.676 232.815 367.835C232.881 367.994 232.981 368.136 233.108 368.253C233.234 368.369 233.384 368.457 233.548 368.51L239.886 370.641L238.196 356.239Z" fill="#F28F8F"/>
<path d="M245.544 338.474C245.544 338.474 237.424 342.847 237.424 367.867C237.424 381.664 238.38 390.463 245.544 389.912C252.709 389.361 273.357 386.66 273.357 386.66V338.474H245.544Z" fill="#FFA8A7"/>
<path d="M245.544 390.004C248.061 389.802 252.249 389.343 256.566 388.828V386.275C252.627 387.956 248.51 389.188 244.295 389.949C244.709 389.998 245.127 390.016 245.544 390.004Z" fill="#F28F8F"/>
<path d="M255.464 385.209V400.953H277.013V378.835L255.464 385.209Z" fill="#FFA8A7"/>
<path d="M255.464 394.964C255.464 394.964 263.217 397.719 269.426 396.636C275.635 395.552 277.013 391.767 277.013 391.767C277.013 391.767 279.034 391.602 282.285 397.719C281.019 400.005 279.208 401.942 277.013 403.359C274.817 404.776 272.306 405.628 269.701 405.839C262.944 406.272 256.171 405.302 249.806 402.992C249.806 402.992 252.892 394.174 255.464 394.964Z" fill="#3E63F6"/>
<path opacity="0.4" d="M255.464 394.964C255.464 394.964 263.217 397.719 269.426 396.636C275.635 395.552 277.013 391.767 277.013 391.767C277.013 391.767 279.034 391.602 282.285 397.719C281.019 400.005 279.208 401.942 277.013 403.359C274.817 404.776 272.306 405.628 269.701 405.839C262.944 406.272 256.171 405.302 249.806 402.992C249.806 402.992 252.892 394.174 255.464 394.964Z" fill="white"/>
<path d="M207.388 441.699L201.602 450.59C201.602 450.59 187.548 444.326 177.72 440.523C171.997 438.397 166.67 435.33 161.958 431.448C162.309 427.62 162.923 423.82 163.795 420.077C164.934 416.219 165.32 413.004 161.958 414.712C158.596 416.421 156.263 423.053 156.061 423.898C156.061 423.898 136.313 404.039 133.851 404.48C131.389 404.921 132.014 407.897 137.268 414.014L142.577 420.15C142.577 420.15 130.471 427.112 132.436 434.718C134.402 442.323 150.366 445.74 150.366 445.74C150.366 445.74 197.083 481.636 207.425 475.133C217.768 468.63 232.409 450.057 232.409 450.057L207.388 441.699Z" fill="#FFA8A7"/>
<path d="M243.358 405.251C243.358 405.251 251.992 412.343 246.371 427.002C240.749 441.662 226.402 459.371 226.402 459.371C226.402 459.371 211.375 454.687 205.57 442.544L224.528 412.875C225.873 410.763 227.696 408.997 229.851 407.72C232.005 406.443 234.43 405.692 236.928 405.527C238.729 405.417 240.86 405.325 243.358 405.251Z" fill="#3E63F6"/>
<path opacity="0.4" d="M243.358 405.251C243.358 405.251 251.992 412.343 246.371 427.002C240.749 441.662 226.402 459.371 226.402 459.371C226.402 459.371 211.375 454.687 205.57 442.544L224.528 412.875C225.873 410.763 227.696 408.997 229.851 407.72C232.005 406.443 234.43 405.692 236.928 405.527C238.729 405.417 240.86 405.325 243.358 405.251Z" fill="white"/>
<path d="M242.513 323.704C242.513 323.704 233.989 322.565 231.821 328.426C230.462 332.1 234.797 334.929 234.797 334.929C234.797 334.929 229.286 340.091 237.498 341.689C237.356 342.57 237.435 343.473 237.728 344.316C238.02 345.16 238.517 345.917 239.174 346.521C239.831 347.125 240.628 347.557 241.492 347.779C242.357 348 243.263 348.003 244.13 347.788C244.13 347.788 243.174 353.299 250.357 355.302C250.357 355.302 246.683 364.965 253.554 365.093H259.928L257.356 372.552C257.356 372.552 262.133 384.052 277.013 384.052C278.645 380.558 280.486 377.166 282.524 373.893C284.361 371.597 293.546 359.821 293.546 350.489C293.546 341.157 289.964 335.627 284.986 334.396C283.409 330.967 280.949 328.019 277.858 325.854C272.843 322.474 262.298 319.461 256.346 323.613C256.346 323.613 251.074 316.687 247.418 316.687C243.762 316.687 242.513 320.453 242.513 323.704Z" fill="#263238"/>
<path d="M253.554 365.093C253.554 365.093 252.929 355.302 261.177 355.302C269.426 355.302 267.478 372.552 257.356 372.552L253.554 365.093Z" fill="#FFA8A7"/>
</g>
</svg>
