<svg width="649" height="634" viewBox="0 0 649 634" fill="none" xmlns="http://www.w3.org/2000/svg">
<path d="M324.254 634C503.334 634 648.508 555.019 648.508 457.592C648.508 360.164 503.334 281.184 324.254 281.184C145.173 281.184 0 360.164 0 457.592C0 555.019 145.173 634 324.254 634Z" fill="#F5F5F5"/>
<path d="M381.52 591.889L215.446 496.009L372.92 405.19L538.995 501.07L381.52 591.889Z" fill="#E6E6E6"/>
<path d="M53.2622 494.373L86.3502 513.406C88.2191 514.358 90.2868 514.854 92.3842 514.854C94.4816 514.854 96.5492 514.358 98.4181 513.406L318.234 386.284C321.575 384.367 321.575 381.237 318.234 379.32L285.16 360.273C283.289 359.328 281.222 358.835 279.126 358.835C277.03 358.835 274.963 359.328 273.092 360.273L53.2622 487.423C49.9351 489.326 49.9351 492.456 53.2622 494.373Z" fill="#E6E6E6"/>
<path d="M505.653 426.196C540.309 426.196 568.403 409.974 568.403 389.964C568.403 369.953 540.309 353.732 505.653 353.732C470.997 353.732 442.903 369.953 442.903 389.964C442.903 409.974 470.997 426.196 505.653 426.196Z" fill="#E6E6E6"/>
<path d="M419.472 389.879C431.159 389.879 440.633 384.407 440.633 377.656C440.633 370.906 431.159 365.433 419.472 365.433C407.785 365.433 398.311 370.906 398.311 377.656C398.311 384.407 407.785 389.879 419.472 389.879Z" fill="#E6E6E6"/>
<path d="M74.4515 494.839L63.3 488.396L63.1731 488.311C62.3548 487.692 61.7096 486.873 61.2997 485.932C60.8899 484.991 60.7291 483.961 60.8328 482.94V139.753L287.247 9.02185L298.525 15.5633L72.1535 146.252V489.467C72.057 490.483 72.2168 491.507 72.6182 492.446C73.0197 493.384 73.65 494.207 74.4515 494.839Z" fill="#EBEBEB"/>
<path d="M298.567 15.5633V358.751C298.406 361.683 297.556 364.536 296.086 367.078C294.617 369.621 292.569 371.781 290.109 373.384L80.5982 494.359C79.788 494.929 78.8521 495.294 77.8703 495.425C76.8884 495.555 75.8897 495.446 74.959 495.107L74.4797 494.839C73.6773 494.211 73.0462 493.391 72.6445 492.454C72.2429 491.518 72.0837 490.496 72.1817 489.481V146.252L298.567 15.5633Z" fill="#F0F0F0"/>
<path d="M287.233 9.02185L298.567 15.5633L72.1535 146.294L60.8188 139.753L287.233 9.02185Z" fill="#FAFAFA"/>
<path d="M72.8584 498.335L70.2503 496.841L70.1234 496.756C69.308 496.131 68.6653 495.309 68.2559 494.366C67.8464 493.424 67.6837 492.393 67.7831 491.371V145.688L299.864 11.7569L302.684 13.3499L70.5041 147.267V492.964C70.4127 493.985 70.5806 495.012 70.9921 495.951C71.4037 496.89 72.0456 497.71 72.8584 498.335Z" fill="#677FD7"/>
<path opacity="0.1" d="M72.8584 498.335L70.2503 496.841L70.1234 496.756C69.308 496.131 68.6653 495.309 68.2559 494.366C67.8464 493.424 67.6837 492.393 67.7831 491.371V145.688L299.864 11.7569L302.684 13.3499L70.5041 147.267V492.964C70.4127 493.985 70.5806 495.012 70.9921 495.951C71.4037 496.89 72.0456 497.71 72.8584 498.335Z" fill="black"/>
<path d="M302.642 13.2935V358.976C302.48 361.909 301.63 364.761 300.161 367.304C298.691 369.846 296.643 372.007 294.183 373.61L78.9629 497.856C78.1527 498.425 77.2168 498.791 76.2349 498.921C75.2531 499.051 74.2543 498.942 73.3237 498.603L72.8444 498.335C72.042 497.707 71.4108 496.887 71.0092 495.951C70.6075 495.014 70.4484 493.992 70.5464 492.978V147.281L302.642 13.2935Z" fill="#677FD7"/>
<path opacity="0.05" d="M302.642 13.2935V358.976C302.48 361.909 301.63 364.761 300.161 367.304C298.691 369.846 296.643 372.007 294.183 373.61L78.9629 497.856C78.1527 498.425 77.2168 498.791 76.2349 498.921C75.2531 499.051 74.2543 498.942 73.3237 498.603L72.8444 498.335C72.042 497.707 71.4108 496.887 71.0092 495.951C70.6075 495.014 70.4484 493.992 70.5464 492.978V147.281L302.642 13.2935Z" fill="black"/>
<path d="M299.864 11.6864L302.642 13.2935L70.5605 147.281L67.7831 145.674L299.864 11.6864Z" fill="#677FD7"/>
<path opacity="0.4" d="M299.864 11.6864L302.642 13.2935L70.5605 147.281L67.7831 145.674L299.864 11.6864Z" fill="white"/>
<path d="M77.2993 500.887L74.7335 499.392L74.6066 499.308C73.7913 498.686 73.1484 497.866 72.7389 496.926C72.3293 495.986 72.1667 494.957 72.2663 493.936V148.24L304.347 14.3086L307.167 15.9017L75.0859 149.833V495.529C74.9781 496.536 75.1242 497.554 75.5108 498.49C75.8974 499.426 76.5123 500.25 77.2993 500.887Z" fill="#677FD7"/>
<path opacity="0.1" d="M77.2993 500.887L74.7335 499.392L74.6066 499.308C73.7913 498.686 73.1484 497.866 72.7389 496.926C72.3293 495.986 72.1667 494.957 72.2663 493.936V148.24L304.347 14.3086L307.167 15.9017L75.0859 149.833V495.529C74.9781 496.536 75.1242 497.554 75.5108 498.49C75.8974 499.426 76.5123 500.25 77.2993 500.887Z" fill="black"/>
<path d="M307.082 15.8452V361.542C306.921 364.472 306.071 367.323 304.601 369.863C303.132 372.404 301.084 374.561 298.624 376.162L83.446 500.407C82.6384 500.983 81.7022 501.351 80.7193 501.482C79.7363 501.612 78.7364 501.5 77.8068 501.155L77.3275 500.901C76.525 500.27 75.8939 499.447 75.4924 498.509C75.0909 497.57 74.9317 496.546 75.0295 495.53V149.833L307.082 15.8452Z" fill="#677FD7"/>
<path d="M304.305 14.2522L307.082 15.8452L75.0013 149.833L72.224 148.24L304.305 14.2522Z" fill="#677FD7"/>
<path opacity="0.4" d="M304.305 14.2522L307.082 15.8452L75.0013 149.833L72.224 148.24L304.305 14.2522Z" fill="white"/>
<path d="M91.4255 504.651L80.274 498.208L80.1471 498.124C79.3308 497.503 78.6872 496.683 78.2775 495.743C77.8679 494.802 77.7058 493.773 77.8068 492.752V149.565L304.221 18.834L315.499 25.3755L89.1275 156.12V499.28C89.0323 500.296 89.1927 501.319 89.594 502.257C89.9954 503.195 90.6249 504.018 91.4255 504.651Z" fill="#EBEBEB"/>
<path d="M315.541 25.3755V368.563C315.379 371.495 314.528 374.347 313.059 376.89C311.589 379.432 309.542 381.592 307.082 383.197L97.5722 504.157C96.7642 504.732 95.8288 505.101 94.8465 505.234C93.8642 505.366 92.8643 505.258 91.933 504.919L91.4537 504.651C90.6532 504.018 90.0236 503.195 89.6222 502.257C89.2209 501.319 89.0605 500.295 89.1557 499.28V156.12L315.541 25.3755Z" fill="#F5F5F5"/>
<path d="M304.221 18.834L315.541 25.3755L89.1275 156.092L77.8068 149.565L304.221 18.834Z" fill="#FAFAFA"/>
<g style="mix-blend-mode:multiply">
<path d="M106.102 159.363C109.231 157.558 111.741 159.01 111.741 162.634C111.636 164.595 111.071 166.504 110.092 168.206C109.112 169.909 107.745 171.356 106.102 172.432C102.986 174.236 100.462 172.77 100.462 169.161C100.568 167.2 101.133 165.291 102.113 163.589C103.093 161.887 104.459 160.439 106.102 159.363Z" fill="#E0E0E0"/>
</g>
<path d="M90.2413 114.207C84.0804 110.654 78.1734 110.133 73.6197 112.797C69.0661 115.462 66.5707 120.791 66.5707 127.924C66.5954 130.627 66.9265 133.318 67.5576 135.946L71.3358 133.761C70.953 131.839 70.7594 129.884 70.7578 127.924C70.7578 122.285 72.5201 118.267 75.7203 116.406C78.9206 114.545 83.3473 114.996 88.1688 117.816C98.9256 124.019 107.68 139.175 107.68 151.651C107.758 154.338 107.213 157.006 106.087 159.447C105.341 160.98 104.165 162.263 102.704 163.141L102.366 163.324C101.425 164.817 100.819 166.496 100.589 168.245C102.078 168.015 103.512 167.514 104.819 166.764C107.619 165.091 109.706 162.447 110.683 159.335C111.522 156.861 111.927 154.262 111.882 151.651C111.769 137.863 102.084 121.073 90.2413 114.207Z" fill="black"/>
<g style="mix-blend-mode:multiply">
<path d="M133.593 143.432C136.722 141.628 139.232 143.08 139.232 146.703C139.127 148.664 138.562 150.573 137.583 152.276C136.603 153.978 135.236 155.425 133.593 156.501C130.477 158.305 127.953 156.839 127.953 153.23C128.061 151.27 128.628 149.362 129.607 147.66C130.586 145.958 131.952 144.51 133.593 143.432Z" fill="#E0E0E0"/>
</g>
<path d="M117.662 98.3185C111.515 94.7659 105.608 94.2442 101.04 96.9087C96.4726 99.5733 93.9913 104.916 93.9913 112.036C94.016 114.739 94.3471 117.43 94.9782 120.058L98.7001 117.858C98.3241 115.935 98.1306 113.981 98.122 112.022C98.122 106.383 99.8843 102.365 103.099 100.504C106.313 98.6428 110.712 99.0939 115.533 101.914C126.29 108.117 135.045 123.272 135.045 135.749C135.13 138.436 134.585 141.106 133.452 143.545C132.701 145.075 131.526 146.357 130.068 147.239L129.73 147.422C128.79 148.915 128.184 150.593 127.953 152.342C129.438 152.137 130.872 151.659 132.183 150.932C134.98 149.259 137.071 146.622 138.062 143.517C138.886 141.035 139.291 138.434 139.26 135.819C139.274 121.989 129.589 105.198 117.662 98.3185Z" fill="black"/>
<g style="mix-blend-mode:multiply">
<path d="M161.098 127.614C164.213 125.81 166.737 127.276 166.737 130.885C166.642 132.858 166.082 134.781 165.102 136.496C164.122 138.211 162.75 139.67 161.098 140.753C157.968 142.558 155.459 141.092 155.459 137.497C155.551 135.521 156.11 133.596 157.091 131.878C158.071 130.16 159.444 128.699 161.098 127.614Z" fill="#E0E0E0"/>
</g>
<path d="M145.223 82.4583C139.063 78.9056 133.156 78.384 128.588 81.0485C124.02 83.713 121.539 89.0562 121.539 96.1756C121.563 98.8783 121.894 101.57 122.526 104.197L126.304 102.012C125.928 100.089 125.734 98.135 125.726 96.1756C125.726 90.5365 127.488 86.5185 130.703 84.6576C133.917 82.7966 138.315 83.2478 143.137 86.0674C153.894 92.2705 162.649 107.426 162.649 119.903C162.734 122.59 162.189 125.26 161.055 127.699C160.305 129.229 159.13 130.511 157.672 131.392L157.348 131.576C156.4 133.066 155.789 134.745 155.557 136.496C157.041 136.287 158.474 135.809 159.787 135.086C162.58 133.411 164.665 130.774 165.651 127.671C166.476 125.189 166.881 122.588 166.85 119.973C166.765 106.115 157.08 89.324 145.223 82.4583Z" fill="black"/>
<g style="mix-blend-mode:multiply">
<path d="M188.589 111.74C191.705 109.935 194.228 111.401 194.228 115.011C194.133 116.984 193.573 118.907 192.593 120.622C191.613 122.337 190.241 123.796 188.589 124.879C185.459 126.684 182.95 125.232 182.95 121.623C183.042 119.647 183.601 117.721 184.582 116.003C185.562 114.286 186.935 112.825 188.589 111.74Z" fill="#E0E0E0"/>
</g>
<path d="M172.658 66.5839C166.497 63.0312 160.59 62.5096 156.037 65.1741C151.483 67.8387 148.988 73.1818 148.988 80.3013C149.009 83.005 149.345 85.6969 149.989 88.323L153.682 86.1096C153.306 84.1868 153.112 82.2325 153.104 80.2731C153.104 74.6339 154.866 70.616 158.081 68.755C161.295 66.8941 165.694 67.3452 170.515 70.1648C181.272 76.3679 190.027 91.5233 190.027 104C190.115 106.691 189.574 109.365 188.448 111.81C187.688 113.335 186.509 114.611 185.05 115.49L184.726 115.673C183.778 117.163 183.167 118.842 182.936 120.593C184.419 120.385 185.853 119.907 187.165 119.184C189.958 117.509 192.044 114.872 193.03 111.768C193.861 109.288 194.266 106.686 194.228 104.071C194.256 90.2404 184.571 73.4497 172.658 66.5839Z" fill="black"/>
<g style="mix-blend-mode:multiply">
<path d="M216.08 95.8655C219.196 94.061 221.719 95.5271 221.719 99.1362C221.624 101.109 221.064 103.032 220.084 104.747C219.104 106.463 217.732 107.921 216.08 109.005C212.95 110.809 210.441 109.357 210.441 105.748C210.533 103.773 211.092 101.847 212.073 100.129C213.053 98.4113 214.426 96.9502 216.08 95.8655Z" fill="#E0E0E0"/>
</g>
<path d="M200.206 50.7096C194.045 47.1569 188.138 46.6353 183.584 49.2998C179.03 51.9643 176.535 57.3075 176.535 64.4269C176.557 67.1306 176.893 69.8226 177.536 72.4487L181.314 70.2635C180.926 68.3421 180.728 66.3872 180.722 64.4269C180.722 58.7877 182.499 54.7698 185.699 52.9089C188.899 51.0479 193.326 51.4991 198.147 54.3187C208.904 60.5218 217.645 75.6771 217.645 88.1539C217.733 90.8447 217.192 93.5189 216.066 95.9642C215.302 97.4893 214.124 98.7691 212.668 99.6578L212.344 99.827C211.402 101.32 210.791 102.998 210.554 104.747C212.036 104.532 213.468 104.055 214.783 103.337C217.576 101.656 219.661 99.015 220.648 95.9078C221.479 93.428 221.884 90.8253 221.846 88.2103C221.747 74.3519 212.062 57.5753 200.206 50.7096Z" fill="black"/>
<g style="mix-blend-mode:multiply">
<path d="M243.571 79.9911C246.701 78.1866 249.21 79.6528 249.21 83.2619C249.118 85.2356 248.559 87.1592 247.578 88.8748C246.598 90.5903 245.225 92.0488 243.571 93.1305C240.441 94.935 237.932 93.4829 237.932 89.8738C238.023 87.898 238.582 85.9719 239.562 84.254C240.543 82.536 241.916 81.075 243.571 79.9911Z" fill="#E0E0E0"/>
</g>
<path d="M227.64 34.8776C221.479 31.3249 215.572 30.8173 211.019 33.4678C206.465 36.1182 203.97 41.4754 203.97 48.5949C203.987 51.298 204.318 53.99 204.957 56.6167L208.664 54.361C208.276 52.4395 208.078 50.4846 208.072 48.5244C208.072 42.8852 209.849 38.8673 213.049 37.0064C216.249 35.1454 220.676 35.667 225.497 38.4162C236.254 44.6193 244.995 59.7746 244.995 72.2513C245.085 74.9423 244.544 77.6169 243.416 80.0616C242.657 81.5862 241.485 82.8663 240.032 83.7553L239.694 83.9245C238.752 85.4175 238.142 87.0954 237.904 88.8447C239.388 88.6361 240.821 88.1584 242.133 87.4349C244.945 85.7581 247.046 83.1104 248.04 79.9911C248.871 77.5114 249.276 74.9087 249.238 72.2936C249.238 58.5058 239.553 41.701 227.64 34.8776Z" fill="black"/>
<g style="mix-blend-mode:multiply">
<path d="M271.062 64.1168C274.192 62.3123 276.701 63.7784 276.701 67.3875C276.609 69.3612 276.05 71.2849 275.069 73.0004C274.089 74.716 272.716 76.1745 271.062 77.2561C267.932 79.0607 265.423 77.6086 265.423 73.9995C265.514 72.0236 266.073 70.0976 267.053 68.3796C268.034 66.6616 269.408 65.2007 271.062 64.1168Z" fill="#E0E0E0"/>
</g>
<path d="M255.188 18.9609C249.027 15.4082 243.12 14.9007 238.566 17.5511C234.013 20.2015 231.517 25.5588 231.517 32.6783C231.534 35.3814 231.865 38.0734 232.504 40.7L236.282 38.5148C235.894 36.5934 235.696 34.6385 235.69 32.6783C235.69 27.0391 237.467 23.0211 240.667 21.1602C243.867 19.2993 248.294 19.835 253.115 22.57C263.872 28.7731 272.627 43.9284 272.627 56.4052C272.713 59.0973 272.167 61.772 271.034 64.2155C270.275 65.74 269.103 67.0201 267.65 67.9091L267.312 68.0783C266.353 69.5487 265.718 71.2069 265.451 72.9421C266.935 72.7336 268.368 72.2558 269.681 71.5323C272.474 69.8512 274.559 67.2099 275.545 64.1027C276.376 61.6229 276.782 59.0203 276.744 56.4052C276.73 42.6314 267.044 25.8407 255.188 18.9609Z" fill="black"/>
<g style="mix-blend-mode:multiply">
<path d="M298.553 48.2424C301.683 46.4379 304.192 47.9041 304.192 51.5132C304.1 53.4869 303.541 55.4105 302.56 57.126C301.58 58.8416 300.207 60.3001 298.553 61.3818C295.423 63.1863 292.914 61.7342 292.914 58.1251C293.005 56.1492 293.564 54.2232 294.544 52.5052C295.525 50.7872 296.899 49.3263 298.553 48.2424Z" fill="#E0E0E0"/>
</g>
<path d="M282.622 3.08658C276.462 -0.466119 270.555 -0.973647 266.001 1.67678C261.447 4.3272 258.952 9.68444 258.952 16.8039C258.968 19.5071 259.299 22.1992 259.939 24.8257L263.647 22.6123C263.259 20.6909 263.06 18.7359 263.054 16.7757C263.054 11.207 264.831 7.1186 268.031 5.25767C271.231 3.39673 275.658 3.93246 280.48 6.66747C291.236 12.8706 299.991 28.04 299.991 40.5027C300.068 43.194 299.523 45.8668 298.398 48.3129C297.643 49.8402 296.47 51.1212 295.015 52.0066L294.676 52.1899C293.731 53.6747 293.124 55.3499 292.9 57.096C294.384 56.8868 295.817 56.4091 297.129 55.6862C299.923 54.006 302.009 51.3644 302.994 48.2566C303.833 45.7787 304.239 43.1747 304.192 40.559C304.221 26.7571 294.535 9.9664 282.622 3.08658Z" fill="black"/>
<g opacity="0.3">
<path opacity="0.3" d="M106.483 185.289L298.216 74.6057C301.557 72.6743 304.264 74.2392 304.264 78.0879V90.2968C304.153 92.3905 303.549 94.4284 302.5 96.2439C301.452 98.0595 299.989 99.6013 298.23 100.743L106.498 211.427C103.156 213.358 100.464 211.793 100.464 207.945V195.736C100.576 193.644 101.18 191.608 102.226 189.793C103.271 187.978 104.73 186.435 106.483 185.289Z" stroke="#C86868" stroke-miterlimit="10"/>
<path opacity="0.3" d="M304.207 84.1923L100.448 201.84" stroke="#C86868" stroke-miterlimit="10"/>
</g>
<g opacity="0.3">
<path opacity="0.3" d="M106.482 224.51L298.215 113.826C301.556 111.909 304.249 113.46 304.249 117.309V351.716C304.138 353.81 303.534 355.847 302.485 357.663C301.436 359.479 299.973 361.02 298.215 362.162L106.482 472.846C103.155 474.777 100.448 473.212 100.448 469.364V234.956C100.562 232.863 101.168 230.827 102.216 229.012C103.265 227.197 104.726 225.654 106.482 224.51V224.51Z" stroke="#C86868" stroke-miterlimit="10"/>
<path opacity="0.3" d="M304.207 123.413L100.448 241.061" stroke="#C86868" stroke-miterlimit="10"/>
<path opacity="0.3" d="M304.207 136.482L100.448 254.13" stroke="#C86868" stroke-miterlimit="10"/>
<path opacity="0.3" d="M304.207 149.551L100.448 267.198" stroke="#C86868" stroke-miterlimit="10"/>
<path opacity="0.3" d="M304.207 162.619L100.448 280.281" stroke="#C86868" stroke-miterlimit="10"/>
<path opacity="0.3" d="M304.207 175.688L100.448 293.35" stroke="#C86868" stroke-miterlimit="10"/>
<path opacity="0.3" d="M304.207 188.757L100.448 306.419" stroke="#C86868" stroke-miterlimit="10"/>
<path opacity="0.3" d="M304.207 201.826L100.448 319.488" stroke="#C86868" stroke-miterlimit="10"/>
<path opacity="0.3" d="M304.207 214.909L100.448 332.557" stroke="#C86868" stroke-miterlimit="10"/>
<path opacity="0.3" d="M304.207 227.978L100.448 345.626" stroke="#C86868" stroke-miterlimit="10"/>
<path opacity="0.3" d="M304.207 241.047L100.448 358.694" stroke="#C86868" stroke-miterlimit="10"/>
<path opacity="0.3" d="M304.207 254.115L100.448 371.763" stroke="#C86868" stroke-miterlimit="10"/>
<path opacity="0.3" d="M304.207 267.184L100.448 384.846" stroke="#C86868" stroke-miterlimit="10"/>
<path opacity="0.3" d="M304.207 280.253L100.448 397.915" stroke="#C86868" stroke-miterlimit="10"/>
<path opacity="0.3" d="M304.207 293.322L100.448 410.984" stroke="#C86868" stroke-miterlimit="10"/>
<path opacity="0.3" d="M304.207 306.405L100.448 424.053" stroke="#C86868" stroke-miterlimit="10"/>
<path opacity="0.3" d="M304.207 319.474L100.448 437.122" stroke="#C86868" stroke-miterlimit="10"/>
<path opacity="0.3" d="M304.207 332.543L100.448 450.19" stroke="#C86868" stroke-miterlimit="10"/>
<path opacity="0.3" d="M304.207 345.611L100.448 463.259" stroke="#C86868" stroke-miterlimit="10"/>
</g>
<path d="M108.963 239.693C108.851 233.081 108.851 227.837 108.963 226.836C108.974 226.164 109.164 225.507 109.513 224.933C109.513 224.933 109.513 224.933 109.612 224.848C109.711 224.763 110.119 225.045 110.669 226.371C111.022 227.033 111.572 228.203 111.882 228.951C112.192 229.698 113.066 231.361 113.7 232.743C114.856 235.295 115.759 237.099 116.266 238.001L116.548 238.438V236.281C116.548 235.097 116.548 232.348 116.435 230.233C116.323 228.119 116.337 225.257 116.337 223.903C116.337 221.168 116.337 221.013 116.788 220.774C117.239 220.534 117.295 220.633 117.38 220.985C117.464 221.338 117.493 222.776 117.549 224.622C117.605 226.469 117.549 229.317 117.662 230.868C117.789 235.577 117.803 240.976 117.662 241.441C117.493 242.217 117.056 242.626 116.717 242.344C115.583 240.554 114.611 238.667 113.813 236.704C113.334 235.633 112.657 234.181 112.276 233.504L110.951 230.84C110.415 229.768 110.274 229.43 110.232 229.641C110.19 229.853 110.232 238.594 110.331 242.033C110.415 244.853 110.331 245.784 110.105 246.263C109.88 246.742 109.654 246.784 109.485 246.629C109.316 246.474 109.062 245.107 108.963 239.693Z" fill="black"/>
<path d="M120.284 236.93C120.117 236.234 120.06 235.515 120.115 234.801C120.035 233.553 120.208 232.302 120.622 231.122C121.038 230.031 121.607 229.005 122.314 228.076C122.561 227.681 122.906 227.357 123.317 227.137C123.728 226.917 124.189 226.808 124.654 226.822C125.149 226.883 125.61 227.103 125.969 227.448C126.327 227.794 126.564 228.247 126.642 228.739C126.832 230.037 126.865 231.353 126.741 232.658C126.499 234.655 125.584 236.51 124.147 237.917C123.736 238.351 123.206 238.655 122.624 238.791C121.497 239.031 120.651 238.368 120.284 236.93ZM125.698 231.122C125.749 230.641 125.676 230.156 125.486 229.712C125.408 229.433 125.273 229.173 125.088 228.95C124.904 228.726 124.674 228.544 124.415 228.415C124.232 228.415 124.006 228.415 123.541 228.725C122.779 229.15 122.216 229.86 121.976 230.699C121.317 232.004 121.081 233.482 121.299 234.928C121.357 235.658 121.6 236.362 122.004 236.972C122.526 237.579 123.118 237.438 124.147 236.479C125.262 234.923 125.809 233.032 125.698 231.122Z" fill="black"/>
<path d="M129.885 228.02V224.016L129.687 224.185C129.317 224.604 128.824 224.896 128.278 225.017C127.841 225.017 127.615 224.848 127.714 224.538C127.911 223.974 128.151 223.706 128.954 223.128C129.262 222.947 129.546 222.729 129.8 222.48C129.844 222.011 129.844 221.539 129.8 221.07C129.8 218.885 129.941 215.29 130.04 214.838C130.139 214.387 130.181 214.401 130.308 214.331C130.435 214.26 130.505 214.331 130.618 214.444C130.731 214.556 130.956 215.501 131.055 218.899L131.154 221.422C131.154 221.422 131.464 221.422 131.901 221.154C132.704 220.76 132.944 220.774 133.057 221.253C133.09 221.349 133.1 221.452 133.085 221.552C133.07 221.653 133.032 221.749 132.972 221.831C132.817 222.071 132.676 222.183 132.042 222.55C131.756 222.723 131.483 222.917 131.224 223.128C130.974 225.88 130.941 228.647 131.125 231.404C131.125 231.742 131.125 232.447 131.252 232.94C131.252 233.758 131.252 233.857 131.125 234.167C130.999 234.477 130.519 234.815 130.308 234.702C130.096 234.59 129.927 233.194 129.885 228.02Z" fill="black"/>
<path d="M134.213 228.217C134.051 225.271 134.875 222.355 136.553 219.928C137.159 219.124 138.174 218.18 138.992 218.264C139.178 218.302 139.355 218.378 139.511 218.486C139.667 218.594 139.8 218.732 139.901 218.893C140.003 219.054 140.071 219.233 140.101 219.421C140.131 219.608 140.123 219.8 140.078 219.984C139.432 222.185 138.294 224.209 136.751 225.905C135.707 227.146 135.538 227.47 135.58 227.935C135.707 228.697 136.158 229.345 136.595 229.247C138.108 228.591 139.358 227.45 140.148 226.004C140.374 225.581 140.444 225.511 140.684 225.412C140.924 225.313 141.093 225.412 141.093 225.623C140.74 226.516 140.265 227.356 139.683 228.119C138.414 229.881 137.526 230.628 136.553 230.797C135.073 231.023 134.382 230.233 134.213 228.217ZM138.442 221.676C138.671 221.329 138.789 220.921 138.781 220.506C138.781 220.153 138.781 220.041 138.611 219.998C138.548 219.983 138.482 219.983 138.418 219.998C138.355 220.012 138.295 220.041 138.245 220.083C137.849 220.325 137.511 220.652 137.258 221.042C136.289 222.398 135.704 223.991 135.566 225.652C135.566 225.849 135.566 225.863 135.975 225.454C136.933 224.289 137.761 223.022 138.442 221.676Z" fill="black"/>
<path d="M143.447 226.201C142.841 226.06 142.672 225.835 142.686 225.313C142.7 224.792 142.686 224.89 142.982 224.721C143.28 224.562 143.621 224.503 143.955 224.552C144.703 224.637 145.457 224.441 146.069 224.002C146.385 223.86 146.648 223.621 146.818 223.319C146.988 223.017 147.056 222.668 147.014 222.325C147.014 221.746 147.014 221.676 146.802 221.324C146.377 220.733 145.84 220.23 145.223 219.843C144.941 219.705 144.692 219.507 144.492 219.264C144.293 219.021 144.148 218.737 144.067 218.433C143.861 217.853 143.801 217.23 143.892 216.62C143.983 216.011 144.222 215.433 144.589 214.937C144.744 214.717 144.947 214.534 145.181 214.401C146.069 213.894 147.479 213.95 147.902 214.726C147.971 214.828 148.007 214.948 148.007 215.071C148.007 215.194 147.971 215.314 147.902 215.416C147.733 215.924 147.366 216.037 146.661 215.698C146.394 215.6 145.252 215.346 145.252 216.544C145.252 217.743 145.519 217.954 146.661 218.574C147.379 219.013 147.93 219.677 148.229 220.463C148.527 221.249 148.556 222.112 148.311 222.917C148.096 223.605 147.732 224.238 147.245 224.769C146.758 225.3 146.159 225.717 145.491 225.99C144.845 226.259 144.134 226.333 143.447 226.201Z" fill="black"/>
<path d="M150.468 214.472C150.515 213.979 150.659 213.5 150.891 213.062C151.102 212.555 151.568 212.16 151.807 212.442C151.958 212.663 152.05 212.919 152.074 213.185C152.099 213.451 152.056 213.719 151.948 213.964C151.853 214.164 151.719 214.342 151.555 214.49C151.39 214.638 151.198 214.751 150.99 214.824C150.736 214.923 150.524 214.726 150.468 214.472ZM150.468 222.169C150.513 221.676 150.657 221.197 150.891 220.76C151.102 220.252 151.568 219.857 151.807 220.139C151.958 220.36 152.05 220.616 152.074 220.882C152.099 221.149 152.056 221.417 151.948 221.662C151.75 222.057 151.407 222.361 150.99 222.508C150.736 222.635 150.524 222.381 150.468 222.169Z" fill="black"/>
<path d="M211.851 225.003C211.851 224.707 211.329 224.792 211.16 224.862C209.751 225.689 208.524 226.792 207.551 228.105L206.324 229.514C205.253 230.656 204.604 230.755 204.379 229.796C204.379 229.796 203.998 229.486 203.871 229.486C200.967 229.486 199.839 232.024 197.879 233.716C197.189 231.277 194.764 233.589 193.65 235.125C191.394 238.297 186.728 239.228 184.12 242.174C184.12 241.23 183.908 240.299 182.964 240.271C182.997 239.465 182.758 238.671 182.287 238.016C182.231 237.963 182.163 237.926 182.09 237.906C182.016 237.887 181.938 237.885 181.864 237.903C179.608 238.382 178.297 241.427 177.522 243.542C177.677 240.821 177.818 238.086 177.846 235.365C177.846 234.843 176.902 235.027 176.888 235.492C176.732 239.891 175.055 243.077 172.503 246.545C171.861 247.445 171.139 248.285 170.346 249.054C169.302 249.883 168.104 250.496 166.822 250.859C166.311 250.996 165.833 251.23 165.412 251.55C165.031 251.883 164.621 252.18 164.185 252.438C163.96 252.551 163.565 252.438 163.255 252.551C162.308 253.204 161.527 254.068 160.971 255.074C160.125 254.397 159.561 254.482 158.588 255.257C157.855 255.807 157.179 256.921 156.488 257.372C154.655 258.444 155.684 257.175 154.74 256.188C153.513 254.891 152.188 256.089 151.131 256.977C149.846 258.026 148.835 259.371 148.184 260.897C147.93 259.67 147.338 258.641 146.069 258.852C144.166 259.148 142.982 262.645 142.249 263.984C141.457 265.818 140.204 267.416 138.611 268.622C137.774 269.243 136.812 269.676 135.792 269.891C135.496 269.891 135.341 269.68 135.002 269.821C134.493 270.072 134.019 270.389 133.593 270.765C132.62 271.4 133.973 271.893 132.056 271.329C130.815 270.963 130.956 270.497 130.392 269.539C130.265 269.341 129.955 269.384 129.786 269.454C128.956 269.946 128.262 270.64 127.77 271.47C126.981 272.513 125.12 276.052 123.724 276.151C121.398 276.32 121.341 270.399 121.299 269.017C121.215 266.197 121.567 263.378 121.666 260.558C121.666 260.248 121.003 260.248 120.961 260.558C120.294 264.381 119.351 268.15 118.141 271.837C116.929 275.347 115.054 278.618 114.885 282.396C114.885 282.622 115.35 282.72 115.364 282.509C115.646 278.575 117.704 275.079 118.959 271.414C119.607 269.525 120.143 267.551 120.608 265.577C120.425 267.575 120.425 269.585 120.608 271.583C120.778 272.993 120.763 276.729 122.638 277.137C124.048 277.448 125.655 275.361 126.36 274.515C126.882 273.895 128.108 271.442 128.912 271.132C130.505 270.525 130.167 272.401 131.041 273.049C131.915 273.698 132.451 273.373 133.282 272.753C134.368 271.949 133.917 271.16 135.862 270.765C136.328 270.681 136.821 271.005 137.385 270.765C139.079 269.922 140.533 268.666 141.614 267.114C142.527 265.597 143.332 264.019 144.025 262.391C144.251 261.954 144.97 260.178 145.576 260.065L147.437 262.095C147.437 262.772 147.437 263.434 147.437 264.111C147.437 264.788 148.367 264.435 148.395 263.984C148.579 261.404 149.946 257.358 152.977 257.273C154.754 257.273 154.105 258.077 155.219 259.134C155.323 259.229 155.459 259.282 155.6 259.282C155.74 259.282 155.876 259.229 155.98 259.134C156.868 258.26 159.096 254.581 160.59 256.005C160.653 256.052 160.725 256.087 160.802 256.106C160.879 256.125 160.959 256.128 161.037 256.114C161.115 256.101 161.189 256.072 161.255 256.029C161.322 255.986 161.378 255.93 161.422 255.864C161.789 255.398 163.368 252.663 163.988 253.481C164.171 253.721 164.58 253.608 164.749 253.481C165.525 252.706 166.426 252.068 167.414 251.592C167.752 251.423 168.161 251.409 168.527 251.254C170.178 250.423 171.593 249.192 172.644 247.673C174.345 245.689 175.711 243.441 176.69 241.018C176.577 243.274 176.436 245.53 176.281 247.785C175.676 251.37 175.449 255.009 175.605 258.641C175.605 259.191 176.577 258.937 176.591 258.458C176.747 254.834 177.014 251.211 177.254 247.588C177.395 246.996 177.536 246.404 177.719 245.812C178.255 244.049 178.777 241.582 180.215 240.285C181.328 239.341 181.949 239.862 182.005 240.765C181.807 241.03 181.666 241.334 181.594 241.657C181.521 241.98 181.517 242.315 181.582 242.64C181.653 243.034 182.343 242.809 182.47 242.64C182.53 242.531 182.582 242.418 182.625 242.301C183.105 242.076 183.274 242.217 183.105 242.724C182.936 243.232 183.105 243.598 183.006 244.021C182.907 244.444 183.824 244.261 183.951 244.021C185.191 241.484 189.266 239.172 191.775 238.016C192.346 237.85 192.885 237.587 193.368 237.24C193.509 237.099 196.738 232.165 197.034 234.66C197.034 234.984 197.485 235.055 197.724 234.886C199.134 233.927 199.783 232.066 201.348 231.319C205.14 229.359 202.645 231.474 204.759 231.826C206.084 232.038 210.991 225.99 210.948 225.764C211.033 226.215 211.935 225.934 211.851 225.468V225.003Z" fill="black"/>
<path d="M260.926 194.425C259.935 196.12 258.711 197.667 257.288 199.02C256.654 200.726 255.103 201.22 252.65 200.43C252.501 200.22 252.32 200.035 252.114 199.88C251.889 199.88 251.494 199.697 251.198 199.697C249.365 199.782 248.378 204.66 246.87 202.587C246.715 202.376 246.348 202.475 246.179 202.587C245.089 203.257 244.183 204.187 243.543 205.294C243.289 205.731 243.148 206.549 242.852 206.831L242.641 207.042C242.483 207.055 242.33 207.098 242.189 207.169C242.077 207.169 241.358 206.944 241.09 207C240.554 207.127 240.216 207.677 239.92 208.085C239.411 209.023 238.963 209.994 238.58 210.99C238.49 211.137 238.415 211.293 238.355 211.455C238.408 211.262 238.399 211.056 238.328 210.869C238.257 210.681 238.128 210.521 237.96 210.412C236.55 209.481 235.267 211.68 234.393 213.231C234.097 211.666 233.59 210.017 231.743 210.778C229.515 211.68 228.754 213.598 228.063 215.614C228.063 212.794 227.683 208.678 225.342 209.101C223.792 209.397 222.198 212.273 221.508 213.429C220.535 215.036 220.098 217.432 218.857 218.786C218.589 219.068 219.252 219.265 219.463 219.068C221.198 217.404 221.973 214.134 223.411 212.174C224.003 211.356 224.948 209.636 226.343 210.849C226.738 211.201 226.625 212.794 226.696 213.4C226.907 215.036 226.907 216.657 227.076 218.292C227.076 218.828 227.922 218.546 228.077 218.222C228.571 217.207 228.782 216.164 229.233 215.12C229.463 214.097 230.041 213.185 230.869 212.54C232.716 212.54 233.618 213.259 233.576 214.81C233.674 215.29 234.309 215.106 234.534 214.81C235.126 214.063 237.015 210.242 237.622 212.456C237.692 212.738 237.932 212.78 238.2 212.738C239.61 212.498 240.695 206.676 241.992 208.508C242.147 208.72 242.528 208.635 242.683 208.508C244.093 207.507 244.854 202.362 246.912 204.716C246.969 204.772 247.039 204.811 247.116 204.831C247.192 204.851 247.273 204.85 247.349 204.829C248.534 204.476 248.759 203.419 249.52 202.587C250.282 201.756 249.816 201.77 250.93 201.417C252.96 200.769 251.17 201.417 252.41 201.6C253.256 201.741 253.496 202.094 254.441 202.023C255.588 201.892 256.649 201.352 257.429 200.501C258.332 199.472 258.966 198.189 259.868 197.117C260.626 196.358 261.241 195.47 261.687 194.495C261.814 194.185 261.067 194.185 260.926 194.425Z" fill="black"/>
<path d="M291.758 180.439C291.058 180.435 290.375 180.658 289.812 181.074C288.149 181.99 286.584 183.273 284.949 184.26C284.103 184.767 283.398 185.529 282.594 186.022C280.536 187.291 279.958 185.74 278.619 184.288C278.544 184.243 278.459 184.22 278.372 184.22C278.285 184.22 278.2 184.243 278.125 184.288C276.391 184.725 276.448 186.079 275.108 186.924C274.22 187.474 274.262 187.587 273.557 186.572C273.12 185.966 273.106 185.303 272.557 184.725C272.373 184.528 272.063 184.612 271.866 184.725C270.287 185.684 269.37 187.376 268.116 188.701C266.861 190.026 265.296 193.029 263.308 193.72C262.956 193.847 263.308 194.199 263.548 194.129C264.958 193.818 265.634 192.719 266.579 191.591C267.524 190.463 268.468 189.504 269.399 188.461C269.878 187.939 270.808 186.318 271.231 186.177C273.177 185.599 272.486 190.167 275.038 188.475C275.729 188.01 275.827 186.967 276.448 186.487C278.351 185.078 278.21 186.121 279.267 186.84C280.325 187.559 280.508 188.377 281.748 188.08C282.087 188.01 282.284 187.643 282.58 187.502C282.796 187.271 282.985 187.015 283.144 186.741C284.222 185.717 285.498 184.925 286.894 184.415C288.374 183.414 289.812 181.68 291.603 181.299C292.068 181.144 292.392 180.411 291.758 180.439Z" fill="black"/>
<path d="M175.731 273.726C175.083 276.221 171.319 279.52 169.289 276.362C168.401 274.952 168.908 271.935 168.908 270.328V262.856C168.908 261.009 168.908 259.148 168.908 257.217C168.908 256.526 167.808 256.794 167.808 257.358V260.953C167.808 266.902 167.315 272.513 164.509 278.11C163.928 279.613 163.156 281.034 162.212 282.34C160.407 284.313 158.758 284.074 157.658 283.186C157.898 282.734 158.109 282.283 158.335 281.889C158.772 281.155 160.04 279.83 159.646 278.815C159.096 277.405 156.53 277.49 155.811 278.702C155.472 279.426 155.344 280.232 155.444 281.026C155.544 281.819 155.867 282.568 156.375 283.186C155.487 284.412 154.373 285.695 153.02 284.384C152.894 284.296 152.74 284.259 152.589 284.28C152.437 284.3 152.299 284.378 152.202 284.497C151.497 285.343 151.159 286.4 150.51 287.232C149.636 288.345 149.566 290.051 147.775 290.051C147.421 290.081 147.068 289.975 146.788 289.755C145.9 289.022 147.028 287.359 147.197 286.484C147.536 285.249 147.385 283.931 146.774 282.805C146.705 282.702 146.599 282.63 146.478 282.604C146.357 282.578 146.231 282.599 146.126 282.664C144.923 283.222 143.949 284.176 143.366 285.367C142.783 286.558 142.628 287.913 142.925 289.205C143.081 289.713 143.771 290.418 143.489 290.813C143.207 291.207 142.08 291.25 141.685 291.095C140.978 290.824 140.359 290.366 139.894 289.769C138.654 288.359 136.539 293.999 136.13 294.732C135.157 296.565 134.481 298.27 132.676 299.412C132.356 299.638 131.968 299.747 131.577 299.722C130.731 299.567 130.999 298.651 130.843 298.059C130.843 298.341 130.745 296.649 130.843 296.748C130.843 296.522 130.449 296.522 130.294 296.565C129.265 296.832 129.208 297.467 128.574 298.411C128.278 298.862 127.812 299.68 127.474 300.103C127.33 300.46 127.113 300.783 126.836 301.05C126.559 301.317 126.229 301.523 125.867 301.654H125.091C124.147 302.331 123.428 303.374 122.469 304.008C120.904 305.037 119.551 305.714 119.368 303.219C119.361 302.416 119.29 301.614 119.156 300.822C119.072 300.441 118.451 300.625 118.296 300.822C117.312 302.197 116.494 303.683 115.857 305.249C115.463 306.236 112.728 312.834 111.628 308.35C111.304 306.941 113.038 304.375 113.644 303.12C114.772 300.709 114.885 300.047 118.451 299.68C118.888 299.68 120.185 299.793 120.453 299.793C120.721 299.793 120.721 299.398 120.453 299.384C118.127 299.384 116.647 298.129 114.645 299.934C113.235 301.16 112.812 303.134 112.065 304.713C111.169 306.07 110.68 307.655 110.655 309.281C110.824 310.846 111.741 311.945 113.376 311.114C114.335 310.62 114.955 309.168 115.42 308.294C116.464 306.264 117.211 304.22 118.339 302.274C118.437 303.783 118.339 305.207 119.509 306.391C119.576 306.457 119.662 306.501 119.755 306.519C119.847 306.537 119.943 306.526 120.03 306.49C121.36 305.808 122.585 304.939 123.668 303.91C124.697 303.106 126.191 302.88 127.122 302.02C127.964 300.986 128.696 299.866 129.307 298.679C129.565 298.359 129.805 298.025 130.026 297.678C129.979 298.194 129.979 298.713 130.026 299.229C130.491 301.175 131.971 301.034 133.395 300.004C134.568 299.003 135.527 297.776 136.215 296.395C137.23 294.718 137.921 292.166 139.26 290.629C139.479 291.114 139.814 291.538 140.235 291.864C140.656 292.189 141.15 292.407 141.674 292.497C142.199 292.588 142.737 292.548 143.243 292.382C143.749 292.217 144.206 291.929 144.575 291.546C144.575 291.546 144.716 291.391 144.786 291.334C145.636 291.603 146.542 291.633 147.407 291.422C148.272 291.21 149.063 290.766 149.692 290.136C150.344 289.456 150.882 288.675 151.286 287.824C151.525 287.288 151.793 286.738 152.061 286.217C152.484 285.446 152.921 285.39 153.372 286.047C154.486 286.047 154.599 286.47 155.684 285.808C156.328 285.372 156.852 284.78 157.207 284.088C157.559 284.427 157.978 284.689 158.436 284.859C158.895 285.029 159.383 285.102 159.871 285.075C163.368 284.68 165.426 278.773 166.568 276.179C167.037 275.08 167.428 273.949 167.738 272.795C167.653 274.543 167.738 276.447 168.781 277.589C171.939 280.93 175.999 277.025 176.859 273.754C177.029 273.021 175.887 273.134 175.731 273.726ZM143.884 286.865C144.166 285.216 146.563 282.734 146.196 285.765C146.096 286.401 145.945 287.028 145.745 287.64C145.633 288.087 145.477 288.521 145.28 288.938C145.248 289.029 145.211 289.119 145.167 289.205C143.912 289.318 143.518 288.938 143.884 286.865ZM156.234 279.901C156.226 279.702 156.273 279.504 156.37 279.33C156.467 279.156 156.61 279.012 156.784 278.914C156.946 278.872 157.115 278.872 157.277 278.914C157.508 278.912 157.735 278.981 157.926 279.111C158.04 279.206 158.132 279.324 158.195 279.458C158.258 279.592 158.291 279.738 158.292 279.887C158.316 280.368 158.148 280.839 157.827 281.198L157.08 282.269L156.939 282.467C156.939 282.467 156.445 281.409 156.403 281.282C156.286 280.927 156.225 280.556 156.22 280.183C156.214 280.088 156.218 279.994 156.234 279.901Z" fill="black"/>
<path d="M235.451 235.901H235.098C235.011 235.915 234.929 235.955 234.864 236.015C234.799 236.075 234.753 236.153 234.732 236.239C233.902 238.148 232.748 239.899 231.32 241.413C227.669 245.008 227.809 239.707 227.612 237.846C227.612 237.466 227.105 237.494 226.865 237.649C225.304 238.729 224.101 240.251 223.411 242.019C223.199 242.442 222.001 245.206 221.747 245.121C222.1 245.248 221.564 242.682 221.339 242.301C221.113 241.921 220.972 242.132 220.831 242.189C219.158 242.955 217.677 244.084 216.495 245.493C215.312 246.902 214.458 248.557 213.993 250.337C213.585 249.971 213.063 249.914 212.273 250.337C211.484 250.76 210.723 252.847 210.074 252.945C210.074 252.945 209.299 251.958 208.975 251.874C207.269 251.409 205.21 253.974 204.209 254.947C201.573 257.555 202.955 253.721 200.586 253.537C200.49 253.522 200.391 253.533 200.299 253.567C200.208 253.602 200.127 253.66 200.065 253.735C198.998 255.695 197.797 257.58 196.47 259.374C195.215 260.939 194.2 261.545 193.65 259.064C193.298 257.358 194.75 255.511 194.975 253.791C194.975 253.396 194.355 253.411 194.186 253.65C191.197 257.88 189.181 262.391 185.516 266.141C185.248 266.409 185.91 266.578 186.122 266.367C189.223 263.336 191.127 259.755 193.382 256.202C192.649 258.444 191.86 261.32 193.622 262.024C195.384 262.729 197.076 259.811 197.767 258.838C198.412 257.538 199.191 256.31 200.093 255.173C200.995 254.369 200.403 254.383 201.333 255.469C201.686 255.878 201.742 256.569 202.236 256.879C202.465 257.086 202.757 257.212 203.065 257.238C203.373 257.263 203.681 257.187 203.942 257.02C204.745 256.54 208.171 250.253 209.242 253.777C209.313 253.989 209.609 254.031 209.792 253.96C210.596 253.664 213.007 249.731 213.768 251.902C213.895 252.297 214.656 252.114 214.67 251.733C214.797 248.913 216.334 247.123 218.138 245.206C218.9 244.402 219.661 242.823 220.831 244.19C220.858 244.781 220.919 245.369 221.014 245.953C221.099 246.235 221.479 246.192 221.677 246.108C224.186 244.966 224.496 240.892 226.639 238.847C226.738 241.018 226.639 244.12 229.628 243.598C230.78 243.275 231.758 242.51 232.349 241.47C233.026 240.539 233.646 239.595 234.337 238.65C234.436 238.509 235.563 236.479 235.634 236.451C236.156 236.338 235.874 235.844 235.451 235.901Z" fill="black"/>
<path d="M282.792 210.383C282.409 210.342 282.022 210.384 281.658 210.505C281.293 210.627 280.958 210.826 280.677 211.088C280.113 211.54 279.803 212.244 279.267 212.724C276.448 215.205 275.038 212.484 274.742 209.904C274.671 209.368 273.952 209.65 273.769 209.904C272.613 211.666 273.092 213.626 271.654 215.543C270.526 216.953 266.368 222.099 265.592 217.785C265.508 217.334 264.915 217.461 264.69 217.714C263.604 218.899 262.942 220.351 261.87 221.591C261.264 222.31 259.53 224.312 258.924 224.284C257.303 224.185 257.288 221.718 257.19 220.717C257.19 220.266 256.555 220.393 256.33 220.605C255.794 221.112 251.254 230.6 250 229.627C249.661 229.373 248.914 229.853 249.323 230.177C251.72 232.052 254.638 225.356 256.231 222.339C256.231 223.974 256.358 225.652 258.557 225.229C261.546 224.665 263.054 221.225 264.76 218.927C265.437 220.774 266.988 221.309 268.849 219.956C270.487 218.585 271.891 216.956 273.008 215.134C273.529 214.112 273.863 213.004 273.995 211.864C274.417 213.4 275.235 214.782 277.138 214.838C279.747 214.923 280.169 211.229 282.608 211.074C283.088 211.102 283.384 210.412 282.792 210.383Z" fill="black"/>
<path d="M153.457 309.295C154.359 308.224 155.007 307.364 156.488 307.35C156.629 307.341 156.77 307.37 156.897 307.434C157 307.485 157.087 307.563 157.15 307.66C157.412 308.103 157.769 308.483 158.196 308.771C158.622 309.059 159.108 309.247 159.618 309.323C161.027 309.422 163.494 307.152 165.257 304.77C166.666 305.319 169.134 303.36 170.219 302.359C170.797 301.823 169.965 301.316 169.458 301.795C169.17 302.391 168.723 302.895 168.165 303.251C167.607 303.607 166.962 303.801 166.3 303.811C166.215 303.811 166.103 303.811 166.103 303.712C166.215 302.754 168.288 300.315 166.652 299.624C165.017 298.933 164.115 301.696 164.199 302.754C164.206 303.241 164.317 303.722 164.524 304.163C164.129 304.812 163.706 305.46 163.241 306.081C162.731 306.579 162.194 307.05 161.634 307.49C161.366 307.797 161.027 308.035 160.647 308.181C160.015 308.264 159.374 308.129 158.828 307.801C157.883 307.068 159.533 306.01 160.012 305.432C160.698 304.632 161.276 303.746 161.732 302.796C162.367 301.386 162.663 299.525 160.618 299.455C157.799 299.455 156.319 303.444 156.84 306.405C156.261 306.461 155.695 306.608 155.163 306.842C154.215 307.447 153.396 308.232 152.752 309.154C151.596 310.564 151.046 311.339 151.13 308.957C151.13 308.506 150.411 308.604 150.271 308.957C149.368 311.431 148.13 313.77 146.591 315.907C145.632 317.007 144.166 318.247 143.052 317.712C144.203 315.993 145.038 314.083 145.519 312.072C145.844 310.663 146.929 306.25 144.251 306.038C142.094 305.869 141.431 310.366 141.121 311.678C140.611 313.703 140.769 315.84 141.572 317.768L141.769 318.064C141.289 318.761 140.752 319.416 140.162 320.024C139.161 321.025 137.78 322.533 136.215 322.519C136.068 322.532 135.92 322.511 135.783 322.457C135.646 322.404 135.524 322.318 135.425 322.209C134.777 321.391 136.342 319.812 136.68 319.065C137.203 317.884 137.384 316.58 137.202 315.301C137.189 315.216 137.146 315.139 137.082 315.082C137.017 315.025 136.935 314.993 136.849 314.991H136.454C136.349 314.982 136.243 315.001 136.147 315.046C136.05 315.09 135.967 315.159 135.905 315.244C134.603 317.124 133.945 319.374 134.03 321.659L133 322.787C132.112 323.788 130.406 326.762 129.109 324.281C129.059 324.228 128.997 324.188 128.929 324.164C128.86 324.139 128.787 324.131 128.715 324.14C127.855 324.309 127.756 324.634 127.192 325.395C126.628 326.156 126.022 327.947 124.626 326.678C124.626 326.678 124.626 324.887 124.528 324.648C124.429 324.408 123.865 324.45 123.696 324.648C122.356 326.142 121.75 328.525 120.425 330.061C120.646 328.971 120.957 327.9 121.356 326.861C121.539 326.339 120.608 326.368 120.467 326.791C119.354 329.836 118.169 333.191 115.843 335.503C115.476 336.089 114.915 336.527 114.258 336.741C113.601 336.955 112.89 336.931 112.248 336.673C111.815 335.98 111.616 335.167 111.68 334.353C111.743 333.538 112.066 332.765 112.601 332.148C113.193 330.752 114.171 329.554 115.42 328.694C116.689 328.102 117.239 328.229 117.07 329.074C117.07 329.427 117.761 329.371 117.803 329.074C117.986 327.326 116.393 327.524 115.068 328.102C112.925 329.089 110.331 333.135 110.486 335.503C110.613 337.561 112.826 338.154 114.546 337.519C116.943 336.659 118.522 334.079 119.678 331.429C119.774 331.452 119.873 331.455 119.97 331.438C120.067 331.421 120.16 331.384 120.242 331.33C121.962 330.132 122.61 327.82 123.738 326.001C123.738 327.34 123.555 328.722 125.444 328.37C126.713 328.13 126.854 327.143 127.587 326.311C128.842 324.902 127.996 325.564 129.222 326.311C130.928 327.34 132.042 325.296 132.972 324.168L134.382 322.646C134.445 322.809 134.525 322.965 134.622 323.111C136.201 325.028 138.231 323.111 139.556 321.899C140.592 320.977 141.537 319.957 142.376 318.853C145.054 321.307 148.635 314.624 150.327 311.057C150.332 311.203 150.374 311.345 150.447 311.471C150.52 311.597 150.624 311.703 150.748 311.779C150.872 311.856 151.012 311.901 151.158 311.91C151.303 311.92 151.449 311.893 151.582 311.833C152.272 311.438 153.048 309.788 153.457 309.295ZM135.651 319.164C135.566 319.375 135.468 319.572 135.369 319.77C135.129 320.235 135.002 320.39 134.96 319.77C134.955 318.832 135.137 317.902 135.496 317.035C135.58 316.684 135.772 316.368 136.046 316.133C136.158 316.048 136.356 316.006 136.412 316.133C136.424 316.169 136.424 316.209 136.412 316.245C136.441 316.531 136.441 316.819 136.412 317.105C136.329 317.598 136.168 318.074 135.933 318.515L135.651 319.164ZM142.249 316.668C141.954 315.876 141.824 315.031 141.868 314.187C141.807 312.082 142.172 309.987 142.94 308.026C142.981 307.895 143.042 307.771 143.123 307.66C143.241 307.525 143.4 307.432 143.576 307.396C143.752 307.361 143.934 307.384 144.096 307.462C144.259 307.541 144.403 307.653 144.52 307.792C144.637 307.93 144.723 308.092 144.772 308.266C144.872 308.614 144.914 308.976 144.899 309.337C144.934 310.569 144.768 311.797 144.406 312.975C143.999 313.99 143.528 314.979 142.996 315.935C142.813 316.288 142.615 316.626 142.418 316.95L142.249 316.668ZM158.067 305.813C158.001 305.76 157.948 305.692 157.912 305.615C157.884 305.49 157.884 305.36 157.912 305.235C157.891 304.205 158.029 303.178 158.32 302.19C158.659 301.231 159.321 300.244 160.463 300.301C160.623 300.299 160.779 300.343 160.915 300.427C162 301.16 160.915 302.824 160.449 303.571C160.095 304.074 159.699 304.546 159.265 304.981C159.025 305.333 158.433 306.151 158.067 305.883V305.813Z" fill="black"/>
<path d="M174.293 300.766C173.73 300.766 173.419 301.64 174.124 301.64C174.829 301.64 175.012 300.766 174.293 300.766Z" fill="black"/>
<path d="M481.912 144.377C475.258 155.655 468.843 165.425 464.346 170.12C455.802 174.095 435.727 180.2 427.86 181.229C426.48 181.396 425.086 181.066 423.927 180.298C420.839 178.268 418.443 177.944 415.186 176.816C412.648 175.942 411.563 174.716 411.083 175.181C410.592 175.757 410.344 176.502 410.394 177.258C410.444 178.014 410.788 178.721 411.351 179.227C412.572 180.387 413.926 181.4 415.383 182.244C411.898 183.1 408.266 183.163 404.753 182.427C397.958 180.637 394.744 183.907 399.34 191.295C400.989 193.931 407.474 198.16 420.614 197.019C425.296 196.756 429.957 196.206 434.571 195.369C447.174 192.676 461.174 190.082 469.816 187.502C473.016 186.241 475.882 184.258 478.19 181.708C492.669 165.199 497.462 153.428 503.82 142.727L503.313 125.26C492.979 124.95 487.48 134.973 481.912 144.377Z" fill="#B16668"/>
<path d="M505.018 124.95C502.038 124.532 498.999 124.936 496.231 126.118C493.464 127.301 491.071 129.217 489.313 131.66C482.264 140.683 469.787 162.352 469.787 162.352C469.787 162.352 473.876 173.221 484.886 175.04L502.565 151.073C502.565 151.073 510.939 134.593 505.018 124.95Z" fill="black"/>
<path d="M543.252 368.492H531.72V389.047H543.252V368.492Z" fill="#B16668"/>
<path d="M503.284 367.407L491.752 367.816L491.174 346.063L503.284 345.654V367.407Z" fill="#B16668"/>
<path d="M544.859 190.562C544.859 202.023 543.182 294.281 543.182 294.281C543.45 297.58 546.41 303.67 545.776 316.33C544.902 333.544 543.731 378.77 543.731 378.77C541.755 379.788 539.571 380.342 537.348 380.388C535.125 380.435 532.92 379.973 530.902 379.038C530.902 379.038 520.005 316.4 517.932 299.342C516.128 284.454 513.068 234.336 513.068 234.336L506.823 292.617C508.156 298.882 508.63 305.299 508.233 311.692C507.697 319.572 504.003 360.668 504.003 360.668C502.012 361.846 499.778 362.553 497.471 362.736C495.165 362.92 492.847 362.574 490.695 361.725C490.695 361.725 484.139 299.849 484.012 292.645C483.857 284.412 487.805 190.435 487.805 190.435L544.859 190.562Z" fill="#2C363B"/>
<path d="M531.72 383.098V381.406C530.606 381.914 528.055 392.093 523.473 396.435C519.835 399.889 514.887 403.878 513.604 407.713C512.321 411.548 520.512 413.93 523.91 413.352C527.857 412.619 534.695 409.729 536.415 407.036C538.135 404.344 538.938 400.396 540.334 398.437C541.73 396.477 544.944 394.278 545.691 391.994C546.114 390.739 545.621 388.004 545.043 385.692C544.465 383.38 543.929 381.237 543.224 381.463V382.774C541.604 384.104 539.568 384.823 537.472 384.804C535.738 384.818 531.706 384.508 531.72 383.098Z" fill="#263238"/>
<path d="M491.639 364.108C491.033 364.108 490.554 365.01 489.229 366.505C487.27 368.566 484.978 370.282 482.448 371.58C478.134 373.836 469.759 377.29 465.939 379.08C463.57 380.194 463.683 383.169 466.136 384.874C468.589 386.58 474.51 387.793 481.644 386.143C485.521 385.241 490.568 381.519 493.754 381.716C496.94 381.914 502.918 381.871 505.272 380.18C507.627 378.488 506.682 374.879 506.019 371.721C505.286 368.337 504.384 363.065 503.313 363.262V364.432C501.903 366.617 494.769 367.506 491.724 365.842L491.639 364.108Z" fill="#263238"/>
<path d="M513.068 234.336C507.073 232.377 501.591 229.101 497.025 224.749C497.025 224.749 500.112 230.797 509.332 236.408L507.359 288.458L513.068 234.336Z" fill="#263238"/>
<path d="M538.416 126.655C538.416 126.655 547.89 128.855 547.242 146.04L545.254 173.419V214.486C536.795 224.087 499.196 223.396 486.338 213.725C486.338 213.725 487.748 165.115 488.665 146.407C489.285 133.098 492.344 126.416 505.413 124.95L521.485 125.655L538.416 126.655Z" fill="#677FD7"/>
<path opacity="0.1" d="M513.252 137.046L511.179 151.468L506.372 151.383L511.799 152.243L513.252 137.046Z" fill="black"/>
<path d="M526.306 90.9453C526.397 95.5907 524.639 100.082 521.419 103.432C518.199 106.781 513.78 108.715 509.135 108.807C499.661 108.807 494.05 100.588 491.978 90.9453C488.185 73.2946 499.661 73.069 509.135 73.069C511.436 73.1148 513.706 73.6136 515.815 74.5369C517.923 75.4601 519.829 76.7898 521.424 78.4498C523.019 80.1099 524.271 82.0678 525.108 84.2118C525.946 86.3558 526.353 88.6439 526.306 90.9453Z" fill="#263238"/>
<path d="M535.061 98.1634C535.061 98.1634 532.425 111.049 531.367 113.164C530.684 114.455 529.527 115.43 528.139 115.885L528.322 106.82L535.061 98.1634Z" fill="#263238"/>
<path d="M531.748 79.7232C531.748 79.7232 533.637 79.2439 535.639 82.3737C537.359 85.0664 537.754 91.1003 535.061 98.1634L530.099 98.7555L531.748 79.7232Z" fill="#263238"/>
<path d="M528.689 98.7697C529.676 99.39 531.1 97.3599 532.326 96.0628C533.553 94.7658 537.542 92.9049 539.544 97.2753C541.546 101.646 537.782 107.651 534.638 108.681C529.196 110.457 528.393 106.82 528.393 106.82L527.97 127.219C520.766 138.371 504.44 137.976 510.305 126.684V120.481C507.888 120.882 505.434 121.01 502.988 120.861C498.999 120.227 496.475 116.942 495.277 112.402C493.331 105.17 492.584 99.3336 494.233 85.1087C496.052 69.5163 513.449 69.3612 522.852 75.5221C532.256 81.6829 528.689 98.7697 528.689 98.7697Z" fill="#B16668"/>
<path d="M530.183 73.5484C530.481 72.9042 530.613 72.1953 530.565 71.4872C530.517 70.779 530.292 70.0942 529.91 69.4959C529.528 68.8977 529.001 68.4052 528.379 68.0638C527.757 67.7225 527.058 67.5432 526.349 67.5426C525.38 67.5427 524.443 67.8819 523.698 68.5013C523.482 67.7879 523.079 67.1457 522.53 66.6417C521.981 66.1376 521.307 65.7904 520.578 65.6362C519.849 65.482 519.092 65.5266 518.386 65.7652C517.68 66.0039 517.051 66.4278 516.565 66.9928C516.2 66.2352 515.659 65.5764 514.986 65.0719C514.314 64.5673 513.53 64.2318 512.701 64.0936C511.872 63.9554 511.021 64.0185 510.222 64.2777C509.422 64.5369 508.696 64.9846 508.106 65.583C507.699 64.3322 506.847 63.2747 505.711 62.6118C504.575 61.9489 503.235 61.7269 501.947 61.9882C500.658 62.2494 499.51 62.9757 498.722 64.0286C497.934 65.0814 497.561 66.3874 497.673 67.6977C497.673 67.8951 497.673 68.0783 497.673 68.2757C496.967 68.0487 496.23 67.9345 495.488 67.9373C494.535 67.9373 493.591 68.1251 492.71 68.49C491.829 68.8549 491.028 69.3897 490.354 70.0639C489.68 70.7381 489.145 71.5385 488.78 72.4194C488.415 73.3002 488.228 74.2444 488.228 75.1978C488.228 76.1513 488.415 77.0954 488.78 77.9763C489.145 78.8572 489.68 79.6575 490.354 80.3317C491.028 81.0059 491.829 81.5407 492.71 81.9056C493.591 82.2705 494.535 82.4583 495.488 82.4583C496.576 82.4545 497.65 82.2089 498.632 81.7393C498.857 82.8629 499.45 83.8794 500.318 84.6276C501.186 85.3758 502.279 85.8128 503.423 85.8695C504.568 85.9261 505.699 85.5992 506.636 84.9404C507.574 84.2816 508.265 83.3287 508.599 82.2327C508.93 82.9445 509.458 83.5458 510.122 83.9643C510.786 84.3828 511.557 84.6007 512.341 84.5917C513.126 84.5828 513.892 84.3475 514.546 83.914C515.2 83.4805 515.715 82.8673 516.029 82.1481C516.471 82.6818 517.031 83.1064 517.664 83.3888C518.297 83.6713 518.987 83.804 519.679 83.7768C520.372 83.7495 521.049 83.5629 521.658 83.2316C522.267 82.9002 522.792 82.433 523.191 81.8662C524.601 82.5288 524.981 87.1106 525.235 88.4358C526.109 92.9049 526.828 100.476 528.52 100.504C529.013 100.504 530.916 97.233 532.157 96.0629C533.863 94.4416 534.215 81.0062 534.215 81.0062C534.215 81.0062 536.64 74.8031 530.183 73.5484Z" fill="#263238"/>
<path d="M527.998 122.652C526.322 126.078 523.916 129.095 520.949 131.491C518.428 133.361 515.501 134.607 512.406 135.128C514.937 136.861 517.007 139.183 518.44 141.895C520.23 145.857 533.228 132.126 532.918 126.388C532.918 126.388 530.818 119.466 528.083 118.972L527.998 122.652Z" fill="black"/>
<path d="M512.392 135.128C512.392 135.128 508.486 133.183 510.235 126.67V120.466L508.529 120.692C506.514 122.638 505.083 125.109 504.398 127.826C504.003 129.602 502.988 138.611 504.765 140.401C506.541 142.191 508.952 135.608 512.392 135.128Z" fill="black"/>
<path d="M510.249 120.481C510.249 120.481 519.159 118.606 522.288 116.886C524.132 115.866 525.629 114.32 526.588 112.445C526.123 114.333 525.29 116.11 524.135 117.675C521.865 120.706 510.249 122.948 510.249 122.948V120.481Z" fill="#9A4A4D"/>
<path d="M512.392 96.4435C512.419 96.7903 512.547 97.1216 512.759 97.3969C512.972 97.6722 513.26 97.8796 513.589 97.9938C513.918 98.1079 514.272 98.1239 514.61 98.0397C514.947 97.9555 515.253 97.7748 515.49 97.5197C515.726 97.2646 515.883 96.9461 515.942 96.6032C516 96.2602 515.957 95.9077 515.819 95.5887C515.68 95.2696 515.451 94.9979 515.161 94.8067C514.87 94.6155 514.53 94.5131 514.182 94.5121C513.938 94.5211 513.697 94.5783 513.475 94.6803C513.253 94.7823 513.053 94.9272 512.886 95.1066C512.72 95.286 512.591 95.4964 512.506 95.7258C512.421 95.9552 512.382 96.199 512.392 96.4435Z" fill="#263238"/>
<path d="M515.268 88.746L519.088 90.9453C519.36 90.4006 519.42 89.7742 519.256 89.188C519.092 88.6017 518.715 88.0975 518.2 87.7732C517.947 87.6303 517.666 87.5421 517.376 87.514C517.087 87.486 516.795 87.5188 516.518 87.6104C516.242 87.7021 515.988 87.8504 515.773 88.046C515.558 88.2415 515.385 88.48 515.268 88.746Z" fill="#263238"/>
<path d="M511.052 109.301L506.978 110.894C507.06 111.179 507.2 111.443 507.39 111.671C507.579 111.899 507.814 112.085 508.079 112.217C508.344 112.349 508.633 112.426 508.929 112.441C509.225 112.455 509.521 112.409 509.798 112.304C510.346 112.053 510.78 111.605 511.013 111.048C511.245 110.491 511.259 109.867 511.052 109.301Z" fill="#9A4A4D"/>
<path d="M496.01 90.3813L499.492 87.5617C499.335 87.319 499.128 87.1118 498.886 86.9537C498.644 86.7955 498.371 86.6897 498.086 86.6433C497.8 86.5968 497.508 86.6106 497.228 86.6838C496.948 86.757 496.687 86.888 496.461 87.0683C495.986 87.4649 495.677 88.0245 495.593 88.6374C495.51 89.2503 495.658 89.8722 496.01 90.3813Z" fill="#263238"/>
<path d="M497.532 95.9218C497.562 96.2678 497.692 96.5975 497.907 96.8708C498.121 97.1442 498.41 97.3494 498.738 97.4614C499.067 97.5735 499.421 97.5875 499.758 97.5019C500.094 97.4163 500.398 97.2347 500.634 96.9792C500.869 96.7237 501.024 96.4053 501.082 96.0629C501.139 95.7205 501.096 95.3687 500.957 95.0505C500.818 94.7323 500.59 94.4613 500.3 94.2706C500.009 94.0799 499.67 93.9776 499.323 93.9763C498.828 93.9983 498.362 94.2153 498.026 94.5798C497.691 94.9443 497.513 95.4268 497.532 95.9218Z" fill="#263238"/>
<path d="M507.091 94.4275L506.893 105.706L500.479 104.24L507.091 94.4275Z" fill="#9A4A4D"/>
<path d="M576.509 178.677C573.817 169.133 563.976 150.354 559.042 141.346C551.993 128.531 545.381 126.768 538.121 126.67C535.442 130.124 535.146 146.238 544.295 155.852C547.806 163.226 558.943 182.117 558.943 182.117C558.675 184.105 551.133 205.097 548.003 211.85C547.428 213.054 546.422 214 545.184 214.5C541.941 215.91 540.461 217.644 537.881 219.646C535.851 221.225 534.3 221.45 534.441 222.071C534.686 222.762 535.18 223.336 535.827 223.681C536.475 224.025 537.227 224.115 537.937 223.932C539.512 223.563 541.036 223.004 542.477 222.268C541.053 224.804 539.225 227.09 537.063 229.035C532.143 233.518 532.397 237.268 540.785 238.594C546.044 239.425 550.724 236.803 556.42 225.793C558.055 222.635 559.803 217.841 561.819 213.781C566.049 205.407 567.458 203.602 570.715 197.301C575.579 188.193 577.694 182.906 576.509 178.677Z" fill="#B16668"/>
<path d="M536.64 126.655C541.651 125.964 546.74 127.171 550.907 130.039C558.083 134.889 572.379 165.608 572.379 165.608C572.379 165.608 572.745 173.362 553.727 175.872L543.337 156.543C543.337 156.543 533.708 147.267 536.64 126.655Z" fill="black"/>
<path d="M405.19 373.934C405.054 373.573 404.977 373.192 404.965 372.806V375.231C404.957 375.372 404.957 375.513 404.965 375.654V375.753C404.95 375.898 404.95 376.045 404.965 376.19V376.401C404.986 376.52 405.015 376.638 405.049 376.754L405.261 377.304C405.346 377.487 405.444 377.67 405.543 377.854C406.393 379.207 407.591 380.307 409.011 381.04C412.142 382.588 415.595 383.376 419.088 383.34C422.581 383.303 426.017 382.442 429.115 380.828C429.848 380.412 430.525 379.905 431.131 379.32C431.249 379.228 431.358 379.124 431.455 379.01C431.523 378.951 431.585 378.885 431.638 378.812C431.754 378.687 431.862 378.555 431.963 378.417C432.322 377.967 432.616 377.469 432.837 376.937C432.891 376.825 432.934 376.706 432.964 376.585L433.062 376.232C433.11 376.042 433.143 375.849 433.161 375.654C433.161 375.499 433.161 375.358 433.161 375.217C433.154 375.161 433.154 375.104 433.161 375.048V372.228C433.178 372.704 433.121 373.18 432.992 373.638C432.261 371.729 430.829 370.171 428.988 369.282C425.858 367.731 422.406 366.941 418.912 366.975C415.419 367.009 411.983 367.867 408.884 369.479C407.136 370.447 405.817 372.037 405.19 373.934ZM433.386 374.54C433.379 374.475 433.379 374.409 433.386 374.343C433.384 374.409 433.388 374.475 433.401 374.54H433.386Z" fill="#677FD7"/>
<path d="M402.131 81.4009L430.581 81.0626V83.8822L433.401 372.299C433.418 372.775 433.361 373.25 433.231 373.709C432.543 375.649 431.135 377.249 429.298 378.178C426.2 379.793 422.764 380.653 419.27 380.687C415.776 380.722 412.324 379.929 409.194 378.375C407.772 377.651 406.574 376.555 405.726 375.203C405.495 374.841 405.319 374.447 405.205 374.033C405.068 373.672 404.991 373.291 404.979 372.905C404.972 372.839 404.972 372.773 404.979 372.708V372.609L402.131 81.4009Z" fill="#F0F0F0"/>
<path d="M406.361 87.1388C400.721 83.9949 400.721 78.7928 406.248 75.5221C409.348 73.9133 412.784 73.0571 416.276 73.0228C419.769 72.9885 423.22 73.7771 426.352 75.3247C431.991 78.4685 431.991 83.6707 426.478 86.9414C423.376 88.5503 419.938 89.4065 416.443 89.4408C412.948 89.4751 409.494 88.6865 406.361 87.1388Z" fill="#677FD7"/>
<path d="M408.222 60.9306C408.178 61.046 408.14 61.1636 408.109 61.2831L402.47 79.5118V79.6528C402.43 79.7588 402.397 79.867 402.371 79.977V80.1744C401.793 82.6415 403.132 85.2356 406.445 87.0965C409.579 88.6442 413.033 89.4328 416.528 89.3985C420.023 89.3642 423.46 88.508 426.563 86.8991C429.763 84.9959 431.074 82.4583 430.539 80.0334V79.8924C430.474 79.6527 430.394 79.4172 430.299 79.1875V79.0324L424.336 60.9588C423.916 59.8915 423.111 59.0209 422.08 58.5199C420.289 57.631 418.314 57.1779 416.314 57.1975C414.315 57.2171 412.349 57.7088 410.576 58.6326C409.54 59.0906 408.705 59.9065 408.222 60.9306Z" fill="#E0E0E0"/>
<path d="M413.381 298.383C413.374 298.396 413.37 298.411 413.37 298.425C413.37 298.44 413.374 298.455 413.381 298.468V298.848C413.455 299.245 413.62 299.62 413.865 299.941C414.11 300.261 414.427 300.52 414.791 300.695C415.907 301.244 417.137 301.524 418.381 301.512C419.624 301.5 420.848 301.196 421.953 300.625C422.308 300.445 422.619 300.189 422.863 299.874C423.107 299.56 423.278 299.195 423.363 298.806V298.313L421.29 72.4769L411.182 66.8377L413.381 298.383Z" fill="black"/>
<path d="M421.46 88.8587L421.29 72.4769L411.182 66.8377L411.408 89.0279C414.733 89.6773 418.158 89.6196 421.46 88.8587Z" fill="#37474F"/>
<path d="M411.422 53.2049L406.318 69.6855C406.259 69.8316 406.212 69.9826 406.177 70.1366C405.726 71.8989 406.685 73.7598 408.997 75.0991C411.21 76.1944 413.651 76.7513 416.121 76.7244C418.59 76.6974 421.019 76.0874 423.208 74.944C425.463 73.6188 426.408 71.8284 426.027 70.1366C426.027 70.1366 426.027 70.052 426.027 70.0238L425.886 69.5586L420.402 52.9793C420.171 52.3668 419.718 51.8636 419.133 51.5695C418.131 51.0584 417.023 50.7919 415.898 50.7919C414.773 50.7919 413.664 51.0584 412.662 51.5695C412.353 51.74 412.082 51.9737 411.868 52.2554C411.655 52.5371 411.502 52.8606 411.422 53.2049Z" fill="#677FD7"/>
<path opacity="0.1" d="M411.422 53.2049L406.318 69.6855C406.259 69.8316 406.212 69.9826 406.177 70.1366C405.726 71.8989 406.685 73.7598 408.997 75.0991C411.21 76.1944 413.651 76.7513 416.121 76.7244C418.59 76.6974 421.019 76.0874 423.208 74.944C425.463 73.6188 426.408 71.8284 426.027 70.1366C426.027 70.1366 426.027 70.052 426.027 70.0238L425.886 69.5586L420.402 52.9793C420.171 52.3668 419.718 51.8636 419.133 51.5695C418.131 51.0584 417.023 50.7919 415.898 50.7919C414.773 50.7919 413.664 51.0584 412.662 51.5695C412.353 51.74 412.082 51.9737 411.868 52.2554C411.655 52.5371 411.502 52.8606 411.422 53.2049Z" fill="black"/>
<path d="M412.691 51.6683C413.693 51.1571 414.801 50.8906 415.926 50.8906C417.051 50.8906 418.16 51.1571 419.162 51.6683C419.746 51.9623 420.199 52.4656 420.43 53.0781L423.25 61.5369C423.687 62.848 423.039 64.2719 421.276 65.3151C419.681 66.143 417.913 66.5846 416.116 66.6042C414.318 66.6237 412.541 66.2208 410.928 65.4279C410.197 65.1421 409.589 64.6089 409.211 63.9211C408.832 63.2333 408.706 62.4345 408.856 61.6637L408.955 61.3395L411.408 53.2049C411.505 52.8748 411.67 52.5682 411.89 52.304C412.111 52.0397 412.383 51.8234 412.691 51.6683Z" fill="#677FD7"/>
<path opacity="0.1" d="M412.733 55.4042C410.928 54.3892 410.914 52.7115 412.733 51.6683C413.735 51.1571 414.844 50.8906 415.968 50.8906C417.093 50.8906 418.202 51.1571 419.204 51.6683C419.594 51.8013 419.932 52.0529 420.172 52.3879C420.411 52.7228 420.54 53.1244 420.54 53.5362C420.54 53.9481 420.411 54.3497 420.172 54.6846C419.932 55.0196 419.594 55.2712 419.204 55.4042C418.201 55.9121 417.093 56.1768 415.968 56.1768C414.844 56.1768 413.736 55.9121 412.733 55.4042Z" fill="black"/>
<path d="M413.818 342.341C413.86 342.785 414.02 343.209 414.283 343.569C414.547 343.929 414.902 344.211 415.313 344.385C416.421 344.934 417.644 345.213 418.881 345.201C420.118 345.189 421.335 344.885 422.432 344.314C422.833 344.125 423.175 343.832 423.423 343.465C423.672 343.097 423.816 342.67 423.842 342.228L423.405 298.806C423.32 299.195 423.149 299.56 422.905 299.874C422.662 300.189 422.351 300.445 421.995 300.625C420.89 301.196 419.667 301.5 418.423 301.512C417.179 301.524 415.95 301.244 414.834 300.695C414.47 300.52 414.153 300.261 413.908 299.941C413.663 299.62 413.497 299.245 413.424 298.848L413.818 342.341Z" fill="#FAFAFA"/>
<path d="M415.271 340.268C416.375 339.712 417.594 339.422 418.83 339.422C420.067 339.422 421.286 339.712 422.39 340.268C422.816 340.416 423.186 340.693 423.448 341.061C423.709 341.428 423.85 341.868 423.85 342.32C423.85 342.771 423.709 343.211 423.448 343.578C423.186 343.946 422.816 344.223 422.39 344.371C421.292 344.941 420.076 345.245 418.839 345.258C417.602 345.27 416.379 344.99 415.271 344.441C414.839 344.297 414.464 344.02 414.199 343.651C413.933 343.281 413.79 342.838 413.79 342.383C413.79 341.928 413.933 341.485 414.199 341.115C414.464 340.746 414.839 340.469 415.271 340.325V340.268Z" fill="#F5F5F5"/>
<path d="M406.206 354.902V355.212L406.389 372.341C406.375 372.472 406.375 372.605 406.389 372.736V372.835C406.562 373.898 406.996 374.902 407.653 375.756C408.31 376.61 409.169 377.287 410.153 377.727C412.973 379.12 416.081 379.83 419.226 379.798C422.371 379.766 425.464 378.994 428.255 377.543C430.75 376.063 431.977 374.146 431.948 372.243L431.779 354.902C431.786 354.874 431.786 354.845 431.779 354.817V354.719C431.695 352.872 430.44 351.053 427.987 349.672C425.167 348.278 422.059 347.568 418.914 347.6C415.769 347.632 412.676 348.405 409.885 349.855C408.898 350.321 408.044 351.027 407.401 351.909C406.758 352.791 406.347 353.82 406.206 354.902Z" fill="#677FD7"/>
<path opacity="0.05" d="M406.206 354.902V355.212L406.389 372.341C406.375 372.472 406.375 372.605 406.389 372.736V372.835C406.562 373.898 406.996 374.902 407.653 375.756C408.31 376.61 409.169 377.287 410.153 377.727C412.973 379.12 416.081 379.83 419.226 379.798C422.371 379.766 425.464 378.994 428.255 377.543C430.75 376.063 431.977 374.146 431.948 372.243L431.779 354.902C431.786 354.874 431.786 354.845 431.779 354.817V354.719C431.695 352.872 430.44 351.053 427.987 349.672C425.167 348.278 422.059 347.568 418.914 347.6C415.769 347.632 412.676 348.405 409.885 349.855C408.898 350.321 408.044 351.027 407.401 351.909C406.758 352.791 406.347 353.82 406.206 354.902Z" fill="black"/>
<path opacity="0.1" d="M409.998 360.287C404.965 357.468 404.923 352.773 409.885 349.827C412.676 348.376 415.769 347.604 418.914 347.572C422.059 347.54 425.167 348.25 427.987 349.643C433.02 352.463 433.062 357.158 428.1 360.09C425.311 361.546 422.218 362.323 419.072 362.357C415.927 362.391 412.818 361.682 409.998 360.287Z" fill="black"/>
<path d="M413.649 46.3251V53.4869C413.661 53.6994 413.732 53.9044 413.854 54.0788C413.976 54.2532 414.144 54.39 414.34 54.4737C414.854 54.7339 415.421 54.8694 415.997 54.8694C416.572 54.8694 417.14 54.7339 417.653 54.4737C417.84 54.3842 418.001 54.2474 418.12 54.0769C418.239 53.9063 418.311 53.7079 418.33 53.501L418.4 46.3533C418.389 45.9436 418.27 45.5441 418.057 45.1942C417.844 44.8443 417.543 44.5561 417.184 44.3582C416.825 44.1602 416.421 44.0594 416.011 44.0656C415.601 44.0718 415.2 44.1849 414.848 44.3937C414.504 44.5913 414.214 44.8712 414.005 45.2083C413.796 45.5454 413.674 45.9291 413.649 46.3251Z" fill="black"/>
<path d="M413.706 45.874C413.692 46.0099 413.692 46.1469 413.706 46.2828C413.754 46.4651 413.842 46.6344 413.964 46.7783C414.086 46.9222 414.239 47.037 414.411 47.1146C414.924 47.3747 415.492 47.5102 416.067 47.5102C416.643 47.5102 417.21 47.3747 417.724 47.1146C417.908 47.0302 418.067 46.8981 418.183 46.7321C418.299 46.5661 418.37 46.3721 418.386 46.17V46.029C418.389 45.9868 418.389 45.9444 418.386 45.9022C418.341 45.6462 418.245 45.4018 418.104 45.1832C417.947 44.9163 417.739 44.683 417.492 44.4967C417.244 44.3104 416.963 44.1747 416.663 44.0974C416.363 44.0202 416.051 44.0028 415.744 44.0464C415.437 44.09 415.142 44.1936 414.876 44.3514C414.583 44.5065 414.327 44.7228 414.125 44.9854C413.923 45.2481 413.78 45.5512 413.706 45.874Z" fill="#263238"/>
<path d="M238.355 483.927L387.244 397.971L530.409 480.628L381.52 566.583L238.355 483.927Z" fill="#677FD7"/>
<path opacity="0.3" d="M238.355 483.927L387.244 397.971L530.409 480.628L381.52 566.583L238.355 483.927Z" fill="black"/>
<path d="M238.355 483.927L221.169 474.016L370.058 388.046L387.244 397.971L238.355 483.927Z" fill="#677FD7"/>
<path opacity="0.1" d="M238.355 483.927L221.169 474.016L370.058 388.046L387.244 397.971L238.355 483.927Z" fill="black"/>
<path d="M221.169 474.016V493.852L381.52 586.433V566.583L221.169 474.016Z" fill="#677FD7"/>
<path opacity="0.2" d="M221.169 474.016V493.852L381.52 586.433V566.583L221.169 474.016Z" fill="black"/>
<path d="M381.52 566.583L530.409 480.628V500.464L381.52 586.433V566.583Z" fill="#677FD7"/>
<path d="M502.636 451.262L387.244 397.971L238.355 483.969L381.52 550.103L510.362 475.665C518.228 471.112 525.869 463.428 525.39 453.334C520.907 455.576 513.689 456.408 502.636 451.262Z" fill="#677FD7"/>
<path opacity="0.3" d="M502.636 451.262L387.244 397.971L238.355 483.969L381.52 550.103L510.362 475.665C518.228 471.112 525.869 463.428 525.39 453.334C520.907 455.576 513.689 456.408 502.636 451.262Z" fill="white"/>
<g opacity="0.7">
<path opacity="0.7" d="M395.717 427.507C395.04 428.223 394.628 429.147 394.546 430.129C393.827 433.851 392.206 435.768 387.695 438.588C385.524 439.899 385.326 440.928 383.973 442.366C380.815 445.693 379.49 443.155 376.501 441.943C375.641 441.605 374.64 442.14 374.809 442.662C375.486 444.918 379.264 451.205 372.807 451.586C369.48 451.783 368.395 449.88 365.617 448.893C362.474 447.78 364.208 454.533 364.518 455.717C364.783 457.03 364.915 458.367 364.912 459.707C364.996 460.518 364.885 461.338 364.588 462.098C364.292 462.858 363.818 463.537 363.207 464.077C362.466 464.511 361.626 464.749 360.768 464.768C358.491 465.057 356.179 464.879 353.972 464.246C354.339 463.372 355.199 462.836 355.566 461.849C355.958 460.797 356.089 459.665 355.946 458.55C355.613 456.101 354.454 453.838 352.661 452.136C351.153 450.726 346.797 448.597 343.751 449.951C340.706 451.304 342.342 455.59 343.089 457.296C344.245 459.735 347.022 462.174 350.321 464.105C348.555 464.994 346.646 465.567 344.682 465.797C341.482 466.29 338.916 466.093 337.929 468.222C337.421 469.335 338.394 471.239 337.28 472.155C335.208 473.861 333.051 472.042 331.232 472.24C328.822 472.522 328.074 472.945 328.06 474.524C328.06 475.017 328.808 475.75 328.652 476.187L329.047 476.793C327.955 476.998 326.826 476.855 325.819 476.384C325.382 476.272 322.999 475.341 322.999 475.355C322.718 475.254 322.412 475.24 322.123 475.315C321.834 475.391 321.574 475.552 321.378 475.778C320.25 478.104 321.124 480.36 321.589 482.644C318.093 477.851 315.71 473.001 309.099 468.983C305.504 466.812 299.23 464.091 294.747 467.038C288.008 471.535 290.278 483.701 299.498 486.648C299.688 486.68 299.883 486.669 300.069 486.615C300.255 486.562 300.426 486.467 300.569 486.338L301.331 485.619C301.979 485.012 300.964 484.209 300.104 484.928C298.384 486.338 294.141 478.795 293.985 478.274C293.224 475.553 292.985 472.197 294.944 469.617C299.089 464.133 307.957 470.125 311.34 472.945C316.387 477.174 317.882 482.01 321.857 486.465C322.506 487.184 324.127 487.127 324.31 486.281C324.945 483.307 322.9 480.374 323.535 477.442C326.044 478.598 330.302 480.698 331.895 478.513C332.67 477.47 331.035 476.244 331.543 475.144C332.304 473.466 332.064 474.495 334.447 474.834C335.318 475.017 336.216 475.045 337.097 474.918C337.976 474.763 338.765 474.286 339.311 473.579C341.298 471.295 339.014 468.884 344.16 467.545C346.98 466.784 349.391 467.066 351.928 465.712L352.591 465.318L354.113 466.008C358.484 467.827 363.742 467.418 365.984 464.486C367.199 462.638 367.732 460.425 367.492 458.226C367.577 456.775 367.577 455.321 367.492 453.87C367.285 452.981 366.997 452.113 366.632 451.276C369.071 452.686 371.2 454.617 374.922 453.489C380.223 451.882 379.01 447.625 377.897 444.509C381.012 446.172 383.846 447.878 386.088 444.185C387.286 442.211 387.681 440.886 390.317 439.321C391.756 438.548 393.116 437.637 394.377 436.6C397.197 433.921 395.533 430.961 397.634 428.268C398.184 427.479 396.562 426.661 395.717 427.507ZM348.235 460.285C346.12 458.536 344.259 455.9 344.71 453.701C344.992 452.291 346.642 450.613 349.348 452.023C351.787 453.292 353.112 456.915 353.31 458.691C353.424 459.478 353.346 460.281 353.08 461.03C352.815 461.779 352.371 462.452 351.787 462.991C350.548 462.164 349.361 461.26 348.235 460.285Z" fill="black"/>
<path opacity="0.7" d="M425.238 449.274C424.3 449.639 423.391 450.072 422.517 450.571C420.755 451.533 418.772 452.019 416.765 451.981L416.864 451.727C417.512 449.33 415.665 446.342 413.156 444.424C412.254 443.616 411.127 443.101 409.926 442.95C408.724 442.799 407.505 443.018 406.431 443.578C403.823 445.143 405.515 448.104 407.08 449.697C408.727 451.3 410.778 452.426 413.015 452.954C411.864 453.89 410.563 454.624 409.166 455.125C406.868 456.041 405.797 456.013 405.712 457.944C405.791 458.97 405.989 459.982 406.304 460.961C406.685 462.907 406.304 465.191 402.075 464.951C400.224 464.805 398.414 464.327 396.732 463.541C395.914 463.203 395.068 463.541 394.998 464.063C394.758 465.684 395.477 467.319 395.392 468.941C395.167 473.466 388.724 468.941 386.722 467.601C385.679 466.882 384.481 467.601 384.889 468.377C386.215 470.858 385.608 474.016 384.889 476.554C384.523 477.865 383.973 480.402 381.971 481.277C381.112 481.661 380.157 481.78 379.229 481.616C378.302 481.453 377.445 481.015 376.769 480.36C378.957 476.736 379.65 472.403 378.7 468.278C378.151 466.333 376.755 464.049 372.807 465.162C368.07 466.572 368.578 470.379 369.494 472.789C370.675 475.613 372.34 478.209 374.415 480.459C371.722 484.942 366.773 488.692 360.5 492.414C359.696 492.907 360.373 493.951 361.473 493.344C367.958 489.763 372.61 486.606 375.895 481.784C376.998 482.791 378.422 483.373 379.915 483.428C381.407 483.482 382.87 483.004 384.043 482.08C387.582 479.5 388.569 474.509 387.836 470.632C390.021 472.155 392.77 473.635 395.421 472.789C399.03 471.619 397.634 467.926 397.282 465.501C400.017 466.53 403.499 467.475 406.375 466.361C410.604 464.711 407.785 461.511 408.095 459.241C408.391 456.563 411.873 456.845 414.312 455.153C414.961 454.696 415.525 454.128 415.975 453.475C420.275 453.743 424.674 452.376 427.141 449.373C427.183 449.321 427.214 449.262 427.232 449.198C427.251 449.135 427.256 449.068 427.248 449.002C427.241 448.937 427.219 448.873 427.186 448.816C427.153 448.758 427.109 448.708 427.056 448.668L426.591 448.273C425.844 447.596 424.674 448.738 425.238 449.274ZM373.611 476.145C372.525 474.411 369.537 469.857 371.186 467.686C371.379 467.453 371.613 467.257 371.877 467.108C372.306 466.878 372.779 466.741 373.264 466.705C373.75 466.668 374.238 466.734 374.697 466.897C375.385 467.163 375.975 467.634 376.386 468.247C376.797 468.86 377.009 469.584 376.995 470.322C376.978 471.507 376.884 472.689 376.713 473.861C376.557 475.547 376.108 477.193 375.387 478.725C374.747 477.899 374.154 477.038 373.611 476.145ZM408.391 448.541C407.893 448.11 407.568 447.515 407.474 446.863C407.501 446.357 407.712 445.878 408.068 445.517C408.424 445.156 408.9 444.937 409.406 444.904C411.253 444.72 412.296 446.074 413.269 447.343C413.466 447.596 415.256 451.572 414.439 451.417C412.18 451.184 410.067 450.19 408.447 448.597L408.391 448.541Z" fill="black"/>
<path opacity="0.7" d="M368.804 508.753C369.833 512.983 373.357 516.648 375.979 520.032C378.746 523.759 382.137 526.979 386.003 529.548C387.117 530.253 387.991 529.153 387.582 528.575C386.967 527.432 386.204 526.375 385.312 525.431C385.002 525.149 384.283 525.347 383.902 525.643C381.464 523.246 379.673 520.596 377.629 518.115C375.176 515.21 371.567 511.432 370.467 508.246C370.242 507.344 368.648 508.161 368.804 508.753Z" fill="black"/>
<path opacity="0.7" d="M391.614 503.918C389.148 503.411 386.61 503.368 384.128 503.791C384.352 503.502 384.632 503.261 384.951 503.083C385.271 502.905 385.623 502.793 385.986 502.755C386.35 502.717 386.717 502.753 387.067 502.861C387.416 502.968 387.74 503.146 388.019 503.382C388.851 503.876 389.951 502.72 389.203 502.254C388.225 501.75 387.133 501.508 386.033 501.553C384.933 501.597 383.864 501.926 382.93 502.508C382.246 502.759 381.641 503.188 381.178 503.751C380.714 504.313 380.409 504.989 380.293 505.708C380.293 505.708 380.293 505.793 380.293 505.835C380.286 506.879 380.4 507.919 380.632 508.937C381.196 512.56 383.917 515.521 386.877 518.707C388.013 520.059 389.463 521.112 391.099 521.776C392.736 522.439 394.51 522.692 396.266 522.513C405.529 521.512 403.315 512.926 400.313 509.656C398.099 507.16 396.393 504.862 391.614 503.918ZM399.241 518.932C392.812 524.924 385.721 514.886 384.072 512.419C383.162 511.048 382.672 509.441 382.662 507.795C382.699 507.111 382.837 506.436 383.071 505.793C394.138 502.099 404.824 513.73 399.241 518.932Z" fill="black"/>
<path opacity="0.7" d="M402.244 497.884C402.005 497.813 401.75 497.822 401.516 497.908C401.282 497.995 401.083 498.154 400.947 498.363C400.778 498.786 400.566 499.195 400.411 499.618C400.256 500.041 400.679 500.027 401.06 499.999C401.249 499.997 401.435 499.952 401.604 499.866C401.773 499.78 401.919 499.657 402.032 499.505C402.188 499.28 402.399 499.04 402.568 498.814C402.646 498.744 402.701 498.652 402.727 498.55C402.752 498.448 402.748 498.341 402.713 498.242C402.679 498.143 402.616 498.056 402.532 497.993C402.449 497.929 402.349 497.891 402.244 497.884Z" fill="black"/>
<path opacity="0.7" d="M419.246 487.663C417.764 487.078 416.156 486.882 414.577 487.094C412.998 487.307 411.499 487.92 410.223 488.875C407.404 490.99 408.207 493.612 408.997 496.065C409.237 496.812 410.9 496.22 410.731 495.642C410.294 494.585 410.018 493.468 409.913 492.329C412.169 495.008 414.143 497.898 416.483 500.689C416.286 500.943 416.102 501.197 415.877 501.437C415.369 502.015 416.582 503.072 417.47 502.353L417.724 502.113C419.697 504.363 421.969 506.331 424.477 507.964C425.633 508.782 427.071 507.499 425.971 506.78C423.381 505.074 421.037 503.02 419.007 500.675C419.669 499.731 420.177 498.702 420.797 497.757C421.697 496.603 422.389 495.3 422.841 493.908C423.405 491.653 422.503 489.214 419.246 487.663ZM419.246 489.594C422.066 491.695 420.867 494.106 419.359 496.361C418.767 497.249 418.203 498.18 417.611 499.096C415.355 496.404 413.381 493.626 411.196 491.075C411.083 490.95 410.936 490.862 410.772 490.822C410.609 490.782 410.438 490.791 410.28 490.849C410.28 490.764 410.364 490.68 410.421 490.595C412.028 488.438 416.568 487.578 419.274 489.594H419.246Z" fill="black"/>
<path opacity="0.7" d="M459.003 478.217C458.234 479.457 457.058 480.389 455.675 480.854C452.306 482.151 449.233 480.557 446.921 479.035C444.89 477.625 444.369 475.75 442.691 474.284C442.032 473.591 441.219 473.064 440.317 472.745C439.415 472.426 438.451 472.326 437.503 472.451C432.315 473.607 434.683 479.712 435.388 483.123C433.817 482.173 432.022 481.657 430.186 481.629C430.001 481.608 429.814 481.629 429.639 481.69C429.463 481.751 429.303 481.85 429.171 481.981C428.735 482.586 428.461 483.292 428.375 484.032C428.288 484.772 428.393 485.522 428.678 486.211C426.634 484.519 424.66 482.799 422.658 481.093C421.798 480.346 420.374 481.375 421.065 481.981C424.491 484.984 427.846 487.987 431.624 490.849C432.597 491.596 433.626 490.934 433.203 489.806C432.851 488.904 431.582 488.213 431.018 487.409C430.69 487.021 430.493 486.54 430.456 486.034C430.418 485.527 430.54 485.022 430.807 484.59C431.004 484.372 431.246 484.199 431.516 484.083C431.786 483.966 432.077 483.908 432.371 483.913C432.956 483.92 433.534 484.035 434.077 484.251C434.881 484.533 437.7 486.662 437.616 484.688C437.551 482.77 437.362 480.858 437.052 478.964C436.811 478.136 436.811 477.256 437.052 476.427C437.209 476.056 437.459 475.731 437.777 475.485C438.096 475.238 438.472 475.077 438.871 475.017C439.267 474.963 439.67 474.99 440.055 475.097C440.441 475.203 440.8 475.387 441.112 475.637C442.635 476.836 443.452 478.556 444.89 479.867C445.929 480.832 447.113 481.627 448.401 482.221C453.927 484.646 460.314 481.756 460.638 478.217C460.765 477.456 459.2 477.639 459.003 478.217Z" fill="black"/>
</g>
</svg>
