<svg width="466" height="774" viewBox="0 0 466 774" fill="none" xmlns="http://www.w3.org/2000/svg">
<mask id="mask0" mask-type="alpha" maskUnits="userSpaceOnUse" x="0" y="0" width="466" height="774">
<path d="M0 20C0 8.95432 8.95431 0 20 0H466V774H20C8.9543 774 0 765.046 0 754V20Z" fill="#94A9E5"/>
</mask>
<g mask="url(#mask0)">
<rect x="-53" y="-57" width="825" height="1033" fill="#94A9E5"/>
<path d="M188 738.844C333.251 738.844 451 674.452 451 595.02C451 515.588 333.251 451.196 188 451.196C42.7491 451.196 -75 515.588 -75 595.02C-75 674.452 42.7491 738.844 188 738.844Z" fill="#F5F5F5"/>
<path d="M77.7442 666.361C108.531 666.361 133.488 651.954 133.488 634.181C133.488 616.408 108.531 602 77.7442 602C46.9575 602 22 616.408 22 634.181C22 651.954 46.9575 666.361 77.7442 666.361Z" fill="#E0E0E0"/>
<path d="M-59 354.819C-54.2325 352.304 -47.7606 352.793 -40.6331 356.917C-37.2224 358.932 -34.0959 361.393 -31.3365 364.235C-21.2651 374.39 -14.1138 389.729 -14.1138 402.864C-14.1138 419.8 -2.19506 440.372 12.4293 448.847L38.9724 464.162L152.094 398.871L125.586 383.543C110.938 375.093 99.0431 354.497 99.0431 337.573C99.0431 320.648 87.1244 300.076 72.5 291.614C65.3487 287.454 58.7457 287.013 53.9663 289.635L53.3227 289.993L16.0049 311.554L10.0455 314.951L-59 354.819Z" fill="#E6E6E6"/>
<path d="M276.323 445.879C276.193 445.792 276.039 445.746 275.882 445.746C275.725 445.746 275.572 445.792 275.441 445.879L272.187 447.774C271.839 448.009 271.55 448.322 271.343 448.688C271.137 449.055 271.018 449.464 270.996 449.883V488.107L408.062 565.877L413.461 525.008L276.323 445.879Z" fill="#263238"/>
<path d="M413.401 524.96C413.265 524.912 413.119 524.897 412.975 524.918C412.832 524.939 412.696 524.994 412.579 525.079L409.254 526.927C408.891 527.14 408.594 527.45 408.395 527.82L271.294 448.668C271.503 448.304 271.797 447.997 272.152 447.774L275.429 445.891C275.56 445.804 275.714 445.758 275.87 445.758C276.027 445.758 276.181 445.804 276.311 445.891L413.401 524.96Z" fill="#455A64"/>
<path d="M412.579 525.067L409.254 526.926C408.904 527.161 408.614 527.473 408.407 527.84C408.2 528.206 408.082 528.616 408.062 529.036V565.841L413.783 569.107V525.735C413.795 524.996 413.246 524.686 412.579 525.067Z" fill="#37474F"/>
<path d="M408.074 565.877V568.392L399.504 572.206L262.366 493.018L270.936 488.107L408.074 565.877Z" fill="black"/>
<path d="M402.365 577.164L412.579 571.205C412.929 570.971 413.22 570.659 413.427 570.292C413.634 569.926 413.752 569.516 413.771 569.095L408.05 565.829C408.032 566.25 407.914 566.661 407.707 567.027C407.5 567.394 407.209 567.706 406.858 567.939L403.58 569.834C402.913 570.216 402.388 569.906 402.388 569.131L402.365 577.164Z" fill="#37474F"/>
<path d="M426.4 580.811C427.036 580.375 427.561 579.797 427.933 579.122C428.305 578.448 428.515 577.695 428.545 576.925V453.244C428.504 452.449 428.274 451.675 427.877 450.985C427.479 450.296 426.924 449.71 426.257 449.275L267.594 357.667C266.932 357.25 266.168 357.022 265.385 357.007C264.603 356.992 263.831 357.191 263.153 357.582C262.475 357.973 261.916 358.542 261.537 359.227C261.159 359.912 260.974 360.687 261.003 361.469V485.151C261.047 485.947 261.278 486.721 261.678 487.41C262.078 488.1 262.635 488.686 263.303 489.12L422.002 580.727C422.679 581.081 423.428 581.272 424.191 581.286C424.954 581.301 425.71 581.138 426.4 580.811Z" fill="#6582F8"/>
<path d="M424.255 455.722V579.403C424.255 580.857 423.23 581.453 421.966 580.726L263.303 489.118C262.635 488.684 262.078 488.099 261.678 487.409C261.278 486.719 261.047 485.945 261.003 485.149V361.468C261.003 360.014 262.04 359.418 263.303 360.145L422.002 451.753C422.662 452.191 423.211 452.779 423.602 453.468C423.993 454.158 424.217 454.93 424.255 455.722Z" fill="#6582F8"/>
<path opacity="0.2" d="M428.545 453.243V576.924C428.515 577.694 428.305 578.446 427.933 579.121C427.561 579.795 427.036 580.374 426.4 580.809C425.788 581.106 425.121 581.271 424.441 581.293C423.762 581.316 423.085 581.196 422.455 580.94C423.48 581.274 424.255 580.678 424.255 579.403V455.71C424.224 454.915 423.994 454.141 423.587 453.457L427.866 450.978C428.283 451.662 428.517 452.442 428.545 453.243Z" fill="black"/>
<path d="M411.359 487.962V507.473C411.359 508.939 410.333 509.523 409.07 508.796L383.576 494.029C382.91 493.595 382.356 493.011 381.959 492.324C381.561 491.636 381.331 490.865 381.287 490.072V470.596C381.287 469.142 382.312 468.546 383.576 469.273L409.07 483.993C409.737 484.428 410.292 485.014 410.69 485.703C411.088 486.393 411.317 487.167 411.359 487.962Z" fill="#455A64"/>
<path d="M377.25 472.446L376.731 473.344L415.389 495.682L415.908 494.784L377.25 472.446Z" fill="white"/>
<path d="M403.29 487.795H402.253V497.735H403.29V487.795Z" fill="white"/>
<path d="M390.405 480.394H389.368V490.322H390.405V480.394Z" fill="white"/>
<path d="M377.248 482.413L376.729 483.311L415.387 505.649L415.906 504.751L377.248 482.413Z" fill="white"/>
<path d="M411.359 525.172V529.785C411.359 531.251 410.333 531.835 409.07 531.108L383.576 516.388C382.91 515.955 382.356 515.371 381.959 514.683C381.561 513.996 381.331 513.224 381.287 512.431V507.795C381.287 506.329 382.312 505.745 383.576 506.472L409.07 521.192C409.739 521.627 410.295 522.215 410.693 522.907C411.09 523.599 411.319 524.375 411.359 525.172Z" fill="#FAFAFA"/>
<path d="M375.519 504.493V509.13C375.519 510.584 374.494 511.18 373.23 510.453L347.736 495.733C347.069 495.299 346.514 494.713 346.116 494.023C345.719 493.333 345.489 492.559 345.448 491.764V487.14C345.448 485.674 346.473 485.078 347.736 485.817L373.23 500.536C373.896 500.97 374.45 501.554 374.847 502.241C375.245 502.929 375.475 503.7 375.519 504.493Z" fill="#FAFAFA"/>
<path d="M339.762 483.826V488.463C339.762 489.917 338.737 490.513 337.474 489.786L311.98 475.066C311.312 474.631 310.757 474.045 310.36 473.356C309.962 472.666 309.733 471.892 309.691 471.097V466.461C309.691 465.006 310.716 464.41 311.98 465.138L337.474 479.857C338.14 480.293 338.694 480.88 339.091 481.569C339.489 482.258 339.719 483.032 339.762 483.826Z" fill="#FAFAFA"/>
<path d="M304.006 463.159V467.807C304.006 469.273 302.981 469.869 301.718 469.13L276.223 454.423C275.558 453.986 275.005 453.399 274.607 452.71C274.21 452.021 273.979 451.248 273.935 450.454V445.817C273.935 444.363 274.96 443.767 276.223 444.494L301.718 459.214C302.382 459.646 302.935 460.228 303.332 460.914C303.73 461.599 303.96 462.368 304.006 463.159Z" fill="#FAFAFA"/>
<path opacity="0.15" d="M288.154 468.749L294.006 472.122C294.404 472.385 294.736 472.737 294.974 473.151C295.212 473.565 295.35 474.029 295.377 474.506V476.293C295.377 477.164 294.757 477.485 294.006 477.08L288.154 473.767C287.755 473.504 287.423 473.152 287.185 472.738C286.947 472.324 286.809 471.86 286.783 471.383V469.595C286.783 468.665 287.403 468.308 288.154 468.749Z" fill="black"/>
<path opacity="0.15" d="M275.27 461.312L281.11 464.685C281.512 464.945 281.847 465.297 282.087 465.711C282.327 466.125 282.466 466.59 282.493 467.068V468.856C282.493 469.738 281.873 470.048 281.11 469.655L275.27 466.282C274.869 466.021 274.536 465.669 274.298 465.254C274.06 464.84 273.923 464.375 273.899 463.898V462.11C273.899 461.228 274.507 460.871 275.27 461.312Z" fill="black"/>
<path opacity="0.15" d="M349.047 516.305L276.342 474.303C275.079 473.576 274.054 474.16 274.054 475.626V477.771C274.096 478.566 274.325 479.34 274.723 480.03C275.12 480.72 275.675 481.306 276.342 481.74L349.047 523.742C350.31 524.469 351.335 523.885 351.335 522.419V520.25C351.29 519.459 351.059 518.69 350.662 518.005C350.264 517.319 349.711 516.737 349.047 516.305Z" fill="black"/>
<path d="M275.89 395.162C274.859 393.185 274.343 390.98 274.388 388.75C274.388 386.366 274.876 384.769 275.854 384.054C276.831 383.339 278.238 383.53 280.073 384.578C280.819 385.009 281.519 385.516 282.159 386.092C282.76 386.619 283.293 387.22 283.744 387.88C283.838 388.004 283.892 388.154 283.899 388.309C283.904 388.416 283.87 388.522 283.804 388.607L283.255 389.572C283.184 389.68 283.112 389.715 283.041 389.668C282.932 389.596 282.838 389.503 282.767 389.394C282.126 388.527 281.315 387.801 280.383 387.26C279.298 386.64 278.452 386.569 277.856 387.058C277.26 387.546 276.962 388.607 276.962 390.252C276.923 391.724 277.242 393.185 277.892 394.507C278.466 395.641 279.356 396.585 280.454 397.224C281.182 397.731 282.062 397.971 282.945 397.904C283.035 397.877 283.13 397.877 283.22 397.904C283.291 397.904 283.363 398.023 283.434 398.261L284.054 400.025C284.086 400.117 284.106 400.214 284.114 400.311C284.114 400.395 284.054 400.466 283.923 400.514C283.1 400.824 281.837 400.514 280.121 399.501C278.332 398.479 276.866 396.976 275.89 395.162Z" fill="white"/>
<path d="M285.556 402.123C285.434 401.883 285.376 401.616 285.389 401.348V388.881C285.389 388.583 285.389 388.38 285.556 388.285C285.723 388.19 285.842 388.226 286.092 388.369L290.085 390.669C291.339 391.341 292.378 392.353 293.084 393.588C293.79 394.823 294.135 396.232 294.078 397.653C294.125 398.432 293.964 399.209 293.613 399.906C293.47 400.15 293.265 400.352 293.017 400.488C292.769 400.624 292.489 400.691 292.206 400.681L293.863 406.473C293.879 406.58 293.879 406.688 293.863 406.795C293.863 407.045 293.756 407.105 293.529 406.974L291.777 405.973C291.656 405.904 291.548 405.815 291.455 405.71C291.357 405.581 291.292 405.43 291.265 405.269L289.858 399.87L287.987 398.786V402.91C288.014 403.117 287.958 403.327 287.832 403.494C287.725 403.589 287.534 403.494 287.272 403.398L286.08 402.719C285.847 402.58 285.663 402.372 285.556 402.123ZM289.703 397.224C290.299 397.57 290.752 397.653 291.05 397.498C291.348 397.343 291.503 396.879 291.503 396.152C291.523 395.518 291.38 394.89 291.086 394.328C290.807 393.828 290.394 393.415 289.894 393.136L288.023 392.051V396.247L289.703 397.224Z" fill="white"/>
<path d="M295.544 407.892C295.422 407.652 295.364 407.385 295.377 407.117V394.65C295.377 394.34 295.377 394.149 295.544 394.054C295.711 393.958 295.83 393.994 296.08 394.137L302.623 397.916C302.844 398.027 303.026 398.201 303.148 398.416C303.254 398.656 303.302 398.917 303.291 399.179V399.954C303.319 400.171 303.268 400.39 303.148 400.573C303.052 400.657 302.874 400.573 302.623 400.478L297.975 397.796V401.062L301.217 402.945C301.438 403.05 301.621 403.221 301.741 403.434C301.847 403.678 301.896 403.943 301.884 404.209V404.936C301.912 405.153 301.861 405.373 301.741 405.555C301.646 405.639 301.479 405.555 301.217 405.46L297.975 403.589V407.021L302.611 409.703C302.83 409.814 303.009 409.988 303.124 410.204C303.228 410.448 303.277 410.713 303.267 410.979V411.741C303.267 412.063 303.267 412.266 303.124 412.337C302.981 412.409 302.862 412.337 302.611 412.242L296.08 408.476C295.844 408.342 295.657 408.138 295.544 407.892Z" fill="white"/>
<path d="M304.59 413.112C304.468 412.873 304.411 412.606 304.423 412.337V399.87C304.423 399.572 304.423 399.37 304.59 399.274C304.757 399.179 304.876 399.215 305.126 399.358L308.44 401.277C310.158 402.234 311.577 403.649 312.54 405.365C313.524 407.287 314.004 409.428 313.934 411.586C313.934 413.97 313.47 415.555 312.516 416.175C311.563 416.795 310.216 416.58 308.44 415.555L305.126 413.648C304.898 413.527 304.711 413.341 304.59 413.112ZM308.559 413.112C309.501 413.648 310.192 413.708 310.657 413.279C311.122 412.85 311.348 411.801 311.348 410.12C311.412 408.77 311.176 407.423 310.657 406.175C310.205 405.23 309.473 404.447 308.559 403.935L307.021 403.041V412.218L308.559 413.112Z" fill="white"/>
<path d="M315.4 419.357C315.279 419.114 315.221 418.843 315.233 418.571V406.116C315.233 405.806 315.233 405.615 315.4 405.52C315.567 405.424 315.686 405.46 315.937 405.603L317.129 406.283C317.361 406.406 317.555 406.592 317.689 406.819C317.796 407.071 317.849 407.343 317.844 407.617V420.132C317.87 420.343 317.814 420.556 317.689 420.728C317.581 420.812 317.391 420.788 317.129 420.633L315.937 419.953C315.702 419.813 315.515 419.606 315.4 419.357Z" fill="white"/>
<path d="M322.218 423.291C322.1 423.05 322.043 422.784 322.051 422.516V411.694L319.5 410.204C319.282 410.093 319.103 409.919 318.988 409.703C318.882 409.463 318.833 409.202 318.845 408.94V408.213C318.817 407.996 318.868 407.777 318.988 407.594C319.083 407.51 319.25 407.594 319.5 407.689L327.283 412.182C327.505 412.302 327.69 412.479 327.82 412.695C327.924 412.944 327.973 413.212 327.963 413.481V414.173C327.963 414.483 327.963 414.673 327.82 414.757C327.677 414.84 327.534 414.757 327.283 414.661L324.697 413.172V423.994C324.697 424.304 324.697 424.494 324.542 424.578C324.387 424.661 324.244 424.578 323.982 424.471L322.79 423.803C322.555 423.69 322.356 423.512 322.218 423.291Z" fill="white"/>
<path d="M335.77 429.727C334.741 427.753 334.224 425.552 334.268 423.326C334.268 420.943 334.756 419.334 335.734 418.63C336.711 417.927 338.118 418.094 339.953 419.155C340.699 419.581 341.398 420.084 342.039 420.657C342.634 421.19 343.166 421.79 343.624 422.444C343.717 422.569 343.771 422.718 343.779 422.873C343.786 422.981 343.752 423.088 343.684 423.171L343.135 424.137C343.064 424.256 342.992 424.292 342.909 424.244C342.808 424.162 342.719 424.066 342.647 423.958C342.004 423.096 341.193 422.375 340.263 421.837C339.19 421.205 338.344 421.145 337.748 421.634C337.152 422.123 336.842 423.183 336.842 424.816C336.806 426.294 337.129 427.758 337.784 429.083C338.364 430.213 339.253 431.155 340.346 431.801C341.078 432.298 341.955 432.537 342.837 432.48C342.922 432.447 343.015 432.447 343.1 432.48C343.207 432.575 343.286 432.699 343.326 432.838L343.934 434.602C343.975 434.692 343.999 434.789 344.005 434.888C344.005 434.971 343.934 435.043 343.815 435.102C342.992 435.412 341.729 435.102 340.013 434.077C338.216 433.057 336.745 431.548 335.77 429.727Z" fill="white"/>
<path d="M344.53 436.056C344.519 435.957 344.519 435.857 344.53 435.758L348.618 425.15C348.69 424.947 348.773 424.828 348.856 424.792C348.924 424.778 348.994 424.777 349.062 424.792C349.13 424.806 349.194 424.835 349.25 424.876L350.442 425.543C350.598 425.627 350.729 425.75 350.823 425.901C350.928 426.101 351.009 426.313 351.061 426.533L355.138 441.848C355.153 441.971 355.153 442.095 355.138 442.218C355.138 442.456 355.042 442.516 354.852 442.408L352.945 441.3C352.82 441.231 352.711 441.138 352.623 441.026C352.537 440.887 352.476 440.733 352.444 440.573L351.717 437.677L347.891 435.46L347.176 437.534C347.176 437.677 347.069 437.748 346.997 437.772C346.941 437.78 346.883 437.777 346.828 437.763C346.773 437.748 346.721 437.723 346.675 437.689L344.768 436.58C344.684 436.523 344.617 436.444 344.575 436.352C344.533 436.259 344.517 436.157 344.53 436.056ZM351.169 434.864L349.893 429.667L348.57 433.445L351.169 434.864Z" fill="white"/>
<path d="M356.699 443.195C356.576 442.956 356.518 442.689 356.532 442.42V429.965C356.532 429.655 356.532 429.453 356.699 429.369C356.866 429.286 356.985 429.298 357.235 429.453L361.228 431.753C362.486 432.418 363.53 433.426 364.239 434.66C364.947 435.894 365.292 437.304 365.233 438.725C365.277 439.505 365.112 440.283 364.756 440.978C364.614 441.223 364.408 441.424 364.16 441.56C363.912 441.697 363.632 441.763 363.35 441.753L365.006 447.545C365.022 447.652 365.022 447.76 365.006 447.867C365.006 448.117 364.899 448.177 364.673 448.058L362.921 447.045C362.797 446.979 362.688 446.89 362.599 446.783C362.507 446.654 362.443 446.508 362.408 446.353L360.954 440.895L359.083 439.81V443.97C359.108 444.181 359.052 444.394 358.928 444.566C358.82 444.649 358.63 444.566 358.368 444.458L357.176 443.779C356.962 443.636 356.796 443.433 356.699 443.195ZM360.847 438.296C361.443 438.642 361.896 438.737 362.194 438.571C362.491 438.404 362.646 437.963 362.646 437.236C362.668 436.598 362.524 435.966 362.229 435.4C361.95 434.9 361.538 434.487 361.037 434.208L359.166 433.124V437.331L360.847 438.296Z" fill="white"/>
<path d="M366.687 448.964C366.569 448.723 366.512 448.457 366.52 448.189V435.734C366.507 435.627 366.514 435.518 366.543 435.413C366.572 435.309 366.62 435.211 366.687 435.126C366.794 435.043 366.973 435.066 367.223 435.209L370.537 437.128C372.255 438.086 373.674 439.501 374.637 441.216C375.621 443.139 376.101 445.28 376.031 447.438C376.031 449.881 375.566 451.407 374.613 452.027C373.659 452.647 372.313 452.432 370.537 451.407L367.223 449.5C366.995 449.379 366.808 449.192 366.687 448.964ZM370.668 448.964C371.597 449.5 372.301 449.56 372.754 449.131C373.206 448.701 373.457 447.653 373.457 445.972C373.517 444.621 373.277 443.274 372.754 442.027C372.307 441.082 371.578 440.3 370.668 439.786L369.118 438.892V448.07L370.668 448.964Z" fill="white"/>
<path opacity="0.5" d="M427.866 450.978L423.587 453.505C423.198 452.81 422.64 452.224 421.966 451.8L263.291 360.145C262.1 359.489 261.194 359.918 261.027 361.098C261.059 360.348 261.287 359.619 261.69 358.985C262.092 358.351 262.654 357.835 263.32 357.487C263.985 357.139 264.731 356.972 265.481 357.004C266.231 357.035 266.96 357.263 267.594 357.666L426.257 449.274C426.933 449.691 427.488 450.279 427.866 450.978Z" fill="#FAFAFA"/>
<path d="M402.007 531.611L388.443 538.988C388.216 539.503 388.095 540.058 388.086 540.621V583.994C388.078 584.124 388.096 584.254 388.139 584.377C388.182 584.499 388.249 584.612 388.336 584.709L251.27 505.604C251.146 505.519 251.048 505.402 250.985 505.266C250.922 505.129 250.897 504.978 250.912 504.829V461.445C250.934 461.025 251.053 460.616 251.26 460.25C251.467 459.884 251.756 459.571 252.104 459.335L263.963 452.47C264.088 452.373 264.238 452.315 264.395 452.304C264.553 452.294 264.709 452.331 264.845 452.41L402.007 531.611Z" fill="#263238"/>
<path opacity="0.5" d="M402.019 531.599L276.669 459.204L270.948 455.902L264.905 452.41C264.769 452.331 264.612 452.294 264.455 452.304C264.298 452.315 264.147 452.373 264.023 452.47L252.164 459.335C251.807 459.557 251.515 459.87 251.318 460.241L388.455 538.976L402.019 531.599Z" fill="#37474F"/>
<path d="M388.443 538.988C388.213 539.511 388.088 540.074 388.074 540.645V584.018C388.074 584.792 388.622 585.102 389.266 584.721L402.376 577.164V532.397C402.394 532.246 402.37 532.093 402.307 531.954C402.244 531.815 402.144 531.697 402.019 531.611L388.443 538.988Z" fill="#37474F"/>
<path d="M389.421 584.602L389.885 584.375L391.9 583.183C393.849 580.761 394.913 577.746 394.915 574.637V537.987C394.905 537.184 394.805 536.384 394.617 535.603L393.533 536.199C393.653 536.78 393.717 537.371 393.723 537.963V574.637C393.504 578.361 391.981 581.889 389.421 584.602Z" fill="#263238"/>
<path d="M235.644 410.694C231.02 406.952 222.605 402.101 217.432 399.121C208.732 394.08 176.205 375.284 162.606 367.429C160.719 366.471 158.632 365.972 156.516 365.972C154.399 365.972 152.312 366.471 150.425 367.429L39.5803 431.457C37.8098 432.615 36.3362 434.173 35.2783 436.005C34.2203 437.838 33.6077 439.893 33.4898 442.005V509.048C33.6087 511.162 34.2216 513.219 35.2794 515.053C36.3371 516.887 37.8102 518.447 39.5803 519.608L264.667 649.69C266.556 650.642 268.642 651.139 270.757 651.139C272.873 651.139 274.959 650.642 276.848 649.69L387.692 585.686C389.464 584.517 390.937 582.948 391.99 581.106C393.044 579.263 393.65 577.198 393.759 575.078V537.296C393.767 535.452 393.348 533.63 392.533 531.976C391.718 530.321 390.53 528.878 389.063 527.761C363.628 508.44 243.034 416.666 235.644 410.694Z" fill="#455A64"/>
<path d="M393.759 575.078V538.404C393.758 537.666 393.67 536.929 393.497 536.211L270.447 607.14C270.631 607.901 270.731 608.681 270.745 609.464V646.114C270.745 649.69 268.481 651.251 265.549 650.06H265.632C265.906 650.179 266.18 650.286 266.466 650.381L267.015 650.548C267.313 650.632 267.611 650.703 267.921 650.763C268.23 650.822 268.326 650.834 268.528 650.87L269.446 650.989H270.137H271.007H271.782L272.569 650.93C272.855 650.93 273.141 650.834 273.427 650.775L274.094 650.655C274.404 650.572 274.714 650.465 275.012 650.369C275.31 650.274 275.37 650.274 275.537 650.203C275.926 650.05 276.304 649.871 276.669 649.666C276.728 649.646 276.784 649.618 276.836 649.583L387.68 585.579L389.278 584.673C391.908 582.14 393.505 578.721 393.759 575.078Z" fill="#37474F"/>
<path d="M112.619 481.742C133.405 498.524 241.961 580.668 266.014 598.856C267.494 599.967 268.695 601.406 269.523 603.061C270.35 604.716 270.781 606.541 270.781 608.391V646.114C270.781 649.988 268.04 651.573 264.691 649.69L39.5207 519.656C37.7506 518.495 36.2775 516.934 35.2198 515.1C34.1621 513.266 33.5491 511.21 33.4302 509.096V442.005C33.4302 438.132 36.1716 436.546 39.5207 438.489L94.3472 470.145C99.5557 473.137 107.97 477.988 112.619 481.742Z" fill="#263238"/>
<path d="M111.951 460.014C117.124 462.994 125.539 467.845 130.199 471.611C134.698 475.319 138.965 479.3 142.976 483.53C143.852 484.383 144.975 484.936 146.184 485.112C147.394 485.287 148.628 485.076 149.71 484.508L230.138 438.024C230.612 437.792 231.023 437.447 231.334 437.02C231.645 436.593 231.846 436.097 231.921 435.574C231.997 435.051 231.943 434.518 231.765 434.021C231.587 433.523 231.29 433.077 230.901 432.72C226.876 428.49 222.597 424.51 218.088 420.802C213.452 417.059 205.037 412.22 199.864 409.228C190.019 403.531 178.971 397.155 169.018 391.422C167.855 390.837 166.572 390.532 165.27 390.532C163.968 390.532 162.684 390.837 161.521 391.422L81.1292 437.881C79.0673 439.073 79.0673 441.016 81.1292 442.208L111.951 460.014Z" fill="#E0E0E0"/>
<path d="M161.521 395.26C162.684 394.675 163.968 394.37 165.27 394.37C166.572 394.37 167.855 394.675 169.018 395.26C178.971 400.993 190.019 407.369 199.864 413.066C205.037 416.058 213.452 420.909 218.088 424.651C222.598 428.359 226.877 432.34 230.901 436.57C231.045 436.722 231.177 436.885 231.294 437.059C230.971 437.475 230.565 437.82 230.102 438.072L149.674 484.555C148.592 485.124 147.358 485.335 146.149 485.16C144.939 484.984 143.816 484.43 142.94 483.578C138.929 479.347 134.662 475.367 130.163 471.659C125.503 467.893 117.052 463.042 111.915 460.062L81.1292 442.208C80.9862 442.124 80.879 442.029 80.7598 441.946C80.8759 441.849 80.9995 441.761 81.1292 441.683L161.521 395.26Z" fill="white"/>
<path d="M162.844 456.546L138.78 456.177V446.57L156.015 449.693L155.788 411.517L170.77 411.279L162.844 456.546Z" fill="#6582F8"/>
<path d="M232.534 457.583L233.332 454.27L236.669 453.995L247.575 447.702C252.748 444.723 259.601 445.319 262.938 449.025C263.646 449.798 264.164 450.724 264.452 451.731L265.394 451.647L264.547 455.163C264.173 456.41 263.553 457.569 262.724 458.572C261.895 459.575 260.874 460.402 259.72 461.004L246.443 468.656C245.364 469.233 244.129 469.45 242.917 469.277C241.706 469.103 240.582 468.547 239.709 467.69C237.611 465.449 235.513 463.125 233.416 460.765C233.017 460.349 232.727 459.841 232.573 459.285C232.419 458.73 232.406 458.145 232.534 457.583Z" fill="#6582F8"/>
<path opacity="0.1" d="M232.534 457.583L233.332 454.27L236.669 453.995L247.575 447.702C252.748 444.723 259.601 445.319 262.938 449.025C263.646 449.798 264.164 450.724 264.452 451.731L265.394 451.647L264.547 455.163C264.173 456.41 263.553 457.569 262.724 458.572C261.895 459.575 260.874 460.402 259.72 461.004L246.443 468.656C245.364 469.233 244.129 469.45 242.917 469.277C241.706 469.103 240.582 468.547 239.709 467.69C237.611 465.449 235.513 463.125 233.416 460.765C233.017 460.349 232.727 459.841 232.573 459.285C232.419 458.73 232.406 458.145 232.534 457.583Z" fill="black"/>
<path d="M247.158 465.354L260.435 457.69C265.62 454.699 267.003 449.347 263.665 445.7C260.328 442.053 253.475 441.397 248.302 444.377L235.025 452.041C234.548 452.282 234.134 452.632 233.818 453.062C233.501 453.493 233.291 453.992 233.204 454.519C233.117 455.047 233.156 455.587 233.317 456.097C233.478 456.606 233.757 457.07 234.131 457.452C236.228 459.836 238.33 462.144 240.436 464.377C241.306 465.235 242.427 465.792 243.637 465.968C244.846 466.144 246.08 465.929 247.158 465.354Z" fill="#6582F8"/>
<path d="M164.632 498.894L165.443 495.532L166.384 495.449C167.286 494.368 168.376 493.459 169.602 492.767L182.88 485.103C183.95 484.533 185.177 484.329 186.374 484.522C187.571 484.716 188.672 485.297 189.507 486.176C191.569 488.5 193.631 490.789 195.693 493.006L197.564 492.851L196.718 496.343C196.45 497.218 195.852 497.954 195.049 498.393L181.771 506.057C176.587 509.048 169.59 508.572 166.277 504.865C165.53 504.083 164.989 503.129 164.702 502.087C164.415 501.044 164.391 499.947 164.632 498.894Z" fill="#6582F8"/>
<path opacity="0.1" d="M164.632 498.894L165.443 495.532L166.384 495.449C167.286 494.368 168.376 493.459 169.602 492.767L182.88 485.103C183.95 484.533 185.177 484.329 186.374 484.522C187.571 484.716 188.672 485.297 189.507 486.176C191.569 488.5 193.631 490.789 195.693 493.006L197.564 492.851L196.718 496.343C196.45 497.218 195.852 497.954 195.049 498.393L181.771 506.057C176.587 509.048 169.59 508.572 166.277 504.865C165.53 504.083 164.989 503.129 164.702 502.087C164.415 501.044 164.391 499.947 164.632 498.894Z" fill="black"/>
<path d="M182.522 502.719L195.8 495.056C196.272 494.821 196.68 494.476 196.989 494.049C197.299 493.622 197.499 493.126 197.574 492.604C197.649 492.082 197.597 491.55 197.42 491.053C197.244 490.556 196.95 490.11 196.563 489.752C194.465 487.499 192.379 485.187 190.281 482.827C189.448 481.946 188.348 481.363 187.151 481.167C185.954 480.971 184.726 481.173 183.655 481.742L170.377 489.406C165.204 492.398 163.643 497.857 166.992 501.539C170.341 505.222 177.35 505.699 182.522 502.719Z" fill="#6582F8"/>
<path d="M197.862 477.916L198.649 474.639L201.199 474.472L217.087 465.294C218.425 464.583 219.96 464.33 221.455 464.573C222.951 464.816 224.326 465.543 225.37 466.641C226.96 468.453 228.569 470.229 230.198 471.969C230.355 472.145 230.498 472.332 230.627 472.529L232.212 472.434L231.389 475.854C231.244 476.432 230.981 476.972 230.616 477.442C230.25 477.912 229.791 478.301 229.268 478.584L212.236 488.405C210.892 489.13 209.351 489.405 207.839 489.19C206.327 488.976 204.923 488.283 203.833 487.213C202.224 485.473 200.603 483.697 198.994 481.885C198.492 481.369 198.127 480.736 197.929 480.043C197.731 479.351 197.708 478.62 197.862 477.916Z" fill="#6582F8"/>
<path opacity="0.1" d="M197.862 477.916L198.649 474.639L201.199 474.472L217.087 465.294C218.425 464.583 219.96 464.33 221.455 464.573C222.951 464.816 224.326 465.543 225.37 466.641C226.96 468.453 228.569 470.229 230.198 471.969C230.355 472.145 230.498 472.332 230.627 472.529L232.212 472.434L231.389 475.854C231.244 476.432 230.981 476.972 230.616 477.442C230.25 477.912 229.791 478.301 229.268 478.584L212.236 488.405C210.892 489.13 209.351 489.405 207.839 489.19C206.327 488.976 204.923 488.283 203.833 487.213C202.224 485.473 200.603 483.697 198.994 481.885C198.492 481.369 198.127 480.736 197.929 480.043C197.731 479.351 197.708 478.62 197.862 477.916Z" fill="black"/>
<path d="M199.745 478.56C201.354 480.372 202.975 482.136 204.584 483.888C205.674 484.958 207.077 485.65 208.589 485.865C210.101 486.079 211.642 485.804 212.987 485.08L230.019 475.259C230.608 474.965 231.117 474.533 231.503 474C231.889 473.467 232.14 472.849 232.235 472.198C232.33 471.546 232.265 470.882 232.048 470.261C231.83 469.64 231.465 469.081 230.984 468.632C229.375 466.892 227.766 465.056 226.157 463.292C225.113 462.194 223.737 461.468 222.24 461.227C220.744 460.986 219.21 461.243 217.873 461.957L200.853 471.778C200.254 472.079 199.735 472.517 199.337 473.058C198.94 473.598 198.677 474.225 198.569 474.886C198.461 475.548 198.511 476.226 198.715 476.865C198.92 477.503 199.273 478.084 199.745 478.56Z" fill="#6582F8"/>
<g opacity="0.75">
<path opacity="0.75" d="M247.158 465.354L260.435 457.69C265.62 454.699 267.003 449.347 263.665 445.7C260.328 442.053 253.475 441.397 248.302 444.377L235.025 452.041C234.548 452.282 234.134 452.632 233.818 453.062C233.501 453.493 233.291 453.992 233.204 454.519C233.117 455.047 233.156 455.587 233.317 456.097C233.478 456.606 233.756 457.07 234.131 457.452C236.228 459.836 238.33 462.144 240.436 464.377C241.306 465.235 242.427 465.792 243.636 465.968C244.846 466.144 246.08 465.929 247.158 465.354Z" fill="white"/>
<path opacity="0.75" d="M182.522 502.719L195.8 495.056C196.272 494.821 196.68 494.476 196.989 494.049C197.299 493.622 197.499 493.126 197.574 492.604C197.649 492.082 197.596 491.55 197.42 491.053C197.244 490.556 196.95 490.11 196.563 489.752C194.465 487.499 192.379 485.187 190.281 482.827C189.448 481.946 188.348 481.363 187.151 481.167C185.954 480.971 184.726 481.173 183.655 481.742L170.377 489.406C165.204 492.398 163.643 497.857 166.992 501.54C170.341 505.222 177.35 505.699 182.522 502.719Z" fill="white"/>
<path opacity="0.75" d="M199.745 478.56C201.354 480.372 202.975 482.136 204.584 483.888C205.674 484.958 207.077 485.65 208.589 485.865C210.101 486.079 211.642 485.804 212.987 485.08L230.019 475.259C230.608 474.965 231.117 474.533 231.503 474C231.889 473.467 232.14 472.849 232.235 472.198C232.33 471.546 232.265 470.882 232.048 470.261C231.83 469.64 231.465 469.081 230.984 468.632C229.375 466.892 227.766 465.056 226.157 463.292C225.113 462.194 223.737 461.468 222.24 461.227C220.744 460.986 219.21 461.243 217.873 461.957L200.853 471.778C200.254 472.079 199.735 472.517 199.337 473.058C198.94 473.598 198.677 474.225 198.569 474.886C198.46 475.548 198.511 476.226 198.715 476.865C198.92 477.503 199.273 478.084 199.745 478.56Z" fill="white"/>
</g>
<path d="M225.573 515.341L222.069 515.425L212.26 507.94C211.394 507.342 210.382 506.991 209.333 506.924C208.283 506.857 207.235 507.076 206.3 507.558L191.307 516.2L186.599 516.319V520.157C186.62 520.541 186.73 520.916 186.92 521.251C187.11 521.586 187.375 521.872 187.695 522.088L199.9 531.408C200.767 532.003 201.778 532.353 202.827 532.42C203.876 532.487 204.924 532.269 205.859 531.789L224.202 521.206C224.59 521.021 224.921 520.736 225.161 520.379C225.4 520.023 225.538 519.608 225.561 519.179L225.573 515.341Z" fill="#6582F8"/>
<path opacity="0.1" d="M225.573 515.341L222.069 515.425L212.26 507.94C211.394 507.342 210.382 506.991 209.333 506.924C208.283 506.857 207.235 507.076 206.3 507.558L191.307 516.2L186.599 516.319V520.157C186.62 520.541 186.73 520.916 186.92 521.251C187.11 521.586 187.375 521.872 187.695 522.088L199.9 531.408C200.767 532.003 201.778 532.353 202.827 532.42C203.876 532.487 204.924 532.269 205.859 531.789L224.202 521.206C224.59 521.021 224.921 520.736 225.161 520.379C225.4 520.023 225.538 519.608 225.561 519.179L225.573 515.341Z" fill="black"/>
<path d="M187.957 514.293L206.312 503.721C207.247 503.238 208.295 503.019 209.345 503.086C210.394 503.153 211.406 503.505 212.272 504.102L224.512 513.423C224.872 513.626 225.167 513.926 225.364 514.29C225.56 514.654 225.65 515.065 225.622 515.478C225.595 515.89 225.451 516.286 225.209 516.62C224.966 516.955 224.634 517.214 224.25 517.368L205.907 527.952C204.972 528.431 203.924 528.649 202.875 528.582C201.826 528.515 200.814 528.165 199.948 527.57L187.743 518.25C187.386 518.046 187.093 517.746 186.896 517.385C186.699 517.024 186.607 516.615 186.629 516.205C186.652 515.794 186.788 515.398 187.022 515.06C187.257 514.723 187.58 514.457 187.957 514.293Z" fill="#6582F8"/>
<path opacity="0.75" d="M187.957 514.293L206.312 503.721C207.247 503.238 208.295 503.019 209.345 503.086C210.394 503.153 211.406 503.505 212.272 504.102L224.512 513.423C224.872 513.626 225.167 513.926 225.364 514.29C225.56 514.654 225.65 515.065 225.622 515.478C225.595 515.89 225.451 516.286 225.209 516.62C224.966 516.955 224.634 517.214 224.25 517.368L205.907 527.952C204.972 528.431 203.924 528.649 202.875 528.582C201.826 528.515 200.814 528.165 199.948 527.57L187.743 518.25C187.386 518.046 187.093 517.746 186.896 517.385C186.699 517.024 186.607 516.615 186.629 516.205C186.652 515.794 186.788 515.398 187.022 515.06C187.257 514.723 187.58 514.457 187.957 514.293Z" fill="white"/>
<path d="M297.217 569.965L293.713 570.061L283.904 562.564C283.037 561.969 282.026 561.619 280.976 561.552C279.927 561.485 278.88 561.703 277.944 562.182L262.938 570.835L258.23 570.943V574.78C258.249 575.166 258.357 575.541 258.548 575.877C258.739 576.212 259.005 576.498 259.327 576.711L271.532 586.032C272.397 586.629 273.409 586.98 274.459 587.048C275.508 587.115 276.557 586.896 277.491 586.413L295.787 575.794C296.174 575.607 296.504 575.319 296.741 574.96C296.978 574.601 297.114 574.185 297.133 573.755L297.217 569.965Z" fill="#6582F8"/>
<path opacity="0.1" d="M297.217 569.965L293.713 570.061L283.904 562.564C283.037 561.969 282.026 561.619 280.976 561.552C279.927 561.485 278.88 561.703 277.944 562.182L262.938 570.835L258.23 570.943V574.78C258.249 575.166 258.357 575.541 258.548 575.877C258.739 576.212 259.005 576.498 259.327 576.711L271.532 586.032C272.397 586.629 273.409 586.98 274.459 587.048C275.508 587.115 276.557 586.896 277.491 586.413L295.787 575.794C296.174 575.607 296.504 575.319 296.741 574.96C296.978 574.601 297.114 574.185 297.133 573.755L297.217 569.965Z" fill="black"/>
<path d="M259.542 568.916L277.897 558.344C278.832 557.865 279.88 557.647 280.929 557.714C281.978 557.781 282.989 558.131 283.856 558.726L296.025 568.046C296.384 568.251 296.678 568.553 296.874 568.918C297.07 569.282 297.159 569.694 297.132 570.107C297.104 570.52 296.961 570.916 296.719 571.252C296.477 571.587 296.146 571.847 295.763 572.003L277.408 582.575C276.473 583.058 275.425 583.277 274.375 583.21C273.326 583.143 272.314 582.791 271.448 582.194L259.244 572.873C258.89 572.662 258.601 572.357 258.411 571.991C258.221 571.625 258.137 571.214 258.168 570.803C258.199 570.392 258.344 569.997 258.587 569.664C258.829 569.331 259.16 569.072 259.542 568.916Z" fill="#6582F8"/>
<path opacity="0.75" d="M259.542 568.916L277.897 558.344C278.832 557.865 279.88 557.647 280.929 557.714C281.978 557.781 282.989 558.131 283.856 558.726L296.025 568.046C296.384 568.251 296.678 568.553 296.874 568.918C297.07 569.282 297.159 569.694 297.132 570.107C297.104 570.52 296.961 570.916 296.719 571.252C296.477 571.587 296.146 571.847 295.763 572.003L277.408 582.575C276.473 583.058 275.425 583.277 274.375 583.21C273.326 583.143 272.314 582.791 271.448 582.194L259.244 572.873C258.89 572.662 258.601 572.357 258.411 571.991C258.221 571.625 258.137 571.214 258.168 570.803C258.199 570.392 258.344 569.997 258.587 569.664C258.829 569.331 259.16 569.072 259.542 568.916Z" fill="white"/>
<path d="M249.434 533.553L245.93 533.637L236.121 526.152C235.256 525.555 234.245 525.203 233.196 525.134C232.147 525.065 231.098 525.28 230.162 525.758L215.156 534.412L210.388 534.531V538.369C210.411 538.753 210.522 539.127 210.712 539.462C210.902 539.796 211.167 540.083 211.485 540.299L223.773 549.572C224.639 550.169 225.65 550.521 226.699 550.59C227.748 550.659 228.796 550.444 229.733 549.966L248.076 539.382C248.464 539.198 248.795 538.912 249.034 538.556C249.273 538.199 249.411 537.784 249.434 537.355V533.553Z" fill="#6582F8"/>
<path opacity="0.1" d="M249.434 533.553L245.93 533.637L236.121 526.152C235.256 525.555 234.245 525.203 233.196 525.134C232.147 525.065 231.098 525.28 230.162 525.758L215.156 534.412L210.388 534.531V538.369C210.411 538.753 210.522 539.127 210.712 539.462C210.902 539.796 211.167 540.083 211.485 540.299L223.773 549.572C224.639 550.169 225.65 550.521 226.699 550.59C227.748 550.659 228.796 550.444 229.733 549.966L248.076 539.382C248.464 539.198 248.795 538.912 249.034 538.556C249.273 538.199 249.411 537.784 249.434 537.355V533.553Z" fill="black"/>
<path d="M211.819 532.504L230.174 521.921C231.11 521.443 232.158 521.227 233.208 521.296C234.257 521.365 235.268 521.717 236.133 522.314L248.35 531.623C248.709 531.828 249.003 532.13 249.199 532.494C249.395 532.858 249.484 533.27 249.457 533.683C249.429 534.096 249.286 534.492 249.044 534.828C248.802 535.163 248.471 535.424 248.088 535.58L229.745 546.163C228.808 546.642 227.76 546.857 226.711 546.788C225.662 546.719 224.651 546.367 223.785 545.77L211.568 536.462C211.213 536.254 210.922 535.953 210.728 535.589C210.534 535.226 210.445 534.816 210.471 534.406C210.497 533.995 210.637 533.6 210.875 533.264C211.113 532.928 211.44 532.665 211.819 532.504Z" fill="#6582F8"/>
<path opacity="0.75" d="M211.819 532.504L230.174 521.921C231.11 521.443 232.158 521.227 233.208 521.296C234.257 521.365 235.268 521.717 236.133 522.314L248.35 531.623C248.709 531.828 249.003 532.13 249.199 532.494C249.395 532.858 249.484 533.27 249.457 533.683C249.429 534.096 249.286 534.492 249.044 534.828C248.802 535.163 248.471 535.424 248.088 535.58L229.745 546.163C228.808 546.642 227.76 546.857 226.711 546.788C225.662 546.719 224.651 546.367 223.785 545.77L211.568 536.462C211.213 536.254 210.922 535.953 210.728 535.589C210.534 535.226 210.445 534.816 210.471 534.406C210.497 533.995 210.637 533.6 210.875 533.264C211.113 532.928 211.44 532.665 211.819 532.504Z" fill="white"/>
<path d="M273.296 551.753L269.792 551.849L259.983 544.352C259.116 543.757 258.105 543.407 257.055 543.34C256.006 543.273 254.959 543.491 254.023 543.97L239.017 552.623L234.31 552.743V556.581C234.33 556.964 234.439 557.337 234.63 557.67C234.82 558.004 235.086 558.288 235.406 558.499L247.611 567.82C248.476 568.417 249.488 568.769 250.538 568.836C251.587 568.903 252.636 568.684 253.57 568.201L271.913 557.629C272.301 557.443 272.631 557.155 272.868 556.796C273.105 556.437 273.24 556.021 273.26 555.591L273.296 551.753Z" fill="#6582F8"/>
<path opacity="0.1" d="M273.296 551.753L269.792 551.849L259.983 544.352C259.116 543.757 258.105 543.407 257.055 543.34C256.006 543.273 254.959 543.491 254.023 543.97L239.017 552.623L234.31 552.743V556.581C234.33 556.964 234.439 557.337 234.63 557.67C234.82 558.004 235.086 558.288 235.406 558.499L247.611 567.82C248.476 568.417 249.488 568.769 250.538 568.836C251.587 568.903 252.636 568.684 253.57 568.201L271.913 557.629C272.301 557.443 272.631 557.155 272.868 556.796C273.105 556.437 273.24 556.021 273.26 555.591L273.296 551.753Z" fill="black"/>
<path d="M235.68 550.764L254.035 540.18C254.97 539.7 256.018 539.483 257.067 539.55C258.116 539.617 259.128 539.966 259.994 540.562L272.187 549.834C272.547 550.04 272.841 550.342 273.036 550.706C273.232 551.07 273.321 551.482 273.294 551.895C273.267 552.308 273.124 552.704 272.882 553.04C272.64 553.375 272.308 553.636 271.925 553.791L253.582 564.363C252.648 564.846 251.599 565.065 250.55 564.998C249.5 564.931 248.488 564.58 247.623 563.982L235.418 554.662C235.075 554.451 234.796 554.151 234.611 553.794C234.426 553.436 234.343 553.035 234.37 552.634C234.397 552.232 234.533 551.846 234.764 551.516C234.995 551.187 235.312 550.927 235.68 550.764Z" fill="#6582F8"/>
<path opacity="0.75" d="M235.68 550.764L254.035 540.18C254.97 539.7 256.018 539.483 257.067 539.55C258.116 539.617 259.128 539.966 259.994 540.562L272.187 549.834C272.547 550.04 272.841 550.342 273.036 550.706C273.232 551.07 273.321 551.482 273.294 551.895C273.267 552.308 273.124 552.704 272.882 553.04C272.64 553.375 272.308 553.636 271.925 553.791L253.582 564.363C252.648 564.846 251.599 565.065 250.55 564.998C249.5 564.931 248.488 564.58 247.623 563.982L235.418 554.662C235.075 554.451 234.796 554.151 234.611 553.794C234.426 553.436 234.343 553.035 234.37 552.634C234.397 552.232 234.533 551.846 234.764 551.516C234.995 551.187 235.312 550.927 235.68 550.764Z" fill="white"/>
<path d="M262.402 494.114L258.898 494.209L249.089 486.713C248.222 486.117 247.211 485.768 246.162 485.701C245.113 485.633 244.065 485.851 243.129 486.331L228.088 494.984L223.32 495.103V498.941C223.343 499.324 223.454 499.696 223.644 500.029C223.834 500.362 224.099 500.646 224.417 500.86L236.741 510.24C237.607 510.838 238.618 511.189 239.668 511.256C240.718 511.323 241.766 511.104 242.7 510.622L261.055 500.05C261.443 499.863 261.773 499.575 262.01 499.216C262.247 498.857 262.382 498.441 262.402 498.012V494.114Z" fill="#6582F8"/>
<path opacity="0.1" d="M262.402 494.114L258.898 494.209L249.089 486.713C248.222 486.117 247.211 485.768 246.162 485.701C245.113 485.633 244.065 485.851 243.129 486.331L228.088 494.984L223.32 495.103V498.941C223.343 499.324 223.454 499.696 223.644 500.029C223.834 500.362 224.099 500.646 224.417 500.86L236.741 510.24C237.607 510.838 238.618 511.189 239.668 511.256C240.718 511.323 241.766 511.104 242.7 510.622L261.055 500.05C261.443 499.863 261.773 499.575 262.01 499.216C262.247 498.857 262.382 498.441 262.402 498.012V494.114Z" fill="black"/>
<path d="M224.786 493.077L243.141 482.493C244.077 482.013 245.124 481.796 246.174 481.863C247.223 481.93 248.234 482.28 249.101 482.875L261.306 492.195C261.661 492.402 261.952 492.704 262.146 493.067C262.34 493.43 262.429 493.84 262.403 494.251C262.377 494.662 262.237 495.057 261.999 495.393C261.761 495.729 261.434 495.992 261.055 496.152L242.7 506.724C241.766 507.207 240.718 507.426 239.668 507.359C238.618 507.291 237.607 506.94 236.741 506.343L224.512 497.022C224.157 496.815 223.866 496.513 223.674 496.149C223.481 495.785 223.395 495.375 223.423 494.965C223.452 494.554 223.594 494.16 223.835 493.826C224.076 493.493 224.406 493.233 224.786 493.077Z" fill="#6582F8"/>
<path opacity="0.75" d="M224.786 493.077L243.141 482.493C244.077 482.013 245.124 481.796 246.174 481.863C247.223 481.93 248.234 482.28 249.101 482.875L261.306 492.195C261.661 492.402 261.952 492.704 262.146 493.067C262.34 493.43 262.429 493.84 262.403 494.251C262.377 494.662 262.237 495.057 261.999 495.393C261.761 495.729 261.434 495.992 261.055 496.152L242.7 506.724C241.766 507.207 240.718 507.426 239.668 507.359C238.618 507.291 237.607 506.94 236.741 506.343L224.512 497.022C224.157 496.815 223.866 496.513 223.674 496.149C223.481 495.785 223.395 495.375 223.423 494.965C223.452 494.554 223.594 494.16 223.835 493.826C224.076 493.493 224.406 493.233 224.786 493.077Z" fill="white"/>
<path d="M333.986 548.75L330.482 548.833L320.673 541.336C319.805 540.744 318.794 540.395 317.746 540.328C316.697 540.261 315.65 540.478 314.714 540.955L299.72 549.572L294.952 549.691V553.529C294.973 553.914 295.083 554.289 295.273 554.624C295.464 554.959 295.729 555.245 296.049 555.46L308.254 564.769C309.119 565.366 310.13 565.717 311.179 565.787C312.228 565.856 313.277 565.64 314.213 565.162L332.556 554.578C332.944 554.391 333.273 554.103 333.51 553.745C333.748 553.386 333.883 552.97 333.903 552.54L333.986 548.75Z" fill="#6582F8"/>
<path opacity="0.1" d="M333.986 548.75L330.482 548.833L320.673 541.336C319.805 540.744 318.794 540.395 317.746 540.328C316.697 540.261 315.65 540.478 314.714 540.955L299.72 549.572L294.952 549.691V553.529C294.973 553.914 295.083 554.289 295.273 554.624C295.464 554.959 295.729 555.245 296.049 555.46L308.254 564.769C309.119 565.366 310.13 565.717 311.179 565.787C312.228 565.856 313.277 565.64 314.213 565.162L332.556 554.578C332.944 554.391 333.273 554.103 333.51 553.745C333.748 553.386 333.883 552.97 333.903 552.54L333.986 548.75Z" fill="black"/>
<path d="M296.371 547.701L314.726 537.117C315.662 536.639 316.71 536.423 317.759 536.492C318.809 536.562 319.819 536.913 320.685 537.51L332.89 546.819C333.249 547.024 333.543 547.326 333.739 547.69C333.935 548.055 334.024 548.467 333.996 548.88C333.969 549.292 333.826 549.689 333.584 550.024C333.342 550.36 333.011 550.62 332.628 550.776L314.285 561.36C313.348 561.838 312.3 562.054 311.251 561.985C310.201 561.915 309.191 561.564 308.325 560.967L296.12 551.658C295.765 551.451 295.474 551.149 295.28 550.786C295.086 550.423 294.997 550.013 295.023 549.602C295.049 549.191 295.189 548.796 295.427 548.46C295.665 548.124 295.992 547.862 296.371 547.701Z" fill="#6582F8"/>
<path opacity="0.75" d="M296.371 547.701L314.726 537.117C315.662 536.639 316.71 536.423 317.759 536.492C318.809 536.562 319.819 536.913 320.685 537.51L332.89 546.819C333.249 547.024 333.543 547.326 333.739 547.69C333.935 548.055 334.024 548.467 333.996 548.88C333.969 549.292 333.826 549.689 333.584 550.024C333.342 550.36 333.011 550.62 332.628 550.776L314.285 561.36C313.348 561.838 312.3 562.054 311.251 561.985C310.201 561.915 309.191 561.564 308.325 560.967L296.12 551.658C295.765 551.451 295.474 551.149 295.28 550.786C295.086 550.423 294.997 550.013 295.023 549.602C295.049 549.191 295.189 548.796 295.427 548.46C295.665 548.124 295.992 547.862 296.371 547.701Z" fill="white"/>
<path d="M286.264 512.326L282.759 512.421L272.95 504.924C272.085 504.327 271.073 503.976 270.023 503.909C268.974 503.841 267.926 504.061 266.991 504.543L251.985 513.184L247.277 513.303V517.141C247.298 517.526 247.408 517.901 247.598 518.236C247.789 518.571 248.054 518.857 248.374 519.072L260.579 528.393C261.445 528.988 262.457 529.337 263.506 529.404C264.555 529.472 265.603 529.254 266.538 528.774L284.893 518.202C285.277 518.02 285.606 517.738 285.845 517.386C286.084 517.034 286.224 516.624 286.252 516.2L286.264 512.326Z" fill="#6582F8"/>
<path opacity="0.1" d="M286.264 512.326L282.759 512.421L272.95 504.924C272.085 504.327 271.073 503.976 270.023 503.909C268.974 503.841 267.926 504.061 266.991 504.543L251.985 513.184L247.277 513.303V517.141C247.298 517.526 247.408 517.901 247.598 518.236C247.789 518.571 248.054 518.857 248.374 519.072L260.579 528.393C261.445 528.988 262.457 529.337 263.506 529.404C264.555 529.472 265.603 529.254 266.538 528.774L284.893 518.202C285.277 518.02 285.606 517.738 285.845 517.386C286.084 517.034 286.224 516.624 286.252 516.2L286.264 512.326Z" fill="black"/>
<path d="M248.648 511.277L267.003 500.705C267.938 500.225 268.986 500.008 270.035 500.075C271.084 500.142 272.096 500.491 272.962 501.087L285.167 510.407C285.523 510.614 285.814 510.916 286.007 511.279C286.201 511.642 286.29 512.052 286.264 512.463C286.238 512.874 286.098 513.269 285.86 513.605C285.622 513.941 285.296 514.204 284.917 514.364L266.562 524.936C265.626 525.416 264.579 525.634 263.53 525.567C262.48 525.499 261.469 525.15 260.602 524.555L248.35 515.234C247.996 515.023 247.708 514.718 247.518 514.352C247.328 513.986 247.243 513.574 247.274 513.163C247.305 512.752 247.45 512.358 247.693 512.025C247.935 511.692 248.266 511.433 248.648 511.277Z" fill="#6582F8"/>
<path opacity="0.75" d="M248.648 511.277L267.003 500.705C267.938 500.225 268.986 500.008 270.035 500.075C271.084 500.142 272.096 500.491 272.962 501.087L285.167 510.407C285.523 510.614 285.814 510.916 286.007 511.279C286.201 511.642 286.29 512.052 286.264 512.463C286.238 512.874 286.098 513.269 285.86 513.605C285.622 513.941 285.296 514.204 284.917 514.364L266.562 524.936C265.626 525.416 264.579 525.634 263.53 525.567C262.48 525.499 261.469 525.15 260.602 524.555L248.35 515.234C247.996 515.023 247.708 514.718 247.518 514.352C247.328 513.986 247.243 513.574 247.274 513.163C247.305 512.752 247.45 512.358 247.693 512.025C247.935 511.692 248.266 511.433 248.648 511.277Z" fill="white"/>
<path d="M310.125 530.502L306.621 530.586L296.812 523.101C295.946 522.503 294.934 522.152 293.885 522.085C292.835 522.018 291.787 522.237 290.852 522.719L275.847 531.36L271.139 531.479V535.317C271.16 535.702 271.27 536.077 271.46 536.412C271.65 536.747 271.916 537.033 272.235 537.248L284.44 546.569C285.308 547.161 286.319 547.51 287.367 547.577C288.416 547.644 289.463 547.427 290.399 546.95L308.754 536.462C309.142 536.277 309.473 535.992 309.713 535.635C309.952 535.279 310.09 534.864 310.113 534.435L310.125 530.502Z" fill="#6582F8"/>
<path opacity="0.1" d="M310.125 530.502L306.621 530.586L296.812 523.101C295.946 522.503 294.934 522.152 293.885 522.085C292.835 522.018 291.787 522.237 290.852 522.719L275.847 531.36L271.139 531.479V535.317C271.16 535.702 271.27 536.077 271.46 536.412C271.65 536.747 271.916 537.033 272.235 537.248L284.44 546.569C285.308 547.161 286.319 547.51 287.367 547.577C288.416 547.644 289.463 547.427 290.399 546.95L308.754 536.462C309.142 536.277 309.473 535.992 309.713 535.635C309.952 535.279 310.09 534.864 310.113 534.435L310.125 530.502Z" fill="black"/>
<path d="M272.509 529.489L290.864 518.917C291.799 518.435 292.847 518.215 293.897 518.283C294.946 518.35 295.958 518.701 296.824 519.298L309.028 528.619C309.388 528.822 309.683 529.123 309.88 529.486C310.076 529.85 310.166 530.262 310.138 530.674C310.111 531.086 309.967 531.482 309.725 531.817C309.482 532.151 309.15 532.41 308.766 532.564L290.423 543.148C289.488 543.628 288.44 543.846 287.391 543.778C286.342 543.711 285.33 543.362 284.464 542.767L272.259 533.446C271.903 533.239 271.612 532.937 271.418 532.574C271.225 532.211 271.136 531.801 271.162 531.39C271.188 530.98 271.328 530.584 271.566 530.248C271.804 529.913 272.13 529.65 272.509 529.489Z" fill="#6582F8"/>
<path opacity="0.75" d="M272.509 529.489L290.864 518.917C291.799 518.435 292.847 518.215 293.897 518.283C294.946 518.35 295.958 518.701 296.824 519.298L309.028 528.619C309.388 528.822 309.683 529.123 309.88 529.486C310.076 529.85 310.166 530.262 310.138 530.674C310.111 531.086 309.967 531.482 309.725 531.817C309.482 532.151 309.15 532.41 308.766 532.564L290.423 543.148C289.488 543.628 288.44 543.846 287.391 543.778C286.342 543.711 285.33 543.362 284.464 542.767L272.259 533.446C271.903 533.239 271.612 532.937 271.418 532.574C271.225 532.211 271.136 531.801 271.162 531.39C271.188 530.98 271.328 530.584 271.566 530.248C271.804 529.913 272.13 529.65 272.509 529.489Z" fill="white"/>
<path d="M299.219 472.887L295.715 472.97L285.906 465.485C285.04 464.888 284.029 464.536 282.979 464.469C281.929 464.402 280.881 464.621 279.947 465.104L264.941 473.745L260.233 473.864V477.702C260.254 478.087 260.364 478.461 260.554 478.796C260.744 479.131 261.01 479.418 261.329 479.633L273.534 488.953C274.401 489.548 275.412 489.898 276.461 489.965C277.51 490.032 278.558 489.814 279.494 489.335L297.837 478.751C298.225 478.567 298.556 478.281 298.795 477.925C299.034 477.568 299.172 477.153 299.195 476.725L299.219 472.887Z" fill="#6582F8"/>
<path opacity="0.1" d="M299.219 472.887L295.715 472.97L285.906 465.485C285.04 464.888 284.029 464.536 282.979 464.469C281.929 464.402 280.881 464.621 279.947 465.104L264.941 473.745L260.233 473.864V477.702C260.254 478.087 260.364 478.461 260.554 478.796C260.744 479.131 261.01 479.418 261.329 479.633L273.534 488.953C274.401 489.548 275.412 489.898 276.461 489.965C277.51 490.032 278.558 489.814 279.494 489.335L297.837 478.751C298.225 478.567 298.556 478.281 298.795 477.925C299.034 477.568 299.172 477.153 299.195 476.725L299.219 472.887Z" fill="black"/>
<path d="M261.604 471.838L279.958 461.266C280.893 460.784 281.941 460.564 282.991 460.631C284.041 460.699 285.052 461.05 285.918 461.647L298.123 470.968C298.483 471.171 298.778 471.472 298.974 471.835C299.17 472.199 299.26 472.611 299.233 473.023C299.205 473.435 299.062 473.831 298.819 474.166C298.576 474.5 298.244 474.759 297.861 474.913L279.517 485.497C278.582 485.977 277.534 486.194 276.485 486.127C275.436 486.06 274.425 485.711 273.558 485.115L261.353 475.795C260.998 475.588 260.707 475.286 260.513 474.923C260.319 474.56 260.23 474.15 260.256 473.739C260.282 473.328 260.422 472.933 260.66 472.597C260.898 472.261 261.225 471.998 261.604 471.838Z" fill="#6582F8"/>
<path opacity="0.75" d="M261.604 471.838L279.958 461.266C280.893 460.784 281.941 460.564 282.991 460.631C284.041 460.699 285.052 461.05 285.918 461.647L298.123 470.968C298.483 471.171 298.778 471.472 298.974 471.835C299.17 472.199 299.26 472.611 299.233 473.023C299.205 473.435 299.062 473.831 298.819 474.166C298.576 474.5 298.244 474.759 297.861 474.913L279.517 485.497C278.582 485.977 277.534 486.194 276.485 486.127C275.436 486.06 274.425 485.711 273.558 485.115L261.353 475.795C260.998 475.588 260.707 475.286 260.513 474.923C260.319 474.56 260.23 474.15 260.256 473.739C260.282 473.328 260.422 472.933 260.66 472.597C260.898 472.261 261.225 471.998 261.604 471.838Z" fill="white"/>
<path d="M370.803 527.511L367.299 527.606L357.49 520.109C356.625 519.511 355.613 519.16 354.563 519.093C353.514 519.026 352.465 519.245 351.531 519.728L336.549 528.369L331.841 528.488V532.326C331.859 532.711 331.968 533.087 332.158 533.422C332.349 533.758 332.616 534.044 332.937 534.257L345.142 543.613C346.008 544.21 347.02 544.561 348.069 544.629C349.119 544.696 350.167 544.477 351.102 543.994L369.457 533.422C369.844 533.236 370.174 532.948 370.411 532.589C370.648 532.23 370.784 531.814 370.803 531.384V527.511Z" fill="#6582F8"/>
<path opacity="0.1" d="M370.803 527.511L367.299 527.606L357.49 520.109C356.625 519.511 355.613 519.16 354.563 519.093C353.514 519.026 352.465 519.245 351.531 519.728L336.549 528.369L331.841 528.488V532.326C331.859 532.711 331.968 533.087 332.158 533.422C332.349 533.758 332.616 534.044 332.937 534.257L345.142 543.613C346.008 544.21 347.02 544.561 348.069 544.629C349.119 544.696 350.167 544.477 351.102 543.994L369.457 533.422C369.844 533.236 370.174 532.948 370.411 532.589C370.648 532.23 370.784 531.814 370.803 531.384V527.511Z" fill="black"/>
<path d="M333.188 526.462L351.543 515.89C352.478 515.41 353.526 515.192 354.575 515.259C355.624 515.326 356.635 515.676 357.502 516.271L369.707 525.592C370.066 525.797 370.36 526.099 370.556 526.463C370.752 526.827 370.841 527.239 370.814 527.652C370.786 528.065 370.643 528.462 370.401 528.797C370.159 529.132 369.828 529.393 369.445 529.549L351.09 540.121C350.155 540.603 349.107 540.822 348.057 540.755C347.008 540.688 345.996 540.337 345.13 539.739L332.973 530.419C332.616 530.215 332.323 529.915 332.126 529.554C331.93 529.193 331.837 528.785 331.86 528.374C331.882 527.963 332.018 527.567 332.252 527.229C332.487 526.892 332.811 526.626 333.188 526.462Z" fill="#6582F8"/>
<path opacity="0.75" d="M333.188 526.462L351.543 515.89C352.478 515.41 353.526 515.192 354.575 515.259C355.624 515.326 356.635 515.676 357.502 516.271L369.707 525.592C370.066 525.797 370.36 526.099 370.556 526.463C370.752 526.827 370.841 527.239 370.814 527.652C370.786 528.065 370.643 528.462 370.401 528.797C370.159 529.132 369.828 529.393 369.445 529.549L351.09 540.121C350.155 540.603 349.107 540.822 348.057 540.755C347.008 540.688 345.996 540.337 345.13 539.739L332.973 530.419C332.616 530.215 332.323 529.915 332.126 529.554C331.93 529.193 331.837 528.785 331.86 528.374C331.882 527.963 332.018 527.567 332.252 527.229C332.487 526.892 332.811 526.626 333.188 526.462Z" fill="white"/>
<path d="M346.942 509.299L343.438 509.394L333.629 501.897C332.762 501.302 331.751 500.952 330.702 500.885C329.653 500.818 328.605 501.036 327.669 501.516L312.711 510.169L307.944 510.288V514.126C307.964 514.509 308.074 514.882 308.264 515.216C308.454 515.549 308.72 515.833 309.04 516.045L321.245 525.365C322.11 525.965 323.122 526.318 324.172 526.385C325.222 526.452 326.271 526.231 327.205 525.747L345.559 515.175C345.947 514.988 346.277 514.7 346.514 514.341C346.751 513.982 346.887 513.566 346.906 513.137L346.942 509.299Z" fill="#6582F8"/>
<path opacity="0.1" d="M346.942 509.299L343.438 509.394L333.629 501.897C332.762 501.302 331.751 500.952 330.702 500.885C329.653 500.818 328.605 501.036 327.669 501.516L312.711 510.169L307.944 510.288V514.126C307.964 514.509 308.074 514.882 308.264 515.216C308.454 515.549 308.72 515.833 309.04 516.045L321.245 525.365C322.11 525.965 323.122 526.318 324.172 526.385C325.222 526.452 326.271 526.231 327.205 525.747L345.559 515.175C345.947 514.988 346.277 514.7 346.514 514.341C346.751 513.982 346.887 513.566 346.906 513.137L346.942 509.299Z" fill="black"/>
<path d="M309.326 508.262L327.681 497.678C328.617 497.198 329.664 496.98 330.714 497.047C331.763 497.114 332.774 497.464 333.641 498.059L345.846 507.38C346.205 507.585 346.499 507.887 346.695 508.251C346.89 508.616 346.98 509.028 346.952 509.44C346.925 509.853 346.782 510.25 346.54 510.585C346.298 510.92 345.966 511.181 345.583 511.337L327.228 521.909C326.294 522.394 325.246 522.614 324.196 522.547C323.145 522.48 322.134 522.127 321.269 521.527L309.136 512.207C308.777 512.007 308.482 511.71 308.283 511.352C308.083 510.993 307.988 510.585 308.008 510.175C308.028 509.765 308.162 509.369 308.395 509.031C308.628 508.693 308.95 508.426 309.326 508.262Z" fill="#6582F8"/>
<path opacity="0.75" d="M309.326 508.262L327.681 497.678C328.617 497.198 329.664 496.98 330.714 497.047C331.763 497.114 332.774 497.464 333.641 498.059L345.846 507.38C346.205 507.585 346.499 507.887 346.695 508.251C346.89 508.616 346.98 509.028 346.952 509.44C346.925 509.853 346.782 510.25 346.54 510.585C346.298 510.92 345.966 511.181 345.583 511.337L327.228 521.909C326.294 522.394 325.246 522.614 324.196 522.547C323.145 522.48 322.134 522.127 321.269 521.527L309.136 512.207C308.777 512.007 308.482 511.71 308.283 511.352C308.083 510.993 307.988 510.585 308.008 510.175C308.028 509.765 308.162 509.369 308.395 509.031C308.628 508.693 308.95 508.426 309.326 508.262Z" fill="white"/>
<path d="M323.081 491.099L319.577 491.182L309.767 483.697C308.902 483.1 307.891 482.748 306.842 482.679C305.793 482.61 304.744 482.826 303.808 483.304L288.874 491.957L284.166 492.076V495.938C284.186 496.323 284.295 496.698 284.486 497.033C284.676 497.368 284.942 497.654 285.262 497.869L297.467 507.177C298.333 507.774 299.344 508.126 300.393 508.195C301.442 508.264 302.49 508.048 303.427 507.57L321.77 496.987C322.155 496.801 322.484 496.515 322.721 496.158C322.958 495.802 323.095 495.388 323.116 494.96L323.081 491.099Z" fill="#6582F8"/>
<path opacity="0.1" d="M323.081 491.099L319.577 491.182L309.767 483.697C308.902 483.1 307.891 482.748 306.842 482.679C305.793 482.61 304.744 482.826 303.808 483.304L288.874 491.957L284.166 492.076V495.938C284.186 496.323 284.295 496.698 284.486 497.033C284.676 497.368 284.942 497.654 285.262 497.869L297.467 507.177C298.333 507.774 299.344 508.126 300.393 508.195C301.442 508.264 302.49 508.048 303.427 507.57L321.77 496.987C322.155 496.801 322.484 496.515 322.721 496.158C322.958 495.802 323.095 495.388 323.116 494.96L323.081 491.099Z" fill="black"/>
<path d="M285.465 490.05L303.82 479.466C304.756 478.988 305.805 478.772 306.854 478.841C307.903 478.91 308.914 479.262 309.779 479.859L321.984 489.168C322.343 489.373 322.638 489.675 322.833 490.039C323.029 490.404 323.118 490.816 323.091 491.228C323.064 491.641 322.921 492.038 322.679 492.373C322.437 492.708 322.105 492.969 321.722 493.125L303.379 503.709C302.443 504.187 301.394 504.403 300.345 504.333C299.296 504.264 298.285 503.912 297.42 503.315L285.215 494.007C284.859 493.8 284.568 493.498 284.374 493.135C284.18 492.772 284.092 492.362 284.118 491.951C284.144 491.54 284.283 491.145 284.521 490.809C284.759 490.473 285.086 490.21 285.465 490.05Z" fill="#6582F8"/>
<path opacity="0.75" d="M285.465 490.05L303.82 479.466C304.756 478.988 305.805 478.772 306.854 478.841C307.903 478.91 308.914 479.262 309.779 479.859L321.984 489.168C322.343 489.373 322.638 489.675 322.833 490.039C323.029 490.404 323.118 490.816 323.091 491.228C323.064 491.641 322.921 492.038 322.679 492.373C322.437 492.708 322.105 492.969 321.722 493.125L303.379 503.709C302.443 504.187 301.394 504.403 300.345 504.333C299.296 504.264 298.285 503.912 297.42 503.315L285.215 494.007C284.859 493.8 284.568 493.498 284.374 493.135C284.18 492.772 284.092 492.362 284.118 491.951C284.144 491.54 284.283 491.145 284.521 490.809C284.759 490.473 285.086 490.21 285.465 490.05Z" fill="white"/>
<path d="M98.4481 380.858V367.64C98.4355 364.364 97.1252 361.227 94.8042 358.915C92.4832 356.603 89.3406 355.304 86.0645 355.305V368.522C86.0771 371.799 87.3873 374.936 89.7083 377.248C92.0294 379.56 95.172 380.858 98.4481 380.858Z" fill="#263238"/>
<path d="M88.7938 366.151C94.1334 365.865 104.944 366.317 108.901 381.645C112.238 394.517 121.261 422.693 123.609 435.208C125.396 444.743 127.852 451.418 128.209 458.068C127.542 461.489 124.812 465.22 117.304 466.411C110.152 464.516 111.404 463.336 110.903 456.996C110.403 450.655 113.668 448.843 112.631 441.322C110.462 425.53 96.3265 392.622 96.3265 392.622L88.7938 366.151Z" fill="#B16668"/>
<path d="M123.215 451.418C122.04 453.633 121.163 455.993 120.605 458.438C120.414 459.761 118.221 458.724 117.78 457.008C117.428 454.269 117.277 451.508 117.327 448.748C117.327 448.748 116.302 454.028 116.863 456.543C117.423 459.058 118.054 459.558 119.89 460.118C121.725 460.679 121.439 459.058 121.869 456.96C122.298 454.862 123.215 451.418 123.215 451.418Z" fill="#9A4A4D"/>
<path d="M80.9751 358.284H76.3148C69.9927 358.284 63.9295 355.773 59.4591 351.302C54.9887 346.832 52.4772 340.769 52.4772 334.447C52.4772 327.698 55.1582 321.225 59.9304 316.453C64.7025 311.681 71.175 309 77.9239 309H79.4137C86.1502 309.013 92.6068 311.696 97.3679 316.462C102.129 321.227 104.806 327.686 104.813 334.423C104.816 337.555 104.202 340.657 103.005 343.552C101.808 346.447 100.053 349.078 97.8392 351.294C95.6254 353.51 92.9965 355.268 90.1028 356.467C87.2092 357.667 84.1075 358.284 80.9751 358.284Z" fill="#263238"/>
<path d="M55.7788 315.698C56.6694 315.877 57.453 316.401 57.9579 317.156C58.4628 317.911 58.6478 318.836 58.4724 319.727L51.7502 318.356C51.9368 317.472 52.4644 316.697 53.2185 316.2C53.9727 315.702 54.8926 315.522 55.7788 315.698Z" fill="#263238"/>
<path d="M60.1649 314.244C60.3044 314.672 60.3584 315.122 60.3237 315.57C60.2889 316.018 60.1662 316.455 59.9626 316.856C59.7589 317.257 59.4782 317.613 59.1367 317.906C58.7951 318.198 58.3993 318.42 57.9718 318.559L55.8503 312.039C56.2783 311.9 56.7297 311.847 57.1784 311.882C57.6271 311.918 58.0645 312.041 58.4653 312.246C58.8661 312.451 59.2226 312.733 59.5142 313.076C59.8059 313.419 60.027 313.816 60.1649 314.244Z" fill="#263238"/>
<path d="M93.7878 628.245C92.2265 627.053 90.4625 625.933 89.0918 624.669C86.0525 621.892 85.1229 614.86 84.8964 612.488C84.6639 610.47 84.6439 608.432 84.8368 606.41C85.4447 601.642 88.9488 591.165 88.9488 591.165C88.9488 591.165 77.6617 583.74 77.4948 583.835C77.328 583.931 75.4567 597.482 73.6093 599.699C71.3686 601.666 69.4496 602.214 68.1863 604.812C67.0778 608.019 67.5307 609.747 69.2351 613.084C70.495 615.975 71.4304 618.997 72.0241 622.095C72.9895 626.004 72.5843 632.404 82.2981 634.359C87.447 635.396 91.0107 634.705 93.466 633.608C96.2312 632.381 96.2073 630.068 93.7878 628.245Z" fill="#B16668"/>
<path d="M68.1863 604.824C67.0778 608.031 67.5307 609.759 69.2351 613.096C70.495 615.987 71.4304 619.009 72.0241 622.107C72.9895 626.016 72.5843 632.416 82.2981 634.371C87.447 635.408 91.0107 634.717 93.466 633.62C96.2312 632.428 96.2073 630.045 93.7878 628.245C92.5959 627.315 91.2134 626.421 90.0334 625.468C91.3206 627.78 85.1348 628.328 81.5711 626.195C78.0073 624.061 73.5616 609.032 73.1206 605.671C72.8534 603.672 73.02 601.639 73.6093 599.711C73.7404 599.532 73.9073 599.27 73.9073 599.27C73.9073 599.27 73.5259 599.115 73.1206 599.425C71.0621 600.798 69.3685 602.651 68.1863 604.824Z" fill="#263238"/>
<path d="M105.695 432.991C107.435 452.061 112.703 517.472 111.285 529.796C110.653 535.386 86.9584 597.602 86.9584 597.602C86.9584 597.602 81.1778 599.378 75.7309 593.204C78.5437 566.458 81.2374 537.805 87.0776 528.926C85.9691 519.724 74.4913 473.885 74.4913 473.885L105.695 432.991Z" fill="#37474F"/>
<path d="M62.942 618.9V617.22C63.6094 619.187 66.6964 627.697 71.3686 631.952C75.0753 635.348 80.1408 639.258 81.428 643.036C82.7152 646.814 74.384 648.28 70.9156 647.661C66.8752 646.957 61.6667 644.669 58.83 641.177C56.8276 638.721 55.5523 635.813 54.134 633.882C52.7156 631.952 49.3665 629.806 48.6513 627.577C48.2223 626.385 48.7348 623.656 49.3188 621.392C49.9028 619.127 50.5107 617.017 51.1781 617.22V618.495C52.0244 619.449 54.3962 620.39 57.0541 620.486C58.7823 620.557 62.9658 620.212 62.942 618.9Z" fill="#263238"/>
<path d="M74.7296 634.931C73.5378 633.906 72.4174 632.905 71.3685 631.94C68.1028 628.972 65.6118 623.918 64.2173 620.474C63.4186 618.506 63.0137 616.4 63.0254 614.276V607.566H51.1781V618.483V618.769C51.7383 621.213 57.1375 627.72 60.2125 631.963C62.2745 634.812 66.1719 638.423 70.856 639.055C75.3375 639.687 77.6021 638.292 74.7296 634.931Z" fill="#B16668"/>
<path d="M53.5619 435.911C44.4321 455.851 53.8956 526.077 53.8956 526.077C53.6215 529.319 49.9147 535.683 48.5441 549.915C46.9112 566.732 51.0947 608.984 51.0947 608.984C52.8919 610.03 54.9183 610.619 56.9962 610.7C59.0741 610.781 61.1402 610.352 63.0135 609.449C63.0135 609.449 74.241 545.826 76.3506 529.104C78.1861 514.504 83.2397 469.594 83.2397 469.594L105.766 432.979L53.5619 435.911Z" fill="#37474F"/>
<path d="M72.9776 366.389L60.7131 366.973C59.0326 367.497 54.5154 371.741 52.7395 378.236C51.4677 383.584 51.7531 389.184 53.5619 394.374L61.7143 417.962C61.7143 417.962 57.9003 427.199 53.4665 435.911C73.9311 447.341 99.4849 441.334 105.647 432.991C105.897 431.227 105.552 423.254 106.04 414.195C106.577 404.517 107.9 393.6 106.386 387.628C103.561 376.532 98.2692 366.115 87.7449 366.115L72.9776 366.389Z" fill="#6582F8"/>
<path d="M96.1834 319.548C98.9486 321.181 102.369 328.142 102.036 342.73C101.75 355.09 97.7329 358.141 95.7305 359.023C93.7282 359.905 89.8307 359.369 86.0644 358.737V366.163C86.0644 366.163 91.2729 372.217 90.9511 375.614C90.6293 379.011 83.4184 379.821 78.5436 376.496C75.3789 374.237 72.6628 371.407 70.5342 368.153V351.729C69.427 352.124 68.2423 352.252 67.0764 352.103C65.9104 351.953 64.7961 351.531 63.8239 350.871C59.6285 348.153 59.5212 341.228 61.905 338.773C64.2887 336.318 69.5449 337.093 70.5223 340.489C70.5223 340.489 76.5413 340.704 84.5507 336.306C87.6714 334.625 90.3514 332.231 92.3727 329.319C94.394 326.407 95.6997 323.06 96.1834 319.548Z" fill="#B16668"/>
<path d="M88.7581 339.81C88.7624 340.117 88.6764 340.418 88.5106 340.676C88.3449 340.934 88.1068 341.138 87.8262 341.261C87.5455 341.385 87.2346 341.423 86.9323 341.371C86.6301 341.319 86.3498 341.179 86.1265 340.969C85.9032 340.759 85.7468 340.487 85.6767 340.189C85.6067 339.89 85.6262 339.578 85.7327 339.29C85.8392 339.002 86.0281 338.753 86.2757 338.572C86.5234 338.391 86.8188 338.287 87.1252 338.273C87.3334 338.266 87.5408 338.301 87.7356 338.375C87.9303 338.449 88.1086 338.56 88.2603 338.703C88.4119 338.846 88.5339 339.017 88.6193 339.207C88.7048 339.397 88.7519 339.602 88.7581 339.81Z" fill="#263238"/>
<path d="M88.6389 350.132L92.2145 351.324C92.1507 351.57 92.037 351.801 91.8805 352.001C91.7239 352.202 91.5278 352.368 91.3044 352.49C91.0809 352.612 90.8348 352.686 90.5813 352.709C90.3279 352.732 90.0724 352.703 89.8308 352.623C89.3485 352.442 88.9549 352.082 88.7326 351.618C88.5103 351.153 88.4768 350.62 88.6389 350.132Z" fill="#9A4A4D"/>
<path d="M100.975 334.876L97.8283 332.659C97.9599 332.447 98.1332 332.264 98.3378 332.122C98.5423 331.979 98.7738 331.88 99.0181 331.829C99.2623 331.779 99.5143 331.779 99.7585 331.83C100.003 331.88 100.234 331.98 100.439 332.122C100.868 332.422 101.165 332.876 101.265 333.39C101.365 333.904 101.261 334.437 100.975 334.876Z" fill="#263238"/>
<path d="M100.522 339.548C100.526 339.855 100.44 340.156 100.275 340.414C100.109 340.672 99.8708 340.875 99.5901 340.999C99.3094 341.123 98.9985 341.161 98.6962 341.109C98.394 341.057 98.1137 340.917 97.8904 340.707C97.6671 340.497 97.5107 340.225 97.4407 339.927C97.3706 339.628 97.3901 339.315 97.4966 339.028C97.6031 338.74 97.792 338.49 98.0396 338.309C98.2873 338.128 98.5827 338.024 98.8891 338.01C99.3087 338.001 99.7153 338.157 100.021 338.444C100.326 338.732 100.506 339.128 100.522 339.548Z" fill="#263238"/>
<path d="M92.9177 337.629L93.168 346.997L98.0905 345.472L92.9177 337.629Z" fill="#9A4A4D"/>
<path d="M86.0644 358.761C82.0836 358.248 73.9073 355.889 72.632 352.659C73.1428 354.296 74.1458 355.736 75.5044 356.782C77.8881 358.88 86.0644 361.24 86.0644 361.24V358.761Z" fill="#9A4A4D"/>
<path d="M83.5854 511.751L80.0812 496.757L83.1682 469.606C83.1682 469.606 92.882 465.947 98.0309 458.426C95.7373 463.907 91.9088 468.609 87.0061 471.966L81.7141 496.685L83.5854 511.751Z" fill="#263238"/>
<path d="M38.0675 420.238L54.5988 397.104C57.2317 394.441 59.2141 391.207 60.3914 387.652C63.2757 378.51 63.7286 373.147 60.7013 366.973C53.9791 366.973 50.0459 367.652 42.4059 380.584C36.1724 391.132 26.9115 409.118 24.6469 413.003C21.8222 417.771 20.9998 419.094 23.455 423.814C25.9103 428.534 35.1593 440.655 42.9423 449.773C50.7252 458.891 55.2782 461.966 61.0946 463.313C66.9109 464.659 69.5092 463.527 72.7869 460.512C76.0646 457.496 73.7523 454.814 70.7011 454.111C67.8069 453.486 65.0467 452.352 62.5487 450.762C60.7013 449.427 60.1649 448.378 61.8455 448.307C64.0624 448.211 66.1362 447.77 66.7083 446.221C67.4235 444.278 65.588 444.803 63.0493 444.016C59.7694 443.02 56.3936 442.373 52.9779 442.085C48.7944 442.312 38.0675 420.238 38.0675 420.238Z" fill="#B16668"/>
<path d="M68.9014 355.126H70.5343V370.62C70.5343 373.62 69.3426 376.497 67.2214 378.618C65.1002 380.739 62.2232 381.931 59.2233 381.931H57.5905V366.437C57.5905 363.437 58.7821 360.56 60.9033 358.439C63.0246 356.317 65.9015 355.126 68.9014 355.126Z" fill="#263238"/>
</g>
<path d="M227.288 141.426L240.864 149.148V144.338C240.864 144.005 240.864 143.657 240.864 143.324C240.864 142.991 240.864 142.672 240.864 142.353V142.179C241.357 135.819 246.181 133.37 252.064 136.775C254.727 138.413 257.009 140.601 258.758 143.193C260.076 134.5 267.132 131.429 275.666 136.34C285.142 141.817 292.821 155.176 292.821 166.071V176.358C292.807 177.181 293.01 177.993 293.409 178.713C293.809 179.432 294.39 180.034 295.095 180.458L303.093 185.138C304.819 186.162 306.25 187.616 307.245 189.358C308.241 191.1 308.767 193.071 308.773 195.078C308.773 195.91 308.554 196.728 308.137 197.449C307.721 198.17 307.122 198.768 306.401 199.184C305.679 199.6 304.861 199.818 304.029 199.817C303.196 199.816 302.379 199.595 301.659 199.178L227.491 156.306C225.523 155.163 223.889 153.525 222.75 151.556C221.612 149.586 221.008 147.352 221 145.077C220.999 144.341 221.192 143.617 221.559 142.978C221.926 142.34 222.455 141.809 223.092 141.439C223.729 141.07 224.452 140.874 225.188 140.871C225.925 140.869 226.649 141.06 227.288 141.426V141.426Z" fill="#E6E6E6"/>
<path d="M330.781 139.412L340.648 145.077V141.542C340.648 141.295 340.648 141.049 340.648 140.803C340.648 140.557 340.648 140.325 340.648 140.093V140.006C341.01 135.384 344.516 133.602 348.79 136.08C350.726 137.265 352.386 138.851 353.659 140.73C354.629 134.442 359.758 132.168 365.96 135.746C372.856 139.731 378.434 149.409 378.434 157.363V164.854C378.439 165.441 378.597 166.017 378.892 166.525C379.186 167.033 379.608 167.456 380.115 167.752L385.91 171.157C387.172 171.898 388.216 172.957 388.941 174.228C389.665 175.499 390.044 176.938 390.04 178.401C390.039 179 389.882 179.589 389.584 180.109C389.286 180.629 388.858 181.062 388.342 181.367C387.826 181.671 387.239 181.835 386.64 181.844C386.041 181.852 385.45 181.704 384.925 181.415L330.926 150.235C329.495 149.407 328.307 148.218 327.48 146.786C326.654 145.355 326.218 143.731 326.217 142.078C326.216 141.543 326.355 141.017 326.621 140.553C326.887 140.088 327.27 139.702 327.732 139.432C328.194 139.162 328.719 139.018 329.254 139.015C329.789 139.011 330.315 139.148 330.781 139.412V139.412Z" fill="#E6E6E6"/>
</svg>
