<svg width="812" height="591" viewBox="0 0 812 591" fill="none" xmlns="http://www.w3.org/2000/svg">
<path d="M118.771 528.953C277.143 611.682 533.893 611.682 692.265 528.953C850.636 446.223 850.617 312.083 692.265 229.354C533.912 146.624 277.143 146.624 118.771 229.354C-39.5999 312.083 -39.581 446.28 118.771 528.953Z" fill="#F3F6FB"/>
<path d="M590.029 387.554C618.759 401.258 665.35 401.258 693.985 387.554C722.62 373.851 722.714 351.643 693.985 337.958C665.255 324.274 618.664 324.274 590.029 337.958C561.394 351.643 561.3 373.87 590.029 387.554Z" fill="#E0E0E0"/>
<path d="M248.527 72.551C248.304 72.551 248.091 72.464 247.932 72.3086C247.773 72.1531 247.681 71.9416 247.676 71.7193V37.6976C247.676 23.5029 255.482 7.45601 265.065 1.93693C269.072 -0.368993 273.06 -0.633612 276.292 1.23758C280.734 3.78922 283.267 9.95093 283.267 18.1162V51.93C283.269 52.0399 283.249 52.1492 283.208 52.2513C283.168 52.3534 283.106 52.4461 283.029 52.5238C282.951 52.6016 282.858 52.6627 282.756 52.7036C282.654 52.7445 282.545 52.7642 282.435 52.7616C282.324 52.7642 282.214 52.7445 282.111 52.7038C282.008 52.6632 281.914 52.6023 281.835 52.5248C281.755 52.4474 281.692 52.3548 281.649 52.2527C281.606 52.1505 281.584 52.0408 281.584 51.93V18.1729C281.584 10.6125 279.354 4.94217 275.442 2.74965C272.72 1.18087 269.431 1.42659 265.991 3.449C256.881 8.72237 249.453 24.1078 249.453 37.7543V71.776C249.446 71.8888 249.416 71.999 249.365 72.0999C249.314 72.2007 249.243 72.2902 249.156 72.3627C249.07 72.4352 248.969 72.4893 248.861 72.5217C248.753 72.5541 248.639 72.564 248.527 72.551Z" fill="#455A64"/>
<path d="M346.717 192.119L342.994 32.1596L315.776 16.4718L312.544 172.405L346.717 192.119Z" fill="#677FD7"/>
<g opacity="0.2">
<path opacity="0.2" d="M346.717 192.119L342.994 32.1596L315.776 16.4718L312.544 172.405L346.717 192.119Z" fill="black"/>
</g>
<path d="M220.099 71.7194L216.886 227.633L312.544 172.405L315.776 16.4718L220.099 71.7194Z" fill="#677FD7"/>
<g opacity="0.4">
<path opacity="0.4" d="M220.099 71.7194L216.886 227.633L312.544 172.405L315.776 16.4718L220.099 71.7194Z" fill="black"/>
</g>
<path d="M247.336 87.3882L251.04 247.347L346.717 192.118L342.994 32.1595L247.336 87.3882Z" fill="#677FD7"/>
<path d="M220.099 71.7194L247.336 87.3883L251.04 247.347L216.886 227.634L220.099 71.7194Z" fill="#677FD7"/>
<g opacity="0.2">
<path opacity="0.2" d="M220.099 71.7194L247.336 87.3883L251.04 247.347L216.886 227.634L220.099 71.7194Z" fill="black"/>
</g>
<path opacity="0.2" d="M251.04 247.347L237.224 223.589L234.748 126.854L232.291 222.171L216.886 227.634L251.04 247.347Z" fill="black"/>
<g opacity="0.2">
<path opacity="0.2" d="M275.82 83.3813C274.825 84.0296 273.997 84.9029 273.402 85.9307C272.808 86.9585 272.464 88.1119 272.398 89.2973C272.398 91.471 273.929 92.3782 275.82 91.3008C276.829 90.6415 277.667 89.7502 278.262 88.7014C278.857 87.6525 279.193 86.4764 279.241 85.2714C279.241 83.0978 277.71 82.1906 275.82 83.3813Z" fill="black"/>
</g>
<g opacity="0.2">
<path opacity="0.2" d="M309.728 63.5542C308.733 64.2024 307.905 65.0758 307.311 66.1036C306.716 67.1314 306.372 68.2847 306.307 69.4702C306.307 71.6627 307.838 72.5511 309.728 71.4737C310.719 70.8234 311.543 69.9491 312.134 68.9214C312.725 67.8937 313.066 66.7415 313.13 65.5577C313.13 63.3652 311.618 62.4768 309.728 63.5542Z" fill="black"/>
</g>
<path d="M275.82 88.0876C275.695 88.0993 275.569 88.0833 275.452 88.0409C275.334 87.9985 275.227 87.9306 275.139 87.8422C275.05 87.7537 274.982 87.6469 274.94 87.5292C274.898 87.4115 274.882 87.286 274.893 87.1614V53.1397C274.893 38.9639 282.699 22.8981 292.263 17.3979C296.289 15.0731 300.277 14.8274 303.491 16.6797C307.932 19.2502 310.484 25.4119 310.484 33.5772V67.5044C310.502 67.6255 310.494 67.749 310.46 67.8665C310.426 67.9841 310.367 68.093 310.287 68.1858C310.208 68.2785 310.109 68.3529 309.997 68.404C309.886 68.455 309.765 68.4814 309.643 68.4814C309.52 68.4814 309.399 68.455 309.288 68.404C309.177 68.3529 309.078 68.2785 308.998 68.1858C308.918 68.093 308.859 67.9841 308.826 67.8665C308.792 67.749 308.784 67.6255 308.802 67.5044V33.7095C308.802 26.1491 306.571 20.4788 302.659 18.2674C299.937 16.6986 296.629 16.9443 293.208 18.9856C284.098 24.2401 276.67 39.6255 276.67 53.272V87.2938C276.656 87.5094 276.56 87.7114 276.402 87.8588C276.244 88.0063 276.036 88.0881 275.82 88.0876Z" fill="#455A64"/>
<path d="M127.466 154.638C127.372 154.64 127.279 154.624 127.192 154.59C127.105 154.556 127.026 154.505 126.959 154.44C126.892 154.375 126.839 154.297 126.803 154.211C126.766 154.125 126.748 154.032 126.748 153.939V125.587C126.748 113.698 133.287 100.279 141.301 95.648C142.674 94.6995 144.28 94.1437 145.945 94.0404C147.61 93.9371 149.272 94.2904 150.752 95.062C154.532 97.1979 156.611 102.358 156.611 109.2V137.551C156.584 137.72 156.497 137.872 156.367 137.983C156.237 138.093 156.073 138.154 155.902 138.154C155.732 138.154 155.567 138.093 155.437 137.983C155.307 137.872 155.221 137.72 155.194 137.551V109.2C155.194 102.868 153.303 98.1618 150.052 96.2717C148.79 95.638 147.379 95.3595 145.971 95.4661C144.563 95.5726 143.21 96.0602 142.057 96.8766C134.497 101.28 128.222 114.152 128.222 125.587V153.939C128.222 154.035 128.202 154.131 128.164 154.22C128.125 154.309 128.068 154.389 127.997 154.454C127.926 154.52 127.842 154.57 127.751 154.602C127.659 154.634 127.562 154.646 127.466 154.638Z" fill="#455A64"/>
<path d="M209.704 254.737L206.585 120.824L183.791 107.707L181.088 238.237L209.704 254.737Z" fill="#677FD7"/>
<g opacity="0.2">
<path opacity="0.2" d="M209.704 254.737L206.585 120.824L183.791 107.707L181.088 238.237L209.704 254.737Z" fill="black"/>
</g>
<path d="M103.707 153.939L101.004 284.469L181.088 238.237L183.791 107.707L103.707 153.939Z" fill="#677FD7"/>
<g opacity="0.4">
<path opacity="0.4" d="M103.707 153.939L101.004 284.469L181.088 238.237L183.791 107.707L103.707 153.939Z" fill="black"/>
</g>
<path d="M126.502 167.056L129.602 300.988L209.704 254.738L206.585 120.824L126.502 167.056Z" fill="#677FD7"/>
<path d="M103.707 153.939L126.502 167.056L129.602 300.988L101.004 284.469L103.707 153.939Z" fill="#677FD7"/>
<g opacity="0.2">
<path opacity="0.2" d="M103.707 153.939L126.502 167.056L129.602 300.988L101.004 284.469L103.707 153.939Z" fill="black"/>
</g>
<path opacity="0.2" d="M129.602 300.988L118.034 281.085L115.974 200.113L113.895 279.894L101.004 284.468L129.602 300.988Z" fill="black"/>
<g opacity="0.2">
<path opacity="0.2" d="M150.336 163.616C149.506 164.165 148.816 164.9 148.32 165.763C147.825 166.626 147.538 167.593 147.482 168.587C147.482 170.477 148.767 171.158 150.336 170.25C151.175 169.714 151.874 168.985 152.374 168.123C152.874 167.262 153.16 166.293 153.209 165.298C153.209 163.465 151.924 162.765 150.336 163.616Z" fill="#455A64"/>
</g>
<g opacity="0.2">
<path opacity="0.2" d="M178.725 147.115C177.894 147.658 177.202 148.389 176.706 149.25C176.21 150.11 175.924 151.076 175.871 152.067C175.871 153.958 177.156 154.638 178.725 153.75C179.559 153.209 180.253 152.478 180.749 151.617C181.245 150.756 181.53 149.79 181.579 148.798C181.579 146.945 180.389 146.208 178.725 147.115Z" fill="#455A64"/>
</g>
<path d="M150.336 167.642C150.152 167.637 149.977 167.562 149.847 167.432C149.717 167.301 149.641 167.126 149.637 166.942V138.496C149.637 126.627 156.157 113.207 164.19 108.576C165.562 107.627 167.167 107.069 168.832 106.962C170.497 106.856 172.159 107.204 173.641 107.971C177.421 110.126 179.481 115.286 179.481 122.109V150.461C179.484 150.553 179.468 150.645 179.433 150.731C179.399 150.817 179.348 150.896 179.282 150.961C179.217 151.027 179.139 151.078 179.053 151.112C178.967 151.146 178.874 151.163 178.782 151.16C178.596 151.16 178.419 151.086 178.287 150.955C178.156 150.824 178.083 150.646 178.083 150.461V122.109C178.083 115.796 176.193 111.09 172.923 109.2C171.666 108.558 170.257 108.274 168.849 108.381C167.442 108.488 166.092 108.98 164.946 109.805C157.386 114.209 151.111 127.08 151.111 138.496V166.942C151.109 167.04 151.086 167.136 151.046 167.225C151.005 167.314 150.947 167.394 150.874 167.459C150.802 167.524 150.716 167.574 150.624 167.606C150.531 167.637 150.433 167.649 150.336 167.642Z" fill="#455A64"/>
<path d="M112.118 368.918L121.682 364.023C121.682 364.023 120.076 345.935 116.825 327.865C112.345 303.01 92.3856 278.609 70.366 279.346C48.3463 280.084 53.5252 296.565 63.5238 304.995C69.8556 310.344 105.408 336.654 112.118 368.918Z" fill="#677FD7"/>
<g opacity="0.1">
<path opacity="0.1" d="M112.118 368.918L121.682 364.023C121.682 364.023 120.076 345.935 116.825 327.865C112.345 303.01 92.3856 278.609 70.366 279.346C48.3463 280.084 53.5252 296.565 63.5238 304.995C69.8556 310.344 105.408 336.654 112.118 368.918Z" fill="black"/>
</g>
<path d="M116.825 366.896H116.711C116.397 366.862 116.108 366.707 115.907 366.463C115.705 366.219 115.607 365.906 115.634 365.591C118.185 340.434 93.6898 295.96 65.0926 285.243C64.7969 285.133 64.5572 284.91 64.4261 284.623C64.2949 284.336 64.2831 284.008 64.3933 283.712C64.5037 283.417 64.7269 283.177 65.014 283.046C65.3011 282.915 65.6285 282.903 65.9242 283.013C95.3342 294.07 120.624 339.829 118.015 365.913C117.97 366.193 117.824 366.447 117.605 366.628C117.386 366.809 117.108 366.904 116.825 366.896Z" fill="white"/>
<path d="M118.79 390.162L121.682 370.94C119.545 358.451 113.275 347.042 103.877 338.544C88.0006 323.99 65.6785 317.507 50.7656 321.93C35.8528 326.353 38.0075 341.001 51.1626 345.953C64.3176 350.905 82.0846 350.678 98.415 362.057C109.548 369.976 119.338 383.472 118.79 390.162Z" fill="#677FD7"/>
<path d="M119.905 378.236C119.629 378.232 119.363 378.131 119.152 377.952C118.942 377.772 118.801 377.526 118.752 377.253C114.538 353.551 77.6995 328.678 50.7089 331.305C50.5544 331.323 50.3979 331.31 50.2486 331.266C50.0994 331.223 49.9605 331.149 49.8404 331.05C49.7203 330.951 49.6215 330.829 49.5499 330.691C49.4783 330.553 49.4353 330.402 49.4237 330.247C49.4053 330.091 49.4184 329.934 49.462 329.783C49.5056 329.633 49.5789 329.493 49.6776 329.371C49.7762 329.249 49.8983 329.149 50.0365 329.075C50.1746 329.002 50.3262 328.957 50.4821 328.942C78.9848 326.107 116.636 351.624 121.039 376.837C121.069 376.99 121.069 377.147 121.037 377.3C121.006 377.452 120.944 377.597 120.856 377.726C120.768 377.854 120.656 377.964 120.525 378.048C120.394 378.133 120.248 378.19 120.094 378.217L119.905 378.236Z" fill="white"/>
<path d="M520.757 243.34L476.945 218.05L421.622 186.108H421.489C416.518 183.348 413.419 177.281 413.419 168.605C413.419 160.289 410.583 154.373 405.991 151.462L443.792 173.274L449.765 176.714L505.013 208.6L505.618 208.959C510.362 211.794 513.291 217.786 513.291 226.235C513.291 234.683 516.089 240.448 520.757 243.34Z" fill="#677FD7"/>
<g opacity="0.1">
<path opacity="0.1" d="M520.757 243.34L476.945 218.05L421.622 186.108H421.489C416.518 183.348 413.419 177.281 413.419 168.605C413.419 160.289 410.583 154.373 405.991 151.462L443.792 173.274L449.765 176.714L505.013 208.6L505.618 208.959C510.362 211.794 513.291 217.786 513.291 226.235C513.291 234.683 516.089 240.448 520.757 243.34Z" fill="black"/>
</g>
<path d="M566.97 181.798V195.124C566.97 212.267 554.949 233.096 540.112 241.658C532.797 245.892 526.144 246.345 521.305 243.661L520.757 243.34C516.089 240.448 513.197 234.513 513.197 226.159C513.197 217.805 510.267 211.719 505.523 208.884L504.918 208.524L449.671 176.638C459.877 166.337 467.135 150.801 467.135 137.495V124.264L566.97 181.798Z" fill="#677FD7"/>
<path d="M504.956 208.524C500.117 205.973 493.616 206.464 486.358 210.641C482.891 212.678 479.713 215.17 476.907 218.05C466.701 228.333 459.461 243.869 459.461 257.176C459.461 274.319 447.422 295.148 432.584 303.729L405.707 319.246L305.929 261.617L332.806 246.1C347.643 237.537 359.683 216.69 359.683 199.546C359.683 182.403 371.704 161.574 386.56 153.012C393.856 148.797 400.49 148.344 405.329 151.009L405.972 151.368L443.774 173.18L449.746 176.62L504.956 208.524Z" fill="#677FD7"/>
<g opacity="0.4">
<path opacity="0.4" d="M504.956 208.524C500.117 205.973 493.616 206.464 486.358 210.641C482.891 212.678 479.713 215.17 476.907 218.05C466.701 228.333 459.461 243.869 459.461 257.176C459.461 274.319 447.422 295.148 432.584 303.729L405.707 319.246L305.929 261.617L332.806 246.1C347.643 237.537 359.683 216.69 359.683 199.546C359.683 182.403 371.704 161.574 386.56 153.012C393.856 148.797 400.49 148.344 405.329 151.009L405.972 151.368L443.774 173.18L449.746 176.62L504.956 208.524Z" fill="white"/>
</g>
<path d="M428.691 269.65C428.067 265.492 424.684 263.98 420.601 266.342L405.745 274.905L375.503 292.35C369.978 295.379 364.656 298.763 359.57 302.481C351.759 309.188 344.508 316.52 337.89 324.406C324.66 339.527 311.429 355.933 298.198 363.569L229.607 403.167C227.225 404.721 225.243 406.814 223.821 409.277C222.399 411.74 221.578 414.503 221.423 417.342V442.764C221.423 447.603 224.579 449.776 228.643 447.981C226.194 449.026 223.547 449.523 220.886 449.438C218.225 449.353 215.615 448.688 213.238 447.489L122.174 394.888C119.792 393.334 117.81 391.241 116.388 388.778C114.966 386.315 114.145 383.552 113.989 380.712V355.29C114.142 352.45 114.962 349.686 116.384 347.223C117.806 344.759 119.79 342.667 122.174 341.115L190.765 301.423C203.996 293.862 217.227 277.381 230.457 262.279C237.103 254.41 244.378 247.097 252.212 240.41C257.294 236.701 262.61 233.323 268.127 230.298L298.368 212.853L313.206 204.272C315.742 202.985 318.546 202.314 321.39 202.314C324.234 202.314 327.038 202.985 329.574 204.272L420.696 256.892C422.856 258.331 424.686 260.212 426.065 262.412C427.443 264.611 428.338 267.078 428.691 269.65Z" fill="#455A64"/>
<path d="M229.153 421.179C229.153 421.179 113.989 355.271 114.008 354.704C114.008 354.704 114.008 355.082 114.008 355.271V380.693C114.16 383.533 114.981 386.298 116.403 388.761C117.825 391.224 119.809 393.317 122.192 394.869L213.314 447.489C215.85 448.776 218.654 449.447 221.498 449.447C224.342 449.447 227.146 448.776 229.682 447.489L233.576 445.24L229.153 421.179Z" fill="#37474F"/>
<path d="M420.582 266.324L375.541 292.35C370.021 295.379 364.699 298.757 359.608 302.462C339.157 318.982 318.706 351.775 298.255 363.55L229.663 403.242C227.28 404.794 225.296 406.887 223.874 409.35C222.452 411.814 221.631 414.578 221.479 417.418V442.84C221.479 448.057 225.146 450.174 229.663 447.565L420.563 337.335C422.945 335.781 424.927 333.687 426.349 331.224C427.77 328.762 428.592 325.999 428.747 323.159V271.049C428.785 265.832 425.118 263.715 420.582 266.324Z" fill="#263238"/>
<path d="M360.193 283.486C354.669 286.514 349.346 289.898 344.26 293.617C340.322 296.865 336.592 300.356 333.089 304.069C332.322 304.809 331.342 305.289 330.287 305.442C329.233 305.594 328.157 305.412 327.211 304.919L256.956 264.358C256.542 264.156 256.183 263.856 255.911 263.483C255.639 263.111 255.462 262.678 255.395 262.222C255.328 261.766 255.373 261.3 255.526 260.865C255.68 260.431 255.937 260.04 256.276 259.727C259.791 256.014 263.535 252.523 267.484 249.275C272.566 245.565 277.882 242.187 283.399 239.163C291.999 234.173 301.638 228.597 310.333 223.607C311.35 223.095 312.473 222.829 313.612 222.829C314.751 222.829 315.874 223.095 316.891 223.607L387.127 264.15C387.519 264.288 387.858 264.543 388.098 264.882C388.338 265.221 388.466 265.625 388.466 266.04C388.466 266.455 388.338 266.86 388.098 267.198C387.858 267.537 387.519 267.793 387.127 267.93L360.193 283.486Z" fill="#37474F"/>
<path d="M316.891 227.028C315.874 226.515 314.751 226.248 313.612 226.248C312.473 226.248 311.35 226.515 310.333 227.028L283.399 242.603C277.882 245.627 272.566 249.005 267.484 252.715C263.539 255.961 259.796 259.446 256.276 263.148L255.936 263.583C256.217 263.941 256.563 264.242 256.956 264.471L327.211 305.033C328.157 305.525 329.233 305.708 330.287 305.555C331.342 305.402 332.322 304.922 333.089 304.182C336.592 300.469 340.322 296.978 344.26 293.73C349.346 290.012 354.669 286.628 360.193 283.599L387.127 268.044L387.449 267.817L387.127 267.59L316.891 227.028Z" fill="white"/>
<path d="M213.805 430.044C213.805 432.501 211.915 433.427 209.704 432.123L125.765 383.661C124.597 382.927 123.619 381.929 122.91 380.747C122.2 379.564 121.78 378.232 121.682 376.856C121.682 374.399 123.572 373.473 125.765 374.777L209.704 423.258C210.872 423.988 211.853 424.982 212.565 426.161C213.278 427.34 213.703 428.67 213.805 430.044Z" fill="#263238"/>
<path d="M244.047 342.514V339.149L240.153 338.866L231.421 333.781C230.153 333.139 228.751 332.804 227.329 332.804C225.907 332.804 224.505 333.139 223.237 333.781L217.34 337.183L214.372 336.957V340.227C214.402 340.746 214.575 341.247 214.872 341.674C215.169 342.101 215.578 342.437 216.055 342.646L227.055 348.997C228.323 349.639 229.725 349.974 231.147 349.974C232.569 349.974 233.971 349.639 235.239 348.997L242.422 344.857C242.88 344.65 243.276 344.326 243.571 343.918C243.866 343.51 244.05 343.033 244.104 342.532L244.047 342.514Z" fill="#E0E0E0"/>
<path d="M231.421 330.455L242.44 336.805C242.934 336.973 243.363 337.291 243.667 337.715C243.97 338.138 244.134 338.647 244.134 339.168C244.134 339.689 243.97 340.198 243.667 340.621C243.363 341.045 242.934 341.363 242.44 341.531L235.258 345.67C233.99 346.312 232.588 346.647 231.166 346.647C229.744 346.647 228.342 346.312 227.074 345.67L216.074 339.319C215.58 339.152 215.151 338.834 214.847 338.41C214.544 337.986 214.38 337.478 214.38 336.957C214.38 336.435 214.544 335.927 214.847 335.503C215.151 335.079 215.58 334.761 216.074 334.594L223.237 330.455C224.505 329.812 225.907 329.477 227.329 329.477C228.751 329.477 230.153 329.812 231.421 330.455Z" fill="#F5F5F5"/>
<path d="M215.261 325.843V322.478L211.367 322.195L202.559 317.11C201.291 316.468 199.889 316.133 198.467 316.133C197.045 316.133 195.644 316.468 194.375 317.11L188.478 320.513L185.511 320.305V323.556C185.548 324.073 185.726 324.57 186.026 324.994C186.325 325.417 186.736 325.75 187.212 325.956L198.212 332.307C199.478 332.958 200.881 333.298 202.304 333.298C203.728 333.298 205.131 332.958 206.396 332.307L213.56 328.167C214.024 327.966 214.426 327.644 214.725 327.235C215.024 326.827 215.209 326.346 215.261 325.843Z" fill="#E0E0E0"/>
<path d="M202.559 313.784L213.56 320.154C214.053 320.321 214.482 320.639 214.786 321.063C215.09 321.487 215.253 321.995 215.253 322.516C215.253 323.038 215.09 323.546 214.786 323.97C214.482 324.393 214.053 324.711 213.56 324.879L206.396 329.094C205.128 329.736 203.726 330.071 202.304 330.071C200.882 330.071 199.48 329.736 198.212 329.094L187.212 322.724C186.718 322.557 186.289 322.239 185.986 321.815C185.682 321.391 185.519 320.883 185.519 320.361C185.519 319.84 185.682 319.332 185.986 318.908C186.289 318.484 186.718 318.166 187.212 317.999L194.375 313.86C195.638 313.205 197.036 312.857 198.458 312.844C199.88 312.831 201.285 313.153 202.559 313.784Z" fill="#F5F5F5"/>
<path d="M272.833 359.127V355.763L269.053 355.479L260.226 350.395C258.958 349.752 257.556 349.417 256.134 349.417C254.712 349.417 253.31 349.752 252.042 350.395L246.164 353.797L243.178 353.57V356.84C243.209 357.359 243.383 357.859 243.68 358.286C243.976 358.712 244.385 359.049 244.86 359.26L255.879 365.61C257.147 366.253 258.549 366.588 259.971 366.588C261.393 366.588 262.795 366.253 264.063 365.61L271.227 361.471C271.687 361.267 272.086 360.944 272.381 360.535C272.677 360.127 272.859 359.648 272.909 359.146L272.833 359.127Z" fill="#E0E0E0"/>
<path d="M260.151 347.068L271.151 353.419C271.645 353.587 272.074 353.905 272.377 354.328C272.681 354.752 272.844 355.26 272.844 355.782C272.844 356.303 272.681 356.811 272.377 357.235C272.074 357.659 271.645 357.977 271.151 358.144L263.988 362.284C262.719 362.926 261.317 363.261 259.895 363.261C258.474 363.261 257.072 362.926 255.803 362.284L244.784 355.933C244.29 355.765 243.862 355.447 243.558 355.024C243.254 354.6 243.091 354.092 243.091 353.57C243.091 353.049 243.254 352.541 243.558 352.117C243.862 351.693 244.29 351.375 244.784 351.208L251.967 347.068C253.235 346.426 254.637 346.091 256.059 346.091C257.48 346.091 258.882 346.426 260.151 347.068Z" fill="#F5F5F5"/>
<path d="M267.087 329.226V325.862L263.194 325.578L254.386 320.494C253.117 319.851 251.716 319.516 250.294 319.516C248.872 319.516 247.47 319.851 246.202 320.494L240.305 323.896L237.337 323.669V326.939C237.369 327.458 237.543 327.958 237.839 328.384C238.136 328.811 238.544 329.148 239.019 329.358L250.039 335.709C251.307 336.352 252.709 336.686 254.131 336.686C255.553 336.686 256.954 336.352 258.223 335.709L265.386 331.57C265.846 331.361 266.244 331.038 266.542 330.631C266.84 330.223 267.028 329.746 267.087 329.245V329.226Z" fill="#E0E0E0"/>
<path d="M254.386 317.167L265.386 323.518C265.88 323.686 266.309 324.004 266.612 324.427C266.916 324.851 267.079 325.359 267.079 325.881C267.079 326.402 266.916 326.91 266.612 327.334C266.309 327.758 265.88 328.076 265.386 328.243L258.223 332.383C256.954 333.025 255.553 333.36 254.131 333.36C252.709 333.36 251.307 333.025 250.039 332.383L238.982 326.032C238.488 325.864 238.059 325.546 237.755 325.123C237.452 324.699 237.288 324.191 237.288 323.669C237.288 323.148 237.452 322.64 237.755 322.216C238.059 321.792 238.488 321.474 238.982 321.307L246.164 317.167C247.437 316.518 248.846 316.18 250.275 316.18C251.704 316.18 253.113 316.518 254.386 317.167Z" fill="#F5F5F5"/>
<path d="M238.301 312.555V309.191L234.408 308.907L225.6 303.823C224.331 303.18 222.929 302.845 221.508 302.845C220.086 302.845 218.684 303.18 217.416 303.823L211.518 307.225L208.551 307.017V310.193C208.581 310.712 208.753 311.213 209.05 311.64C209.347 312.067 209.757 312.403 210.233 312.612L221.252 318.963C222.521 319.605 223.923 319.94 225.344 319.94C226.766 319.94 228.168 319.605 229.437 318.963L236.6 314.823C237.062 314.621 237.461 314.298 237.757 313.89C238.053 313.481 238.234 313.001 238.282 312.499L238.301 312.555Z" fill="#E0E0E0"/>
<path d="M225.6 300.496L236.6 306.866C237.094 307.034 237.523 307.352 237.826 307.775C238.13 308.199 238.293 308.707 238.293 309.229C238.293 309.75 238.13 310.258 237.826 310.682C237.523 311.106 237.094 311.424 236.6 311.591L229.531 315.731C228.263 316.373 226.861 316.708 225.439 316.708C224.017 316.708 222.615 316.373 221.347 315.731L210.328 309.361C209.834 309.194 209.405 308.876 209.101 308.452C208.798 308.028 208.634 307.52 208.634 306.998C208.634 306.477 208.798 305.969 209.101 305.545C209.405 305.121 209.834 304.803 210.328 304.636L217.51 300.496C218.766 299.869 220.151 299.543 221.555 299.543C222.959 299.543 224.344 299.869 225.6 300.496Z" fill="#F5F5F5"/>
<path d="M295.873 345.84V342.476L291.98 342.192L283.172 337.108C281.904 336.465 280.502 336.13 279.08 336.13C277.658 336.13 276.256 336.465 274.988 337.108L269.091 340.51L266.123 340.283V343.553C266.161 344.072 266.339 344.572 266.639 344.998C266.938 345.424 267.348 345.761 267.824 345.972L278.825 352.323C280.093 352.966 281.495 353.3 282.917 353.3C284.339 353.3 285.741 352.966 287.009 352.323L294.191 348.184C294.65 347.976 295.046 347.652 295.341 347.245C295.636 346.837 295.82 346.359 295.873 345.859V345.84Z" fill="#E0E0E0"/>
<path d="M283.172 333.781L294.191 340.132C294.685 340.3 295.114 340.618 295.418 341.041C295.721 341.465 295.885 341.973 295.885 342.495C295.885 343.016 295.721 343.524 295.418 343.948C295.114 344.372 294.685 344.69 294.191 344.857L287.009 348.997C285.741 349.639 284.339 349.974 282.917 349.974C281.495 349.974 280.093 349.639 278.825 348.997L267.824 342.646C267.331 342.478 266.902 342.16 266.598 341.737C266.294 341.313 266.131 340.805 266.131 340.283C266.131 339.762 266.294 339.254 266.598 338.83C266.902 338.406 267.331 338.088 267.824 337.921L274.988 333.781C276.256 333.139 277.658 332.804 279.08 332.804C280.502 332.804 281.904 333.139 283.172 333.781Z" fill="#F5F5F5"/>
<path d="M221.026 355.858V352.493L217.132 352.21L208.324 347.125C207.059 346.474 205.656 346.134 204.232 346.134C202.809 346.134 201.406 346.474 200.14 347.125L194.243 350.527L191.275 350.301V353.665C191.311 354.183 191.487 354.681 191.783 355.107C192.079 355.533 192.485 355.871 192.958 356.084L203.977 362.435C205.245 363.078 206.647 363.413 208.069 363.413C209.491 363.413 210.893 363.078 212.161 362.435L219.325 358.296C219.784 358.088 220.183 357.764 220.481 357.357C220.779 356.95 220.966 356.472 221.026 355.971V355.858Z" fill="#E0E0E0"/>
<path d="M208.324 343.799L219.325 350.15C219.818 350.317 220.247 350.635 220.551 351.059C220.854 351.483 221.018 351.991 221.018 352.512C221.018 353.034 220.854 353.542 220.551 353.966C220.247 354.389 219.818 354.707 219.325 354.875L212.161 359.014C210.893 359.657 209.491 359.992 208.069 359.992C206.647 359.992 205.245 359.657 203.977 359.014L192.958 352.663C192.464 352.496 192.035 352.178 191.731 351.754C191.428 351.33 191.264 350.822 191.264 350.301C191.264 349.779 191.428 349.271 191.731 348.847C192.035 348.424 192.464 348.106 192.958 347.938L200.14 343.799C201.408 343.156 202.81 342.821 204.232 342.821C205.654 342.821 207.056 343.156 208.324 343.799Z" fill="#F5F5F5"/>
<path d="M192.221 339.187V335.822L188.44 335.539L179.614 330.455C178.345 329.812 176.943 329.477 175.522 329.477C174.1 329.477 172.698 329.812 171.429 330.455L165.551 333.857L162.565 333.63V336.9C162.597 337.419 162.77 337.919 163.067 338.345C163.364 338.772 163.772 339.109 164.247 339.319L175.266 345.67C176.535 346.312 177.937 346.647 179.358 346.647C180.78 346.647 182.182 346.312 183.45 345.67L190.614 341.531C191.075 341.326 191.473 341.003 191.768 340.595C192.064 340.187 192.246 339.707 192.296 339.206L192.221 339.187Z" fill="#E0E0E0"/>
<path d="M179.519 327.204L190.538 333.554C191.032 333.722 191.461 334.04 191.765 334.464C192.068 334.887 192.232 335.396 192.232 335.917C192.232 336.438 192.068 336.947 191.765 337.37C191.461 337.794 191.032 338.112 190.538 338.28L183.375 342.324C182.107 342.967 180.705 343.302 179.283 343.302C177.861 343.302 176.459 342.967 175.191 342.324L164.171 335.974C163.678 335.806 163.249 335.488 162.945 335.064C162.642 334.641 162.478 334.133 162.478 333.611C162.478 333.09 162.642 332.582 162.945 332.158C163.249 331.734 163.678 331.416 164.171 331.249L171.335 327.109C172.611 326.481 174.016 326.162 175.438 326.179C176.86 326.195 178.258 326.546 179.519 327.204Z" fill="#F5F5F5"/>
<path d="M249.812 372.566V369.201L245.918 368.918L237.091 363.739C235.826 363.087 234.423 362.748 232.999 362.748C231.576 362.748 230.173 363.087 228.907 363.739L223.01 367.141L220.081 366.896V370.165C220.12 370.684 220.299 371.183 220.598 371.609C220.898 372.035 221.307 372.372 221.782 372.585L232.782 378.935C234.05 379.578 235.452 379.913 236.874 379.913C238.296 379.913 239.698 379.578 240.966 378.935L248.13 374.796C248.589 374.588 248.988 374.265 249.286 373.857C249.584 373.45 249.771 372.973 249.831 372.471L249.812 372.566Z" fill="#E0E0E0"/>
<path d="M237.091 360.413L248.092 366.764C248.586 366.931 249.014 367.249 249.318 367.673C249.622 368.097 249.785 368.605 249.785 369.126C249.785 369.648 249.622 370.156 249.318 370.58C249.014 371.003 248.586 371.321 248.092 371.489L240.872 375.628C239.603 376.271 238.201 376.606 236.78 376.606C235.358 376.606 233.956 376.271 232.687 375.628L221.687 369.277C221.193 369.11 220.765 368.792 220.461 368.368C220.157 367.944 219.994 367.436 219.994 366.915C219.994 366.393 220.157 365.885 220.461 365.461C220.765 365.038 221.193 364.72 221.687 364.552L228.851 360.413C230.126 359.761 231.538 359.421 232.971 359.421C234.404 359.421 235.816 359.761 237.091 360.413Z" fill="#F5F5F5"/>
<path d="M197.966 369.126V365.762L194.073 365.478L185.265 360.375C183.997 359.732 182.595 359.397 181.173 359.397C179.751 359.397 178.349 359.732 177.081 360.375L171.184 363.777L168.216 363.569V366.896C168.253 367.413 168.431 367.911 168.731 368.334C169.031 368.757 169.441 369.09 169.917 369.296L180.918 375.666C182.186 376.309 183.588 376.643 185.01 376.643C186.432 376.643 187.834 376.309 189.102 375.666L196.284 371.527C196.745 371.317 197.143 370.991 197.438 370.579C197.734 370.168 197.916 369.687 197.966 369.183V369.126Z" fill="#E0E0E0"/>
<path d="M185.265 357.048L196.284 363.418C196.778 363.585 197.207 363.903 197.51 364.327C197.814 364.751 197.977 365.259 197.977 365.78C197.977 366.302 197.814 366.81 197.51 367.234C197.207 367.657 196.778 367.975 196.284 368.143L189.102 372.282C187.834 372.925 186.432 373.26 185.01 373.26C183.588 373.26 182.186 372.925 180.918 372.282L169.917 365.932C169.424 365.764 168.995 365.446 168.691 365.022C168.387 364.599 168.224 364.09 168.224 363.569C168.224 363.048 168.387 362.539 168.691 362.116C168.995 361.692 169.424 361.374 169.917 361.206L177.081 357.048C178.349 356.405 179.751 356.071 181.173 356.071C182.595 356.071 183.997 356.405 185.265 357.048Z" fill="#F5F5F5"/>
<path d="M169.18 352.455V349.091L165.287 348.807L156.479 343.723C155.21 343.08 153.809 342.746 152.387 342.746C150.965 342.746 149.563 343.08 148.295 343.723L142.398 347.125L139.43 346.899V350.168C139.462 350.687 139.636 351.187 139.932 351.614C140.229 352.04 140.637 352.377 141.112 352.588L152.132 358.938C153.4 359.581 154.802 359.916 156.224 359.916C157.645 359.916 159.047 359.581 160.316 358.938L167.479 354.799C167.939 354.591 168.337 354.268 168.635 353.86C168.933 353.453 169.121 352.976 169.18 352.474V352.455Z" fill="#E0E0E0"/>
<path d="M156.479 340.434L167.479 346.785C167.973 346.952 168.402 347.27 168.705 347.694C169.009 348.118 169.172 348.626 169.172 349.147C169.172 349.669 169.009 350.177 168.705 350.601C168.402 351.025 167.973 351.343 167.479 351.51L160.316 355.555C159.047 356.198 157.645 356.532 156.224 356.532C154.802 356.532 153.4 356.198 152.132 355.555L141.112 349.204C140.619 349.037 140.19 348.719 139.886 348.295C139.582 347.871 139.419 347.363 139.419 346.842C139.419 346.32 139.582 345.812 139.886 345.388C140.19 344.964 140.619 344.647 141.112 344.479L148.257 340.434C149.53 339.785 150.939 339.447 152.368 339.447C153.797 339.447 155.206 339.785 156.479 340.434Z" fill="#F5F5F5"/>
<path d="M226.753 385.797V382.432L222.878 382.149L214.051 377.045C212.783 376.403 211.381 376.068 209.959 376.068C208.537 376.068 207.135 376.403 205.867 377.045L199.97 380.448L197.002 380.24V383.51C197.036 384.026 197.21 384.522 197.507 384.946C197.803 385.369 198.211 385.703 198.685 385.91L209.685 392.28C210.953 392.922 212.355 393.257 213.777 393.257C215.199 393.257 216.601 392.922 217.869 392.28L225.052 388.14C225.515 387.934 225.915 387.609 226.211 387.197C226.506 386.785 226.687 386.301 226.734 385.797H226.753Z" fill="#E0E0E0"/>
<path d="M214.051 373.662L225.07 380.032C225.564 380.199 225.993 380.517 226.297 380.941C226.6 381.365 226.764 381.873 226.764 382.394C226.764 382.916 226.6 383.424 226.297 383.848C225.993 384.271 225.564 384.589 225.07 384.757L217.888 388.896C216.62 389.539 215.218 389.874 213.796 389.874C212.374 389.874 210.972 389.539 209.704 388.896L198.704 382.546C198.21 382.378 197.781 382.06 197.477 381.636C197.174 381.213 197.01 380.704 197.01 380.183C197.01 379.662 197.174 379.153 197.477 378.73C197.781 378.306 198.21 377.988 198.704 377.82L205.867 373.662C207.135 373.019 208.537 372.685 209.959 372.685C211.381 372.685 212.783 373.019 214.051 373.662Z" fill="#F5F5F5"/>
<path d="M257.164 289.628L256.465 286.737L253.554 286.491L244.104 280.991C239.586 278.382 233.595 278.93 230.684 282.144C230.066 282.818 229.613 283.627 229.361 284.506H228.529L229.266 287.568C229.594 288.654 230.135 289.664 230.859 290.537C231.583 291.41 232.475 292.13 233.481 292.653L245.087 299.343C246.029 299.847 247.108 300.037 248.165 299.884C249.223 299.73 250.204 299.243 250.965 298.493C252.792 296.54 254.625 294.524 256.465 292.445C256.808 292.071 257.052 291.618 257.174 291.126C257.297 290.634 257.293 290.119 257.164 289.628Z" fill="#E0E0E0"/>
<path d="M244.349 296.414L232.744 289.723C228.227 287.115 227.074 282.465 229.928 279.252C232.782 276.039 238.83 275.472 243.348 278.099L254.953 284.79C255.366 285.004 255.723 285.311 255.996 285.688C256.269 286.064 256.451 286.499 256.526 286.958C256.601 287.417 256.568 287.887 256.43 288.331C256.291 288.775 256.051 289.181 255.728 289.515C253.888 291.594 252.055 293.61 250.228 295.564C249.468 296.316 248.487 296.806 247.429 296.959C246.371 297.112 245.291 296.921 244.349 296.414Z" fill="#F5F5F5"/>
<path d="M316.476 325.729L315.776 322.8H314.945C314.154 321.856 313.2 321.062 312.128 320.456L300.542 313.765C299.608 313.265 298.535 313.087 297.49 313.258C296.445 313.428 295.485 313.939 294.758 314.71C292.868 316.733 291.148 318.736 289.353 320.664L287.708 320.532L288.445 323.575C288.544 323.973 288.724 324.347 288.975 324.672C289.225 324.998 289.541 325.268 289.901 325.465L301.487 332.156C306.004 334.764 312.128 334.348 315.058 331.135C315.741 330.433 316.231 329.566 316.479 328.619C316.727 327.672 316.726 326.676 316.476 325.729Z" fill="#E0E0E0"/>
<path d="M300.844 329.093L289.258 322.402C288.847 322.197 288.492 321.895 288.222 321.523C287.953 321.151 287.777 320.719 287.711 320.264C287.644 319.81 287.688 319.346 287.839 318.912C287.99 318.478 288.243 318.087 288.578 317.772C290.405 315.806 292.238 313.79 294.078 311.723C294.804 310.952 295.764 310.442 296.81 310.271C297.855 310.1 298.928 310.278 299.862 310.778L311.448 317.469C315.984 320.078 317.326 324.86 314.415 328.073C311.505 331.286 305.381 331.664 300.844 329.093Z" fill="#F5F5F5"/>
<path d="M287.444 307.395L286.744 304.541L284.533 304.39L270.641 296.376C269.475 295.753 268.137 295.53 266.833 295.742C265.528 295.954 264.329 296.588 263.42 297.548C262.003 299.136 260.604 300.686 259.187 302.217C259.056 302.372 258.937 302.537 258.828 302.708H257.429L258.147 305.694C258.274 306.203 258.508 306.679 258.834 307.09C259.16 307.501 259.57 307.837 260.037 308.076L274.912 316.657C276.087 317.288 277.433 317.525 278.753 317.335C280.073 317.144 281.297 316.536 282.246 315.598C283.663 314.086 285.081 312.518 286.48 310.949C286.93 310.488 287.255 309.919 287.424 309.297C287.592 308.676 287.599 308.021 287.444 307.395Z" fill="#E0E0E0"/>
<path d="M285.799 307.962C284.401 309.531 282.983 311.1 281.584 312.612C280.631 313.548 279.404 314.156 278.082 314.346C276.759 314.536 275.41 314.3 274.232 313.67L259.357 305.089C258.845 304.832 258.402 304.454 258.067 303.989C257.731 303.525 257.512 302.986 257.429 302.419C257.346 301.851 257.4 301.272 257.587 300.731C257.775 300.189 258.09 299.7 258.506 299.306C259.924 297.775 261.323 296.225 262.74 294.637C263.649 293.677 264.848 293.043 266.152 292.831C267.457 292.62 268.795 292.842 269.96 293.465L284.835 302.046C285.345 302.321 285.786 302.709 286.122 303.181C286.458 303.652 286.681 304.195 286.774 304.767C286.868 305.339 286.828 305.924 286.659 306.478C286.49 307.032 286.196 307.54 285.799 307.962Z" fill="#F5F5F5"/>
<path d="M715.192 228.748L670.982 203.213L667.769 277.815L715.192 305.316V228.748Z" fill="#677FD7"/>
<path d="M715.192 305.317L737.287 292.558L724.037 223.645L715.192 228.749V305.317Z" fill="#37474F"/>
<path d="M737.287 292.558L722.865 290.687L715.192 305.317L737.287 292.558Z" fill="#37474F"/>
<path d="M737.287 292.558L722.865 290.687L715.192 305.317L737.287 292.558Z" fill="#37474F"/>
<path d="M737.287 292.558L722.865 290.687L715.192 305.317L737.287 292.558Z" fill="#677FD7"/>
<path opacity="0.1" d="M737.287 292.558L722.865 290.687L715.192 305.317L737.287 292.558Z" fill="black"/>
<path d="M722.865 290.687L715.192 223.645V228.749V305.317L722.865 290.687Z" fill="#677FD7"/>
<path opacity="0.2" d="M722.865 290.687L715.192 223.645V228.749V305.317L722.865 290.687Z" fill="black"/>
<path d="M670.982 203.213L678.713 202.646L679.828 198.11L724.037 223.645H715.192V228.749L670.982 203.213Z" fill="#677FD7"/>
<path opacity="0.2" d="M670.982 203.213L678.713 202.646L679.828 198.11L724.037 223.645H715.192V228.749L670.982 203.213Z" fill="black"/>
<path d="M700.751 225.573C700.751 226.216 700.279 226.5 699.712 226.159C699.414 225.964 699.167 225.701 698.989 225.393C698.812 225.084 698.71 224.738 698.691 224.383C698.691 223.721 699.145 223.456 699.712 223.778C700.014 223.974 700.266 224.239 700.447 224.551C700.627 224.863 700.732 225.213 700.751 225.573Z" fill="#677FD7"/>
<path opacity="0.3" d="M700.751 225.573C700.751 226.216 700.279 226.5 699.712 226.159C699.414 225.964 699.167 225.701 698.989 225.393C698.812 225.084 698.71 224.738 698.691 224.383C698.691 223.721 699.145 223.456 699.712 223.778C700.014 223.974 700.266 224.239 700.447 224.551C700.627 224.863 700.732 225.213 700.751 225.573Z" fill="black"/>
<path d="M687.634 217.786C687.634 218.448 687.161 218.712 686.594 218.391C686.281 218.185 686.024 217.904 685.846 217.574C685.668 217.245 685.574 216.876 685.574 216.501C685.574 215.858 686.027 215.575 686.594 215.915C686.907 216.118 687.165 216.395 687.347 216.721C687.528 217.048 687.626 217.413 687.634 217.786Z" fill="#677FD7"/>
<path opacity="0.3" d="M687.634 217.786C687.634 218.448 687.161 218.712 686.594 218.391C686.281 218.185 686.024 217.904 685.846 217.574C685.668 217.245 685.574 216.876 685.574 216.501C685.574 215.858 686.027 215.575 686.594 215.915C686.907 216.118 687.165 216.395 687.347 216.721C687.528 217.048 687.626 217.413 687.634 217.786Z" fill="black"/>
<g style="mix-blend-mode:multiply">
<path d="M709.616 220.338C709.616 220.999 709.143 221.264 708.576 220.942C708.276 220.745 708.027 220.48 707.85 220.167C707.672 219.855 707.571 219.506 707.556 219.147C707.556 218.504 708.009 218.24 708.576 218.561C708.876 218.755 709.127 219.017 709.307 219.326C709.488 219.634 709.593 219.981 709.616 220.338Z" fill="#677FD7"/>
</g>
<g style="mix-blend-mode:multiply" opacity="0.2">
<path d="M709.616 220.338C709.616 220.999 709.143 221.264 708.576 220.942C708.276 220.745 708.027 220.48 707.85 220.167C707.672 219.855 707.571 219.506 707.556 219.147C707.556 218.504 708.009 218.24 708.576 218.561C708.876 218.755 709.127 219.017 709.307 219.326C709.488 219.634 709.593 219.981 709.616 220.338Z" fill="black"/>
</g>
<g style="mix-blend-mode:multiply">
<path d="M696.385 212.569C696.385 213.231 695.913 213.495 695.346 213.174C695.046 212.977 694.796 212.711 694.619 212.399C694.442 212.087 694.341 211.737 694.325 211.378C694.325 210.736 694.779 210.452 695.346 210.793C695.646 210.987 695.896 211.249 696.077 211.557C696.257 211.866 696.363 212.212 696.385 212.569Z" fill="#677FD7"/>
</g>
<g style="mix-blend-mode:multiply" opacity="0.2">
<path d="M696.385 212.569C696.385 213.231 695.913 213.495 695.346 213.174C695.046 212.977 694.796 212.711 694.619 212.399C694.442 212.087 694.341 211.737 694.325 211.378C694.325 210.736 694.779 210.452 695.346 210.793C695.646 210.987 695.896 211.249 696.077 211.557C696.257 211.866 696.363 212.212 696.385 212.569Z" fill="black"/>
</g>
<path d="M724.037 223.645H715.192L722.865 290.687L737.287 292.558L724.037 223.645Z" fill="#677FD7"/>
<path d="M679.828 198.11L678.713 202.646L679.828 208.317L682.058 209.621L679.828 198.11Z" fill="#677FD7"/>
<path d="M664.953 74.2141C671.096 74.2141 683.457 76.2176 689.864 104.304C691.32 110.674 692.529 117.63 693.644 126.57C695.364 139.801 697.425 150.725 699.05 163.238C699.277 164.977 700.109 170.099 700.316 171.686C701.488 180.173 703.851 185.484 703.851 191.929C702.887 195.823 700.638 200.132 691.943 201.021C683.778 198.394 685.366 197.127 685.177 189.812C684.988 182.498 687.275 180.816 686.538 172.102C683.4 151.444 677.22 116.231 677.22 116.231L664.953 74.2141Z" fill="#FFA8A7"/>
<path d="M708.482 220.338C708.342 220.336 708.208 220.286 708.101 220.196C707.994 220.107 707.922 219.983 707.896 219.846C707.896 219.846 706.365 210.755 704.475 203.913C702.963 198.488 699.107 197.071 695.705 195.823C694.949 195.559 694.23 195.294 693.607 195.01C693.536 194.98 693.472 194.935 693.418 194.879C693.364 194.824 693.322 194.758 693.294 194.686C693.266 194.614 693.252 194.537 693.254 194.46C693.256 194.382 693.273 194.306 693.304 194.235C693.335 194.165 693.38 194.1 693.435 194.047C693.491 193.993 693.557 193.951 693.629 193.923C693.701 193.895 693.778 193.881 693.855 193.883C693.932 193.885 694.008 193.902 694.079 193.933C694.703 194.217 695.383 194.462 696.102 194.727C699.598 195.993 703.927 197.581 705.552 203.591C707.442 210.509 709.011 219.563 709.03 219.657C709.052 219.812 709.013 219.97 708.921 220.097C708.83 220.224 708.692 220.31 708.538 220.338H708.482Z" fill="#455A64"/>
<path d="M699.712 184.218C698.217 186.686 697.06 189.343 696.272 192.119C695.969 193.612 693.569 192.289 693.115 190.228C692.885 187.082 692.885 183.924 693.115 180.778C692.344 183.687 692.001 186.692 692.095 189.699C692.586 192.61 693.361 193.253 695.364 193.971C697.368 194.689 697.255 192.856 697.822 190.455C698.389 188.055 699.712 184.218 699.712 184.218Z" fill="#F28F8F"/>
<path d="M699.201 224.344V206.653C699.201 202.722 699.201 198.28 692.832 194.538C690.564 193.215 688.844 192.799 687.993 193.347C687.143 193.895 687.256 195.369 687.256 195.388V217.086C687.256 217.242 687.194 217.391 687.084 217.501C686.974 217.611 686.825 217.672 686.67 217.672C686.515 217.672 686.366 217.611 686.256 217.501C686.146 217.391 686.084 217.242 686.084 217.086V195.445C686.028 194.862 686.116 194.275 686.34 193.735C686.564 193.194 686.918 192.717 687.369 192.345C688.655 191.532 690.677 191.929 693.418 193.517C700.411 197.618 700.392 202.627 700.373 206.653V224.344C700.373 224.5 700.311 224.649 700.202 224.759C700.092 224.869 699.943 224.93 699.787 224.93C699.632 224.93 699.483 224.869 699.373 224.759C699.263 224.649 699.201 224.5 699.201 224.344Z" fill="#455A64"/>
<path d="M695.364 212.569C695.224 212.571 695.088 212.523 694.98 212.432C694.873 212.342 694.801 212.216 694.778 212.078L692.605 198.677C692.577 198.524 692.612 198.367 692.7 198.239C692.789 198.111 692.925 198.024 693.077 197.997C693.232 197.975 693.39 198.013 693.517 198.105C693.644 198.197 693.73 198.334 693.758 198.488L695.95 211.832C695.978 211.985 695.944 212.143 695.855 212.27C695.766 212.398 695.631 212.485 695.478 212.513L695.364 212.569Z" fill="#455A64"/>
<path d="M691.376 193.706C688.163 192.402 684.78 189.926 683.589 191.268C683.009 191.976 682.609 192.814 682.423 193.711C682.237 194.607 682.271 195.535 682.522 196.415C682.772 197.295 683.233 198.102 683.863 198.766C684.493 199.43 685.275 199.931 686.141 200.227C689.804 201.466 693.791 201.338 697.368 199.868L691.376 193.706Z" fill="#FFA8A7"/>
<path d="M660.303 73.5527C669.886 73.5527 681.453 76.5769 686.065 85.4414C690.998 94.8919 694.249 120.238 694.249 120.238C694.249 120.238 690.62 128.044 677.238 127.175L660.303 73.5527Z" fill="#37474F"/>
<path d="M583.754 309.626C581.373 308.378 579.842 311.421 577.687 313.86C576.156 315.561 573.793 318.263 573.434 320.21C572.924 323.102 575.513 327.638 578.386 330.133C581.259 332.628 584.605 334.424 585.644 339.905C585.909 342.419 586.882 344.806 588.452 346.787C590.021 348.768 592.122 350.262 594.509 351.094C600.727 353.778 609.063 352.985 611.898 351.094C615.243 348.921 612.181 346.558 607.494 339.754C601.37 330.984 596.588 324.728 596.588 316.543L583.754 309.626Z" fill="#263238"/>
<path d="M588.65 302.443L583.622 309.814C582.558 311.348 582.14 313.238 582.459 315.077C582.777 316.916 583.806 318.556 585.323 319.643L585.474 319.737C586.999 320.667 588.803 321.027 590.567 320.753C592.331 320.48 593.942 319.591 595.114 318.244L602.958 309.682L588.65 302.443Z" fill="#FFA8A7"/>
<path d="M681.075 158.531C681.397 167.982 678.732 205.916 672.249 222.795C665.766 239.673 661.985 250.031 659.944 253.528C657.903 257.024 599.045 314.332 599.045 314.332C599.045 314.332 589.046 313.595 587.459 303.918C587.459 303.918 611.576 262.921 616.812 254.51C622.048 246.099 640.533 233.209 640.533 233.209L638.851 159.665L681.075 158.531Z" fill="#37474F"/>
<path d="M668.099 358.768L680.54 355.939L676.42 337.822L663.98 340.651L668.099 358.768Z" fill="#FFA8A7"/>
<path d="M681.075 158.531H621.386C620.857 165.147 619.496 168.851 619.137 184.841C618.683 210.717 642.744 257.724 642.744 257.724C642.442 261.239 640.949 275.982 644.294 289.042C649.586 309.663 663.97 344.536 663.97 344.536C663.97 344.536 672.967 345.821 677.446 340.623C677.446 340.623 669.489 269.782 667.334 251.637C665.009 231.999 659.056 196.144 659.056 196.144C662.995 192.21 666.569 187.928 669.735 183.348C675.255 175.988 679.124 167.523 681.075 158.531Z" fill="#37474F"/>
<path d="M599.329 143.864C602.013 116.193 610.386 96.7443 611.614 89.7887L619.742 124.037C617.183 133.225 615.157 142.552 613.674 151.973C613.334 154.336 609.478 174.9 610.083 183.67C610.185 185.218 610.859 186.673 611.973 187.752C614.96 190.682 615.848 193.215 617.852 196.504C619.42 199.093 621.046 200 620.63 200.624C620.073 201.286 619.287 201.714 618.429 201.823C617.571 201.931 616.703 201.712 615.999 201.21C614.411 200.127 612.958 198.858 611.671 197.43C612.182 200.821 613.235 204.107 614.79 207.164C618.324 214.176 617.738 217.862 607.929 215.801C601.786 214.497 597.722 209.64 596.097 195.105C595.8 189.866 595.831 184.614 596.191 179.379C596.664 167.188 598.516 152.162 599.329 143.864Z" fill="#FFA8A7"/>
<path d="M640.589 74.1199C629.154 76.8794 613.542 80.4706 609.025 92.8696C604.507 105.269 599.574 128.781 599.574 128.781C603.147 132.959 614.26 135.151 619.061 132.562L621.31 125.134V158.437C630.251 168.171 661.456 172.707 681 158.437V96.3096C681 86.3677 675.481 74.4412 660.209 73.6284L640.589 74.1199Z" fill="#455A64"/>
<path d="M621.386 125.209L627.113 107.158L621.386 133.298V125.209Z" fill="#37474F"/>
<path d="M636.299 23.2572C635.272 23.1199 634.228 23.2188 633.245 23.5463C632.263 23.8739 631.368 24.4214 630.629 25.1473C628.209 27.6233 628.739 32.1974 630.629 42.7063L638.095 43.5758L636.299 23.2572Z" fill="#263238"/>
<path d="M679.847 20.2142C681.451 20.2221 683.04 19.9004 684.515 19.2691C686.802 17.9461 687.407 20.5544 686.16 22.8036C685.323 24.4229 684.087 25.8022 682.569 26.8109C681.051 27.8196 679.301 28.4245 677.484 28.5684C677.484 28.2471 675.348 22.728 675.348 22.728L679.847 20.2142Z" fill="#263238"/>
<path d="M639.796 43.6889C638.68 44.3505 637.112 42.2147 635.732 40.7782C635.194 40.1628 634.509 39.6949 633.74 39.4186C632.971 39.1423 632.144 39.0668 631.338 39.1993C630.532 39.3317 629.772 39.6678 629.132 40.1756C628.492 40.6835 627.992 41.3463 627.68 42.1013C625.412 46.8832 630.572 53.2339 633.596 55.332C634.44 56.0639 635.494 56.5108 636.607 56.6092C637.72 56.7076 638.836 56.4525 639.796 55.8801L640.589 74.1573C641.927 77.089 643.97 79.6437 646.536 81.593C649.102 83.5422 652.111 84.8254 655.294 85.3278C666.03 86.7832 663.819 77.9186 660.303 73.5903V66.9371C662.985 67.515 665.742 67.6555 668.468 67.353C669.867 66.975 673.213 62.949 675.367 58.4128C677.787 53.3473 681.812 44.3316 678.221 29.0974C674.441 12.7292 656.788 12.2377 646.298 18.8342C635.807 25.4306 639.796 43.6889 639.796 43.6889Z" fill="#FFA8A7"/>
<path d="M639.796 45.5793C639.247 45.5793 637.112 42.0637 635.732 40.7973C633.842 39.0584 636.299 23.3139 636.299 23.3139C636.299 23.3139 634.409 17.3223 638.189 13.372C641.969 9.42171 649.303 10.0643 654.652 9.87533C661.225 9.93573 667.741 8.64923 673.798 6.09514C681.359 2.78747 681.983 2.31494 682.928 5.73601C683.873 9.15709 684.232 16.7364 679.696 21.8585L677.219 25.8845C677.219 25.8845 674.914 27.7746 667.769 28.7007C660.624 29.6269 648.585 25.7522 646.978 25.5442C644.937 25.2607 644.483 27.2642 643.387 32.7077C642.48 37.3763 641.667 45.5793 639.796 45.5793Z" fill="#263238"/>
<path d="M636.299 24.4671L629.608 20.8759C630.058 19.9822 630.844 19.3034 631.793 18.9881C632.743 18.6727 633.778 18.7467 634.673 19.1937C635.572 19.6936 636.243 20.5213 636.545 21.5039C636.848 22.4864 636.76 23.548 636.299 24.4671Z" fill="#263238"/>
<path d="M660.284 66.8998C660.284 66.8998 650.342 64.8963 646.865 63.1196C644.821 62.0546 643.142 60.4024 642.045 58.3755C642.566 60.4314 643.498 62.3604 644.785 64.0458C647.318 67.2967 660.284 69.7161 660.284 69.7161V66.8998Z" fill="#F28F8F"/>
<path d="M660.606 43.2924C660.591 43.6851 660.461 44.0647 660.232 44.3841C660.003 44.7035 659.685 44.9485 659.318 45.0886C658.951 45.2287 658.55 45.2578 658.167 45.1721C657.783 45.0865 657.433 44.8899 657.161 44.607C656.888 44.324 656.705 43.9671 656.633 43.5806C656.562 43.1942 656.606 42.7953 656.759 42.4336C656.913 42.0719 657.17 41.7634 657.497 41.5464C657.825 41.3294 658.209 41.2135 658.602 41.2133C658.87 41.2182 659.135 41.2759 659.38 41.383C659.626 41.4902 659.848 41.6447 660.035 41.8378C660.221 42.0308 660.367 42.2587 660.465 42.5083C660.563 42.7578 660.611 43.0243 660.606 43.2924Z" fill="#263238"/>
<path d="M658.583 35.7697L654.312 38.1135C654.006 37.53 653.939 36.8503 654.126 36.2187C654.313 35.587 654.739 35.0531 655.313 34.7302C655.594 34.5749 655.904 34.4785 656.224 34.4469C656.543 34.4153 656.866 34.4492 657.172 34.5465C657.478 34.6438 657.761 34.8024 658.004 35.0127C658.246 35.2231 658.443 35.4806 658.583 35.7697Z" fill="#263238"/>
<path d="M659.377 56.6174L663.932 58.3185C663.832 58.6244 663.672 58.907 663.461 59.1497C663.25 59.3924 662.992 59.5902 662.703 59.7312C662.413 59.8723 662.099 59.9537 661.778 59.9708C661.456 59.9879 661.135 59.9402 660.832 59.8306C660.223 59.5854 659.731 59.1146 659.46 58.516C659.189 57.9175 659.159 57.2374 659.377 56.6174Z" fill="#F28F8F"/>
<path d="M678.372 37.4142L674.479 34.4278C674.661 34.1636 674.895 33.9396 675.167 33.7695C675.439 33.5995 675.743 33.487 676.06 33.4392C676.377 33.3913 676.701 33.4091 677.011 33.4914C677.321 33.5737 677.61 33.7187 677.862 33.9175C678.382 34.3218 678.725 34.9115 678.821 35.5632C678.916 36.2149 678.755 36.8781 678.372 37.4142Z" fill="#263238"/>
<path d="M677.163 42.7252C677.148 43.1187 677.017 43.4991 676.788 43.8188C676.558 44.1386 676.239 44.3835 675.871 44.523C675.502 44.6625 675.101 44.6905 674.717 44.6033C674.333 44.5161 673.983 44.3177 673.711 44.0329C673.44 43.748 673.258 43.3894 673.188 43.0017C673.119 42.6141 673.166 42.2146 673.322 41.8533C673.479 41.4919 673.738 41.1847 674.068 40.97C674.398 40.7553 674.784 40.6426 675.178 40.6461C675.445 40.651 675.709 40.7088 675.954 40.8162C676.199 40.9235 676.42 41.0784 676.604 41.2717C676.789 41.465 676.933 41.6931 677.029 41.9425C677.125 42.192 677.17 42.458 677.163 42.7252Z" fill="#263238"/>
<path d="M667.788 42.4796L665.898 54.3305L672.475 53.5556L667.788 42.4796Z" fill="#F28F8F"/>
<path d="M679.129 349.885L678.732 348.108C680.036 348.354 685.612 357.559 691.168 361.66C697.236 366.083 702.509 368.692 705.212 370.676C708.841 373.341 703.586 378.785 694.665 379.276C690.223 379.522 682.153 378.161 679.677 375.817C677.201 373.474 675.386 369.542 673.42 367.841C671.455 366.14 667.448 364.666 666.106 362.492C665.364 360.345 665.099 358.061 665.331 355.801C665.331 353.457 665.482 350.906 666.276 350.944C666.276 351.208 666.597 352.304 666.597 352.304C668.935 353.492 671.537 354.064 674.158 353.968C676.256 353.779 680.168 353.287 679.129 349.885Z" fill="#263238"/>
<path d="M665.765 239.617C665.765 239.617 660.473 201.966 659.056 196.144C659.056 196.144 667.599 191.4 670.831 187.696C668.377 191.231 665.687 194.597 662.779 197.77L665.765 239.617Z" fill="#263238"/>
<path d="M633.804 238.37C633.804 238.37 640.174 254.227 642.744 257.724C642.744 257.724 642.102 269.802 642.196 272.24L638.851 275.17C638.752 269.701 639.253 264.237 640.344 258.877C637.421 252.301 635.228 245.424 633.804 238.37Z" fill="#263238"/>
<path d="M217.075 472.496L448.537 338.847C449.55 338.334 450.67 338.066 451.807 338.066C452.943 338.066 454.063 338.334 455.076 338.847L602.088 423.731C603.042 424.351 603.836 425.188 604.405 426.173C604.973 427.159 605.3 428.265 605.358 429.401V430.706C605.298 431.841 604.971 432.947 604.403 433.932C603.834 434.918 603.041 435.755 602.088 436.376L370.627 570.006C369.618 570.523 368.5 570.793 367.366 570.793C366.233 570.793 365.115 570.523 364.106 570.006L217.056 483.704C216.108 483.08 215.319 482.241 214.755 481.256C214.19 480.271 213.865 479.167 213.805 478.034C213.881 476.919 214.216 475.839 214.784 474.877C215.352 473.915 216.136 473.1 217.075 472.496Z" fill="#677FD7"/>
<g opacity="0.2">
<path opacity="0.2" d="M217.075 472.496L448.537 338.847C449.55 338.334 450.67 338.066 451.807 338.066C452.943 338.066 454.063 338.334 455.076 338.847L602.088 423.731C603.042 424.351 603.836 425.188 604.405 426.173C604.973 427.159 605.3 428.265 605.358 429.401V430.706C605.298 431.841 604.971 432.947 604.403 433.932C603.834 434.918 603.041 435.755 602.088 436.376L370.627 570.006C369.618 570.523 368.5 570.793 367.366 570.793C366.233 570.793 365.115 570.523 364.106 570.006L217.056 483.704C216.108 483.08 215.319 482.241 214.755 481.256C214.19 480.271 213.865 479.167 213.805 478.034C213.881 476.919 214.216 475.839 214.784 474.877C215.352 473.915 216.136 473.1 217.075 472.496Z" fill="white"/>
</g>
<path d="M213.805 478.09C213.865 479.224 214.19 480.328 214.755 481.313C215.319 482.298 216.108 483.137 217.056 483.761L364.106 570.044C365.146 570.462 366.241 570.729 367.357 570.837V545.302L359.683 443.35L275.234 438.909L217.075 472.496C216.129 473.106 215.34 473.93 214.772 474.902C214.203 475.874 213.872 476.966 213.805 478.09Z" fill="#677FD7"/>
<path d="M213.805 478.09C213.865 479.224 214.19 480.328 214.755 481.313C215.319 482.298 216.108 483.137 217.056 483.761L364.106 570.044C365.146 570.462 366.241 570.729 367.357 570.837V545.302L359.683 443.35L275.234 438.909L217.075 472.496C216.129 473.106 215.34 473.93 214.772 474.902C214.203 475.874 213.872 476.966 213.805 478.09Z" fill="#677FD7"/>
<g opacity="0.2">
<path opacity="0.2" d="M213.805 478.09C213.865 479.224 214.19 480.328 214.755 481.313C215.319 482.298 216.108 483.137 217.056 483.761L364.106 570.044C365.146 570.462 366.241 570.729 367.357 570.837V545.302L359.683 443.35L275.234 438.909L217.075 472.496C216.129 473.106 215.34 473.93 214.772 474.902C214.203 475.874 213.872 476.966 213.805 478.09Z" fill="black"/>
</g>
<path d="M455.076 338.847L602.088 423.731C602.489 423.859 602.838 424.111 603.086 424.451C603.334 424.791 603.468 425.201 603.468 425.621C603.468 426.042 603.334 426.451 603.086 426.791C602.838 427.131 602.489 427.383 602.088 427.511L370.627 561.141C369.613 561.654 368.493 561.922 367.357 561.922C366.221 561.922 365.101 561.654 364.087 561.141L217.075 476.276C216.684 476.138 216.345 475.882 216.105 475.544C215.865 475.205 215.736 474.801 215.736 474.386C215.736 473.971 215.865 473.566 216.105 473.227C216.345 472.889 216.684 472.633 217.075 472.496L448.537 338.847C449.55 338.334 450.67 338.066 451.807 338.066C452.943 338.066 454.063 338.334 455.076 338.847Z" fill="#677FD7"/>
<path d="M345.526 434.939C345.104 434.9 344.697 434.765 344.336 434.543L329.971 426.245C329.536 425.999 329.309 425.754 329.272 425.546C329.234 425.338 329.423 425.092 329.82 424.865L336.227 421.179C337.692 420.272 339.381 419.792 341.104 419.792C342.826 419.792 344.515 420.272 345.98 421.179C346.623 421.501 347.16 422 347.53 422.616C347.665 422.838 347.737 423.093 347.737 423.353C347.737 423.613 347.665 423.868 347.53 424.09C348.484 423.845 349.477 423.794 350.451 423.94C351.425 424.086 352.36 424.426 353.2 424.941C354.693 425.81 355.468 426.831 355.525 427.852C355.582 428.872 354.712 429.987 352.954 431.008L346.717 434.505C346.374 434.768 345.958 434.92 345.526 434.939ZM342.011 425.489C342.445 425.224 342.672 424.96 342.653 424.676C342.634 424.393 342.389 424.09 341.897 423.807C341.448 423.527 340.933 423.37 340.404 423.353C339.912 423.363 339.43 423.5 339.005 423.75L336.643 425.13L339.648 426.85L342.011 425.489ZM349.042 429.137C349.514 428.872 349.703 428.57 349.647 428.248C349.585 428.047 349.48 427.862 349.34 427.706C349.2 427.549 349.027 427.425 348.834 427.341C348.325 427.034 347.746 426.865 347.152 426.85C346.615 426.837 346.084 426.975 345.621 427.247L342.975 428.778L346.32 430.668L349.042 429.137Z" fill="white"/>
<path d="M357.547 427.738C357.403 427.639 357.276 427.518 357.169 427.379L347.53 415.528C347.38 415.358 347.281 415.148 347.246 414.923C347.246 414.772 347.398 414.621 347.681 414.47L349.571 413.336C349.818 413.188 350.097 413.104 350.384 413.09C350.731 413.095 351.075 413.152 351.405 413.26L371.95 418.817C372.155 418.854 372.353 418.924 372.536 419.025C372.687 419.025 372.763 419.195 372.763 419.29C372.763 419.384 372.763 419.479 372.555 419.554L369.228 421.444C369.036 421.55 368.823 421.614 368.604 421.633C368.354 421.645 368.103 421.606 367.867 421.52L364.73 420.594L360.231 423.183L361.876 424.979C361.937 425.033 361.985 425.1 362.018 425.175C362.05 425.25 362.066 425.332 362.065 425.414C361.993 425.573 361.865 425.701 361.706 425.773L358.398 427.663C358.276 427.751 358.133 427.805 357.983 427.818C357.833 427.831 357.683 427.804 357.547 427.738ZM360.477 419.214L354.939 417.551L357.85 420.745L360.477 419.214Z" fill="white"/>
<path d="M374.426 418.155C374.004 418.116 373.596 417.98 373.235 417.758L358.852 409.442C358.423 409.203 358.196 408.976 358.171 408.762C358.146 408.547 358.335 408.321 358.738 408.081L360.439 407.098C360.666 406.961 360.916 406.865 361.176 406.815C361.489 406.76 361.809 406.76 362.121 406.815L375.352 408.705L367.792 404.32C367.376 404.074 367.13 403.828 367.092 403.62C367.055 403.413 367.244 403.167 367.64 402.94L369.738 401.73C370.098 401.515 370.51 401.404 370.929 401.409C371.358 401.445 371.772 401.581 372.139 401.806L386.523 410.122C386.951 410.362 387.178 410.589 387.203 410.803C387.203 411.011 387.014 411.238 386.598 411.483L384.916 412.447C384.69 412.591 384.441 412.694 384.179 412.75C383.872 412.804 383.559 412.804 383.253 412.75L370.022 410.86L377.582 415.263C378.011 415.515 378.238 415.742 378.263 415.944C378.263 416.152 378.074 416.379 377.658 416.624L375.579 417.834C375.231 418.043 374.832 418.154 374.426 418.155Z" fill="white"/>
<path d="M402.116 401.976C402.248 401.976 402.343 402.146 402.343 402.241C402.343 402.335 402.343 402.43 402.135 402.506L398.808 404.396C398.642 404.493 398.464 404.569 398.279 404.622C398.105 404.661 397.924 404.661 397.75 404.622L386.541 403.016L392.609 406.531C393.043 406.777 393.27 407.004 393.308 407.231C393.346 407.458 393.138 407.666 392.722 407.911L390.624 409.102C390.283 409.33 389.881 409.448 389.471 409.442C389.045 409.407 388.635 409.264 388.28 409.026L373.916 400.748C373.481 400.502 373.254 400.256 373.216 400.048C373.178 399.841 373.367 399.595 373.764 399.368L375.844 398.158C376.203 397.943 376.615 397.832 377.034 397.837C377.463 397.87 377.878 398.007 378.244 398.234L384.198 401.674L381.363 395.38C381.334 395.331 381.32 395.276 381.32 395.219C381.32 395.163 381.334 395.107 381.363 395.059C381.48 394.927 381.621 394.818 381.778 394.737L385.086 392.847C385.225 392.772 385.381 392.733 385.54 392.734C385.707 392.731 385.871 392.777 386.012 392.866C386.162 392.94 386.277 393.068 386.334 393.225L389.15 400.162L401.492 401.768C401.713 401.788 401.927 401.859 402.116 401.976Z" fill="white"/>
<path d="M410.565 395.474C407.501 395.371 404.514 394.487 401.889 392.904C398.997 391.222 397.504 389.577 397.372 387.914C397.239 386.251 398.468 384.72 401.001 383.246C402.067 382.632 403.195 382.131 404.365 381.752C405.444 381.398 406.56 381.169 407.692 381.072C407.927 381.044 408.165 381.09 408.372 381.204C408.519 381.301 408.642 381.43 408.731 381.582L409.62 383.17C409.752 383.34 409.752 383.472 409.62 383.548C409.43 383.639 409.225 383.69 409.015 383.699C407.682 383.873 406.397 384.309 405.235 384.984C403.893 385.74 403.344 386.591 403.477 387.517C403.609 388.443 404.573 389.407 406.293 390.409C407.833 391.345 409.578 391.89 411.377 391.997C412.945 392.087 414.506 391.726 415.876 390.957C416.866 390.463 417.669 389.66 418.163 388.67C418.222 388.537 418.313 388.42 418.427 388.33C418.636 388.259 418.862 388.259 419.07 388.33L421.943 388.859C422.141 388.892 422.332 388.955 422.51 389.048C422.582 389.089 422.641 389.15 422.678 389.224C422.715 389.298 422.729 389.382 422.718 389.464C422.472 390.711 421.168 392.016 418.824 393.358C416.324 394.823 413.462 395.557 410.565 395.474Z" fill="white"/>
<path d="M423.946 389.407C423.796 389.309 423.662 389.188 423.55 389.048L413.929 377.197C413.759 377.04 413.658 376.823 413.645 376.592C413.645 376.441 413.797 376.29 414.061 376.139L415.951 375.005C416.19 374.855 416.464 374.771 416.745 374.759C417.098 374.763 417.449 374.821 417.785 374.929L438.33 380.486C438.53 380.521 438.722 380.591 438.897 380.694C439.048 380.694 439.124 380.864 439.124 380.958C439.124 381.053 439.124 381.147 438.916 381.223L435.589 383.113C435.405 383.221 435.198 383.285 434.985 383.302C434.734 383.314 434.483 383.275 434.247 383.189L431.11 382.262L426.593 384.871L428.256 386.761C428.388 386.912 428.464 387.063 428.426 387.177C428.388 387.29 428.294 387.422 428.067 387.536L424.759 389.426C424.635 389.496 424.493 389.532 424.35 389.528C424.207 389.525 424.068 389.483 423.946 389.407ZM426.857 380.883L421.338 379.219L424.249 382.414L426.857 380.883Z" fill="white"/>
<path d="M440.825 379.824C440.396 379.788 439.982 379.652 439.615 379.428L425.251 371.13C424.835 370.884 424.608 370.658 424.57 370.431C424.532 370.204 424.703 369.996 425.118 369.75L430.392 366.707C432.119 365.603 434.126 365.016 436.175 365.016C438.225 365.016 440.232 365.603 441.959 366.707C444.322 368.068 445.153 369.467 444.473 370.903L451.939 372.793C452.105 372.824 452.264 372.881 452.411 372.963C452.472 372.992 452.526 373.035 452.568 373.087C452.611 373.139 452.641 373.2 452.657 373.266C452.657 373.379 452.657 373.474 452.43 373.568L449.425 375.307C449.234 375.409 449.031 375.486 448.82 375.534C448.609 375.588 448.388 375.588 448.178 375.534L441.354 373.644L439.691 374.608L443.963 377.065C444.397 377.311 444.624 377.556 444.643 377.764C444.662 377.972 444.492 378.199 444.076 378.445L441.978 379.654C441.616 379.814 441.218 379.873 440.825 379.824ZM437.744 371.489C439.048 370.733 438.992 369.958 437.612 369.164C437.032 368.777 436.355 368.558 435.658 368.531C434.961 368.505 434.27 368.671 433.662 369.013L431.961 369.996L436.157 372.415L437.744 371.489Z" fill="white"/>
<path d="M454.453 371.942C454.03 371.903 453.623 371.768 453.262 371.546L438.897 363.248C438.481 363.002 438.236 362.776 438.198 362.549C438.16 362.322 438.349 362.114 438.746 361.887L443.49 359.146C445.804 357.77 448.453 357.057 451.145 357.086C454.089 357.228 456.95 358.113 459.461 359.657C462.278 361.301 463.752 362.889 463.865 364.439C463.979 365.989 462.807 367.482 460.35 368.899L455.624 371.621C455.276 371.845 454.867 371.957 454.453 371.942ZM456.948 366.707C457.987 366.102 458.384 365.459 458.157 364.817C457.93 364.174 456.929 363.248 455.133 362.208C453.773 361.335 452.249 360.75 450.654 360.488C449.492 360.344 448.315 360.59 447.308 361.188L445.607 362.171L455.247 367.746L456.948 366.707Z" fill="white"/>
<path d="M263.137 481.36L302.659 458.528C303.676 458.016 304.799 457.75 305.938 457.75C307.077 457.75 308.2 458.016 309.218 458.528L341.047 476.919C341.447 477.047 341.797 477.299 342.045 477.639C342.293 477.979 342.426 478.388 342.426 478.809C342.426 479.229 342.293 479.639 342.045 479.979C341.797 480.319 341.447 480.571 341.047 480.699L301.525 503.512C300.511 504.026 299.391 504.293 298.255 504.293C297.119 504.293 295.999 504.026 294.985 503.512L263.137 485.141C262.746 485.003 262.406 484.747 262.167 484.409C261.927 484.07 261.798 483.665 261.798 483.251C261.798 482.836 261.927 482.431 262.167 482.092C262.406 481.754 262.746 481.498 263.137 481.36Z" fill="#E0E0E0"/>
<path d="M321.465 501.792L293.908 486.199C292.899 485.628 291.759 485.327 290.6 485.327C289.441 485.327 288.301 485.628 287.292 486.199L268.013 497.313L267.068 495.687L286.347 484.555C287.641 483.821 289.103 483.435 290.591 483.435C292.078 483.435 293.54 483.821 294.834 484.555L322.392 500.148L321.465 501.792Z" fill="white"/>
<path d="M313.621 478.563C312.102 478.566 310.609 478.168 309.293 477.41L282.454 461.892L283.399 460.267L310.257 475.766C311.282 476.36 312.446 476.673 313.631 476.673C314.816 476.673 315.98 476.36 317.005 475.766L336.189 464.69L337.134 466.334L317.95 477.41C316.635 478.172 315.141 478.57 313.621 478.563Z" fill="white"/>
<path d="M306.401 475.199L305.456 473.554L327.079 461.08L321.295 457.734L298.728 470.757L297.782 469.131L321.295 455.561L330.859 461.08L306.401 475.199Z" fill="white"/>
<path d="M282.907 506.498L273.325 500.979L297.953 486.86L298.898 488.486L277.124 500.979L282.907 504.306L305.626 491.208L306.571 492.833L282.907 506.498Z" fill="white"/>
<path d="M318.498 511.451L354.75 490.527C356.273 489.754 357.956 489.35 359.664 489.35C361.372 489.35 363.056 489.754 364.579 490.527L370.098 493.721C372.819 495.271 372.819 497.823 370.098 499.392L333.864 520.315C332.342 521.089 330.658 521.492 328.95 521.492C327.242 521.492 325.559 521.089 324.036 520.315L318.498 517.121C315.795 515.552 315.795 513 318.498 511.451Z" fill="#677FD7"/>
<g opacity="0.7">
<path opacity="0.7" d="M320.388 511.451L356.64 490.527C358.163 489.754 359.846 489.35 361.554 489.35C363.262 489.35 364.946 489.754 366.469 490.527L371.988 493.721C374.709 495.271 374.709 497.823 371.988 499.392L335.755 520.315C334.232 521.089 332.548 521.492 330.84 521.492C329.132 521.492 327.449 521.089 325.926 520.315L320.388 517.121C317.685 515.552 317.685 513 320.388 511.451Z" fill="white"/>
</g>
<path d="M372.252 480.415L408.485 459.511C410.008 458.737 411.692 458.334 413.4 458.334C415.108 458.334 416.791 458.737 418.314 459.511L423.852 462.705C426.555 464.274 426.555 466.807 423.852 468.375L387.6 489.299C386.081 490.072 384.4 490.475 382.695 490.475C380.99 490.475 379.31 490.072 377.79 489.299L372.252 486.104C369.531 484.517 369.531 481.984 372.252 480.415Z" fill="#677FD7"/>
<path d="M372.252 480.415L408.485 459.511C410.008 458.737 411.692 458.334 413.4 458.334C415.108 458.334 416.791 458.737 418.314 459.511L423.852 462.705C426.555 464.274 426.555 466.807 423.852 468.375L387.6 489.299C386.081 490.072 384.4 490.475 382.695 490.475C380.99 490.475 379.31 490.072 377.79 489.299L372.252 486.104C369.531 484.517 369.531 481.984 372.252 480.415Z" fill="#677FD7"/>
<path opacity="0.7" d="M372.252 480.415L408.485 459.511C410.008 458.737 411.692 458.334 413.4 458.334C415.108 458.334 416.791 458.737 418.314 459.511L423.852 462.705C426.555 464.274 426.555 466.807 423.852 468.375L387.6 489.299C386.081 490.072 384.4 490.475 382.695 490.475C380.99 490.475 379.31 490.072 377.79 489.299L372.252 486.104C369.531 484.517 369.531 481.984 372.252 480.415Z" fill="white"/>
<path d="M425.988 449.38L462.24 428.456C463.759 427.683 465.44 427.28 467.145 427.28C468.849 427.28 470.53 427.683 472.049 428.456L477.587 431.65C480.309 433.219 480.309 435.752 477.587 437.321L441.354 458.244C439.832 459.018 438.148 459.421 436.44 459.421C434.732 459.421 433.048 459.018 431.526 458.244L425.988 455.05C423.285 453.481 423.285 450.948 425.988 449.38Z" fill="#677FD7"/>
<path opacity="0.7" d="M425.988 449.38L462.24 428.456C463.759 427.683 465.44 427.28 467.145 427.28C468.849 427.28 470.53 427.683 472.049 428.456L477.587 431.65C480.309 433.219 480.309 435.752 477.587 437.321L441.354 458.244C439.832 459.018 438.148 459.421 436.44 459.421C434.732 459.421 433.048 459.018 431.526 458.244L425.988 455.05C423.285 453.481 423.285 450.948 425.988 449.38Z" fill="white"/>
<path d="M479.742 418.363L515.975 397.44C517.498 396.666 519.182 396.263 520.89 396.263C522.597 396.263 524.281 396.666 525.804 397.44L531.342 400.634C534.045 402.184 534.045 404.736 531.342 406.304L495.09 427.228C493.567 428.001 491.883 428.405 490.176 428.405C488.468 428.405 486.784 428.001 485.261 427.228L479.742 424.033C477.02 422.465 477.02 419.913 479.742 418.363Z" fill="#677FD7"/>
<path opacity="0.7" d="M479.742 418.363L515.975 397.44C517.498 396.666 519.182 396.263 520.89 396.263C522.597 396.263 524.281 396.666 525.804 397.44L531.342 400.634C534.045 402.184 534.045 404.736 531.342 406.304L495.09 427.228C493.567 428.001 491.883 428.405 490.176 428.405C488.468 428.405 486.784 428.001 485.261 427.228L479.742 424.033C477.02 422.465 477.02 419.913 479.742 418.363Z" fill="white"/>
<path d="M556.348 415.074C557.935 416.001 557.765 417.588 555.951 418.647L462.693 472.477C461.757 472.998 460.711 473.291 459.64 473.33C458.569 473.37 457.504 473.155 456.532 472.704C454.944 471.777 455.114 470.19 456.929 469.15L550.186 415.301C551.125 414.788 552.171 414.501 553.24 414.461C554.31 414.422 555.374 414.632 556.348 415.074Z" fill="#677FD7"/>
<g opacity="0.1">
<path opacity="0.1" d="M556.348 415.074C557.935 416.001 557.765 417.588 555.951 418.647L462.693 472.477C461.757 472.998 460.711 473.291 459.64 473.33C458.569 473.37 457.504 473.155 456.532 472.704C454.944 471.777 455.114 470.19 456.929 469.15L550.186 415.301C551.125 414.788 552.171 414.501 553.24 414.461C554.31 414.422 555.374 414.632 556.348 415.074Z" fill="black"/>
</g>
<path d="M571.771 423.958C573.378 424.884 573.207 426.472 571.393 427.511L511.666 461.968C510.73 462.489 509.683 462.782 508.612 462.821C507.541 462.861 506.476 462.646 505.504 462.195C503.917 461.287 504.087 459.681 505.901 458.641L565.609 424.185C566.545 423.663 567.592 423.37 568.663 423.331C569.734 423.292 570.799 423.506 571.771 423.958Z" fill="#677FD7"/>
<g opacity="0.1">
<path opacity="0.1" d="M571.771 423.958C573.378 424.884 573.207 426.472 571.393 427.511L511.666 461.968C510.73 462.489 509.683 462.782 508.612 462.821C507.541 462.861 506.476 462.646 505.504 462.195C503.917 461.287 504.087 459.681 505.901 458.641L565.609 424.185C566.545 423.663 567.592 423.37 568.663 423.331C569.734 423.292 570.799 423.506 571.771 423.958Z" fill="black"/>
</g>
</svg>
