<svg width="130" height="135" viewBox="0 0 130 135" fill="none" xmlns="http://www.w3.org/2000/svg">
<path d="M110.802 66.5869C85.4935 50.9345 44.593 50.9345 19.4481 66.5869C-5.69682 82.2393 -5.5609 107.613 19.7444 123.263C45.0497 138.912 85.9557 138.912 111.101 123.263C136.245 107.613 136.112 82.2423 110.802 66.5869Z" fill="#A2A1A1"/>
<path d="M9.35633 93.6444L35.5203 78.5302L56.415 90.5609C57.4683 89.3394 58.7284 88.3129 60.1376 87.5284C67.5861 83.2274 79.6296 83.2274 87.0237 87.5284C94.4179 91.8295 94.3732 98.8018 86.9375 103.103C85.3269 104.014 83.6096 104.721 81.8248 105.209L83.9242 106.416C84.0665 106.502 84.1843 106.622 84.2662 106.766C84.348 106.911 84.391 107.073 84.391 107.239C84.391 107.405 84.348 107.568 84.2662 107.712C84.1843 107.856 84.0665 107.977 83.9242 108.062L59.6392 122.077C59.0626 122.41 58.4085 122.585 57.7427 122.585C57.0769 122.585 56.4228 122.41 55.8462 122.077L9.35633 95.2901C9.21402 95.205 9.0962 95.0845 9.01439 94.9403C8.93258 94.796 8.88957 94.6331 8.88957 94.4673C8.88957 94.3015 8.93258 94.1385 9.01439 93.9943C9.0962 93.8501 9.21402 93.7295 9.35633 93.6444Z" fill="#484747"/>
<path d="M115.543 105.736C113.018 104.276 108.935 104.276 106.423 105.736C103.911 107.196 103.927 109.57 106.452 111.018C108.976 112.465 113.063 112.478 115.575 111.018C118.086 109.558 118.07 107.196 115.543 105.736Z" fill="#484747"/>
<path d="M117.106 96.6169L110.986 96.7958L104.867 96.6169C104.605 100.749 105.41 104.96 106.522 107.015C106.785 107.544 107.209 107.976 107.733 108.248C109.539 109.29 112.456 109.29 114.249 108.248C114.784 107.969 115.21 107.519 115.46 106.97C116.569 104.915 117.368 100.726 117.106 96.6169Z" fill="white"/>
<path d="M115.297 94.1117C117.697 95.4953 117.706 97.7384 115.326 99.1221C112.945 100.506 109.072 100.506 106.673 99.1221C104.273 97.7384 104.263 95.4953 106.647 94.1117C109.031 92.7281 112.9 92.7281 115.297 94.1117Z" fill="#EBEBEB"/>
<path d="M114.351 94.6613C116.22 95.7413 116.23 97.4924 114.373 98.5725C112.517 99.6525 109.491 99.6525 107.622 98.5725C105.752 97.4924 105.743 95.7413 107.599 94.6613C109.456 93.5813 112.479 93.5813 114.351 94.6613Z" fill="#E0E0E0"/>
<g opacity="0.15">
<path opacity="0.15" d="M114.351 94.6613C116.22 95.7413 116.23 97.4924 114.373 98.5725C112.517 99.6525 109.491 99.6525 107.622 98.5725C105.752 97.4924 105.743 95.7413 107.599 94.6613C109.456 93.5813 112.479 93.5813 114.351 94.6613Z" fill="black"/>
</g>
<path d="M121.045 70.5104C107.257 75.0224 107.133 84.2507 110.242 90.8172C111.025 92.1465 113.399 92.8591 115.463 84.6916L111.84 85.155L116.07 83.0173L117.166 79.7388L113.651 80.0008L118.125 78.1219C118.941 75.527 119.916 72.985 121.045 70.5104Z" fill="#3E63F6"/>
<path opacity="0.2" d="M121.045 70.5104C107.257 75.0224 107.133 84.2507 110.242 90.8172C111.025 92.1465 113.399 92.8591 115.463 84.6916L111.84 85.155L116.07 83.0173L117.166 79.7388L113.651 80.0008L118.125 78.1219C118.941 75.527 119.916 72.985 121.045 70.5104Z" fill="black"/>
<path opacity="0.2" d="M121.045 70.5104C107.257 75.0224 107.133 84.2507 110.242 90.8172C111.025 92.1465 113.399 92.8591 115.463 84.6916L111.84 85.155L116.07 83.0173L117.166 79.7388L113.651 80.0008L118.125 78.1219C118.941 75.527 119.916 72.985 121.045 70.5104Z" fill="white"/>
<path d="M117.147 72.8143C109.874 78.3328 109.219 84.6597 111.277 91.2646C110.545 85.4489 109.759 79.5694 117.147 72.8143Z" fill="white"/>
<path d="M97.6935 79.8794C111.284 81.7966 112.932 90.3635 111.13 96.9971C110.619 98.3648 108.529 99.4224 105.247 92.1593L108.698 91.9899L104.413 90.7118L102.848 87.8359L106.164 87.4876L101.691 86.4811C100.496 84.2003 99.1606 81.9955 97.6935 79.8794Z" fill="#3E63F6"/>
<path opacity="0.2" d="M97.6935 79.8794C111.284 81.7966 112.932 90.3635 111.13 96.9971C110.619 98.3648 108.529 99.4224 105.247 92.1593L108.698 91.9899L104.413 90.7118L102.848 87.8359L106.164 87.4876L101.691 86.4811C100.496 84.2003 99.1606 81.9955 97.6935 79.8794Z" fill="white"/>
<path opacity="0.1" d="M97.6935 79.8794C111.284 81.7966 112.932 90.3635 111.13 96.9971C110.619 98.3648 108.529 99.4224 105.247 92.1593L108.698 91.9899L104.413 90.7118L102.848 87.8359L106.164 87.4876L101.691 86.4811C100.496 84.2003 99.1606 81.9955 97.6935 79.8794Z" fill="black"/>
<path d="M101.707 81.378C109.395 85.3115 111.06 91.092 110.242 97.5851C109.954 92.0475 109.708 86.4427 101.707 81.378Z" fill="white"/>
<path d="M125.017 83.0908C112.555 83.2953 110.108 90.8332 110.99 97.0131C111.309 98.2913 113.063 99.4927 116.831 93.3128L113.741 92.7728L117.748 92.089L119.48 89.6797L116.527 88.999L120.681 88.5932C122.012 86.6718 123.46 84.8342 125.017 83.0908Z" fill="#3E63F6"/>
<path d="M121.237 83.9918C113.865 86.676 111.721 91.7024 111.731 97.6458C112.61 92.6865 113.46 87.6602 121.237 83.9918Z" fill="white"/>
<path opacity="0.2" d="M125.017 83.0908C112.555 83.2953 110.108 90.8332 110.99 97.0131C111.309 98.2913 113.063 99.4927 116.831 93.3128L113.741 92.7728L117.748 92.089L119.48 89.6797L116.527 88.999L120.681 88.5932C122.012 86.6718 123.46 84.8342 125.017 83.0908Z" fill="white"/>
<path d="M66.4422 96.9069L67.3049 97.4565C67.4595 97.5257 67.6296 97.5527 67.798 97.5347C67.9664 97.5167 68.127 97.4545 68.2636 97.3543C68.6652 97.0949 68.9995 96.7438 69.2389 96.3299C69.4784 95.916 69.6161 95.4512 69.6408 94.9737C69.6559 94.8074 69.6283 94.64 69.5607 94.4874C69.493 94.3347 69.3875 94.2019 69.2541 94.1014L68.9985 93.9416L77.2586 90.5832C77.2675 90.6839 77.3014 90.7808 77.3572 90.865C77.413 90.9493 77.4889 91.0183 77.5781 91.0657L76.8336 97.562V98.4407C76.5001 98.7109 76.2267 99.0476 76.0308 99.4295C75.8349 99.8113 75.7209 100.23 75.696 100.658C75.6794 100.833 75.7108 101.008 75.7868 101.166C75.8629 101.324 75.9807 101.458 76.1274 101.553L76.9902 102.103H77.0062C77.1612 102.17 77.331 102.195 77.4989 102.177C77.6668 102.16 77.8273 102.099 77.9648 102C78.3665 101.74 78.7008 101.389 78.9402 100.974C79.1796 100.56 79.3173 100.095 79.342 99.6166C79.3571 99.4503 79.3296 99.2829 79.2619 99.1303C79.1942 98.9776 79.0887 98.8448 78.9554 98.7443L78.0575 98.1883C77.9189 98.1061 77.7577 98.0703 77.5973 98.086L78.5559 91.3182C78.7609 91.3159 78.9643 91.2836 79.1599 91.2223L86.9822 95.4498L86.5317 95.7342C86.3966 95.8332 86.2899 95.9658 86.2221 96.1189C86.1543 96.2719 86.1277 96.4401 86.145 96.6066C86.1699 97.0837 86.3073 97.5481 86.5461 97.9619C86.785 98.3756 87.1183 98.727 87.519 98.9871C87.6555 99.0873 87.8162 99.1496 87.9846 99.1675C88.1529 99.1855 88.3231 99.1585 88.4777 99.0894L89.3404 98.5398C89.4871 98.4436 89.6046 98.309 89.6801 98.1507C89.7556 97.9924 89.7862 97.8164 89.7686 97.6419C89.7451 97.2174 89.6335 96.8025 89.441 96.4234C89.2485 96.0444 88.9791 95.7096 88.6502 95.4402V94.0758L81.3807 89.7556L85.2152 88.797C84.9642 89.2093 84.8234 89.6791 84.8061 90.1614C84.7889 90.3363 84.82 90.5125 84.896 90.6708C84.9721 90.8292 85.0902 90.9636 85.2375 91.0594L86.1003 91.6122H86.1163C86.2708 91.6813 86.441 91.7083 86.6094 91.6903C86.7777 91.6723 86.9384 91.6101 87.0749 91.5099C87.4756 91.2497 87.809 90.8984 88.0478 90.4846C88.2866 90.0709 88.424 89.6064 88.4489 89.1293C88.4662 88.9628 88.4397 88.7947 88.3718 88.6416C88.304 88.4886 88.1973 88.356 88.0623 88.257L87.1835 87.685C87.0869 87.6316 86.9804 87.5984 86.8705 87.5874C86.7607 87.5765 86.6497 87.5879 86.5444 87.6211V87.4038L86.0779 87.244L79.8373 87.5636V86.4612C79.9044 86.4292 79.9715 86.4037 80.0322 86.3685C80.2016 86.2927 80.348 86.1736 80.4568 86.0233C80.5656 85.873 80.633 85.6967 80.6521 85.5121V78.3065H76.4598V85.5249C76.4761 85.7091 76.5412 85.8855 76.6485 86.0361C76.7558 86.1866 76.9013 86.3058 77.0701 86.3813C77.1363 86.4181 77.2046 86.4512 77.2746 86.4804V87.407L72.7659 86.4324L72.5486 86.5187V87.3463L71.6667 87.9023C71.5316 88.0013 71.4249 88.1339 71.3571 88.287C71.2892 88.44 71.2627 88.6081 71.28 88.7746C71.3104 89.4188 71.5493 90.0355 71.9606 90.5321L67.6021 92.4941V93.5262C67.5409 93.5517 67.4812 93.5805 67.4232 93.6125C67.0226 93.873 66.6891 94.2244 66.4498 94.6381C66.2105 95.0517 66.0722 95.5159 66.0459 95.9931C66.0219 96.1671 66.0462 96.3443 66.116 96.5055C66.1859 96.6667 66.2987 96.8055 66.4422 96.9069ZM69.04 92.2512L72.1971 90.8453L67.928 92.7433L69.04 92.2512ZM74.6224 88.7011L75.2615 89.0431L74.8205 89.2444C74.7712 89.0576 74.7048 88.8758 74.6224 88.7011ZM77.265 88.5861L74.8876 89.6438L77.265 88.5861Z" fill="#E0E0E0"/>
<path d="M87.3912 89.4393L88.0814 88.257L87.1835 87.685C87.0258 87.6057 86.8492 87.5715 86.6733 87.5862C86.4974 87.6008 86.3289 87.6638 86.1865 87.7681C85.7865 88.0292 85.4534 88.3807 85.2142 88.7942C84.975 89.2078 84.8363 89.6717 84.8093 90.1487C84.792 90.3235 84.8231 90.4997 84.8992 90.6581C84.9753 90.8164 85.0934 90.9508 85.2407 91.0466L86.1226 91.609L86.848 90.3628C87.0781 90.0866 87.2616 89.7746 87.3912 89.4393Z" fill="#37474F"/>
<path d="M87.0844 88.3401C87.8449 87.9023 88.4648 88.2538 88.468 89.1293C88.4432 89.6064 88.3057 90.0708 88.0669 90.4846C87.8281 90.8984 87.4947 91.2497 87.094 91.5099C86.3303 91.9509 85.7104 91.5994 85.7072 90.7206C85.7334 90.2435 85.8718 89.7793 86.1111 89.3656C86.3504 88.952 86.6839 88.6006 87.0844 88.3401Z" fill="#455A64"/>
<path d="M72.3217 89.1038L71.6315 87.9183L72.5294 87.3655C72.6871 87.2862 72.8637 87.252 73.0396 87.2666C73.2155 87.2813 73.384 87.3442 73.5264 87.4485C73.9271 87.7087 74.2605 88.0601 74.4993 88.4738C74.7381 88.8876 74.8755 89.352 74.9004 89.8291C74.9196 90.0033 74.8897 90.1795 74.814 90.3376C74.7383 90.4957 74.6199 90.6295 74.4722 90.7238L73.5839 91.2766L72.8553 90.0272C72.6287 89.7503 72.4484 89.4384 72.3217 89.1038Z" fill="#37474F"/>
<path d="M72.6253 88.0046C71.8648 87.5636 71.2449 87.9151 71.2417 88.7906C71.2668 89.2681 71.4043 89.7329 71.6431 90.1471C71.8819 90.5614 72.2151 90.9134 72.6157 91.1744C73.3794 91.6122 73.9993 91.2607 74.0025 90.3852C73.9763 89.908 73.8379 89.4438 73.5986 89.0301C73.3593 88.6165 73.0259 88.2651 72.6253 88.0046Z" fill="#455A64"/>
<path d="M77.265 86.1704H79.8213V90.58C79.8106 90.693 79.7701 90.8011 79.7038 90.8932C79.6376 90.9853 79.548 91.0581 79.4443 91.1041C79.1638 91.2474 78.8533 91.3221 78.5384 91.3221C78.2234 91.3221 77.9129 91.2474 77.6325 91.1041C77.53 91.0572 77.4417 90.984 77.3766 90.892C77.3115 90.7999 77.2719 90.6923 77.2618 90.58L77.265 86.1704Z" fill="#EBEBEB"/>
<path d="M86.5316 87.407V88.4583L79.8245 90.1487V87.9215L86.5316 87.407Z" fill="#E0E0E0"/>
<path d="M86.5316 87.407L86.0651 87.2472L79.8245 87.5764V87.9215L86.5316 87.407Z" fill="#F5F5F5"/>
<path d="M87.2027 96.9517L86.5125 95.7694L87.4104 95.2006C87.5681 95.1213 87.7447 95.0871 87.9206 95.1018C88.0965 95.1164 88.265 95.1794 88.4074 95.2837C88.8075 95.5444 89.1405 95.8959 89.3793 96.3096C89.618 96.7232 89.7558 97.1874 89.7814 97.6643C89.799 97.8388 89.7684 98.0148 89.6929 98.1731C89.6174 98.3314 89.4999 98.466 89.3532 98.5622L88.4713 99.1214L87.7427 97.8752C87.514 97.5985 87.3317 97.2867 87.2027 96.9517Z" fill="#37474F"/>
<path d="M87.5094 95.8396C86.7489 95.3987 86.129 95.7502 86.1258 96.6257C86.1507 97.1028 86.2881 97.5672 86.5269 97.981C86.7657 98.3948 87.0991 98.7461 87.4998 99.0063C88.2635 99.4472 88.8834 99.0958 88.8866 98.2202C88.8604 97.7431 88.722 97.2788 88.4827 96.8652C88.2434 96.4516 87.91 96.1002 87.5094 95.8396Z" fill="#455A64"/>
<path d="M78.2715 99.9426L78.9649 98.7571L78.0574 98.1883C77.8997 98.109 77.7232 98.0748 77.5472 98.0895C77.3713 98.1041 77.2029 98.1671 77.0605 98.2714C76.6599 98.5319 76.3264 98.8833 76.0871 99.2969C75.8478 99.7106 75.7095 100.175 75.6832 100.652C75.6666 100.826 75.698 101.002 75.774 101.16C75.8501 101.317 75.9679 101.451 76.1146 101.547L76.9934 102.109L77.7219 100.86C77.9548 100.587 78.1405 100.277 78.2715 99.9426Z" fill="#37474F"/>
<path d="M77.968 98.8434C78.7285 98.4024 79.3484 98.7571 79.3516 99.6294C79.3269 100.107 79.1892 100.573 78.9498 100.987C78.7104 101.401 78.3761 101.753 77.9744 102.013C77.2139 102.451 76.594 102.099 76.5908 101.224C76.616 100.747 76.7539 100.282 76.9933 99.8681C77.2327 99.4544 77.5667 99.1032 77.968 98.8434Z" fill="#455A64"/>
<path d="M68.5895 95.2964L69.2829 94.1141L68.385 93.5453C68.2273 93.4661 68.0507 93.4319 67.8748 93.4465C67.6989 93.4612 67.5304 93.5241 67.388 93.6284C66.9875 93.889 66.654 94.2404 66.4147 94.654C66.1754 95.0676 66.037 95.5319 66.0108 96.009C65.9935 96.1838 66.0246 96.36 66.1007 96.5184C66.1768 96.6767 66.2949 96.8111 66.4422 96.9069L67.3209 97.4661L68.0495 96.2199C68.2786 95.9436 68.4611 95.6316 68.5895 95.2964Z" fill="#37474F"/>
<path d="M68.2859 94.2004C69.0464 93.7595 69.6664 94.111 69.6695 94.9865C69.6449 95.464 69.5071 95.9288 69.2677 96.3427C69.0283 96.7566 68.694 97.1076 68.2923 97.3671C67.5318 97.808 66.9119 97.4565 66.9087 96.581C66.9334 96.1035 67.0711 95.6387 67.3106 95.2248C67.55 94.811 67.8843 94.4599 68.2859 94.2004Z" fill="#455A64"/>
<path d="M88.1421 94.3762V96.0761L79.163 91.2255V88.8769L88.1421 94.3762Z" fill="#E0E0E0"/>
<path d="M88.663 94.0822L79.6775 88.7459L79.163 88.8769L88.1421 94.3762L88.663 94.0822Z" fill="#F5F5F5"/>
<path d="M88.663 95.7853L88.1422 96.0761V94.3762L88.663 94.0822V95.7853Z" fill="#F0F0F0"/>
<path d="M78.5592 88.8769L77.4631 97.5588V99.1086L78.5592 91.3214V88.8769Z" fill="#E0E0E0"/>
<path d="M77.4631 97.5588H76.8304V99.1118H77.4631V97.5588Z" fill="#F0F0F0"/>
<path d="M76.8304 97.5588L77.8274 88.8769H78.5591L77.4631 97.5588H76.8304Z" fill="#F5F5F5"/>
<path d="M67.928 92.7433V94.3762L77.265 90.58V88.5861L67.928 92.7433Z" fill="#E0E0E0"/>
<path d="M67.5669 94.1333L67.928 94.3762V92.7433L67.5669 92.5101V94.1333Z" fill="#F0F0F0"/>
<path d="M69.04 92.2513L67.928 92.7433L67.5669 92.5101L77.265 88.142V88.5861L69.04 92.2513Z" fill="#F5F5F5"/>
<path d="M72.539 86.5187V87.586L75.2615 89.0431L77.265 88.142V87.7042L72.539 86.5187Z" fill="#E0E0E0"/>
<path d="M72.539 86.5187L72.7531 86.4324L77.265 87.407V87.7042L72.539 86.5187Z" fill="#F5F5F5"/>
<path d="M76.4598 78.3065H80.6489V85.5249C80.6298 85.7095 80.5625 85.8858 80.4537 86.0361C80.3449 86.1864 80.1984 86.3055 80.029 86.3813C79.5707 86.6145 79.0638 86.736 78.5496 86.736C78.0353 86.736 77.5284 86.6145 77.0701 86.3813C76.9013 86.3058 76.7558 86.1866 76.6485 86.0361C76.5412 85.8855 76.4761 85.7091 76.4598 85.5249V78.3065Z" fill="#E0E0E0"/>
<path d="M59.9587 66.7072C60.1577 66.39 60.4308 66.1257 60.7543 65.9371L62.3201 65.1351C62.3201 59.5527 61.4957 60.0991 59.9587 57.9103C58.4217 55.7214 60.7767 54.3602 62.5533 55.3316C62.5533 55.3316 72.4782 58.2522 75.1049 55.6735C78.3706 52.4781 77.0029 44.3873 76.6131 41.2239C76.2233 38.0604 76.6131 35.8716 77.4886 34.9481C78.3642 34.0246 79.6296 32.6602 83.7388 34.3633C83.7388 34.3633 94.8173 39.1564 100.24 41.8406C101.514 42.1078 102.694 42.7113 103.656 43.5885C103.93 43.8115 104.148 44.0947 104.295 44.4161C104.364 44.5761 104.39 44.7517 104.368 44.9247C104.347 45.0978 104.28 45.2619 104.173 45.4003C104.005 45.5757 103.777 45.6808 103.534 45.6942L96.6898 70.9794C96.4674 71.7975 96.0761 72.5599 95.5412 73.2176C95.0062 73.8752 94.3395 74.4136 93.5839 74.798L81.6043 80.8405C81.033 81.1287 80.401 81.2759 79.7611 81.2698C79.1212 81.2637 78.4921 81.1044 77.9264 80.8053L60.863 71.74C59.1598 70.7686 59 68.1611 59.9587 66.7072Z" fill="#37474F"/>
<path d="M59.9587 66.7072C60.1884 67.0599 60.4983 67.3533 60.863 67.5636L77.9264 76.6257C78.4916 76.9261 79.1207 77.0864 79.7607 77.093C80.4007 77.0997 81.033 76.9526 81.6043 76.6641L93.5583 70.6088C94.3139 70.2244 94.9807 69.6861 95.5156 69.0284C96.0505 68.3707 96.4418 67.6083 96.6642 66.7903L102.416 45.4833L102.707 45.5728C102.95 45.6512 103.205 45.689 103.461 45.6847H103.493L96.6483 70.9699C96.4258 71.7879 96.0346 72.5503 95.4996 73.208C94.9647 73.8657 94.2979 74.404 93.5423 74.7884L81.6043 80.8405C81.033 81.1287 80.401 81.2759 79.7611 81.2698C79.1212 81.2637 78.4921 81.1044 77.9264 80.8053L60.863 71.74C59.1598 70.7686 59 68.1611 59.9587 66.7072Z" fill="#37474F"/>
<path d="M60.7544 65.9371L73.1174 59.5942L89.4139 67.9726C88.8835 68.1004 88.3467 68.2058 87.8162 68.3145C86.4166 68.5957 84.9883 68.9056 83.7708 69.6533C82.5534 70.4011 81.5724 71.6824 81.5628 73.1108L81.9974 76.4691L81.6203 76.664C81.049 76.9526 80.4167 77.0997 79.7767 77.093C79.1367 77.0863 78.5076 76.9261 77.9424 76.6257L60.863 67.554C60.4983 67.3437 60.1885 67.0503 59.9587 66.6976C60.159 66.3839 60.4319 66.123 60.7544 65.9371Z" fill="#455A64"/>
<path opacity="0.1" d="M60.7544 65.9371L73.1174 59.5942L89.4139 67.9726C88.8835 68.1004 88.3467 68.2058 87.8162 68.3145C86.4166 68.5957 84.9883 68.9056 83.7708 69.6533C82.5534 70.4011 81.5724 71.6824 81.5628 73.1108L81.9974 76.4691L81.6203 76.664C81.049 76.9526 80.4167 77.0997 79.7767 77.093C79.1367 77.0863 78.5076 76.9261 77.9424 76.6257L60.863 67.554C60.4983 67.3437 60.1885 67.0503 59.9587 66.6976C60.159 66.3839 60.4319 66.123 60.7544 65.9371Z" fill="black"/>
<path d="M62.5534 55.3316C62.5534 55.3316 72.4783 58.2522 75.1049 55.6735C78.3706 52.4781 77.003 44.3873 76.6131 41.2239C76.2233 38.0604 76.6131 35.8716 77.4887 34.9481C78.3642 34.0246 79.6296 32.6602 83.7389 34.3633C79.5848 36.5043 79.0448 46.6784 80.3581 50.7621C77.0988 54.1173 77.3225 59.313 77.2586 61.7256C77.2586 61.7256 68.7812 63.7962 64.3524 66.2311L62.5534 55.3316Z" fill="#455A64"/>
<path opacity="0.1" d="M62.5534 55.3316C62.5534 55.3316 72.4783 58.2522 75.1049 55.6735C78.3706 52.4781 77.003 44.3873 76.6131 41.2239C76.2233 38.0604 76.6131 35.8716 77.4887 34.9481C78.3642 34.0246 79.6296 32.6602 83.7389 34.3633C79.5848 36.5043 79.0448 46.6784 80.3581 50.7621C77.0988 54.1173 77.3225 59.313 77.2586 61.7256C77.2586 61.7256 68.7812 63.7962 64.3524 66.2311L62.5534 55.3316Z" fill="white"/>
<path d="M64.3524 66.2311L62.3201 65.1351C62.3201 59.5527 61.4957 60.0991 59.9587 57.9103C58.4217 55.7214 60.7767 54.3602 62.5534 55.3316C64.33 56.303 65.0458 59.2459 64.3524 66.2311Z" fill="#455A64"/>
<path opacity="0.2" d="M64.3524 66.2311L62.3201 65.1351C62.3201 59.5527 61.4957 60.0991 59.9587 57.9103C58.4217 55.7214 60.7767 54.3602 62.5534 55.3316C64.33 56.303 65.0458 59.2459 64.3524 66.2311Z" fill="white"/>
<path d="M83.7389 34.3633C83.7389 34.3633 94.8589 39.1788 100.269 41.8566L99.8757 43.8313L82.1444 35.7789C82.5612 35.1918 83.1066 34.7077 83.7389 34.3633Z" fill="#455A64"/>
<path opacity="0.1" d="M83.7389 34.3633C83.7389 34.3633 94.8589 39.1788 100.269 41.8566L99.8757 43.8313L82.1444 35.7789C82.5612 35.1918 83.1066 34.7077 83.7389 34.3633Z" fill="white"/>
<path d="M80.3581 50.7621C79.2365 47.2759 79.4666 39.3546 82.1443 35.7789L99.8756 43.8313L95.8239 64.1445L89.4011 67.979L77.2586 61.7319C77.3225 59.313 77.0988 54.1333 80.3581 50.7621Z" fill="#455A64"/>
<path d="M91.3343 54.8363C91.034 54.6605 90.7879 54.8011 90.7879 55.1558C90.7974 55.3443 90.8516 55.5278 90.9461 55.6912C91.0405 55.8545 91.1725 55.993 91.3312 56.0953C91.6315 56.271 91.8744 56.1304 91.8776 55.7757C91.8673 55.5874 91.8128 55.4042 91.7184 55.241C91.624 55.0777 91.4924 54.9391 91.3343 54.8363Z" fill="#455A64"/>
<path d="M88.6023 53.2226C88.3019 53.05 88.0559 53.1874 88.0559 53.5421C88.0661 53.7309 88.1206 53.9145 88.215 54.0783C88.3094 54.242 88.441 54.3813 88.5991 54.4848C88.8995 54.6573 89.1455 54.5167 89.1455 54.1652C89.1358 53.9764 89.0815 53.7926 88.9871 53.6287C88.8926 53.4649 88.7608 53.3257 88.6023 53.2226Z" fill="#455A64"/>
<path d="M85.8446 51.6089C85.5443 51.4364 85.3014 51.577 85.2982 51.9285C85.3085 52.1167 85.363 52.3 85.4574 52.4632C85.5518 52.6264 85.6834 52.7651 85.8414 52.8679C86.1418 53.0405 86.3879 52.9031 86.3879 52.5484C86.3779 52.36 86.3234 52.1767 86.229 52.0134C86.1346 51.8501 86.0029 51.7115 85.8446 51.6089Z" fill="#455A64"/>
<path d="M83.103 49.9984C82.7835 49.8227 82.5566 49.9633 82.5534 50.318C82.5636 50.5063 82.6182 50.6895 82.7126 50.8527C82.8069 51.016 82.9385 51.1546 83.0966 51.2574C83.4161 51.4332 83.643 51.2926 83.643 50.9379C83.6342 50.7496 83.5805 50.5662 83.4866 50.4028C83.3927 50.2395 83.2612 50.1008 83.103 49.9984Z" fill="#455A64"/>
<g opacity="0.2">
<path opacity="0.2" d="M91.3344 54.8363C91.0341 54.6605 90.788 54.8011 90.788 55.1558C90.7975 55.3443 90.8517 55.5278 90.9462 55.6911C91.0406 55.8545 91.1726 55.993 91.3313 56.0953C91.6316 56.271 91.8745 56.1304 91.8777 55.7757C91.8674 55.5874 91.8129 55.4042 91.7185 55.241C91.6241 55.0777 91.4925 54.9391 91.3344 54.8363Z" fill="white"/>
<path opacity="0.2" d="M88.6024 53.2226C88.302 53.05 88.056 53.1874 88.056 53.5421C88.0662 53.7309 88.1207 53.9145 88.2151 54.0783C88.3095 54.242 88.441 54.3813 88.5992 54.4848C88.8995 54.6573 89.1456 54.5167 89.1456 54.1652C89.1359 53.9764 89.0816 53.7925 88.9871 53.6287C88.8927 53.4649 88.7609 53.3257 88.6024 53.2226Z" fill="white"/>
<path opacity="0.2" d="M85.8447 51.6089C85.5443 51.4364 85.3015 51.577 85.2983 51.9285C85.3085 52.1167 85.3631 52.3 85.4575 52.4632C85.5519 52.6264 85.6834 52.7651 85.8415 52.8679C86.1419 53.0405 86.3879 52.9031 86.3879 52.5484C86.378 52.36 86.3235 52.1767 86.2291 52.0134C86.1347 51.8502 86.003 51.7115 85.8447 51.6089Z" fill="white"/>
<path opacity="0.2" d="M83.103 49.9984C82.7835 49.8227 82.5566 49.9633 82.5534 50.318C82.5636 50.5063 82.6182 50.6895 82.7126 50.8527C82.8069 51.016 82.9385 51.1546 83.0966 51.2574C83.4161 51.4332 83.643 51.2926 83.643 50.9379C83.6342 50.7496 83.5805 50.5662 83.4866 50.4028C83.3927 50.2395 83.2612 50.1008 83.103 49.9984Z" fill="white"/>
</g>
<path d="M83.7549 69.6534C84.9723 68.9056 86.4006 68.5957 87.8002 68.3145C88.3339 68.2059 88.8707 68.1004 89.3979 67.9726C90.26 67.7828 91.0929 67.4787 91.8744 67.0683C93.8363 65.9851 95.1529 63.9592 95.7855 61.8087C96.4182 59.6581 96.4246 57.3798 96.2968 55.1431C96.169 52.9063 95.8878 50.6695 95.9549 48.4327C95.9932 47.129 96.1914 45.7326 97.0733 44.774C97.9552 43.8154 99.4507 43.4766 100.78 43.6556C101.214 43.72 101.642 43.8216 102.058 43.9591L102.649 44.6462L102.422 45.4833L96.6707 66.7903C96.2677 68.2674 95.3215 69.5377 94.0217 70.3468C93.8715 70.4394 93.7213 70.5289 93.5647 70.6088L81.9814 76.4692L81.5468 73.1108C81.5724 71.6825 82.531 70.4011 83.7549 69.6534Z" fill="#37474F"/>
<path d="M83.7389 67.3622C87.9728 66.1576 92.1332 66.001 93.6638 62.959C95.1944 59.917 95.3126 55.731 94.5426 48.4231C94.4427 47.4826 94.4652 46.5331 94.6097 45.5984C95.0602 42.8695 96.7026 41.7032 98.5911 41.6744C100.462 41.6455 102.273 42.3312 103.656 43.5917C103.93 43.8147 104.148 44.0979 104.295 44.4193C104.364 44.5792 104.39 44.7548 104.368 44.9279C104.347 45.1009 104.28 45.2651 104.173 45.4035C104.005 45.5789 103.777 45.684 103.534 45.6974H103.502C103.247 45.7018 102.992 45.664 102.748 45.5856L102.458 45.4961C101.94 45.3332 101.432 45.1382 100.905 45.0072C100.279 44.8231 99.6132 44.8231 98.9874 45.0072C98.6905 45.1225 98.4249 45.3061 98.2123 45.5431C97.9997 45.7802 97.8459 46.064 97.7635 46.3717C95.9805 52.2033 98.2428 58.4695 96.2361 63.2849C94.5937 67.6626 88.9186 69.4808 84.9148 70.7781C85.3039 70.626 85.6473 70.3762 85.9118 70.0528C86.1116 69.7443 86.2047 69.3789 86.177 69.0124C86.1493 68.6459 86.0023 68.2986 85.7584 68.0237C85.503 67.7546 85.1847 67.5533 84.8322 67.4378C84.4797 67.3224 84.104 67.2964 83.7389 67.3622Z" fill="#455A64"/>
<path opacity="0.1" d="M83.7389 67.3622C87.9728 66.1576 92.1332 66.001 93.6638 62.959C95.1944 59.917 95.3126 55.731 94.5426 48.4231C94.4427 47.4826 94.4652 46.5331 94.6097 45.5984C95.0602 42.8695 96.7026 41.7032 98.5911 41.6744C100.462 41.6455 102.273 42.3312 103.656 43.5917C103.93 43.8147 104.148 44.0979 104.295 44.4193C104.364 44.5792 104.39 44.7548 104.368 44.9279C104.347 45.1009 104.28 45.2651 104.173 45.4035C104.005 45.5789 103.777 45.684 103.534 45.6974H103.502C103.247 45.7018 102.992 45.664 102.748 45.5856L102.458 45.4961C101.94 45.3332 101.432 45.1382 100.905 45.0072C100.279 44.8231 99.6132 44.8231 98.9874 45.0072C98.6905 45.1225 98.4249 45.3061 98.2123 45.5431C97.9997 45.7802 97.8459 46.064 97.7635 46.3717C95.9805 52.2033 98.2428 58.4695 96.2361 63.2849C94.5937 67.6626 88.9186 69.4808 84.9148 70.7781C85.3039 70.626 85.6473 70.3762 85.9118 70.0528C86.1116 69.7443 86.2047 69.3789 86.177 69.0124C86.1493 68.6459 86.0023 68.2986 85.7584 68.0237C85.503 67.7546 85.1847 67.5533 84.8322 67.4378C84.4797 67.3224 84.104 67.2964 83.7389 67.3622Z" fill="white"/>
<path d="M80.8023 70.3596C81.0505 69.6688 81.417 69.0265 81.8855 68.4615C82.3606 67.8954 83.0142 67.5077 83.7389 67.3623C84.0996 67.2964 84.471 67.3202 84.8204 67.4317C85.1698 67.5431 85.4864 67.7388 85.7424 68.0014C85.9863 68.2763 86.1333 68.6236 86.161 68.99C86.1887 69.3565 86.0955 69.722 85.8957 70.0304C85.6313 70.3538 85.2879 70.6037 84.8988 70.7558C84.5795 70.8918 84.268 71.0454 83.9657 71.2159C83.1767 71.7502 82.6089 72.5531 82.368 73.4751C82.1325 74.3899 82.0081 75.3297 81.9974 76.2742L81.9814 76.4564L80.0002 75.3572C79.9135 73.6535 80.1868 71.9506 80.8023 70.3596Z" fill="#455A64"/>
<path opacity="0.2" d="M80.8023 70.3596C81.0505 69.6688 81.417 69.0265 81.8855 68.4615C82.3606 67.8954 83.0142 67.5077 83.7389 67.3623C84.0996 67.2964 84.471 67.3202 84.8204 67.4317C85.1698 67.5431 85.4864 67.7388 85.7424 68.0014C85.9863 68.2763 86.1333 68.6236 86.161 68.99C86.1887 69.3565 86.0955 69.722 85.8957 70.0304C85.6313 70.3538 85.2879 70.6037 84.8988 70.7558C84.5795 70.8918 84.268 71.0454 83.9657 71.2159C83.1767 71.7502 82.6089 72.5531 82.368 73.4751C82.1325 74.3899 82.0081 75.3297 81.9974 76.2742L81.9814 76.4564L80.0002 75.3572C79.9135 73.6535 80.1868 71.9506 80.8023 70.3596Z" fill="white"/>
<path d="M93.8555 28.8896V29.7236C95.1496 29.9792 96.4118 30.2572 97.7443 29.599L97.6708 28.1547V26.3333L96.3128 26.1895L93.8555 28.8896Z" fill="#FFA8A7"/>
<path opacity="0.2" d="M93.8555 28.8896C95.3318 29.5 96.3767 28.1259 96.3767 28.1259C96.5326 28.2626 96.7352 28.3339 96.9423 28.325C97.1494 28.3161 97.3452 28.2276 97.4887 28.078L97.7443 29.599V25.8284L96.0028 25.9051L93.6574 28.2218L93.8555 28.8896Z" fill="black"/>
<path d="M96.5301 24.7835L98.9011 24.9017C99.0502 24.912 99.1923 24.9691 99.3071 25.0649C99.4219 25.1608 99.5034 25.2904 99.5401 25.4354C99.7516 26.2624 99.859 27.1125 99.8597 27.9661V29.2251C99.8598 29.3372 99.8379 29.4483 99.7951 29.5519C99.7524 29.6555 99.6896 29.7497 99.6104 29.8291C99.5209 29.9188 99.4125 29.9874 99.2931 30.0299C99.1737 30.0725 99.0463 30.0879 98.9202 30.0751L98.1661 29.9984C98.052 29.9878 97.9456 29.9364 97.8664 29.8536C97.7871 29.7709 97.7404 29.6623 97.7347 29.5479L97.6644 28.1419V25.6942C97.6621 25.5543 97.6175 25.4185 97.5365 25.3044C97.4555 25.1903 97.3419 25.1034 97.2107 25.0551L96.5301 24.7835Z" fill="#FFA8A7"/>
<path d="M93.2037 26.6912L95.2519 24.889C95.3908 24.7671 95.5598 24.6847 95.7413 24.6504C95.9229 24.6161 96.1103 24.6312 96.2841 24.694L97.2171 25.0328C97.3484 25.0811 97.462 25.168 97.5429 25.282C97.6239 25.3961 97.6685 25.532 97.6709 25.6718V27.4069C97.6716 27.498 97.6528 27.5882 97.6158 27.6715C97.5788 27.7547 97.5245 27.8291 97.4564 27.8896C97.3883 27.9501 97.3081 27.9954 97.221 28.0224C97.134 28.0494 97.0423 28.0574 96.9519 28.046C96.7952 28.0327 96.649 27.9621 96.5411 27.8478C96.4332 27.7334 96.3713 27.5833 96.3671 27.4261L96.3128 26.148C96.3439 26.4896 96.3034 26.8339 96.1941 27.159C96.0848 27.4841 95.9089 27.7829 95.6778 28.0363C95.4466 28.2897 95.1652 28.4922 94.8514 28.6308C94.5377 28.7695 94.1986 28.8413 93.8555 28.8417L93.2037 26.6912Z" fill="#FFA8A7"/>
<path opacity="0.2" d="M97.9137 29.4424L97.9808 25.6463C97.9843 25.5071 97.9403 25.3708 97.8561 25.2599C97.7719 25.149 97.6525 25.07 97.5174 25.036L96.5301 24.7835L97.2171 25.0328C97.3483 25.0811 97.4619 25.168 97.5429 25.282C97.6239 25.3961 97.6685 25.532 97.6708 25.6718V28.1291L97.7411 29.5351C97.7468 29.6495 97.7935 29.7581 97.8727 29.8408C97.952 29.9236 98.0584 29.975 98.1725 29.9856L98.361 30.0048L98.2013 29.9185C98.1142 29.8733 98.0413 29.8049 97.9905 29.7209C97.9398 29.6369 97.9132 29.5405 97.9137 29.4424Z" fill="black"/>
<path d="M93.2036 26.6912C92.5194 27.026 91.9345 27.5338 91.5069 28.1643L83.9242 39.3482L75.8973 43.2178L80.2719 48.8353L87.1995 43.4607C88.1509 42.72 88.9113 41.7624 89.4171 40.6679L94.4275 29.8035L93.2036 26.6912Z" fill="#FFA8A7"/>
<path d="M94.175 30.8867C94.1156 30.1356 93.7703 29.4359 93.2103 28.9317C92.6502 28.4276 91.9182 28.1575 91.165 28.177L83.6941 39.1852L75.8973 43.2306L80.2719 48.8481L88.0271 43.3168C88.9187 42.6799 89.6148 41.8068 90.037 40.7957L94.175 30.8867Z" fill="#3E63F6"/>
<path opacity="0.3" d="M94.175 30.8867C94.1156 30.1356 93.7703 29.4359 93.2103 28.9317C92.6502 28.4276 91.9182 28.1575 91.165 28.177L83.6941 39.1852L75.8973 43.2306L80.2719 48.8481L88.0271 43.3168C88.9187 42.6799 89.6148 41.8068 90.037 40.7957L94.175 30.8867Z" fill="white"/>
<path opacity="0.3" d="M93.21 28.9312C92.6476 28.4312 91.9173 28.1619 91.165 28.177L89.9156 30.0144C90.3403 29.9743 90.7686 30.0235 91.1732 30.1586C91.5778 30.2938 91.9497 30.5121 92.265 30.7994C92.5803 31.0867 92.8321 31.4368 93.0042 31.8271C93.1763 32.2174 93.2649 32.6394 93.2643 33.066L94.175 30.8867C94.1109 30.1367 93.7663 29.4383 93.21 28.9312Z" fill="white"/>
<path d="M99.0608 25.3555C99.5698 25.6155 100.133 25.7511 100.705 25.7511C101.276 25.7511 101.84 25.6155 102.349 25.3555C102.538 25.2715 102.7 25.1381 102.819 24.9694C102.939 24.8007 103.01 24.6029 103.026 24.3969C103.007 24.1905 102.934 23.9928 102.813 23.8244C102.692 23.6559 102.529 23.5226 102.339 23.4383C101.83 23.1782 101.266 23.0427 100.694 23.0427C100.122 23.0427 99.5576 23.1782 99.048 23.4383C98.8449 23.5033 98.6677 23.6312 98.5419 23.8035C98.4162 23.9758 98.3484 24.1836 98.3484 24.3969C98.3484 24.6102 98.4162 24.818 98.5419 24.9903C98.6677 25.1626 98.8449 25.2905 99.048 25.3555H99.0608Z" fill="#E0E0E0"/>
<path d="M99.2845 26.2438C99.7245 26.4675 100.211 26.5841 100.705 26.5841C101.198 26.5841 101.685 26.4675 102.125 26.2438C102.287 26.1717 102.426 26.0573 102.528 25.9129C102.631 25.7684 102.692 25.5991 102.707 25.4226C102.69 25.2453 102.626 25.0756 102.522 24.9308C102.418 24.786 102.278 24.6712 102.116 24.5982C101.676 24.3745 101.189 24.2579 100.695 24.2579C100.202 24.2579 99.7149 24.3745 99.2749 24.5982C99.1031 24.6567 98.9539 24.7674 98.8482 24.915C98.7426 25.0626 98.6857 25.2395 98.6857 25.421C98.6857 25.6025 98.7426 25.7794 98.8482 25.927C98.9539 26.0746 99.1031 26.1854 99.2749 26.2438H99.2845Z" fill="#F28F8F"/>
<path opacity="0.3" d="M99.2845 26.2438C99.7245 26.4675 100.211 26.5841 100.705 26.5841C101.198 26.5841 101.685 26.4675 102.125 26.2438C102.287 26.1717 102.426 26.0573 102.528 25.9129C102.631 25.7684 102.692 25.5991 102.707 25.4226C102.69 25.2453 102.626 25.0756 102.522 24.9308C102.418 24.786 102.278 24.6712 102.116 24.5982C101.676 24.3745 101.189 24.2579 100.695 24.2579C100.202 24.2579 99.7149 24.3745 99.2749 24.5982C99.1031 24.6567 98.9539 24.7674 98.8482 24.915C98.7426 25.0626 98.6857 25.2395 98.6857 25.421C98.6857 25.6025 98.7426 25.7794 98.8482 25.927C98.9539 26.0746 99.1031 26.1854 99.2749 26.2438H99.2845Z" fill="black"/>
<path opacity="0.3" d="M99.2845 26.2438C99.7245 26.4675 100.211 26.5841 100.705 26.5841C101.198 26.5841 101.685 26.4675 102.125 26.2438C102.287 26.1717 102.426 26.0573 102.528 25.9129C102.631 25.7684 102.692 25.5991 102.707 25.4226C102.69 25.2453 102.626 25.0756 102.522 24.9308C102.418 24.786 102.278 24.6712 102.116 24.5982C101.676 24.3745 101.189 24.2579 100.695 24.2579C100.202 24.2579 99.7149 24.3745 99.2749 24.5982C99.1031 24.6567 98.9539 24.7674 98.8482 24.915C98.7426 25.0626 98.6857 25.2395 98.6857 25.421C98.6857 25.6025 98.7426 25.7794 98.8482 25.927C98.9539 26.0746 99.1031 26.1854 99.2749 26.2438H99.2845Z" fill="white"/>
<path d="M103.026 24.4161C103.01 24.622 102.939 24.8198 102.819 24.9886C102.7 25.1573 102.538 25.2907 102.349 25.3747C101.84 25.6347 101.276 25.7703 100.705 25.7703C100.133 25.7703 99.5698 25.6347 99.0608 25.3747C98.871 25.2909 98.7072 25.1578 98.5864 24.9892C98.4655 24.8206 98.3921 24.6227 98.3738 24.4161V30.139C98.3928 30.3454 98.4664 30.5431 98.5872 30.7116C98.708 30.8801 98.8714 31.0133 99.0608 31.0976C99.5704 31.3559 100.134 31.4905 100.705 31.4905C101.276 31.4905 101.839 31.3559 102.349 31.0976C102.537 31.0131 102.699 30.8796 102.819 30.7109C102.938 30.5423 103.01 30.3448 103.026 30.139V24.4161Z" fill="#F5F5F5"/>
<path opacity="0.2" d="M78.3035 41.9908C82.6876 42.7161 83.9082 44.4864 84.3748 45.9243L80.2655 48.8577L75.891 43.2402L78.3035 41.9908Z" fill="black"/>
<path d="M45.9117 27.8192L51.2832 43.3808L62.384 37.2201L57.0733 21.8278L45.9117 27.8192Z" fill="#3E63F6"/>
<path opacity="0.3" d="M45.9117 27.8192L51.2832 43.3808L62.384 37.2201L57.0733 21.8278L45.9117 27.8192Z" fill="black"/>
<path opacity="0.2" d="M45.9117 27.8192L51.2832 43.3808L62.384 37.2201L57.0733 21.8278L45.9117 27.8192Z" fill="white"/>
<path d="M60.7351 36.5873L56.3127 23.7738L47.5669 28.4646L52.0341 41.4156L60.7351 36.5873Z" fill="white"/>
<path d="M54.7725 24.7228L49.9091 27.2727L49.6982 26.6241L50.6441 25.7933L53.3058 24.4576L54.5169 24.2307L54.7725 24.7228Z" fill="#455A64"/>
<path d="M53.3059 24.4576L53.095 23.9623L50.4971 25.3587L50.6441 25.7933L53.3059 24.4576Z" fill="#37474F"/>
<path d="M54.6064 23.1539L48.7269 26.3077L48.4744 25.6942L54.4051 22.5819L54.6064 23.1539Z" fill="#455A64"/>
<path d="M53.0151 23.3105C52.5038 21.6936 49.4298 23.2178 50.0306 24.8794L53.0151 23.3105Z" fill="#37474F"/>
<path d="M63.6526 41.4156L59.0832 45.7038L51.9606 38.6963C51.5621 38.3049 51.3076 37.7903 51.2385 37.236C50.8998 34.5774 50.1616 32.6794 49.2158 33.0149C48.6214 33.2226 49.3819 35.8109 49.3819 35.8109L48.4936 35.306L47.4583 32.3023H46.9918C46.7459 32.3026 46.5061 32.3793 46.3057 32.5218C46.1053 32.6644 45.9543 32.8657 45.8734 33.098L45.4292 34.3761C45.165 35.1343 45.1499 35.9571 45.3861 36.7245C45.6224 37.4919 46.0976 38.1637 46.7425 38.642L48.3051 39.7987C48.5418 39.9733 48.7444 40.1899 48.9026 40.4378C51.9766 45.0967 55.2615 49.0654 57.2554 51.1136C57.6028 51.4657 58.0619 51.686 58.554 51.7367C59.046 51.7875 59.5404 51.6655 59.9523 51.3916C64.3109 48.5158 67.9153 43.6396 67.9153 43.6396L63.6526 41.4156Z" fill="#FFA8A7"/>
<path d="M48.5863 40.441C48.6895 40.0778 48.865 39.7392 49.1022 39.4455C49.3394 39.1517 49.6334 38.9089 49.9667 38.7315C50.6807 38.3224 51.5217 38.1948 52.3249 38.3736L59.0991 45.0296L63.6526 41.4156L67.9185 43.6332C64.9819 47.7521 62.2179 50.2669 60.47 51.6217C59.9647 52.0147 59.3343 52.2116 58.6952 52.1757C58.056 52.1399 57.4515 51.8738 56.9934 51.4268C50.9988 45.544 48.5863 40.441 48.5863 40.441Z" fill="#3E63F6"/>
<path opacity="0.3" d="M48.5863 40.441C48.6895 40.0778 48.865 39.7392 49.1022 39.4455C49.3394 39.1517 49.6334 38.9089 49.9667 38.7315C50.6807 38.3224 51.5217 38.1948 52.3249 38.3736L59.0991 45.0296L63.6526 41.4156L67.9185 43.6332C64.9819 47.7521 62.2179 50.2669 60.47 51.6217C59.9647 52.0147 59.3343 52.2116 58.6952 52.1757C58.056 52.1399 57.4515 51.8738 56.9934 51.4268C50.9988 45.544 48.5863 40.441 48.5863 40.441Z" fill="white"/>
<path opacity="0.3" d="M51.2321 40.6008C52.1011 40.0982 53.1233 39.929 54.1079 40.1246L52.3281 38.3736C51.5249 38.1948 50.6839 38.3224 49.9699 38.7315C49.6366 38.9089 49.3426 39.1517 49.1054 39.4455C48.8682 39.7392 48.6927 40.0778 48.5895 40.441C48.5895 40.441 48.909 41.1408 49.644 42.3199C49.9964 41.6057 50.548 41.0086 51.2321 40.6008Z" fill="white"/>
<path opacity="0.2" d="M59.0991 45.0296C58.2471 45.6109 57.5031 46.3365 56.9007 47.1737C56.955 45.3843 57.4886 44.6462 58.4089 44.3522L59.0991 45.0296Z" fill="black"/>
<path d="M81.0739 43.7227L90.887 54.4209L99.3069 48.5094C99.6612 48.2595 100.062 48.0837 100.486 47.9926C100.91 47.9014 101.348 47.8968 101.774 47.9789L105.046 48.5989C105.239 48.6369 105.414 48.7366 105.546 48.883C105.677 49.0294 105.757 49.2145 105.774 49.4105L105.88 50.612C105.89 50.7275 105.865 50.8435 105.808 50.9445C105.751 51.0455 105.665 51.1268 105.56 51.1775L104.531 51.692L105.298 52.6506C105.354 52.7204 105.396 52.8006 105.421 52.8866C105.447 52.9726 105.454 53.0628 105.445 53.1518C105.435 53.2409 105.408 53.3271 105.364 53.4056C105.321 53.4841 105.263 53.5533 105.193 53.6092C105.061 53.7162 104.894 53.7699 104.725 53.7598C104.556 53.7498 104.397 53.6767 104.279 53.5549L102.617 51.8518L102.096 52.216C101.845 52.3946 101.536 52.4717 101.23 52.432C100.924 52.3923 100.645 52.2387 100.448 52.002L99.9715 51.43L93.1238 58.5589C92.6019 59.101 91.8969 59.4294 91.1461 59.4802C90.3954 59.531 89.6526 59.3005 89.0624 58.8337L79.8884 51.577L81.0739 43.7227Z" fill="#FFA8A7"/>
<path opacity="0.2" d="M102.621 51.8486L101.109 50.6184C101.207 50.9218 101.386 51.193 101.627 51.4029C101.867 51.6127 102.16 51.7535 102.474 51.8102L102.621 51.8486Z" fill="black"/>
<path opacity="0.2" d="M104.535 51.692L103.611 50.6311L105.563 51.1775L104.535 51.692Z" fill="black"/>
<path d="M98.7062 48.9312C97.5335 49.7524 98.7317 52.1457 99.3932 52.3662L93.4465 59.0478C92.8728 59.6915 92.0756 60.0927 91.2168 60.1699C90.358 60.247 89.502 59.9944 88.8228 59.4632L79.5306 52.1809L79.8884 51.5834L81.0739 43.7227L90.8742 53.8361C90.8742 53.8361 97.2299 49.174 98.7062 48.9312Z" fill="#3E63F6"/>
<path opacity="0.3" d="M98.7062 48.9312C97.5335 49.7524 98.7317 52.1457 99.3932 52.3662L93.4465 59.0478C92.8728 59.6915 92.0756 60.0927 91.2168 60.1699C90.358 60.247 89.502 59.9944 88.8228 59.4632L79.5306 52.1809L79.8884 51.5834L81.0739 43.7227L90.8742 53.8361C90.8742 53.8361 97.2299 49.174 98.7062 48.9312Z" fill="white"/>
<path opacity="0.6" d="M98.7061 48.9312C98.2556 49.0047 97.3417 49.4968 96.2936 50.1422C96.1035 50.4621 95.984 50.8189 95.9433 51.1887C95.9025 51.5585 95.9413 51.9328 96.0571 52.2864C96.2151 52.7026 96.4752 53.0724 96.8136 53.3617C97.152 53.6509 97.5578 53.8504 97.9936 53.9416L99.3931 52.3662C98.7317 52.1458 97.5494 49.7524 98.7061 48.9312Z" fill="white"/>
<path opacity="0.2" d="M81.0739 43.7259L82.6972 45.4003L85.7712 57.0731L79.5306 52.1809L79.8884 51.5802L81.0739 43.7259Z" fill="black"/>
<path opacity="0.2" d="M90.8742 53.8361L88.957 55.1398L90.1393 53.0756L90.8742 53.8361Z" fill="black"/>
<path d="M99.5976 68.0365L102.962 54.2963C103.015 54.0833 103.109 53.8831 103.241 53.7079C103.373 53.5327 103.539 53.3861 103.729 53.2769L112.13 48.4391C112.178 48.4101 112.234 48.3957 112.29 48.3975C112.457 48.3946 112.62 48.4447 112.757 48.5406C112.893 48.6365 112.996 48.7732 113.05 48.9312C113.082 48.9978 113.09 49.0735 113.073 49.1453L109.692 62.8855C109.639 63.0982 109.544 63.2982 109.412 63.4733C109.281 63.6485 109.115 63.7952 108.925 63.9048L100.524 68.7427C100.457 68.7805 100.379 68.793 100.304 68.7778C100.153 68.7515 100.011 68.6897 99.8896 68.5974C99.7679 68.5052 99.67 68.3851 99.604 68.2474V68.2218C99.5836 68.162 99.5814 68.0975 99.5976 68.0365Z" fill="#3E63F6"/>
<path opacity="0.3" d="M100.058 68.3816L103.426 54.6414C103.478 54.4284 103.573 54.2283 103.705 54.053C103.836 53.8778 104.002 53.7312 104.193 53.622L112.593 48.7842C112.648 48.7491 112.712 48.7316 112.777 48.7339C112.842 48.7363 112.905 48.7583 112.957 48.7972C113.009 48.8361 113.048 48.89 113.069 48.9516C113.089 49.0132 113.091 49.0797 113.073 49.1421L109.692 62.8855C109.639 63.0983 109.544 63.2982 109.412 63.4733C109.281 63.6485 109.115 63.7952 108.925 63.9048L100.524 68.7427C100.469 68.7782 100.405 68.796 100.339 68.7937C100.274 68.7914 100.211 68.769 100.158 68.7296C100.106 68.6902 100.067 68.6357 100.047 68.5735C100.027 68.5112 100.026 68.4442 100.045 68.3816H100.058Z" fill="black"/>
<path d="M105.404 62.1218C104.509 61.7288 102.39 64.1701 100.643 63.8154L101.08 62.0515C98.3387 62.3711 97.5654 63.3616 96.6068 63.4926C96.0072 63.5278 95.4056 63.5032 94.811 63.4191C95.1751 64.7986 95.1817 66.248 94.8301 67.6307C95.7888 67.6307 96.4822 67.6594 96.725 67.6594C97.9648 67.6594 99.4155 68.1867 100.761 67.9183C103.317 67.3143 104.314 66.3845 104.324 65.2789C104.324 65.2789 105.372 64.5663 105.046 63.4255C105.036 63.4191 106.298 62.5117 105.404 62.1218Z" fill="#FFA8A7"/>
<path d="M93.0471 62.8759C90.6442 62.4509 89.5897 62.0387 86.6563 61.8885L84.6272 56.1975C83.7069 53.3408 81.5245 47.0267 79.636 45.1095C74.2038 46.2694 73.798 48.7522 78.6774 60.4474C79.0353 61.3134 80.4029 64.0614 81.3615 65.9659C81.6538 66.546 82.1012 67.0338 82.654 67.3751C83.2068 67.7163 83.8434 67.8977 84.493 67.8991H92.8298C93.3081 66.267 93.3827 64.5432 93.0471 62.8759Z" fill="#3E63F6"/>
<path d="M95.8846 63.2753C94.7279 63.1475 93.8204 63.0101 93.0471 62.8759C93.3837 64.5383 93.3124 66.2575 92.8394 67.8863H95.5779C95.5779 67.8863 96.9103 65.2916 95.8846 63.2753Z" fill="#3E63F6"/>
<path opacity="0.3" d="M93.0471 62.8759C90.6442 62.4509 89.5897 62.0387 86.6563 61.8885L84.6272 56.1975C83.7069 53.3408 81.5245 47.0267 79.636 45.1095C74.2038 46.2694 73.798 48.7522 78.6774 60.4474C79.0353 61.3134 80.4029 64.0614 81.3615 65.9659C81.6538 66.546 82.1012 67.0338 82.654 67.3751C83.2068 67.7163 83.8434 67.8977 84.493 67.8991H92.8298C93.3081 66.267 93.3827 64.5432 93.0471 62.8759Z" fill="white"/>
<path opacity="0.6" d="M95.8846 63.2753C94.7279 63.1475 93.8204 63.0101 93.0471 62.8759C93.3837 64.5383 93.3124 66.2575 92.8394 67.8863H95.5779C95.5779 67.8863 96.9103 65.2916 95.8846 63.2753Z" fill="white"/>
<path opacity="0.2" d="M86.6626 61.8885C85.4861 61.8845 84.3134 62.0229 83.1701 62.3007C83.9602 61.3891 84.9497 60.6718 86.0619 60.2045L86.6626 61.8885Z" fill="black"/>
<path d="M73.5615 78.4503C75.5171 77.6067 78.1789 76.1975 79.1854 74.3187C80.192 72.4398 80.0929 69.0047 79.7095 66.9085L63.9753 62.5468C63.5024 67.1098 59.31 70.0975 59.31 70.0975L73.5615 78.4503Z" fill="#263238"/>
<path d="M51.5931 49.6278L50.1041 48.5254C49.642 48.1824 49.2909 47.7113 49.0943 47.1705L48.7428 46.2119C48.497 45.5491 48.0641 44.9719 47.4966 44.5503C46.6464 43.919 45.8798 43.1825 45.2151 42.3582C45.0012 42.5917 44.8745 42.892 44.8564 43.2081C44.8384 43.5243 44.9301 43.837 45.116 44.0933C45.3939 44.4622 45.6983 44.8104 46.0267 45.135L45.2055 45.1926C44.6149 45.2342 44.0261 45.0901 43.5215 44.7803L41.4413 43.5022C41.3828 43.4657 41.3158 43.4453 41.2469 43.4429C41.178 43.4405 41.1097 43.4563 41.0488 43.4887C40.9879 43.5211 40.9367 43.5689 40.9001 43.6273C40.8636 43.6858 40.843 43.7528 40.8406 43.8217C40.8665 44.8521 41.0697 45.8704 41.4413 46.8318C41.608 47.2895 41.8716 47.7058 42.2141 48.0521C42.5566 48.3985 42.9699 48.6667 43.4257 48.8385C44.5281 49.2603 45.6017 49.6278 46.2153 49.8323C46.5659 49.9492 46.8959 50.1206 47.1931 50.3403L49.3755 51.9668L51.5931 49.6278Z" fill="#FFA8A7"/>
<path d="M49.9762 48.193L51.8551 49.4041C51.7956 50.1037 51.5363 50.7714 51.108 51.3277C50.6797 51.8841 50.1005 52.3056 49.4394 52.542L47.7171 50.9123C47.7171 50.9123 49.3755 50.6567 49.9762 48.193Z" fill="#3E63F6"/>
<path opacity="0.6" d="M49.9762 48.193L51.8551 49.4041C51.7956 50.1037 51.5363 50.7714 51.108 51.3277C50.6797 51.8841 50.1005 52.3056 49.4394 52.542L47.7171 50.9123C47.7171 50.9123 49.3755 50.6567 49.9762 48.193Z" fill="white"/>
<path d="M51.1554 51.2574C51.5506 50.7136 51.7923 50.0734 51.8552 49.4041L57.7283 53.1906L61.1921 43.4958C61.4188 42.8608 61.8166 42.3009 62.3416 41.878C62.8666 41.455 63.4984 41.1855 64.167 41.0992L65.8606 40.8819L64.2789 52.232L61.5788 57.6482C61.3373 58.1326 60.9897 58.5564 60.5619 58.8879C60.134 59.2195 59.637 59.4504 59.1076 59.5634C58.5783 59.6763 58.0303 59.6686 57.5044 59.5406C56.9784 59.4126 56.4881 59.1677 56.0699 58.8241L49.4362 52.5356C50.1215 52.286 50.719 51.8418 51.1554 51.2574Z" fill="#3E63F6"/>
<path opacity="0.4" d="M51.1554 51.2574C51.5506 50.7136 51.7923 50.0734 51.8552 49.4041L57.7283 53.1906L61.1921 43.4958C61.4188 42.8608 61.8166 42.3009 62.3416 41.878C62.8666 41.455 63.4984 41.1855 64.167 41.0992L65.8606 40.8819L64.2789 52.232L61.5788 57.6482C61.3373 58.1326 60.9897 58.5564 60.5619 58.8879C60.134 59.2195 59.637 59.4504 59.1076 59.5634C58.5783 59.6763 58.0303 59.6686 57.5044 59.5406C56.9784 59.4126 56.4881 59.1677 56.0699 58.8241L49.4362 52.5356C50.1215 52.286 50.719 51.8418 51.1554 51.2574Z" fill="white"/>
<path opacity="0.2" d="M57.7251 53.1907L59.9491 54.8587L58.3418 51.462L57.7251 53.1907Z" fill="black"/>
<path d="M59.9204 12.7752L59.3803 14.0694C59.1948 14.5136 59.1149 14.9949 59.1471 15.4753L59.4666 20.2684L63.9977 35.6C64.2948 36.6096 64.7746 37.5562 65.4132 38.3928L69.9923 44.3905L73.75 40.3196L69.3564 34.5487L62.5022 19.9425L63.8379 18.4023C64.153 18.0371 64.3492 17.5846 64.4003 17.105L64.5569 15.6127C64.5694 15.4941 64.537 15.3751 64.466 15.2792C64.395 15.1834 64.2906 15.1176 64.1734 15.0951C64.0522 15.0703 63.9261 15.0887 63.817 15.147C63.7079 15.2054 63.6226 15.3 63.5759 15.4146L63.0966 16.6033C63.0283 16.7674 62.9181 16.9107 62.777 17.0187C62.6704 17.1005 62.5484 17.1598 62.4182 17.1933C62.2881 17.2267 62.1526 17.2334 62.0198 17.2131C61.8869 17.1928 61.7596 17.1459 61.6454 17.0752C61.5312 17.0044 61.4324 16.9113 61.3551 16.8014L60.5882 15.7086L59.9204 12.7752Z" fill="#FFA8A7"/>
<path d="M62.9784 20.2812C62.3601 20.1252 61.7095 20.155 61.1081 20.3671C60.5068 20.5791 59.9813 20.9638 59.5976 21.4731L63.4768 35.6351C63.7032 36.4598 64.0743 37.2378 64.5729 37.9326L69.5545 44.8411L69.9795 44.4001L73.7373 40.3292L69.3436 34.5583L62.9784 20.2812Z" fill="#3E63F6"/>
<path opacity="0.3" d="M62.9784 20.2812C62.3601 20.1252 61.7095 20.155 61.1081 20.3671C60.5068 20.5791 59.9813 20.9638 59.5976 21.4731L63.4768 35.6351C63.7032 36.4598 64.0743 37.2378 64.5729 37.9326L69.5545 44.8411L69.9795 44.4001L73.7373 40.3292L69.3436 34.5583L62.9784 20.2812Z" fill="white"/>
<path opacity="0.3" d="M61.7992 22.3423C62.4942 22.1001 63.2548 22.1275 63.9306 22.4189L62.9719 20.2812C62.3537 20.1252 61.7031 20.155 61.1017 20.3671C60.5004 20.5791 59.9749 20.9638 59.5912 21.4731L60.2015 23.7099C60.5479 23.0732 61.1167 22.5863 61.7992 22.3423Z" fill="white"/>
<path d="M68.9825 40.5497L65.8574 40.8692C63.3011 43.1284 61.975 47.8639 62.5246 53.0948C62.8619 56.6834 62.991 60.2885 62.9113 63.8921C69.8485 68.96 78.6071 67.9982 79.7095 66.8957L79.195 57.7505C79.1382 57.0283 79.2589 56.3032 79.5465 55.6383C80.1856 54.1173 81.3711 51.12 81.5277 48.8002C81.6188 46.7319 81.1788 44.6748 80.2495 42.8248L75.7057 40.8404L68.9825 40.5497Z" fill="#3E63F6"/>
<g opacity="0.5">
<path opacity="0.5" d="M68.9825 40.5497L65.8574 40.8692C63.3011 43.1284 61.975 47.8639 62.5246 53.0948C62.8619 56.6834 62.991 60.2885 62.9113 63.8921C69.8485 68.96 78.6071 67.9982 79.7095 66.8957L79.195 57.7505C79.1382 57.0283 79.2589 56.3032 79.5465 55.6383C80.1856 54.1173 81.3711 51.12 81.5277 48.8002C81.6188 46.7319 81.1788 44.6748 80.2495 42.8248L75.7057 40.8404L68.9825 40.5497Z" fill="white"/>
</g>
<path d="M68.1133 45.1095C65.4995 51.1264 65.541 57.3223 65.541 57.3223L66.8192 60.0895L68.8387 57.4469C68.6821 53.3928 68.7632 49.333 69.0815 45.2884L68.1133 45.1095Z" fill="#3E63F6"/>
<path d="M68.0048 42.8376C67.9498 43.5965 67.9863 44.3593 68.1134 45.1095C68.4157 45.2576 68.7529 45.3195 69.088 45.2884C69.7021 44.7431 70.2281 44.1061 70.6474 43.3999L69.088 42.8376H68.0048Z" fill="#3E63F6"/>
<path d="M69.0879 42.8375C70.4332 43.3328 71.6443 45.7134 71.6443 45.7134C75.1784 42.7097 75.728 40.8372 75.728 40.8372C75.2693 40.1372 74.6893 39.5247 74.0152 39.0286L69.0879 42.8375Z" fill="#3E63F6"/>
<path d="M69.088 42.8375C68.059 42.8631 67.1515 44.2978 67.1515 44.2978C66.9854 41.7895 69.088 39.8626 69.088 39.8626V42.8375Z" fill="#3E63F6"/>
<g opacity="0.35">
<path opacity="0.35" d="M69.0879 42.8375C70.4332 43.3328 71.6443 45.7134 71.6443 45.7134C75.1784 42.7097 75.728 40.8372 75.728 40.8372C75.2693 40.1372 74.6893 39.5247 74.0153 39.0286L69.0879 42.8375Z" fill="white"/>
<path opacity="0.35" d="M69.0879 42.8375C68.059 42.8631 67.1515 44.2978 67.1515 44.2978C66.9854 41.7895 69.0879 39.8626 69.0879 39.8626V42.8375Z" fill="white"/>
</g>
<path d="M75.7184 28.9407C75.2655 28.4087 74.629 28.0665 73.9354 27.9821L64.6368 28.8577C63.5631 31.1647 64.4195 32.6921 64.4195 32.6921C64.2757 36.2071 64.1543 38.4439 65.6785 39.1884C66.5093 39.5942 67.7747 39.7668 69.0784 39.6677C70.1631 39.6018 71.2232 39.3159 72.1939 38.8273L72.2418 38.8018C72.5796 38.6189 72.8738 38.3651 73.1043 38.0579C73.3349 37.7507 73.4963 37.3973 73.5775 37.0219C73.7335 36.337 73.8403 35.6418 73.8971 34.9417C73.9122 34.543 73.955 34.1458 74.0249 33.753C74.0976 33.3604 74.2792 32.9962 74.5489 32.7017C74.6831 32.5569 74.8512 32.4478 75.0381 32.3842C75.2249 32.3206 75.4247 32.3045 75.6194 32.3375C75.6861 32.3538 75.7505 32.3785 75.8111 32.411C76.0731 30.842 76.1402 29.4872 75.7184 28.9407Z" fill="#37474F"/>
<path d="M72.3057 29.2092C72.1457 29.8659 72.1892 30.5557 72.4303 31.1871C72.671 31.8119 72.8685 32.4525 73.0215 33.1043C73.1412 33.7617 73.0518 34.44 72.7659 35.044C72.6213 35.3403 72.4137 35.6014 72.1576 35.8089C71.9015 36.0165 71.603 36.1655 71.2832 36.2454C70.283 36.4595 69.3052 35.8684 68.3051 35.6703C67.341 35.5002 66.3479 35.678 65.5027 36.1719C65.4312 36.2152 65.3497 36.2392 65.2661 36.2414C65.1825 36.2437 65.0998 36.2243 65.026 36.185C64.9523 36.1457 64.89 36.0879 64.8453 36.0172C64.8005 35.9466 64.7749 35.8656 64.771 35.7821C64.6527 33.7562 64.6527 30.58 64.9499 29.0909L72.3057 29.2092Z" fill="#FFA8A7"/>
<path d="M74.0696 35.9514C74.0696 35.9514 74.0696 36.7727 74.0312 37.7536C74.4473 37.3935 74.7484 36.919 74.8972 36.3892C74.5759 36.3532 74.2802 36.1968 74.0696 35.9514Z" fill="#37474F"/>
<path d="M65.1097 27.375L63.953 26.5602C63.833 26.9523 63.8108 27.3678 63.8882 27.7705C63.9656 28.1731 64.1404 28.5508 64.3971 28.8705C64.9223 29.4918 65.6397 29.9203 66.4358 30.0879C67.2239 30.2499 68.0325 30.2876 68.8323 30.1998C70.0043 30.1025 71.1636 29.8884 72.293 29.5607C72.8065 29.4535 73.2788 29.2018 73.6542 28.8353C73.89 28.5295 74.0237 28.1573 74.0363 27.7714C74.0489 27.3855 73.9399 27.0053 73.7245 26.6848C73.504 26.3711 73.2187 26.1084 72.8879 25.9144C72.5572 25.7203 72.1887 25.5995 71.8073 25.56C71.0343 25.4973 70.2563 25.5599 69.5034 25.7454C68.7515 25.9309 67.9735 25.9871 67.2027 25.9115C66.8154 25.8698 66.4441 25.7346 66.1206 25.5175C65.7972 25.3004 65.5314 25.008 65.3462 24.6653C64.7007 25.7326 65.1097 27.375 65.1097 27.375Z" fill="#37474F"/>
<path d="M68.0303 32.8008L66.3335 34.8842L67.8897 35.4434L68.0303 32.8008Z" fill="#F28F8F"/>
<path d="M69.3148 36.4787L68.0047 36.8877C68.0857 37.044 68.2161 37.1691 68.3756 37.2437C68.5351 37.3182 68.7148 37.338 68.8866 37.2999C69.0403 37.2315 69.1662 37.1131 69.244 36.964C69.3217 36.8149 69.3467 36.6438 69.3148 36.4787Z" fill="#F28F8F"/>
<path opacity="0.3" d="M69.3148 36.4787L68.0047 36.8877C68.0857 37.044 68.2161 37.1691 68.3756 37.2437C68.5351 37.3182 68.7148 37.338 68.8866 37.2999C69.0403 37.2315 69.1662 37.1131 69.244 36.964C69.3217 36.8149 69.3467 36.6438 69.3148 36.4787Z" fill="black"/>
<path d="M68.4713 37.2744C68.6079 37.3271 68.7575 37.336 68.8995 37.2999C69.0216 37.2528 69.1271 37.1706 69.2027 37.0637C69.2783 36.9569 69.3206 36.83 69.3244 36.6992C69.1501 36.6711 68.9714 36.705 68.8196 36.7951C68.7325 36.8477 68.6569 36.9172 68.597 36.9996C68.5372 37.0819 68.4945 37.1753 68.4713 37.2744Z" fill="#F28F8F"/>
<path d="M70.3374 33.2577C70.3309 33.3494 70.2976 33.4372 70.2414 33.51C70.1853 33.5828 70.1089 33.6374 70.0219 33.6669C69.9348 33.6965 69.841 33.6996 69.7522 33.676C69.6633 33.6524 69.5834 33.6031 69.5225 33.5343C69.4616 33.4654 69.4224 33.3801 69.4098 33.289C69.3972 33.198 69.4118 33.1052 69.4518 33.0224C69.4917 32.9397 69.5552 32.8705 69.6343 32.8237C69.7134 32.7769 69.8046 32.7544 69.8964 32.7593C69.9583 32.7625 70.0189 32.778 70.0747 32.805C70.1305 32.8319 70.1803 32.8696 70.2214 32.916C70.2624 32.9624 70.2938 33.0166 70.3137 33.0752C70.3337 33.1339 70.3417 33.1959 70.3374 33.2577Z" fill="#263238"/>
<path d="M66.439 32.8903C66.4332 32.9822 66.4003 33.0703 66.3445 33.1435C66.2888 33.2168 66.2126 33.2719 66.1255 33.3019C66.0385 33.3319 65.9445 33.3355 65.8554 33.3122C65.7664 33.289 65.6862 33.2399 65.6249 33.1711C65.5637 33.1023 65.5242 33.017 65.5114 32.9258C65.4986 32.8346 65.513 32.7417 65.5529 32.6587C65.5928 32.5758 65.6563 32.5064 65.7356 32.4595C65.8148 32.4126 65.9061 32.3901 65.998 32.395C66.1221 32.4024 66.2382 32.4587 66.3208 32.5515C66.4035 32.6444 66.446 32.7662 66.439 32.8903Z" fill="#263238"/>
<path d="M66.0843 30.9858L65.0138 31.6536C64.9763 31.5219 64.9794 31.3818 65.0227 31.2518C65.066 31.1218 65.1476 31.008 65.2567 30.9251C65.3861 30.8555 65.5327 30.8243 65.6793 30.835C65.8259 30.8458 65.9664 30.8981 66.0843 30.9858Z" fill="#263238"/>
<path d="M70.069 31.1488C70.3885 31.4076 70.7336 31.6664 71.0627 31.9285C71.1151 31.801 71.1275 31.6607 71.0984 31.5261C71.0693 31.3914 71 31.2688 70.8998 31.1743C70.7778 31.0922 70.6351 31.0461 70.488 31.0416C70.341 31.0371 70.1957 31.0742 70.069 31.1488Z" fill="#263238"/>
<path d="M76.4597 33.0916C76.3382 32.7927 76.1106 32.5492 75.8206 32.4078C75.7601 32.3753 75.6956 32.3506 75.6289 32.3343C75.4343 32.3013 75.2345 32.3174 75.0476 32.381C74.8607 32.4446 74.6926 32.5537 74.5584 32.6985C74.2887 32.993 74.1072 33.3572 74.0344 33.7498C73.9645 34.1426 73.9218 34.5398 73.9066 34.9385C73.8529 35.6559 73.7461 36.3683 73.5871 37.0699C73.503 37.4363 73.341 37.7803 73.1122 38.0786C72.8834 38.3769 72.5931 38.6224 72.261 38.7986L72.2162 38.8241C71.2455 39.3127 70.1855 39.5986 69.1007 39.6645V42.8375L73.4976 40.2333C73.6538 40.1413 73.7838 40.0107 73.875 39.854C73.9662 39.6973 74.0156 39.5199 74.0184 39.3386C74.0184 38.8305 74.0408 38.2713 74.0536 37.7409C74.0759 36.7599 74.0919 35.9387 74.0919 35.9387C74.3025 36.184 74.5982 36.3404 74.9195 36.3764C75.0644 36.3982 75.2122 36.3906 75.3541 36.3541C75.5617 36.2857 75.7535 36.1763 75.9182 36.0325C76.0828 35.8887 76.217 35.7134 76.3127 35.5169C76.5086 35.1183 76.6175 34.6826 76.6323 34.2387C76.6605 33.8483 76.6016 33.4564 76.4597 33.0916Z" fill="#FFA8A7"/>
<path opacity="0.2" d="M72.817 38.7602C73.0774 38.4219 73.2626 38.0319 73.3602 37.6163C73.1201 38.1197 72.7262 38.5337 72.2354 38.7986L72.1907 38.8241C71.2199 39.3127 70.1599 39.5986 69.0752 39.6645V40.473C69.7025 40.4179 70.3206 40.2859 70.9157 40.0799C71.6623 39.8301 72.3219 39.3723 72.817 38.7602Z" fill="black"/>
<path d="M33.8874 103.055C34.7853 103.998 36.1466 104.397 37.4471 104.365C38.7505 104.276 40.0269 103.951 41.2145 103.406C42.4191 102.911 43.9306 101.527 45.2311 101.553C46.5049 101.543 47.7768 101.455 49.04 101.291C49.0872 99.5556 48.9056 97.8216 48.5 96.1336L42.4287 95.9707C40.7895 98.2075 37.5973 100.09 35.1816 100.793C34.8099 100.897 34.4738 101.101 34.2097 101.383C33.9456 101.664 33.7634 102.013 33.6829 102.39C33.6813 102.403 33.6813 102.416 33.6829 102.429C33.7242 102.645 33.7929 102.856 33.8874 103.055Z" fill="#455A64"/>
<path d="M45.2311 101.559C43.9306 101.534 42.4192 102.917 41.2145 103.413C40.027 103.957 38.7505 104.282 37.4471 104.371C36.1466 104.403 34.7854 104.004 33.8874 103.061C33.7913 102.864 33.7204 102.656 33.6765 102.441C33.675 102.429 33.675 102.416 33.6765 102.403C33.6186 102.67 33.6186 102.947 33.6765 103.215C33.7207 103.428 33.7916 103.635 33.8874 103.831C34.7854 104.774 36.1466 105.173 37.4471 105.141C38.7508 105.054 40.0275 104.729 41.2145 104.183C42.4192 103.688 43.9306 102.301 45.2311 102.326C46.485 102.336 47.7381 102.263 48.9825 102.109C49.0102 101.839 49.0294 101.567 49.04 101.294C47.7769 101.46 46.505 101.548 45.2311 101.559Z" fill="#263238"/>
<path d="M62.4 104.959C62.4019 105.578 62.3409 106.196 62.2178 106.803C62.0214 107.883 61.4174 108.846 60.5307 109.494C59.751 110.005 58.786 110.149 57.8529 110.206C57.0273 110.293 56.1926 110.207 55.4021 109.954C54.804 109.738 54.2978 109.324 53.9673 108.781C53.9673 108.781 53.9673 108.803 53.9673 108.813C54.082 109.212 54.292 109.577 54.5793 109.876C54.8665 110.176 55.2224 110.401 55.6161 110.532C56.4064 110.787 57.2414 110.873 58.067 110.785C59.0001 110.727 59.9651 110.586 60.7448 110.072C61.6325 109.426 62.2368 108.462 62.4319 107.381C62.5581 106.775 62.6192 106.157 62.6141 105.538C62.6172 105.115 62.7067 104.696 62.877 104.309C63.0473 103.922 63.2949 103.573 63.6046 103.285C63.7548 103.141 63.9018 102.994 64.036 102.841C64.1308 102.731 64.2027 102.603 64.2477 102.464C64.2927 102.326 64.3098 102.18 64.298 102.036C64.298 101.92 64.2757 101.809 64.2629 101.7C64.0392 101.959 63.5152 102.582 63.381 102.707C63.0728 102.996 62.8269 103.344 62.6582 103.732C62.4896 104.119 62.4017 104.537 62.4 104.959Z" fill="#263238"/>
<path d="M57.7507 98.5493C57.9534 99.8151 57.7893 101.113 57.2778 102.288C56.7675 103.456 56.1022 104.55 55.2998 105.541C54.9051 106.009 54.5583 106.515 54.2645 107.052C53.9741 107.583 53.8705 108.197 53.9705 108.794C54.301 109.337 54.8072 109.751 55.4053 109.967C56.1958 110.22 57.0305 110.306 57.8561 110.219C58.7892 110.161 59.7542 110.018 60.5339 109.506C61.4206 108.859 62.0247 107.896 62.2211 106.816C62.3441 106.209 62.4051 105.591 62.4032 104.972C62.4035 104.546 62.4914 104.125 62.6612 103.735C62.8311 103.345 63.0793 102.994 63.3906 102.703C63.5248 102.579 64.0488 101.956 64.2725 101.697C64.1493 100.774 63.8394 99.8856 63.3618 99.0862L57.7507 98.5493Z" fill="#455A64"/>
<path d="M52.015 87.701C51.264 90.8772 50.756 92.8743 49.3756 97.1402C49.3756 97.1402 44.0328 98.2842 41.9271 96.2008L44.3332 84.5823L52.015 87.701Z" fill="#263238"/>
<path d="M65.033 88.6117C64.8285 91.8678 64.9499 94.8043 64.3108 99.2428C64.3108 99.2428 59.7606 100.754 57.3321 99.0574L56.9326 91.2958L65.033 88.6117Z" fill="#263238"/>
<path d="M11.6634 66.5826V94.8235L12.6603 94.2452V66.0074L11.6634 66.5826Z" fill="#455A64"/>
<path d="M11.6634 66.5826V94.8235L10.6632 94.2452V66.0074L11.6634 66.5826Z" fill="#37474F"/>
<path d="M12.6604 74.1141L36.0316 60.6199V59.5495L12.6604 73.0405V74.1141Z" fill="#455A64"/>
<path d="M12.6604 71.9093L35.0314 58.9711L36.0316 59.5495L12.6604 73.0405V71.9093Z" fill="#37474F"/>
<path d="M82.1987 79.198V107.436L83.1989 106.861V78.6197L82.1987 79.198Z" fill="#455A64"/>
<path d="M82.1986 79.198V107.436L81.2017 106.861V78.6197L82.1986 79.198Z" fill="#37474F"/>
<path d="M57.8306 93.2737V121.512L58.8275 120.933V92.6954L57.8306 93.2737Z" fill="#455A64"/>
<path d="M57.8306 93.2737V121.512L56.8304 120.933V92.6954L57.8306 93.2737Z" fill="#37474F"/>
<path d="M58.8275 100.802L82.1987 87.3111V86.2375L58.8275 99.7285V100.802Z" fill="#455A64"/>
<path d="M58.8275 98.5973L81.2017 85.6623L82.1987 86.2375L58.8275 99.7285V98.5973Z" fill="#37474F"/>
<g opacity="0.2">
<path opacity="0.2" d="M82.1986 79.198V107.436L83.1988 106.861V78.6196L82.1986 79.198Z" fill="white"/>
<path opacity="0.2" d="M82.1986 79.198V107.436L81.2017 106.861V78.6196L82.1986 79.198Z" fill="white"/>
<path opacity="0.2" d="M57.8305 93.2737V121.511L58.8275 120.933V92.6954L57.8305 93.2737Z" fill="white"/>
<path opacity="0.2" d="M57.8305 93.2737V121.511L56.8304 120.933V92.6954L57.8305 93.2737Z" fill="white"/>
<path opacity="0.2" d="M58.8275 100.802L82.1987 87.3111V86.2375L58.8275 99.7284V100.802Z" fill="white"/>
<path opacity="0.2" d="M58.8275 98.5973L81.2017 85.6623L82.1987 86.2375L58.8275 99.7284V98.5973Z" fill="white"/>
</g>
<g opacity="0.2">
<path opacity="0.2" d="M11.6635 66.5826V94.8236L12.6604 94.2452V66.0075L11.6635 66.5826Z" fill="white"/>
<path opacity="0.2" d="M11.6634 66.5826V94.8236L10.6633 94.2452V66.0075L11.6634 66.5826Z" fill="white"/>
<path opacity="0.2" d="M12.6604 74.1142L36.0316 60.62V59.5495L12.6604 73.0405V74.1142Z" fill="white"/>
<path opacity="0.2" d="M12.6604 71.9093L35.0314 58.9712L36.0316 59.5495L12.6604 73.0405V71.9093Z" fill="white"/>
</g>
<path d="M57.8306 90.5449L10.6632 63.3616L36.0283 48.7107L83.1989 75.894L57.8306 90.5449Z" fill="#3E63F6"/>
<path d="M57.8306 93.2737L10.6632 66.0074V63.3616L57.8306 90.5449V93.2737Z" fill="#3E63F6"/>
<path d="M57.8306 90.5417L83.1989 75.8908V78.6196L57.8306 93.2737V90.5417Z" fill="#3E63F6"/>
<path opacity="0.3" d="M57.8306 90.5449L10.6632 63.3616L36.0283 48.7107L83.1989 75.894L57.8306 90.5449Z" fill="white"/>
<path opacity="0.1" d="M57.8306 90.5417L83.1989 75.8908V78.6196L57.8306 93.2737V90.5417Z" fill="white"/>
<path opacity="0.2" d="M57.8306 93.2737L10.6632 66.0074V63.3616L57.8306 90.5449V93.2737Z" fill="white"/>
<path opacity="0.2" d="M36.0283 48.7107L83.1957 75.894L83.1989 75.8908V78.6197L57.8306 93.2738L10.6632 66.0074V63.3616L36.0283 48.7107Z" fill="black"/>
<path d="M38.3962 55.1782L34.6128 63.4479L24.739 61.9173L28.5224 53.6476L38.3962 55.1782Z" fill="#E6E6E6"/>
<path d="M42.1028 56.7791L33.5551 63.7515L25.2215 60.3164L33.7692 53.3472L42.1028 56.7791Z" fill="#F0F0F0"/>
<path d="M43.8539 54.4496L48.9761 59.5783L36.1881 63.8473L31.0627 58.7219L43.8539 54.4496Z" fill="white"/>
<path d="M37.249 69.0334L53.8363 78.6197L53.9034 78.6516H53.9386C53.9812 78.6678 54.025 78.6806 54.0696 78.69L54.1591 78.7091H54.223H54.3859H54.5553L54.6639 78.69L54.7981 78.6548C54.8375 78.6413 54.8759 78.6253 54.9132 78.6069L60.2495 75.5041L43.1157 65.5984L37.249 69.0334Z" fill="#37474F"/>
<path d="M53.031 66.3972L49.9091 68.2346C49.8622 68.2631 49.8234 68.3032 49.7964 68.351C49.7695 68.3989 49.7553 68.4529 49.7553 68.5078C49.7553 68.5627 49.7695 68.6167 49.7964 68.6646C49.8234 68.7124 49.8622 68.7525 49.9091 68.781L54.5744 71.4747C54.654 71.521 54.7444 71.5454 54.8364 71.5454C54.9285 71.5454 55.0189 71.521 55.0985 71.4747L58.2172 69.6406C58.2641 69.6121 58.303 69.572 58.3299 69.5241C58.3568 69.4763 58.371 69.4223 58.371 69.3674C58.371 69.3124 58.3568 69.2585 58.3299 69.2106C58.303 69.1627 58.2641 69.1226 58.2172 69.0942L53.5487 66.4004C53.4701 66.3551 53.381 66.331 53.2903 66.3305C53.1996 66.3299 53.1102 66.3529 53.031 66.3972Z" fill="#37474F"/>
<path d="M33.4497 56.3701L33.8587 56.1656C33.9317 56.134 34.0112 56.1202 34.0906 56.1252C34.17 56.1302 34.2471 56.1539 34.3156 56.1943L51.5101 66.1895C51.7762 66.3456 52.0044 66.5586 52.1785 66.8133C52.3525 67.068 52.468 67.358 52.5166 67.6626L54.2837 78.904C54.3017 79.0136 54.2833 79.126 54.2314 79.2241C54.1794 79.3222 54.0968 79.4006 53.9961 79.4473L53.5999 79.6422C53.5283 79.6697 53.4514 79.6806 53.375 79.6739C53.2986 79.6673 53.2247 79.6433 53.1589 79.6038L35.9645 69.6086C35.6973 69.4538 35.4683 69.2412 35.2941 68.9862C35.1199 68.7313 35.005 68.4407 34.9579 68.1355L33.1877 56.8973C33.1721 56.7932 33.1889 56.6868 33.2358 56.5925C33.2826 56.4982 33.3573 56.4206 33.4497 56.3701Z" fill="#455A64"/>
<path d="M42.8281 66.6465C43.2639 66.9202 43.6397 67.2793 43.933 67.7022C44.2263 68.125 44.4309 68.6029 44.5345 69.1069C44.6463 69.9825 44.0648 70.3084 43.234 69.8259C42.7977 69.5535 42.4214 69.1952 42.1281 68.7728C41.8347 68.3503 41.6304 67.8726 41.5276 67.3686C41.4158 66.4931 41.9973 66.1704 42.8281 66.6465Z" fill="white"/>
<path opacity="0.3" d="M53.9354 79.0574L52.1747 67.8288C52.1255 67.524 52.0094 67.2338 51.8349 66.9791C51.6603 66.7245 51.4315 66.5116 51.165 66.3557L33.9609 56.3701C33.8832 56.3236 33.7943 56.2991 33.7037 56.2991C33.6131 56.2991 33.5242 56.3236 33.4465 56.3701L33.8555 56.1656C33.9285 56.134 34.008 56.1202 34.0874 56.1252C34.1668 56.1302 34.2439 56.1539 34.3124 56.1943L51.5069 66.1895C51.773 66.3456 52.0012 66.5586 52.1753 66.8133C52.3493 67.068 52.4648 67.358 52.5134 67.6626L54.2805 78.904C54.2985 79.0136 54.2801 79.126 54.2282 79.2241C54.1762 79.3222 54.0936 79.4006 53.9929 79.4473L53.5967 79.6422C53.7138 79.6015 53.8124 79.52 53.8746 79.4127C53.9368 79.3054 53.9583 79.1793 53.9354 79.0574Z" fill="black"/>
<path d="M80.2591 42.8376L73.699 60.4123L62.9081 64.6014C62.3583 64.8283 61.7625 64.9213 61.1698 64.873L58.2716 64.3586C57.8614 64.3234 57.4507 64.4197 57.0988 64.6334L55.0985 65.8444C54.8971 65.9656 54.7177 66.1201 54.5681 66.3014L53.5871 67.4613C53.5219 67.5388 53.4734 67.629 53.4447 67.7262C53.416 67.8233 53.4077 67.9254 53.4203 68.0259C53.4329 68.1264 53.4661 68.2232 53.5179 68.3103C53.5697 68.3973 53.639 68.4728 53.7213 68.5318L54.338 68.9727C54.6635 69.2051 55.0464 69.3441 55.4451 69.3745C55.8439 69.4049 56.2434 69.3257 56.6004 69.1453L58.1469 68.3656L58.8595 68.535C60.4154 68.9065 62.0505 68.7514 63.5088 68.094L75.2136 65.7294C76.0714 65.5488 76.8697 65.1545 77.5344 64.583C78.1992 64.0116 78.7088 63.2815 79.0161 62.4605C79.0161 62.4605 84.6081 49.1868 83.2884 46.1831C82.7132 44.8858 80.2591 42.8376 80.2591 42.8376Z" fill="#FFA8A7"/>
<path d="M80.2591 42.8376L73.488 60.2046L62.7004 64.3266C64.7103 65.4514 64.8157 67.9662 64.6176 68.2634L76.0412 65.8732C76.7712 65.7163 77.4499 65.3782 78.015 64.8902C78.5801 64.4021 79.0134 63.7798 79.2749 63.0804L83.8603 50.9379C84.446 49.3859 84.3965 47.6656 83.7223 46.1499C83.0482 44.6341 81.8039 43.4452 80.2591 42.8408V42.8376Z" fill="#3E63F6"/>
<path opacity="0.4" d="M80.2591 42.8376L73.488 60.2046L62.7004 64.3266C64.7103 65.4514 64.8157 67.9662 64.6176 68.2634L76.0412 65.8732C76.7712 65.7163 77.4499 65.3782 78.015 64.8902C78.5801 64.4021 79.0134 63.7798 79.2749 63.0804L83.8603 50.9379C84.446 49.3859 84.3965 47.6656 83.7223 46.1499C83.0482 44.6341 81.8039 43.4452 80.2591 42.8408V42.8376Z" fill="white"/>
<path opacity="0.4" d="M67.1356 65.2277C66.8458 64.419 66.3219 63.7149 65.6305 63.205L62.7004 64.3266C64.7103 65.4514 64.8157 67.9662 64.6176 68.2634L67.241 67.7137C67.4512 66.8927 67.4145 66.028 67.1356 65.2277Z" fill="white"/>
<path opacity="0.2" d="M73.488 60.2045C75.4756 60.2333 76.8592 61.0929 77.0701 61.7223C76.7281 58.7442 73.8555 59.2715 73.8555 59.2715L73.488 60.2045Z" fill="black"/>
<path d="M62.2179 19.3641L61.812 19.3737L64.9116 18.3288L65.3142 18.3161L62.2179 19.3641Z" fill="#1E272B"/>
<path d="M60.4444 11.6153L61.8951 17.955L62.2178 19.3641L65.3142 18.3161L63.5407 10.5704L60.4444 11.6153Z" fill="#3E63F6"/>
<path d="M65.72 18.4151L63.8443 10.2285C63.8414 10.2024 63.833 10.1773 63.8196 10.1547C63.8063 10.1321 63.7883 10.1126 63.7668 10.0975C63.7454 10.0824 63.721 10.0721 63.6952 10.0671C63.6695 10.0621 63.643 10.0627 63.6175 10.0687L60.1632 11.235C60.1412 11.2447 60.1207 11.2577 60.1025 11.2734C60.0894 11.2852 60.0786 11.2992 60.0706 11.3149C60.0608 11.3373 60.0543 11.361 60.0514 11.3852C60.0529 11.3915 60.0529 11.3981 60.0514 11.4044C60.0482 11.4309 60.0482 11.4578 60.0514 11.4843L61.9271 19.6709C61.9324 19.6984 61.9433 19.7245 61.959 19.7476V19.7636C61.9691 19.7778 61.9809 19.7907 61.9942 19.8019H62.0166H62.0549H62.0805C62.1006 19.805 62.1211 19.805 62.1412 19.8019L65.5954 18.6963C65.6463 18.672 65.6868 18.6303 65.7097 18.5787C65.7325 18.5272 65.7362 18.4691 65.72 18.4151ZM63.5408 10.5704L65.3142 18.3161L62.2179 19.3641L61.8983 17.9518L60.4476 11.6153L63.544 10.5704H63.5408Z" fill="#455A64"/>
<path d="M62.0165 19.8466H61.9942C61.9809 19.8354 61.9691 19.8225 61.959 19.8083V19.7923C61.9432 19.7692 61.9324 19.7431 61.9271 19.7156L60.0514 11.529C60.0482 11.5025 60.0482 11.4757 60.0514 11.4491C60.0529 11.4428 60.0529 11.4363 60.0514 11.43C60.0543 11.4057 60.0608 11.382 60.0705 11.3597C60.0786 11.344 60.0894 11.3299 60.1025 11.3181C60.1207 11.3024 60.1412 11.2895 60.1632 11.2798L63.6142 10.1134H63.659H63.2532C63.2395 10.1105 63.2253 10.1105 63.2116 10.1134L59.7574 11.2798C59.7355 11.2864 59.7157 11.2985 59.6999 11.3149C59.6835 11.3315 59.6705 11.351 59.6615 11.3724C59.6597 11.3894 59.6597 11.4066 59.6615 11.4236V11.4427C59.66 11.449 59.66 11.4556 59.6615 11.4619C59.6567 11.4883 59.6567 11.5154 59.6615 11.5418L61.534 19.7284C61.5406 19.7737 61.5627 19.8153 61.5965 19.8462C61.6302 19.8771 61.6737 19.8953 61.7194 19.8978H62.122H62.0805H62.0549L62.0165 19.8466Z" fill="#37474F"/>
<path d="M30.4268 26.4675L20.3294 32.264C20.0295 32.4379 19.7804 32.6871 19.6066 32.987C19.4328 33.2869 19.3405 33.627 19.3388 33.9735V42.6778C19.3489 43.0204 19.4491 43.3543 19.6294 43.6458C19.8097 43.9373 20.0636 44.1761 20.3657 44.3382C20.6677 44.5002 21.0071 44.5797 21.3497 44.5687C21.6923 44.5577 22.0259 44.4566 22.3169 44.2755L24.0712 43.2722L24.2278 43.531C24.2278 43.531 24.2469 43.531 24.2565 43.5534H24.2757C24.5633 43.7451 25.0713 44.0167 25.1864 44.0742C25.2131 44.0824 25.2419 44.08 25.2669 44.0675C25.2919 44.055 25.3111 44.0334 25.3206 44.0071L25.9597 42.1761L32.4048 38.4918C32.7067 38.3201 32.9578 38.0715 33.1324 37.7712C33.3069 37.4709 33.3988 37.1297 33.3986 36.7823V28.0716C33.405 26.6529 31.312 25.9627 30.4268 26.4675Z" fill="#3E63F6"/>
<path opacity="0.2" d="M24.2278 43.5374C24.2278 43.5374 24.247 43.5374 24.2565 43.5598H24.2757C24.5633 43.7515 25.0714 44.0231 25.1864 44.0806C25.1733 44.0779 25.1608 44.0725 25.1499 44.0648C25.1389 44.0571 25.1296 44.0473 25.1225 44.0359L24.4834 43.0229L24.608 42.9526L24.0584 43.2722L24.2278 43.5374Z" fill="white"/>
<path opacity="0.4" d="M21.5532 34.1205C21.6817 33.8653 21.8624 33.64 22.0837 33.4591C22.1584 33.3975 22.2386 33.343 22.3233 33.2961L32.4208 27.4997C32.5209 27.4426 32.6343 27.4128 32.7495 27.4133C32.8647 27.4138 32.9778 27.4445 33.0775 27.5024C33.1771 27.5604 33.2598 27.6434 33.3173 27.7433C33.3747 27.8432 33.405 27.9564 33.405 28.0716C33.405 26.6497 31.312 25.9627 30.4269 26.4739L20.3294 32.2704C20.0213 32.4472 19.7673 32.7046 19.5944 33.0149L21.5532 34.1205Z" fill="white"/>
<path opacity="0.2" d="M21.3327 43.7099V35.0056C21.3332 34.9276 21.3385 34.8497 21.3487 34.7724C21.3807 34.5494 21.4498 34.3334 21.5532 34.1333L19.5817 33.0085C19.4157 33.3009 19.3277 33.631 19.326 33.9671V42.6714C19.3361 43.014 19.4363 43.3479 19.6166 43.6394C19.7969 43.9309 20.0509 44.1697 20.3529 44.3318C20.6549 44.4938 20.9944 44.5733 21.3369 44.5623C21.6795 44.5513 22.0131 44.4502 22.3041 44.2691C22.2053 44.3226 22.0945 44.3499 21.9821 44.3485C21.8698 44.347 21.7597 44.3168 21.6623 44.2608C21.5649 44.2047 21.4835 44.1247 21.4258 44.0282C21.3681 43.9318 21.3361 43.8222 21.3327 43.7099Z" fill="white"/>
<path d="M25.2918 38.5813L25.2982 40.9651L23.4034 42.0611L23.397 39.6773L25.2918 38.5813Z" fill="white"/>
<path d="M28.3275 35.0792L28.3371 39.2108L26.4454 40.3036L26.4358 36.172L28.3275 35.0792Z" fill="white"/>
<path d="M30.8774 29.762C30.9381 29.7269 30.986 29.7269 31.0116 29.762C31.028 29.7836 31.0387 29.809 31.0426 29.8358C31.0465 29.8626 31.0435 29.89 31.034 29.9154L30.6249 31.3917C30.6052 31.4725 30.5548 31.5424 30.4843 31.5866L30.43 31.6058C30.3533 31.6058 30.3118 31.5387 30.3437 31.43L30.5802 30.5672L28.4041 33.4431C28.3823 33.4743 28.3539 33.5005 28.3211 33.5198C28.2985 33.5348 28.2714 33.5416 28.2444 33.539L27.6628 33.4591L25.9245 35.8588C25.9024 35.8919 25.8729 35.9193 25.8382 35.9387C25.8265 35.9475 25.813 35.9538 25.7987 35.9571C25.7844 35.9604 25.7696 35.9607 25.7552 35.9579L25.2854 35.8652L23.7133 38.1499C23.6882 38.1853 23.6568 38.2156 23.6206 38.2394C23.6029 38.2519 23.5816 38.2586 23.5599 38.2586C23.5382 38.2586 23.517 38.2519 23.4992 38.2394C23.4761 38.1982 23.4665 38.1508 23.4716 38.1038C23.4768 38.0568 23.4965 38.0126 23.528 37.9774L25.1896 35.5649C25.2144 35.5302 25.2459 35.5009 25.2822 35.4786C25.3077 35.4619 25.3384 35.455 25.3685 35.4594L25.8382 35.5553L27.5733 33.1619C27.5966 33.129 27.6259 33.1008 27.6596 33.0788C27.6833 33.0636 27.7115 33.0568 27.7395 33.0597L28.3211 33.1395L30.3246 30.497L29.6024 30.9795C29.5161 31.0306 29.449 30.9986 29.4395 30.9124C29.4388 30.8595 29.4514 30.8073 29.4759 30.7604C29.5004 30.7136 29.5362 30.6736 29.58 30.6439L30.8774 29.762Z" fill="white"/>
<path d="M31.3663 32.3567L31.3822 37.4533L29.4874 38.5494L29.4714 33.4527L31.3663 32.3567Z" fill="white"/>
<path d="M43.4354 0.99381L33.3219 6.79027C33.0234 6.96556 32.7752 7.21512 32.6017 7.51468C32.4281 7.81424 32.335 8.15361 32.3313 8.49981V15.8492C32.3414 16.1918 32.4417 16.5257 32.6219 16.8172C32.8022 17.1087 33.0562 17.3475 33.3582 17.5096C33.6603 17.6716 33.9997 17.7511 34.3422 17.7401C34.6848 17.7291 35.0184 17.628 35.3095 17.4469L37.0637 16.4436L37.2235 16.6992C37.2235 16.6992 37.2395 16.6992 37.2491 16.7248H37.2682C37.559 16.9165 38.0671 17.1881 38.1789 17.2456C38.2056 17.2538 38.2345 17.2515 38.2595 17.239C38.2845 17.2265 38.3037 17.2048 38.3131 17.1785L38.9522 15.3476L45.3973 11.6633C45.7025 11.4965 45.9581 11.252 46.1382 10.9546C46.3184 10.6571 46.4166 10.3174 46.4231 9.96969V2.5979C46.4231 1.17595 44.3205 0.488936 43.4354 0.99381Z" fill="#3E63F6"/>
<path opacity="0.2" d="M37.2362 16.7024C37.2362 16.7024 37.2522 16.7024 37.2618 16.728H37.281C37.5718 16.9197 38.0798 17.1913 38.1917 17.2488C38.1785 17.2461 38.1661 17.2407 38.1551 17.233C38.1441 17.2253 38.1348 17.2155 38.1278 17.2041L37.4887 16.1911L37.6133 16.1208L37.0605 16.4404L37.2362 16.7024Z" fill="white"/>
<path opacity="0.4" d="M34.5617 8.6468C34.6891 8.39173 34.8687 8.16635 35.089 7.98535C35.1637 7.9238 35.2439 7.86924 35.3286 7.82239L45.4261 2.02912C45.5261 1.9679 45.6407 1.93465 45.758 1.93284C45.8752 1.93104 45.9908 1.96074 46.0927 2.01885C46.1945 2.07696 46.2789 2.16135 46.337 2.26321C46.3951 2.36506 46.4249 2.48065 46.423 2.59791C46.423 1.17595 44.3301 0.488941 43.4449 1.00021L33.3219 6.79027C33.0138 6.96599 32.7605 7.22372 32.5902 7.5348L34.5617 8.6468Z" fill="white"/>
<path opacity="0.2" d="M34.3413 16.8781V9.52873C34.3364 9.45105 34.3364 9.37314 34.3413 9.29546C34.3758 9.07268 34.4459 8.85689 34.5489 8.65638L32.5902 7.54438C32.4212 7.83565 32.3319 8.16628 32.3313 8.503V15.8524C32.3414 16.195 32.4417 16.5289 32.6219 16.8204C32.8022 17.1119 33.0562 17.3507 33.3582 17.5128C33.6603 17.6748 33.9997 17.7543 34.3422 17.7433C34.6848 17.7323 35.0184 17.6312 35.3095 17.4501C35.2099 17.5043 35.0981 17.5317 34.9848 17.5297C34.8715 17.5277 34.7607 17.4964 34.6631 17.4388C34.5656 17.3811 34.4846 17.2992 34.4282 17.2009C34.3718 17.1027 34.3418 16.9915 34.3413 16.8781Z" fill="white"/>
<path d="M37.4439 10.5577C37.9392 10.2733 38.3418 10.5033 38.3418 11.0721C38.3264 11.383 38.2375 11.6857 38.0825 11.9556C37.9276 12.2256 37.7109 12.455 37.4503 12.6251C36.9518 12.9095 36.5492 12.6794 36.5492 12.1106C36.5653 11.7995 36.6547 11.4967 36.8102 11.2268C36.9657 10.9569 37.1829 10.7276 37.4439 10.5577Z" fill="white"/>
<path d="M40.7704 8.63721C41.2657 8.35282 41.6715 8.58289 41.6715 9.15167C41.6551 9.46268 41.5656 9.76544 41.4101 10.0353C41.2546 10.3052 41.0376 10.5345 40.7768 10.7046C40.2783 10.989 39.8757 10.759 39.8725 10.1902C39.8897 9.87899 39.9799 9.57624 40.1359 9.30644C40.2919 9.03663 40.5093 8.80737 40.7704 8.63721Z" fill="white"/>
<path d="M44.1 6.71677C44.5921 6.43237 44.9979 6.66244 44.9979 7.23123C44.9818 7.54187 44.8924 7.84428 44.7368 8.11366C44.5813 8.38305 44.3642 8.61174 44.1032 8.78099C43.6079 9.06858 43.2053 8.83851 43.2021 8.26653C43.2188 7.95567 43.3088 7.65317 43.4649 7.3838C43.621 7.11443 43.8386 6.88585 44.1 6.71677Z" fill="white"/>
<path d="M81.9911 4.07418L92.0119 9.8259C92.3093 9.99839 92.5564 10.2458 92.7285 10.5435C92.9007 10.8412 92.9918 11.1788 92.9928 11.5227V18.8146C92.9903 19.1579 92.8957 19.4942 92.7189 19.7884C92.542 20.0827 92.2893 20.324 91.9873 20.4873C91.6853 20.6505 91.345 20.7297 91.002 20.7165C90.6589 20.7033 90.3257 20.5982 90.0371 20.4123L88.2988 19.4153L88.139 19.6709C88.1321 19.68 88.1234 19.6876 88.1135 19.6933H88.0943C87.8067 19.885 87.305 20.1534 87.19 20.2141C87.1637 20.2225 87.1352 20.2206 87.1102 20.2087C87.0853 20.1969 87.0658 20.176 87.0558 20.1502L86.4167 18.3321L80.0259 14.6765C79.7272 14.5052 79.4789 14.2581 79.3061 13.9602C79.1333 13.6623 79.0421 13.3241 79.0417 12.9798V5.66549C79.0353 4.25312 81.1123 3.5725 81.9911 4.07418Z" fill="#3E63F6"/>
<path opacity="0.2" d="M88.139 19.6613C88.132 19.6704 88.1234 19.678 88.1134 19.6837H88.0943C87.8067 19.8754 87.305 20.1439 87.19 20.2046C87.2031 20.2018 87.2155 20.1964 87.2265 20.1888C87.2375 20.1811 87.2468 20.1712 87.2539 20.1598L87.8738 19.1565L87.7524 19.0862L88.2988 19.4057L88.139 19.6613Z" fill="white"/>
<path opacity="0.4" d="M90.7944 11.6665C90.6652 11.4199 90.4868 11.2024 90.2704 11.0274C90.1951 10.9665 90.1149 10.912 90.0307 10.8644L80.0099 5.11269C79.9115 5.0519 79.7985 5.01896 79.6828 5.01736C79.5672 5.01577 79.4533 5.04558 79.3533 5.10363C79.2532 5.16168 79.1708 5.24579 79.1148 5.34699C79.0588 5.44819 79.0314 5.56269 79.0353 5.67827C79.0353 4.26591 81.1123 3.58529 81.9911 4.08057L92.0119 9.8323C92.3202 10.0049 92.5771 10.2563 92.7564 10.5608L90.7944 11.6665Z" fill="white"/>
<path opacity="0.2" d="M91.0148 19.8371V12.5452C91.0144 12.4672 91.0091 12.3893 90.9989 12.3119C90.9661 12.0892 90.897 11.8733 90.7943 11.6729L92.7563 10.5609C92.9201 10.854 93.0069 11.1837 93.0088 11.5195V18.8114C93.0063 19.1547 92.9117 19.491 92.7348 19.7853C92.5579 20.0795 92.3053 20.3209 92.0033 20.4841C91.7012 20.6474 91.3609 20.7265 91.0179 20.7133C90.6748 20.7001 90.3416 20.5951 90.053 20.4091C90.1516 20.4669 90.2639 20.4971 90.3782 20.4968C90.4924 20.4964 90.6045 20.4654 90.7027 20.407C90.801 20.3486 90.8817 20.2649 90.9366 20.1647C90.9915 20.0644 91.0185 19.9513 91.0148 19.8371Z" fill="white"/>
<path d="M83.3683 8.64678C83.1936 8.5221 82.9893 8.44529 82.7757 8.42399C82.5621 8.40269 82.3467 8.43764 82.1508 8.52536C81.4766 8.90561 81.4734 10.1582 82.1508 11.3149L82.5407 11.9956L84.9628 16.1911L87.4009 14.8011L87.7939 14.5743C88.4713 14.194 88.4745 12.9414 87.7939 11.7847C87.5043 11.2624 87.0864 10.8225 86.5796 10.5065C86.4056 10.3818 86.2018 10.305 85.9887 10.2837C85.7757 10.2623 85.5607 10.2973 85.3654 10.3851L84.9692 10.6056L84.5761 9.93133C84.2892 9.40748 83.8735 8.96539 83.3683 8.64678Z" fill="white"/>
</svg>
