<svg width="130" height="128" viewBox="0 0 130 128" fill="none" xmlns="http://www.w3.org/2000/svg">
<path d="M110.802 59.587C85.4935 43.9345 44.593 43.9345 19.4481 59.587C-5.69682 75.2394 -5.5609 100.613 19.7444 116.263C45.0497 131.912 85.9557 131.912 111.101 116.263C136.245 100.613 136.112 75.2423 110.802 59.587Z" fill="#A2A1A1"/>
<path d="M9.35633 86.6444L35.5203 71.5302L56.415 83.5609C57.4683 82.3394 58.7284 81.3129 60.1376 80.5285C67.5861 76.2274 79.6296 76.2274 87.0237 80.5285C94.4179 84.8295 94.3732 91.8018 86.9375 96.1028C85.3269 97.0135 83.6096 97.7208 81.8248 98.2086L83.9242 99.4165C84.0665 99.5015 84.1843 99.6221 84.2662 99.7663C84.348 99.9105 84.391 100.073 84.391 100.239C84.391 100.405 84.348 100.568 84.2662 100.712C84.1843 100.856 84.0665 100.977 83.9242 101.062L59.6392 115.077C59.0626 115.41 58.4085 115.585 57.7427 115.585C57.0769 115.585 56.4228 115.41 55.8462 115.077L9.35633 88.2901C9.21402 88.205 9.0962 88.0845 9.01439 87.9403C8.93258 87.796 8.88957 87.6331 8.88957 87.4673C8.88957 87.3015 8.93258 87.1385 9.01439 86.9943C9.0962 86.8501 9.21402 86.7295 9.35633 86.6444Z" fill="#484747"/>
<path d="M115.543 98.7358C113.018 97.2755 108.935 97.2755 106.423 98.7358C103.911 100.196 103.927 102.57 106.452 104.018C108.976 105.465 113.063 105.478 115.575 104.018C118.086 102.558 118.07 100.196 115.543 98.7358Z" fill="#484747"/>
<path d="M117.106 89.6169L110.986 89.7958L104.867 89.6169C104.605 93.7485 105.41 97.9601 106.522 100.015C106.785 100.544 107.209 100.976 107.733 101.248C109.539 102.29 112.456 102.29 114.249 101.248C114.784 100.969 115.21 100.519 115.46 99.97C116.569 97.9153 117.368 93.7262 117.106 89.6169Z" fill="white"/>
<path d="M115.297 87.1117C117.697 88.4953 117.706 90.7385 115.326 92.1221C112.945 93.5057 109.072 93.5057 106.673 92.1221C104.273 90.7385 104.263 88.4953 106.647 87.1117C109.031 85.7281 112.9 85.7281 115.297 87.1117Z" fill="#EBEBEB"/>
<path d="M114.351 87.6613C116.22 88.7414 116.23 90.4924 114.373 91.5725C112.517 92.6525 109.491 92.6525 107.622 91.5725C105.752 90.4924 105.743 88.7414 107.599 87.6613C109.456 86.5813 112.479 86.5813 114.351 87.6613Z" fill="#E0E0E0"/>
<g opacity="0.15">
<path opacity="0.15" d="M114.351 87.6613C116.22 88.7414 116.23 90.4924 114.373 91.5725C112.517 92.6525 109.491 92.6525 107.622 91.5725C105.752 90.4924 105.743 88.7414 107.599 87.6613C109.456 86.5813 112.479 86.5813 114.351 87.6613Z" fill="black"/>
</g>
<path d="M121.045 63.5105C107.257 68.0224 107.133 77.2507 110.242 83.8172C111.025 85.1465 113.399 85.8591 115.463 77.6916L111.84 78.155L116.07 76.0173L117.166 72.7388L113.651 73.0008L118.125 71.1219C118.941 68.527 119.916 65.985 121.045 63.5105Z" fill="#3E63F6"/>
<path opacity="0.2" d="M121.045 63.5105C107.257 68.0224 107.133 77.2507 110.242 83.8172C111.025 85.1465 113.399 85.8591 115.463 77.6916L111.84 78.155L116.07 76.0173L117.166 72.7388L113.651 73.0008L118.125 71.1219C118.941 68.527 119.916 65.985 121.045 63.5105Z" fill="black"/>
<path opacity="0.2" d="M121.045 63.5105C107.257 68.0224 107.133 77.2507 110.242 83.8172C111.025 85.1465 113.399 85.8591 115.463 77.6916L111.84 78.155L116.07 76.0173L117.166 72.7388L113.651 73.0008L118.125 71.1219C118.941 68.527 119.916 65.985 121.045 63.5105Z" fill="white"/>
<path d="M117.147 65.8143C109.874 71.3328 109.219 77.6597 111.277 84.2646C110.545 78.4489 109.759 72.5694 117.147 65.8143Z" fill="white"/>
<path d="M97.6935 72.8794C111.284 74.7966 112.932 83.3635 111.13 89.9971C110.619 91.3648 108.529 92.4224 105.247 85.1593L108.698 84.9899L104.413 83.7118L102.848 80.8359L106.164 80.4876L101.691 79.4811C100.496 77.2003 99.1606 74.9955 97.6935 72.8794Z" fill="#3E63F6"/>
<path opacity="0.2" d="M97.6935 72.8794C111.284 74.7966 112.932 83.3635 111.13 89.9971C110.619 91.3648 108.529 92.4224 105.247 85.1593L108.698 84.9899L104.413 83.7118L102.848 80.8359L106.164 80.4876L101.691 79.4811C100.496 77.2003 99.1606 74.9955 97.6935 72.8794Z" fill="white"/>
<path opacity="0.1" d="M97.6935 72.8794C111.284 74.7966 112.932 83.3635 111.13 89.9971C110.619 91.3648 108.529 92.4224 105.247 85.1593L108.698 84.9899L104.413 83.7118L102.848 80.8359L106.164 80.4876L101.691 79.4811C100.496 77.2003 99.1606 74.9955 97.6935 72.8794Z" fill="black"/>
<path d="M101.707 74.378C109.395 78.3116 111.06 84.092 110.242 90.5851C109.954 85.0475 109.708 79.4427 101.707 74.378Z" fill="white"/>
<path d="M125.017 76.0908C112.555 76.2953 110.108 83.8332 110.99 90.0131C111.309 91.2913 113.063 92.4928 116.831 86.3128L113.741 85.7728L117.748 85.089L119.48 82.6797L116.527 81.9991L120.681 81.5932C122.012 79.6718 123.46 77.8342 125.017 76.0908Z" fill="#3E63F6"/>
<path d="M121.237 76.9919C113.865 79.676 111.721 84.7024 111.731 90.6458C112.61 85.6865 113.46 80.6602 121.237 76.9919Z" fill="white"/>
<path opacity="0.2" d="M125.017 76.0908C112.555 76.2953 110.108 83.8332 110.99 90.0131C111.309 91.2913 113.063 92.4928 116.831 86.3128L113.741 85.7728L117.748 85.089L119.48 82.6797L116.527 81.9991L120.681 81.5932C122.012 79.6718 123.46 77.8342 125.017 76.0908Z" fill="white"/>
<path d="M66.4422 89.9069L67.3049 90.4566C67.4595 90.5257 67.6296 90.5527 67.798 90.5347C67.9664 90.5167 68.127 90.4545 68.2636 90.3543C68.6652 90.0949 68.9995 89.7438 69.2389 89.3299C69.4784 88.916 69.6161 88.4512 69.6408 87.9737C69.6559 87.8074 69.6283 87.64 69.5607 87.4874C69.493 87.3347 69.3875 87.2019 69.2541 87.1014L68.9985 86.9416L77.2586 83.5833C77.2675 83.6839 77.3014 83.7808 77.3572 83.865C77.413 83.9493 77.4889 84.0183 77.5781 84.0658L76.8336 90.562V91.4407C76.5001 91.7109 76.2267 92.0476 76.0308 92.4295C75.8349 92.8114 75.7209 93.2299 75.696 93.6583C75.6794 93.8327 75.7108 94.0082 75.7868 94.1659C75.8629 94.3237 75.9807 94.4575 76.1274 94.5531L76.9902 95.1027H77.0062C77.1612 95.1696 77.331 95.1953 77.4989 95.1774C77.6668 95.1595 77.8273 95.0985 77.9648 95.0004C78.3665 94.7403 78.7008 94.3886 78.9402 93.9742C79.1796 93.5598 79.3173 93.0946 79.342 92.6166C79.3571 92.4504 79.3296 92.283 79.2619 92.1303C79.1942 91.9776 79.0887 91.8448 78.9554 91.7443L78.0575 91.1883C77.9189 91.1061 77.7577 91.0703 77.5973 91.086L78.5559 84.3182C78.7609 84.3159 78.9643 84.2836 79.1599 84.2223L86.9822 88.4498L86.5317 88.7342C86.3966 88.8332 86.2899 88.9658 86.2221 89.1189C86.1543 89.2719 86.1277 89.4401 86.145 89.6066C86.1699 90.0837 86.3073 90.5481 86.5461 90.9619C86.785 91.3756 87.1183 91.727 87.519 91.9872C87.6555 92.0873 87.8162 92.1496 87.9846 92.1676C88.1529 92.1855 88.3231 92.1586 88.4777 92.0894L89.3404 91.5398C89.4871 91.4436 89.6046 91.3091 89.6801 91.1507C89.7556 90.9924 89.7862 90.8164 89.7686 90.6419C89.7451 90.2174 89.6335 89.8025 89.441 89.4234C89.2485 89.0444 88.9791 88.7096 88.6502 88.4403V87.0758L81.3807 82.7556L85.2152 81.797C84.9642 82.2093 84.8234 82.6791 84.8061 83.1615C84.7889 83.3363 84.82 83.5125 84.896 83.6708C84.9721 83.8292 85.0902 83.9636 85.2375 84.0594L86.1003 84.6122H86.1163C86.2708 84.6813 86.441 84.7083 86.6094 84.6903C86.7777 84.6723 86.9384 84.6101 87.0749 84.5099C87.4756 84.2497 87.809 83.8984 88.0478 83.4846C88.2866 83.0709 88.424 82.6064 88.4489 82.1293C88.4662 81.9628 88.4397 81.7947 88.3718 81.6416C88.304 81.4886 88.1973 81.356 88.0623 81.257L87.1835 80.685C87.0869 80.6316 86.9804 80.5984 86.8705 80.5874C86.7607 80.5765 86.6497 80.5879 86.5444 80.6211V80.4038L86.0779 80.2441L79.8373 80.5636V79.4612C79.9044 79.4292 79.9715 79.4037 80.0322 79.3685C80.2016 79.2927 80.348 79.1737 80.4568 79.0233C80.5656 78.873 80.633 78.6967 80.6521 78.5122V71.3065H76.4598V78.5249C76.4761 78.7091 76.5412 78.8855 76.6485 79.0361C76.7558 79.1866 76.9013 79.3058 77.0701 79.3813C77.1363 79.4181 77.2046 79.4512 77.2746 79.4804V80.407L72.7659 79.4324L72.5486 79.5187V80.3463L71.6667 80.9023C71.5316 81.0013 71.4249 81.1339 71.3571 81.287C71.2892 81.44 71.2627 81.6081 71.28 81.7747C71.3104 82.4188 71.5493 83.0355 71.9606 83.5321L67.6021 85.4941V86.5262C67.5409 86.5517 67.4812 86.5805 67.4232 86.6125C67.0226 86.8731 66.6891 87.2244 66.4498 87.6381C66.2105 88.0517 66.0722 88.5159 66.0459 88.9931C66.0219 89.1671 66.0462 89.3443 66.116 89.5055C66.1859 89.6667 66.2987 89.8055 66.4422 89.9069ZM69.04 85.2513L72.1971 83.8453L67.928 85.7433L69.04 85.2513ZM74.6224 81.7012L75.2615 82.0431L74.8205 82.2444C74.7712 82.0576 74.7048 81.8758 74.6224 81.7012ZM77.265 81.5861L74.8876 82.6438L77.265 81.5861Z" fill="#E0E0E0"/>
<path d="M87.3912 82.4393L88.0814 81.257L87.1835 80.685C87.0258 80.6057 86.8492 80.5715 86.6733 80.5862C86.4974 80.6009 86.3289 80.6638 86.1865 80.7681C85.7865 81.0292 85.4534 81.3807 85.2142 81.7943C84.975 82.2078 84.8363 82.6717 84.8093 83.1487C84.792 83.3235 84.8231 83.4997 84.8992 83.6581C84.9753 83.8164 85.0934 83.9508 85.2407 84.0466L86.1226 84.609L86.848 83.3628C87.0781 83.0866 87.2616 82.7746 87.3912 82.4393Z" fill="#37474F"/>
<path d="M87.0844 81.3401C87.8449 80.9023 88.4648 81.2538 88.468 82.1293C88.4432 82.6064 88.3057 83.0709 88.0669 83.4846C87.8281 83.8984 87.4947 84.2497 87.094 84.5099C86.3303 84.9509 85.7104 84.5994 85.7072 83.7206C85.7334 83.2435 85.8718 82.7793 86.1111 82.3656C86.3504 81.952 86.6839 81.6006 87.0844 81.3401Z" fill="#455A64"/>
<path d="M72.3217 82.1038L71.6315 80.9183L72.5294 80.3655C72.6871 80.2862 72.8637 80.252 73.0396 80.2666C73.2155 80.2813 73.384 80.3443 73.5264 80.4486C73.9271 80.7087 74.2605 81.0601 74.4993 81.4738C74.7381 81.8876 74.8755 82.352 74.9004 82.8291C74.9196 83.0034 74.8897 83.1795 74.814 83.3376C74.7383 83.4957 74.6199 83.6295 74.4722 83.7238L73.5839 84.2766L72.8553 83.0272C72.6287 82.7503 72.4484 82.4384 72.3217 82.1038Z" fill="#37474F"/>
<path d="M72.6253 81.0046C71.8648 80.5636 71.2449 80.9151 71.2417 81.7906C71.2668 82.2681 71.4043 82.7329 71.6431 83.1471C71.8819 83.5614 72.2151 83.9134 72.6157 84.1744C73.3794 84.6122 73.9993 84.2607 74.0025 83.3852C73.9763 82.908 73.8379 82.4438 73.5986 82.0301C73.3593 81.6165 73.0259 81.2652 72.6253 81.0046Z" fill="#455A64"/>
<path d="M77.265 79.1704H79.8213V83.58C79.8106 83.693 79.7701 83.8011 79.7038 83.8932C79.6376 83.9853 79.548 84.0581 79.4443 84.1041C79.1638 84.2474 78.8533 84.3221 78.5384 84.3221C78.2234 84.3221 77.9129 84.2474 77.6325 84.1041C77.53 84.0572 77.4417 83.984 77.3766 83.892C77.3115 83.7999 77.2719 83.6923 77.2618 83.58L77.265 79.1704Z" fill="#EBEBEB"/>
<path d="M86.5316 80.407V81.4583L79.8245 83.1487V80.9215L86.5316 80.407Z" fill="#E0E0E0"/>
<path d="M86.5316 80.407L86.0651 80.2473L79.8245 80.5764V80.9215L86.5316 80.407Z" fill="#F5F5F5"/>
<path d="M87.2027 89.9517L86.5125 88.7694L87.4104 88.2006C87.5681 88.1213 87.7447 88.0871 87.9206 88.1018C88.0965 88.1165 88.265 88.1794 88.4074 88.2837C88.8075 88.5444 89.1405 88.8959 89.3793 89.3096C89.618 89.7232 89.7558 90.1874 89.7814 90.6643C89.799 90.8388 89.7684 91.0148 89.6929 91.1731C89.6174 91.3314 89.4999 91.466 89.3532 91.5622L88.4713 92.1214L87.7427 90.8752C87.514 90.5985 87.3317 90.2867 87.2027 89.9517Z" fill="#37474F"/>
<path d="M87.5094 88.8396C86.7489 88.3987 86.129 88.7502 86.1258 89.6257C86.1507 90.1028 86.2881 90.5673 86.5269 90.981C86.7657 91.3948 87.0991 91.7461 87.4998 92.0063C88.2635 92.4473 88.8834 92.0958 88.8866 91.2202C88.8604 90.7431 88.722 90.2789 88.4827 89.8652C88.2434 89.4516 87.91 89.1002 87.5094 88.8396Z" fill="#455A64"/>
<path d="M78.2715 92.9426L78.9649 91.7571L78.0574 91.1883C77.8997 91.109 77.7232 91.0748 77.5472 91.0895C77.3713 91.1041 77.2029 91.1671 77.0605 91.2714C76.6599 91.5319 76.3264 91.8833 76.0871 92.2969C75.8478 92.7106 75.7095 93.1748 75.6832 93.6519C75.6666 93.8262 75.698 94.0018 75.774 94.1595C75.8501 94.3173 75.9679 94.4511 76.1146 94.5467L76.9934 95.109L77.7219 93.8596C77.9548 93.5866 78.1405 93.2767 78.2715 92.9426Z" fill="#37474F"/>
<path d="M77.968 91.8434C78.7285 91.4024 79.3484 91.7571 79.3516 92.6294C79.3269 93.1074 79.1892 93.5726 78.9498 93.987C78.7104 94.4014 78.3761 94.7531 77.9744 95.0132C77.2139 95.451 76.594 95.0995 76.5908 94.2239C76.616 93.7466 76.7539 93.2819 76.9933 92.8682C77.2327 92.4544 77.5667 92.1032 77.968 91.8434Z" fill="#455A64"/>
<path d="M68.5895 88.2964L69.2829 87.1141L68.385 86.5454C68.2273 86.4661 68.0507 86.4319 67.8748 86.4465C67.6989 86.4612 67.5304 86.5241 67.388 86.6284C66.9875 86.889 66.654 87.2404 66.4147 87.654C66.1754 88.0676 66.037 88.5319 66.0108 89.009C65.9935 89.1838 66.0246 89.3601 66.1007 89.5184C66.1768 89.6768 66.2949 89.8111 66.4422 89.9069L67.3209 90.4661L68.0495 89.2199C68.2786 88.9436 68.4611 88.6317 68.5895 88.2964Z" fill="#37474F"/>
<path d="M68.2859 87.2004C69.0464 86.7595 69.6664 87.111 69.6695 87.9865C69.6449 88.464 69.5071 88.9288 69.2677 89.3427C69.0283 89.7566 68.694 90.1076 68.2923 90.3671C67.5318 90.808 66.9119 90.4566 66.9087 89.581C66.9334 89.1035 67.0711 88.6387 67.3106 88.2248C67.55 87.811 67.8843 87.4599 68.2859 87.2004Z" fill="#455A64"/>
<path d="M88.1421 87.3762V89.0761L79.163 84.2255V81.8769L88.1421 87.3762Z" fill="#E0E0E0"/>
<path d="M88.663 87.0822L79.6775 81.7459L79.163 81.8769L88.1421 87.3762L88.663 87.0822Z" fill="#F5F5F5"/>
<path d="M88.663 88.7854L88.1422 89.0761V87.3762L88.663 87.0822V88.7854Z" fill="#F0F0F0"/>
<path d="M78.5592 81.8769L77.4631 90.5588V92.1086L78.5592 84.3214V81.8769Z" fill="#E0E0E0"/>
<path d="M77.4631 90.5588H76.8304V92.1118H77.4631V90.5588Z" fill="#F0F0F0"/>
<path d="M76.8304 90.5588L77.8274 81.8769H78.5591L77.4631 90.5588H76.8304Z" fill="#F5F5F5"/>
<path d="M67.928 85.7433V87.3762L77.265 83.58V81.5861L67.928 85.7433Z" fill="#E0E0E0"/>
<path d="M67.5669 87.1333L67.928 87.3762V85.7433L67.5669 85.5101V87.1333Z" fill="#F0F0F0"/>
<path d="M69.04 85.2513L67.928 85.7433L67.5669 85.5101L77.265 81.142V81.5861L69.04 85.2513Z" fill="#F5F5F5"/>
<path d="M72.539 79.5187V80.586L75.2615 82.0431L77.265 81.142V80.7042L72.539 79.5187Z" fill="#E0E0E0"/>
<path d="M72.539 79.5187L72.7531 79.4324L77.265 80.407V80.7042L72.539 79.5187Z" fill="#F5F5F5"/>
<path d="M76.4598 71.3065H80.6489V78.5249C80.6298 78.7095 80.5625 78.8858 80.4537 79.0361C80.3449 79.1864 80.1984 79.3055 80.029 79.3813C79.5707 79.6145 79.0638 79.736 78.5496 79.736C78.0353 79.736 77.5284 79.6145 77.0701 79.3813C76.9013 79.3058 76.7558 79.1866 76.6485 79.0361C76.5412 78.8855 76.4761 78.7091 76.4598 78.5249V71.3065Z" fill="#E0E0E0"/>
<path d="M59.9587 59.7072C60.1577 59.39 60.4308 59.1257 60.7543 58.9371L62.3201 58.1351C62.3201 52.5527 61.4957 53.0991 59.9587 50.9103C58.4217 48.7214 60.7767 47.3602 62.5533 48.3316C62.5533 48.3316 72.4782 51.2522 75.1049 48.6735C78.3706 45.4781 77.0029 37.3873 76.6131 34.2239C76.2233 31.0604 76.6131 28.8716 77.4886 27.9481C78.3642 27.0246 79.6296 25.6602 83.7388 27.3634C83.7388 27.3634 94.8173 32.1565 100.24 34.8406C101.514 35.1078 102.694 35.7113 103.656 36.5885C103.93 36.8115 104.148 37.0947 104.295 37.4161C104.364 37.5761 104.39 37.7517 104.368 37.9247C104.347 38.0978 104.28 38.2619 104.173 38.4003C104.005 38.5757 103.777 38.6808 103.534 38.6942L96.6898 63.9795C96.4674 64.7975 96.0761 65.5599 95.5412 66.2176C95.0062 66.8752 94.3395 67.4136 93.5839 67.798L81.6043 73.8405C81.033 74.1287 80.401 74.2759 79.7611 74.2698C79.1212 74.2637 78.4921 74.1044 77.9264 73.8053L60.863 64.74C59.1598 63.7686 59 61.1611 59.9587 59.7072Z" fill="#37474F"/>
<path d="M59.9587 59.7072C60.1884 60.0599 60.4983 60.3534 60.863 60.5636L77.9264 69.6257C78.4916 69.9261 79.1207 70.0864 79.7607 70.093C80.4007 70.0997 81.033 69.9526 81.6043 69.6641L93.5583 63.6088C94.3139 63.2244 94.9807 62.6861 95.5156 62.0284C96.0505 61.3708 96.4418 60.6083 96.6642 59.7903L102.416 38.4833L102.707 38.5728C102.95 38.6512 103.205 38.689 103.461 38.6847H103.493L96.6483 63.9699C96.4258 64.7879 96.0346 65.5503 95.4996 66.208C94.9647 66.8657 94.2979 67.404 93.5423 67.7884L81.6043 73.8405C81.033 74.1287 80.401 74.2759 79.7611 74.2698C79.1212 74.2637 78.4921 74.1044 77.9264 73.8053L60.863 64.74C59.1598 63.7686 59 61.1611 59.9587 59.7072Z" fill="#37474F"/>
<path d="M60.7544 58.9371L73.1174 52.5942L89.4139 60.9726C88.8835 61.1004 88.3467 61.2058 87.8162 61.3145C86.4166 61.5957 84.9883 61.9056 83.7708 62.6533C82.5534 63.4011 81.5724 64.6824 81.5628 66.1108L81.9974 69.4691L81.6203 69.6641C81.049 69.9526 80.4167 70.0997 79.7767 70.093C79.1367 70.0863 78.5076 69.9261 77.9424 69.6257L60.863 60.554C60.4983 60.3437 60.1885 60.0503 59.9587 59.6976C60.159 59.3839 60.4319 59.123 60.7544 58.9371Z" fill="#455A64"/>
<path opacity="0.1" d="M60.7544 58.9371L73.1174 52.5942L89.4139 60.9726C88.8835 61.1004 88.3467 61.2058 87.8162 61.3145C86.4166 61.5957 84.9883 61.9056 83.7708 62.6533C82.5534 63.4011 81.5724 64.6824 81.5628 66.1108L81.9974 69.4691L81.6203 69.6641C81.049 69.9526 80.4167 70.0997 79.7767 70.093C79.1367 70.0863 78.5076 69.9261 77.9424 69.6257L60.863 60.554C60.4983 60.3437 60.1885 60.0503 59.9587 59.6976C60.159 59.3839 60.4319 59.123 60.7544 58.9371Z" fill="black"/>
<path d="M62.5534 48.3316C62.5534 48.3316 72.4783 51.2522 75.1049 48.6735C78.3706 45.4781 77.003 37.3873 76.6131 34.2239C76.2233 31.0604 76.6131 28.8716 77.4887 27.9481C78.3642 27.0246 79.6296 25.6602 83.7389 27.3634C79.5848 29.5043 79.0448 39.6784 80.3581 43.7622C77.0988 47.1173 77.3225 52.313 77.2586 54.7256C77.2586 54.7256 68.7812 56.7962 64.3524 59.2311L62.5534 48.3316Z" fill="#455A64"/>
<path opacity="0.1" d="M62.5534 48.3316C62.5534 48.3316 72.4783 51.2522 75.1049 48.6735C78.3706 45.4781 77.003 37.3873 76.6131 34.2239C76.2233 31.0604 76.6131 28.8716 77.4887 27.9481C78.3642 27.0246 79.6296 25.6602 83.7389 27.3634C79.5848 29.5043 79.0448 39.6784 80.3581 43.7622C77.0988 47.1173 77.3225 52.313 77.2586 54.7256C77.2586 54.7256 68.7812 56.7962 64.3524 59.2311L62.5534 48.3316Z" fill="white"/>
<path d="M64.3524 59.2311L62.3201 58.1351C62.3201 52.5527 61.4957 53.0991 59.9587 50.9103C58.4217 48.7214 60.7767 47.3602 62.5534 48.3316C64.33 49.303 65.0458 52.2459 64.3524 59.2311Z" fill="#455A64"/>
<path opacity="0.2" d="M64.3524 59.2311L62.3201 58.1351C62.3201 52.5527 61.4957 53.0991 59.9587 50.9103C58.4217 48.7214 60.7767 47.3602 62.5534 48.3316C64.33 49.303 65.0458 52.2459 64.3524 59.2311Z" fill="white"/>
<path d="M83.7389 27.3634C83.7389 27.3634 94.8589 32.1788 100.269 34.8566L99.8757 36.8313L82.1444 28.7789C82.5612 28.1918 83.1066 27.7077 83.7389 27.3634Z" fill="#455A64"/>
<path opacity="0.1" d="M83.7389 27.3634C83.7389 27.3634 94.8589 32.1788 100.269 34.8566L99.8757 36.8313L82.1444 28.7789C82.5612 28.1918 83.1066 27.7077 83.7389 27.3634Z" fill="white"/>
<path d="M80.3581 43.7621C79.2365 40.276 79.4666 32.3546 82.1443 28.7789L99.8756 36.8313L95.8239 57.1445L89.4011 60.979L77.2586 54.732C77.3225 52.313 77.0988 47.1333 80.3581 43.7621Z" fill="#455A64"/>
<path d="M91.3343 47.8363C91.034 47.6605 90.7879 47.8011 90.7879 48.1558C90.7974 48.3443 90.8516 48.5278 90.9461 48.6912C91.0405 48.8545 91.1725 48.993 91.3312 49.0953C91.6315 49.271 91.8744 49.1304 91.8776 48.7757C91.8673 48.5875 91.8128 48.4042 91.7184 48.241C91.624 48.0778 91.4924 47.9391 91.3343 47.8363Z" fill="#455A64"/>
<path d="M88.6023 46.2226C88.3019 46.0501 88.0559 46.1875 88.0559 46.5421C88.0661 46.7309 88.1206 46.9145 88.215 47.0783C88.3094 47.242 88.441 47.3813 88.5991 47.4848C88.8995 47.6573 89.1455 47.5167 89.1455 47.1653C89.1358 46.9764 89.0815 46.7926 88.9871 46.6287C88.8926 46.4649 88.7608 46.3257 88.6023 46.2226Z" fill="#455A64"/>
<path d="M85.8446 44.6089C85.5443 44.4364 85.3014 44.577 85.2982 44.9285C85.3085 45.1168 85.363 45.3 85.4574 45.4632C85.5518 45.6264 85.6834 45.7651 85.8414 45.8679C86.1418 46.0405 86.3879 45.9031 86.3879 45.5484C86.3779 45.36 86.3234 45.1767 86.229 45.0134C86.1346 44.8502 86.0029 44.7115 85.8446 44.6089Z" fill="#455A64"/>
<path d="M83.103 42.9984C82.7835 42.8227 82.5566 42.9633 82.5534 43.318C82.5636 43.5063 82.6182 43.6895 82.7126 43.8527C82.8069 44.016 82.9385 44.1546 83.0966 44.2574C83.4161 44.4332 83.643 44.2926 83.643 43.9379C83.6342 43.7496 83.5805 43.5662 83.4866 43.4029C83.3927 43.2395 83.2612 43.1008 83.103 42.9984Z" fill="#455A64"/>
<g opacity="0.2">
<path opacity="0.2" d="M91.3344 47.8363C91.0341 47.6605 90.788 47.8011 90.788 48.1558C90.7975 48.3443 90.8517 48.5278 90.9462 48.6912C91.0406 48.8545 91.1726 48.993 91.3313 49.0953C91.6316 49.271 91.8745 49.1304 91.8777 48.7757C91.8674 48.5874 91.8129 48.4042 91.7185 48.241C91.6241 48.0777 91.4925 47.9391 91.3344 47.8363Z" fill="white"/>
<path opacity="0.2" d="M88.6024 46.2226C88.302 46.0501 88.056 46.1875 88.056 46.5421C88.0662 46.7309 88.1207 46.9145 88.2151 47.0783C88.3095 47.242 88.441 47.3813 88.5992 47.4848C88.8995 47.6573 89.1456 47.5167 89.1456 47.1653C89.1359 46.9764 89.0816 46.7926 88.9871 46.6287C88.8927 46.4649 88.7609 46.3257 88.6024 46.2226Z" fill="white"/>
<path opacity="0.2" d="M85.8447 44.6089C85.5443 44.4364 85.3015 44.577 85.2983 44.9285C85.3085 45.1168 85.3631 45.3 85.4575 45.4632C85.5519 45.6264 85.6834 45.7651 85.8415 45.8679C86.1419 46.0405 86.3879 45.9031 86.3879 45.5484C86.378 45.36 86.3235 45.1767 86.2291 45.0134C86.1347 44.8502 86.003 44.7115 85.8447 44.6089Z" fill="white"/>
<path opacity="0.2" d="M83.103 42.9984C82.7835 42.8227 82.5566 42.9633 82.5534 43.318C82.5636 43.5063 82.6182 43.6895 82.7126 43.8527C82.8069 44.016 82.9385 44.1546 83.0966 44.2574C83.4161 44.4332 83.643 44.2926 83.643 43.9379C83.6342 43.7496 83.5805 43.5662 83.4866 43.4029C83.3927 43.2395 83.2612 43.1008 83.103 42.9984Z" fill="white"/>
</g>
<path d="M83.7549 62.6534C84.9723 61.9057 86.4006 61.5957 87.8002 61.3145C88.3339 61.2059 88.8707 61.1004 89.3979 60.9726C90.26 60.7828 91.0929 60.4787 91.8744 60.0683C93.8363 58.9851 95.1529 56.9592 95.7855 54.8087C96.4182 52.6582 96.4246 50.3798 96.2968 48.1431C96.169 45.9063 95.8878 43.6695 95.9549 41.4327C95.9932 40.129 96.1914 38.7326 97.0733 37.774C97.9552 36.8154 99.4507 36.4766 100.78 36.6556C101.214 36.72 101.642 36.8216 102.058 36.9592L102.649 37.6462L102.422 38.4834L96.6707 59.7903C96.2677 61.2674 95.3215 62.5377 94.0217 63.3468C93.8715 63.4394 93.7213 63.5289 93.5647 63.6088L81.9814 69.4692L81.5468 66.1108C81.5724 64.6825 82.531 63.4011 83.7549 62.6534Z" fill="#37474F"/>
<path d="M83.7389 60.3623C87.9728 59.1576 92.1332 59.001 93.6638 55.959C95.1944 52.917 95.3126 48.731 94.5426 41.4231C94.4427 40.4826 94.4652 39.5331 94.6097 38.5984C95.0602 35.8695 96.7026 34.7032 98.5911 34.6744C100.462 34.6455 102.273 35.3312 103.656 36.5917C103.93 36.8147 104.148 37.0979 104.295 37.4193C104.364 37.5793 104.39 37.7549 104.368 37.9279C104.347 38.1009 104.28 38.2651 104.173 38.4035C104.005 38.5789 103.777 38.684 103.534 38.6974H103.502C103.247 38.7018 102.992 38.664 102.748 38.5856L102.458 38.4961C101.94 38.3332 101.432 38.1382 100.905 38.0072C100.279 37.8231 99.6132 37.8231 98.9874 38.0072C98.6905 38.1225 98.4249 38.3061 98.2123 38.5431C97.9997 38.7802 97.8459 39.0641 97.7635 39.3717C95.9805 45.2033 98.2428 51.4695 96.2361 56.2849C94.5937 60.6626 88.9186 62.4808 84.9148 63.7781C85.3039 63.626 85.6473 63.3762 85.9118 63.0528C86.1116 62.7443 86.2047 62.3789 86.177 62.0124C86.1493 61.6459 86.0023 61.2986 85.7584 61.0237C85.503 60.7546 85.1847 60.5533 84.8322 60.4378C84.4797 60.3224 84.104 60.2964 83.7389 60.3623Z" fill="#455A64"/>
<path opacity="0.1" d="M83.7389 60.3623C87.9728 59.1576 92.1332 59.001 93.6638 55.959C95.1944 52.917 95.3126 48.731 94.5426 41.4231C94.4427 40.4826 94.4652 39.5331 94.6097 38.5984C95.0602 35.8695 96.7026 34.7032 98.5911 34.6744C100.462 34.6455 102.273 35.3312 103.656 36.5917C103.93 36.8147 104.148 37.0979 104.295 37.4193C104.364 37.5793 104.39 37.7549 104.368 37.9279C104.347 38.1009 104.28 38.2651 104.173 38.4035C104.005 38.5789 103.777 38.684 103.534 38.6974H103.502C103.247 38.7018 102.992 38.664 102.748 38.5856L102.458 38.4961C101.94 38.3332 101.432 38.1382 100.905 38.0072C100.279 37.8231 99.6132 37.8231 98.9874 38.0072C98.6905 38.1225 98.4249 38.3061 98.2123 38.5431C97.9997 38.7802 97.8459 39.0641 97.7635 39.3717C95.9805 45.2033 98.2428 51.4695 96.2361 56.2849C94.5937 60.6626 88.9186 62.4808 84.9148 63.7781C85.3039 63.626 85.6473 63.3762 85.9118 63.0528C86.1116 62.7443 86.2047 62.3789 86.177 62.0124C86.1493 61.6459 86.0023 61.2986 85.7584 61.0237C85.503 60.7546 85.1847 60.5533 84.8322 60.4378C84.4797 60.3224 84.104 60.2964 83.7389 60.3623Z" fill="white"/>
<path d="M80.8023 63.3596C81.0505 62.6688 81.417 62.0265 81.8855 61.4615C82.3606 60.8954 83.0142 60.5077 83.7389 60.3623C84.0996 60.2964 84.471 60.3202 84.8204 60.4317C85.1698 60.5431 85.4864 60.7388 85.7424 61.0014C85.9863 61.2763 86.1333 61.6236 86.161 61.9901C86.1887 62.3565 86.0955 62.722 85.8957 63.0304C85.6313 63.3539 85.2879 63.6037 84.8988 63.7558C84.5795 63.8918 84.268 64.0454 83.9657 64.2159C83.1767 64.7502 82.6089 65.5531 82.368 66.4751C82.1325 67.3899 82.0081 68.3297 81.9974 69.2743L81.9814 69.4564L80.0002 68.3572C79.9135 66.6535 80.1868 64.9506 80.8023 63.3596Z" fill="#455A64"/>
<path opacity="0.2" d="M80.8023 63.3596C81.0505 62.6688 81.417 62.0265 81.8855 61.4615C82.3606 60.8954 83.0142 60.5077 83.7389 60.3623C84.0996 60.2964 84.471 60.3202 84.8204 60.4317C85.1698 60.5431 85.4864 60.7388 85.7424 61.0014C85.9863 61.2763 86.1333 61.6236 86.161 61.9901C86.1887 62.3565 86.0955 62.722 85.8957 63.0304C85.6313 63.3539 85.2879 63.6037 84.8988 63.7558C84.5795 63.8918 84.268 64.0454 83.9657 64.2159C83.1767 64.7502 82.6089 65.5531 82.368 66.4751C82.1325 67.3899 82.0081 68.3297 81.9974 69.2743L81.9814 69.4564L80.0002 68.3572C79.9135 66.6535 80.1868 64.9506 80.8023 63.3596Z" fill="white"/>
<path d="M93.8555 21.8896V22.7236C95.1496 22.9793 96.4118 23.2573 97.7443 22.599L97.6708 21.1547V19.3333L96.3128 19.1895L93.8555 21.8896Z" fill="#FFA8A7"/>
<path opacity="0.2" d="M93.8555 21.8896C95.3318 22.5 96.3767 21.1259 96.3767 21.1259C96.5326 21.2626 96.7352 21.334 96.9423 21.325C97.1494 21.3161 97.3452 21.2276 97.4887 21.078L97.7443 22.599V18.8284L96.0028 18.9051L93.6574 21.2218L93.8555 21.8896Z" fill="black"/>
<path d="M96.5301 17.7835L98.9011 17.9018C99.0502 17.912 99.1923 17.9691 99.3071 18.065C99.4219 18.1608 99.5034 18.2904 99.5401 18.4354C99.7516 19.2624 99.859 20.1125 99.8597 20.9661V22.2251C99.8598 22.3372 99.8379 22.4483 99.7951 22.5519C99.7524 22.6555 99.6896 22.7497 99.6104 22.8291C99.5209 22.9188 99.4125 22.9874 99.2931 23.03C99.1737 23.0725 99.0463 23.0879 98.9202 23.0751L98.1661 22.9984C98.052 22.9878 97.9456 22.9364 97.8664 22.8536C97.7871 22.7709 97.7404 22.6623 97.7347 22.5479L97.6644 21.1419V18.6942C97.6621 18.5543 97.6175 18.4185 97.5365 18.3044C97.4555 18.1904 97.3419 18.1035 97.2107 18.0551L96.5301 17.7835Z" fill="#FFA8A7"/>
<path d="M93.2037 19.6912L95.2519 17.889C95.3908 17.7671 95.5598 17.6847 95.7413 17.6504C95.9229 17.6161 96.1103 17.6312 96.2841 17.6941L97.2171 18.0328C97.3484 18.0811 97.462 18.168 97.5429 18.2821C97.6239 18.3961 97.6685 18.532 97.6709 18.6718V20.407C97.6716 20.498 97.6528 20.5882 97.6158 20.6715C97.5788 20.7547 97.5245 20.8291 97.4564 20.8896C97.3883 20.9501 97.3081 20.9954 97.221 21.0224C97.134 21.0494 97.0423 21.0574 96.9519 21.046C96.7952 21.0327 96.649 20.9621 96.5411 20.8478C96.4332 20.7334 96.3713 20.5833 96.3671 20.4261L96.3128 19.148C96.3439 19.4896 96.3034 19.8339 96.1941 20.159C96.0848 20.4841 95.9089 20.7829 95.6778 21.0363C95.4466 21.2897 95.1652 21.4922 94.8514 21.6309C94.5377 21.7695 94.1986 21.8413 93.8555 21.8417L93.2037 19.6912Z" fill="#FFA8A7"/>
<path opacity="0.2" d="M97.9137 22.4424L97.9808 18.6463C97.9843 18.5071 97.9403 18.3708 97.8561 18.2599C97.7719 18.149 97.6525 18.07 97.5174 18.036L96.5301 17.7835L97.2171 18.0328C97.3483 18.0811 97.4619 18.168 97.5429 18.282C97.6239 18.3961 97.6685 18.532 97.6708 18.6718V21.1291L97.7411 22.5351C97.7468 22.6495 97.7935 22.7581 97.8727 22.8408C97.952 22.9236 98.0584 22.975 98.1725 22.9856L98.361 23.0048L98.2013 22.9185C98.1142 22.8733 98.0413 22.8049 97.9905 22.7209C97.9398 22.6369 97.9132 22.5405 97.9137 22.4424Z" fill="black"/>
<path d="M93.2036 19.6912C92.5194 20.026 91.9345 20.5338 91.5069 21.1643L83.9242 32.3482L75.8973 36.2178L80.2719 41.8353L87.1995 36.4607C88.1509 35.72 88.9113 34.7624 89.4171 33.6679L94.4275 22.8035L93.2036 19.6912Z" fill="#FFA8A7"/>
<path d="M94.175 23.8867C94.1156 23.1356 93.7703 22.4359 93.2103 21.9318C92.6502 21.4276 91.9182 21.1575 91.165 21.177L83.6941 32.1852L75.8973 36.2306L80.2719 41.8481L88.0271 36.3168C88.9187 35.6799 89.6148 34.8068 90.037 33.7957L94.175 23.8867Z" fill="#3E63F6"/>
<path opacity="0.3" d="M94.175 23.8867C94.1156 23.1356 93.7703 22.4359 93.2103 21.9318C92.6502 21.4276 91.9182 21.1575 91.165 21.177L83.6941 32.1852L75.8973 36.2306L80.2719 41.8481L88.0271 36.3168C88.9187 35.6799 89.6148 34.8068 90.037 33.7957L94.175 23.8867Z" fill="white"/>
<path opacity="0.3" d="M93.21 21.9312C92.6476 21.4312 91.9173 21.1619 91.165 21.1771L89.9156 23.0144C90.3403 22.9743 90.7686 23.0235 91.1732 23.1586C91.5778 23.2938 91.9497 23.5121 92.265 23.7994C92.5803 24.0867 92.8321 24.4368 93.0042 24.8271C93.1763 25.2174 93.2649 25.6394 93.2643 26.066L94.175 23.8868C94.1109 23.1367 93.7663 22.4384 93.21 21.9312Z" fill="white"/>
<path d="M99.0608 18.3555C99.5698 18.6155 100.133 18.7511 100.705 18.7511C101.276 18.7511 101.84 18.6155 102.349 18.3555C102.538 18.2716 102.7 18.1382 102.819 17.9694C102.939 17.8007 103.01 17.6029 103.026 17.3969C103.007 17.1905 102.934 16.9929 102.813 16.8244C102.692 16.6559 102.529 16.5226 102.339 16.4383C101.83 16.1782 101.266 16.0427 100.694 16.0427C100.122 16.0427 99.5576 16.1782 99.048 16.4383C98.8449 16.5033 98.6677 16.6312 98.5419 16.8035C98.4162 16.9758 98.3484 17.1836 98.3484 17.3969C98.3484 17.6102 98.4162 17.818 98.5419 17.9903C98.6677 18.1626 98.8449 18.2905 99.048 18.3555H99.0608Z" fill="#E0E0E0"/>
<path d="M99.2845 19.2438C99.7245 19.4675 100.211 19.5841 100.705 19.5841C101.198 19.5841 101.685 19.4675 102.125 19.2438C102.287 19.1717 102.426 19.0573 102.528 18.9129C102.631 18.7684 102.692 18.5991 102.707 18.4226C102.69 18.2453 102.626 18.0756 102.522 17.9308C102.418 17.786 102.278 17.6712 102.116 17.5982C101.676 17.3745 101.189 17.2579 100.695 17.2579C100.202 17.2579 99.7149 17.3745 99.2749 17.5982C99.1031 17.6567 98.9539 17.7675 98.8482 17.915C98.7426 18.0626 98.6857 18.2395 98.6857 18.421C98.6857 18.6025 98.7426 18.7794 98.8482 18.927C98.9539 19.0746 99.1031 19.1854 99.2749 19.2438H99.2845Z" fill="#F28F8F"/>
<path opacity="0.3" d="M99.2845 19.2438C99.7245 19.4675 100.211 19.5841 100.705 19.5841C101.198 19.5841 101.685 19.4675 102.125 19.2438C102.287 19.1717 102.426 19.0573 102.528 18.9129C102.631 18.7684 102.692 18.5991 102.707 18.4226C102.69 18.2453 102.626 18.0756 102.522 17.9308C102.418 17.786 102.278 17.6712 102.116 17.5982C101.676 17.3745 101.189 17.2579 100.695 17.2579C100.202 17.2579 99.7149 17.3745 99.2749 17.5982C99.1031 17.6567 98.9539 17.7675 98.8482 17.915C98.7426 18.0626 98.6857 18.2395 98.6857 18.421C98.6857 18.6025 98.7426 18.7794 98.8482 18.927C98.9539 19.0746 99.1031 19.1854 99.2749 19.2438H99.2845Z" fill="black"/>
<path opacity="0.3" d="M99.2845 19.2438C99.7245 19.4675 100.211 19.5841 100.705 19.5841C101.198 19.5841 101.685 19.4675 102.125 19.2438C102.287 19.1717 102.426 19.0573 102.528 18.9129C102.631 18.7684 102.692 18.5991 102.707 18.4226C102.69 18.2453 102.626 18.0756 102.522 17.9308C102.418 17.786 102.278 17.6712 102.116 17.5982C101.676 17.3745 101.189 17.2579 100.695 17.2579C100.202 17.2579 99.7149 17.3745 99.2749 17.5982C99.1031 17.6567 98.9539 17.7675 98.8482 17.915C98.7426 18.0626 98.6857 18.2395 98.6857 18.421C98.6857 18.6025 98.7426 18.7794 98.8482 18.927C98.9539 19.0746 99.1031 19.1854 99.2749 19.2438H99.2845Z" fill="white"/>
<path d="M103.026 17.4161C103.01 17.6221 102.939 17.8199 102.819 17.9886C102.7 18.1573 102.538 18.2907 102.349 18.3747C101.84 18.6347 101.276 18.7703 100.705 18.7703C100.133 18.7703 99.5698 18.6347 99.0608 18.3747C98.871 18.2909 98.7072 18.1578 98.5864 17.9892C98.4655 17.8206 98.3921 17.6227 98.3738 17.4161V23.139C98.3928 23.3455 98.4664 23.5431 98.5872 23.7116C98.708 23.8801 98.8714 24.0133 99.0608 24.0977C99.5704 24.3559 100.134 24.4905 100.705 24.4905C101.276 24.4905 101.839 24.3559 102.349 24.0977C102.537 24.0131 102.699 23.8796 102.819 23.7109C102.938 23.5423 103.01 23.3448 103.026 23.139V17.4161Z" fill="#F5F5F5"/>
<path opacity="0.2" d="M78.3035 34.9908C82.6876 35.7161 83.9082 37.4864 84.3748 38.9243L80.2655 41.8577L75.891 36.2402L78.3035 34.9908Z" fill="black"/>
<path d="M45.9117 20.8192L51.2832 36.3808L62.384 30.2201L57.0733 14.8278L45.9117 20.8192Z" fill="#3E63F6"/>
<path opacity="0.3" d="M45.9117 20.8192L51.2832 36.3808L62.384 30.2201L57.0733 14.8278L45.9117 20.8192Z" fill="black"/>
<path opacity="0.2" d="M45.9117 20.8192L51.2832 36.3808L62.384 30.2201L57.0733 14.8278L45.9117 20.8192Z" fill="white"/>
<path d="M60.7351 29.5873L56.3127 16.7738L47.5669 21.4646L52.0341 34.4156L60.7351 29.5873Z" fill="white"/>
<path d="M54.7725 17.7228L49.9091 20.2728L49.6982 19.6241L50.6441 18.7933L53.3058 17.4576L54.5169 17.2307L54.7725 17.7228Z" fill="#455A64"/>
<path d="M53.3059 17.4576L53.095 16.9623L50.4971 18.3587L50.6441 18.7933L53.3059 17.4576Z" fill="#37474F"/>
<path d="M54.6064 16.1539L48.7269 19.3077L48.4744 18.6942L54.4051 15.5819L54.6064 16.1539Z" fill="#455A64"/>
<path d="M53.0151 16.3105C52.5038 14.6936 49.4298 16.2178 50.0306 17.8794L53.0151 16.3105Z" fill="#37474F"/>
<path d="M63.6526 34.4156L59.0832 38.7038L51.9606 31.6963C51.5621 31.3049 51.3076 30.7903 51.2385 30.236C50.8998 27.5774 50.1616 25.6794 49.2158 26.0149C48.6214 26.2226 49.3819 28.8109 49.3819 28.8109L48.4936 28.306L47.4583 25.3023H46.9918C46.7459 25.3026 46.5061 25.3793 46.3057 25.5218C46.1053 25.6644 45.9543 25.8657 45.8734 26.098L45.4292 27.3761C45.165 28.1343 45.1499 28.9571 45.3861 29.7245C45.6224 30.4919 46.0976 31.1637 46.7425 31.642L48.3051 32.7987C48.5418 32.9733 48.7444 33.1899 48.9026 33.4378C51.9766 38.0967 55.2615 42.0654 57.2554 44.1136C57.6028 44.4657 58.0619 44.686 58.554 44.7367C59.046 44.7875 59.5404 44.6655 59.9523 44.3916C64.3109 41.5158 67.9153 36.6396 67.9153 36.6396L63.6526 34.4156Z" fill="#FFA8A7"/>
<path d="M48.5863 33.441C48.6895 33.0778 48.865 32.7392 49.1022 32.4455C49.3394 32.1517 49.6334 31.9089 49.9667 31.7315C50.6807 31.3224 51.5217 31.1948 52.3249 31.3736L59.0991 38.0296L63.6526 34.4156L67.9185 36.6332C64.9819 40.7521 62.2179 43.2669 60.47 44.6217C59.9647 45.0148 59.3343 45.2116 58.6952 45.1757C58.056 45.1399 57.4515 44.8738 56.9934 44.4268C50.9988 38.5441 48.5863 33.441 48.5863 33.441Z" fill="#3E63F6"/>
<path opacity="0.3" d="M48.5863 33.441C48.6895 33.0778 48.865 32.7392 49.1022 32.4455C49.3394 32.1517 49.6334 31.9089 49.9667 31.7315C50.6807 31.3224 51.5217 31.1948 52.3249 31.3736L59.0991 38.0296L63.6526 34.4156L67.9185 36.6332C64.9819 40.7521 62.2179 43.2669 60.47 44.6217C59.9647 45.0148 59.3343 45.2116 58.6952 45.1757C58.056 45.1399 57.4515 44.8738 56.9934 44.4268C50.9988 38.5441 48.5863 33.441 48.5863 33.441Z" fill="white"/>
<path opacity="0.3" d="M51.2321 33.6008C52.1011 33.0982 53.1233 32.929 54.1079 33.1247L52.3281 31.3736C51.5249 31.1948 50.6839 31.3224 49.9699 31.7315C49.6366 31.9089 49.3426 32.1517 49.1054 32.4455C48.8682 32.7392 48.6927 33.0778 48.5895 33.441C48.5895 33.441 48.909 34.1408 49.644 35.3199C49.9964 34.6057 50.548 34.0086 51.2321 33.6008Z" fill="white"/>
<path opacity="0.2" d="M59.0991 38.0296C58.2471 38.6109 57.5031 39.3365 56.9007 40.1737C56.955 38.3843 57.4886 37.6462 58.4089 37.3522L59.0991 38.0296Z" fill="black"/>
<path d="M81.0739 36.7227L90.887 47.4209L99.3069 41.5094C99.6612 41.2595 100.062 41.0837 100.486 40.9926C100.91 40.9014 101.348 40.8968 101.774 40.979L105.046 41.5989C105.239 41.6369 105.414 41.7366 105.546 41.883C105.677 42.0294 105.757 42.2145 105.774 42.4105L105.88 43.612C105.89 43.7275 105.865 43.8435 105.808 43.9445C105.751 44.0455 105.665 44.1268 105.56 44.1775L104.531 44.692L105.298 45.6506C105.354 45.7204 105.396 45.8006 105.421 45.8866C105.447 45.9727 105.454 46.0628 105.445 46.1518C105.435 46.2409 105.408 46.3272 105.364 46.4057C105.321 46.4841 105.263 46.5533 105.193 46.6093C105.061 46.7162 104.894 46.7699 104.725 46.7598C104.556 46.7498 104.397 46.6767 104.279 46.5549L102.617 44.8518L102.096 45.2161C101.845 45.3946 101.536 45.4717 101.23 45.432C100.924 45.3923 100.645 45.2387 100.448 45.002L99.9715 44.43L93.1238 51.5589C92.6019 52.101 91.8969 52.4294 91.1461 52.4802C90.3954 52.531 89.6526 52.3005 89.0624 51.8337L79.8884 44.577L81.0739 36.7227Z" fill="#FFA8A7"/>
<path opacity="0.2" d="M102.621 44.8486L101.109 43.6184C101.207 43.9218 101.386 44.193 101.627 44.4029C101.867 44.6128 102.16 44.7535 102.474 44.8102L102.621 44.8486Z" fill="black"/>
<path opacity="0.2" d="M104.535 44.692L103.611 43.6311L105.563 44.1775L104.535 44.692Z" fill="black"/>
<path d="M98.7062 41.9312C97.5335 42.7524 98.7317 45.1458 99.3932 45.3662L93.4465 52.0478C92.8728 52.6915 92.0756 53.0927 91.2168 53.1699C90.358 53.247 89.502 52.9944 88.8228 52.4632L79.5306 45.1809L79.8884 44.5834L81.0739 36.7227L90.8742 46.8361C90.8742 46.8361 97.2299 42.174 98.7062 41.9312Z" fill="#3E63F6"/>
<path opacity="0.3" d="M98.7062 41.9312C97.5335 42.7524 98.7317 45.1458 99.3932 45.3662L93.4465 52.0478C92.8728 52.6915 92.0756 53.0927 91.2168 53.1699C90.358 53.247 89.502 52.9944 88.8228 52.4632L79.5306 45.1809L79.8884 44.5834L81.0739 36.7227L90.8742 46.8361C90.8742 46.8361 97.2299 42.174 98.7062 41.9312Z" fill="white"/>
<path opacity="0.6" d="M98.7061 41.9312C98.2556 42.0047 97.3417 42.4968 96.2936 43.1422C96.1035 43.4621 95.984 43.8189 95.9433 44.1887C95.9025 44.5585 95.9413 44.9328 96.0571 45.2864C96.2151 45.7026 96.4752 46.0724 96.8136 46.3617C97.152 46.6509 97.5578 46.8504 97.9936 46.9416L99.3931 45.3662C98.7317 45.1458 97.5494 42.7524 98.7061 41.9312Z" fill="white"/>
<path opacity="0.2" d="M81.0739 36.7259L82.6972 38.4003L85.7712 50.0731L79.5306 45.1809L79.8884 44.5802L81.0739 36.7259Z" fill="black"/>
<path opacity="0.2" d="M90.8742 46.8361L88.957 48.1399L90.1393 46.0756L90.8742 46.8361Z" fill="black"/>
<path d="M99.5976 61.0365L102.962 47.2963C103.015 47.0833 103.109 46.8832 103.241 46.7079C103.373 46.5327 103.539 46.3861 103.729 46.2769L112.13 41.4391C112.178 41.4101 112.234 41.3957 112.29 41.3976C112.457 41.3946 112.62 41.4447 112.757 41.5406C112.893 41.6365 112.996 41.7732 113.05 41.9312C113.082 41.9978 113.09 42.0735 113.073 42.1453L109.692 55.8855C109.639 56.0982 109.544 56.2982 109.412 56.4733C109.281 56.6485 109.115 56.7952 108.925 56.9048L100.524 61.7427C100.457 61.7805 100.379 61.793 100.304 61.7778C100.153 61.7515 100.011 61.6897 99.8896 61.5974C99.7679 61.5052 99.67 61.3852 99.604 61.2474V61.2218C99.5836 61.162 99.5814 61.0975 99.5976 61.0365Z" fill="#3E63F6"/>
<path opacity="0.3" d="M100.058 61.3816L103.426 47.6414C103.478 47.4284 103.573 47.2283 103.705 47.0531C103.836 46.8778 104.002 46.7312 104.193 46.622L112.593 41.7842C112.648 41.7491 112.712 41.7316 112.777 41.7339C112.842 41.7363 112.905 41.7583 112.957 41.7972C113.009 41.8361 113.048 41.89 113.069 41.9516C113.089 42.0132 113.091 42.0797 113.073 42.1421L109.692 55.8855C109.639 56.0983 109.544 56.2982 109.412 56.4733C109.281 56.6485 109.115 56.7952 108.925 56.9048L100.524 61.7427C100.469 61.7782 100.405 61.796 100.339 61.7937C100.274 61.7914 100.211 61.769 100.158 61.7296C100.106 61.6902 100.067 61.6357 100.047 61.5735C100.027 61.5112 100.026 61.4442 100.045 61.3816H100.058Z" fill="black"/>
<path d="M105.404 55.1218C104.509 54.7288 102.39 57.1701 100.643 56.8154L101.08 55.0515C98.3387 55.3711 97.5654 56.3616 96.6068 56.4927C96.0072 56.5278 95.4056 56.5032 94.811 56.4192C95.1751 57.7986 95.1817 59.248 94.8301 60.6307C95.7888 60.6307 96.4822 60.6595 96.725 60.6595C97.9648 60.6595 99.4155 61.1867 100.761 60.9183C103.317 60.3144 104.314 59.3845 104.324 58.2789C104.324 58.2789 105.372 57.5663 105.046 56.4255C105.036 56.4192 106.298 55.5117 105.404 55.1218Z" fill="#FFA8A7"/>
<path d="M93.0471 55.8759C90.6442 55.4509 89.5897 55.0387 86.6563 54.8885L84.6272 49.1975C83.7069 46.3408 81.5245 40.0267 79.636 38.1095C74.2038 39.2694 73.798 41.7522 78.6774 53.4474C79.0353 54.3134 80.4029 57.0614 81.3615 58.9659C81.6538 59.546 82.1012 60.0338 82.654 60.3751C83.2068 60.7163 83.8434 60.8977 84.493 60.8991H92.8298C93.3081 59.267 93.3827 57.5432 93.0471 55.8759Z" fill="#3E63F6"/>
<path d="M95.8846 56.2753C94.7279 56.1475 93.8204 56.0101 93.0471 55.8759C93.3837 57.5383 93.3124 59.2575 92.8394 60.8863H95.5779C95.5779 60.8863 96.9103 58.2916 95.8846 56.2753Z" fill="#3E63F6"/>
<path opacity="0.3" d="M93.0471 55.8759C90.6442 55.4509 89.5897 55.0387 86.6563 54.8885L84.6272 49.1975C83.7069 46.3408 81.5245 40.0267 79.636 38.1095C74.2038 39.2694 73.798 41.7522 78.6774 53.4474C79.0353 54.3134 80.4029 57.0614 81.3615 58.9659C81.6538 59.546 82.1012 60.0338 82.654 60.3751C83.2068 60.7163 83.8434 60.8977 84.493 60.8991H92.8298C93.3081 59.267 93.3827 57.5432 93.0471 55.8759Z" fill="white"/>
<path opacity="0.6" d="M95.8846 56.2753C94.7279 56.1475 93.8204 56.0101 93.0471 55.8759C93.3837 57.5383 93.3124 59.2575 92.8394 60.8863H95.5779C95.5779 60.8863 96.9103 58.2916 95.8846 56.2753Z" fill="white"/>
<path opacity="0.2" d="M86.6626 54.8885C85.4861 54.8845 84.3134 55.0229 83.1701 55.3007C83.9602 54.3891 84.9497 53.6718 86.0619 53.2045L86.6626 54.8885Z" fill="black"/>
<path d="M73.5615 71.4503C75.5171 70.6067 78.1789 69.1976 79.1854 67.3187C80.192 65.4398 80.0929 62.0047 79.7095 59.9085L63.9753 55.5468C63.5024 60.1098 59.31 63.0975 59.31 63.0975L73.5615 71.4503Z" fill="#263238"/>
<path d="M51.5931 42.6278L50.1041 41.5254C49.642 41.1824 49.2909 40.7113 49.0943 40.1705L48.7428 39.2119C48.497 38.5491 48.0641 37.9719 47.4966 37.5503C46.6464 36.9191 45.8798 36.1825 45.2151 35.3582C45.0012 35.5917 44.8745 35.892 44.8564 36.2081C44.8384 36.5243 44.9301 36.837 45.116 37.0933C45.3939 37.4622 45.6983 37.8104 46.0267 38.135L45.2055 38.1926C44.6149 38.2342 44.0261 38.0901 43.5215 37.7804L41.4413 36.5022C41.3828 36.4657 41.3158 36.4453 41.2469 36.4429C41.178 36.4405 41.1097 36.4563 41.0488 36.4887C40.9879 36.5211 40.9367 36.5689 40.9001 36.6273C40.8636 36.6858 40.843 36.7528 40.8406 36.8217C40.8665 37.8521 41.0697 38.8704 41.4413 39.8318C41.608 40.2895 41.8716 40.7058 42.2141 41.0521C42.5566 41.3985 42.9699 41.6667 43.4257 41.8385C44.5281 42.2603 45.6017 42.6278 46.2153 42.8323C46.5659 42.9492 46.8959 43.1206 47.1931 43.3404L49.3755 44.9668L51.5931 42.6278Z" fill="#FFA8A7"/>
<path d="M49.9762 41.1931L51.8551 42.4041C51.7956 43.1037 51.5363 43.7714 51.108 44.3278C50.6797 44.8841 50.1005 45.3056 49.4394 45.542L47.7171 43.9123C47.7171 43.9123 49.3755 43.6567 49.9762 41.1931Z" fill="#3E63F6"/>
<path opacity="0.6" d="M49.9762 41.1931L51.8551 42.4041C51.7956 43.1037 51.5363 43.7714 51.108 44.3278C50.6797 44.8841 50.1005 45.3056 49.4394 45.542L47.7171 43.9123C47.7171 43.9123 49.3755 43.6567 49.9762 41.1931Z" fill="white"/>
<path d="M51.1554 44.2574C51.5506 43.7136 51.7923 43.0734 51.8552 42.4041L57.7283 46.1906L61.1921 36.4958C61.4188 35.8608 61.8166 35.3009 62.3416 34.878C62.8666 34.455 63.4984 34.1855 64.167 34.0992L65.8606 33.882L64.2789 45.232L61.5788 50.6482C61.3373 51.1326 60.9897 51.5564 60.5619 51.8879C60.134 52.2195 59.637 52.4504 59.1076 52.5634C58.5783 52.6764 58.0303 52.6686 57.5044 52.5406C56.9784 52.4126 56.4881 52.1677 56.0699 51.8241L49.4362 45.5356C50.1215 45.286 50.719 44.8418 51.1554 44.2574Z" fill="#3E63F6"/>
<path opacity="0.4" d="M51.1554 44.2574C51.5506 43.7136 51.7923 43.0734 51.8552 42.4041L57.7283 46.1906L61.1921 36.4958C61.4188 35.8608 61.8166 35.3009 62.3416 34.878C62.8666 34.455 63.4984 34.1855 64.167 34.0992L65.8606 33.882L64.2789 45.232L61.5788 50.6482C61.3373 51.1326 60.9897 51.5564 60.5619 51.8879C60.134 52.2195 59.637 52.4504 59.1076 52.5634C58.5783 52.6764 58.0303 52.6686 57.5044 52.5406C56.9784 52.4126 56.4881 52.1677 56.0699 51.8241L49.4362 45.5356C50.1215 45.286 50.719 44.8418 51.1554 44.2574Z" fill="white"/>
<path opacity="0.2" d="M57.7251 46.1907L59.9491 47.8587L58.3418 44.462L57.7251 46.1907Z" fill="black"/>
<path d="M59.9204 5.77523L59.3803 7.06937C59.1948 7.51365 59.1149 7.99495 59.1471 8.47535L59.4666 13.2684L63.9977 28.6C64.2948 29.6096 64.7746 30.5562 65.4132 31.3928L69.9923 37.3905L73.75 33.3196L69.3564 27.5487L62.5022 12.9425L63.8379 11.4023C64.153 11.0372 64.3492 10.5846 64.4003 10.105L64.5569 8.61275C64.5694 8.49411 64.537 8.37509 64.466 8.27923C64.395 8.18336 64.2906 8.11765 64.1734 8.0951C64.0522 8.0703 63.9261 8.08866 63.817 8.14702C63.7079 8.20537 63.6226 8.30004 63.5759 8.41464L63.0966 9.60333C63.0283 9.76743 62.9181 9.91069 62.777 10.0187C62.6704 10.1005 62.5484 10.1599 62.4182 10.1933C62.2881 10.2267 62.1526 10.2334 62.0198 10.2131C61.8869 10.1928 61.7596 10.1459 61.6454 10.0752C61.5312 10.0044 61.4324 9.91131 61.3551 9.80144L60.5882 8.70861L59.9204 5.77523Z" fill="#FFA8A7"/>
<path d="M62.9784 13.2812C62.3601 13.1252 61.7095 13.1551 61.1081 13.3671C60.5068 13.5791 59.9813 13.9638 59.5976 14.4731L63.4768 28.6351C63.7032 29.4598 64.0743 30.2378 64.5729 30.9326L69.5545 37.8411L69.9795 37.4001L73.7373 33.3292L69.3436 27.5583L62.9784 13.2812Z" fill="#3E63F6"/>
<path opacity="0.3" d="M62.9784 13.2812C62.3601 13.1252 61.7095 13.1551 61.1081 13.3671C60.5068 13.5791 59.9813 13.9638 59.5976 14.4731L63.4768 28.6351C63.7032 29.4598 64.0743 30.2378 64.5729 30.9326L69.5545 37.8411L69.9795 37.4001L73.7373 33.3292L69.3436 27.5583L62.9784 13.2812Z" fill="white"/>
<path opacity="0.3" d="M61.7992 15.3423C62.4942 15.1001 63.2548 15.1275 63.9306 15.419L62.9719 13.2812C62.3537 13.1252 61.7031 13.1551 61.1017 13.3671C60.5004 13.5791 59.9749 13.9638 59.5912 14.4731L60.2015 16.7099C60.5479 16.0732 61.1167 15.5863 61.7992 15.3423Z" fill="white"/>
<path d="M68.9825 33.5497L65.8574 33.8692C63.3011 36.1284 61.975 40.8639 62.5246 46.0948C62.8619 49.6834 62.991 53.2885 62.9113 56.8921C69.8485 61.96 78.6071 60.9982 79.7095 59.8958L79.195 50.7505C79.1382 50.0283 79.2589 49.3032 79.5465 48.6384C80.1856 47.1173 81.3711 44.1201 81.5277 41.8002C81.6188 39.7319 81.1788 37.6748 80.2495 35.8248L75.7057 33.8404L68.9825 33.5497Z" fill="#3E63F6"/>
<g opacity="0.5">
<path opacity="0.5" d="M68.9825 33.5497L65.8574 33.8692C63.3011 36.1284 61.975 40.8639 62.5246 46.0948C62.8619 49.6834 62.991 53.2885 62.9113 56.8921C69.8485 61.96 78.6071 60.9982 79.7095 59.8958L79.195 50.7505C79.1382 50.0283 79.2589 49.3032 79.5465 48.6384C80.1856 47.1173 81.3711 44.1201 81.5277 41.8002C81.6188 39.7319 81.1788 37.6748 80.2495 35.8248L75.7057 33.8404L68.9825 33.5497Z" fill="white"/>
</g>
<path d="M68.1133 38.1095C65.4995 44.1264 65.541 50.3223 65.541 50.3223L66.8192 53.0895L68.8387 50.4469C68.6821 46.3928 68.7632 42.333 69.0815 38.2884L68.1133 38.1095Z" fill="#3E63F6"/>
<path d="M68.0048 35.8376C67.9498 36.5965 67.9863 37.3593 68.1134 38.1095C68.4157 38.2576 68.7529 38.3195 69.088 38.2884C69.7021 37.7431 70.2281 37.1061 70.6474 36.4L69.088 35.8376H68.0048Z" fill="#3E63F6"/>
<path d="M69.0879 35.8376C70.4332 36.3328 71.6443 38.7134 71.6443 38.7134C75.1784 35.7097 75.728 33.8372 75.728 33.8372C75.2693 33.1372 74.6893 32.5247 74.0152 32.0286L69.0879 35.8376Z" fill="#3E63F6"/>
<path d="M69.088 35.8376C68.059 35.8631 67.1515 37.2979 67.1515 37.2979C66.9854 34.7895 69.088 32.8626 69.088 32.8626V35.8376Z" fill="#3E63F6"/>
<g opacity="0.35">
<path opacity="0.35" d="M69.0879 35.8375C70.4332 36.3328 71.6443 38.7134 71.6443 38.7134C75.1784 35.7097 75.728 33.8372 75.728 33.8372C75.2693 33.1372 74.6893 32.5247 74.0153 32.0286L69.0879 35.8375Z" fill="white"/>
<path opacity="0.35" d="M69.0879 35.8376C68.059 35.8631 67.1515 37.2979 67.1515 37.2979C66.9854 34.7895 69.0879 32.8626 69.0879 32.8626V35.8376Z" fill="white"/>
</g>
<path d="M75.7184 21.9408C75.2655 21.4087 74.629 21.0665 73.9354 20.9821L64.6368 21.8577C63.5631 24.1648 64.4195 25.6922 64.4195 25.6922C64.2757 29.2071 64.1543 31.4439 65.6785 32.1884C66.5093 32.5942 67.7747 32.7668 69.0784 32.6677C70.1631 32.6018 71.2232 32.3159 72.1939 31.8273L72.2418 31.8018C72.5796 31.6189 72.8738 31.3651 73.1043 31.0579C73.3349 30.7507 73.4963 30.3973 73.5775 30.0219C73.7335 29.337 73.8403 28.6419 73.8971 27.9417C73.9122 27.543 73.955 27.1458 74.0249 26.753C74.0976 26.3604 74.2792 25.9962 74.5489 25.7017C74.6831 25.5569 74.8512 25.4478 75.0381 25.3842C75.2249 25.3206 75.4247 25.3045 75.6194 25.3375C75.6861 25.3538 75.7505 25.3785 75.8111 25.411C76.0731 23.842 76.1402 22.4872 75.7184 21.9408Z" fill="#37474F"/>
<path d="M72.3057 22.2092C72.1457 22.8659 72.1892 23.5557 72.4303 24.1871C72.671 24.8119 72.8685 25.4525 73.0215 26.1044C73.1412 26.7617 73.0518 27.4401 72.7659 28.044C72.6213 28.3403 72.4137 28.6014 72.1576 28.8089C71.9015 29.0165 71.603 29.1655 71.2832 29.2454C70.283 29.4595 69.3052 28.8684 68.3051 28.6703C67.341 28.5002 66.3479 28.678 65.5027 29.1719C65.4312 29.2152 65.3497 29.2392 65.2661 29.2414C65.1825 29.2437 65.0998 29.2243 65.026 29.185C64.9523 29.1457 64.89 29.0879 64.8453 29.0173C64.8005 28.9466 64.7749 28.8656 64.771 28.7821C64.6527 26.7562 64.6527 23.58 64.9499 22.0909L72.3057 22.2092Z" fill="#FFA8A7"/>
<path d="M74.0696 28.9515C74.0696 28.9515 74.0696 29.7727 74.0312 30.7537C74.4473 30.3935 74.7484 29.919 74.8972 29.3892C74.5759 29.3532 74.2802 29.1968 74.0696 28.9515Z" fill="#37474F"/>
<path d="M65.1097 20.375L63.953 19.5602C63.833 19.9523 63.8108 20.3678 63.8882 20.7705C63.9656 21.1731 64.1404 21.5508 64.3971 21.8705C64.9223 22.4918 65.6397 22.9203 66.4358 23.0879C67.2239 23.2499 68.0325 23.2876 68.8323 23.1998C70.0043 23.1025 71.1636 22.8884 72.293 22.5607C72.8065 22.4535 73.2788 22.2018 73.6542 21.8353C73.89 21.5296 74.0237 21.1574 74.0363 20.7714C74.0489 20.3855 73.9399 20.0053 73.7245 19.6848C73.504 19.3711 73.2187 19.1084 72.8879 18.9144C72.5572 18.7203 72.1887 18.5995 71.8073 18.56C71.0343 18.4973 70.2563 18.5599 69.5034 18.7454C68.7515 18.9309 67.9735 18.9871 67.2027 18.9115C66.8154 18.8698 66.4441 18.7346 66.1206 18.5175C65.7972 18.3004 65.5314 18.008 65.3462 17.6653C64.7007 18.7326 65.1097 20.375 65.1097 20.375Z" fill="#37474F"/>
<path d="M68.0303 25.8008L66.3335 27.8842L67.8897 28.4434L68.0303 25.8008Z" fill="#F28F8F"/>
<path d="M69.3148 29.4787L68.0047 29.8877C68.0857 30.044 68.2161 30.1691 68.3756 30.2437C68.5351 30.3182 68.7148 30.338 68.8866 30.2999C69.0403 30.2315 69.1662 30.1131 69.244 29.964C69.3217 29.8149 69.3467 29.6438 69.3148 29.4787Z" fill="#F28F8F"/>
<path opacity="0.3" d="M69.3148 29.4787L68.0047 29.8877C68.0857 30.044 68.2161 30.1691 68.3756 30.2437C68.5351 30.3182 68.7148 30.338 68.8866 30.2999C69.0403 30.2315 69.1662 30.1131 69.244 29.964C69.3217 29.8149 69.3467 29.6438 69.3148 29.4787Z" fill="black"/>
<path d="M68.4713 30.2744C68.6079 30.3271 68.7575 30.336 68.8995 30.2999C69.0216 30.2528 69.1271 30.1706 69.2027 30.0637C69.2783 29.9569 69.3206 29.8301 69.3244 29.6992C69.1501 29.6711 68.9714 29.705 68.8196 29.7951C68.7325 29.8477 68.6569 29.9173 68.597 29.9996C68.5372 30.0819 68.4945 30.1753 68.4713 30.2744Z" fill="#F28F8F"/>
<path d="M70.3374 26.2577C70.3309 26.3494 70.2976 26.4372 70.2414 26.51C70.1853 26.5828 70.1089 26.6374 70.0219 26.6669C69.9348 26.6965 69.841 26.6996 69.7522 26.676C69.6633 26.6524 69.5834 26.6031 69.5225 26.5343C69.4616 26.4654 69.4224 26.3801 69.4098 26.289C69.3972 26.198 69.4118 26.1052 69.4518 26.0225C69.4917 25.9397 69.5552 25.8705 69.6343 25.8237C69.7134 25.7769 69.8046 25.7545 69.8964 25.7593C69.9583 25.7625 70.0189 25.778 70.0747 25.805C70.1305 25.8319 70.1803 25.8696 70.2214 25.916C70.2624 25.9624 70.2938 26.0166 70.3137 26.0752C70.3337 26.1339 70.3417 26.1959 70.3374 26.2577Z" fill="#263238"/>
<path d="M66.439 25.8903C66.4332 25.9822 66.4003 26.0703 66.3445 26.1435C66.2888 26.2168 66.2126 26.2719 66.1255 26.3019C66.0385 26.3319 65.9445 26.3355 65.8554 26.3122C65.7664 26.289 65.6862 26.2399 65.6249 26.1711C65.5637 26.1023 65.5242 26.017 65.5114 25.9258C65.4986 25.8347 65.513 25.7417 65.5529 25.6588C65.5928 25.5758 65.6563 25.5065 65.7356 25.4595C65.8148 25.4126 65.9061 25.3901 65.998 25.395C66.1221 25.4024 66.2382 25.4587 66.3208 25.5515C66.4035 25.6444 66.446 25.7662 66.439 25.8903Z" fill="#263238"/>
<path d="M66.0843 23.9858L65.0138 24.6536C64.9763 24.5219 64.9794 24.3818 65.0227 24.2518C65.066 24.1219 65.1476 24.008 65.2567 23.9251C65.3861 23.8555 65.5327 23.8243 65.6793 23.835C65.8259 23.8458 65.9664 23.8981 66.0843 23.9858Z" fill="#263238"/>
<path d="M70.069 24.1488C70.3885 24.4076 70.7336 24.6664 71.0627 24.9285C71.1151 24.801 71.1275 24.6607 71.0984 24.5261C71.0693 24.3914 71 24.2688 70.8998 24.1743C70.7778 24.0922 70.6351 24.0461 70.488 24.0416C70.341 24.0371 70.1957 24.0743 70.069 24.1488Z" fill="#263238"/>
<path d="M76.4597 26.0916C76.3382 25.7927 76.1106 25.5492 75.8206 25.4078C75.7601 25.3753 75.6956 25.3507 75.6289 25.3343C75.4343 25.3013 75.2345 25.3174 75.0476 25.381C74.8607 25.4446 74.6926 25.5537 74.5584 25.6985C74.2887 25.993 74.1072 26.3572 74.0344 26.7498C73.9645 27.1427 73.9218 27.5398 73.9066 27.9385C73.8529 28.6559 73.7461 29.3683 73.5871 30.0699C73.503 30.4363 73.341 30.7803 73.1122 31.0786C72.8834 31.3769 72.5931 31.6224 72.261 31.7986L72.2162 31.8241C71.2455 32.3127 70.1855 32.5986 69.1007 32.6645V35.8376L73.4976 33.2333C73.6538 33.1413 73.7838 33.0107 73.875 32.854C73.9662 32.6974 74.0156 32.5199 74.0184 32.3386C74.0184 31.8305 74.0408 31.2713 74.0536 30.7409C74.0759 29.7599 74.0919 28.9387 74.0919 28.9387C74.3025 29.184 74.5982 29.3405 74.9195 29.3765C75.0644 29.3982 75.2122 29.3906 75.3541 29.3541C75.5617 29.2857 75.7535 29.1763 75.9182 29.0325C76.0828 28.8887 76.217 28.7134 76.3127 28.5169C76.5086 28.1183 76.6175 27.6826 76.6323 27.2387C76.6605 26.8483 76.6016 26.4564 76.4597 26.0916Z" fill="#FFA8A7"/>
<path opacity="0.2" d="M72.817 31.7602C73.0774 31.4219 73.2626 31.0319 73.3602 30.6163C73.1201 31.1197 72.7262 31.5337 72.2354 31.7986L72.1907 31.8241C71.2199 32.3127 70.1599 32.5986 69.0752 32.6645V33.473C69.7025 33.4179 70.3206 33.2859 70.9157 33.0799C71.6623 32.8302 72.3219 32.3723 72.817 31.7602Z" fill="black"/>
<path d="M33.8874 96.0549C34.7853 96.9975 36.1466 97.397 37.4471 97.365C38.7505 97.2758 40.0269 96.951 41.2145 96.4064C42.4191 95.9111 43.9306 94.5275 45.2311 94.5531C46.5049 94.5428 47.7768 94.4553 49.04 94.291C49.0872 92.5557 48.9056 90.8216 48.5 89.1337L42.4287 88.9707C40.7895 91.2075 37.5973 93.0896 35.1816 93.7925C34.8099 93.897 34.4738 94.1011 34.2097 94.3827C33.9456 94.6643 33.7634 95.0127 33.6829 95.3902C33.6813 95.403 33.6813 95.4159 33.6829 95.4286C33.7242 95.6452 33.7929 95.8557 33.8874 96.0549Z" fill="#455A64"/>
<path d="M45.2311 94.5594C43.9306 94.5339 42.4192 95.9175 41.2145 96.4128C40.027 96.9574 38.7505 97.2822 37.4471 97.3714C36.1466 97.4033 34.7854 97.0039 33.8874 96.0613C33.7913 95.8644 33.7204 95.6561 33.6765 95.4414C33.675 95.4286 33.675 95.4158 33.6765 95.403C33.6186 95.6705 33.6186 95.9472 33.6765 96.2147C33.7207 96.4283 33.7916 96.6355 33.8874 96.8314C34.7854 97.774 36.1466 98.1734 37.4471 98.1415C38.7508 98.0539 40.0275 97.729 41.2145 97.1829C42.4192 96.6876 43.9306 95.3008 45.2311 95.3263C46.485 95.336 47.7381 95.2634 48.9825 95.1091C49.0102 94.8385 49.0294 94.5669 49.04 94.2942C47.7769 94.4595 46.505 94.5481 45.2311 94.5594Z" fill="#263238"/>
<path d="M62.4 97.9593C62.4019 98.5785 62.3409 99.1962 62.2178 99.8031C62.0214 100.883 61.4174 101.846 60.5307 102.494C59.751 103.005 58.786 103.149 57.8529 103.206C57.0273 103.293 56.1926 103.207 55.4021 102.954C54.804 102.738 54.2978 102.324 53.9673 101.781C53.9673 101.781 53.9673 101.803 53.9673 101.813C54.082 102.212 54.292 102.577 54.5793 102.876C54.8665 103.176 55.2224 103.401 55.6161 103.532C56.4064 103.787 57.2414 103.873 58.067 103.785C59.0001 103.727 59.9651 103.586 60.7448 103.072C61.6325 102.426 62.2368 101.462 62.4319 100.381C62.5581 99.7751 62.6192 99.157 62.6141 98.5377C62.6172 98.1145 62.7067 97.6965 62.877 97.3091C63.0473 96.9218 63.2949 96.5732 63.6046 96.2849C63.7548 96.1411 63.9018 95.9941 64.036 95.8408C64.1308 95.7305 64.2027 95.6026 64.2477 95.4644C64.2927 95.3262 64.3098 95.1804 64.298 95.0355C64.298 94.9205 64.2757 94.8086 64.2629 94.7C64.0392 94.9588 63.5152 95.5819 63.381 95.7066C63.0728 95.9956 62.8269 96.3445 62.6582 96.7318C62.4896 97.1191 62.4017 97.5368 62.4 97.9593Z" fill="#263238"/>
<path d="M57.7507 91.5493C57.9534 92.8151 57.7893 94.1125 57.2778 95.288C56.7675 96.4562 56.1022 97.5503 55.2998 98.5409C54.9051 99.0089 54.5583 99.5152 54.2645 100.052C53.9741 100.583 53.8705 101.197 53.9705 101.794C54.301 102.337 54.8072 102.751 55.4053 102.967C56.1958 103.22 57.0305 103.306 57.8561 103.219C58.7892 103.161 59.7542 103.018 60.5339 102.506C61.4206 101.859 62.0247 100.896 62.2211 99.8158C62.3441 99.209 62.4051 98.5913 62.4032 97.9721C62.4035 97.5465 62.4914 97.1255 62.6612 96.7352C62.8311 96.3449 63.0793 95.9937 63.3906 95.7034C63.5248 95.5787 64.0488 94.9556 64.2725 94.6968C64.1493 93.7738 63.8394 92.8856 63.3618 92.0862L57.7507 91.5493Z" fill="#455A64"/>
<path d="M52.015 80.701C51.264 83.8772 50.756 85.8744 49.3756 90.1402C49.3756 90.1402 44.0328 91.2842 41.9271 89.2008L44.3332 77.5823L52.015 80.701Z" fill="#263238"/>
<path d="M65.033 81.6117C64.8285 84.8678 64.9499 87.8044 64.3108 92.2428C64.3108 92.2428 59.7606 93.7542 57.3321 92.0574L56.9326 84.2958L65.033 81.6117Z" fill="#263238"/>
<path d="M11.6634 59.5826V87.8235L12.6603 87.2452V59.0074L11.6634 59.5826Z" fill="#455A64"/>
<path d="M11.6634 59.5826V87.8235L10.6632 87.2452V59.0074L11.6634 59.5826Z" fill="#37474F"/>
<path d="M12.6604 67.1141L36.0316 53.62V52.5495L12.6604 66.0405V67.1141Z" fill="#455A64"/>
<path d="M12.6604 64.9093L35.0314 51.9711L36.0316 52.5495L12.6604 66.0405V64.9093Z" fill="#37474F"/>
<path d="M82.1987 72.198V100.436L83.1989 99.8606V71.6197L82.1987 72.198Z" fill="#455A64"/>
<path d="M82.1986 72.198V100.436L81.2017 99.8606V71.6197L82.1986 72.198Z" fill="#37474F"/>
<path d="M57.8306 86.2738V114.512L58.8275 113.933V85.6954L57.8306 86.2738Z" fill="#455A64"/>
<path d="M57.8306 86.2738V114.512L56.8304 113.933V85.6954L57.8306 86.2738Z" fill="#37474F"/>
<path d="M58.8275 93.8021L82.1987 80.3111V79.2375L58.8275 92.7285V93.8021Z" fill="#455A64"/>
<path d="M58.8275 91.5973L81.2017 78.6623L82.1987 79.2375L58.8275 92.7285V91.5973Z" fill="#37474F"/>
<g opacity="0.2">
<path opacity="0.2" d="M82.1986 72.198V100.436L83.1988 99.8606V71.6196L82.1986 72.198Z" fill="white"/>
<path opacity="0.2" d="M82.1986 72.198V100.436L81.2017 99.8606V71.6196L82.1986 72.198Z" fill="white"/>
<path opacity="0.2" d="M57.8305 86.2737V114.511L58.8275 113.933V85.6954L57.8305 86.2737Z" fill="white"/>
<path opacity="0.2" d="M57.8305 86.2737V114.511L56.8304 113.933V85.6954L57.8305 86.2737Z" fill="white"/>
<path opacity="0.2" d="M58.8275 93.8021L82.1987 80.3111V79.2375L58.8275 92.7284V93.8021Z" fill="white"/>
<path opacity="0.2" d="M58.8275 91.5973L81.2017 78.6623L82.1987 79.2375L58.8275 92.7284V91.5973Z" fill="white"/>
</g>
<g opacity="0.2">
<path opacity="0.2" d="M11.6635 59.5826V87.8236L12.6604 87.2452V59.0075L11.6635 59.5826Z" fill="white"/>
<path opacity="0.2" d="M11.6634 59.5826V87.8236L10.6633 87.2452V59.0075L11.6634 59.5826Z" fill="white"/>
<path opacity="0.2" d="M12.6604 67.1142L36.0316 53.62V52.5495L12.6604 66.0405V67.1142Z" fill="white"/>
<path opacity="0.2" d="M12.6604 64.9093L35.0314 51.9712L36.0316 52.5495L12.6604 66.0405V64.9093Z" fill="white"/>
</g>
<path d="M57.8306 83.5449L10.6632 56.3616L36.0283 41.7107L83.1989 68.894L57.8306 83.5449Z" fill="#3E63F6"/>
<path d="M57.8306 86.2737L10.6632 59.0074V56.3616L57.8306 83.5449V86.2737Z" fill="#3E63F6"/>
<path d="M57.8306 83.5417L83.1989 68.8908V71.6196L57.8306 86.2737V83.5417Z" fill="#3E63F6"/>
<path opacity="0.3" d="M57.8306 83.5449L10.6632 56.3616L36.0283 41.7107L83.1989 68.894L57.8306 83.5449Z" fill="white"/>
<path opacity="0.1" d="M57.8306 83.5417L83.1989 68.8908V71.6196L57.8306 86.2737V83.5417Z" fill="white"/>
<path opacity="0.2" d="M57.8306 86.2737L10.6632 59.0074V56.3616L57.8306 83.5449V86.2737Z" fill="white"/>
<path opacity="0.2" d="M36.0283 41.7107L83.1957 68.894L83.1989 68.8908V71.6197L57.8306 86.2738L10.6632 59.0074V56.3616L36.0283 41.7107Z" fill="black"/>
<path d="M38.3962 48.1782L34.6128 56.4479L24.739 54.9173L28.5224 46.6476L38.3962 48.1782Z" fill="#E6E6E6"/>
<path d="M42.1028 49.7791L33.5551 56.7515L25.2215 53.3164L33.7692 46.3472L42.1028 49.7791Z" fill="#F0F0F0"/>
<path d="M43.8539 47.4497L48.9761 52.5783L36.1881 56.8473L31.0627 51.7219L43.8539 47.4497Z" fill="white"/>
<path d="M37.249 62.0335L53.8363 71.6197L53.9034 71.6516H53.9386C53.9812 71.6678 54.025 71.6806 54.0696 71.69L54.1591 71.7091H54.223H54.3859H54.5553L54.6639 71.69L54.7981 71.6548C54.8375 71.6413 54.8759 71.6253 54.9132 71.6069L60.2495 68.5041L43.1157 58.5984L37.249 62.0335Z" fill="#37474F"/>
<path d="M53.031 59.3973L49.9091 61.2346C49.8622 61.2631 49.8234 61.3032 49.7964 61.3511C49.7695 61.3989 49.7553 61.4529 49.7553 61.5078C49.7553 61.5627 49.7695 61.6167 49.7964 61.6646C49.8234 61.7124 49.8622 61.7525 49.9091 61.781L54.5744 64.4747C54.654 64.5211 54.7444 64.5454 54.8364 64.5454C54.9285 64.5454 55.0189 64.5211 55.0985 64.4747L58.2172 62.6406C58.2641 62.6121 58.303 62.572 58.3299 62.5241C58.3568 62.4763 58.371 62.4223 58.371 62.3674C58.371 62.3125 58.3568 62.2585 58.3299 62.2106C58.303 62.1628 58.2641 62.1227 58.2172 62.0942L53.5487 59.4005C53.4701 59.3551 53.381 59.331 53.2903 59.3305C53.1996 59.3299 53.1102 59.3529 53.031 59.3973Z" fill="#37474F"/>
<path d="M33.4497 49.3701L33.8587 49.1656C33.9317 49.134 34.0112 49.1202 34.0906 49.1252C34.17 49.1302 34.2471 49.1539 34.3156 49.1943L51.5101 59.1896C51.7762 59.3456 52.0044 59.5586 52.1785 59.8133C52.3525 60.068 52.468 60.358 52.5166 60.6626L54.2837 71.9041C54.3017 72.0136 54.2833 72.126 54.2314 72.2241C54.1794 72.3222 54.0968 72.4006 53.9961 72.4473L53.5999 72.6422C53.5283 72.6697 53.4514 72.6806 53.375 72.6739C53.2986 72.6673 53.2247 72.6433 53.1589 72.6038L35.9645 62.6086C35.6973 62.4538 35.4683 62.2412 35.2941 61.9863C35.1199 61.7313 35.005 61.4407 34.9579 61.1356L33.1877 49.8973C33.1721 49.7932 33.1889 49.6868 33.2358 49.5925C33.2826 49.4982 33.3573 49.4206 33.4497 49.3701Z" fill="#455A64"/>
<path d="M42.8281 59.6465C43.2639 59.9202 43.6397 60.2793 43.933 60.7022C44.2263 61.125 44.4309 61.6029 44.5345 62.1069C44.6463 62.9825 44.0648 63.3084 43.234 62.8259C42.7977 62.5535 42.4214 62.1952 42.1281 61.7728C41.8347 61.3503 41.6304 60.8726 41.5276 60.3686C41.4158 59.4931 41.9973 59.1704 42.8281 59.6465Z" fill="white"/>
<path opacity="0.3" d="M53.9354 72.0574L52.1747 60.8288C52.1255 60.524 52.0094 60.2338 51.8349 59.9791C51.6603 59.7245 51.4315 59.5116 51.165 59.3557L33.9609 49.3701C33.8832 49.3236 33.7943 49.2991 33.7037 49.2991C33.6131 49.2991 33.5242 49.3236 33.4465 49.3701L33.8555 49.1656C33.9285 49.134 34.008 49.1202 34.0874 49.1252C34.1668 49.1302 34.2439 49.1539 34.3124 49.1943L51.5069 59.1896C51.773 59.3456 52.0012 59.5586 52.1753 59.8133C52.3493 60.068 52.4648 60.358 52.5134 60.6626L54.2805 71.9041C54.2985 72.0136 54.2801 72.126 54.2282 72.2241C54.1762 72.3222 54.0936 72.4006 53.9929 72.4473L53.5967 72.6422C53.7138 72.6015 53.8124 72.52 53.8746 72.4127C53.9368 72.3054 53.9583 72.1793 53.9354 72.0574Z" fill="black"/>
<path d="M80.2591 35.8376L73.699 53.4123L62.9081 57.6014C62.3583 57.8283 61.7625 57.9213 61.1698 57.873L58.2716 57.3586C57.8614 57.3234 57.4507 57.4197 57.0988 57.6334L55.0985 58.8444C54.8971 58.9656 54.7177 59.1201 54.5681 59.3014L53.5871 60.4613C53.5219 60.5388 53.4734 60.629 53.4447 60.7262C53.416 60.8233 53.4077 60.9254 53.4203 61.0259C53.4329 61.1264 53.4661 61.2232 53.5179 61.3103C53.5697 61.3974 53.639 61.4728 53.7213 61.5318L54.338 61.9727C54.6635 62.2052 55.0464 62.3441 55.4451 62.3745C55.8439 62.4049 56.2434 62.3257 56.6004 62.1453L58.1469 61.3656L58.8595 61.535C60.4154 61.9065 62.0505 61.7514 63.5088 61.094L75.2136 58.7294C76.0714 58.5488 76.8697 58.1545 77.5344 57.583C78.1992 57.0116 78.7088 56.2815 79.0161 55.4605C79.0161 55.4605 84.6081 42.1868 83.2884 39.1831C82.7132 37.8858 80.2591 35.8376 80.2591 35.8376Z" fill="#FFA8A7"/>
<path d="M80.2591 35.8376L73.488 53.2046L62.7004 57.3266C64.7103 58.4514 64.8157 60.9662 64.6176 61.2634L76.0412 58.8732C76.7712 58.7163 77.4499 58.3782 78.015 57.8902C78.5801 57.4022 79.0134 56.7798 79.2749 56.0804L83.8603 43.9379C84.446 42.3859 84.3965 40.6656 83.7223 39.1499C83.0482 37.6342 81.8039 36.4452 80.2591 35.8408V35.8376Z" fill="#3E63F6"/>
<path opacity="0.4" d="M80.2591 35.8376L73.488 53.2046L62.7004 57.3266C64.7103 58.4514 64.8157 60.9662 64.6176 61.2634L76.0412 58.8732C76.7712 58.7163 77.4499 58.3782 78.015 57.8902C78.5801 57.4022 79.0134 56.7798 79.2749 56.0804L83.8603 43.9379C84.446 42.3859 84.3965 40.6656 83.7223 39.1499C83.0482 37.6342 81.8039 36.4452 80.2591 35.8408V35.8376Z" fill="white"/>
<path opacity="0.4" d="M67.1356 58.2277C66.8458 57.419 66.3219 56.7149 65.6305 56.205L62.7004 57.3266C64.7103 58.4514 64.8157 60.9662 64.6176 61.2634L67.241 60.7137C67.4512 59.8927 67.4145 59.028 67.1356 58.2277Z" fill="white"/>
<path opacity="0.2" d="M73.488 53.2045C75.4756 53.2333 76.8592 54.0929 77.0701 54.7224C76.7281 51.7442 73.8555 52.2715 73.8555 52.2715L73.488 53.2045Z" fill="black"/>
<path d="M62.2179 12.3642L61.812 12.3737L64.9116 11.3288L65.3142 11.3161L62.2179 12.3642Z" fill="#1E272B"/>
<path d="M60.4444 4.6153L61.8951 10.955L62.2178 12.3641L65.3142 11.3161L63.5407 3.5704L60.4444 4.6153Z" fill="#3E63F6"/>
<path d="M65.72 11.4151L63.8443 3.2285C63.8414 3.20244 63.833 3.17729 63.8196 3.15471C63.8063 3.13214 63.7883 3.11266 63.7668 3.09755C63.7454 3.08245 63.721 3.07208 63.6952 3.06711C63.6695 3.06214 63.643 3.06269 63.6175 3.06873L60.1632 4.23506C60.1412 4.24476 60.1207 4.25768 60.1025 4.2734C60.0894 4.28517 60.0786 4.29925 60.0706 4.31494C60.0608 4.33732 60.0543 4.361 60.0514 4.38524C60.0529 4.39154 60.0529 4.39811 60.0514 4.40441C60.0482 4.43095 60.0482 4.45776 60.0514 4.4843L61.9271 12.6709C61.9324 12.6984 61.9433 12.7245 61.959 12.7476V12.7636C61.9691 12.7778 61.9809 12.7907 61.9942 12.8019H62.0166H62.0549H62.0805C62.1006 12.805 62.1211 12.805 62.1412 12.8019L65.5954 11.6963C65.6463 11.672 65.6868 11.6303 65.7097 11.5787C65.7325 11.5272 65.7362 11.4692 65.72 11.4151ZM63.5408 3.57041L65.3142 11.3161L62.2179 12.3642L61.8983 10.9518L60.4476 4.61531L63.544 3.57041H63.5408Z" fill="#455A64"/>
<path d="M62.0165 12.8466H61.9942C61.9809 12.8354 61.9691 12.8225 61.959 12.8083V12.7923C61.9432 12.7692 61.9324 12.7431 61.9271 12.7156L60.0514 4.52902C60.0482 4.50248 60.0482 4.47567 60.0514 4.44913C60.0529 4.44283 60.0529 4.43626 60.0514 4.42996C60.0543 4.40572 60.0608 4.38204 60.0705 4.35966C60.0786 4.34397 60.0894 4.32989 60.1025 4.31812C60.1207 4.3024 60.1412 4.28948 60.1632 4.27978L63.6142 3.11345H63.659H63.2532C63.2395 3.11052 63.2253 3.11052 63.2116 3.11345L59.7574 4.27978C59.7355 4.28641 59.7157 4.29851 59.6999 4.31493C59.6835 4.33147 59.6705 4.351 59.6615 4.37244C59.6597 4.38944 59.6597 4.40657 59.6615 4.42357V4.44274C59.66 4.44905 59.66 4.45561 59.6615 4.46191C59.6567 4.48832 59.6567 4.51539 59.6615 4.5418L61.534 12.7284C61.5406 12.7737 61.5627 12.8153 61.5965 12.8462C61.6302 12.8771 61.6737 12.8953 61.7194 12.8978H62.122H62.0805H62.0549L62.0165 12.8466Z" fill="#37474F"/>
<path d="M30.4268 22.5576L20.3294 28.3541C20.0295 28.5279 19.7804 28.7771 19.6066 29.077C19.4328 29.3769 19.3405 29.717 19.3388 30.0636V38.7679C19.3489 39.1105 19.4491 39.4444 19.6294 39.7359C19.8097 40.0274 20.0636 40.2662 20.3657 40.4282C20.6677 40.5903 21.0071 40.6698 21.3497 40.6588C21.6923 40.6478 22.0259 40.5467 22.3169 40.3656L24.0712 39.3622L24.2278 39.6211C24.2278 39.6211 24.2469 39.6211 24.2565 39.6434H24.2757C24.5633 39.8351 25.0713 40.1068 25.1864 40.1643C25.2131 40.1725 25.2419 40.1701 25.2669 40.1576C25.2919 40.1451 25.3111 40.1235 25.3206 40.0972L25.9597 38.2662L32.4048 34.5819C32.7067 34.4102 32.9578 34.1615 33.1324 33.8612C33.3069 33.5609 33.3988 33.2197 33.3986 32.8724V24.1617C33.405 22.7429 31.312 22.0527 30.4268 22.5576Z" fill="#3E63F6"/>
<path opacity="0.2" d="M24.2278 39.6275C24.2278 39.6275 24.247 39.6275 24.2565 39.6498H24.2757C24.5633 39.8416 25.0714 40.1132 25.1864 40.1707C25.1733 40.1679 25.1608 40.1626 25.1499 40.1549C25.1389 40.1472 25.1296 40.1373 25.1225 40.1259L24.4834 39.113L24.608 39.0427L24.0584 39.3622L24.2278 39.6275Z" fill="white"/>
<path opacity="0.4" d="M21.5532 30.2106C21.6817 29.9554 21.8624 29.73 22.0837 29.5492C22.1584 29.4876 22.2386 29.433 22.3233 29.3862L32.4208 23.5897C32.5209 23.5327 32.6343 23.5029 32.7495 23.5034C32.8647 23.5039 32.9778 23.5346 33.0775 23.5925C33.1771 23.6504 33.2598 23.7335 33.3173 23.8334C33.3747 23.9332 33.405 24.0465 33.405 24.1617C33.405 22.7398 31.312 22.0527 30.4269 22.564L20.3294 28.3605C20.0213 28.5373 19.7673 28.7947 19.5944 29.105L21.5532 30.2106Z" fill="white"/>
<path opacity="0.2" d="M21.3327 39.8V31.0957C21.3332 31.0177 21.3385 30.9398 21.3487 30.8624C21.3807 30.6395 21.4498 30.4235 21.5532 30.2234L19.5817 29.0986C19.4157 29.3909 19.3277 29.721 19.326 30.0572V38.7615C19.3361 39.1041 19.4363 39.438 19.6166 39.7295C19.7969 40.021 20.0509 40.2598 20.3529 40.4218C20.6549 40.5839 20.9944 40.6634 21.3369 40.6524C21.6795 40.6414 22.0131 40.5403 22.3041 40.3592C22.2053 40.4127 22.0945 40.44 21.9821 40.4385C21.8698 40.4371 21.7597 40.4069 21.6623 40.3508C21.5649 40.2948 21.4835 40.2147 21.4258 40.1183C21.3681 40.0219 21.3361 39.9123 21.3327 39.8Z" fill="white"/>
<path d="M25.2918 34.6714L25.2982 37.0551L23.4034 38.1512L23.397 35.7674L25.2918 34.6714Z" fill="white"/>
<path d="M28.3275 31.1692L28.3371 35.3009L26.4454 36.3937L26.4358 32.262L28.3275 31.1692Z" fill="white"/>
<path d="M30.8774 25.8521C30.9381 25.8169 30.986 25.8169 31.0116 25.8521C31.028 25.8736 31.0387 25.899 31.0426 25.9259C31.0465 25.9527 31.0435 25.9801 31.034 26.0055L30.6249 27.4817C30.6052 27.5625 30.5548 27.6324 30.4843 27.6766L30.43 27.6958C30.3533 27.6958 30.3118 27.6287 30.3437 27.5201L30.5802 26.6573L28.4041 29.5332C28.3823 29.5644 28.3539 29.5906 28.3211 29.6099C28.2985 29.6249 28.2714 29.6316 28.2444 29.629L27.6628 29.5492L25.9245 31.9489C25.9024 31.9819 25.8729 32.0093 25.8382 32.0288C25.8265 32.0376 25.813 32.0438 25.7987 32.0471C25.7844 32.0504 25.7696 32.0507 25.7552 32.048L25.2854 31.9553L23.7133 34.24C23.6882 34.2753 23.6568 34.3057 23.6206 34.3295C23.6029 34.342 23.5816 34.3487 23.5599 34.3487C23.5382 34.3487 23.517 34.342 23.4992 34.3295C23.4761 34.2882 23.4665 34.2408 23.4716 34.1939C23.4768 34.1469 23.4965 34.1027 23.528 34.0674L25.1896 31.6549C25.2144 31.6203 25.2459 31.5909 25.2822 31.5686C25.3077 31.5519 25.3384 31.5451 25.3685 31.5495L25.8382 31.6453L27.5733 29.252C27.5966 29.2191 27.6259 29.1909 27.6596 29.1689C27.6833 29.1537 27.7115 29.1469 27.7395 29.1497L28.3211 29.2296L30.3246 26.587L29.6024 27.0695C29.5161 27.1206 29.449 27.0887 29.4395 27.0024C29.4388 26.9495 29.4514 26.8973 29.4759 26.8505C29.5004 26.8036 29.5362 26.7636 29.58 26.734L30.8774 25.8521Z" fill="white"/>
<path d="M31.3663 28.4467L31.3822 33.5434L29.4874 34.6394L29.4714 29.5428L31.3663 28.4467Z" fill="white"/>
<path d="M81.9911 0.164242L92.0119 5.91596C92.3093 6.08846 92.5564 6.33587 92.7285 6.63357C92.9007 6.93126 92.9918 7.26886 92.9928 7.61272V14.9046C92.9903 15.2479 92.8957 15.5843 92.7189 15.8785C92.542 16.1727 92.2893 16.4141 91.9873 16.5774C91.6853 16.7406 91.345 16.8198 91.002 16.8066C90.6589 16.7934 90.3257 16.6883 90.0371 16.5023L88.2988 15.5054L88.139 15.761C88.1321 15.7701 88.1234 15.7777 88.1135 15.7834H88.0943C87.8067 15.9751 87.305 16.2435 87.19 16.3042C87.1637 16.3126 87.1352 16.3107 87.1102 16.2988C87.0853 16.2869 87.0658 16.266 87.0558 16.2403L86.4167 14.4221L80.0259 10.7666C79.7272 10.5952 79.4789 10.3482 79.3061 10.0503C79.1333 9.75238 79.0421 9.4142 79.0417 9.06983V1.75555C79.0353 0.343186 81.1123 -0.337435 81.9911 0.164242Z" fill="#3E63F6"/>
<path opacity="0.2" d="M88.139 15.7514C88.132 15.7605 88.1234 15.7681 88.1134 15.7738H88.0943C87.8067 15.9655 87.305 16.2339 87.19 16.2946C87.2031 16.2919 87.2155 16.2865 87.2265 16.2788C87.2375 16.2711 87.2468 16.2613 87.2539 16.2499L87.8738 15.2465L87.7524 15.1762L88.2988 15.4958L88.139 15.7514Z" fill="white"/>
<path opacity="0.4" d="M90.7944 7.75652C90.6652 7.50995 90.4868 7.29245 90.2704 7.11744C90.1951 7.05661 90.1149 7.0021 90.0307 6.95447L80.0099 1.20275C79.9115 1.14196 79.7985 1.10902 79.6828 1.10742C79.5672 1.10583 79.4533 1.13564 79.3533 1.19369C79.2532 1.25175 79.1708 1.33585 79.1148 1.43705C79.0588 1.53825 79.0314 1.65275 79.0353 1.76834C79.0353 0.355969 81.1123 -0.324652 81.9911 0.170635L92.0119 5.92236C92.3202 6.09495 92.5771 6.34638 92.7564 6.65091L90.7944 7.75652Z" fill="white"/>
<path opacity="0.2" d="M91.0148 15.9272V8.63526C91.0144 8.55725 91.0091 8.47935 90.9989 8.402C90.9661 8.17922 90.897 7.96332 90.7944 7.76292L92.7563 6.65092C92.9201 6.94401 93.0069 7.27381 93.0088 7.60954V14.9014C93.0063 15.2447 92.9117 15.5811 92.7348 15.8753C92.5579 16.1696 92.3053 16.4109 92.0033 16.5742C91.7012 16.7374 91.3609 16.8166 91.0179 16.8034C90.6748 16.7902 90.3416 16.6851 90.053 16.4991C90.1516 16.5569 90.2639 16.5872 90.3782 16.5868C90.4924 16.5864 90.6045 16.5554 90.7027 16.497C90.801 16.4386 90.8817 16.3549 90.9366 16.2547C90.9915 16.1545 91.0185 16.0414 91.0148 15.9272Z" fill="white"/>
<path d="M83.3683 4.73684C83.1936 4.61216 82.9893 4.53536 82.7757 4.51405C82.5621 4.49275 82.3467 4.5277 82.1508 4.61542C81.4766 4.99567 81.4734 6.24827 82.1508 7.405L82.5407 8.08562L84.9628 12.2812L87.4009 10.8912L87.7939 10.6643C88.4713 10.2841 88.4745 9.03146 87.7939 7.87473C87.5043 7.35244 87.0864 6.91255 86.5796 6.59657C86.4056 6.47187 86.2018 6.39502 85.9887 6.37372C85.7757 6.35241 85.5607 6.38738 85.3654 6.47514L84.9692 6.69562L84.5761 6.02139C84.2892 5.49754 83.8735 5.05545 83.3683 4.73684Z" fill="white"/>
</svg>
