<svg width="466" height="774" viewBox="0 0 466 774" fill="none" xmlns="http://www.w3.org/2000/svg">
<path d="M0 20C0 8.95432 8.95431 0 20 0H466V774H20C8.9543 774 0 765.046 0 754V20Z" fill="#94A9E5"/>
<mask id="mask0" mask-type="alpha" maskUnits="userSpaceOnUse" x="0" y="0" width="466" height="774">
<path d="M0 15C0 6.71574 6.71573 0 15 0H466V774H15C6.71572 774 0 767.284 0 759V15Z" fill="#F63E3E"/>
</mask>
<g mask="url(#mask0)">
<path d="M-0.367706 874.632C242.987 874.632 440.265 760.733 440.265 620.232C440.265 479.731 242.987 365.832 -0.367706 365.832C-243.722 365.832 -441 479.731 -441 620.232C-441 760.733 -243.722 874.632 -0.367706 874.632Z" fill="#F0F0F0"/>
<path d="M252.686 708.504C223.792 691.822 223.792 664.78 252.686 648.098C281.58 631.416 328.428 631.416 357.322 648.098C386.216 664.78 386.216 691.822 357.322 708.504C328.428 725.186 281.58 725.186 252.686 708.504Z" fill="#E0E0E0"/>
<path d="M-334.998 710.823L-411.002 666.949C-415.285 664.48 -415.285 660.459 -411.002 657.991L31.0887 402.749C33.4913 401.532 36.147 400.897 38.8406 400.897C41.5341 400.897 44.1898 401.532 46.5924 402.749L122.615 446.623C126.898 449.092 126.898 453.113 122.615 455.582L-319.476 710.823C-321.882 712.041 -324.541 712.676 -327.237 712.676C-329.934 712.676 -332.592 712.041 -334.998 710.823Z" fill="#E0E0E0"/>
<path d="M138.848 78.1987C138.193 77.8697 137.46 77.7255 136.728 77.7815C135.997 77.8375 135.294 78.0917 134.696 78.5166L-281.754 319.096C-283.398 320.183 -284.762 321.642 -285.737 323.354C-286.711 325.066 -287.269 326.984 -287.365 328.952V614.472C-287.423 615.436 -287.232 616.398 -286.809 617.267C-286.387 618.135 -285.747 618.879 -284.952 619.428C-284.036 619.933 -279.136 622.775 -277.677 623.561C-277.161 623.824 -276.585 623.945 -276.006 623.912C-275.428 623.879 -274.869 623.694 -274.386 623.374L141.971 382.794C143.615 381.707 144.979 380.249 145.954 378.536C146.928 376.824 147.486 374.906 147.582 372.939V85.9412C147.666 85.216 147.545 84.4818 147.235 83.8211C146.924 83.1604 146.436 82.5993 145.824 82.2009C144.889 81.5837 139.896 78.8159 138.848 78.1987Z" fill="#3E63F6"/>
<path d="M-274.479 323.136L141.99 82.6497C145.132 80.7795 147.601 82.3131 147.601 85.9412V372.939C147.505 374.906 146.947 376.824 145.972 378.536C144.998 380.249 143.633 381.707 141.99 382.794L-274.479 623.374C-277.621 625.244 -280.09 622.233 -280.09 618.605V332.992C-279.991 331.024 -279.432 329.108 -278.458 327.396C-277.483 325.684 -276.121 324.225 -274.479 323.136Z" fill="#FAFAFA"/>
<path d="M144.534 83.7344C145.637 83.7344 145.805 85.1183 145.805 85.9412V372.938C145.704 374.586 145.221 376.188 144.393 377.616C143.565 379.045 142.416 380.261 141.036 381.167L-275.377 621.747C-275.657 621.928 -275.979 622.031 -276.312 622.046C-277.36 622.046 -278.182 620.438 -278.182 618.605V332.992C-278.092 331.344 -277.623 329.74 -276.813 328.303C-276.002 326.866 -274.871 325.635 -273.507 324.707L142.925 84.2581C143.407 83.9472 143.961 83.7667 144.534 83.7344ZM144.534 81.8642C143.632 81.9026 142.756 82.1732 141.99 82.6497L-274.479 323.136C-276.121 324.225 -277.483 325.684 -278.458 327.396C-279.432 329.108 -279.991 331.024 -280.09 332.992V618.605C-280.09 621.485 -278.482 623.916 -276.35 623.916C-275.689 623.904 -275.044 623.717 -274.479 623.374L141.971 382.794C143.615 381.707 144.979 380.249 145.954 378.536C146.928 376.824 147.486 374.906 147.582 372.938V85.9412C147.582 83.3604 146.31 81.8642 144.44 81.8642H144.534Z" fill="#E0E0E0"/>
<path d="M147.675 85.8851C147.675 82.2944 145.113 80.8357 142.065 82.6497L-274.479 323.136C-276.121 324.225 -277.483 325.684 -278.458 327.396C-279.432 329.108 -279.991 331.024 -280.09 332.992V351.693L147.675 104.587V85.8851Z" fill="#3E63F6"/>
<g opacity="0.4">
<path opacity="0.4" d="M141.989 82.6497L-274.48 323.117C-276.152 324.171 -277.529 325.632 -278.483 327.362L-285.72 323.154C-284.768 321.484 -283.403 320.087 -281.755 319.096L134.695 78.5166C135.292 78.0887 135.993 77.8312 136.725 77.7719C137.456 77.7126 138.19 77.8537 138.847 78.18C139.857 78.8159 144.589 81.4902 145.804 82.1448C145.175 81.9116 144.499 81.8357 143.834 81.9237C143.169 82.0117 142.536 82.2609 141.989 82.6497Z" fill="white"/>
</g>
<path d="M59.852 301.18L-189.573 445.183C-190.786 445.971 -191.796 447.033 -192.521 448.284C-193.246 449.535 -193.665 450.94 -193.744 452.384V523.899C-193.665 525.343 -193.246 526.748 -192.521 527.999C-191.796 529.25 -190.786 530.312 -189.573 531.099L-182.298 535.289C-181.006 535.943 -179.577 536.283 -178.128 536.283C-176.679 536.283 -175.25 535.943 -173.957 535.289L75.4305 391.285C76.6439 390.494 77.6538 389.428 78.3784 388.174C79.1029 386.92 79.5218 385.512 79.601 384.066V312.532C79.5219 311.088 79.1028 309.683 78.3781 308.432C77.6534 307.181 76.6435 306.119 75.4305 305.332L68.1368 301.142C66.8495 300.499 65.4291 300.167 63.99 300.174C62.5508 300.18 61.1334 300.525 59.852 301.18Z" fill="#3E63F6"/>
<path opacity="0.5" d="M79.601 311.896C79.3018 309.745 77.5626 308.96 75.468 310.175L-173.957 454.179C-175.188 454.943 -176.199 456.013 -176.894 457.284L-192.51 448.269C-191.81 447.018 -190.806 445.964 -189.592 445.202L59.852 301.199C61.1412 300.543 62.5669 300.202 64.0132 300.202C65.4594 300.202 66.8851 300.543 68.1743 301.199L75.468 305.388C76.58 306.116 77.5238 307.074 78.2365 308.196C78.9492 309.318 79.4144 310.58 79.601 311.896Z" fill="white"/>
<path d="M-173.958 454.179L75.468 310.175C77.7683 308.848 79.6384 309.914 79.6384 312.569V384.103C79.5592 385.55 79.1403 386.957 78.4157 388.211C77.6912 389.465 76.6813 390.531 75.468 391.322L-173.92 535.326C-176.22 536.654 -178.091 535.569 -178.091 532.913V461.398C-178.016 459.955 -177.602 458.55 -176.884 457.296C-176.166 456.042 -175.164 454.974 -173.958 454.179Z" fill="#3E63F6"/>
<path d="M-6.27747 339.369L-189.555 445.202C-190.769 445.964 -191.772 447.018 -192.472 448.269L-176.856 457.284C-176.162 456.013 -175.15 454.943 -173.92 454.179L9.35721 348.364L-6.27747 339.369Z" fill="#455A64"/>
<path d="M9.31979 348.364L-173.958 454.179C-175.171 454.97 -176.181 456.036 -176.905 457.29C-177.63 458.544 -178.049 459.952 -178.128 461.398V532.895C-178.128 535.55 -176.258 536.635 -173.958 535.307L9.31979 429.493V348.364Z" fill="#37474F"/>
<path d="M53.5308 385.3L35.3714 395.773L38.1953 370.302C36.0072 369.142 34.6233 366.318 34.6233 362.26C34.6233 355.022 39.0369 346.625 44.4604 343.558C49.8839 340.491 54.2788 343.745 54.2788 351.039C54.1665 355.33 52.9421 359.519 50.7255 363.195L53.5308 385.3Z" fill="#455A64"/>
<path d="M53.5496 385.3L37.5595 376.08L35.3715 395.792L53.5496 385.3Z" fill="#37474F"/>
<path d="M44.423 343.502C40.4681 346.174 37.5192 350.09 36.0446 354.63L50.6881 363.083C52.9047 359.407 54.1291 355.218 54.2414 350.927C54.2788 343.689 49.8839 340.379 44.423 343.502Z" fill="#37474F"/>
<path d="M342 531.505C342 531.505 344.487 509.662 355.353 492.699C366.219 475.737 381.143 465.17 395.076 464.067C409.008 462.963 420.267 475.793 405.362 484.639C390.456 493.485 363.975 502.424 351.781 535.339L342 531.505Z" fill="#3E63F6"/>
<path opacity="0.1" d="M342 531.505C342 531.505 344.487 509.662 355.353 492.699C366.219 475.737 381.143 465.17 395.076 464.067C409.008 462.963 420.267 475.793 405.362 484.639C390.456 493.485 363.975 502.424 351.781 535.339L342 531.505Z" fill="black"/>
<path d="M346.096 525.82H345.946C345.763 525.745 345.617 525.601 345.54 525.419C345.462 525.236 345.461 525.031 345.535 524.847C360.234 488.659 388.212 473.53 400.967 470.612C401.062 470.59 401.162 470.587 401.259 470.603C401.356 470.62 401.448 470.655 401.532 470.707C401.615 470.759 401.687 470.827 401.744 470.907C401.802 470.987 401.842 471.078 401.864 471.173C401.887 471.269 401.89 471.368 401.873 471.465C401.857 471.562 401.822 471.655 401.77 471.738C401.718 471.822 401.65 471.894 401.57 471.951C401.49 472.008 401.399 472.049 401.303 472.071C388.811 474.951 361.375 489.8 346.919 525.427C346.846 525.576 346.726 525.697 346.576 525.768C346.427 525.839 346.257 525.858 346.096 525.82Z" fill="white"/>
<path d="M420.491 526.25C419.238 529.093 416.134 530.589 413.254 531.748C410.374 532.908 407.232 534.161 405.661 536.854C402.519 542.277 407.681 549.945 404.314 555.2C403.522 556.258 402.523 557.145 401.379 557.807C400.235 558.469 398.969 558.893 397.657 559.053C395.506 559.446 393.318 559.446 391.148 559.633C390.109 559.619 389.072 559.538 388.044 559.39C385.022 558.715 381.862 559.05 379.048 560.343C374.728 562.775 373.438 568.217 370.782 572.425C369.16 574.902 367.021 577 364.513 578.575C362.006 580.15 359.187 581.166 356.251 581.551C354.381 581.794 350.64 582.15 348.77 581.046C348.624 580.974 348.486 580.887 348.359 580.784C348.078 580.485 347.742 580.092 347.592 579.887C347.582 579.844 347.582 579.799 347.592 579.756C346.825 576.932 348.078 574.014 348.134 571.097V570.573C348.003 567.188 347.91 563.822 347.835 560.456C347.673 554.222 347.611 547.988 347.648 541.754C347.648 537.714 347.199 533.301 348.92 529.504C350.79 525.315 355.503 525.221 357.279 521.126C357.99 519.48 358.364 517.741 359.056 516.076C360.125 513.656 361.838 511.576 364.008 510.063C366.178 508.549 368.722 507.66 371.362 507.492C379.572 507.081 386.922 513.72 395.132 513.103C397.245 512.934 399.321 512.28 401.416 511.906C408.055 510.653 415.741 512.542 419.481 518.171C420.302 519.33 420.824 520.674 421 522.084C421.176 523.493 421.002 524.924 420.491 526.25Z" fill="#3E63F6"/>
<path d="M346.769 566.795C346.592 566.743 346.443 566.624 346.352 566.464C346.261 566.303 346.236 566.114 346.283 565.935C357.616 523.407 402.388 517.311 412.917 518.021C413.01 518.026 413.1 518.049 413.184 518.09C413.267 518.13 413.342 518.187 413.403 518.257C413.464 518.326 413.51 518.408 413.539 518.496C413.568 518.584 413.579 518.677 413.572 518.769C413.553 518.951 413.464 519.119 413.325 519.237C413.186 519.356 413.006 519.416 412.824 519.405C402.556 518.676 358.719 524.679 347.629 566.309C347.577 566.486 347.458 566.636 347.297 566.726C347.137 566.817 346.947 566.842 346.769 566.795Z" fill="white"/>
<path d="M396.572 545.251C396.43 545.231 396.299 545.166 396.198 545.064C392.058 541.477 387.178 538.847 381.906 537.363C376.633 535.88 371.098 535.578 365.695 536.48C365.513 536.497 365.331 536.445 365.186 536.334C365.04 536.223 364.942 536.062 364.91 535.881C364.883 535.698 364.928 535.512 365.036 535.362C365.144 535.211 365.307 535.109 365.489 535.077C371.124 534.139 376.897 534.46 382.393 536.015C387.89 537.57 392.974 540.322 397.282 544.073C397.349 544.137 397.401 544.214 397.437 544.299C397.473 544.385 397.491 544.476 397.491 544.568C397.491 544.661 397.473 544.752 397.437 544.837C397.401 544.922 397.349 545 397.282 545.064C397.198 545.165 397.084 545.237 396.957 545.271C396.83 545.304 396.695 545.297 396.572 545.251Z" fill="white"/>
<path d="M239.146 115.247L245.093 117.529V104.437C245.093 94.0391 253.378 91.5518 262.373 96.7509C271.388 101.95 278.681 114.574 278.681 124.972V126.842C279.935 126.459 281.259 126.364 282.554 126.565C283.85 126.766 285.083 127.257 286.162 128.002C289.578 130.229 292.42 133.231 294.457 136.763C296.495 140.295 297.67 144.258 297.888 148.33V149.191L306.192 153.978C308.438 155.445 310.308 157.419 311.65 159.742C312.991 162.065 313.768 164.671 313.915 167.35C313.915 172.287 310.456 174.288 306.192 171.82L239.146 133.088C236.898 131.625 235.028 129.651 233.688 127.327C232.349 125.003 231.579 122.395 231.441 119.717C231.441 114.798 234.863 112.797 239.146 115.247Z" fill="#E6E6E6"/>
<path d="M318.797 104.886L329.588 111.114C329.529 110.642 329.497 110.168 329.494 109.692V106.569C329.494 100.959 333.384 98.752 338.209 101.539C340.282 102.808 342.056 104.511 343.408 106.532C344.194 99.5374 349.692 96.9379 356.35 100.772C360.155 103.247 363.322 106.584 365.597 110.513C367.871 114.441 369.188 118.85 369.441 123.382V128.058C369.489 129.926 369.112 131.78 368.338 133.481L377.314 138.643C378.713 139.571 379.875 140.814 380.707 142.272C381.538 143.73 382.016 145.363 382.102 147.04C382.102 150.126 379.933 151.379 377.258 149.845L318.797 116.182C317.383 115.261 316.207 114.018 315.365 112.555C314.523 111.093 314.039 109.452 313.953 107.766C313.953 104.606 316.122 103.353 318.797 104.886Z" fill="#E6E6E6"/>
<path d="M277.017 388.723C269.162 402.001 261.607 413.54 256.295 419.076C246.215 423.751 222.539 430.97 213.281 432.167C211.655 432.374 210.009 431.989 208.643 431.082C204.996 428.689 202.172 428.296 198.339 426.968C195.328 425.939 194.056 424.499 193.495 425.098C192.915 425.777 192.624 426.656 192.683 427.547C192.743 428.438 193.148 429.27 193.813 429.867C195.251 431.233 196.846 432.426 198.563 433.42C194.457 434.439 190.173 434.516 186.033 433.644C178.01 431.531 174.232 435.384 179.655 444.099C181.526 447.203 189.231 452.197 204.716 450.85C210.24 450.552 215.742 449.928 221.192 448.98C236.041 445.801 252.555 442.734 262.71 439.629C266.488 438.144 269.868 435.8 272.585 432.784C289.659 413.316 295.326 399.439 302.807 386.834L302.171 366.262C290.052 365.851 283.581 377.614 277.017 388.723Z" fill="#FFA8A7"/>
<path d="M304.247 365.851C300.733 365.357 297.15 365.832 293.887 367.227C290.624 368.621 287.804 370.881 285.732 373.761C277.428 384.403 262.729 409.949 262.729 409.949C262.729 409.949 267.535 422.76 280.514 424.911L301.367 396.746C301.367 396.746 311.241 377.184 304.247 365.851Z" fill="#455A64"/>
<path d="M349.337 652.997H335.74V677.235H349.337V652.997Z" fill="#FFA8A7"/>
<path d="M302.208 651.707L288.631 652.193L287.939 626.535L302.208 626.048V651.707Z" fill="#FFA8A7"/>
<path d="M351.244 443.182C351.244 456.685 349.262 565.473 349.262 565.473C349.561 569.363 353.002 576.545 352.31 591.487C351.282 611.779 349.916 665.116 349.916 665.116C347.582 666.311 345.007 666.958 342.386 667.01C339.765 667.062 337.166 666.517 334.787 665.415C334.787 665.415 323.753 590.608 321.321 570.579C319.189 553.018 313.728 494.893 313.728 494.893L306.379 563.603C307.937 570.975 308.503 578.523 308.062 586.045C307.426 595.396 303.05 643.796 303.05 643.796C300.701 645.182 298.067 646.015 295.349 646.232C292.63 646.449 289.898 646.045 287.359 645.049C287.359 645.049 279.616 572.112 279.467 563.547C279.28 553.822 283.993 443.07 283.993 443.07L351.244 443.182Z" fill="#37474F"/>
<path d="M335.74 670.241V668.221C334.431 668.8 331.42 680.807 326.016 685.931C321.733 690.008 315.898 694.702 314.402 699.247C312.906 703.791 322.537 706.578 326.558 705.849C331.196 704.988 339.275 701.566 341.295 698.368C343.315 695.17 344.268 690.532 345.914 688.213C347.56 685.894 351.356 683.313 352.235 680.62C352.51 678.1 352.248 675.551 351.469 673.139C350.833 670.633 350.16 667.884 349.337 668.127V669.661C347.419 671.234 345.009 672.082 342.529 672.055C340.547 672.223 335.722 671.811 335.74 670.241Z" fill="#263238"/>
<path d="M288.481 647.817C287.77 647.817 287.191 648.883 285.638 650.641C283.33 653.069 280.631 655.092 277.653 656.626C272.566 659.281 262.691 663.358 258.184 665.472C255.379 666.781 255.51 670.297 258.409 672.298C261.307 674.299 268.283 675.739 276.662 673.794C281.225 672.728 287.172 668.333 290.95 668.576C294.727 668.819 301.741 668.744 304.527 666.706C307.314 664.667 306.192 660.441 305.406 656.794C304.546 652.792 303.536 646.564 302.208 646.845V648.247C300.581 650.828 292.147 651.875 288.556 649.986L288.481 647.817Z" fill="#263238"/>
<path d="M313.728 494.893C306.656 492.578 300.19 488.712 294.802 483.578C294.802 483.578 298.543 490.704 309.315 497.343L306.996 558.703L313.728 494.893Z" fill="#263238"/>
<path d="M343.651 367.833C343.651 367.833 354.872 370.414 354.068 390.687L351.73 422.947V471.385C341.744 482.718 297.495 481.895 282.253 470.487C282.253 470.487 283.974 413.166 285.003 391.098C285.732 375.426 289.341 367.534 304.752 365.813L323.696 366.636L343.651 367.833Z" fill="#3E63F6"/>
<path d="M329.363 325.717C329.428 328.431 328.954 331.131 327.97 333.661C326.987 336.191 325.512 338.502 323.63 340.459C321.749 342.417 319.499 343.983 317.01 345.067C314.521 346.151 311.842 346.731 309.128 346.775C297.907 346.775 291.324 337.087 288.893 325.717C284.404 304.901 297.944 304.64 309.128 304.64C314.606 304.753 319.815 307.036 323.609 310.989C327.404 314.941 329.473 320.239 329.363 325.717Z" fill="#263238"/>
<path d="M339.686 334.226C339.686 334.226 336.582 349.412 335.329 351.918C334.541 353.426 333.201 354.572 331.589 355.116L331.813 344.437L339.686 334.226Z" fill="#263238"/>
<path d="M335.778 312.476C335.778 312.476 338.003 311.915 340.378 315.618C342.398 318.778 342.866 325.885 339.686 334.319L333.833 335.03L335.778 312.476Z" fill="#263238"/>
<path d="M337.929 315.562L345.11 315.692C345.159 315.228 345.112 314.759 344.971 314.314C344.83 313.869 344.599 313.458 344.291 313.107C343.984 312.756 343.607 312.472 343.185 312.273C342.763 312.074 342.304 311.965 341.837 311.952C340.855 311.966 339.913 312.342 339.192 313.009C338.471 313.675 338.021 314.584 337.929 315.562Z" fill="#263238"/>
<path d="M338.807 313.86L344.119 308.754C343.813 308.393 343.435 308.1 343.01 307.892C342.585 307.685 342.121 307.568 341.648 307.548C341.176 307.529 340.704 307.608 340.263 307.78C339.823 307.952 339.422 308.214 339.088 308.548C338.384 309.237 337.964 310.165 337.912 311.149C337.86 312.133 338.18 313.101 338.807 313.86Z" fill="#263238"/>
<path d="M332.075 334.937C333.253 335.666 334.917 333.328 336.376 331.739C337.835 330.149 342.361 328.69 344.717 333.852C347.074 339.014 343.053 344.119 339.686 345.802C333.646 348.795 331.738 344.437 331.738 344.437L331.233 368.488C322.743 381.579 303.48 381.167 310.418 367.852V360.539C307.564 361.014 304.666 361.164 301.778 360.988C297.065 360.24 294.11 356.369 292.67 351.057C290.389 342.529 289.51 335.647 291.455 318.872C293.587 300.507 314.121 300.301 325.118 307.651C336.114 315 332.075 334.937 332.075 334.937Z" fill="#FFA8A7"/>
<path d="M306.491 316.01C311.391 315.524 316.234 314.514 321.153 314.14C322.214 314.012 323.288 314.062 324.332 314.29C328.073 315.318 327.624 319.695 328.222 322.743C329.251 328.017 330.092 336.938 332.075 336.975C332.673 336.975 334.917 333.104 336.376 331.72C337.178 330.527 337.632 329.135 337.685 327.699C338.059 325.53 338.246 323.304 338.415 321.097C338.564 319.227 338.751 317.357 338.751 315.487C338.837 313.373 338.667 311.257 338.246 309.184C337.778 307.421 336.878 305.801 335.628 304.471L335.254 304.06C332.789 301.483 329.797 299.467 326.483 298.15C321.715 296.364 316.713 295.274 311.634 294.915C306.561 294.556 301.511 293.931 296.504 293.045C296.217 292.961 295.912 292.961 295.625 293.045C295.422 293.157 295.251 293.319 295.126 293.515C295.002 293.711 294.929 293.935 294.914 294.167C294.709 295.329 294.838 296.525 295.284 297.618C295.731 298.71 296.478 299.653 297.439 300.338C294.054 300.6 290.164 298.842 286.91 297.944C286.647 297.833 286.364 297.775 286.078 297.775C285.792 297.775 285.509 297.833 285.246 297.944C284.919 298.173 284.687 298.512 284.591 298.898C284.354 299.777 284.322 300.698 284.498 301.591C284.795 304.298 285.802 306.878 287.415 309.072C289.936 312.354 293.497 314.682 297.514 315.674C300.471 316.244 303.499 316.358 306.491 316.01Z" fill="#263238"/>
<path d="M310.437 360.539C310.437 360.539 320.947 358.332 324.613 356.294C326.796 355.099 328.569 353.275 329.7 351.057C329.148 353.285 328.163 355.382 326.801 357.229C324.127 360.82 310.437 363.438 310.437 363.438V360.539Z" fill="#F28F8F"/>
<path d="M312.962 332.187C312.941 332.765 313.15 333.327 313.543 333.75C313.935 334.174 314.479 334.426 315.056 334.45C315.514 334.488 315.973 334.386 316.373 334.159C316.772 333.931 317.093 333.588 317.295 333.175C317.496 332.762 317.568 332.297 317.5 331.842C317.433 331.388 317.23 330.964 316.918 330.626C316.605 330.289 316.198 330.054 315.75 329.952C315.302 329.85 314.833 329.885 314.406 330.054C313.978 330.223 313.611 330.517 313.354 330.897C313.096 331.278 312.959 331.728 312.962 332.187Z" fill="#263238"/>
<path d="M316.328 323.117L320.835 325.717C321.163 325.076 321.237 324.335 321.043 323.641C320.849 322.948 320.401 322.354 319.788 321.976C319.489 321.809 319.158 321.705 318.817 321.672C318.476 321.639 318.132 321.677 317.807 321.785C317.481 321.892 317.182 322.066 316.927 322.295C316.673 322.525 316.469 322.804 316.328 323.117Z" fill="#263238"/>
<path d="M311.372 347.355L306.566 349.225C306.662 349.554 306.826 349.861 307.046 350.124C307.266 350.388 307.538 350.604 307.845 350.758C308.151 350.913 308.487 351.002 308.83 351.022C309.173 351.041 309.516 350.989 309.838 350.87C310.493 350.589 311.015 350.069 311.3 349.416C311.585 348.763 311.611 348.026 311.372 347.355Z" fill="#F28F8F"/>
<path d="M293.624 325.043L297.738 321.752C297.554 321.464 297.311 321.219 297.026 321.032C296.74 320.845 296.419 320.72 296.082 320.665C295.745 320.61 295.4 320.627 295.07 320.715C294.74 320.802 294.432 320.958 294.166 321.172C293.617 321.638 293.257 322.29 293.157 323.004C293.057 323.718 293.223 324.444 293.624 325.043Z" fill="#263238"/>
<path d="M295.438 331.57C295.471 331.979 295.622 332.37 295.873 332.695C296.124 333.02 296.465 333.264 296.853 333.399C297.24 333.533 297.659 333.552 298.057 333.452C298.456 333.353 298.816 333.139 299.095 332.838C299.374 332.537 299.559 332.161 299.628 331.756C299.697 331.351 299.646 330.935 299.483 330.559C299.319 330.183 299.049 329.862 298.706 329.636C298.363 329.411 297.962 329.29 297.551 329.289C297.262 329.298 296.978 329.365 296.715 329.485C296.452 329.605 296.215 329.776 296.019 329.989C295.822 330.201 295.67 330.45 295.57 330.721C295.471 330.993 295.426 331.281 295.438 331.57Z" fill="#263238"/>
<path d="M306.715 329.812L306.472 343.109L298.917 341.389L306.715 329.812Z" fill="#F28F8F"/>
<path d="M127.291 441.181L139.017 434.411L143.655 428.782L131.947 435.552L127.291 441.181Z" fill="#3E63F6"/>
<path opacity="0.4" d="M127.291 441.181L139.017 434.411L143.655 428.782L131.947 435.552L127.291 441.181Z" fill="black"/>
<path d="M159.177 459.584L170.903 452.814L180.684 444.155L168.977 450.906L159.177 459.584Z" fill="#3E63F6"/>
<path opacity="0.4" d="M159.177 459.584L170.903 452.814L180.684 444.155L168.977 450.906L159.177 459.584Z" fill="black"/>
<path d="M258.783 482.942C261.555 486.659 263.233 491.077 263.626 495.697C260.866 491.974 259.189 487.559 258.783 482.942ZM286.031 483.298C282.085 456.461 267.666 429.923 250.498 419.992C242.25 415.223 234.62 415.055 228.504 418.627L217.47 424.986L216.853 425.36C216.362 425.63 215.887 425.93 215.432 426.257C214.526 426.881 213.675 427.582 212.889 428.352L212.515 428.707C212.178 429.044 211.823 429.437 211.505 429.811C211.187 430.185 210.7 430.764 210.326 431.269C209.533 432.314 208.814 433.414 208.176 434.561C207.839 435.141 207.521 435.758 207.222 436.431L110.852 380.812L99.1444 387.563V395.044L100.136 395.605L101.071 396.147V397.644L99.2005 398.747V403.086L113.358 433.009L127.347 441.106L132.003 435.496L144.347 442.883L151.435 455.021L159.252 459.528L169.033 450.85L181.039 457.788L185.079 474.452L205.258 486.122C206.256 490.363 207.505 494.541 208.999 498.633C209.129 499.045 209.298 499.475 209.466 499.942C216.161 517.522 226.803 532.577 238.809 539.515C240.248 540.369 241.756 541.1 243.316 541.703C244.141 542.031 244.984 542.312 245.841 542.545C246.589 542.744 247.337 542.913 248.085 543.05C250.447 543.48 252.867 543.48 255.229 543.05L256.202 542.807C256.667 542.713 257.123 542.582 257.567 542.414L258.614 542.003C258.985 541.869 259.342 541.7 259.68 541.498C260.026 541.348 260.363 541.179 260.69 540.993L261.176 540.693C261.265 540.664 261.347 540.62 261.42 540.563C264.094 539.029 270.677 535.214 272.472 534.204C281.374 529.042 287.135 515.988 287.135 497.53C287.119 492.765 286.751 488.008 286.031 483.298Z" fill="#3E63F6"/>
<path d="M255.36 505.59C250.722 502.916 246.982 494.986 246.982 487.88C246.982 480.773 250.722 477.163 255.36 479.819C259.998 482.475 263.72 490.423 263.72 497.548C263.72 504.674 259.98 508.265 255.36 505.59ZM274.305 490.049C270.378 463.231 255.959 436.674 238.772 426.762C230.805 422.162 223.436 421.825 217.452 424.986L216.835 425.36C216.343 425.63 215.869 425.93 215.413 426.257C214.507 426.881 213.656 427.582 212.87 428.352L212.496 428.707C212.159 429.044 211.804 429.437 211.486 429.811C211.168 430.185 210.682 430.764 210.308 431.269C209.514 432.314 208.795 433.414 208.157 434.561C207.82 435.141 207.502 435.758 207.203 436.431C205.46 440.046 204.202 443.876 203.463 447.82L99.1257 387.563V395.044L100.117 395.605L101.052 396.147V397.644L99.1818 398.747V403.086L113.339 433.009L127.328 441.106L131.985 435.496L144.328 442.883L151.416 455.021L159.233 459.528L169.014 450.85L181.021 457.788L185.06 474.452L205.258 486.122C206.256 490.363 207.505 494.541 208.999 498.633C209.129 499.045 209.298 499.475 209.466 499.942C216.161 517.522 226.803 532.577 238.809 539.515C240.248 540.369 241.756 541.1 243.316 541.703C244.141 542.031 244.984 542.312 245.841 542.545C246.589 542.744 247.337 542.913 248.085 543.05C250.447 543.48 252.867 543.48 255.229 543.05L256.202 542.807C256.667 542.713 257.123 542.582 257.567 542.414L258.614 542.003C258.985 541.869 259.342 541.7 259.68 541.498C260.026 541.348 260.363 541.179 260.69 540.993L261.176 540.693C261.265 540.664 261.347 540.62 261.42 540.562C269.948 535.176 275.427 522.31 275.427 504.3C275.396 499.529 275.021 494.766 274.305 490.049Z" fill="#3E63F6"/>
<path opacity="0.4" d="M263.72 497.53C263.72 504.655 259.98 508.265 255.36 505.59C250.741 502.916 246.982 495.005 246.982 487.88C246.982 480.754 250.722 477.145 255.36 479.819C256.696 480.632 257.859 481.7 258.783 482.961C259.185 487.579 260.862 491.995 263.626 495.716C263.695 496.318 263.726 496.924 263.72 497.53Z" fill="black"/>
<path opacity="0.4" d="M287.097 497.511C287.097 515.97 281.337 529.023 272.435 534.185C270.565 535.195 264.057 539.01 261.382 540.544C269.91 535.158 275.39 522.291 275.39 504.281C275.37 499.517 275.007 494.761 274.305 490.049C270.378 463.231 255.959 436.674 238.772 426.762C230.805 422.162 223.436 421.825 217.452 424.986L228.486 418.627C234.601 415.055 242.232 415.223 250.479 419.992C267.666 429.923 282.085 456.461 286.012 483.298C286.725 488.002 287.087 492.753 287.097 497.511Z" fill="white"/>
<path d="M275.39 504.244C275.39 522.253 269.91 535.12 261.382 540.506C264.057 538.973 270.64 535.158 272.435 534.148C281.337 528.986 287.097 515.932 287.097 497.474C287.097 496.8 287.097 496.108 287.097 495.416L275.39 502.186C275.371 502.916 275.39 503.589 275.39 504.244Z" fill="#3E63F6"/>
<path opacity="0.1" d="M275.39 504.244C275.39 522.253 269.91 535.12 261.382 540.506C264.057 538.973 270.64 535.158 272.435 534.148C281.337 528.986 287.097 515.932 287.097 497.474C287.097 496.8 287.097 496.108 287.097 495.416L275.39 502.186C275.371 502.916 275.39 503.589 275.39 504.244Z" fill="black"/>
<path opacity="0.15" d="M203.912 455.469V459.266L99.1444 398.784L101.071 397.662V396.091L203.912 455.469Z" fill="black"/>
<path opacity="0.15" d="M203.912 457.04V459.266L99.1444 398.784L101.071 397.662V397.644L203.912 457.04Z" fill="black"/>
<path opacity="0.15" d="M249.469 534.166C245.499 534.063 241.626 532.908 238.248 530.819C221.173 520.963 207.278 491.639 207.278 465.456C207.278 450.177 211.897 438.769 219.958 434.112C225.568 430.858 232.207 431.269 239.183 435.29C256.239 445.146 270.135 474.564 270.135 500.746C270.135 516.007 265.515 527.434 257.455 532.072C255.024 533.46 252.269 534.183 249.469 534.166ZM228.056 433.832C225.563 433.818 223.112 434.463 220.949 435.702C213.599 439.947 209.204 451.075 209.204 465.438C209.204 491.022 222.67 519.673 239.239 529.173C245.579 532.913 251.582 533.25 256.576 530.37C263.926 526.125 268.321 515.016 268.321 500.653C268.321 475.05 254.855 446.418 238.304 436.899C235.211 435.017 231.676 433.984 228.056 433.906V433.832Z" fill="black"/>
<path opacity="0.4" d="M207.128 436.394C205.385 440.009 204.127 443.838 203.388 447.783L99.0509 387.526L110.758 380.775L207.128 436.394Z" fill="white"/>
<path d="M342.735 442.247C348.196 431.905 354.442 408.678 357.547 396.952C361.96 380.307 354.816 369.834 346.7 369.404C341.632 370.189 324.931 430.914 324.931 430.914C323.061 432.391 297.682 445.277 289.528 448.512C288.07 449.064 286.461 449.064 285.003 448.512C281.094 447.091 278.42 447.353 274.586 446.979C271.575 446.68 270.06 445.614 269.667 446.249C269.31 447.039 269.265 447.933 269.538 448.755C269.812 449.576 270.386 450.264 271.145 450.682C272.795 451.643 274.553 452.409 276.381 452.963C273.103 453.958 269.687 454.419 266.263 454.329C258.409 454.16 255.585 457.564 261.682 465.55C265.422 470.524 271.612 472.095 285.433 467.326C289.397 465.942 294.784 463.268 299.814 461.454C310.175 457.714 312.906 457.265 320.798 454.59C332.299 450.701 340.304 446.848 342.735 442.247Z" fill="#FFA8A7"/>
<path d="M343.651 367.833C348.42 368.488 353.002 369.554 355.826 373.443C358.65 377.333 360.913 382.794 358.145 397.662C356.026 408.118 353.189 418.416 349.655 428.483C349.655 428.483 338.546 433.233 326.745 421.189L334.861 389.808C334.861 389.808 336.171 369.404 343.651 367.833Z" fill="#455A64"/>
</g>
</svg>
