<svg width="604" height="614" viewBox="0 0 604 614" fill="none" xmlns="http://www.w3.org/2000/svg">
<path d="M302 613.884C468.79 613.884 604 535.822 604 439.527C604 343.232 468.79 265.169 302 265.169C135.21 265.169 0 343.232 0 439.527C0 535.822 135.21 613.884 302 613.884Z" fill="#F5F5F5"/>
<path d="M257.362 415.131C291.514 415.131 319.199 399.144 319.199 379.423C319.199 359.702 291.514 343.716 257.362 343.716C223.211 343.716 195.525 359.702 195.525 379.423C195.525 399.144 223.211 415.131 257.362 415.131Z" fill="#E0E0E0"/>
<path d="M495.938 481.109C529.185 500.305 529.185 531.382 495.938 550.619C462.691 569.855 408.779 569.829 375.545 550.619C342.312 531.409 342.298 500.345 375.545 481.095C408.792 461.846 462.691 461.885 495.938 481.109Z" fill="#E0E0E0"/>
<path d="M185.431 354.908L360.066 455.707C360.764 456.108 361.344 456.686 361.747 457.383C362.151 458.08 362.363 458.871 362.363 459.676C362.363 460.481 362.151 461.272 361.747 461.969C361.344 462.666 360.764 463.244 360.066 463.645L257.031 523.18C254.896 524.414 252.473 525.064 250.006 525.064C247.54 525.064 245.117 524.414 242.981 523.18L68.3723 422.315C67.6708 421.916 67.0875 421.339 66.6816 420.642C66.2758 419.945 66.062 419.152 66.062 418.346C66.062 417.539 66.2758 416.747 66.6816 416.049C67.0875 415.352 67.6708 414.775 68.3723 414.377L171.42 354.842C173.556 353.622 175.975 352.986 178.435 352.998C180.894 353.01 183.307 353.668 185.431 354.908Z" fill="#E0E0E0"/>
<path d="M118.13 429.909L239.158 501.866C239.591 502.121 239.951 502.484 240.201 502.921C240.45 503.357 240.582 503.851 240.582 504.354C240.582 504.856 240.45 505.35 240.201 505.787C239.951 506.223 239.591 506.586 239.158 506.841L174.331 544.242C172.989 545.015 171.467 545.422 169.919 545.422C168.37 545.422 166.848 545.015 165.507 544.242L44.5584 472.284C44.1215 472.032 43.7587 471.67 43.5064 471.233C43.2541 470.797 43.1213 470.301 43.1213 469.797C43.1213 469.293 43.2541 468.797 43.5064 468.361C43.7587 467.924 44.1215 467.562 44.5584 467.31L109.385 429.909C110.718 429.15 112.224 428.751 113.758 428.751C115.291 428.751 116.798 429.15 118.13 429.909Z" fill="#E0E0E0"/>
<path d="M340.512 282.937L548.223 402.8C549.697 403.652 551.369 404.1 553.071 404.1C554.774 404.1 556.446 403.652 557.92 402.8L570.965 395.273C571.476 394.98 571.901 394.557 572.196 394.047C572.492 393.537 572.647 392.958 572.647 392.369C572.647 391.779 572.492 391.2 572.196 390.691C571.901 390.181 571.476 389.758 570.965 389.465L363.4 269.681C361.889 268.804 360.173 268.342 358.426 268.342C356.678 268.342 354.962 268.804 353.451 269.681L340.539 277.129C340.026 277.42 339.599 277.841 339.302 278.349C339.004 278.858 338.846 279.436 338.843 280.026C338.84 280.615 338.993 281.194 339.286 281.706C339.579 282.217 340.002 282.642 340.512 282.937Z" fill="#E0E0E0"/>
<path d="M355.846 276.851L557.682 393.381C558.403 393.799 559.222 394.02 560.056 394.021C560.889 394.022 561.709 393.804 562.431 393.388C563.154 392.973 563.755 392.374 564.173 391.653C564.591 390.932 564.812 390.113 564.813 389.279V123.437C564.809 121.168 564.21 118.94 563.075 116.976C561.939 115.011 560.308 113.38 558.344 112.244L365.491 0.861425C364.513 0.297033 363.404 -6.47996e-05 362.275 1.06012e-08C361.147 6.48208e-05 360.038 0.297289 359.06 0.861793C358.083 1.4263 357.271 2.23818 356.707 3.21584C356.143 4.19349 355.846 5.30245 355.846 6.43123V276.851Z" fill="#94A9E5"/>
<path opacity="0.5" d="M355.846 276.851L557.682 393.381C558.403 393.799 559.222 394.02 560.056 394.021C560.889 394.022 561.709 393.804 562.431 393.388C563.154 392.973 563.755 392.374 564.173 391.653C564.591 390.932 564.812 390.113 564.813 389.279V123.437C564.809 121.168 564.21 118.94 563.075 116.976C561.939 115.011 560.308 113.38 558.344 112.244L365.491 0.861425C364.513 0.297033 363.404 -6.47996e-05 362.275 1.06012e-08C361.147 6.48208e-05 360.038 0.297289 359.06 0.861793C358.083 1.4263 357.271 2.23818 356.707 3.21584C356.143 4.19349 355.846 5.30245 355.846 6.43123V276.851Z" fill="white"/>
<path d="M361.561 289.063L546.635 395.908V125.765L361.561 18.9203V289.063Z" fill="#94A9E5"/>
<path opacity="0.8" d="M361.561 289.063L546.635 395.908V125.765L361.561 18.9203V289.063Z" fill="white"/>
<path d="M343.489 267.485L528.563 374.33L546.635 125.765L361.561 18.9203L343.489 267.485Z" fill="#94A9E5"/>
<path opacity="0.9" d="M343.489 267.485L528.563 374.33L546.635 125.765L361.561 18.9203L343.489 267.485Z" fill="white"/>
<path d="M361.561 18.9203L546.635 125.765L553.647 121.717L368.573 14.8587L361.561 18.9203Z" fill="#94A9E5"/>
<path opacity="0.7" d="M361.561 18.9203L546.635 125.765L553.647 121.717L368.573 14.8587L361.561 18.9203Z" fill="white"/>
<path d="M553.647 121.717V390.827L546.635 395.908V125.765L553.647 121.717Z" fill="#94A9E5"/>
<path d="M553.647 121.717V390.827L546.635 395.908V125.765L553.647 121.717Z" fill="#94A9E5"/>
<path opacity="0.7" d="M553.647 121.717V390.827L546.635 395.908V125.765L553.647 121.717Z" fill="white"/>
<path d="M495.7 160.825C495.537 160.845 495.373 160.845 495.21 160.825C494.931 160.749 494.673 160.609 494.457 160.416C494.241 160.223 494.073 159.982 493.967 159.713L488.463 145.888C488.285 145.43 488.295 144.92 488.49 144.469C488.686 144.018 489.052 143.663 489.508 143.48C489.734 143.388 489.976 143.342 490.219 143.344C490.463 143.346 490.704 143.396 490.928 143.492C491.152 143.588 491.355 143.728 491.524 143.903C491.694 144.078 491.827 144.285 491.916 144.512L496.494 156.009L522.834 135.092C523.026 134.934 523.247 134.816 523.485 134.744C523.722 134.673 523.972 134.65 524.219 134.677C524.466 134.704 524.705 134.781 524.921 134.902C525.138 135.024 525.328 135.187 525.48 135.384C525.635 135.576 525.751 135.798 525.82 136.035C525.89 136.272 525.911 136.521 525.884 136.767C525.857 137.013 525.782 137.251 525.663 137.468C525.543 137.684 525.383 137.875 525.189 138.029L496.89 160.52C496.54 160.755 496.12 160.863 495.7 160.825Z" fill="#94A9E5"/>
<path d="M464.94 131.018C464.616 131.017 464.298 130.935 464.014 130.78L386.09 85.7977C385.663 85.5504 385.353 85.1438 385.226 84.6674C385.1 84.191 385.167 83.6839 385.415 83.2576C385.662 82.8313 386.069 82.5207 386.545 82.3941C387.022 82.2676 387.529 82.3355 387.955 82.5829L465.879 127.565C466.239 127.767 466.52 128.083 466.68 128.463C466.839 128.843 466.867 129.266 466.759 129.663C466.651 130.061 466.414 130.412 466.084 130.659C465.755 130.907 465.352 131.038 464.94 131.031V131.018Z" fill="#94A9E5"/>
<path d="M463.154 147.013C462.828 147.014 462.508 146.927 462.228 146.761L384.304 101.779C383.877 101.532 383.567 101.125 383.44 100.649C383.314 100.173 383.381 99.6656 383.629 99.2393C383.876 98.813 384.283 98.5024 384.759 98.3758C385.236 98.2493 385.743 98.3172 386.169 98.5645L464.093 143.546C464.453 143.748 464.734 144.065 464.894 144.445C465.053 144.825 465.081 145.247 464.973 145.645C464.865 146.043 464.628 146.393 464.298 146.641C463.969 146.889 463.566 147.02 463.154 147.013Z" fill="#94A9E5"/>
<path d="M508.123 181.08C507.279 181.079 506.449 180.86 505.715 180.445L481.623 167.122C479.886 166.17 478.461 164.735 477.522 162.991C476.583 161.246 476.169 159.267 476.331 157.292L478.62 130.422C478.696 129.592 478.98 128.793 479.445 128.101C479.91 127.408 480.541 126.843 481.281 126.457C482.02 126.072 482.845 125.878 483.679 125.893C484.513 125.909 485.33 126.133 486.055 126.546L511.39 141.178C512.592 141.88 513.575 142.903 514.227 144.132C514.879 145.362 515.175 146.749 515.082 148.137L513.018 176.463C512.956 177.288 512.687 178.084 512.236 178.778C511.785 179.471 511.167 180.04 510.438 180.432C509.73 180.831 508.935 181.054 508.123 181.08ZM483.634 129.602C483.32 129.601 483.017 129.717 482.785 129.927C482.552 130.138 482.407 130.428 482.377 130.74L480.088 157.61C479.98 158.864 480.237 160.122 480.828 161.233C481.42 162.343 482.321 163.258 483.422 163.868L507.514 177.203C507.7 177.299 507.907 177.348 508.116 177.348C508.325 177.348 508.532 177.299 508.718 177.203C508.902 177.104 509.058 176.959 509.171 176.784C509.284 176.608 509.351 176.407 509.366 176.198L511.43 147.873C511.476 147.181 511.328 146.49 511.003 145.878C510.678 145.266 510.189 144.756 509.591 144.406L484.243 129.774C484.06 129.66 483.849 129.6 483.634 129.602Z" fill="#94A9E5"/>
<path d="M459.436 197.22C459.111 197.22 458.791 197.133 458.51 196.969L380.586 151.987C380.16 151.74 379.849 151.333 379.722 150.857C379.596 150.38 379.664 149.873 379.911 149.447C380.159 149.021 380.565 148.71 381.042 148.584C381.518 148.457 382.025 148.525 382.451 148.772L460.376 193.754C460.735 193.956 461.017 194.272 461.176 194.652C461.335 195.033 461.363 195.455 461.255 195.853C461.148 196.251 460.91 196.601 460.581 196.849C460.251 197.097 459.849 197.227 459.436 197.22Z" fill="#94A9E5"/>
<path d="M457.65 213.202C457.325 213.202 457.005 213.115 456.724 212.951L378.8 167.969C378.589 167.846 378.404 167.684 378.256 167.49C378.108 167.296 377.999 167.074 377.936 166.839C377.874 166.603 377.858 166.357 377.891 166.115C377.923 165.873 378.003 165.64 378.125 165.429C378.248 165.218 378.411 165.033 378.604 164.885C378.798 164.736 379.02 164.628 379.256 164.565C379.491 164.503 379.737 164.487 379.979 164.519C380.221 164.552 380.454 164.632 380.665 164.754L458.59 209.736C458.949 209.938 459.231 210.254 459.39 210.634C459.549 211.014 459.577 211.437 459.469 211.835C459.362 212.232 459.124 212.583 458.795 212.831C458.465 213.078 458.063 213.209 457.65 213.202Z" fill="#94A9E5"/>
<path d="M502.619 247.269C501.777 247.265 500.95 247.051 500.211 246.647L476.119 233.312C474.381 232.361 472.955 230.926 472.016 229.181C471.077 227.436 470.664 225.457 470.827 223.482L473.209 196.665C473.282 195.832 473.564 195.032 474.028 194.337C474.492 193.642 475.124 193.076 475.864 192.689C476.605 192.303 477.432 192.11 478.267 192.127C479.102 192.144 479.92 192.372 480.644 192.788L505.979 207.421C507.181 208.119 508.164 209.139 508.817 210.366C509.469 211.594 509.765 212.979 509.671 214.366L507.607 242.665C507.513 243.915 506.952 245.083 506.035 245.936C505.117 246.79 503.912 247.266 502.659 247.269H502.619ZM478.13 195.791C477.928 195.795 477.729 195.844 477.548 195.937C477.359 196.032 477.197 196.175 477.079 196.351C476.96 196.527 476.89 196.731 476.873 196.942L474.532 223.799C474.423 225.053 474.68 226.311 475.272 227.422C475.864 228.533 476.765 229.448 477.866 230.057L501.957 243.393C502.141 243.498 502.348 243.554 502.559 243.554C502.771 243.554 502.978 243.498 503.161 243.393C503.349 243.297 503.507 243.154 503.621 242.977C503.735 242.801 503.8 242.597 503.81 242.387L505.874 214.062C505.919 213.37 505.771 212.68 505.447 212.068C505.122 211.455 504.633 210.946 504.035 210.596L478.686 195.963C478.519 195.858 478.327 195.799 478.13 195.791Z" fill="#94A9E5"/>
<path d="M490.897 226.406C490.735 226.425 490.57 226.425 490.408 226.406C490.128 226.329 489.871 226.189 489.655 225.997C489.439 225.804 489.271 225.563 489.164 225.294L483.66 211.482C483.518 211.032 483.553 210.544 483.758 210.119C483.963 209.694 484.323 209.363 484.764 209.194C485.205 209.025 485.693 209.031 486.13 209.21C486.567 209.39 486.919 209.729 487.113 210.159L491.731 221.537L518.032 200.634C518.421 200.372 518.895 200.266 519.358 200.337C519.822 200.409 520.242 200.652 520.534 201.02C520.826 201.387 520.969 201.85 520.934 202.318C520.9 202.786 520.69 203.224 520.347 203.544L492.048 226.035C491.717 226.284 491.312 226.414 490.897 226.406Z" fill="#94A9E5"/>
<path d="M453.946 263.41C453.62 263.411 453.3 263.324 453.02 263.158L375.082 218.177C374.673 217.92 374.38 217.514 374.264 217.046C374.147 216.577 374.217 216.082 374.459 215.663C374.701 215.245 375.095 214.937 375.559 214.804C376.023 214.671 376.521 214.722 376.948 214.948L454.872 259.93C455.23 260.132 455.511 260.447 455.671 260.826C455.83 261.204 455.859 261.625 455.753 262.022C455.647 262.42 455.412 262.77 455.085 263.019C454.758 263.268 454.357 263.4 453.946 263.397V263.41Z" fill="#94A9E5"/>
<path d="M452.16 279.405C451.83 279.404 451.507 279.318 451.221 279.153L373.296 234.172C373.085 234.049 372.9 233.886 372.752 233.692C372.604 233.498 372.495 233.277 372.433 233.041C372.37 232.805 372.355 232.559 372.387 232.318C372.419 232.076 372.499 231.843 372.622 231.631C372.744 231.42 372.907 231.235 373.101 231.087C373.295 230.939 373.516 230.831 373.752 230.768C373.988 230.705 374.234 230.69 374.476 230.722C374.717 230.754 374.951 230.834 375.162 230.957L453.086 275.939C453.44 276.144 453.717 276.46 453.874 276.839C454.031 277.217 454.059 277.637 453.954 278.032C453.848 278.428 453.615 278.778 453.291 279.029C452.967 279.279 452.57 279.416 452.16 279.418V279.405Z" fill="#94A9E5"/>
<path d="M497.115 313.459C496.277 313.463 495.451 313.249 494.721 312.837L470.563 299.501C468.825 298.549 467.401 297.114 466.462 295.369C465.523 293.625 465.109 291.646 465.271 289.671L467.573 262.814C467.641 261.983 467.92 261.182 468.383 260.488C468.846 259.794 469.477 259.228 470.219 258.845C470.96 258.461 471.786 258.269 472.62 258.287C473.455 258.306 474.272 258.534 474.995 258.951L500.33 273.584C501.531 274.285 502.511 275.309 503.161 276.539C503.811 277.768 504.105 279.155 504.008 280.542L501.944 308.868C501.88 309.692 501.61 310.487 501.16 311.181C500.709 311.874 500.092 312.444 499.364 312.837C498.674 313.218 497.903 313.431 497.115 313.459ZM472.627 261.994C472.425 261.993 472.226 262.039 472.045 262.126C471.86 262.228 471.703 262.373 471.585 262.547C471.468 262.722 471.394 262.923 471.37 263.132L469.081 289.989C468.971 291.243 469.227 292.502 469.819 293.613C470.411 294.724 471.313 295.639 472.415 296.246L496.52 309.582C496.701 309.686 496.907 309.742 497.116 309.745C497.325 309.747 497.531 309.696 497.715 309.597C497.899 309.498 498.055 309.353 498.168 309.177C498.28 309.001 498.346 308.799 498.359 308.59L500.423 280.251C500.472 279.559 500.325 278.868 500 278.255C499.675 277.642 499.184 277.133 498.584 276.785L473.209 262.153C473.03 262.056 472.83 262.002 472.627 261.994Z" fill="#94A9E5"/>
<path d="M495.819 110.472C494.427 110.477 493.058 110.117 491.85 109.426L458.656 90.6796C458.289 90.4725 458.004 90.1455 457.849 89.7535C456.245 85.613 453.38 82.0817 449.659 79.659C448.336 78.8652 444.87 77.2908 443.045 79.9501C442.775 80.3226 442.379 80.5835 441.93 80.6835C441.482 80.7835 441.012 80.7155 440.61 80.4925L412.007 64.4313C410.4 63.5033 409.065 62.1689 408.136 60.562C407.207 58.9551 406.717 57.1322 406.715 55.2762V34.9286C406.717 32.7206 407.351 30.5594 408.542 28.7002C409.733 26.8411 411.431 25.3618 413.436 24.4372C413.706 24.3125 414.002 24.2545 414.299 24.2684C414.596 24.2822 414.885 24.3673 415.143 24.5166L507.038 77.9126C507.336 78.0835 507.581 78.334 507.745 78.6362C507.909 78.9384 507.986 79.2803 507.967 79.6236C507.948 79.9669 507.833 80.2981 507.636 80.5801C507.44 80.862 507.168 81.0837 506.853 81.2201C505.979 81.6033 505.236 82.2329 504.714 83.0317C504.192 83.8306 503.915 84.7642 503.915 85.7183V102.415C503.928 103.82 503.567 105.204 502.87 106.424C502.173 107.644 501.164 108.658 499.946 109.36C498.696 110.096 497.27 110.48 495.819 110.472ZM460.984 87.7557L493.689 106.185C494.347 106.558 495.092 106.751 495.849 106.746C496.605 106.74 497.347 106.537 498.001 106.155C498.654 105.774 499.196 105.228 499.572 104.571C499.948 103.915 500.146 103.171 500.145 102.415V85.7183C500.144 83.4563 501.032 81.2845 502.619 79.6722L414.111 28.2474C412.985 28.9504 412.054 29.9242 411.403 31.0798C410.751 32.2354 410.399 33.5359 410.38 34.8624V55.2762C410.381 56.4793 410.701 57.6606 411.308 58.6995C411.914 59.7384 412.786 60.5978 413.833 61.19L441.047 76.5235C443.627 74.248 447.529 74.1686 451.472 76.4441C455.736 79.1404 459.059 83.0923 460.984 87.7557Z" fill="#94A9E5"/>
<path d="M266.967 322.825L251.091 419.907C250.975 420.616 250.611 421.261 250.063 421.726C249.515 422.191 248.82 422.447 248.101 422.447C247.675 422.448 247.254 422.358 246.864 422.185C246.475 422.012 246.127 421.758 245.842 421.441C245.557 421.124 245.343 420.75 245.212 420.344C245.082 419.939 245.038 419.51 245.085 419.086L256.251 318.936L266.967 322.825Z" fill="#263238"/>
<path d="M212.05 290.174L196.174 387.255C196.06 387.963 195.699 388.608 195.153 389.074C194.608 389.539 193.914 389.795 193.197 389.795C192.771 389.796 192.349 389.707 191.96 389.534C191.571 389.36 191.222 389.107 190.938 388.79C190.653 388.472 190.438 388.099 190.308 387.693C190.177 387.287 190.134 386.859 190.181 386.435L201.347 286.271L212.05 290.174Z" fill="#263238"/>
<path d="M291.39 300.123L307.094 383.789C307.239 384.424 307.621 384.98 308.163 385.342C308.705 385.704 309.364 385.846 310.007 385.738C310.649 385.629 311.226 385.28 311.619 384.76C312.012 384.24 312.192 383.59 312.121 382.942L300.532 305.402L291.39 300.123Z" fill="#263238"/>
<path d="M235.85 268.913L251.462 352.064C251.57 352.65 251.882 353.179 252.341 353.559C252.801 353.938 253.379 354.144 253.975 354.141C254.341 354.139 254.703 354.058 255.035 353.905C255.367 353.752 255.663 353.529 255.903 353.252C256.142 352.975 256.319 352.651 256.423 352.299C256.526 351.948 256.553 351.579 256.502 351.217L244.992 274.179L235.85 268.913Z" fill="#263238"/>
<path d="M240.362 262.589C243.977 261.003 247.107 258.486 249.431 255.295C251.756 252.104 253.191 248.352 253.592 244.425C256.119 218.957 265.089 166.461 295.504 183.937C333.024 205.502 319.596 268.146 314.132 288.229C312.911 292.754 310.536 296.884 307.239 300.215C300.452 307.055 286.415 318.817 262.548 328.819C259.615 330.053 256.348 330.249 253.287 329.374C241.38 326.001 210.449 315.615 194.996 295.863C194.119 294.742 193.722 293.32 193.89 291.907C194.059 290.494 194.78 289.205 195.896 288.322C202.101 283.347 216.23 273.398 240.362 262.589Z" fill="#94A9E5"/>
<path opacity="0.5" d="M240.362 262.589C243.977 261.003 247.107 258.486 249.431 255.295C251.756 252.104 253.191 248.352 253.592 244.425C256.119 218.957 265.089 166.461 295.504 183.937C333.024 205.502 319.596 268.146 314.132 288.229C312.911 292.754 310.536 296.884 307.239 300.215C300.452 307.055 286.415 318.817 262.548 328.819C259.615 330.053 256.348 330.249 253.287 329.374C241.38 326.001 210.449 315.615 194.996 295.863C194.119 294.742 193.722 293.32 193.89 291.907C194.059 290.494 194.78 289.205 195.896 288.322C202.101 283.347 216.23 273.398 240.362 262.589Z" fill="black"/>
<path d="M193.832 292.277C193.752 293.568 194.147 294.844 194.943 295.863C195.777 296.921 196.65 297.94 197.589 298.945C198.079 299.488 198.595 300.03 199.111 300.559C199.627 301.089 200.156 301.605 200.685 302.107L202.312 303.615C202.868 304.118 203.437 304.608 204.006 305.097C212.764 312.453 223.401 318.049 232.9 322.098L234.66 322.825L234.845 322.905L236.459 323.553L236.75 323.672L238.258 324.267L238.602 324.4L240.018 324.929L240.415 325.074C240.864 325.246 241.288 325.405 241.738 325.551L242.201 325.723L243.405 326.146L243.907 326.318L245.019 326.702L245.548 326.887L246.553 327.218L247.122 327.403L248.035 327.694L248.644 327.892L249.424 328.131L250.086 328.342L250.734 328.541L251.541 328.779L251.951 328.898L253.089 329.229C256.149 330.104 259.416 329.908 262.35 328.673C286.164 318.671 300.254 306.91 307.041 300.07C310.337 296.739 312.712 292.608 313.933 288.084C319.397 268 332.826 205.357 295.306 183.792C294.631 183.408 293.983 183.064 293.334 182.76C293.197 182.681 293.056 182.611 292.911 182.548C292.276 182.244 291.654 181.979 291.046 181.741L290.86 181.675C290.265 181.45 289.696 181.265 289.114 181.093L288.85 181.014C288.241 180.842 287.632 180.709 287.037 180.59H286.878C285.692 180.374 284.485 180.285 283.28 180.326C282.129 180.365 280.988 180.543 279.88 180.855C285.873 178.209 293.189 178.328 300.439 182.495C337.972 204.06 324.531 266.691 319.08 286.787L318.154 290.227C316.339 297.239 312.243 303.447 306.511 307.876L296.774 315.324C286.244 323.272 274.731 329.826 262.522 334.825C259.588 336.058 256.323 336.258 253.261 335.394C241.354 332.02 210.409 321.648 194.957 301.882C194.297 301.038 193.91 300.014 193.845 298.945V292.33L193.832 292.277Z" fill="#94A9E5"/>
<path opacity="0.6" d="M193.832 292.277C193.752 293.568 194.147 294.844 194.943 295.863C195.777 296.921 196.65 297.94 197.589 298.945C198.079 299.488 198.595 300.03 199.111 300.559C199.627 301.089 200.156 301.605 200.685 302.107L202.312 303.615C202.868 304.118 203.437 304.608 204.006 305.097C212.764 312.453 223.401 318.049 232.9 322.098L234.66 322.825L234.845 322.905L236.459 323.553L236.75 323.672L238.258 324.267L238.602 324.4L240.018 324.929L240.415 325.074C240.864 325.246 241.288 325.405 241.738 325.551L242.201 325.723L243.405 326.146L243.907 326.318L245.019 326.702L245.548 326.887L246.553 327.218L247.122 327.403L248.035 327.694L248.644 327.892L249.424 328.131L250.086 328.342L250.734 328.541L251.541 328.779L251.951 328.898L253.089 329.229C256.149 330.104 259.416 329.908 262.35 328.673C286.164 318.671 300.254 306.91 307.041 300.07C310.337 296.739 312.712 292.608 313.933 288.084C319.397 268 332.826 205.357 295.306 183.792C294.631 183.408 293.983 183.064 293.334 182.76C293.197 182.681 293.056 182.611 292.911 182.548C292.276 182.244 291.654 181.979 291.046 181.741L290.86 181.675C290.265 181.45 289.696 181.265 289.114 181.093L288.85 181.014C288.241 180.842 287.632 180.709 287.037 180.59H286.878C285.692 180.374 284.485 180.285 283.28 180.326C282.129 180.365 280.988 180.543 279.88 180.855C285.873 178.209 293.189 178.328 300.439 182.495C337.972 204.06 324.531 266.691 319.08 286.787L318.154 290.227C316.339 297.239 312.243 303.447 306.511 307.876L296.774 315.324C286.244 323.272 274.731 329.826 262.522 334.825C259.588 336.058 256.323 336.258 253.261 335.394C241.354 332.02 210.409 321.648 194.957 301.882C194.297 301.038 193.91 300.014 193.845 298.945V292.33L193.832 292.277Z" fill="black"/>
<path d="M243.166 515.718C244.134 516.208 245.204 516.463 246.289 516.463C247.373 516.463 248.443 516.208 249.411 515.718C251.144 514.726 251.144 513.072 249.411 512.12C248.445 511.624 247.375 511.365 246.289 511.365C245.203 511.365 244.133 511.624 243.166 512.12C241.447 513.112 241.447 514.726 243.166 515.718Z" fill="#37474F"/>
<path d="M241.857 513.813H250.694V407.497H241.857V513.813Z" fill="#37474F"/>
<path d="M343.555 456.752C344.523 457.242 345.593 457.497 346.678 457.497C347.762 457.497 348.832 457.242 349.8 456.752C351.533 455.747 351.533 454.106 349.8 453.14C348.832 452.651 347.762 452.396 346.678 452.396C345.593 452.396 344.523 452.651 343.555 453.14C341.875 454.133 341.875 455.747 343.555 456.752Z" fill="#263238"/>
<path d="M342.299 454.847H351.136V348.531H342.299V454.847Z" fill="#263238"/>
<path d="M78.533 420.33C79.4991 420.826 80.5694 421.084 81.6552 421.084C82.7411 421.084 83.8114 420.826 84.7775 420.33C86.5106 419.338 86.5106 417.684 84.7775 416.732C83.8095 416.242 82.74 415.987 81.6552 415.987C80.5705 415.987 79.501 416.242 78.533 416.732C76.8131 417.724 76.8131 419.338 78.533 420.33Z" fill="#37474F"/>
<path d="M77.2232 418.438H86.0609L86.0609 312.122H77.2232L77.2232 418.438Z" fill="#37474F"/>
<path d="M186.503 339.879C187.369 340.322 188.328 340.554 189.301 340.554C190.274 340.554 191.233 340.322 192.099 339.879C192.435 339.763 192.727 339.546 192.933 339.256C193.14 338.967 193.251 338.62 193.251 338.265C193.251 337.909 193.14 337.563 192.933 337.273C192.727 336.984 192.435 336.766 192.099 336.651C191.233 336.207 190.274 335.976 189.301 335.976C188.328 335.976 187.369 336.207 186.503 336.651C186.166 336.766 185.875 336.984 185.668 337.273C185.462 337.563 185.35 337.909 185.35 338.265C185.35 338.62 185.462 338.967 185.668 339.256C185.875 339.546 186.166 339.763 186.503 339.879Z" fill="#455A64"/>
<path d="M185.325 338.185H193.25V249.465H185.325V338.185Z" fill="#455A64"/>
<path d="M351.136 330.922V352.077L246.276 412.617V391.462L351.136 330.922Z" fill="#263238"/>
<path d="M77.2365 293.865L246.275 391.462V412.617L77.2365 315.02V293.865Z" fill="#37474F"/>
<path d="M182.097 233.325L351.136 330.922L246.275 391.462L77.2365 293.865L182.097 233.325Z" fill="#455A64"/>
<path opacity="0.2" d="M182.626 337.947L104.874 293.058C104.687 292.95 104.532 292.795 104.424 292.608C104.316 292.421 104.26 292.209 104.26 291.993C104.26 291.777 104.316 291.565 104.424 291.378C104.532 291.191 104.687 291.036 104.874 290.928L119.837 282.289C120.027 282.189 120.238 282.137 120.452 282.137C120.666 282.137 120.878 282.189 121.067 282.289L198.82 327.178C199.003 327.287 199.156 327.442 199.261 327.627C199.367 327.813 199.423 328.023 199.423 328.236C199.423 328.45 199.367 328.66 199.261 328.845C199.156 329.031 199.003 329.186 198.82 329.295L183.843 337.947C183.658 338.052 183.448 338.106 183.235 338.106C183.022 338.106 182.812 338.052 182.626 337.947Z" fill="black"/>
<path d="M257.071 373.284L211.719 346.825C211.617 346.765 211.533 346.68 211.475 346.578C211.416 346.476 211.385 346.36 211.385 346.242C211.385 346.125 211.416 346.009 211.475 345.907C211.533 345.805 211.617 345.72 211.719 345.66L261.993 314.676L257.071 373.284Z" fill="#94A9E5"/>
<path opacity="0.4" d="M257.071 373.284L211.719 346.825C211.617 346.765 211.533 346.68 211.475 346.578C211.416 346.476 211.385 346.36 211.385 346.242C211.385 346.125 211.416 346.009 211.475 345.907C211.533 345.805 211.617 345.72 211.719 345.66L261.993 314.676L257.071 373.284Z" fill="black"/>
<path d="M257.071 373.284L307.636 344.007V330.697L257.071 359.856V373.284Z" fill="#94A9E5"/>
<path opacity="0.2" d="M257.071 373.284L307.636 344.007V330.697L257.071 359.856V373.284Z" fill="black"/>
<path d="M297.766 346.057L277.802 357.581C276.479 358.348 275.395 357.581 275.395 355.768C275.41 354.868 275.636 353.984 276.054 353.187C276.472 352.39 277.071 351.702 277.802 351.177L297.766 339.641C299.089 338.873 300.174 339.641 300.174 341.466C300.162 342.367 299.938 343.252 299.519 344.05C299.101 344.847 298.5 345.535 297.766 346.057Z" fill="#E6E6E6"/>
<path d="M272.471 357.461C272.42 358.425 272.142 359.362 271.659 360.197C271.176 361.032 270.502 361.74 269.693 362.264C268.158 363.15 266.914 362.436 266.914 360.663C266.967 359.7 267.246 358.764 267.728 357.929C268.211 357.095 268.884 356.386 269.693 355.861C271.227 354.974 272.471 355.689 272.471 357.461Z" fill="#E6E6E6"/>
<path d="M257.071 359.856L211.904 338.622C211.793 338.569 211.698 338.487 211.63 338.384C211.561 338.282 211.522 338.163 211.515 338.04C211.508 337.917 211.535 337.794 211.591 337.685C211.648 337.575 211.733 337.483 211.838 337.418L260.299 308.603C260.571 308.44 260.88 308.349 261.197 308.337C261.514 308.325 261.829 308.394 262.112 308.537L307.636 330.697L257.071 359.856Z" fill="#94A9E5"/>
<path d="M214.815 339.985V345.7L252.229 366.868V357.58L214.815 339.985Z" fill="#F5F5F5"/>
<path d="M252.229 366.868L257.071 363.838V359.856L252.229 357.58V366.868Z" fill="#E0E0E0"/>
<path d="M211.507 333.118V318.38H293.969C294.247 318.38 303.098 322.997 307.014 324.995C307.191 325.092 307.338 325.235 307.441 325.408C307.543 325.582 307.597 325.779 307.597 325.981C307.597 326.182 307.543 326.38 307.441 326.553C307.338 326.727 307.191 326.869 307.014 326.966L258.182 354.63C257.837 354.819 257.453 354.924 257.059 354.936C256.666 354.947 256.276 354.865 255.92 354.696L211.507 333.118Z" fill="#94A9E5"/>
<path opacity="0.4" d="M211.507 333.118V318.38H293.969C294.247 318.38 303.098 322.997 307.014 324.995C307.191 325.092 307.338 325.235 307.441 325.408C307.543 325.582 307.597 325.779 307.597 325.981C307.597 326.182 307.543 326.38 307.441 326.553C307.338 326.727 307.191 326.869 307.014 326.966L258.182 354.63C257.837 354.819 257.453 354.924 257.059 354.936C256.666 354.947 256.276 354.865 255.92 354.696L211.507 333.118Z" fill="black"/>
<path d="M257.071 351.138L303.852 324.836V319.121L257.071 344.007V351.138Z" fill="#E0E0E0"/>
<path d="M211.507 333.118L223.745 325.961L211.507 318.354V333.118Z" fill="#94A9E5"/>
<path opacity="0.6" d="M211.507 333.118L223.745 325.961L211.507 318.354V333.118Z" fill="black"/>
<path d="M219.234 323.156V331.306L257.071 351.137V344.007L219.234 323.156Z" fill="#F5F5F5"/>
<path d="M211.507 318.38L255.497 344.602C255.978 344.89 256.525 345.049 257.086 345.065C257.646 345.082 258.201 344.954 258.698 344.695L307.186 319.293C307.358 319.2 307.502 319.065 307.605 318.899C307.709 318.734 307.767 318.545 307.775 318.35C307.783 318.155 307.74 317.961 307.651 317.788C307.562 317.615 307.429 317.468 307.266 317.361L262.998 288.586L211.507 318.38Z" fill="#94A9E5"/>
<path d="M229.778 287.422V290.465L210.303 301.459V298.416L229.778 287.422Z" fill="#94A9E5"/>
<path opacity="0.2" d="M229.778 287.422V290.465L210.303 301.459V298.416L229.778 287.422Z" fill="white"/>
<path d="M165.864 272.737L210.303 298.416V301.459L165.864 275.78V272.737Z" fill="#94A9E5"/>
<path opacity="0.4" d="M165.864 272.737L210.303 298.416V301.459L165.864 275.78V272.737Z" fill="white"/>
<path d="M185.338 261.743L229.778 287.422L210.303 298.416L165.864 272.737L185.338 261.743Z" fill="#94A9E5"/>
<path opacity="0.6" d="M185.338 261.743L229.778 287.422L210.303 298.416L165.864 272.737L185.338 261.743Z" fill="white"/>
<path d="M194.123 316.025L196.108 317.176V320.801C197.388 320.808 198.646 320.465 199.746 319.809L199.891 319.717C200.348 319.443 200.744 319.081 201.058 318.652C201.372 318.222 201.596 317.734 201.717 317.216C201.787 316.994 201.823 316.761 201.823 316.528V311.58L194.123 316.025Z" fill="#E0E0E0"/>
<path d="M107.665 182.363L107.824 182.27C108.926 181.62 110.183 181.278 111.462 181.278C111.867 181.271 112.265 181.376 112.613 181.583L198.357 230.877C199.41 231.487 200.285 232.363 200.893 233.417C201.501 234.471 201.822 235.667 201.823 236.884V311.58L194.123 316.025L112.679 269.204C111.626 268.595 110.751 267.719 110.143 266.665C109.535 265.611 109.214 264.415 109.213 263.198V185.75H105.747C105.749 185.068 105.926 184.398 106.262 183.805C106.598 183.212 107.082 182.715 107.665 182.363Z" fill="#E6E6E6"/>
<path d="M201.082 233.775C201.567 234.739 201.821 235.804 201.823 236.884V311.58L194.123 316.025L191.239 314.411V239.927L201.082 233.775Z" fill="#E0E0E0"/>
<path d="M198.357 313.578V318.539C198.354 318.937 198.248 319.328 198.047 319.672C197.846 320.017 197.559 320.302 197.213 320.5C196.868 320.698 196.476 320.802 196.078 320.802C195.68 320.801 195.288 320.696 194.943 320.497L109.213 271.202C108.16 270.593 107.285 269.717 106.677 268.663C106.068 267.608 105.748 266.413 105.747 265.196V260.168L198.357 313.578Z" fill="#F0F0F0"/>
<path d="M105.747 185.552C105.747 185.152 105.852 184.76 106.052 184.414C106.251 184.068 106.539 183.78 106.884 183.58C107.23 183.381 107.623 183.275 108.022 183.275C108.422 183.275 108.814 183.381 109.16 183.58L194.89 232.888C195.946 233.496 196.822 234.371 197.43 235.426C198.039 236.48 198.358 237.677 198.357 238.895V313.578L105.747 260.116" fill="#F0F0F0"/>
<path d="M155.108 272.724L138.769 264.468L142.764 261.743L158.495 270.012L155.108 272.724Z" fill="#E0E0E0"/>
<path d="M138.769 264.455L129.323 302.002C129.178 302.584 129.229 303.197 129.468 303.748C129.707 304.298 130.121 304.754 130.646 305.044L150.173 316.025C150.173 316.025 156.246 273.293 155.121 272.724L138.769 264.455Z" fill="#E6E6E6"/>
<path d="M160.453 307.624L153.732 303.549L152.435 312.665L160.453 307.624Z" fill="#F0F0F0"/>
<path d="M155.108 272.724L149.075 313.975C149.018 314.35 149.072 314.734 149.23 315.079C149.389 315.425 149.645 315.716 149.968 315.917C150.29 316.118 150.664 316.221 151.044 316.212C151.424 316.203 151.792 316.083 152.105 315.866L159.857 310.574C160.138 310.387 160.369 310.133 160.528 309.836C160.687 309.538 160.77 309.205 160.77 308.868V308.074C160.771 307.965 160.741 307.857 160.685 307.763C160.628 307.669 160.547 307.593 160.45 307.542C160.353 307.492 160.244 307.469 160.135 307.476C160.025 307.484 159.92 307.521 159.831 307.584L152.475 312.625L158.534 269.985L155.108 272.724Z" fill="#E0E0E0"/>
<path d="M154.685 251.701C154.685 255.313 152.144 256.782 149.009 254.969C147.362 253.891 145.991 252.441 145.007 250.736C144.024 249.031 143.455 247.118 143.346 245.152C143.346 241.541 145.887 240.072 149.009 241.885C150.66 242.959 152.035 244.408 153.021 246.114C154.007 247.82 154.577 249.734 154.685 251.701Z" fill="#E0E0E0"/>
<path d="M90.7838 456.527L142.738 426.773L101.487 404.031L51.3453 433.547L90.7838 456.527Z" fill="white"/>
<path d="M92.5831 451.566C92.4997 451.563 92.4182 451.54 92.345 451.5L62.1807 433.917C62.1204 433.892 62.0662 433.853 62.0218 433.805C61.9774 433.757 61.9437 433.699 61.9231 433.637C61.9025 433.575 61.8954 433.509 61.9022 433.443C61.9091 433.378 61.9297 433.315 61.9628 433.258C61.9959 433.202 62.0406 433.153 62.0941 433.114C62.1476 433.076 62.2085 433.05 62.2729 433.037C62.3373 433.025 62.4037 433.026 62.4676 433.041C62.5315 433.055 62.5916 433.084 62.6438 433.124L92.8081 450.68C92.8613 450.71 92.9079 450.75 92.9454 450.799C92.9829 450.847 93.0104 450.902 93.0264 450.961C93.0424 451.02 93.0466 451.082 93.0386 451.143C93.0306 451.203 93.0107 451.262 92.98 451.315C92.9423 451.388 92.8856 451.45 92.8158 451.495C92.746 451.539 92.6657 451.563 92.5831 451.566Z" fill="#E0E0E0"/>
<path d="M97.4782 448.563C97.4045 448.582 97.3271 448.582 97.2533 448.563L67.1287 430.914C67.0771 430.884 67.0319 430.844 66.9959 430.797C66.9599 430.749 66.9337 430.695 66.9189 430.637C66.9042 430.579 66.9011 430.519 66.9098 430.459C66.9186 430.4 66.939 430.344 66.97 430.292C66.9989 430.24 67.0381 430.193 67.0852 430.156C67.1324 430.119 67.1866 430.091 67.2445 430.075C67.3025 430.059 67.3631 430.055 67.4228 430.063C67.4824 430.07 67.5399 430.09 67.5918 430.12L97.7693 447.703C97.8745 447.766 97.9503 447.869 97.9801 447.988C98.0099 448.107 97.9911 448.233 97.928 448.338C97.884 448.416 97.8176 448.479 97.7375 448.519C97.6574 448.559 97.5671 448.575 97.4782 448.563Z" fill="#E0E0E0"/>
<path d="M102.347 445.692C102.273 445.712 102.196 445.712 102.122 445.692L71.9444 428.056C71.8391 427.993 71.7633 427.891 71.7336 427.772C71.7038 427.653 71.7225 427.527 71.7856 427.421C71.8145 427.369 71.8537 427.322 71.9009 427.285C71.948 427.248 72.0022 427.22 72.0602 427.204C72.1181 427.188 72.1788 427.184 72.2384 427.192C72.298 427.199 72.3555 427.219 72.4074 427.249L102.585 444.845C102.676 444.893 102.748 444.971 102.788 445.066C102.829 445.16 102.836 445.266 102.808 445.365C102.78 445.464 102.719 445.55 102.635 445.61C102.551 445.669 102.449 445.698 102.347 445.692Z" fill="#E0E0E0"/>
<path d="M107.308 442.742C107.225 442.738 107.143 442.716 107.07 442.676L76.9056 425.093C76.8008 425.03 76.7244 424.928 76.6923 424.81C76.6603 424.692 76.6751 424.566 76.7336 424.458C76.7636 424.405 76.8042 424.358 76.8529 424.321C76.9016 424.283 76.9574 424.256 77.0169 424.242C77.0763 424.227 77.1382 424.224 77.1987 424.234C77.2592 424.244 77.317 424.266 77.3687 424.299L107.533 441.882C107.586 441.911 107.632 441.95 107.669 441.997C107.707 442.044 107.734 442.098 107.75 442.156C107.766 442.214 107.771 442.275 107.763 442.335C107.755 442.394 107.735 442.452 107.705 442.504C107.665 442.575 107.608 442.634 107.538 442.676C107.469 442.718 107.389 442.74 107.308 442.742Z" fill="#E0E0E0"/>
<path d="M112.256 439.699C112.177 439.697 112.099 439.674 112.031 439.633L81.8536 422.05C81.7484 421.987 81.6726 421.885 81.6428 421.766C81.613 421.646 81.6318 421.52 81.6949 421.415C81.7235 421.362 81.7628 421.316 81.8104 421.278C81.8579 421.241 81.9126 421.215 81.971 421.2C82.0294 421.185 82.0903 421.182 82.1498 421.192C82.2093 421.202 82.2661 421.224 82.3167 421.256L112.494 438.839C112.546 438.869 112.591 438.909 112.627 438.957C112.663 439.004 112.689 439.059 112.704 439.117C112.719 439.174 112.722 439.235 112.713 439.294C112.704 439.353 112.684 439.41 112.653 439.461C112.613 439.532 112.556 439.591 112.486 439.633C112.417 439.675 112.337 439.698 112.256 439.699Z" fill="#E0E0E0"/>
<path d="M117.217 436.696C117.134 436.692 117.052 436.67 116.979 436.629L86.8148 419.047C86.7545 419.021 86.7003 418.983 86.6559 418.934C86.6115 418.886 86.5778 418.829 86.5572 418.766C86.5366 418.704 86.5295 418.638 86.5363 418.573C86.5432 418.508 86.5638 418.445 86.5969 418.388C86.63 418.331 86.6747 418.282 86.7282 418.244C86.7817 418.206 86.8426 418.18 86.907 418.167C86.9714 418.154 87.0378 418.155 87.1017 418.17C87.1656 418.185 87.2257 418.213 87.2779 418.253L117.442 435.836C117.495 435.865 117.541 435.904 117.579 435.951C117.616 435.998 117.643 436.052 117.66 436.11C117.676 436.168 117.68 436.229 117.672 436.288C117.664 436.348 117.645 436.406 117.614 436.458C117.574 436.528 117.516 436.586 117.447 436.628C117.377 436.67 117.298 436.693 117.217 436.696Z" fill="#E0E0E0"/>
<path d="M122.165 433.693C122.086 433.691 122.008 433.668 121.94 433.626L91.7629 416.044C91.6576 415.981 91.5818 415.878 91.552 415.759C91.5223 415.64 91.541 415.514 91.6041 415.409C91.6341 415.357 91.6741 415.312 91.7218 415.276C91.7695 415.24 91.8238 415.214 91.8817 415.199C91.9396 415.184 91.9999 415.181 92.0589 415.19C92.118 415.199 92.1748 415.219 92.2259 415.25L122.403 432.833C122.455 432.863 122.5 432.903 122.536 432.95C122.572 432.998 122.598 433.052 122.613 433.11C122.628 433.168 122.631 433.228 122.622 433.287C122.614 433.346 122.593 433.403 122.562 433.454C122.525 433.527 122.468 433.588 122.398 433.63C122.328 433.672 122.247 433.694 122.165 433.693Z" fill="#E0E0E0"/>
<path d="M127.126 430.689C127.043 430.686 126.962 430.663 126.888 430.623L96.7241 413.041C96.6637 413.015 96.6095 412.976 96.5651 412.928C96.5207 412.88 96.4871 412.823 96.4665 412.76C96.4459 412.698 96.4387 412.632 96.4456 412.567C96.4524 412.501 96.4731 412.438 96.5061 412.381C96.5392 412.325 96.584 412.276 96.6374 412.238C96.6909 412.2 96.7518 412.173 96.8162 412.161C96.8806 412.148 96.947 412.149 97.0109 412.164C97.0749 412.179 97.1349 412.207 97.1871 412.247L127.351 429.829C127.405 429.86 127.451 429.9 127.489 429.948C127.526 429.997 127.554 430.052 127.57 430.111C127.586 430.17 127.59 430.232 127.582 430.292C127.574 430.353 127.554 430.411 127.523 430.464C127.482 430.533 127.424 430.59 127.355 430.629C127.285 430.669 127.206 430.689 127.126 430.689Z" fill="#E0E0E0"/>
<path d="M132.075 427.686C131.995 427.684 131.917 427.661 131.85 427.62L101.672 410.037C101.567 409.974 101.491 409.872 101.461 409.753C101.432 409.634 101.45 409.507 101.513 409.402C101.543 409.351 101.583 409.305 101.631 409.269C101.679 409.233 101.733 409.207 101.791 409.192C101.849 409.178 101.909 409.175 101.968 409.183C102.027 409.192 102.084 409.213 102.135 409.243L132.313 426.866C132.418 426.929 132.494 427.031 132.523 427.15C132.553 427.269 132.535 427.396 132.471 427.501C132.427 427.563 132.367 427.613 132.297 427.645C132.228 427.677 132.151 427.691 132.075 427.686Z" fill="#E0E0E0"/>
<path d="M51.5042 433.401L90.9294 456.382V491.706L51.5042 469.929V433.401Z" fill="#FAFAFA"/>
<path d="M90.9294 456.382L142.883 426.628V461.541L90.9294 491.706V456.382Z" fill="#E6E6E6"/>
<path d="M82.449 459.835L90.9294 464.783L109.279 454.278L90.9294 467.468L82.449 459.835Z" fill="#E0E0E0"/>
<path d="M82.449 472.125L90.9294 477.074L101.302 471.146L90.9294 479.759L82.449 472.125Z" fill="#E0E0E0"/>
<path d="M95.8641 466.437L102.347 468.368L107.308 460.867L95.8641 466.437Z" fill="#E0E0E0"/>
<path d="M95.8641 466.437L115.431 455.297L105.654 466.437H95.8641Z" fill="white"/>
<path d="M125.155 442.49L129.746 443.866L133.252 438.548L125.155 442.49Z" fill="#E0E0E0"/>
<path d="M125.155 442.49L139.007 434.605L132.074 442.49H125.155Z" fill="white"/>
<path d="M115.246 468.752L119.837 470.128L123.343 464.809L115.246 468.752Z" fill="#E0E0E0"/>
<path d="M115.246 468.752L129.098 460.867L122.165 468.752H115.246Z" fill="white"/>
<path d="M171.209 537.706L125.856 511.246C125.755 511.187 125.671 511.102 125.612 511C125.554 510.898 125.523 510.782 125.523 510.664C125.523 510.547 125.554 510.431 125.612 510.329C125.671 510.227 125.755 510.142 125.856 510.082L176.13 479.098L171.209 537.706Z" fill="#94A9E5"/>
<path opacity="0.4" d="M171.209 537.706L125.856 511.246C125.755 511.187 125.671 511.102 125.612 511C125.554 510.898 125.523 510.782 125.523 510.664C125.523 510.547 125.554 510.431 125.612 510.329C125.671 510.227 125.755 510.142 125.856 510.082L176.13 479.098L171.209 537.706Z" fill="black"/>
<path d="M171.209 537.706L221.774 508.428V495.119L171.209 524.278V537.706Z" fill="#94A9E5"/>
<path opacity="0.2" d="M171.209 537.706L221.774 508.428V495.119L171.209 524.278V537.706Z" fill="black"/>
<path d="M211.904 510.479L191.94 522.016C190.617 522.783 189.532 522.016 189.532 520.19C189.544 519.289 189.769 518.404 190.187 517.606C190.605 516.809 191.206 516.121 191.94 515.599L211.904 504.076C213.227 503.308 214.312 504.076 214.312 505.888C214.297 506.788 214.071 507.672 213.653 508.469C213.235 509.266 212.636 509.955 211.904 510.479Z" fill="#E6E6E6"/>
<path d="M186.595 521.883C186.543 522.848 186.264 523.786 185.781 524.623C185.298 525.459 184.625 526.171 183.817 526.699C182.295 527.585 181.052 526.858 181.052 525.098C181.104 524.135 181.381 523.198 181.861 522.361C182.342 521.525 183.011 520.813 183.817 520.282C185.351 519.396 186.595 520.11 186.595 521.883Z" fill="#E6E6E6"/>
<path d="M171.209 524.278L126.028 503.044C125.92 502.986 125.83 502.901 125.767 502.796C125.704 502.691 125.671 502.571 125.671 502.449C125.671 502.326 125.704 502.206 125.767 502.101C125.83 501.997 125.92 501.911 126.028 501.853L174.476 473.038C174.75 472.873 175.06 472.779 175.379 472.765C175.698 472.752 176.016 472.818 176.302 472.959L221.84 495.119L171.209 524.278Z" fill="#94A9E5"/>
<path d="M128.939 504.42V510.122L166.367 531.29V522.002L128.939 504.42Z" fill="#F5F5F5"/>
<path d="M166.366 531.29L171.209 528.273V524.278L166.366 522.002V531.29Z" fill="#E0E0E0"/>
<path d="M125.645 497.54V482.789H208.094C208.385 482.789 217.236 487.393 221.152 489.404C221.328 489.503 221.475 489.647 221.577 489.821C221.679 489.996 221.733 490.194 221.733 490.396C221.733 490.598 221.679 490.797 221.577 490.971C221.475 491.145 221.328 491.289 221.152 491.388L172.294 519.012C171.951 519.208 171.565 519.316 171.171 519.328C170.776 519.339 170.385 519.254 170.031 519.079L125.645 497.54Z" fill="#94A9E5"/>
<path opacity="0.4" d="M125.645 497.54V482.789H208.094C208.385 482.789 217.236 487.393 221.152 489.404C221.328 489.503 221.475 489.647 221.577 489.821C221.679 489.996 221.733 490.194 221.733 490.396C221.733 490.598 221.679 490.797 221.577 490.971C221.475 491.145 221.328 491.289 221.152 491.388L172.294 519.012C171.951 519.208 171.565 519.316 171.171 519.328C170.776 519.339 170.385 519.254 170.031 519.079L125.645 497.54Z" fill="black"/>
<path d="M171.209 515.573L217.99 489.258V483.543L171.209 508.428V515.573Z" fill="#E0E0E0"/>
<path d="M125.645 497.54L137.882 490.383L125.645 482.789V497.54Z" fill="#94A9E5"/>
<path opacity="0.6" d="M125.645 497.54L137.882 490.383L125.645 482.789V497.54Z" fill="black"/>
<path d="M133.371 487.578V495.728L171.209 515.573V508.428L133.371 487.578Z" fill="#F5F5F5"/>
<path d="M125.645 482.789L169.634 508.997C170.112 509.288 170.657 509.449 171.216 509.465C171.775 509.481 172.329 509.352 172.823 509.09L221.324 483.755C221.491 483.655 221.629 483.513 221.726 483.344C221.822 483.175 221.872 482.983 221.872 482.789C221.872 482.594 221.822 482.403 221.726 482.233C221.629 482.064 221.491 481.923 221.324 481.823L177.07 453.061L125.645 482.789Z" fill="#94A9E5"/>
<path d="M171.209 504.42L125.856 477.96C125.755 477.9 125.671 477.815 125.612 477.713C125.554 477.611 125.523 477.495 125.523 477.378C125.523 477.26 125.554 477.144 125.612 477.042C125.671 476.94 125.755 476.855 125.856 476.796L176.13 445.811L171.209 504.42Z" fill="#94A9E5"/>
<path opacity="0.4" d="M171.209 504.42L125.856 477.96C125.755 477.9 125.671 477.815 125.612 477.713C125.554 477.611 125.523 477.495 125.523 477.378C125.523 477.26 125.554 477.144 125.612 477.042C125.671 476.94 125.755 476.855 125.856 476.796L176.13 445.811L171.209 504.42Z" fill="black"/>
<path d="M171.209 504.42L221.774 475.142V461.833L171.209 490.991V504.42Z" fill="#94A9E5"/>
<path opacity="0.2" d="M171.209 504.42L221.774 475.142V461.833L171.209 490.991V504.42Z" fill="black"/>
<path d="M211.904 477.14L191.94 488.663C190.617 489.43 189.532 488.663 189.532 486.85C189.544 485.95 189.769 485.065 190.187 484.267C190.605 483.469 191.206 482.782 191.94 482.26L211.904 470.723C213.227 469.956 214.312 470.723 214.312 472.549C214.297 473.449 214.071 474.333 213.653 475.13C213.235 475.927 212.636 476.615 211.904 477.14Z" fill="#E6E6E6"/>
<path d="M186.595 488.597C186.545 489.56 186.267 490.497 185.784 491.332C185.301 492.167 184.627 492.875 183.817 493.399C182.295 494.286 181.052 493.571 181.052 491.798C181.104 490.837 181.381 489.902 181.862 489.067C182.342 488.233 183.012 487.524 183.817 486.996C185.351 486.11 186.595 486.824 186.595 488.597Z" fill="#E6E6E6"/>
<path d="M171.209 490.991L126.028 469.757C125.921 469.698 125.831 469.611 125.769 469.505C125.706 469.399 125.674 469.278 125.674 469.155C125.674 469.032 125.706 468.912 125.769 468.806C125.831 468.7 125.921 468.613 126.028 468.553L174.476 439.739C174.751 439.575 175.062 439.484 175.381 439.472C175.7 439.461 176.017 439.53 176.302 439.672L221.84 461.833L171.209 490.991Z" fill="#94A9E5"/>
<path d="M128.939 471.12V476.835L166.367 498.003V488.716L128.939 471.12Z" fill="#F5F5F5"/>
<path d="M166.366 498.003L171.209 494.974V490.991L166.366 488.716V498.003Z" fill="#E0E0E0"/>
<path d="M125.711 463.288V448.523H208.16C208.438 448.523 217.289 453.14 221.205 455.138C221.381 455.235 221.529 455.378 221.631 455.551C221.734 455.725 221.788 455.922 221.788 456.124C221.788 456.325 221.734 456.523 221.631 456.696C221.529 456.87 221.381 457.012 221.205 457.109L172.333 484.747C171.985 484.926 171.6 485.019 171.209 485.019C170.818 485.019 170.432 484.926 170.084 484.747L125.711 463.288Z" fill="#94A9E5"/>
<path opacity="0.4" d="M125.711 463.288V448.523H208.16C208.438 448.523 217.289 453.14 221.205 455.138C221.381 455.235 221.529 455.378 221.631 455.551C221.734 455.725 221.788 455.922 221.788 456.124C221.788 456.325 221.734 456.523 221.631 456.696C221.529 456.87 221.381 457.012 221.205 457.109L172.333 484.747C171.985 484.926 171.6 485.019 171.209 485.019C170.818 485.019 170.432 484.926 170.084 484.747L125.711 463.288Z" fill="black"/>
<path d="M171.262 481.307L218.056 454.993V449.277L171.262 474.176V481.307Z" fill="#E0E0E0"/>
<path d="M125.711 463.288L137.935 456.13L125.711 448.523V463.288Z" fill="#94A9E5"/>
<path opacity="0.6" d="M125.711 463.288L137.935 456.13L125.711 448.523V463.288Z" fill="black"/>
<path d="M133.424 453.326V461.475L171.262 481.307V474.176L133.424 453.326Z" fill="#F5F5F5"/>
<path d="M125.711 448.523L169.701 474.745C170.179 475.033 170.724 475.192 171.283 475.209C171.841 475.225 172.394 475.097 172.889 474.838L221.39 449.436C221.561 449.342 221.704 449.206 221.806 449.04C221.908 448.874 221.965 448.684 221.972 448.489C221.979 448.294 221.935 448.101 221.844 447.929C221.754 447.756 221.62 447.61 221.456 447.505L177.189 418.729L125.711 448.523Z" fill="#94A9E5"/>
<path d="M171.262 470.154L125.923 443.694C125.821 443.635 125.737 443.55 125.678 443.448C125.62 443.346 125.589 443.23 125.589 443.112C125.589 442.994 125.62 442.879 125.678 442.777C125.737 442.675 125.821 442.59 125.923 442.53L176.196 411.559L171.262 470.154Z" fill="#94A9E5"/>
<path opacity="0.4" d="M171.262 470.154L125.923 443.694C125.821 443.635 125.737 443.55 125.678 443.448C125.62 443.346 125.589 443.23 125.589 443.112C125.589 442.994 125.62 442.879 125.678 442.777C125.737 442.675 125.821 442.59 125.923 442.53L176.196 411.559L171.262 470.154Z" fill="black"/>
<path d="M171.262 470.154L221.826 440.876V427.58L171.262 456.726V470.154Z" fill="#94A9E5"/>
<path opacity="0.2" d="M171.262 470.154L221.826 440.876V427.58L171.262 456.726V470.154Z" fill="black"/>
<path d="M211.97 442.94L191.993 454.463C190.67 455.231 189.598 454.463 189.598 452.651C189.611 451.75 189.834 450.865 190.25 450.065C190.666 449.266 191.263 448.575 191.993 448.047L211.97 436.524C213.293 435.756 214.365 436.524 214.365 438.336C214.352 439.237 214.129 440.123 213.713 440.922C213.297 441.721 212.7 442.412 211.97 442.94Z" fill="#E6E6E6"/>
<path d="M186.661 454.344C186.608 455.307 186.328 456.243 185.846 457.078C185.363 457.912 184.691 458.621 183.883 459.147C182.348 460.033 181.105 459.319 181.105 457.546C181.157 456.582 181.436 455.643 181.919 454.807C182.402 453.97 183.074 453.259 183.883 452.73C185.418 451.857 186.661 452.572 186.661 454.344Z" fill="#E6E6E6"/>
<path d="M171.262 456.726L126.095 435.558C125.987 435.498 125.897 435.411 125.835 435.305C125.773 435.2 125.74 435.079 125.74 434.956C125.74 434.833 125.773 434.712 125.835 434.607C125.897 434.501 125.987 434.414 126.095 434.354L174.543 405.539C174.817 405.377 175.127 405.286 175.446 405.272C175.764 405.258 176.081 405.322 176.368 405.46L221.84 427.58L171.262 456.726Z" fill="#94A9E5"/>
<path d="M129.005 436.868V442.57L166.433 463.751V454.45L129.005 436.868Z" fill="#F5F5F5"/>
<path d="M166.433 463.751L171.262 460.721V456.726L166.433 454.45V463.751Z" fill="#E0E0E0"/>
<path d="M170.005 418.385L221.959 388.631L180.695 365.889L130.566 395.405L170.005 418.385Z" fill="#FAFAFA"/>
<path d="M171.791 413.411C171.717 413.43 171.64 413.43 171.566 413.411L141.402 395.776C141.348 395.745 141.302 395.705 141.264 395.657C141.227 395.608 141.199 395.553 141.183 395.494C141.167 395.435 141.163 395.373 141.171 395.313C141.179 395.252 141.199 395.193 141.23 395.14C141.26 395.089 141.3 395.044 141.347 395.008C141.395 394.972 141.449 394.946 141.507 394.931C141.565 394.916 141.625 394.913 141.684 394.922C141.744 394.93 141.8 394.951 141.851 394.982L172.029 412.564C172.082 412.593 172.128 412.632 172.165 412.68C172.203 412.727 172.23 412.781 172.246 412.839C172.262 412.897 172.267 412.957 172.259 413.017C172.251 413.077 172.231 413.134 172.201 413.186C172.157 413.255 172.096 413.311 172.024 413.351C171.953 413.39 171.872 413.411 171.791 413.411Z" fill="#E0E0E0"/>
<path d="M176.752 410.408C176.678 410.427 176.601 410.427 176.527 410.408L146.35 392.825C146.245 392.762 146.168 392.66 146.136 392.542C146.104 392.424 146.119 392.298 146.178 392.19C146.208 392.137 146.248 392.09 146.297 392.053C146.346 392.015 146.401 391.989 146.461 391.974C146.52 391.959 146.582 391.956 146.643 391.966C146.703 391.976 146.761 391.998 146.813 392.031L176.977 409.614C177.067 409.662 177.137 409.738 177.178 409.831C177.219 409.924 177.226 410.028 177.2 410.126C177.174 410.225 177.116 410.311 177.034 410.372C176.953 410.432 176.853 410.464 176.752 410.461V410.408Z" fill="#E0E0E0"/>
<path d="M181.568 407.55C181.494 407.569 181.417 407.569 181.343 407.55L151.165 389.967C151.06 389.904 150.984 389.802 150.954 389.683C150.925 389.564 150.943 389.438 151.007 389.332C151.037 389.281 151.077 389.236 151.124 389.2C151.172 389.164 151.226 389.137 151.284 389.123C151.342 389.108 151.402 389.105 151.461 389.114C151.52 389.122 151.577 389.143 151.628 389.174L181.806 406.756C181.911 406.819 181.987 406.922 182.017 407.041C182.046 407.16 182.028 407.286 181.965 407.391C181.917 407.449 181.855 407.493 181.786 407.521C181.717 407.549 181.642 407.559 181.568 407.55Z" fill="#E0E0E0"/>
<path d="M186.529 404.547C186.446 404.544 186.364 404.521 186.291 404.481L156.127 386.898C156.074 386.869 156.027 386.83 155.99 386.783C155.953 386.736 155.925 386.682 155.909 386.624C155.893 386.566 155.889 386.505 155.897 386.445C155.905 386.386 155.924 386.328 155.955 386.276C155.985 386.223 156.025 386.176 156.074 386.139C156.122 386.102 156.177 386.074 156.236 386.058C156.295 386.042 156.357 386.038 156.418 386.046C156.478 386.054 156.537 386.074 156.59 386.104L186.754 403.687C186.859 403.75 186.935 403.852 186.967 403.97C186.999 404.088 186.984 404.214 186.926 404.322C186.884 404.39 186.825 404.446 186.756 404.485C186.687 404.524 186.609 404.546 186.529 404.547Z" fill="#E0E0E0"/>
<path d="M191.477 401.544C191.397 401.549 191.317 401.525 191.252 401.477L161.075 383.895C161.023 383.865 160.978 383.825 160.942 383.777C160.906 383.73 160.88 383.675 160.865 383.617C160.85 383.559 160.847 383.499 160.856 383.44C160.864 383.381 160.885 383.324 160.916 383.273C160.945 383.22 160.984 383.174 161.031 383.137C161.078 383.099 161.132 383.072 161.19 383.056C161.248 383.04 161.309 383.035 161.369 383.043C161.428 383.051 161.486 383.071 161.538 383.101L191.715 400.684C191.82 400.747 191.896 400.849 191.926 400.968C191.956 401.087 191.937 401.213 191.874 401.319C191.834 401.388 191.776 401.446 191.706 401.485C191.636 401.525 191.557 401.545 191.477 401.544Z" fill="#E0E0E0"/>
<path d="M196.425 398.541C196.352 398.564 196.273 398.564 196.2 398.541L166.036 380.958C165.983 380.929 165.937 380.89 165.899 380.843C165.862 380.796 165.834 380.741 165.818 380.683C165.802 380.625 165.798 380.565 165.806 380.505C165.814 380.446 165.833 380.388 165.864 380.336C165.927 380.231 166.029 380.155 166.147 380.123C166.265 380.091 166.391 380.106 166.499 380.164L196.703 397.681C196.808 397.744 196.884 397.845 196.916 397.964C196.948 398.082 196.933 398.208 196.875 398.316C196.827 398.39 196.76 398.451 196.681 398.49C196.602 398.53 196.513 398.547 196.425 398.541Z" fill="#E0E0E0"/>
<path d="M201.386 395.537C201.306 395.542 201.226 395.519 201.161 395.471L170.984 377.915C170.931 377.886 170.885 377.847 170.847 377.8C170.81 377.753 170.782 377.698 170.766 377.64C170.75 377.582 170.746 377.522 170.754 377.462C170.762 377.403 170.781 377.345 170.812 377.293C170.875 377.188 170.977 377.112 171.095 377.08C171.213 377.048 171.339 377.063 171.447 377.121L201.611 394.704C201.664 394.734 201.711 394.774 201.749 394.823C201.786 394.871 201.814 394.926 201.83 394.985C201.846 395.044 201.85 395.106 201.842 395.167C201.834 395.227 201.814 395.286 201.783 395.339C201.74 395.403 201.68 395.456 201.611 395.49C201.541 395.525 201.464 395.541 201.386 395.537Z" fill="#E0E0E0"/>
<path d="M206.347 392.534C206.269 392.553 206.188 392.553 206.109 392.534L175.945 374.938C175.892 374.909 175.846 374.87 175.808 374.823C175.771 374.776 175.744 374.722 175.728 374.664C175.712 374.606 175.707 374.545 175.715 374.486C175.723 374.426 175.743 374.368 175.773 374.316C175.836 374.212 175.938 374.135 176.056 374.103C176.174 374.071 176.3 374.086 176.408 374.144L206.572 391.727C206.677 391.791 206.754 391.892 206.786 392.01C206.818 392.128 206.803 392.255 206.744 392.362C206.696 392.42 206.635 392.466 206.566 392.496C206.498 392.526 206.422 392.539 206.347 392.534Z" fill="#E0E0E0"/>
<path d="M211.256 389.531C211.177 389.549 211.096 389.549 211.018 389.531L180.853 371.948C180.8 371.918 180.754 371.877 180.717 371.829C180.679 371.781 180.652 371.725 180.636 371.666C180.62 371.607 180.616 371.546 180.623 371.485C180.631 371.425 180.651 371.366 180.681 371.313C180.712 371.26 180.752 371.214 180.801 371.177C180.849 371.139 180.904 371.112 180.963 371.096C181.022 371.08 181.084 371.076 181.144 371.083C181.205 371.091 181.263 371.111 181.316 371.141L211.481 388.724C211.534 388.754 211.581 388.795 211.618 388.843C211.656 388.891 211.683 388.947 211.699 389.006C211.715 389.065 211.719 389.126 211.711 389.187C211.703 389.248 211.683 389.306 211.653 389.359C211.606 389.419 211.546 389.466 211.476 389.496C211.407 389.526 211.331 389.538 211.256 389.531Z" fill="#E0E0E0"/>
<path d="M130.712 395.246L170.15 418.24V453.564L130.712 431.787V395.246Z" fill="#F0F0F0"/>
<path d="M170.15 418.24L222.104 388.473V423.4L170.15 453.564V418.24Z" fill="#E6E6E6"/>
<path d="M161.67 421.693L170.15 426.628L188.5 416.123L170.15 429.313L161.67 421.693Z" fill="#E0E0E0"/>
<path d="M161.67 433.983L170.15 438.931L180.509 432.991L170.15 441.617L161.67 433.983Z" fill="#E0E0E0"/>
<path d="M175.085 428.295L181.568 430.226L186.529 422.725L175.085 428.295Z" fill="#E0E0E0"/>
<path d="M175.085 428.295L194.652 417.142L184.862 428.295H175.085Z" fill="white"/>
<path d="M204.363 404.349L208.954 405.711L212.46 400.406L204.363 404.349Z" fill="#E0E0E0"/>
<path d="M204.363 404.348L218.215 396.45L211.295 404.348H204.363Z" fill="white"/>
<path d="M194.467 430.61L199.058 431.973L202.564 426.667L194.467 430.61Z" fill="#E0E0E0"/>
<path d="M194.467 430.61L208.319 422.725L201.386 430.61H194.467Z" fill="white"/>
<path d="M144.868 431.708L141.507 432.714L138.928 428.811L144.868 431.708Z" fill="#E0E0E0"/>
<path d="M144.868 431.708L134.707 425.913L139.788 431.708H144.868Z" fill="white"/>
<path d="M158.098 417.843L153.507 419.206L150.001 413.901L158.098 417.843Z" fill="#E0E0E0"/>
<path d="M158.098 417.843L144.246 409.958L151.179 417.843H158.098Z" fill="white"/>
<path d="M481.107 489.457L476.701 487.618L477.839 482.273L481.107 489.457Z" fill="#37474F"/>
<path d="M486.068 475.076L487.947 483.477L481.107 489.457L477.839 482.273L486.068 475.076Z" fill="#455A64"/>
<path d="M467.202 466.357C465.898 469.838 464.966 473.448 464.424 477.126C463.512 482.341 461.093 487.175 457.465 491.031C454.25 493.994 448.508 500.821 458.471 502.038C468.777 503.361 477.416 494.788 477.548 490.065C477.68 485.342 478.937 481.638 481.517 479.481C484.097 477.325 486.108 475.115 486.108 475.115C486.108 475.115 481.517 458.631 477.588 459.557C473.659 460.483 467.202 466.357 467.202 466.357Z" fill="#263238"/>
<path d="M471.185 450.23C468.221 445.758 464.874 440.493 462.175 435.677C455.825 424.246 446.206 406.095 436.773 402.47V325.405L400.55 323.738C400.55 323.738 388.643 365.955 405.564 399.89C417.656 424.193 443.931 449.529 457.809 461.938C462.148 461.264 470.086 458.763 471.185 450.23Z" fill="#455A64"/>
<path d="M478.501 460.853C478.501 460.853 475.193 456.289 471.171 450.27C470.073 458.803 462.135 461.264 457.796 461.978C463.3 466.886 466.885 469.784 466.885 469.784C466.885 469.784 478.686 471.385 478.501 460.853Z" fill="#945959"/>
<path d="M404.201 396.913L413.912 348.994C413.912 348.994 406.662 344.761 406.662 333.568C406.662 333.568 405.749 344.364 410.631 352.169L402.283 392.23C402.865 393.791 403.513 395.365 404.201 396.913Z" fill="#37474F"/>
<path d="M436.773 402.43V399.652L432.196 402.615L423.755 415.673L422.961 425.926C426.282 430.014 429.748 433.983 433.201 437.741L433.889 420.939L440.24 404.348C439.173 403.56 438.008 402.915 436.773 402.43Z" fill="#37474F"/>
<path d="M403.447 529.623L398.976 527.083L403.447 521.156V529.623Z" fill="#37474F"/>
<path d="M409.956 518.258V525.76L403.447 529.623V521.156L409.956 518.258Z" fill="#455A64"/>
<path d="M395.827 502.356C395.827 502.356 393.287 501.324 390.866 510.148C388.444 518.973 378.416 524.701 375.876 526.236C373.336 527.771 366.615 534.174 375.876 537.481C385.137 540.789 396.925 535.92 399.69 530.35C402.455 524.781 403.871 521.394 409.943 518.258V507C409.943 504.83 407.668 503.255 406.225 502.885C404.783 502.515 395.827 502.356 395.827 502.356Z" fill="#263238"/>
<path d="M447.476 323.738L406.662 320.867V333.568C406.662 344.761 413.912 348.994 413.912 348.994L401.569 409.852C400.971 412.786 400.565 415.756 400.351 418.742L394.993 495.106C397.013 496.861 399.452 498.063 402.074 498.597C404.696 499.13 407.412 498.976 409.956 498.149C412.735 489.642 417.471 475.433 423.054 459.901C429.775 441.154 430.079 428.149 429.815 422.857C429.714 421.003 430.045 419.151 430.78 417.446C433.003 412.286 438.414 399.744 447.476 378.59C464.358 339.297 447.476 323.738 447.476 323.738Z" fill="#455A64"/>
<path d="M394.993 495.159L394.226 506.126C394.914 507.243 395.893 508.151 397.059 508.752C398.224 509.354 399.532 509.626 400.841 509.54C405.683 509.54 407.376 506.404 407.376 506.404C407.376 506.404 408.342 503.348 410.022 498.201C407.468 499.041 404.74 499.201 402.105 498.668C399.471 498.134 397.02 496.925 394.993 495.159Z" fill="#945959"/>
<path d="M410.724 264.958C410.724 264.958 399.32 265.394 395.337 273.755C391.355 282.117 385.666 299.011 385.666 299.011L400.96 302.451L410.724 264.958Z" fill="#94A9E5"/>
<path opacity="0.2" d="M410.724 264.958C410.724 264.958 399.32 265.394 395.337 273.755C391.355 282.117 385.666 299.011 385.666 299.011L400.96 302.451L410.724 264.958Z" fill="white"/>
<path d="M435.106 266.677L447.476 268.821V296.604L443.613 311.368C443.613 311.368 444.341 319.306 447.476 323.699C447.476 323.699 425.462 340.395 400.55 323.699C400.55 323.699 401.516 309.146 401.516 305.071C401.516 305.071 393.075 299.99 393.908 292.251C394.742 284.511 410.724 264.918 410.724 264.918L419.508 264.799L435.106 266.677Z" fill="#94A9E5"/>
<path opacity="0.4" d="M435.106 266.677L447.476 268.821V296.604L443.613 311.368C443.613 311.368 444.341 319.306 447.476 323.699C447.476 323.699 425.462 340.395 400.55 323.699C400.55 323.699 401.516 309.146 401.516 305.071C401.516 305.071 393.075 299.99 393.908 292.251C394.742 284.511 410.724 264.918 410.724 264.918L419.508 264.799L435.106 266.677Z" fill="white"/>
<path d="M413.846 209.895C413.846 209.895 403.156 206.19 400.55 217.131C397.944 228.072 405.987 238.683 393.935 242.268C393.935 242.268 401.039 248.182 407.284 237.148L412.576 259.639C412.576 259.639 412.576 260.87 410.71 261.809C410.71 261.809 441.139 268.556 446.894 253.408C447.703 254.281 448.255 255.361 448.489 256.529C448.722 257.696 448.628 258.905 448.217 260.023C448.217 260.023 457.174 256.398 454.66 244.795C454.66 244.795 461.738 244.597 463.419 238.828C463.419 238.828 452.094 239.371 452.16 226.921C452.239 212.474 444.632 214.565 444.632 214.565C444.632 214.565 435.331 200.713 413.846 209.895Z" fill="#263238"/>
<path d="M419.508 255.194V264.839C419.508 264.839 410.843 279.775 414.216 280.715C420.673 282.527 435.04 266.651 435.04 266.651V246.277L419.508 255.194Z" fill="#945959"/>
<path d="M434.935 243.049V243.618C431.455 257.324 422.419 260.314 419.508 261.015L419.403 239.847L434.485 239.781L434.935 243.049Z" fill="#703838"/>
<path d="M420.487 212.541C414.732 213.017 402.759 217.224 402.574 232.385C402.389 247.547 404.717 259.15 412.589 259.626C420.461 260.102 438.057 253.011 438.864 233.298C439.671 213.586 426.11 212.051 420.487 212.541Z" fill="#945959"/>
<path d="M413.211 238.484L413.343 247.401L408.104 245.88L413.211 238.484Z" fill="#703838"/>
<path d="M421.043 238.246C421.004 238.702 420.796 239.126 420.459 239.436C420.122 239.745 419.681 239.917 419.224 239.917C418.767 239.917 418.326 239.745 417.989 239.436C417.652 239.126 417.444 238.702 417.405 238.246C417.401 237.763 417.588 237.298 417.925 236.951C418.261 236.605 418.721 236.405 419.204 236.394C419.448 236.391 419.69 236.436 419.915 236.528C420.141 236.62 420.346 236.756 420.517 236.929C420.689 237.102 420.824 237.308 420.914 237.534C421.005 237.761 421.048 238.003 421.043 238.246Z" fill="#263238"/>
<path d="M409.083 237.148C409.088 237.509 408.986 237.864 408.79 238.167C408.594 238.47 408.312 238.708 407.981 238.851C407.649 238.994 407.282 239.035 406.927 238.97C406.572 238.905 406.244 238.736 405.985 238.484C405.726 238.232 405.548 237.91 405.472 237.557C405.397 237.204 405.428 236.836 405.561 236.5C405.694 236.165 405.924 235.876 406.221 235.671C406.519 235.466 406.87 235.354 407.231 235.349C407.471 235.344 407.71 235.386 407.934 235.474C408.157 235.562 408.361 235.694 408.534 235.861C408.706 236.028 408.843 236.228 408.938 236.449C409.032 236.67 409.081 236.908 409.083 237.148Z" fill="#263238"/>
<path d="M404.995 233.417L408.514 231.261C408.514 231.261 407.191 229.859 405.789 230.732C405.401 231.047 405.117 231.472 404.975 231.951C404.834 232.431 404.841 232.942 404.995 233.417Z" fill="#94A9E5"/>
<path d="M404.995 233.417L408.514 231.261C408.514 231.261 407.191 229.859 405.789 230.732C405.401 231.047 405.117 231.472 404.975 231.951C404.834 232.431 404.841 232.942 404.995 233.417Z" fill="#263238"/>
<path d="M429.986 237.426C429.986 237.426 429.629 243.816 433.307 243.816H440.518V231.631C440.518 217.965 430.158 203.69 408.104 214.975C408.104 214.975 407.059 233.219 429.986 237.426Z" fill="#263238"/>
<path d="M433.281 243.062C433.246 241.696 433.518 240.34 434.075 239.093C434.347 238.298 434.848 237.601 435.513 237.088C436.179 236.576 436.981 236.27 437.819 236.209C442.118 236.143 442.648 240.284 442.581 241.752C442.383 245.615 439.221 249.756 433.32 249.849L433.281 243.062Z" fill="#945959"/>
<path d="M417.987 250.219C417.987 250.515 417.899 250.804 417.735 251.05C417.571 251.296 417.337 251.488 417.064 251.601C416.791 251.714 416.49 251.743 416.2 251.686C415.91 251.628 415.644 251.486 415.435 251.277C415.226 251.068 415.083 250.801 415.026 250.511C414.968 250.221 414.998 249.921 415.111 249.647C415.224 249.374 415.416 249.141 415.661 248.976C415.907 248.812 416.196 248.724 416.492 248.724C416.889 248.724 417.269 248.882 417.549 249.162C417.829 249.443 417.987 249.823 417.987 250.219Z" fill="#703838"/>
<path d="M447.476 268.821C447.476 268.821 437.316 272.512 441.761 290.293C446.206 308.074 450.48 322.958 450.48 322.958L432.791 333.542C432.791 333.542 439.221 336.624 437.779 347.962C437.779 347.962 460.905 342.247 466.263 338.357C471.621 334.468 469.795 323.103 468.525 316.845C467.255 310.588 461.275 285.186 460.362 281.733C459.45 278.28 456.751 270.435 447.476 268.821Z" fill="#94A9E5"/>
<path opacity="0.2" d="M447.476 268.821C447.476 268.821 437.316 272.512 441.761 290.293C446.206 308.074 450.48 322.958 450.48 322.958L432.791 333.542C432.791 333.542 439.221 336.624 437.779 347.962C437.779 347.962 460.905 342.247 466.263 338.357C471.621 334.468 469.795 323.103 468.525 316.845C467.255 310.588 461.275 285.186 460.362 281.733C459.45 278.28 456.751 270.435 447.476 268.821Z" fill="white"/>
<path d="M450.48 322.958C453.983 322.662 457.487 323.521 460.455 325.405C459.139 323.827 457.498 322.551 455.644 321.665C453.79 320.779 451.767 320.304 449.712 320.272L450.48 322.958Z" fill="#94A9E5"/>
<path d="M377.569 365.598L332.217 339.138C332.116 339.078 332.031 338.993 331.973 338.891C331.914 338.789 331.884 338.673 331.884 338.556C331.884 338.438 331.914 338.322 331.973 338.22C332.031 338.118 332.116 338.033 332.217 337.974L382.491 306.989L377.569 365.598Z" fill="#94A9E5"/>
<path opacity="0.4" d="M377.569 365.598L332.217 339.138C332.116 339.078 332.031 338.993 331.973 338.891C331.914 338.789 331.884 338.673 331.884 338.556C331.884 338.438 331.914 338.322 331.973 338.22C332.031 338.118 332.116 338.033 332.217 337.974L382.491 306.989L377.569 365.598Z" fill="black"/>
<path d="M377.569 365.598L428.134 336.32V323.011L377.569 352.169V365.598Z" fill="#94A9E5"/>
<path opacity="0.2" d="M377.569 365.598L428.134 336.32V323.011L377.569 352.169V365.598Z" fill="black"/>
<path d="M418.265 338.371L398.301 349.907C396.978 350.674 395.893 349.907 395.893 348.081C395.905 347.181 396.129 346.296 396.548 345.498C396.966 344.7 397.567 344.013 398.301 343.491L418.265 331.967C419.588 331.2 420.673 331.967 420.673 333.78C420.657 334.68 420.432 335.564 420.013 336.361C419.595 337.158 418.997 337.846 418.265 338.371Z" fill="#E6E6E6"/>
<path d="M392.956 349.775C392.903 350.739 392.624 351.678 392.142 352.514C391.659 353.351 390.986 354.062 390.178 354.591C388.643 355.477 387.413 354.749 387.413 352.99C387.463 352.026 387.739 351.088 388.219 350.251C388.7 349.415 389.371 348.703 390.178 348.174C391.712 347.288 392.956 348.002 392.956 349.775Z" fill="#E6E6E6"/>
<path d="M377.569 352.169L332.389 330.935C332.281 330.878 332.191 330.792 332.128 330.687C332.065 330.582 332.032 330.462 332.032 330.34C332.032 330.218 332.065 330.098 332.128 329.993C332.191 329.888 332.281 329.802 332.389 329.745L380.837 300.93C381.111 300.765 381.421 300.671 381.74 300.657C382.059 300.643 382.376 300.71 382.663 300.85L428.187 323.011L377.569 352.169Z" fill="#94A9E5"/>
<path d="M335.3 332.298V338.013L372.727 359.181V349.894L335.3 332.298Z" fill="#F5F5F5"/>
<path d="M372.727 359.181L377.569 356.165V352.169L372.727 349.894V359.181Z" fill="#E0E0E0"/>
<path d="M437.779 347.989C437.779 347.989 417.934 352.262 416.095 352.712C414.256 353.162 404.664 356.165 396.766 354.432L416.267 343.186C416.267 343.186 406.318 340.752 407.747 337.656C408.289 336.479 426.798 337.114 426.798 337.114L432.791 333.568C432.791 333.568 443.402 334.931 437.779 347.989Z" fill="#945959"/>
<path d="M332.005 325.432V310.68H414.455C414.746 310.68 423.596 315.284 427.512 317.295C427.689 317.394 427.835 317.538 427.938 317.713C428.04 317.887 428.094 318.085 428.094 318.288C428.094 318.49 428.04 318.688 427.938 318.862C427.835 319.037 427.689 319.181 427.512 319.28L378.654 346.904C378.312 347.099 377.926 347.208 377.531 347.219C377.137 347.231 376.746 347.145 376.392 346.97L332.005 325.432Z" fill="#94A9E5"/>
<path opacity="0.4" d="M332.005 325.432V310.68H414.455C414.746 310.68 423.596 315.284 427.512 317.295C427.689 317.394 427.835 317.538 427.938 317.713C428.04 317.887 428.094 318.085 428.094 318.288C428.094 318.49 428.04 318.688 427.938 318.862C427.835 319.037 427.689 319.181 427.512 319.28L378.654 346.904C378.312 347.099 377.926 347.208 377.531 347.219C377.137 347.231 376.746 347.145 376.392 346.97L332.005 325.432Z" fill="black"/>
<path d="M377.569 343.451L424.351 317.15V311.434L377.569 336.32V343.451Z" fill="#E0E0E0"/>
<path d="M332.005 325.432L344.23 318.274L332.005 310.68V325.432Z" fill="#94A9E5"/>
<path opacity="0.6" d="M332.005 325.432L344.23 318.274L332.005 310.68V325.432Z" fill="black"/>
<path d="M339.732 315.469V323.619L377.569 343.451V336.32L339.732 315.469Z" fill="#F5F5F5"/>
<path d="M332.005 310.68L375.995 336.902C376.473 337.192 377.018 337.353 377.577 337.37C378.136 337.386 378.69 337.257 379.183 336.995L427.684 311.593C427.855 311.499 427.999 311.363 428.101 311.197C428.203 311.031 428.26 310.841 428.267 310.646C428.273 310.451 428.229 310.258 428.139 310.086C428.048 309.913 427.915 309.767 427.751 309.662L383.496 280.9L332.005 310.68Z" fill="#94A9E5"/>
<path d="M377.569 332.311L332.217 305.851C332.116 305.792 332.031 305.707 331.973 305.605C331.914 305.503 331.884 305.387 331.884 305.269C331.884 305.152 331.914 305.036 331.973 304.934C332.031 304.832 332.116 304.747 332.217 304.687L382.491 273.703L377.569 332.311Z" fill="#94A9E5"/>
<path opacity="0.4" d="M377.569 332.311L332.217 305.851C332.116 305.792 332.031 305.707 331.973 305.605C331.914 305.503 331.884 305.387 331.884 305.269C331.884 305.152 331.914 305.036 331.973 304.934C332.031 304.832 332.116 304.747 332.217 304.687L382.491 273.703L377.569 332.311Z" fill="black"/>
<path d="M377.569 332.298L428.134 303.033V289.724L377.569 318.883V332.298Z" fill="#94A9E5"/>
<path opacity="0.2" d="M377.569 332.298L428.134 303.033V289.724L377.569 318.883V332.298Z" fill="black"/>
<path d="M418.265 305.15L398.301 316.673C396.978 317.441 395.893 316.673 395.893 314.861C395.905 313.96 396.129 313.075 396.548 312.278C396.966 311.48 397.567 310.792 398.301 310.27L418.265 298.734C419.588 297.98 420.673 298.734 420.673 300.559C420.657 301.459 420.432 302.343 420.013 303.14C419.595 303.938 418.997 304.626 418.265 305.15Z" fill="#E6E6E6"/>
<path d="M392.956 316.488C392.905 317.451 392.627 318.389 392.144 319.224C391.661 320.058 390.987 320.767 390.178 321.291C388.643 322.177 387.413 321.463 387.413 319.69C387.464 318.728 387.741 317.792 388.221 316.958C388.701 316.124 389.372 315.414 390.178 314.887C391.712 314.001 392.956 314.715 392.956 316.488Z" fill="#E6E6E6"/>
<path d="M377.569 318.883L332.389 297.715C332.282 297.655 332.192 297.568 332.13 297.462C332.067 297.357 332.034 297.236 332.034 297.113C332.034 296.99 332.067 296.869 332.13 296.764C332.192 296.658 332.282 296.571 332.389 296.511L380.837 267.696C381.117 267.543 381.431 267.463 381.75 267.463C382.069 267.463 382.383 267.543 382.663 267.696L428.187 289.856L377.569 318.883Z" fill="#94A9E5"/>
<path d="M335.3 299.011V304.727L372.727 325.895V316.607L335.3 299.011Z" fill="#F5F5F5"/>
<path d="M372.727 325.895L377.569 322.865V318.883L372.727 316.607V325.895Z" fill="#E0E0E0"/>
</svg>
