<svg width="32" height="30" viewBox="0 0 32 30" fill="none" xmlns="http://www.w3.org/2000/svg">
<path d="M29.3521 1.66931C28.391 0.719324 27.1275 0.136106 25.781 0.0210108C24.4346 -0.0940839 23.0904 0.266221 21.9821 1.03931C25.5448 2.52267 28.4553 5.23792 30.1821 8.68931C30.8486 7.59488 31.129 6.30862 30.9786 5.03607C30.8281 3.76351 30.2554 2.57812 29.3521 1.66931Z" fill="black"/>
<path d="M9.30203 1.25933C8.19827 0.382704 6.81181 -0.0595772 5.40431 0.0159561C3.99681 0.0914894 2.66564 0.679612 1.66203 1.66933C0.666712 2.67124 0.0772241 4.00594 0.00706731 5.41646C-0.0630895 6.82698 0.391045 8.21359 1.28203 9.30933C2.88656 5.73936 5.73808 2.87718 9.30203 1.25933Z" fill="black"/>
<path d="M15.8821 1.82932C13.118 1.83503 10.4174 2.65885 8.12072 4.19695C5.82405 5.73505 4.03409 7.91859 2.97643 10.4724C1.91877 13.0262 1.64075 15.8359 2.17742 18.5474C2.71408 21.2589 4.0414 23.7509 5.99209 25.7093L3.4421 28.2593C3.34951 28.3539 3.27646 28.4657 3.22711 28.5885C3.17776 28.7113 3.15308 28.8426 3.15447 28.9749C3.15586 29.1072 3.1833 29.238 3.23523 29.3597C3.28715 29.4814 3.36254 29.5917 3.4571 29.6843C3.55165 29.7769 3.66351 29.8499 3.78629 29.8993C3.90908 29.9487 4.04038 29.9733 4.1727 29.9719C4.30503 29.9706 4.43578 29.9431 4.5575 29.8912C4.67921 29.8393 4.78951 29.7639 4.8821 29.6693L7.5421 27.0093C9.97463 28.8501 12.9452 29.8395 15.9956 29.8251C19.0461 29.8106 22.0071 28.7931 24.4221 26.9293L27.1621 29.6693C27.3534 29.8331 27.5995 29.9187 27.8511 29.909C28.1028 29.8993 28.3416 29.795 28.5197 29.6169C28.6978 29.4388 28.8021 29.2 28.8118 28.9484C28.8215 28.6967 28.7359 28.4506 28.5721 28.2593L25.8821 25.6093C27.8054 23.6393 29.1051 21.146 29.6187 18.4412C30.1324 15.7364 29.8371 12.9402 28.7699 10.4023C27.7027 7.86446 25.9108 5.69758 23.6185 4.17274C21.3262 2.64789 18.6352 1.83277 15.8821 1.82932ZM23.3521 19.2593C23.2375 19.4975 23.0333 19.6807 22.7841 19.7688C22.5349 19.8568 22.2609 19.8427 22.0221 19.7293L14.8821 16.2693V7.51931C14.8821 7.2541 14.9875 6.99974 15.175 6.81221C15.3625 6.62467 15.6169 6.51931 15.8821 6.51931C16.1473 6.51931 16.4017 6.62467 16.5892 6.81221C16.7767 6.99974 16.8821 7.2541 16.8821 7.51931V15.0193L22.8821 17.9293C23.0018 17.9842 23.1095 18.0623 23.1989 18.1589C23.2884 18.2556 23.3579 18.3689 23.4034 18.4925C23.449 18.6161 23.4696 18.7474 23.4642 18.879C23.4589 19.0106 23.4276 19.1399 23.3721 19.2593H23.3521Z" fill="black"/>
</svg>
