<svg width="28" height="30" viewBox="0 0 28 30" fill="none" xmlns="http://www.w3.org/2000/svg">
<path d="M5.45459 6.81821C5.45459 6.45655 5.59826 6.10971 5.85399 5.85397C6.10972 5.59824 6.45657 5.45457 6.81823 5.45457H20.4546C20.8162 5.45457 21.1631 5.59824 21.4188 5.85397C21.6746 6.10971 21.8182 6.45655 21.8182 6.81821C21.8182 7.17987 21.6746 7.52672 21.4188 7.78245C21.1631 8.03818 20.8162 8.18185 20.4546 8.18185H6.81823C6.45657 8.18185 6.10972 8.03818 5.85399 7.78245C5.59826 7.52672 5.45459 7.17987 5.45459 6.81821Z" fill="#383030"/>
<path d="M5.45459 12.2727C5.45459 11.9111 5.59826 11.5642 5.85399 11.3085C6.10972 11.0528 6.45657 10.9091 6.81823 10.9091H20.4546C20.8162 10.9091 21.1631 11.0528 21.4188 11.3085C21.6746 11.5642 21.8182 11.9111 21.8182 12.2727C21.8182 12.6344 21.6746 12.9812 21.4188 13.237C21.1631 13.4927 20.8162 13.6364 20.4546 13.6364H6.81823C6.45657 13.6364 6.10972 13.4927 5.85399 13.237C5.59826 12.9812 5.45459 12.6344 5.45459 12.2727Z" fill="#383030"/>
<path d="M6.81823 16.3636C6.45657 16.3636 6.10972 16.5073 5.85399 16.763C5.59826 17.0188 5.45459 17.3656 5.45459 17.7273C5.45459 18.0889 5.59826 18.4358 5.85399 18.6915C6.10972 18.9473 6.45657 19.0909 6.81823 19.0909H20.4546C20.8162 19.0909 21.1631 18.9473 21.4188 18.6915C21.6746 18.4358 21.8182 18.0889 21.8182 17.7273C21.8182 17.3656 21.6746 17.0188 21.4188 16.763C21.1631 16.5073 20.8162 16.3636 20.4546 16.3636H6.81823Z" fill="#383030"/>
<path d="M5.45459 23.1818C5.45459 22.8202 5.59826 22.4733 5.85399 22.2176C6.10972 21.9619 6.45657 21.8182 6.81823 21.8182H12.2728C12.6344 21.8182 12.9813 21.9619 13.237 22.2176C13.4927 22.4733 13.6364 22.8202 13.6364 23.1818C13.6364 23.5435 13.4927 23.8903 13.237 24.1461C12.9813 24.4018 12.6344 24.5455 12.2728 24.5455H6.81823C6.45657 24.5455 6.10972 24.4018 5.85399 24.1461C5.59826 23.8903 5.45459 23.5435 5.45459 23.1818Z" fill="#383030"/>
<path fill-rule="evenodd" clip-rule="evenodd" d="M0 4.09091C0 3.00593 0.431005 1.96539 1.1982 1.1982C1.96539 0.431005 3.00593 0 4.09091 0H23.1818C24.2668 0 25.3073 0.431005 26.0745 1.1982C26.8417 1.96539 27.2727 3.00593 27.2727 4.09091V25.9091C27.2727 26.9941 26.8417 28.0346 26.0745 28.8018C25.3073 29.569 24.2668 30 23.1818 30H4.09091C3.00593 30 1.96539 29.569 1.1982 28.8018C0.431005 28.0346 0 26.9941 0 25.9091V4.09091ZM4.09091 2.72727H23.1818C23.5435 2.72727 23.8903 2.87094 24.1461 3.12667C24.4018 3.3824 24.5455 3.72925 24.5455 4.09091V25.9091C24.5455 26.2708 24.4018 26.6176 24.1461 26.8733C23.8903 27.1291 23.5435 27.2727 23.1818 27.2727H4.09091C3.72925 27.2727 3.3824 27.1291 3.12667 26.8733C2.87094 26.6176 2.72727 26.2708 2.72727 25.9091V4.09091C2.72727 3.72925 2.87094 3.3824 3.12667 3.12667C3.3824 2.87094 3.72925 2.72727 4.09091 2.72727Z" fill="#383030"/>
</svg>
