<svg width="28" height="30" viewBox="0 0 28 30" fill="none" xmlns="http://www.w3.org/2000/svg">
<path d="M0 3.52983C0 2.59366 0.419455 1.69583 1.16609 1.03386C1.91272 0.371891 2.92538 0 3.98128 0H19.9064C20.9623 0 21.975 0.371891 22.7216 1.03386C23.4682 1.69583 23.8877 2.59366 23.8877 3.52983V20.9725L18.921 25.4201L17.0618 23.7381C16.7888 23.4841 16.4616 23.2807 16.0992 23.1398C15.7368 22.9989 15.3465 22.9232 14.9508 22.9173C14.5552 22.9113 14.1621 22.9751 13.7945 23.105C13.4269 23.2349 13.0921 23.4282 12.8096 23.6738C12.527 23.9194 12.3023 24.2124 12.1486 24.5357C11.9948 24.859 11.9151 25.2061 11.914 25.5569C11.9129 25.9078 11.9905 26.2553 12.1422 26.5793C12.2939 26.9034 12.5168 27.1974 12.7978 27.4444L13.6757 28.2386H3.98128C2.92538 28.2386 1.91272 27.8667 1.16609 27.2048C0.419455 26.5428 0 25.645 0 24.7088V3.52983ZM9.9532 13.2369C9.9532 13.4709 10.0581 13.6954 10.2447 13.8608C10.4314 14.0263 10.6845 14.1193 10.9485 14.1193H18.9111C19.1751 14.1193 19.4282 14.0263 19.6149 13.8608C19.8015 13.6954 19.9064 13.4709 19.9064 13.2369C19.9064 13.0028 19.8015 12.7784 19.6149 12.6129C19.4282 12.4474 19.1751 12.3544 18.9111 12.3544H10.9485C10.6845 12.3544 10.4314 12.4474 10.2447 12.6129C10.0581 12.7784 9.9532 13.0028 9.9532 13.2369ZM10.9485 5.29474C10.6845 5.29474 10.4314 5.38771 10.2447 5.55321C10.0581 5.7187 9.9532 5.94316 9.9532 6.1772C9.9532 6.41124 10.0581 6.6357 10.2447 6.80119C10.4314 6.96668 10.6845 7.05966 10.9485 7.05966H18.9111C19.1751 7.05966 19.4282 6.96668 19.6149 6.80119C19.8015 6.6357 19.9064 6.41124 19.9064 6.1772C19.9064 5.94316 19.8015 5.7187 19.6149 5.55321C19.4282 5.38771 19.1751 5.29474 18.9111 5.29474H10.9485ZM9.9532 20.2965C9.9532 20.5306 10.0581 20.755 10.2447 20.9205C10.4314 21.086 10.6845 21.179 10.9485 21.179H18.9111C19.1751 21.179 19.4282 21.086 19.6149 20.9205C19.8015 20.755 19.9064 20.5306 19.9064 20.2965C19.9064 20.0625 19.8015 19.838 19.6149 19.6725C19.4282 19.507 19.1751 19.4141 18.9111 19.4141H10.9485C10.6845 19.4141 10.4314 19.507 10.2447 19.6725C10.0581 19.838 9.9532 20.0625 9.9532 20.2965ZM5.97192 15.0018C6.49987 15.0018 7.0062 14.8158 7.37951 14.4848C7.75283 14.1539 7.96256 13.7049 7.96256 13.2369C7.96256 12.7688 7.75283 12.3199 7.37951 11.9889C7.0062 11.6579 6.49987 11.4719 5.97192 11.4719C5.44397 11.4719 4.93764 11.6579 4.56432 11.9889C4.19101 12.3199 3.98128 12.7688 3.98128 13.2369C3.98128 13.7049 4.19101 14.1539 4.56432 14.4848C4.93764 14.8158 5.44397 15.0018 5.97192 15.0018ZM7.96256 6.1772C7.96256 5.70911 7.75283 5.2602 7.37951 4.92922C7.0062 4.59823 6.49987 4.41228 5.97192 4.41228C5.44397 4.41228 4.93764 4.59823 4.56432 4.92922C4.19101 5.2602 3.98128 5.70911 3.98128 6.1772C3.98128 6.64528 4.19101 7.09419 4.56432 7.42518C4.93764 7.75617 5.44397 7.94211 5.97192 7.94211C6.49987 7.94211 7.0062 7.75617 7.37951 7.42518C7.75283 7.09419 7.96256 6.64528 7.96256 6.1772ZM5.97192 22.0614C6.49987 22.0614 7.0062 21.8755 7.37951 21.5445C7.75283 21.2135 7.96256 20.7646 7.96256 20.2965C7.96256 19.8284 7.75283 19.3795 7.37951 19.0485C7.0062 18.7175 6.49987 18.5316 5.97192 18.5316C5.44397 18.5316 4.93764 18.7175 4.56432 19.0485C4.19101 19.3795 3.98128 19.8284 3.98128 20.2965C3.98128 20.7646 4.19101 21.2135 4.56432 21.5445C4.93764 21.8755 5.44397 22.0614 5.97192 22.0614Z" fill="#383030"/>
<path d="M27.5803 22.6827C27.761 22.5156 27.8604 22.2922 27.8571 22.0608C27.8538 21.8293 27.748 21.6083 27.5627 21.4453C27.3773 21.2824 27.1271 21.1905 26.866 21.1895C26.605 21.1886 26.3539 21.2786 26.167 21.4402L18.9151 27.935L15.6405 24.9735C15.5495 24.8888 15.4404 24.8211 15.3196 24.7741C15.1988 24.7271 15.0687 24.7019 14.9368 24.6999C14.805 24.6979 14.6739 24.7192 14.5514 24.7625C14.4289 24.8058 14.3173 24.8702 14.2231 24.9521C14.1289 25.034 14.054 25.1316 14.0028 25.2394C13.9515 25.3471 13.9249 25.4629 13.9246 25.5798C13.9242 25.6967 13.9501 25.8126 14.0006 25.9206C14.0512 26.0286 14.1255 26.1266 14.2192 26.209L18.0591 29.6823C18.17 29.7826 18.3023 29.8623 18.4482 29.9169C18.5942 29.9714 18.7509 29.9997 18.9093 30C19.0677 30.0003 19.2245 29.9727 19.3708 29.9188C19.517 29.8648 19.6497 29.7857 19.7611 29.6858L27.5803 22.6827Z" fill="#383030"/>
</svg>
