<svg width="29" height="22" viewBox="0 0 29 22" fill="none" xmlns="http://www.w3.org/2000/svg">
<path d="M6.21429 14C6.21429 13.4479 6.012 12.9766 5.60742 12.5859C5.20285 12.1953 4.71466 12 4.14286 12C3.57106 12 3.08287 12.1953 2.67829 12.5859C2.27372 12.9766 2.07143 13.4479 2.07143 14C2.07143 14.5521 2.27372 15.0234 2.67829 15.4141C3.08287 15.8047 3.57106 16 4.14286 16C4.71466 16 5.20285 15.8047 5.60742 15.4141C6.012 15.0234 6.21429 14.5521 6.21429 14ZM9.32143 7C9.32143 6.44792 9.11914 5.97656 8.71456 5.58594C8.30999 5.19531 7.8218 5 7.25 5C6.6782 5 6.19001 5.19531 5.78544 5.58594C5.38086 5.97656 5.17857 6.44792 5.17857 7C5.17857 7.55208 5.38086 8.02344 5.78544 8.41406C6.19001 8.80469 6.6782 9 7.25 9C7.8218 9 8.30999 8.80469 8.71456 8.41406C9.11914 8.02344 9.32143 7.55208 9.32143 7ZM16.2478 14.5156L17.8823 8.54688C17.947 8.27604 17.9065 8.02344 17.7609 7.78906C17.6152 7.55469 17.4076 7.40104 17.1378 7.32812C16.8681 7.25521 16.6092 7.28906 16.361 7.42969C16.1129 7.57031 15.9511 7.77604 15.8756 8.04688L14.2411 14.0156C13.5938 14.0677 13.0166 14.2943 12.5095 14.6953C12.0024 15.0964 11.6626 15.6094 11.49 16.2344C11.2742 17.0365 11.3821 17.7969 11.8136 18.5156C12.2452 19.2344 12.8763 19.6979 13.707 19.9062C14.5378 20.1146 15.3253 20.0104 16.0698 19.5938C16.8142 19.1771 17.2943 18.5677 17.51 17.7656C17.6827 17.1406 17.6503 16.5312 17.4129 15.9375C17.1756 15.3438 16.7872 14.8698 16.2478 14.5156ZM26.9286 14C26.9286 13.4479 26.7263 12.9766 26.3217 12.5859C25.9171 12.1953 25.4289 12 24.8571 12C24.2853 12 23.7972 12.1953 23.3926 12.5859C22.988 12.9766 22.7857 13.4479 22.7857 14C22.7857 14.5521 22.988 15.0234 23.3926 15.4141C23.7972 15.8047 24.2853 16 24.8571 16C25.4289 16 25.9171 15.8047 26.3217 15.4141C26.7263 15.0234 26.9286 14.5521 26.9286 14ZM16.5714 4C16.5714 3.44792 16.3691 2.97656 15.9646 2.58594C15.56 2.19531 15.0718 2 14.5 2C13.9282 2 13.44 2.19531 13.0354 2.58594C12.6309 2.97656 12.4286 3.44792 12.4286 4C12.4286 4.55208 12.6309 5.02344 13.0354 5.41406C13.44 5.80469 13.9282 6 14.5 6C15.0718 6 15.56 5.80469 15.9646 5.41406C16.3691 5.02344 16.5714 4.55208 16.5714 4ZM23.8214 7C23.8214 6.44792 23.6191 5.97656 23.2146 5.58594C22.81 5.19531 22.3218 5 21.75 5C21.1782 5 20.69 5.19531 20.2854 5.58594C19.8809 5.97656 19.6786 6.44792 19.6786 7C19.6786 7.55208 19.8809 8.02344 20.2854 8.41406C20.69 8.80469 21.1782 9 21.75 9C22.3218 9 22.81 8.80469 23.2146 8.41406C23.6191 8.02344 23.8214 7.55208 23.8214 7ZM29 14C29 16.7188 28.2394 19.2344 26.7182 21.5469C26.5132 21.849 26.2219 22 25.8443 22H3.15569C2.77809 22 2.48679 21.849 2.28181 21.5469C0.760603 19.2448 0 16.7292 0 14C0 12.1042 0.382999 10.2917 1.149 8.5625C1.91499 6.83333 2.94531 5.34375 4.23996 4.09375C5.5346 2.84375 7.07738 1.84896 8.8683 1.10938C10.6592 0.369792 12.5365 0 14.5 0C16.4635 0 18.3408 0.369792 20.1317 1.10938C21.9226 1.84896 23.4654 2.84375 24.76 4.09375C26.0547 5.34375 27.085 6.83333 27.851 8.5625C28.617 10.2917 29 12.1042 29 14Z" fill="white"/>
</svg>
