<svg width="28" height="30" viewBox="0 0 28 30" fill="none" xmlns="http://www.w3.org/2000/svg">
<path d="M27.8049 6.58549C27.8048 6.94393 27.6732 7.28988 27.435 7.55774C27.1969 7.8256 26.8687 7.99672 26.5127 8.03866L26.3415 8.0489H25.1049L23.3034 26.3709C23.2053 27.365 22.741 28.2872 22.0007 28.958C21.2604 29.6288 20.297 30.0002 19.298 30.0001H8.50683C7.50783 30.0002 6.5445 29.6288 5.8042 28.958C5.06389 28.2872 4.59955 27.365 4.50146 26.3709L2.7 8.0489H1.46341C1.07529 8.0489 0.703068 7.89472 0.428624 7.62028C0.154181 7.34583 0 6.97361 0 6.58549C0 6.19737 0.154181 5.82514 0.428624 5.5507C0.703068 5.27625 1.07529 5.12207 1.46341 5.12207H8.78049C8.78049 4.44945 8.91297 3.78341 9.17037 3.16199C9.42777 2.54056 9.80506 1.97592 10.2807 1.50031C10.7563 1.02469 11.3209 0.64741 11.9424 0.390007C12.5638 0.132605 13.2298 0.00012207 13.9024 0.00012207C14.5751 0.00012207 15.2411 0.132605 15.8625 0.390007C16.4839 0.64741 17.0486 1.02469 17.5242 1.50031C17.9998 1.97592 18.3771 2.54056 18.6345 3.16199C18.8919 3.78341 19.0244 4.44945 19.0244 5.12207H26.3415C26.7296 5.12207 27.1018 5.27625 27.3763 5.5507C27.6507 5.82514 27.8049 6.19737 27.8049 6.58549ZM17.1951 11.3416C16.9299 11.3416 16.6736 11.4376 16.4738 11.612C16.2739 11.7863 16.1439 12.0271 16.1078 12.2899L16.0976 12.4391V22.6831L16.1078 22.8323C16.1439 23.095 16.274 23.3358 16.4739 23.51C16.6737 23.6843 16.9299 23.7803 17.1951 23.7803C17.4603 23.7803 17.7165 23.6843 17.9164 23.51C18.1163 23.3358 18.2463 23.095 18.2824 22.8323L18.2927 22.6831V12.4391L18.2824 12.2899C18.2464 12.0271 18.1164 11.7863 17.9165 11.612C17.7166 11.4376 17.4603 11.3416 17.1951 11.3416ZM10.6098 11.3416C10.3445 11.3416 10.0883 11.4376 9.88839 11.612C9.68851 11.7863 9.55851 12.0271 9.52244 12.2899L9.51219 12.4391V22.6831L9.52244 22.8323C9.55858 23.095 9.68861 23.3358 9.88849 23.51C10.0884 23.6843 10.3446 23.7803 10.6098 23.7803C10.8749 23.7803 11.1311 23.6843 11.331 23.51C11.5309 23.3358 11.6609 23.095 11.6971 22.8323L11.7073 22.6831V12.4391L11.6971 12.2899C11.661 12.0271 11.531 11.7863 11.3311 11.612C11.1312 11.4376 10.875 11.3416 10.6098 11.3416ZM13.9024 2.92695C13.3203 2.92695 12.7619 3.15822 12.3503 3.56989C11.9386 3.98155 11.7073 4.53989 11.7073 5.12207H16.0976C16.0976 4.53989 15.8663 3.98155 15.4546 3.56989C15.043 3.15822 14.4846 2.92695 13.9024 2.92695Z" fill="#FF0000"/>
</svg>
