<svg width="25" height="25" viewBox="0 0 25 25" fill="none" xmlns="http://www.w3.org/2000/svg">
<circle cx="12.5" cy="12.5" r="12.5" fill="#1F1A6B"/>
<path d="M19.0331 9.36549C19.4838 8.91483 19.737 8.30359 19.737 7.66625C19.737 7.02891 19.4838 6.41767 19.0331 5.967C18.5824 5.51634 17.9712 5.26315 17.3339 5.26315C16.6965 5.26315 16.0853 5.51634 15.6346 5.967L14.7917 6.81047L18.1896 10.2084L19.0331 9.36549V9.36549Z" fill="#F0F5FB"/>
<path d="M17.3402 11.0578L10.1581 18.241C9.77314 18.626 9.29076 18.899 8.76258 19.031L6.00991 19.7195C5.90923 19.7447 5.80373 19.7434 5.70371 19.7157C5.60368 19.6881 5.51253 19.6349 5.43914 19.5615C5.36575 19.4882 5.31263 19.397 5.28495 19.297C5.25726 19.197 5.25597 19.0915 5.28119 18.9908L5.96965 16.2381C6.10165 15.7099 6.37471 15.2275 6.75965 14.8425L13.9417 7.65988L17.3402 11.0584V11.0578Z" fill="#F0F5FB"/>
</svg>
