<svg width="28" height="27" viewBox="0 0 28 27" fill="none" xmlns="http://www.w3.org/2000/svg">
<path d="M26.4919 7.65266C27.3326 6.81197 27.8049 5.67175 27.8049 4.48283C27.8049 3.29391 27.3326 2.15368 26.4919 1.31299C25.6512 0.472296 24.511 0 23.322 0C22.1331 0 20.9929 0.472296 20.1522 1.31299L18.5799 2.88642L24.9184 9.22497L26.4919 7.65266Z" fill="#33CA79"/>
<path d="M23.3338 10.8095L9.93611 24.2094C9.21792 24.9275 8.31807 25.4369 7.33278 25.6831L2.19783 26.9674C2.01003 27.0145 1.81324 27.0121 1.62664 26.9604C1.44005 26.9088 1.27001 26.8097 1.13311 26.6728C0.996208 26.5359 0.897108 26.3658 0.845468 26.1792C0.793829 25.9926 0.791411 25.7959 0.838452 25.608L2.12275 20.4731C2.36898 19.4878 2.87836 18.588 3.59644 17.8698L16.9941 4.47095L23.3338 10.8106V10.8095Z" fill="#33CA79"/>
</svg>
