<svg width="30" height="30" viewBox="0 0 30 30" fill="none" xmlns="http://www.w3.org/2000/svg">
<rect width="30" height="30" rx="5" fill="#1F1A6B"/>
<path d="M23.2981 11.697C23.8389 11.1562 24.1427 10.4227 24.1427 9.65791C24.1427 8.89311 23.8389 8.15962 23.2981 7.61882C22.7573 7.07802 22.0238 6.7742 21.259 6.7742C20.4942 6.7742 19.7607 7.07802 19.2199 7.61882L18.2085 8.63098L22.286 12.7084L23.2981 11.697V11.697Z" fill="#F0F5FB"/>
<path d="M21.2666 13.7277L12.6481 22.3477C12.1861 22.8096 11.6073 23.1373 10.9734 23.2957L7.67024 24.1218C7.54942 24.1521 7.42283 24.1505 7.3028 24.1173C7.18277 24.0841 7.07339 24.0203 6.98532 23.9323C6.89725 23.8442 6.8335 23.7348 6.80029 23.6148C6.76707 23.4948 6.76551 23.3682 6.79577 23.2474L7.62193 19.9441C7.78033 19.3103 8.10801 18.7315 8.56993 18.2695L17.1884 9.65027L21.2666 13.7285V13.7277Z" fill="#F0F5FB"/>
</svg>
