<svg width="50" height="50" viewBox="0 0 50 50" fill="none" xmlns="http://www.w3.org/2000/svg">
<path fill-rule="evenodd" clip-rule="evenodd" d="M25 0C11.1932 0 0 11.1932 0 25C0 38.8068 11.1932 50 25 50C38.8068 50 50 38.8068 50 25C50 11.1932 38.8068 0 25 0ZM33.425 19.7886C33.839 19.36 34.0681 18.7859 34.0629 18.19C34.0577 17.5941 33.8187 17.0241 33.3973 16.6027C32.9759 16.1813 32.4059 15.9423 31.81 15.9371C31.2141 15.9319 30.64 16.161 30.2114 16.575L25 21.7864L19.7886 16.575C19.579 16.3579 19.3282 16.1848 19.0509 16.0657C18.7736 15.9466 18.4754 15.8839 18.1736 15.8812C17.8719 15.8786 17.5726 15.9361 17.2933 16.0504C17.014 16.1647 16.7602 16.3334 16.5468 16.5468C16.3334 16.7602 16.1647 17.014 16.0504 17.2933C15.9361 17.5726 15.8786 17.8719 15.8812 18.1736C15.8839 18.4754 15.9466 18.7736 16.0657 19.0509C16.1848 19.3282 16.3579 19.579 16.575 19.7886L21.7864 25L16.575 30.2114C16.3579 30.421 16.1848 30.6718 16.0657 30.9491C15.9466 31.2264 15.8839 31.5246 15.8812 31.8264C15.8786 32.1281 15.9361 32.4274 16.0504 32.7067C16.1647 32.986 16.3334 33.2398 16.5468 33.4532C16.7602 33.6666 17.014 33.8353 17.2933 33.9496C17.5726 34.0639 17.8719 34.1214 18.1736 34.1188C18.4754 34.1161 18.7736 34.0534 19.0509 33.9343C19.3282 33.8152 19.579 33.6421 19.7886 33.425L25 28.2136L30.2114 33.425C30.64 33.839 31.2141 34.0681 31.81 34.0629C32.4059 34.0577 32.9759 33.8187 33.3973 33.3973C33.8187 32.9759 34.0577 32.4059 34.0629 31.81C34.0681 31.2141 33.839 30.64 33.425 30.2114L28.2136 25L33.425 19.7886Z" fill="#3E63F6"/>
</svg>
