<svg width="443" height="598" viewBox="0 0 443 598" fill="none" xmlns="http://www.w3.org/2000/svg">
<path d="M0 20C0 8.95431 8.9543 0 20 0H443V598H20C8.9543 598 0 589.046 0 578V20Z" fill="#94A9E5"/>
<path d="M163.5 660.438C307.37 660.438 424 593.101 424 510.036C424 426.972 307.37 359.634 163.5 359.634C19.6298 359.634 -97 426.972 -97 510.036C-97 593.101 19.6298 660.438 163.5 660.438Z" fill="#F0F0F0"/>
<path d="M109.595 604.004C159.207 604.004 199.425 580.786 199.425 552.145C199.425 523.504 159.207 500.286 109.595 500.286C59.9838 500.286 19.7656 523.504 19.7656 552.145C19.7656 580.786 59.9838 604.004 109.595 604.004Z" fill="#E0E0E0"/>
<path d="M365.053 507.261L354.516 501.179C354.516 501.179 351.939 478.622 353.653 461.152C356.064 436.604 371.92 407.059 390.828 414.003C409.736 420.947 382.159 445.937 376.022 466.758C369.885 487.579 365.053 507.261 365.053 507.261Z" fill="#3E63F6"/>
<path opacity="0.15" d="M365.053 507.261L354.516 501.179C354.516 501.179 351.939 478.622 353.653 461.152C356.064 436.604 371.92 407.059 390.828 414.003C409.736 420.947 382.159 445.937 376.022 466.758C369.885 487.579 365.053 507.261 365.053 507.261Z" fill="black"/>
<path d="M359.514 504.707C359.682 504.698 359.84 504.624 359.954 504.499C360.067 504.375 360.128 504.211 360.122 504.043C358.275 449.497 385.432 422.053 385.697 421.788C385.818 421.667 385.885 421.504 385.885 421.334C385.885 421.164 385.818 421.001 385.697 420.881C385.639 420.822 385.569 420.775 385.492 420.743C385.415 420.711 385.333 420.694 385.25 420.694C385.166 420.694 385.084 420.711 385.007 420.743C384.93 420.775 384.86 420.822 384.802 420.881C384.514 421.146 356.97 448.989 358.839 504.087C358.842 504.173 358.862 504.256 358.897 504.334C358.933 504.411 358.984 504.481 359.046 504.539C359.109 504.596 359.183 504.641 359.263 504.67C359.343 504.698 359.428 504.711 359.514 504.707V504.707Z" fill="white"/>
<path d="M371.677 511.053L364.18 506.73C364.18 506.73 362.897 491.25 370.493 472.452C377.128 456.087 393.493 442.498 401.741 445.351C409.99 448.204 409.78 454.053 405.755 460.19C401.73 466.327 377.283 480.933 371.677 511.053Z" fill="#3E63F6"/>
<path d="M367.718 509.417C367.887 509.414 368.049 509.346 368.168 509.226C368.288 509.106 368.357 508.945 368.359 508.776C368.205 474.277 400.592 450.968 400.923 450.736C400.992 450.688 401.051 450.627 401.096 450.557C401.141 450.486 401.171 450.407 401.185 450.324C401.198 450.241 401.195 450.157 401.174 450.076C401.154 449.994 401.118 449.918 401.067 449.851C400.969 449.715 400.822 449.622 400.656 449.593C400.491 449.564 400.321 449.601 400.182 449.696C399.851 449.928 366.933 473.635 367.077 508.776C367.077 508.946 367.144 509.109 367.265 509.229C367.385 509.349 367.548 509.417 367.718 509.417V509.417Z" fill="white"/>
<path d="M220.069 454.465L215.879 452.043C215.18 451.59 214.599 450.978 214.182 450.258C213.765 449.537 213.524 448.728 213.479 447.897V273.722C213.525 272.892 213.765 272.084 214.18 271.364C214.594 270.644 215.173 270.031 215.868 269.575L332.357 202.324C333.099 201.948 333.919 201.752 334.751 201.752C335.582 201.752 336.403 201.948 337.145 202.324L341.335 204.746C342.034 205.199 342.615 205.811 343.032 206.532C343.449 207.252 343.69 208.061 343.735 208.892V383.068C343.689 383.898 343.449 384.705 343.034 385.425C342.62 386.146 342.041 386.758 341.346 387.214L224.857 454.476C224.115 454.853 223.294 455.048 222.462 455.046C221.63 455.044 220.81 454.845 220.069 454.465V454.465Z" fill="#455A64"/>
<path d="M343.735 208.505C343.569 207.267 342.563 206.814 341.358 207.51L224.857 274.772C224.153 275.214 223.571 275.826 223.166 276.552L214.176 271.366C214.578 270.635 215.16 270.018 215.868 269.575L332.357 202.324C333.099 201.948 333.919 201.752 334.751 201.752C335.583 201.752 336.403 201.948 337.145 202.324L341.335 204.746C341.983 205.163 342.532 205.714 342.946 206.363C343.36 207.012 343.629 207.743 343.735 208.505V208.505Z" fill="#455A64"/>
<path d="M224.448 454.664C223.74 454.951 222.979 455.082 222.216 455.05C221.453 455.017 220.706 454.822 220.025 454.476L215.823 452.043C215.128 451.587 214.55 450.975 214.135 450.255C213.721 449.534 213.481 448.727 213.435 447.897V273.722C213.463 272.89 213.703 272.08 214.132 271.366L223.121 276.552C222.684 277.266 222.441 278.082 222.414 278.919V453.094C222.458 454.465 223.32 455.095 224.448 454.664Z" fill="#263238"/>
<path d="M222.458 278.941V453.094C222.458 454.62 223.563 455.239 224.857 454.476L341.346 387.214C342.041 386.758 342.619 386.146 343.034 385.425C343.449 384.705 343.689 383.898 343.735 383.068V208.892C343.735 207.366 342.629 206.747 341.346 207.51L224.857 274.772C224.156 275.228 223.573 275.843 223.156 276.568C222.739 277.292 222.499 278.106 222.458 278.941V278.941Z" fill="#37474F"/>
<path d="M195.257 345.285C193.753 344.389 186.776 340.419 186.411 340.209C186.127 340.04 185.884 339.808 185.701 339.532C185.518 339.257 185.399 338.943 185.354 338.615C185.308 338.287 185.337 337.953 185.437 337.638C185.538 337.322 185.708 337.033 185.935 336.793L213.479 307.247L222.458 312.4L194.925 341.967C194.709 342.198 194.544 342.472 194.443 342.771C194.341 343.07 194.305 343.387 194.337 343.702C194.368 344.016 194.466 344.32 194.625 344.593C194.784 344.866 194.999 345.102 195.257 345.285V345.285Z" fill="#455A64"/>
<path d="M222.458 312.433L194.925 341.968C194.619 342.294 194.42 342.705 194.353 343.148C194.285 343.59 194.354 344.042 194.549 344.445C194.745 344.847 195.057 345.181 195.446 345.402C195.835 345.623 196.282 345.721 196.727 345.683L222.458 343.56V312.433Z" fill="#37474F"/>
<path d="M283.096 259.259C296.675 251.419 307.677 257.777 307.677 273.456C307.677 289.136 296.675 308.187 283.096 316.027C269.518 323.867 258.516 317.509 258.516 301.84C258.516 286.172 269.518 267.098 283.096 259.259Z" fill="#3E63F6"/>
<path d="M282.919 271.599C287.342 269.055 290.892 271.112 290.892 276.198C290.741 278.963 289.941 281.654 288.555 284.051C287.17 286.449 285.239 288.486 282.919 289.998C278.496 292.541 274.936 290.485 274.936 285.398C275.088 282.632 275.89 279.941 277.277 277.544C278.664 275.146 280.597 273.109 282.919 271.599V271.599Z" fill="white"/>
<path d="M298.643 298.711C298.643 290.363 292.771 286.968 285.54 291.148L281.018 293.757C273.786 297.937 267.915 308.132 267.915 316.458V318.747C269.28 319.183 270.705 319.404 272.138 319.399C276.018 319.268 279.795 318.124 283.096 316.082C289.382 312.211 294.7 306.953 298.643 300.712V298.711Z" fill="white"/>
<path d="M267.528 393.638L298.665 375.659C299.992 374.896 301.065 375.515 301.065 377.041V387.07C301.019 387.902 300.779 388.71 300.362 389.431C299.945 390.152 299.363 390.763 298.665 391.217L267.528 409.196C266.201 409.959 265.128 409.34 265.128 407.814V397.785C265.173 396.954 265.414 396.145 265.831 395.424C266.248 394.704 266.829 394.092 267.528 393.638V393.638Z" fill="#3E63F6"/>
<path d="M252.279 371.236L313.88 335.654C315.461 334.736 316.755 335.477 316.755 337.312V341.039C316.701 342.036 316.412 343.006 315.913 343.871C315.413 344.735 314.717 345.47 313.88 346.014L252.246 381.597C250.665 382.515 249.382 381.774 249.382 379.938V376.245C249.433 375.24 249.722 374.262 250.226 373.391C250.73 372.52 251.434 371.781 252.279 371.236V371.236Z" fill="#FAFAFA"/>
<path d="M259.489 345.484C260.329 344.997 260.982 344.92 261.446 345.262C261.91 345.605 262.143 346.368 262.143 347.54C262.166 348.61 261.927 349.669 261.446 350.625C261.011 351.489 260.33 352.205 259.489 352.682L257.83 353.644V357.215C257.827 357.338 257.797 357.459 257.742 357.569C257.703 357.669 257.633 357.755 257.543 357.813L256.702 358.299C256.674 358.321 256.639 358.332 256.603 358.332C256.567 358.332 256.532 358.321 256.503 358.299C256.444 358.224 256.416 358.129 256.426 358.034V347.695C256.425 347.573 256.451 347.452 256.503 347.341C256.545 347.243 256.614 347.159 256.702 347.098L259.489 345.484ZM257.83 351.643L259.434 350.714C259.821 350.495 260.148 350.184 260.384 349.807C260.636 349.363 260.758 348.857 260.738 348.347C260.738 347.75 260.617 347.408 260.384 347.308C260.22 347.268 260.049 347.266 259.885 347.303C259.72 347.339 259.566 347.413 259.434 347.518L257.83 348.447V351.643Z" fill="#FAFAFA"/>
<path d="M266.776 341.271C266.886 341.205 266.975 341.205 267.03 341.271C267.101 341.37 267.15 341.483 267.174 341.603L269.728 350.25C269.728 350.25 269.728 350.316 269.728 350.349C269.726 350.472 269.696 350.593 269.639 350.703C269.6 350.803 269.531 350.888 269.44 350.946L268.689 351.377C268.556 351.455 268.456 351.466 268.401 351.377C268.347 351.322 268.309 351.253 268.29 351.178L267.837 349.663L264.52 351.565L264.078 353.6C264.046 353.71 264.006 353.817 263.956 353.921C263.901 354.055 263.799 354.165 263.668 354.23L262.917 354.661C262.889 354.685 262.853 354.698 262.817 354.698C262.781 354.698 262.745 354.685 262.718 354.661C262.66 354.59 262.632 354.499 262.64 354.407C262.634 354.367 262.634 354.326 262.64 354.285L265.183 342.697C265.214 342.527 265.262 342.36 265.327 342.2C265.381 342.084 265.47 341.987 265.581 341.923L266.776 341.271ZM267.351 347.972L266.245 344.068L265.139 349.288L267.351 347.972Z" fill="#FAFAFA"/>
<path d="M273.598 337.169C273.968 336.935 274.389 336.795 274.825 336.759C275.134 336.732 275.443 336.801 275.71 336.958C275.953 337.116 276.142 337.343 276.252 337.611C276.373 337.883 276.44 338.176 276.451 338.473C276.458 338.596 276.432 338.719 276.373 338.827C276.334 338.927 276.265 339.012 276.174 339.07L275.445 339.491C275.323 339.557 275.235 339.568 275.179 339.491C275.111 339.445 275.054 339.385 275.013 339.314C274.969 339.214 274.905 339.125 274.825 339.051C274.745 338.976 274.651 338.919 274.549 338.882C274.212 338.834 273.87 338.922 273.598 339.126C273.419 339.241 273.249 339.371 273.089 339.513C272.925 339.664 272.78 339.835 272.658 340.021C272.541 340.201 272.444 340.394 272.371 340.596C272.305 340.789 272.272 340.99 272.271 341.193C272.258 341.379 272.292 341.566 272.371 341.735C272.405 341.795 272.453 341.845 272.51 341.881C272.568 341.918 272.634 341.94 272.702 341.945C272.907 341.981 273.117 341.981 273.322 341.945L274.284 341.735C274.642 341.629 275.016 341.584 275.389 341.602C275.656 341.602 275.916 341.687 276.13 341.846C276.333 342.016 276.479 342.243 276.55 342.498C276.659 342.856 276.707 343.23 276.694 343.604C276.693 344.098 276.623 344.589 276.484 345.063C276.349 345.551 276.152 346.019 275.898 346.457C275.63 346.905 275.311 347.321 274.947 347.695C274.575 348.081 274.151 348.412 273.687 348.679C273.346 348.887 272.972 349.033 272.581 349.11C272.263 349.172 271.934 349.145 271.63 349.033C271.353 348.905 271.125 348.692 270.977 348.425C270.797 348.084 270.698 347.705 270.69 347.319C270.689 347.193 270.715 347.069 270.767 346.954C270.816 346.86 270.889 346.78 270.977 346.722L271.707 346.302C271.818 346.236 271.906 346.213 271.973 346.247C272.039 346.28 272.083 346.335 272.127 346.435C272.173 346.548 272.232 346.656 272.304 346.755C272.373 346.852 272.47 346.925 272.581 346.965C272.726 346.999 272.878 346.999 273.023 346.965C273.258 346.91 273.482 346.817 273.687 346.689C273.901 346.567 274.104 346.426 274.295 346.269C274.666 345.974 274.962 345.595 275.157 345.163C275.246 344.941 275.291 344.705 275.29 344.466C275.3 344.38 275.293 344.292 275.268 344.208C275.243 344.125 275.202 344.047 275.146 343.98C275.086 343.927 275.016 343.888 274.939 343.865C274.863 343.842 274.783 343.836 274.704 343.847C274.453 343.857 274.204 343.898 273.963 343.969C273.675 344.035 273.344 344.113 272.957 344.179C272.661 344.253 272.354 344.275 272.05 344.245C271.811 344.23 271.584 344.132 271.409 343.969C271.217 343.781 271.083 343.544 271.022 343.283C270.933 342.899 270.892 342.505 270.9 342.111C270.899 341.624 270.97 341.14 271.11 340.674C271.242 340.194 271.435 339.733 271.685 339.303C271.924 338.875 272.214 338.478 272.548 338.119C272.851 337.754 273.205 337.434 273.598 337.169V337.169Z" fill="#FAFAFA"/>
<path d="M280.863 332.989C281.23 332.748 281.652 332.604 282.09 332.569C282.398 332.543 282.707 332.612 282.975 332.768C283.211 332.929 283.395 333.156 283.505 333.42C283.626 333.692 283.694 333.985 283.704 334.283C283.717 334.406 283.69 334.53 283.627 334.636C283.588 334.737 283.518 334.822 283.428 334.88L282.698 335.3C282.588 335.366 282.499 335.388 282.433 335.3C282.362 335.256 282.308 335.19 282.278 335.112C282.177 334.918 282.008 334.768 281.803 334.692C281.638 334.668 281.469 334.677 281.308 334.718C281.147 334.76 280.995 334.834 280.863 334.935C280.678 335.048 280.504 335.177 280.343 335.322C280.182 335.473 280.041 335.644 279.923 335.831C279.801 336.008 279.704 336.202 279.635 336.406C279.567 336.597 279.529 336.799 279.525 337.003C279.512 337.189 279.546 337.375 279.624 337.545C279.658 337.604 279.706 337.654 279.764 337.691C279.822 337.727 279.888 337.749 279.956 337.755C280.161 337.79 280.37 337.79 280.575 337.755L281.537 337.545C281.897 337.444 282.27 337.4 282.643 337.412C282.91 337.409 283.17 337.495 283.384 337.655C283.586 337.828 283.735 338.054 283.815 338.308C283.913 338.668 283.957 339.04 283.948 339.413C283.947 339.907 283.876 340.399 283.738 340.873C283.603 341.36 283.406 341.829 283.152 342.266C282.885 342.719 282.566 343.138 282.201 343.516C281.827 343.892 281.407 344.219 280.951 344.489C280.61 344.695 280.236 344.841 279.845 344.92C279.531 344.98 279.206 344.953 278.906 344.842C278.624 344.718 278.391 344.504 278.242 344.234C278.06 343.894 277.965 343.514 277.966 343.129C277.953 343.005 277.98 342.881 278.043 342.775C278.082 342.675 278.152 342.589 278.242 342.531L278.972 342.111C279.082 342.045 279.182 342.023 279.237 342.056C279.276 342.073 279.31 342.099 279.337 342.132C279.363 342.165 279.382 342.203 279.392 342.244C279.442 342.356 279.501 342.463 279.569 342.565C279.642 342.662 279.742 342.735 279.857 342.775C280.002 342.808 280.153 342.808 280.299 342.775C280.534 342.719 280.758 342.626 280.962 342.498C281.171 342.373 281.371 342.233 281.559 342.078C281.753 341.927 281.925 341.748 282.068 341.547C282.211 341.356 282.33 341.148 282.422 340.928C282.51 340.707 282.555 340.47 282.555 340.232C282.565 340.145 282.558 340.057 282.533 339.973C282.508 339.89 282.467 339.812 282.411 339.745C282.351 339.692 282.28 339.653 282.204 339.63C282.128 339.607 282.047 339.601 281.968 339.612C281.722 339.627 281.477 339.668 281.239 339.734C280.951 339.8 280.608 339.878 280.232 339.944C279.933 340.018 279.622 340.041 279.315 340.01C279.075 339.998 278.847 339.9 278.673 339.734C278.486 339.546 278.355 339.308 278.297 339.048C278.199 338.669 278.155 338.279 278.165 337.887C278.169 337.397 278.239 336.91 278.375 336.439C278.512 335.961 278.705 335.5 278.95 335.068C279.189 334.638 279.483 334.24 279.823 333.885C280.121 333.534 280.472 333.232 280.863 332.989V332.989Z" fill="#FAFAFA"/>
<path d="M288.924 334.371L288.028 339.668C288.001 339.827 287.957 339.983 287.895 340.132C287.852 340.251 287.77 340.352 287.663 340.42L286.823 340.906C286.712 340.972 286.635 340.972 286.579 340.906C286.505 340.815 286.463 340.703 286.458 340.585L285.131 331.242C285.131 331.242 285.131 331.153 285.131 331.12C285.134 330.997 285.164 330.876 285.219 330.766C285.261 330.668 285.33 330.584 285.418 330.523L286.181 330.081C286.245 330.055 286.317 330.055 286.38 330.081C286.447 330.081 286.491 330.169 286.513 330.346L287.387 336.638L288.15 331.916C288.169 331.799 288.203 331.684 288.249 331.574C288.293 331.434 288.388 331.315 288.514 331.242L289.366 330.744C289.487 330.678 289.576 330.689 289.631 330.744C289.679 330.815 289.713 330.893 289.731 330.977L290.505 334.813L291.378 327.516C291.389 327.372 291.43 327.232 291.5 327.106C291.552 327.024 291.619 326.952 291.699 326.896L292.462 326.454C292.491 326.433 292.526 326.421 292.561 326.421C292.597 326.421 292.632 326.433 292.661 326.454C292.692 326.49 292.716 326.532 292.732 326.578C292.747 326.623 292.753 326.672 292.749 326.719C292.754 326.764 292.754 326.808 292.749 326.852L291.422 337.722C291.4 337.881 291.359 338.036 291.301 338.186C291.25 338.304 291.166 338.404 291.058 338.473L290.206 338.96C290.107 339.015 290.029 339.015 289.974 338.96C289.918 338.858 289.873 338.751 289.841 338.639L288.924 334.371Z" fill="#FAFAFA"/>
<path d="M294.098 329.683C294.123 329.07 294.197 328.459 294.319 327.858C294.446 327.271 294.639 326.699 294.894 326.155C295.138 325.627 295.45 325.132 295.823 324.685C296.201 324.241 296.654 323.867 297.161 323.579C297.551 323.315 298.007 323.165 298.477 323.148C298.828 323.152 299.165 323.29 299.417 323.535C299.685 323.836 299.878 324.196 299.981 324.585C300.123 325.093 300.202 325.617 300.213 326.144C300.213 326.343 300.213 326.565 300.213 326.808C300.213 327.051 300.213 327.305 300.213 327.571C300.213 327.836 300.213 328.09 300.213 328.334C300.213 328.577 300.213 328.809 300.213 329.019C300.189 329.629 300.115 330.235 299.992 330.833C299.864 331.418 299.675 331.989 299.428 332.536C299.177 333.063 298.861 333.557 298.488 334.006C298.11 334.446 297.662 334.819 297.161 335.112C296.763 335.374 296.3 335.523 295.823 335.543C295.651 335.547 295.48 335.515 295.32 335.45C295.161 335.386 295.016 335.289 294.894 335.167C294.606 334.858 294.407 334.475 294.319 334.061C294.188 333.552 294.114 333.029 294.098 332.502C294.098 332.303 294.098 332.082 294.098 331.839C294.098 331.596 294.098 331.341 294.098 331.076C294.098 330.811 294.098 330.567 294.098 330.313C294.098 330.059 294.087 329.882 294.098 329.683ZM298.809 327.04C298.833 326.769 298.803 326.497 298.719 326.238C298.636 325.98 298.501 325.741 298.322 325.536C298.035 325.282 297.637 325.293 297.161 325.536C296.645 325.84 296.236 326.295 295.989 326.841C295.676 327.486 295.509 328.192 295.503 328.909C295.503 329.318 295.503 329.771 295.503 330.269C295.503 330.766 295.503 331.209 295.503 331.607C295.478 331.877 295.508 332.15 295.592 332.408C295.676 332.667 295.811 332.906 295.989 333.111C296.277 333.354 296.675 333.332 297.161 333.055C297.669 332.75 298.073 332.299 298.322 331.762C298.636 331.121 298.802 330.418 298.809 329.705C298.809 329.285 298.809 328.831 298.809 328.334C298.809 327.836 298.82 327.438 298.809 327.04Z" fill="#FAFAFA"/>
<path d="M305.034 319.167C305.908 318.67 306.56 318.592 307.013 318.957C307.282 319.253 307.482 319.605 307.598 319.987C307.715 320.37 307.746 320.773 307.688 321.169C307.697 321.92 307.581 322.667 307.345 323.38C307.12 324.044 306.771 324.66 306.317 325.193L307.754 328.323C307.759 328.374 307.759 328.426 307.754 328.477C307.755 328.577 307.732 328.676 307.688 328.765C307.657 328.845 307.603 328.915 307.533 328.964L306.648 329.473C306.505 329.55 306.405 329.561 306.339 329.473C306.28 329.415 306.232 329.347 306.195 329.274L304.835 326.321L303.453 327.117V330.855C303.454 330.977 303.427 331.098 303.376 331.209C303.33 331.305 303.262 331.388 303.177 331.452L302.336 331.938C302.308 331.962 302.273 331.975 302.237 331.975C302.2 331.975 302.165 331.962 302.137 331.938C302.105 331.905 302.081 331.864 302.066 331.821C302.051 331.777 302.045 331.73 302.049 331.684V321.345C302.052 321.222 302.082 321.102 302.137 320.992C302.176 320.892 302.246 320.806 302.336 320.748L305.034 319.167ZM303.475 325.116L305.034 324.276C305.415 324.063 305.741 323.764 305.985 323.402C306.241 322.976 306.364 322.483 306.339 321.987C306.339 321.39 306.217 321.058 305.985 320.992C305.648 320.946 305.307 321.033 305.034 321.235L303.53 322.097L303.475 325.116Z" fill="#FAFAFA"/>
<path d="M312.443 314.91C312.844 314.648 313.303 314.489 313.781 314.446C314.127 314.433 314.464 314.556 314.72 314.789C315.013 315.097 315.216 315.479 315.306 315.894C315.455 316.443 315.537 317.007 315.55 317.575C315.55 318.349 315.55 319.145 315.55 319.952C315.527 320.611 315.446 321.266 315.306 321.91C315.18 322.508 314.987 323.09 314.731 323.646C314.485 324.156 314.172 324.631 313.803 325.061C313.433 325.5 312.992 325.874 312.498 326.167L309.877 327.593C309.849 327.616 309.814 327.629 309.778 327.629C309.741 327.629 309.706 327.616 309.678 327.593C309.646 327.56 309.621 327.52 309.606 327.476C309.591 327.432 309.585 327.385 309.59 327.339V317C309.593 316.877 309.623 316.756 309.678 316.646C309.717 316.546 309.787 316.461 309.877 316.403L312.443 314.91ZM314.145 318.349C314.141 318.05 314.096 317.752 314.013 317.464C313.961 317.247 313.85 317.048 313.692 316.89C313.623 316.82 313.54 316.766 313.448 316.73C313.357 316.693 313.259 316.676 313.161 316.679C312.884 316.698 312.617 316.789 312.387 316.945L310.994 317.741V324.95L312.443 324.121C312.723 323.958 312.973 323.749 313.183 323.502C313.389 323.259 313.564 322.992 313.703 322.706C313.841 322.401 313.945 322.082 314.013 321.755C314.09 321.413 314.134 321.065 314.145 320.715C314.179 319.908 314.179 319.123 314.145 318.349V318.349Z" fill="#FAFAFA"/>
<path d="M160.603 154.424C162.512 154.849 164.351 155.541 166.065 156.48C167.707 157.363 169.179 158.531 170.411 159.93C171.59 161.276 172.465 162.86 172.976 164.574C173.498 166.41 173.536 168.348 173.087 170.203C172.79 171.673 172.208 173.07 171.373 174.316C170.61 175.381 169.702 176.334 168.675 177.147C167.666 177.93 166.589 178.622 165.457 179.214L162.273 180.906C161.313 181.406 160.403 181.995 159.553 182.664C158.783 183.254 158.194 184.047 157.85 184.953C157.681 185.367 157.402 185.727 157.043 185.993C156.872 186.125 156.675 186.216 156.464 186.26C156.253 186.304 156.035 186.3 155.826 186.247L151.138 185.207C150.912 185.16 150.698 185.068 150.508 184.937C150.318 184.806 150.157 184.639 150.032 184.444C149.9 184.264 149.812 184.055 149.775 183.834C149.739 183.613 149.755 183.386 149.822 183.173C150.2 181.721 150.865 180.36 151.779 179.17C152.613 178.118 153.58 177.178 154.654 176.373C155.701 175.606 156.811 174.929 157.971 174.349C159.077 173.785 160.183 173.243 161.145 172.702C162.04 172.221 162.881 171.646 163.655 170.988C164.334 170.419 164.804 169.641 164.993 168.776C165.169 168.025 165.16 167.242 164.967 166.495C164.775 165.748 164.404 165.059 163.887 164.486C162.594 163.074 160.866 162.136 158.978 161.821C155.483 161.047 152.535 162.223 150.132 165.348C149.9 165.69 149.607 165.986 149.269 166.222C148.887 166.411 148.447 166.443 148.042 166.31L143.055 165.205C142.699 165.136 142.385 164.929 142.181 164.63C142.073 164.47 142 164.288 141.967 164.097C141.935 163.907 141.944 163.711 141.993 163.524C142.417 161.988 143.206 160.576 144.293 159.411C145.519 158.059 146.976 156.936 148.595 156.093C150.365 155.167 152.273 154.533 154.245 154.214C156.358 153.87 158.517 153.941 160.603 154.424V154.424ZM155.307 190.006C155.745 190.109 156.126 190.38 156.368 190.76C156.61 191.14 156.693 191.6 156.6 192.041L155.406 197.459C155.366 197.686 155.278 197.902 155.148 198.092C155.019 198.283 154.85 198.444 154.654 198.565C154.469 198.692 154.259 198.78 154.038 198.822C153.818 198.864 153.59 198.859 153.371 198.808L148.02 197.581C147.792 197.542 147.576 197.455 147.385 197.325C147.194 197.196 147.033 197.026 146.914 196.829C146.79 196.642 146.706 196.432 146.666 196.211C146.626 195.991 146.631 195.764 146.682 195.546L147.887 190.128C147.99 189.689 148.26 189.307 148.64 189.063C149.02 188.82 149.479 188.734 149.922 188.823L155.307 190.006Z" fill="#3E63F6"/>
<path d="M166.508 206.294C167.839 206.08 169.194 206.054 170.532 206.216C171.811 206.368 173.053 206.743 174.203 207.322C175.299 207.89 176.263 208.681 177.034 209.644C177.728 210.587 178.216 211.664 178.467 212.807C178.719 213.949 178.728 215.132 178.494 216.279C178.283 217.16 177.944 218.006 177.487 218.789C177.048 219.55 176.537 220.268 175.962 220.934C175.398 221.597 174.856 222.227 174.358 222.836C173.871 223.402 173.438 224.013 173.065 224.66C172.714 225.227 172.537 225.884 172.556 226.551C172.546 226.862 172.459 227.166 172.302 227.435C172.222 227.559 172.116 227.665 171.992 227.745C171.868 227.825 171.729 227.878 171.583 227.9L168.266 228.431C168.111 228.459 167.952 228.456 167.798 228.421C167.644 228.387 167.499 228.323 167.37 228.232C167.239 228.149 167.13 228.037 167.051 227.905C166.972 227.772 166.926 227.623 166.917 227.469C166.778 226.44 166.853 225.393 167.138 224.395C167.398 223.511 167.769 222.664 168.244 221.874C168.709 221.115 169.241 220.401 169.836 219.739C170.422 219.076 170.942 218.457 171.45 217.86C171.904 217.326 172.297 216.744 172.622 216.124C172.91 215.59 173.015 214.976 172.921 214.377C172.838 213.849 172.628 213.35 172.311 212.92C171.993 212.491 171.576 212.145 171.096 211.911C169.908 211.337 168.562 211.173 167.27 211.446C166.101 211.617 165.013 212.146 164.156 212.96C163.299 213.773 162.714 214.832 162.483 215.991C162.418 216.27 162.306 216.535 162.151 216.776C161.954 216.986 161.686 217.116 161.399 217.141L157.905 217.705C157.659 217.752 157.405 217.7 157.197 217.561C157.091 217.488 157.001 217.393 156.934 217.282C156.868 217.172 156.825 217.048 156.81 216.92C156.706 215.823 156.877 214.717 157.308 213.702C157.745 212.522 158.389 211.428 159.21 210.473C160.109 209.428 161.169 208.532 162.35 207.82C163.624 207.047 165.036 206.529 166.508 206.294V206.294ZM172.213 230.454C172.365 230.43 172.521 230.436 172.671 230.472C172.821 230.508 172.962 230.573 173.087 230.664C173.217 230.75 173.328 230.862 173.412 230.994C173.495 231.125 173.55 231.273 173.573 231.427L174.192 235.22C174.24 235.527 174.165 235.842 173.983 236.094C173.801 236.347 173.526 236.517 173.219 236.569L169.515 237.177C169.208 237.224 168.894 237.149 168.642 236.967C168.513 236.88 168.405 236.767 168.323 236.636C168.241 236.504 168.188 236.357 168.166 236.204L167.547 232.411C167.519 232.259 167.523 232.103 167.559 231.952C167.595 231.802 167.663 231.66 167.757 231.538C167.844 231.409 167.957 231.301 168.088 231.219C168.219 231.137 168.367 231.084 168.52 231.062L172.213 230.454Z" fill="#3E63F6"/>
<g opacity="0.2">
<path opacity="0.2" d="M166.508 206.294C167.839 206.08 169.194 206.054 170.532 206.216C171.811 206.368 173.053 206.743 174.203 207.322C175.299 207.89 176.263 208.681 177.034 209.644C177.728 210.587 178.216 211.664 178.467 212.807C178.719 213.949 178.728 215.132 178.494 216.279C178.283 217.16 177.944 218.006 177.487 218.789C177.048 219.55 176.537 220.268 175.962 220.934C175.398 221.597 174.856 222.227 174.358 222.836C173.871 223.402 173.438 224.013 173.065 224.66C172.714 225.227 172.537 225.884 172.556 226.551C172.546 226.862 172.459 227.166 172.302 227.435C172.222 227.559 172.116 227.665 171.992 227.745C171.868 227.825 171.729 227.878 171.583 227.9L168.266 228.431C168.111 228.459 167.952 228.456 167.798 228.421C167.644 228.387 167.499 228.323 167.37 228.232C167.239 228.149 167.13 228.037 167.051 227.905C166.972 227.772 166.926 227.623 166.917 227.469C166.778 226.44 166.853 225.393 167.138 224.395C167.398 223.511 167.769 222.664 168.244 221.874C168.709 221.115 169.241 220.401 169.836 219.739C170.422 219.076 170.942 218.457 171.45 217.86C171.904 217.326 172.297 216.744 172.622 216.124C172.91 215.59 173.015 214.976 172.921 214.377C172.838 213.849 172.628 213.35 172.311 212.92C171.993 212.491 171.576 212.145 171.096 211.911C169.908 211.337 168.562 211.173 167.27 211.446C166.101 211.617 165.013 212.146 164.156 212.96C163.299 213.773 162.714 214.832 162.483 215.991C162.418 216.27 162.306 216.535 162.151 216.776C161.954 216.986 161.686 217.116 161.399 217.141L157.905 217.705C157.659 217.752 157.405 217.7 157.197 217.561C157.091 217.488 157.001 217.393 156.934 217.282C156.868 217.172 156.825 217.048 156.81 216.92C156.706 215.823 156.877 214.717 157.308 213.702C157.745 212.522 158.389 211.428 159.21 210.473C160.109 209.428 161.169 208.532 162.35 207.82C163.624 207.047 165.036 206.529 166.508 206.294V206.294ZM172.213 230.454C172.365 230.43 172.521 230.436 172.671 230.472C172.821 230.508 172.962 230.573 173.087 230.664C173.217 230.75 173.328 230.862 173.412 230.994C173.495 231.125 173.55 231.273 173.573 231.427L174.192 235.22C174.24 235.527 174.165 235.842 173.983 236.094C173.801 236.347 173.526 236.517 173.219 236.569L169.515 237.177C169.208 237.224 168.894 237.149 168.642 236.967C168.513 236.88 168.405 236.767 168.323 236.636C168.241 236.504 168.188 236.357 168.166 236.204L167.547 232.411C167.519 232.259 167.523 232.103 167.559 231.952C167.595 231.802 167.663 231.66 167.757 231.538C167.844 231.409 167.957 231.301 168.088 231.219C168.219 231.137 168.367 231.084 168.52 231.062L172.213 230.454Z" fill="black"/>
</g>
<path d="M197.778 212.254C197.929 212.359 198.056 212.493 198.153 212.649C198.25 212.805 198.314 212.979 198.342 213.16C198.377 213.34 198.374 213.526 198.334 213.704C198.294 213.883 198.218 214.052 198.109 214.2L195.478 217.904C195.373 218.055 195.239 218.183 195.083 218.279C194.927 218.376 194.753 218.441 194.571 218.468C194.391 218.503 194.206 218.501 194.027 218.461C193.848 218.421 193.68 218.344 193.532 218.236L189.905 215.659C189.754 215.556 189.626 215.422 189.531 215.265C189.436 215.109 189.375 214.934 189.352 214.753C189.317 214.573 189.319 214.388 189.359 214.209C189.399 214.03 189.476 213.861 189.584 213.713L192.249 210.009C192.465 209.709 192.79 209.506 193.154 209.444C193.518 209.381 193.892 209.465 194.195 209.677L197.778 212.254ZM213.081 187.165C214.404 188.091 215.581 189.209 216.575 190.482C217.545 191.665 218.294 193.014 218.787 194.462C219.246 195.851 219.4 197.321 219.24 198.775C219.053 200.325 218.466 201.799 217.537 203.054C216.847 204.069 215.96 204.934 214.928 205.597C214.019 206.167 213.032 206.599 211.997 206.88C210.99 207.143 209.961 207.321 208.924 207.411L205.982 207.676C205.1 207.746 204.227 207.898 203.373 208.129C202.585 208.308 201.864 208.707 201.294 209.279C201.037 209.541 200.711 209.725 200.354 209.81C200.184 209.859 200.005 209.866 199.832 209.831C199.659 209.797 199.497 209.721 199.359 209.611L196.152 207.333C195.846 207.114 195.636 206.785 195.566 206.415C195.525 206.236 195.526 206.05 195.571 205.871C195.615 205.692 195.7 205.526 195.821 205.387C196.57 204.415 197.506 203.603 198.574 202.999C199.536 202.474 200.561 202.076 201.626 201.816C202.653 201.566 203.7 201.407 204.755 201.34C205.794 201.274 206.767 201.196 207.674 201.108C208.504 201.035 209.323 200.871 210.118 200.621C210.813 200.39 211.411 199.935 211.821 199.328C212.19 198.815 212.43 198.22 212.521 197.595C212.611 196.969 212.549 196.331 212.34 195.734C211.817 194.26 210.817 193.003 209.499 192.163C207.11 190.46 204.504 190.404 201.681 191.997C201.397 192.177 201.082 192.305 200.752 192.373C200.58 192.385 200.408 192.362 200.245 192.307C200.081 192.252 199.931 192.165 199.801 192.052L196.396 189.63C196.272 189.549 196.167 189.443 196.085 189.319C196.003 189.196 195.947 189.057 195.92 188.912C195.894 188.761 195.899 188.607 195.935 188.458C195.971 188.31 196.038 188.171 196.13 188.049C196.934 187.02 197.978 186.203 199.171 185.672C200.526 185.058 201.978 184.684 203.461 184.566C205.093 184.43 206.737 184.56 208.326 184.953C210.043 185.367 211.659 186.118 213.081 187.165V187.165Z" fill="#3E63F6"/>
<g opacity="0.6">
<path opacity="0.6" d="M197.778 212.254C197.929 212.359 198.056 212.493 198.153 212.649C198.25 212.805 198.314 212.979 198.342 213.16C198.377 213.34 198.374 213.526 198.334 213.704C198.294 213.883 198.218 214.052 198.109 214.2L195.478 217.904C195.373 218.055 195.239 218.183 195.083 218.279C194.927 218.376 194.753 218.441 194.571 218.468C194.391 218.503 194.206 218.501 194.027 218.461C193.848 218.421 193.68 218.344 193.532 218.236L189.905 215.659C189.754 215.556 189.626 215.422 189.531 215.265C189.436 215.109 189.375 214.934 189.352 214.753C189.317 214.573 189.319 214.388 189.359 214.209C189.399 214.03 189.476 213.861 189.584 213.713L192.249 210.009C192.465 209.709 192.79 209.506 193.154 209.444C193.518 209.381 193.892 209.465 194.195 209.677L197.778 212.254ZM213.081 187.165C214.404 188.091 215.581 189.209 216.575 190.482C217.545 191.665 218.294 193.014 218.787 194.462C219.246 195.851 219.4 197.321 219.24 198.775C219.053 200.325 218.466 201.799 217.537 203.054C216.847 204.069 215.96 204.934 214.928 205.597C214.019 206.167 213.032 206.599 211.997 206.88C210.99 207.143 209.961 207.321 208.924 207.411L205.982 207.676C205.1 207.746 204.227 207.898 203.373 208.129C202.585 208.308 201.864 208.707 201.294 209.279C201.037 209.541 200.711 209.725 200.354 209.81C200.184 209.859 200.005 209.866 199.832 209.831C199.659 209.797 199.497 209.721 199.359 209.611L196.152 207.333C195.846 207.114 195.636 206.785 195.566 206.415C195.525 206.236 195.526 206.05 195.571 205.871C195.615 205.692 195.7 205.526 195.821 205.387C196.57 204.415 197.506 203.603 198.574 202.999C199.536 202.474 200.561 202.076 201.626 201.816C202.653 201.566 203.7 201.407 204.755 201.34C205.794 201.274 206.767 201.196 207.674 201.108C208.504 201.035 209.323 200.871 210.118 200.621C210.813 200.39 211.411 199.935 211.821 199.328C212.19 198.815 212.43 198.22 212.521 197.595C212.611 196.969 212.549 196.331 212.34 195.734C211.817 194.26 210.817 193.003 209.499 192.163C207.11 190.46 204.504 190.404 201.681 191.997C201.397 192.177 201.082 192.305 200.752 192.373C200.58 192.385 200.408 192.362 200.245 192.307C200.081 192.252 199.931 192.165 199.801 192.052L196.396 189.63C196.272 189.549 196.167 189.443 196.085 189.319C196.003 189.196 195.947 189.057 195.92 188.912C195.894 188.761 195.899 188.607 195.935 188.458C195.971 188.31 196.038 188.171 196.13 188.049C196.934 187.02 197.978 186.203 199.171 185.672C200.526 185.058 201.978 184.684 203.461 184.566C205.093 184.43 206.737 184.56 208.326 184.953C210.043 185.367 211.659 186.118 213.081 187.165V187.165Z" fill="white"/>
</g>
<path d="M115.434 310.133H76.147V214.952C76.147 206.685 79.431 198.756 85.2766 192.911C91.1223 187.065 99.0507 183.781 107.318 183.781H110.944C119.211 183.781 127.14 187.065 132.985 192.911C138.831 198.756 142.115 206.685 142.115 214.952V283.507C142.1 290.574 139.283 297.346 134.281 302.338C129.279 307.33 122.5 310.133 115.434 310.133Z" fill="#263238"/>
<path d="M72.3211 539.275C71.6262 543.218 71.2564 547.212 71.2154 551.217C71.0717 558.47 69.7448 561.047 69.5679 566.996C69.3578 573.796 70.5409 576.339 73.2942 580.165C76.0475 583.991 83.2458 587.452 86.364 580.994C89.4822 574.537 89.0288 570.302 88.0447 563.634C87.0385 556.734 86.939 552.92 86.3197 547.667C85.8111 543.034 85.214 539.507 85.214 539.507L72.3211 539.275Z" fill="#263238"/>
<path d="M92.91 491.098L69.0261 490.667C69.38 506.611 71.9121 524.314 72.3433 539.319C72.4318 542.139 72.277 561.201 73.3385 566.962C74.9418 575.675 85.2694 574.492 85.8222 569.284C86.3751 564.076 85.1588 541.818 85.192 539.518C85.0924 529.92 89.6149 513.721 91.948 496.494C92.0475 495.665 92.7994 491.927 92.91 491.098Z" fill="#FFA8A7"/>
<path d="M123.594 526.868C123.594 526.868 122.654 526.36 122.488 527.366C122.256 528.56 121.902 531.026 121.383 532.994C120.697 535.725 120.122 540.226 120.531 542.459C120.94 544.693 126.137 547.546 129.51 548.585C133.666 549.868 137.457 552.123 140.567 555.164C143.884 558.304 151.105 561.268 156.047 561.235C161.852 561.235 165.899 559.3 167.812 556.192C169.725 553.085 166.065 552.709 159.431 548.452L154.289 545.135C143.774 538.269 139.915 534.597 136.962 527.731L123.594 526.868Z" fill="#263238"/>
<path d="M137.051 522.611C136.874 517.68 140.28 475.761 140.28 475.761L117.601 486.1C122.455 515.092 123.495 521.937 123.572 526.68C123.473 527.078 123.432 527.487 123.45 527.897C123.45 533.525 129.83 536.566 134.784 540.325C138.995 543.624 143.483 546.554 148.197 549.082C151.801 550.885 159.121 551.051 160.028 548.74C153.991 544.129 145.211 537.229 140.412 531.966C138.068 529.489 137.228 527.554 137.051 522.611Z" fill="#FFA8A7"/>
<path d="M78.8118 335.51C70.0986 354.628 70.0986 369.423 71.5471 393.826C72.8298 416.217 74.9639 435.955 74.9639 435.955C74.6321 439.924 69.1145 447.676 68.3958 465.235C67.7324 481.644 69.5015 502.509 69.5015 502.509C69.5015 502.509 81.8968 509.376 91.0634 502.443C91.0634 502.443 99.9092 460.215 102.497 439.67C104.708 421.746 108.689 398.846 108.689 398.846L117.059 439.548C115.253 445.323 113.943 451.242 113.145 457.24C111.973 469.326 118.74 493.055 118.74 493.055C118.74 493.055 131.544 496.87 139.362 489.937C139.362 489.937 142.281 451.358 143.376 436.806C144.835 417.312 141.761 364.546 139.362 336.605L78.8118 335.51Z" fill="#455A64"/>
<path d="M108.711 398.813L112.15 368.14C112.15 368.14 127.564 366.084 134.552 359.516C132.552 362.645 129.887 365.295 126.747 367.279C123.608 369.263 120.07 370.531 116.385 370.993L111.409 399.532L117.059 439.549L108.711 398.813Z" fill="#263238"/>
<path d="M171.13 327.969C171.766 322.371 172.047 316.739 171.97 311.106C171.627 306.241 170.754 305.445 163.953 296.831C154.776 285.188 146.936 274.717 138.643 264.312C132.716 256.881 126.48 255.742 120.421 256.074C116.175 256.306 124.468 276.729 128.636 288.815L152.443 314.446C153.18 315.457 153.519 316.705 153.394 317.951L151.956 339.756L159.088 349.309C159.088 349.309 169.891 339.999 171.13 327.969Z" fill="#FFA8A7"/>
<path d="M97.4655 256.738C92.8546 257.058 84.4731 257.843 84.4731 257.843C79.6411 260.541 78.4137 262.764 77.5181 269.177C77.1311 271.919 79.3646 279.206 81.2776 289.567L84.9044 308.773L84.5063 318.305C82.6266 324.121 78.3695 331.341 74.61 341.99C93.0758 352.295 108.556 352.682 122.599 350.836C133.302 349.453 138.975 346.866 140.866 344.301C140.468 333.785 139.76 327.283 139.539 316.292C139.461 311.681 139.738 307.015 139.926 301.708C147.102 295.803 147.19 285.984 143.243 279.593C134.143 264.854 125.286 255.577 119.425 256.052L97.4655 256.738Z" fill="#3E63F6"/>
<path opacity="0.6" d="M97.4655 256.738C92.8546 257.058 84.4731 257.843 84.4731 257.843C79.6411 260.541 78.4137 262.764 77.5181 269.177C77.1311 271.919 79.3646 279.206 81.2776 289.567L84.9044 308.773L84.5063 318.305C82.6266 324.121 78.3695 331.341 74.61 341.99C93.0758 352.295 108.556 352.682 122.599 350.836C133.302 349.453 138.975 346.866 140.866 344.301C140.468 333.785 139.76 327.283 139.539 316.292C139.461 311.681 139.738 307.015 139.926 301.708C147.102 295.803 147.19 285.984 143.243 279.593C134.143 264.854 125.286 255.577 119.425 256.052L97.4655 256.738Z" fill="white"/>
<path opacity="0.1" d="M125.629 301.851C125.629 301.851 117.203 308.397 107.572 304.981C104.867 304.129 102.429 302.593 100.492 300.522C98.5545 298.451 97.1847 295.916 96.5146 293.16C96.5146 293.16 95.4973 304.162 107.627 307.911C119.381 311.527 125.629 301.851 125.629 301.851Z" fill="black"/>
<path d="M137.062 226.54C136.697 242.507 131.533 246.443 128.924 247.549C126.314 248.655 121.316 247.991 116.451 247.184V256.826C116.451 256.826 122.068 262.708 121.648 267.098C121.228 271.488 112.802 271.986 106.521 267.684C103.056 265.304 99.9215 262.474 97.2001 259.27C96.6776 258.651 96.3915 257.868 96.3929 257.058V234.501C96.3929 234.501 93.7281 237.321 89.0177 234.092C88.0013 233.443 87.1311 232.59 86.4622 231.587C85.7933 230.584 85.3405 229.453 85.1325 228.265C84.9245 227.077 84.9659 225.86 85.254 224.689C85.5422 223.518 86.0708 222.42 86.8062 221.465C88.8629 219.043 94.082 218.877 96.5809 222.57C97.9963 225.324 98.1842 228.099 99.7654 226.993C103.967 223.963 101.712 217.042 106.787 213.724C108.452 212.855 110.182 212.116 111.962 211.513C121.018 208.384 128.868 205.752 130.759 199.56C134.32 201.594 137.504 207.709 137.062 226.54Z" fill="#FFA8A7"/>
<path d="M119.204 240.804C120.365 240.804 121.305 239.863 121.305 238.703C121.305 237.543 120.365 236.602 119.204 236.602C118.044 236.602 117.103 237.543 117.103 238.703C117.103 239.863 118.044 240.804 119.204 240.804Z" fill="#B16668"/>
<path d="M117.811 224.118C117.811 224.551 117.683 224.974 117.445 225.335C117.206 225.696 116.867 225.979 116.469 226.149C116.072 226.319 115.633 226.369 115.207 226.292C114.782 226.215 114.388 226.015 114.074 225.717C113.761 225.419 113.542 225.035 113.445 224.614C113.348 224.192 113.376 223.751 113.526 223.346C113.677 222.94 113.943 222.588 114.292 222.332C114.641 222.076 115.057 221.928 115.489 221.907C115.789 221.892 116.088 221.938 116.369 222.042C116.651 222.147 116.908 222.307 117.125 222.514C117.342 222.721 117.515 222.97 117.633 223.246C117.751 223.521 117.811 223.818 117.811 224.118V224.118Z" fill="#263238"/>
<path d="M134.563 224.339C134.586 224.61 134.554 224.882 134.47 225.14C134.387 225.399 134.252 225.638 134.075 225.844C133.898 226.049 133.682 226.218 133.439 226.339C133.197 226.461 132.932 226.533 132.661 226.551C132.388 226.576 132.112 226.543 131.853 226.453C131.593 226.364 131.356 226.22 131.156 226.032C130.956 225.844 130.799 225.615 130.694 225.362C130.59 225.108 130.54 224.835 130.549 224.561C130.521 224.288 130.548 224.012 130.63 223.751C130.711 223.489 130.846 223.247 131.024 223.039C131.203 222.832 131.422 222.662 131.668 222.542C131.915 222.422 132.183 222.354 132.456 222.341C132.73 222.328 133.004 222.371 133.26 222.468C133.517 222.564 133.751 222.712 133.948 222.903C134.145 223.093 134.301 223.321 134.407 223.574C134.513 223.827 134.566 224.099 134.563 224.373V224.339Z" fill="#263238"/>
<path d="M114.969 229.802C113.062 229.802 111.233 229.045 109.883 227.697C108.534 226.35 107.774 224.522 107.771 222.614C107.771 217.727 112.813 217.727 114.969 217.727C117.126 217.727 122.157 217.727 122.157 222.614C122.154 224.52 121.396 226.346 120.048 227.693C118.701 229.041 116.875 229.799 114.969 229.802V229.802ZM114.969 218.855C110.546 218.855 108.91 219.961 108.91 222.614C108.91 224.227 109.551 225.774 110.691 226.915C111.832 228.055 113.379 228.696 114.991 228.696C116.604 228.696 118.151 228.055 119.292 226.915C120.432 225.774 121.073 224.227 121.073 222.614C121.029 219.905 119.326 218.855 114.969 218.855Z" fill="#455A64"/>
<path d="M133.225 229.802C131.318 229.802 129.489 229.045 128.139 227.697C126.789 226.35 126.03 224.522 126.027 222.614C126.027 217.727 131.069 217.727 133.225 217.727C135.381 217.727 140.412 217.727 140.412 222.614C140.409 224.52 139.651 226.346 138.304 227.693C136.957 229.041 135.13 229.799 133.225 229.802V229.802ZM133.225 218.855C128.868 218.855 127.166 219.961 127.166 222.614C127.166 224.227 127.806 225.774 128.947 226.915C130.087 228.055 131.634 228.696 133.247 228.696C134.86 228.696 136.407 228.055 137.547 226.915C138.688 225.774 139.329 224.227 139.329 222.614C139.284 219.905 137.582 218.855 133.225 218.855Z" fill="#455A64"/>
<path d="M123.273 220.292L123.627 233.727L130.693 231.538L123.273 220.292Z" fill="#F28F8F"/>
<path d="M116.44 247.217C111.309 246.543 100.75 243.513 99.1021 239.333C99.7652 241.446 101.058 243.305 102.806 244.663C105.958 247.372 116.44 250.413 116.44 250.413V247.217Z" fill="#F28F8F"/>
<path d="M116.694 213.769L112.006 216.633C111.636 215.989 111.529 215.228 111.706 214.507C111.883 213.786 112.331 213.162 112.957 212.762C113.266 212.575 113.61 212.452 113.968 212.401C114.327 212.35 114.691 212.372 115.041 212.466C115.39 212.56 115.717 212.724 116.001 212.948C116.285 213.172 116.521 213.451 116.694 213.769Z" fill="#263238"/>
<path d="M135.768 216.953L130.549 215.129C130.65 214.783 130.821 214.461 131.051 214.184C131.281 213.906 131.565 213.679 131.886 213.515C132.207 213.351 132.558 213.255 132.918 213.232C133.277 213.209 133.638 213.26 133.977 213.382C134.677 213.633 135.253 214.144 135.587 214.809C135.92 215.474 135.985 216.242 135.768 216.953V216.953Z" fill="#263238"/>
<path d="M121.593 223.189C121.518 223.189 121.443 223.175 121.374 223.145C121.305 223.116 121.243 223.074 121.19 223.02C121.137 222.967 121.096 222.903 121.069 222.834C121.041 222.764 121.027 222.689 121.029 222.614C121.029 221.697 122.842 221.1 124.479 221.1C126.115 221.1 127.166 221.697 127.166 222.614C127.131 222.735 127.059 222.84 126.959 222.916C126.859 222.991 126.738 223.032 126.613 223.032C126.488 223.032 126.366 222.991 126.266 222.916C126.167 222.84 126.094 222.735 126.06 222.614C126.06 222.504 125.496 222.227 124.512 222.227C123.72 222.211 122.931 222.346 122.19 222.626C122.19 222.702 122.174 222.779 122.144 222.849C122.114 222.92 122.069 222.984 122.013 223.036C121.957 223.089 121.891 223.13 121.819 223.156C121.746 223.183 121.67 223.194 121.593 223.189V223.189Z" fill="#455A64"/>
<path d="M108.357 222.703H108.291L95.6522 221.597C95.0616 221.012 94.3581 220.553 93.5845 220.248L108.423 221.619C108.572 221.639 108.708 221.715 108.8 221.833C108.893 221.951 108.937 222.1 108.921 222.25C108.895 222.379 108.824 222.496 108.721 222.579C108.618 222.661 108.489 222.705 108.357 222.703Z" fill="#455A64"/>
<path d="M56.4649 235.883C60.6004 230.355 63.42 226.186 67.1905 221.509C69.3357 218.822 70.7068 216.898 72.7192 214.145C74.1346 212.243 74.9307 210.639 76.5451 210.053C78.2892 209.339 79.8611 208.261 81.156 206.891C81.9519 206.01 82.6906 205.08 83.3674 204.104C85.7374 200.915 88.5525 198.081 91.7268 195.69C95.044 193.191 98.7482 191.267 102.165 188.89C104.199 187.463 106.378 185.097 103.901 182.885C103.141 182.246 102.232 181.808 101.258 181.614C95.232 180.309 89.9908 182.377 84.0972 183.881C81.5372 184.52 79.0336 185.366 76.6114 186.413C75.42 186.884 74.3027 187.524 73.2942 188.315C71.8841 189.736 70.7285 191.389 69.8775 193.202C67.3011 197.802 61.7724 201.915 57.9024 205.553C53.3799 209.81 49.3329 213.713 44.1692 218.402C39.5251 222.637 34.9805 226.529 30.7234 231.151C27.1961 234.966 28.5119 237.951 28.9764 238.99C31.8513 244.895 35.069 247.018 38.928 250.678C45.5624 257.014 68.5064 275.247 76.1028 281.274C77.7349 282.556 79.0167 284.229 79.8291 286.139L81.2887 289.511C89.9576 291.104 95.7406 278.089 88.5644 262.421C87.376 259.887 85.5606 257.699 83.29 256.063C74.223 249.462 56.4649 235.883 56.4649 235.883Z" fill="#FFA8A7"/>
<path d="M56.4649 235.883C53.7056 239.278 50.0286 241.807 45.8719 243.17C45.8719 243.17 51.4006 244.585 58.9749 237.785L56.4649 235.883Z" fill="#F28F8F"/>
<path d="M168.874 316.436L167.459 315.22C167.247 315.08 167.006 314.993 166.754 314.964C166.502 314.935 166.248 314.966 166.01 315.054L150.651 319.234C149.878 319.491 149.169 319.914 148.573 320.471C147.978 321.028 147.51 321.707 147.201 322.462L136.144 354.341C136.011 354.6 135.959 354.894 135.994 355.184C136.03 355.474 136.151 355.746 136.343 355.966V355.966L137.803 357.227C138.015 357.373 138.26 357.466 138.516 357.496C138.772 357.527 139.032 357.495 139.273 357.404L154.654 353.224C155.428 352.966 156.137 352.544 156.732 351.987C157.327 351.429 157.795 350.75 158.104 349.995C160.315 343.726 166.95 324.386 169.161 318.117C169.427 317.332 169.294 316.735 168.874 316.436Z" fill="#455A64"/>
<path d="M137.593 355.568L148.65 323.69C148.957 322.935 149.425 322.257 150.021 321.701C150.617 321.145 151.326 320.726 152.1 320.472L167.448 316.292C168.874 315.905 169.659 316.724 169.15 318.117C166.939 324.386 160.305 343.726 158.093 349.995C157.784 350.75 157.316 351.429 156.721 351.987C156.126 352.544 155.417 352.966 154.643 353.224L139.296 357.448C137.88 357.779 137.117 356.961 137.593 355.568Z" fill="#3E63F6"/>
<path d="M150.43 321.357C149.632 321.961 149.013 322.772 148.639 323.701L137.582 355.568C137.455 355.821 137.402 356.105 137.43 356.386C137.457 356.668 137.563 356.936 137.736 357.16L136.365 355.988C136.169 355.771 136.043 355.499 136.006 355.208C135.968 354.918 136.02 354.623 136.155 354.363L147.213 322.484C147.562 321.618 148.13 320.856 148.86 320.273L150.43 321.357Z" fill="#37474F"/>
<path d="M164.661 330.965C163.555 334.205 159.718 336.372 153.372 337.876C147.025 339.38 143.519 346.114 144.526 348.16C145.532 350.205 155.793 352.118 159.895 351.532C163.998 350.946 168.111 345.019 169.36 343.184C170.61 341.348 172.047 328.544 170.732 326.786C169.416 325.028 166.64 325.304 166.64 325.304L164.661 330.965Z" fill="#F28F8F"/>
</svg>
