<svg width="443" height="598" viewBox="0 0 443 598" fill="none" xmlns="http://www.w3.org/2000/svg">
<path d="M0 20C0 8.95431 8.9543 0 20 0H443V598H20C8.9543 598 0 589.046 0 578V20Z" fill="#94A9E5"/>
<path d="M222.414 543.514C340.28 543.514 435.828 488.348 435.828 420.297C435.828 352.247 340.28 297.081 222.414 297.081C104.549 297.081 9 352.247 9 420.297C9 488.348 104.549 543.514 222.414 543.514Z" fill="#F0F0F0"/>
<path d="M178.253 513.665C218.897 513.665 251.846 494.644 251.846 471.18C251.846 447.716 218.897 428.695 178.253 428.695C137.609 428.695 104.66 447.716 104.66 471.18C104.66 494.644 137.609 513.665 178.253 513.665Z" fill="#E0E0E0"/>
<path d="M387.536 418.023L378.903 413.041C378.903 413.041 376.793 394.561 378.197 380.249C380.172 360.138 393.162 335.933 408.652 341.622C424.143 347.311 401.55 367.784 396.523 384.841C391.495 401.899 387.536 418.023 387.536 418.023Z" fill="#3E63F6"/>
<path opacity="0.15" d="M387.536 418.023L378.903 413.041C378.903 413.041 376.793 394.561 378.197 380.249C380.172 360.138 393.162 335.933 408.652 341.622C424.143 347.311 401.55 367.784 396.523 384.841C391.495 401.899 387.536 418.023 387.536 418.023Z" fill="black"/>
<path d="M382.998 415.931C383.136 415.924 383.265 415.863 383.358 415.761C383.452 415.659 383.501 415.525 383.496 415.387C381.983 370.701 404.232 348.217 404.449 348C404.547 347.901 404.603 347.767 404.603 347.628C404.603 347.489 404.547 347.355 404.449 347.257C404.401 347.208 404.344 347.17 404.281 347.144C404.218 347.117 404.15 347.104 404.082 347.104C404.014 347.104 403.946 347.117 403.883 347.144C403.82 347.17 403.763 347.208 403.715 347.257C403.48 347.474 380.914 370.284 382.445 415.424C382.448 415.493 382.464 415.562 382.493 415.625C382.522 415.689 382.564 415.746 382.615 415.793C382.667 415.84 382.727 415.877 382.793 415.901C382.858 415.924 382.928 415.935 382.998 415.931V415.931Z" fill="white"/>
<path d="M392.962 421.131L386.821 417.589C386.821 417.589 385.77 404.906 391.993 389.507C397.428 376.1 410.835 364.967 417.593 367.304C424.351 369.641 424.179 374.433 420.881 379.46C417.584 384.488 397.555 396.455 392.962 421.131Z" fill="#3E63F6"/>
<path d="M389.72 419.79C389.858 419.787 389.99 419.731 390.088 419.633C390.187 419.535 390.243 419.403 390.245 419.264C390.118 391.001 416.651 371.905 416.923 371.715C416.979 371.676 417.028 371.627 417.064 371.569C417.101 371.511 417.126 371.446 417.137 371.378C417.148 371.31 417.145 371.241 417.128 371.174C417.112 371.108 417.082 371.045 417.041 370.991C416.96 370.879 416.84 370.803 416.704 370.779C416.569 370.755 416.429 370.786 416.316 370.864C416.044 371.054 389.076 390.476 389.194 419.264C389.194 419.404 389.249 419.537 389.348 419.636C389.447 419.734 389.58 419.79 389.72 419.79V419.79Z" fill="white"/>
<path d="M68.1081 406.926L76.0797 401.546C76.0797 401.546 79.5855 380.711 76.3243 362.33C71.7406 336.549 53.9221 327.98 47.581 330.697C41.2399 333.415 39.8811 341.088 51.7209 355.799C58.7414 364.45 67.8635 382.921 68.1081 406.926Z" fill="#3E63F6"/>
<g opacity="0.15">
<path opacity="0.15" d="M68.1081 406.926L76.0797 401.546C76.0797 401.546 79.5855 380.711 76.3243 362.33C71.7406 336.549 53.9221 327.98 47.581 330.697C41.2399 333.415 39.8811 341.088 51.7209 355.799C58.7414 364.45 67.8635 382.921 68.1081 406.926Z" fill="black"/>
</g>
<path d="M70.8438 396.599H70.7623C70.6809 396.594 70.6014 396.572 70.5292 396.534C70.457 396.496 70.3935 396.443 70.3431 396.379C70.2926 396.315 70.2563 396.241 70.2364 396.162C70.2166 396.083 70.2136 396 70.2278 395.92C73.1085 371.652 62.8631 345.309 51.7118 334.828C51.6045 334.72 51.5443 334.573 51.5443 334.42C51.5443 334.268 51.6045 334.121 51.7118 334.013C51.765 333.959 51.8284 333.916 51.8984 333.886C51.9684 333.857 52.0435 333.842 52.1195 333.842C52.1954 333.842 52.2706 333.857 52.3405 333.886C52.4105 333.916 52.474 333.959 52.5271 334.013C63.8867 344.684 74.3224 371.462 71.4055 396.083C71.3884 396.222 71.3225 396.35 71.2196 396.445C71.1167 396.539 70.9835 396.594 70.8438 396.599V396.599Z" fill="white"/>
<path d="M47.2368 421.004C45.9686 421.765 42.2726 419.02 41.249 418.359C39.4947 417.213 38.0656 415.634 37.1001 413.775C36.0169 411.666 35.615 409.273 35.9496 406.926C36.1352 405.702 36.4046 404.491 36.7559 403.303C37.0729 402.116 37.39 400.93 37.6617 399.734C38.0635 398.571 38.2178 397.337 38.1147 396.11C37.7614 393.692 35.5782 392.034 33.5853 390.612C31.3931 389.026 29.056 386.934 29.056 384.017C29.1677 381.725 30.0449 379.537 31.5471 377.803C32.9059 375.991 34.5365 374.415 35.7594 372.521C36.7157 371.21 37.2038 369.615 37.1454 367.992C36.9879 366.992 36.6305 366.034 36.0946 365.175C35.0257 363.291 33.6397 361.551 32.8878 359.549C32.1359 357.547 32.1903 354.975 33.7937 353.48C35.071 352.257 37.0186 352.058 38.785 352.139C40.4496 352.305 42.0575 352.834 43.4956 353.688C48.1789 356.18 50.9328 361.615 55.8879 363.508C57.7993 364.233 59.8828 364.36 61.8666 364.849C63.8505 365.338 65.8977 366.307 66.8489 368.11C68.7241 371.688 65.4539 376.199 66.7946 379.995C67.9903 383.365 71.3239 384.597 73.2081 387.613C73.9729 388.953 74.2902 390.502 74.114 392.034C74.0077 394.621 73.4274 397.166 72.4019 399.544C71.2225 402.009 69.8913 404.399 68.4161 406.7C68.4161 406.7 47.427 420.886 47.2368 421.004Z" fill="#3E63F6"/>
<path d="M59.4842 413.494C59.408 413.493 59.3329 413.477 59.263 413.446C59.1931 413.416 59.1298 413.373 59.0768 413.318C59.0238 413.263 58.9821 413.199 58.9541 413.128C58.9261 413.057 58.9123 412.981 58.9135 412.905C59.4207 389.969 48.1336 364.894 40.1438 357.647C40.0302 357.545 39.9618 357.401 39.9533 357.249C39.9448 357.096 39.997 356.946 40.0985 356.832C40.1517 356.778 40.2151 356.734 40.2851 356.705C40.3551 356.676 40.4302 356.661 40.5062 356.661C40.5821 356.661 40.6572 356.676 40.7272 356.705C40.7972 356.734 40.8607 356.778 40.9138 356.832C49.0666 364.169 60.5803 389.679 60.0639 412.932C60.0627 413.007 60.0468 413.081 60.017 413.15C59.9872 413.219 59.9442 413.281 59.8904 413.333C59.8365 413.385 59.773 413.427 59.7033 413.454C59.6336 413.482 59.5591 413.495 59.4842 413.494V413.494Z" fill="white"/>
<path d="M55.2538 385.548C55.2003 385.561 55.1443 385.561 55.0907 385.548C47.6807 383.41 38.4952 383.193 38.4046 383.184C38.3289 383.182 38.2541 383.166 38.1847 383.136C38.1153 383.106 38.0527 383.062 38.0004 383.007C37.9481 382.952 37.9073 382.887 37.8802 382.817C37.8532 382.746 37.8405 382.671 37.8429 382.595C37.8415 382.518 37.856 382.442 37.8854 382.372C37.9149 382.301 37.9587 382.237 38.014 382.185C38.0694 382.132 38.1351 382.091 38.207 382.065C38.2789 382.039 38.3554 382.028 38.4318 382.033C38.5223 382.033 47.8528 382.26 55.4078 384.434C55.5538 384.478 55.6765 384.578 55.7495 384.712C55.8224 384.846 55.8396 385.003 55.7973 385.149C55.762 385.266 55.69 385.367 55.592 385.439C55.494 385.511 55.3753 385.549 55.2538 385.548V385.548Z" fill="white"/>
<path d="M268.759 391.155L265.325 389.171C264.753 388.8 264.277 388.299 263.935 387.708C263.594 387.118 263.397 386.456 263.36 385.774V243.082C263.397 242.402 263.594 241.74 263.933 241.15C264.273 240.56 264.747 240.058 265.316 239.685L360.75 184.59C361.358 184.282 362.03 184.121 362.711 184.121C363.392 184.121 364.064 184.282 364.672 184.59L368.105 186.573C368.678 186.945 369.154 187.446 369.495 188.036C369.837 188.627 370.034 189.289 370.071 189.97V332.663C370.034 333.343 369.837 334.005 369.497 334.595C369.158 335.185 368.684 335.687 368.115 336.06L272.681 391.164C272.073 391.473 271.401 391.633 270.719 391.632C270.037 391.63 269.365 391.467 268.759 391.155V391.155Z" fill="#455A64"/>
<path d="M370.071 189.653C369.935 188.639 369.111 188.267 368.124 188.838L272.681 243.942C272.104 244.304 271.627 244.806 271.295 245.401L263.93 241.152C264.26 240.553 264.737 240.048 265.316 239.685L360.75 184.59C361.358 184.282 362.03 184.121 362.711 184.121C363.392 184.121 364.064 184.282 364.672 184.59L368.105 186.573C368.636 186.915 369.086 187.367 369.425 187.898C369.765 188.43 369.985 189.029 370.071 189.653V189.653Z" fill="#455A64"/>
<path d="M272.346 391.318C271.766 391.553 271.142 391.661 270.517 391.635C269.892 391.608 269.28 391.448 268.722 391.164L265.28 389.172C264.711 388.798 264.237 388.296 263.897 387.706C263.557 387.116 263.361 386.454 263.323 385.775V243.082C263.347 242.401 263.543 241.736 263.894 241.152L271.259 245.401C270.901 245.986 270.701 246.654 270.679 247.339V390.032C270.715 391.155 271.422 391.672 272.346 391.318Z" fill="#263238"/>
<path d="M270.715 247.357V390.032C270.715 391.282 271.621 391.789 272.681 391.164L368.114 336.06C368.684 335.687 369.157 335.185 369.497 334.595C369.837 334.005 370.034 333.343 370.071 332.663V189.971C370.071 188.72 369.165 188.213 368.114 188.838L272.681 243.942C272.107 244.315 271.629 244.82 271.287 245.413C270.945 246.007 270.749 246.673 270.715 247.357V247.357Z" fill="#37474F"/>
<path d="M248.431 301.71C247.199 300.976 241.483 297.724 241.184 297.552C240.951 297.413 240.752 297.223 240.602 296.997C240.452 296.771 240.355 296.514 240.318 296.246C240.28 295.977 240.304 295.703 240.386 295.445C240.469 295.186 240.608 294.95 240.794 294.753L263.36 270.548L270.715 274.769L248.159 298.992C247.982 299.181 247.847 299.405 247.764 299.65C247.681 299.895 247.651 300.155 247.677 300.413C247.703 300.67 247.783 300.919 247.913 301.143C248.043 301.367 248.22 301.56 248.431 301.71V301.71Z" fill="#455A64"/>
<path d="M270.715 274.796L248.159 298.992C247.909 299.26 247.745 299.597 247.69 299.959C247.635 300.321 247.691 300.692 247.851 301.021C248.011 301.351 248.267 301.625 248.586 301.806C248.905 301.987 249.27 302.067 249.636 302.036L270.715 300.297V274.796Z" fill="#37474F"/>
<path d="M320.393 231.233C331.517 224.81 340.531 230.019 340.531 242.864C340.531 255.71 331.517 271.318 320.393 277.74C309.269 284.163 300.256 278.954 300.256 266.118C300.256 253.282 309.269 237.656 320.393 231.233Z" fill="#3E63F6"/>
<path d="M320.248 241.342C323.872 239.259 326.78 240.944 326.78 245.111C326.656 247.376 326 249.58 324.866 251.544C323.731 253.509 322.149 255.178 320.248 256.416C316.625 258.5 313.708 256.815 313.708 252.648C313.832 250.382 314.489 248.177 315.626 246.213C316.762 244.248 318.346 242.58 320.248 241.342V241.342Z" fill="white"/>
<path d="M333.13 263.554C333.13 256.715 328.32 253.934 322.395 257.358L318.69 259.496C312.766 262.92 307.956 271.272 307.956 278.094V279.969C309.074 280.326 310.242 280.507 311.416 280.503C314.594 280.395 317.689 279.458 320.393 277.786C325.543 274.614 329.899 270.307 333.13 265.194V263.554Z" fill="white"/>
<path d="M307.639 341.323L333.148 326.594C334.235 325.969 335.114 326.476 335.114 327.726V335.942C335.077 336.624 334.879 337.286 334.538 337.876C334.196 338.467 333.72 338.968 333.148 339.339L307.639 354.069C306.552 354.694 305.673 354.187 305.673 352.937V344.72C305.71 344.039 305.907 343.377 306.249 342.786C306.59 342.196 307.067 341.695 307.639 341.323V341.323Z" fill="#3E63F6"/>
<path d="M295.147 322.97L345.613 293.82C346.908 293.068 347.968 293.675 347.968 295.178V298.231C347.924 299.048 347.687 299.843 347.278 300.551C346.869 301.259 346.298 301.861 345.613 302.308L295.119 331.458C293.824 332.21 292.773 331.603 292.773 330.1V327.074C292.815 326.251 293.051 325.449 293.464 324.735C293.877 324.022 294.454 323.417 295.147 322.97V322.97Z" fill="#FAFAFA"/>
<path d="M301.053 301.873C301.741 301.474 302.276 301.411 302.656 301.691C303.037 301.972 303.227 302.597 303.227 303.558C303.246 304.434 303.05 305.302 302.656 306.085C302.3 306.793 301.742 307.379 301.053 307.77L299.694 308.558V311.484C299.691 311.585 299.667 311.684 299.622 311.774C299.59 311.856 299.533 311.926 299.459 311.973L298.77 312.372C298.747 312.389 298.718 312.399 298.689 312.399C298.659 312.399 298.631 312.389 298.607 312.372C298.558 312.31 298.535 312.232 298.544 312.154V303.684C298.543 303.584 298.564 303.485 298.607 303.395C298.641 303.314 298.698 303.245 298.77 303.195L301.053 301.873ZM299.694 306.918L301.008 306.157C301.325 305.978 301.593 305.723 301.787 305.415C301.993 305.051 302.093 304.637 302.077 304.219C302.077 303.73 301.977 303.449 301.787 303.367C301.652 303.335 301.512 303.333 301.377 303.363C301.242 303.393 301.116 303.453 301.008 303.539L299.694 304.3V306.918Z" fill="#FAFAFA"/>
<path d="M307.023 298.421C307.113 298.367 307.186 298.367 307.231 298.421C307.289 298.503 307.329 298.595 307.349 298.693L309.441 305.777C309.441 305.777 309.441 305.831 309.441 305.859C309.44 305.96 309.415 306.059 309.369 306.148C309.337 306.23 309.28 306.3 309.206 306.348L308.59 306.701C308.481 306.764 308.399 306.774 308.354 306.701C308.31 306.656 308.279 306.599 308.264 306.538L307.892 305.297L305.175 306.855L304.812 308.522C304.786 308.612 304.753 308.7 304.713 308.785C304.668 308.895 304.584 308.985 304.477 309.038L303.861 309.391C303.838 309.411 303.809 309.421 303.78 309.421C303.75 309.421 303.721 309.411 303.698 309.391C303.651 309.333 303.628 309.258 303.635 309.183C303.63 309.15 303.63 309.117 303.635 309.083L305.718 299.59C305.743 299.45 305.783 299.314 305.836 299.182C305.88 299.087 305.953 299.008 306.044 298.956L307.023 298.421ZM307.494 303.911L306.588 300.713L305.682 304.989L307.494 303.911Z" fill="#FAFAFA"/>
<path d="M312.612 295.061C312.915 294.869 313.26 294.754 313.617 294.725C313.87 294.703 314.123 294.76 314.342 294.888C314.541 295.017 314.696 295.204 314.786 295.423C314.885 295.646 314.94 295.886 314.949 296.129C314.955 296.23 314.933 296.33 314.886 296.419C314.854 296.501 314.797 296.571 314.723 296.619L314.125 296.963C314.025 297.017 313.953 297.026 313.907 296.963C313.851 296.926 313.805 296.876 313.771 296.818C313.735 296.736 313.683 296.663 313.617 296.602C313.552 296.542 313.475 296.495 313.391 296.465C313.115 296.425 312.835 296.497 312.612 296.664C312.465 296.759 312.326 296.865 312.195 296.981C312.061 297.105 311.942 297.245 311.842 297.398C311.745 297.545 311.666 297.703 311.606 297.869C311.553 298.026 311.525 298.191 311.525 298.358C311.514 298.51 311.542 298.663 311.606 298.802C311.634 298.85 311.673 298.892 311.721 298.922C311.768 298.952 311.822 298.969 311.878 298.974C312.046 299.003 312.218 299.003 312.385 298.974L313.173 298.802C313.467 298.715 313.773 298.678 314.079 298.693C314.298 298.692 314.511 298.762 314.686 298.892C314.852 299.032 314.972 299.218 315.031 299.427C315.119 299.72 315.159 300.026 315.148 300.333C315.148 300.737 315.09 301.14 314.976 301.528C314.866 301.928 314.704 302.311 314.496 302.67C314.277 303.037 314.015 303.378 313.717 303.684C313.412 304 313.065 304.272 312.684 304.491C312.405 304.661 312.099 304.78 311.778 304.844C311.518 304.894 311.248 304.872 310.999 304.781C310.773 304.675 310.586 304.501 310.465 304.282C310.317 304.003 310.236 303.693 310.229 303.376C310.228 303.273 310.25 303.171 310.293 303.077C310.333 303 310.392 302.935 310.465 302.887L311.063 302.543C311.153 302.489 311.226 302.471 311.28 302.498C311.335 302.525 311.371 302.57 311.407 302.652C311.444 302.745 311.493 302.833 311.552 302.914C311.608 302.993 311.687 303.053 311.778 303.087C311.898 303.114 312.022 303.114 312.141 303.087C312.333 303.041 312.517 302.965 312.684 302.86C312.86 302.76 313.027 302.645 313.183 302.516C313.487 302.275 313.729 301.964 313.889 301.61C313.962 301.428 313.999 301.235 313.998 301.039C314.006 300.968 314 300.896 313.98 300.828C313.96 300.759 313.926 300.696 313.88 300.641C313.831 300.598 313.773 300.565 313.711 300.547C313.648 300.528 313.582 300.523 313.518 300.532C313.312 300.54 313.108 300.574 312.911 300.632C312.675 300.686 312.403 300.749 312.086 300.804C311.844 300.864 311.593 300.883 311.344 300.858C311.148 300.845 310.962 300.765 310.818 300.632C310.662 300.478 310.552 300.283 310.501 300.07C310.428 299.755 310.395 299.433 310.402 299.11C310.401 298.711 310.459 298.314 310.574 297.932C310.682 297.539 310.84 297.161 311.045 296.809C311.241 296.459 311.478 296.133 311.751 295.84C312 295.54 312.29 295.278 312.612 295.061V295.061Z" fill="#FAFAFA"/>
<path d="M318.563 291.636C318.864 291.439 319.21 291.321 319.569 291.292C319.821 291.271 320.075 291.328 320.294 291.455C320.487 291.588 320.638 291.773 320.728 291.99C320.827 292.213 320.883 292.452 320.891 292.696C320.902 292.797 320.88 292.899 320.828 292.986C320.796 293.068 320.739 293.138 320.665 293.185L320.067 293.53C319.977 293.584 319.904 293.602 319.85 293.53C319.792 293.493 319.747 293.439 319.723 293.376C319.64 293.217 319.501 293.094 319.333 293.031C319.198 293.012 319.06 293.019 318.928 293.053C318.796 293.087 318.672 293.148 318.563 293.231C318.412 293.323 318.27 293.429 318.138 293.548C318.006 293.672 317.89 293.812 317.793 293.964C317.694 294.11 317.614 294.268 317.558 294.436C317.501 294.593 317.471 294.758 317.467 294.925C317.457 295.077 317.485 295.23 317.549 295.369C317.577 295.417 317.616 295.458 317.663 295.488C317.711 295.518 317.765 295.536 317.821 295.541C317.988 295.57 318.16 295.57 318.328 295.541L319.116 295.369C319.411 295.286 319.716 295.25 320.022 295.26C320.241 295.258 320.454 295.328 320.629 295.459C320.794 295.601 320.917 295.786 320.982 295.994C321.062 296.289 321.099 296.594 321.091 296.9C321.09 297.304 321.032 297.707 320.919 298.095C320.808 298.495 320.647 298.878 320.439 299.237C320.22 299.607 319.959 299.951 319.659 300.26C319.354 300.568 319.01 300.836 318.636 301.057C318.357 301.227 318.05 301.346 317.73 301.411C317.472 301.46 317.206 301.438 316.96 301.347C316.729 301.245 316.538 301.07 316.416 300.849C316.268 300.57 316.19 300.259 316.19 299.943C316.179 299.842 316.202 299.741 316.253 299.653C316.285 299.571 316.342 299.502 316.416 299.454L317.014 299.11C317.105 299.055 317.186 299.037 317.232 299.065C317.263 299.079 317.291 299.1 317.313 299.127C317.335 299.154 317.351 299.185 317.359 299.219C317.4 299.31 317.448 299.398 317.503 299.481C317.563 299.561 317.645 299.621 317.739 299.653C317.858 299.681 317.982 299.681 318.101 299.653C318.294 299.608 318.477 299.531 318.645 299.427C318.816 299.324 318.98 299.209 319.134 299.083C319.293 298.958 319.433 298.812 319.551 298.648C319.668 298.491 319.765 298.321 319.841 298.141C319.913 297.959 319.95 297.765 319.949 297.57C319.958 297.499 319.952 297.427 319.932 297.358C319.911 297.29 319.877 297.226 319.832 297.171C319.783 297.128 319.725 297.096 319.662 297.077C319.6 297.059 319.534 297.053 319.469 297.063C319.267 297.075 319.067 297.108 318.871 297.162C318.636 297.217 318.355 297.28 318.047 297.334C317.801 297.395 317.547 297.413 317.295 297.389C317.099 297.378 316.912 297.298 316.77 297.162C316.616 297.008 316.509 296.813 316.462 296.601C316.381 296.29 316.345 295.97 316.353 295.649C316.356 295.248 316.414 294.849 316.525 294.463C316.637 294.071 316.795 293.694 316.996 293.339C317.192 292.987 317.433 292.661 317.712 292.37C317.956 292.083 318.243 291.835 318.563 291.636V291.636Z" fill="#FAFAFA"/>
<path d="M325.167 292.769L324.433 297.108C324.412 297.238 324.375 297.366 324.325 297.488C324.29 297.586 324.223 297.669 324.135 297.724L323.446 298.122C323.355 298.177 323.292 298.177 323.247 298.122C323.186 298.048 323.151 297.956 323.147 297.86L322.06 290.205C322.06 290.205 322.06 290.133 322.06 290.105C322.063 290.005 322.087 289.906 322.133 289.816C322.167 289.735 322.223 289.666 322.296 289.616L322.921 289.254C322.973 289.233 323.031 289.233 323.084 289.254C323.138 289.254 323.174 289.326 323.192 289.471L323.908 294.626L324.533 290.758C324.549 290.661 324.577 290.567 324.615 290.477C324.651 290.362 324.728 290.265 324.832 290.205L325.53 289.797C325.629 289.743 325.702 289.752 325.747 289.797C325.786 289.855 325.814 289.92 325.828 289.988L326.463 293.131L327.178 287.152C327.187 287.035 327.221 286.92 327.278 286.817C327.32 286.749 327.376 286.691 327.441 286.645L328.066 286.283C328.09 286.265 328.118 286.255 328.148 286.255C328.177 286.255 328.206 286.265 328.229 286.283C328.255 286.312 328.274 286.347 328.287 286.384C328.299 286.421 328.304 286.461 328.302 286.5C328.305 286.536 328.305 286.573 328.302 286.609L327.214 295.513C327.196 295.644 327.163 295.771 327.115 295.894C327.073 295.991 327.004 296.073 326.916 296.129L326.218 296.528C326.136 296.573 326.073 296.573 326.028 296.528C325.982 296.445 325.945 296.357 325.919 296.265L325.167 292.769Z" fill="#FAFAFA"/>
<path d="M329.407 288.928C329.427 288.426 329.487 287.926 329.588 287.433C329.691 286.952 329.849 286.484 330.059 286.038C330.259 285.605 330.514 285.2 330.82 284.833C331.13 284.47 331.5 284.163 331.916 283.927C332.235 283.711 332.609 283.588 332.994 283.574C333.282 283.577 333.557 283.691 333.764 283.891C333.983 284.138 334.142 284.433 334.226 284.752C334.343 285.168 334.407 285.597 334.416 286.029C334.416 286.192 334.416 286.373 334.416 286.573C334.416 286.772 334.416 286.98 334.416 287.198C334.416 287.415 334.416 287.623 334.416 287.823C334.416 288.022 334.416 288.212 334.416 288.384C334.397 288.884 334.336 289.38 334.235 289.87C334.13 290.35 333.975 290.817 333.773 291.265C333.567 291.697 333.308 292.102 333.003 292.47C332.693 292.83 332.326 293.136 331.916 293.376C331.589 293.591 331.21 293.713 330.82 293.729C330.679 293.732 330.538 293.706 330.408 293.653C330.277 293.6 330.158 293.521 330.059 293.421C329.823 293.167 329.66 292.854 329.588 292.515C329.48 292.097 329.419 291.669 329.407 291.238C329.407 291.075 329.407 290.894 329.407 290.694C329.407 290.495 329.407 290.287 329.407 290.069C329.407 289.852 329.407 289.653 329.407 289.444C329.407 289.236 329.398 289.091 329.407 288.928ZM333.266 286.763C333.286 286.541 333.261 286.318 333.192 286.106C333.124 285.894 333.013 285.699 332.867 285.531C332.632 285.322 332.305 285.331 331.916 285.531C331.493 285.779 331.158 286.153 330.956 286.6C330.699 287.128 330.563 287.706 330.557 288.294C330.557 288.629 330.557 289 330.557 289.408C330.557 289.816 330.557 290.178 330.557 290.504C330.537 290.726 330.562 290.949 330.63 291.161C330.699 291.373 330.81 291.568 330.956 291.736C331.191 291.935 331.517 291.917 331.916 291.691C332.332 291.44 332.663 291.071 332.867 290.631C333.124 290.106 333.26 289.53 333.266 288.946C333.266 288.602 333.266 288.23 333.266 287.823C333.266 287.415 333.275 287.089 333.266 286.763Z" fill="#FAFAFA"/>
<path d="M338.366 280.313C339.081 279.905 339.616 279.842 339.987 280.141C340.207 280.383 340.371 280.672 340.467 280.985C340.562 281.298 340.587 281.629 340.54 281.953C340.547 282.568 340.452 283.18 340.259 283.764C340.075 284.308 339.789 284.813 339.417 285.25L340.594 287.814C340.598 287.856 340.598 287.898 340.594 287.94C340.595 288.022 340.576 288.103 340.54 288.176C340.515 288.242 340.471 288.298 340.413 288.339L339.688 288.756C339.571 288.819 339.489 288.828 339.435 288.756C339.387 288.708 339.347 288.653 339.317 288.593L338.203 286.174L337.07 286.826V289.888C337.071 289.988 337.049 290.087 337.007 290.178C336.97 290.257 336.914 290.325 336.844 290.377L336.155 290.776C336.133 290.795 336.104 290.805 336.074 290.805C336.044 290.805 336.015 290.795 335.992 290.776C335.966 290.748 335.947 290.715 335.934 290.679C335.922 290.643 335.917 290.605 335.92 290.567V282.098C335.923 281.997 335.947 281.898 335.992 281.808C336.024 281.726 336.081 281.656 336.155 281.608L338.366 280.313ZM337.088 285.187L338.366 284.498C338.678 284.324 338.945 284.079 339.145 283.782C339.355 283.433 339.456 283.03 339.435 282.623C339.435 282.134 339.335 281.862 339.145 281.808C338.869 281.77 338.59 281.842 338.366 282.007L337.134 282.714L337.088 285.187Z" fill="#FAFAFA"/>
<path d="M344.435 276.825C344.764 276.611 345.14 276.48 345.531 276.445C345.815 276.435 346.091 276.535 346.301 276.726C346.541 276.978 346.707 277.291 346.781 277.632C346.903 278.081 346.97 278.543 346.981 279.009C346.981 279.643 346.981 280.295 346.981 280.956C346.962 281.496 346.895 282.032 346.781 282.56C346.678 283.05 346.52 283.527 346.31 283.982C346.108 284.4 345.852 284.79 345.549 285.141C345.247 285.501 344.885 285.808 344.48 286.047L342.333 287.216C342.311 287.235 342.282 287.245 342.252 287.245C342.222 287.245 342.193 287.235 342.17 287.216C342.144 287.188 342.124 287.156 342.111 287.12C342.099 287.084 342.094 287.045 342.098 287.007V278.538C342.101 278.437 342.125 278.338 342.17 278.248C342.202 278.166 342.259 278.096 342.333 278.048L344.435 276.825ZM345.83 279.643C345.826 279.397 345.79 279.154 345.721 278.918C345.679 278.74 345.588 278.577 345.459 278.447C345.402 278.39 345.334 278.345 345.259 278.316C345.184 278.286 345.104 278.272 345.024 278.275C344.797 278.29 344.578 278.365 344.39 278.492L343.248 279.144V285.051L344.435 284.371C344.665 284.238 344.87 284.066 345.042 283.864C345.211 283.665 345.354 283.446 345.468 283.212C345.581 282.962 345.666 282.701 345.721 282.433C345.785 282.153 345.821 281.868 345.83 281.581C345.857 280.92 345.857 280.277 345.83 279.643V279.643Z" fill="#FAFAFA"/>
<path d="M220.041 145.347C221.604 145.695 223.111 146.262 224.516 147.032C225.861 147.755 227.066 148.712 228.076 149.858C229.042 150.961 229.758 152.259 230.177 153.663C230.605 155.167 230.636 156.755 230.268 158.274C230.025 159.478 229.548 160.623 228.864 161.644C228.239 162.517 227.495 163.297 226.654 163.963C225.827 164.605 224.945 165.172 224.018 165.657L221.409 167.043C220.623 167.453 219.877 167.935 219.18 168.483C218.55 168.967 218.067 169.616 217.785 170.358C217.647 170.698 217.418 170.992 217.124 171.21C216.985 171.318 216.822 171.393 216.65 171.429C216.477 171.465 216.298 171.462 216.127 171.418L212.286 170.567C212.102 170.528 211.926 170.453 211.771 170.345C211.615 170.238 211.483 170.101 211.381 169.942C211.272 169.794 211.2 169.622 211.17 169.441C211.14 169.26 211.153 169.075 211.209 168.9C211.518 167.71 212.063 166.595 212.812 165.621C213.495 164.759 214.287 163.988 215.167 163.329C216.025 162.701 216.934 162.146 217.885 161.671C218.791 161.209 219.697 160.765 220.485 160.321C221.218 159.927 221.907 159.457 222.541 158.917C223.097 158.452 223.483 157.814 223.637 157.105C223.781 156.49 223.774 155.849 223.616 155.237C223.458 154.625 223.155 154.06 222.731 153.591C221.672 152.434 220.256 151.666 218.709 151.407C215.847 150.773 213.431 151.737 211.462 154.297C211.272 154.577 211.033 154.819 210.756 155.013C210.443 155.168 210.082 155.194 209.75 155.085L205.665 154.179C205.373 154.123 205.116 153.954 204.949 153.708C204.86 153.577 204.8 153.429 204.773 153.272C204.747 153.116 204.754 152.956 204.795 152.803C205.142 151.544 205.789 150.388 206.679 149.433C207.683 148.325 208.877 147.405 210.203 146.715C211.653 145.956 213.216 145.436 214.832 145.175C216.563 144.894 218.332 144.952 220.041 145.347V145.347ZM215.702 174.498C216.061 174.583 216.373 174.804 216.571 175.116C216.769 175.427 216.838 175.804 216.761 176.165L215.783 180.604C215.75 180.79 215.678 180.966 215.572 181.122C215.466 181.279 215.328 181.41 215.167 181.51C215.016 181.614 214.844 181.686 214.663 181.72C214.482 181.754 214.296 181.751 214.116 181.709L209.732 180.703C209.546 180.672 209.368 180.601 209.212 180.494C209.055 180.388 208.924 180.249 208.826 180.087C208.725 179.934 208.655 179.762 208.623 179.582C208.59 179.401 208.594 179.215 208.636 179.037L209.623 174.598C209.708 174.238 209.929 173.925 210.24 173.726C210.551 173.526 210.928 173.456 211.29 173.529L215.702 174.498Z" fill="#3E63F6"/>
<path d="M224.878 187.842C225.969 187.667 227.079 187.645 228.175 187.778C229.223 187.903 230.241 188.209 231.183 188.684C232.08 189.15 232.87 189.798 233.502 190.586C234.07 191.358 234.47 192.241 234.676 193.177C234.882 194.113 234.889 195.082 234.698 196.022C234.525 196.744 234.247 197.437 233.873 198.078C233.513 198.702 233.094 199.29 232.623 199.835C232.161 200.379 231.717 200.895 231.31 201.393C230.911 201.858 230.556 202.358 230.25 202.888C229.963 203.353 229.818 203.891 229.833 204.437C229.825 204.692 229.754 204.941 229.625 205.162C229.559 205.263 229.473 205.35 229.371 205.416C229.27 205.481 229.156 205.524 229.036 205.542L226.318 205.977C226.191 206 226.061 205.998 225.935 205.97C225.809 205.942 225.69 205.889 225.585 205.814C225.478 205.747 225.388 205.655 225.324 205.546C225.259 205.438 225.221 205.315 225.213 205.189C225.099 204.346 225.161 203.489 225.394 202.671C225.607 201.947 225.912 201.253 226.3 200.605C226.681 199.984 227.118 199.399 227.605 198.857C228.085 198.313 228.511 197.806 228.927 197.317C229.299 196.88 229.621 196.403 229.888 195.895C230.123 195.457 230.209 194.955 230.132 194.464C230.064 194.031 229.892 193.622 229.632 193.27C229.372 192.919 229.031 192.635 228.637 192.443C227.664 191.973 226.561 191.839 225.503 192.063C224.545 192.203 223.654 192.636 222.952 193.303C222.249 193.969 221.77 194.837 221.581 195.786C221.528 196.014 221.436 196.232 221.309 196.429C221.147 196.601 220.928 196.708 220.693 196.728L217.83 197.19C217.629 197.229 217.421 197.186 217.251 197.072C217.163 197.013 217.09 196.935 217.035 196.844C216.981 196.753 216.946 196.652 216.934 196.547C216.848 195.648 216.988 194.742 217.341 193.911C217.699 192.944 218.227 192.048 218.899 191.266C219.636 190.409 220.505 189.675 221.472 189.092C222.516 188.459 223.673 188.034 224.878 187.842V187.842ZM229.552 207.635C229.677 207.615 229.804 207.62 229.927 207.65C230.05 207.679 230.166 207.733 230.268 207.807C230.375 207.877 230.465 207.969 230.534 208.077C230.603 208.185 230.648 208.306 230.667 208.432L231.174 211.539C231.213 211.791 231.151 212.049 231.002 212.255C230.853 212.462 230.628 212.602 230.377 212.644L227.342 213.143C227.09 213.182 226.833 213.12 226.626 212.97C226.521 212.899 226.432 212.807 226.365 212.699C226.298 212.592 226.254 212.471 226.237 212.345L225.73 209.238C225.707 209.114 225.71 208.985 225.74 208.862C225.769 208.739 225.825 208.623 225.902 208.523C225.973 208.418 226.065 208.329 226.173 208.261C226.28 208.194 226.401 208.151 226.527 208.133L229.552 207.635Z" fill="#3E63F6"/>
<g opacity="0.2">
<path opacity="0.2" d="M224.878 187.842C225.969 187.667 227.079 187.645 228.175 187.778C229.223 187.903 230.241 188.209 231.183 188.684C232.08 189.15 232.87 189.798 233.502 190.586C234.07 191.358 234.47 192.241 234.676 193.177C234.882 194.113 234.889 195.082 234.698 196.022C234.525 196.744 234.247 197.437 233.873 198.078C233.513 198.702 233.094 199.29 232.623 199.835C232.161 200.379 231.717 200.895 231.31 201.393C230.911 201.858 230.556 202.358 230.25 202.888C229.963 203.353 229.818 203.891 229.833 204.437C229.825 204.692 229.754 204.941 229.625 205.162C229.559 205.263 229.473 205.35 229.371 205.416C229.27 205.481 229.156 205.524 229.036 205.542L226.318 205.977C226.191 206 226.061 205.998 225.935 205.97C225.809 205.942 225.69 205.889 225.585 205.814C225.478 205.747 225.388 205.655 225.324 205.546C225.259 205.438 225.221 205.315 225.213 205.189C225.099 204.346 225.161 203.489 225.394 202.671C225.607 201.947 225.912 201.253 226.3 200.605C226.681 199.984 227.118 199.399 227.605 198.857C228.085 198.313 228.511 197.806 228.927 197.317C229.299 196.88 229.621 196.403 229.888 195.895C230.123 195.457 230.209 194.955 230.132 194.464C230.064 194.031 229.892 193.622 229.632 193.27C229.372 192.919 229.031 192.635 228.637 192.443C227.664 191.973 226.561 191.839 225.503 192.063C224.545 192.203 223.654 192.636 222.952 193.303C222.249 193.969 221.77 194.837 221.581 195.786C221.528 196.014 221.436 196.232 221.309 196.429C221.147 196.601 220.928 196.708 220.693 196.728L217.83 197.19C217.629 197.229 217.421 197.186 217.251 197.072C217.163 197.013 217.09 196.935 217.035 196.844C216.981 196.753 216.946 196.652 216.934 196.547C216.848 195.648 216.988 194.742 217.341 193.911C217.699 192.944 218.227 192.048 218.899 191.266C219.636 190.409 220.505 189.675 221.472 189.092C222.516 188.459 223.673 188.034 224.878 187.842V187.842ZM229.552 207.635C229.677 207.615 229.804 207.62 229.927 207.65C230.05 207.679 230.166 207.733 230.268 207.807C230.375 207.877 230.465 207.969 230.534 208.077C230.603 208.185 230.648 208.306 230.667 208.432L231.174 211.539C231.213 211.791 231.151 212.049 231.002 212.255C230.853 212.462 230.628 212.602 230.377 212.644L227.342 213.143C227.09 213.182 226.833 213.12 226.626 212.97C226.521 212.899 226.432 212.807 226.365 212.699C226.298 212.592 226.254 212.471 226.237 212.345L225.73 209.238C225.707 209.114 225.71 208.985 225.74 208.862C225.769 208.739 225.825 208.623 225.902 208.523C225.973 208.418 226.065 208.329 226.173 208.261C226.28 208.194 226.401 208.151 226.527 208.133L229.552 207.635Z" fill="black"/>
</g>
<path d="M250.496 192.724C250.62 192.81 250.724 192.92 250.804 193.048C250.883 193.176 250.936 193.318 250.958 193.467C250.987 193.614 250.985 193.766 250.952 193.913C250.92 194.059 250.857 194.198 250.768 194.319L248.612 197.353C248.526 197.477 248.416 197.581 248.288 197.661C248.161 197.74 248.018 197.793 247.869 197.815C247.722 197.844 247.57 197.842 247.423 197.809C247.277 197.777 247.139 197.714 247.018 197.625L244.046 195.514C243.923 195.43 243.818 195.32 243.74 195.192C243.662 195.064 243.612 194.92 243.593 194.772C243.565 194.624 243.567 194.472 243.599 194.326C243.632 194.179 243.695 194.041 243.784 193.92L245.967 190.885C246.143 190.639 246.41 190.473 246.708 190.422C247.007 190.371 247.313 190.44 247.561 190.614L250.496 192.724ZM263.033 172.17C264.117 172.929 265.082 173.845 265.896 174.888C266.69 175.857 267.304 176.962 267.708 178.149C268.084 179.286 268.21 180.491 268.079 181.682C267.926 182.951 267.445 184.159 266.684 185.187C266.119 186.019 265.392 186.727 264.546 187.271C263.802 187.737 262.993 188.092 262.146 188.322C261.32 188.538 260.478 188.683 259.627 188.757L257.218 188.974C256.495 189.032 255.78 189.156 255.08 189.345C254.434 189.492 253.844 189.819 253.377 190.287C253.166 190.502 252.899 190.652 252.607 190.722C252.468 190.762 252.321 190.768 252.179 190.74C252.038 190.711 251.905 190.65 251.792 190.559L249.165 188.693C248.914 188.514 248.742 188.244 248.684 187.941C248.651 187.794 248.652 187.642 248.688 187.495C248.724 187.349 248.794 187.213 248.893 187.099C249.506 186.303 250.273 185.637 251.148 185.142C251.936 184.712 252.777 184.386 253.649 184.173C254.49 183.969 255.348 183.838 256.212 183.783C257.064 183.729 257.861 183.666 258.604 183.593C259.284 183.533 259.955 183.399 260.606 183.195C261.175 183.005 261.666 182.632 262.001 182.135C262.304 181.714 262.5 181.227 262.575 180.715C262.649 180.202 262.598 179.679 262.427 179.191C261.998 177.983 261.179 176.953 260.098 176.265C258.142 174.87 256.007 174.824 253.694 176.129C253.461 176.277 253.203 176.381 252.933 176.437C252.792 176.447 252.651 176.428 252.517 176.383C252.383 176.338 252.26 176.267 252.154 176.174L249.364 174.19C249.263 174.123 249.176 174.036 249.109 173.935C249.042 173.834 248.997 173.721 248.974 173.601C248.953 173.478 248.957 173.352 248.986 173.23C249.016 173.108 249.071 172.994 249.146 172.895C249.805 172.051 250.66 171.383 251.638 170.947C252.748 170.444 253.937 170.138 255.152 170.041C256.489 169.93 257.836 170.037 259.138 170.358C260.544 170.697 261.868 171.313 263.033 172.17V172.17Z" fill="#3E63F6"/>
<g opacity="0.6">
<path opacity="0.6" d="M250.496 192.724C250.62 192.81 250.724 192.92 250.804 193.048C250.883 193.176 250.936 193.318 250.958 193.467C250.987 193.614 250.985 193.766 250.952 193.913C250.92 194.059 250.857 194.198 250.768 194.319L248.612 197.353C248.526 197.477 248.416 197.581 248.288 197.661C248.161 197.74 248.018 197.793 247.869 197.815C247.722 197.844 247.57 197.842 247.423 197.809C247.277 197.777 247.139 197.714 247.018 197.625L244.046 195.514C243.923 195.43 243.818 195.32 243.74 195.192C243.662 195.064 243.612 194.92 243.593 194.772C243.565 194.624 243.567 194.472 243.599 194.326C243.632 194.179 243.695 194.041 243.784 193.92L245.967 190.885C246.143 190.639 246.41 190.473 246.708 190.422C247.007 190.371 247.313 190.44 247.561 190.614L250.496 192.724ZM263.033 172.17C264.117 172.929 265.082 173.845 265.896 174.888C266.69 175.857 267.304 176.962 267.708 178.149C268.084 179.286 268.21 180.491 268.079 181.682C267.926 182.951 267.445 184.159 266.684 185.187C266.119 186.019 265.392 186.727 264.546 187.271C263.802 187.737 262.993 188.092 262.146 188.322C261.32 188.538 260.478 188.683 259.627 188.757L257.218 188.974C256.495 189.032 255.78 189.156 255.08 189.345C254.434 189.492 253.844 189.819 253.377 190.287C253.166 190.502 252.899 190.652 252.607 190.722C252.468 190.762 252.321 190.768 252.179 190.74C252.038 190.711 251.905 190.65 251.792 190.559L249.165 188.693C248.914 188.514 248.742 188.244 248.684 187.941C248.651 187.794 248.652 187.642 248.688 187.495C248.724 187.349 248.794 187.213 248.893 187.099C249.506 186.303 250.273 185.637 251.148 185.142C251.936 184.712 252.777 184.386 253.649 184.173C254.49 183.969 255.348 183.838 256.212 183.783C257.064 183.729 257.861 183.666 258.604 183.593C259.284 183.533 259.955 183.399 260.606 183.195C261.175 183.005 261.666 182.632 262.001 182.135C262.304 181.714 262.5 181.227 262.575 180.715C262.649 180.202 262.598 179.679 262.427 179.191C261.998 177.983 261.179 176.953 260.098 176.265C258.142 174.87 256.007 174.824 253.694 176.129C253.461 176.277 253.203 176.381 252.933 176.437C252.792 176.447 252.651 176.428 252.517 176.383C252.383 176.338 252.26 176.267 252.154 176.174L249.364 174.19C249.263 174.123 249.176 174.036 249.109 173.935C249.042 173.834 248.997 173.721 248.974 173.601C248.953 173.478 248.957 173.352 248.986 173.23C249.016 173.108 249.071 172.994 249.146 172.895C249.805 172.051 250.66 171.383 251.638 170.947C252.748 170.444 253.937 170.138 255.152 170.041C256.489 169.93 257.836 170.037 259.138 170.358C260.544 170.697 261.868 171.313 263.033 172.17V172.17Z" fill="white"/>
</g>
<path d="M183.036 272.912H150.85V194.935C150.85 188.162 153.541 181.667 158.33 176.878C163.119 172.089 169.614 169.398 176.387 169.398H179.358C186.131 169.398 192.626 172.089 197.415 176.878C202.204 181.667 204.895 188.162 204.895 194.935V251.099C204.883 256.888 202.574 262.436 198.476 266.526C194.378 270.615 188.825 272.912 183.036 272.912Z" fill="#263238"/>
<path d="M147.716 460.636C147.147 463.866 146.844 467.139 146.81 470.419C146.692 476.362 145.605 478.472 145.46 483.346C145.288 488.917 146.258 491 148.513 494.135C150.769 497.269 156.666 500.104 159.221 494.814C161.775 489.524 161.404 486.054 160.598 480.592C159.773 474.939 159.692 471.814 159.184 467.511C158.768 463.716 158.279 460.826 158.279 460.826L147.716 460.636Z" fill="#263238"/>
<path d="M164.583 421.167L145.017 420.813C145.306 433.876 147.381 448.379 147.734 460.672C147.807 462.982 147.68 478.599 148.55 483.319C149.863 490.457 158.324 489.488 158.777 485.221C159.23 480.954 158.233 462.719 158.26 460.835C158.179 452.972 161.884 439.701 163.795 425.587C163.877 424.908 164.493 421.846 164.583 421.167Z" fill="#FFA8A7"/>
<path d="M189.721 450.472C189.721 450.472 188.951 450.055 188.815 450.879C188.625 451.858 188.335 453.878 187.91 455.49C187.348 457.728 186.877 461.415 187.212 463.245C187.547 465.074 191.805 467.412 194.568 468.263C197.973 469.314 201.078 471.162 203.626 473.653C206.344 476.226 212.259 478.653 216.309 478.626C221.064 478.626 224.38 477.041 225.947 474.495C227.514 471.95 224.516 471.642 219.081 468.154L214.868 465.437C206.253 459.811 203.092 456.804 200.673 451.178L189.721 450.472Z" fill="#263238"/>
<path d="M200.746 446.984C200.601 442.944 203.391 408.602 203.391 408.602L184.812 417.072C188.788 440.824 189.64 446.431 189.703 450.318C189.622 450.643 189.588 450.979 189.604 451.314C189.604 455.925 194.83 458.416 198.889 461.496C202.339 464.199 206.015 466.599 209.877 468.671C212.83 470.147 218.827 470.283 219.57 468.39C214.624 464.612 207.431 458.96 203.5 454.648C201.579 452.619 200.891 451.033 200.746 446.984Z" fill="#FFA8A7"/>
<path d="M153.034 293.702C145.895 309.364 145.895 321.485 147.082 341.477C148.133 359.821 149.881 375.991 149.881 375.991C149.609 379.243 145.089 385.593 144.5 399.978C143.957 413.422 145.406 430.515 145.406 430.515C145.406 430.515 155.561 436.141 163.071 430.461C163.071 430.461 170.318 395.866 172.437 379.035C174.249 364.351 177.51 345.59 177.51 345.59L184.368 378.935C182.888 383.666 181.815 388.515 181.161 393.429C180.201 403.33 185.745 422.77 185.745 422.77C185.745 422.77 196.235 425.895 202.639 420.216C202.639 420.216 205.031 388.61 205.927 376.688C207.123 360.718 204.605 317.49 202.639 294.598L153.034 293.702Z" fill="#455A64"/>
<path d="M177.528 345.563L180.345 320.434C180.345 320.434 192.973 318.749 198.698 313.368C197.06 315.932 194.877 318.103 192.305 319.728C189.732 321.353 186.834 322.392 183.815 322.771L179.739 346.152L184.368 378.935L177.528 345.563Z" fill="#263238"/>
<path d="M228.665 287.524C229.186 282.938 229.416 278.324 229.353 273.709C229.072 269.723 228.357 269.071 222.786 262.014C215.267 252.475 208.844 243.897 202.05 235.373C197.195 229.285 192.086 228.352 187.121 228.624C183.643 228.814 190.437 245.546 193.852 255.447L213.355 276.445C213.96 277.274 214.237 278.296 214.135 279.316L212.957 297.18L218.8 305.007C218.8 305.007 227.65 297.379 228.665 287.524Z" fill="#FFA8A7"/>
<path d="M168.316 229.167C164.538 229.43 157.672 230.073 157.672 230.073C153.713 232.284 152.707 234.104 151.974 239.359C151.657 241.605 153.486 247.575 155.054 256.063L158.025 271.798L157.699 279.606C156.159 284.371 152.671 290.287 149.591 299.01C164.719 307.453 177.401 307.77 188.906 306.257C197.675 305.125 202.322 303.005 203.871 300.903C203.545 292.289 202.965 286.962 202.784 277.958C202.721 274.18 202.947 270.357 203.101 266.009C208.98 261.172 209.053 253.128 205.819 247.892C198.363 235.817 191.107 228.216 186.306 228.606L168.316 229.167Z" fill="#3E63F6"/>
<path opacity="0.6" d="M168.316 229.167C164.538 229.43 157.672 230.073 157.672 230.073C153.713 232.284 152.707 234.104 151.974 239.359C151.657 241.605 153.486 247.575 155.054 256.063L158.025 271.798L157.699 279.606C156.159 284.371 152.671 290.287 149.591 299.01C164.719 307.453 177.401 307.77 188.906 306.257C197.675 305.125 202.322 303.005 203.871 300.903C203.545 292.289 202.965 286.962 202.784 277.958C202.721 274.18 202.947 270.357 203.101 266.009C208.98 261.172 209.053 253.128 205.819 247.892C198.363 235.817 191.107 228.216 186.306 228.606L168.316 229.167Z" fill="white"/>
<path opacity="0.1" d="M191.388 266.127C191.388 266.127 184.485 271.49 176.595 268.691C174.38 267.992 172.382 266.734 170.795 265.038C169.208 263.341 168.085 261.264 167.536 259.007C167.536 259.007 166.703 268.02 176.64 271.091C186.27 274.053 191.388 266.127 191.388 266.127Z" fill="black"/>
<path d="M200.755 204.428C200.456 217.509 196.225 220.734 194.088 221.64C191.95 222.546 187.855 222.002 183.869 221.341V229.24C183.869 229.24 188.471 234.059 188.127 237.655C187.783 241.252 180.88 241.659 175.735 238.136C172.896 236.185 170.328 233.867 168.098 231.242C167.67 230.735 167.436 230.093 167.437 229.43V210.95C167.437 210.95 165.254 213.26 161.395 210.615C160.562 210.084 159.849 209.385 159.301 208.563C158.753 207.741 158.382 206.814 158.212 205.841C158.041 204.868 158.075 203.871 158.311 202.912C158.547 201.952 158.98 201.053 159.583 200.27C161.268 198.286 165.544 198.15 167.591 201.176C168.75 203.432 168.904 205.705 170.2 204.799C173.642 202.317 171.794 196.647 175.952 193.929C177.316 193.217 178.734 192.611 180.191 192.117C187.611 189.554 194.042 187.398 195.591 182.325C198.508 183.992 201.117 189.001 200.755 204.428Z" fill="#FFA8A7"/>
<path d="M186.125 216.114C187.076 216.114 187.846 215.343 187.846 214.393C187.846 213.442 187.076 212.672 186.125 212.672C185.174 212.672 184.404 213.442 184.404 214.393C184.404 215.343 185.174 216.114 186.125 216.114Z" fill="#B16668"/>
<path d="M184.984 202.444C184.983 202.799 184.879 203.145 184.683 203.441C184.488 203.736 184.21 203.968 183.884 204.108C183.559 204.247 183.199 204.288 182.85 204.225C182.502 204.162 182.179 203.998 181.922 203.754C181.666 203.51 181.486 203.195 181.407 202.85C181.327 202.505 181.35 202.144 181.473 201.811C181.597 201.479 181.815 201.19 182.101 200.981C182.386 200.771 182.727 200.65 183.081 200.633C183.327 200.62 183.572 200.658 183.802 200.744C184.033 200.829 184.243 200.961 184.421 201.13C184.599 201.3 184.741 201.503 184.838 201.729C184.934 201.955 184.984 202.199 184.984 202.444V202.444Z" fill="#263238"/>
<path d="M198.708 202.625C198.726 202.847 198.7 203.07 198.632 203.282C198.563 203.493 198.453 203.689 198.308 203.858C198.163 204.026 197.986 204.164 197.787 204.264C197.588 204.363 197.371 204.422 197.149 204.437C196.926 204.458 196.7 204.431 196.487 204.357C196.275 204.284 196.08 204.166 195.916 204.012C195.753 203.858 195.624 203.671 195.538 203.463C195.452 203.255 195.412 203.031 195.419 202.807C195.396 202.583 195.418 202.358 195.485 202.143C195.552 201.929 195.662 201.731 195.808 201.56C195.955 201.39 196.134 201.252 196.336 201.153C196.538 201.055 196.758 200.999 196.982 200.988C197.206 200.978 197.43 201.013 197.64 201.092C197.85 201.171 198.042 201.292 198.204 201.448C198.365 201.604 198.493 201.791 198.58 201.998C198.667 202.205 198.71 202.428 198.708 202.653V202.625Z" fill="#263238"/>
<path d="M182.656 207.1C181.093 207.1 179.594 206.48 178.489 205.376C177.383 204.272 176.761 202.775 176.758 201.212C176.758 197.208 180.889 197.208 182.656 197.208C184.422 197.208 188.544 197.208 188.544 201.212C188.541 202.773 187.92 204.269 186.816 205.373C185.713 206.477 184.216 207.098 182.656 207.1V207.1ZM182.656 198.132C179.032 198.132 177.691 199.038 177.691 201.212C177.691 202.534 178.216 203.801 179.151 204.735C180.085 205.67 181.352 206.194 182.674 206.194C183.995 206.194 185.262 205.67 186.197 204.735C187.131 203.801 187.656 202.534 187.656 201.212C187.62 198.993 186.225 198.132 182.656 198.132Z" fill="#455A64"/>
<path d="M197.611 207.1C196.049 207.1 194.55 206.48 193.445 205.376C192.339 204.272 191.717 202.775 191.714 201.212C191.714 197.208 195.845 197.208 197.611 197.208C199.378 197.208 203.5 197.208 203.5 201.212C203.497 202.773 202.876 204.269 201.772 205.373C200.669 206.477 199.172 207.098 197.611 207.1V207.1ZM197.611 198.132C194.042 198.132 192.647 199.038 192.647 201.212C192.647 202.534 193.172 203.801 194.107 204.735C195.041 205.67 196.308 206.194 197.63 206.194C198.951 206.194 200.218 205.67 201.153 204.735C202.087 203.801 202.612 202.534 202.612 201.212C202.576 198.993 201.181 198.132 197.611 198.132Z" fill="#455A64"/>
<path d="M189.459 199.31L189.749 210.316L195.537 208.523L189.459 199.31Z" fill="#F28F8F"/>
<path d="M183.86 221.368C179.657 220.815 171.006 218.333 169.656 214.909C170.2 216.64 171.258 218.163 172.691 219.275C175.273 221.495 183.86 223.986 183.86 223.986V221.368Z" fill="#F28F8F"/>
<path d="M184.069 193.965L180.228 196.312C179.925 195.784 179.837 195.161 179.982 194.57C180.127 193.98 180.494 193.468 181.007 193.141C181.26 192.987 181.542 192.886 181.836 192.845C182.129 192.803 182.428 192.821 182.714 192.898C183 192.975 183.268 193.11 183.501 193.293C183.733 193.476 183.927 193.705 184.069 193.965Z" fill="#263238"/>
<path d="M199.695 196.574L195.419 195.08C195.502 194.796 195.642 194.533 195.83 194.305C196.018 194.078 196.251 193.892 196.514 193.758C196.777 193.624 197.065 193.545 197.36 193.526C197.654 193.507 197.949 193.549 198.227 193.648C198.801 193.854 199.273 194.273 199.546 194.818C199.819 195.362 199.873 195.991 199.695 196.574V196.574Z" fill="#263238"/>
<path d="M188.082 201.683C188.02 201.683 187.959 201.671 187.903 201.647C187.846 201.623 187.795 201.589 187.752 201.545C187.709 201.501 187.675 201.449 187.652 201.392C187.63 201.335 187.619 201.274 187.62 201.212C187.62 200.46 189.105 199.971 190.446 199.971C191.787 199.971 192.647 200.46 192.647 201.212C192.619 201.311 192.56 201.397 192.478 201.459C192.396 201.521 192.297 201.554 192.194 201.554C192.092 201.554 191.992 201.521 191.911 201.459C191.829 201.397 191.77 201.311 191.741 201.212C191.741 201.122 191.279 200.895 190.473 200.895C189.824 200.881 189.178 200.992 188.571 201.221C188.571 201.284 188.558 201.347 188.533 201.405C188.508 201.462 188.472 201.515 188.426 201.558C188.38 201.601 188.326 201.635 188.267 201.656C188.208 201.678 188.145 201.687 188.082 201.683V201.683Z" fill="#455A64"/>
<path d="M177.238 201.285H177.184L166.83 200.379C166.346 199.899 165.77 199.523 165.136 199.274L177.293 200.397C177.415 200.413 177.526 200.476 177.602 200.572C177.678 200.669 177.713 200.791 177.7 200.913C177.679 201.02 177.621 201.115 177.537 201.183C177.452 201.251 177.347 201.287 177.238 201.285Z" fill="#455A64"/>
<path d="M134.726 212.083C138.114 207.553 140.424 204.138 143.513 200.306C145.27 198.105 146.393 196.529 148.042 194.273C149.202 192.715 149.854 191.402 151.176 190.922C152.605 190.336 153.893 189.453 154.954 188.331C155.606 187.609 156.211 186.847 156.766 186.048C158.707 183.435 161.014 181.113 163.614 179.154C166.332 177.107 169.366 175.531 172.166 173.583C173.832 172.415 175.617 170.476 173.588 168.664C172.965 168.14 172.221 167.782 171.423 167.623C166.486 166.554 162.192 168.248 157.364 169.48C155.266 170.003 153.215 170.697 151.231 171.554C150.255 171.94 149.339 172.465 148.513 173.112C147.358 174.277 146.411 175.631 145.714 177.116C143.603 180.885 139.074 184.254 135.903 187.235C132.198 190.722 128.883 193.92 124.653 197.761C120.848 201.23 117.125 204.419 113.637 208.206C110.747 211.331 111.825 213.777 112.206 214.628C114.561 219.466 117.197 221.205 120.359 224.203C125.794 229.394 144.591 244.332 150.814 249.269C152.151 250.319 153.201 251.69 153.867 253.255L155.063 256.017C162.165 257.322 166.902 246.66 161.023 233.824C160.05 231.748 158.562 229.955 156.702 228.615C149.274 223.207 134.726 212.083 134.726 212.083Z" fill="#FFA8A7"/>
<path d="M134.726 212.083C132.465 214.864 129.453 216.936 126.048 218.052C126.048 218.052 130.577 219.212 136.782 213.641L134.726 212.083Z" fill="#F28F8F"/>
<path d="M226.817 278.075L225.657 277.079C225.484 276.965 225.286 276.893 225.08 276.869C224.874 276.846 224.665 276.871 224.47 276.943L211.888 280.367C211.254 280.579 210.673 280.924 210.186 281.381C209.698 281.837 209.314 282.394 209.062 283.012L200.003 309.129C199.894 309.341 199.851 309.582 199.88 309.82C199.909 310.057 200.009 310.28 200.166 310.46V310.46L201.362 311.493C201.536 311.613 201.736 311.689 201.946 311.714C202.156 311.739 202.369 311.713 202.567 311.638L215.167 308.214C215.801 308.002 216.382 307.657 216.869 307.2C217.357 306.744 217.741 306.187 217.993 305.569C219.805 300.432 225.24 284.589 227.052 279.452C227.27 278.809 227.161 278.32 226.817 278.075Z" fill="#455A64"/>
<path d="M201.19 310.134L210.248 284.018C210.5 283.4 210.883 282.844 211.371 282.389C211.859 281.934 212.441 281.59 213.075 281.382L225.648 277.958C226.817 277.641 227.46 278.311 227.043 279.452C225.231 284.589 219.796 300.432 217.985 305.569C217.732 306.187 217.348 306.744 216.861 307.2C216.373 307.657 215.792 308.002 215.158 308.214L202.585 311.674C201.425 311.946 200.8 311.276 201.19 310.134Z" fill="#3E63F6"/>
<path d="M211.707 282.106C211.053 282.602 210.546 283.266 210.239 284.027L201.181 310.134C201.077 310.341 201.034 310.574 201.056 310.805C201.079 311.035 201.166 311.255 201.307 311.439L200.184 310.478C200.023 310.3 199.92 310.077 199.89 309.839C199.859 309.602 199.902 309.36 200.012 309.147L209.071 283.03C209.357 282.32 209.822 281.696 210.42 281.219L211.707 282.106Z" fill="#37474F"/>
<path d="M223.365 289.979C222.46 292.633 219.316 294.408 214.116 295.64C208.917 296.872 206.045 302.389 206.869 304.065C207.694 305.741 216.1 307.308 219.461 306.828C222.822 306.348 226.192 301.492 227.215 299.988C228.239 298.485 229.417 287.995 228.339 286.554C227.261 285.114 224.987 285.34 224.987 285.34L223.365 289.979Z" fill="#F28F8F"/>
</svg>
