<svg width="35" height="41" viewBox="0 0 35 41" fill="none" xmlns="http://www.w3.org/2000/svg">
<g clip-path="url(#clip0)">
<path d="M33.4496 8.6942C33.8749 9.12128 34.2395 9.70089 34.5433 10.433C34.8471 11.1652 34.999 11.8363 34.999 12.4464V38.8036C34.999 39.4137 34.7863 39.9323 34.361 40.3594C33.9357 40.7865 33.4192 41 32.8116 41H2.18868C1.58108 41 1.06462 40.7865 0.639306 40.3594C0.213987 39.9323 0.00132751 39.4137 0.00132751 38.8036V2.19643C0.00132751 1.58631 0.213987 1.06771 0.639306 0.640625C1.06462 0.213542 1.58108 0 2.18868 0H22.604C23.2116 0 23.8799 0.15253 24.6091 0.457589C25.3382 0.762649 25.9154 1.12872 26.3407 1.5558L33.4496 8.6942ZM23.3331 3.11161V11.7143H31.9002C31.7483 11.2719 31.5813 10.9593 31.399 10.7762L24.2673 3.61496C24.085 3.43192 23.7736 3.26414 23.3331 3.11161ZM32.0825 38.0714V14.6429H22.604C21.9964 14.6429 21.4799 14.4293 21.0546 14.0022C20.6293 13.5751 20.4166 13.0565 20.4166 12.4464V2.92857H2.9178V38.0714H32.0825ZM29.166 27.8214V35.1429H5.83427V30.75L10.209 26.3571L13.1255 29.2857L21.8749 20.5L29.166 27.8214ZM10.209 23.4286C8.99378 23.4286 7.96087 23.0015 7.11023 22.1473C6.25959 21.2932 5.83427 20.256 5.83427 19.0357C5.83427 17.8155 6.25959 16.7783 7.11023 15.9241C7.96087 15.0699 8.99378 14.6429 10.209 14.6429C11.4242 14.6429 12.4571 15.0699 13.3077 15.9241C14.1584 16.7783 14.5837 17.8155 14.5837 19.0357C14.5837 20.256 14.1584 21.2932 13.3077 22.1473C12.4571 23.0015 11.4242 23.4286 10.209 23.4286Z" fill="#1F1A6B"/>
</g>
<defs>
<clipPath id="clip0">
<rect width="35" height="41" rx="5" fill="white"/>
</clipPath>
</defs>
</svg>
