<svg width="34" height="30" viewBox="0 0 34 30" fill="none" xmlns="http://www.w3.org/2000/svg">
<path d="M25.3333 22L32 15.3333M32 15.3333L25.3333 8.66667M32 15.3333H8.66667M18.6667 22V23.6667C18.6667 24.9927 18.1399 26.2645 17.2022 27.2022C16.2645 28.1399 14.9927 28.6667 13.6667 28.6667H7C5.67392 28.6667 4.40215 28.1399 3.46447 27.2022C2.52678 26.2645 2 24.9927 2 23.6667V7C2 5.67392 2.52678 4.40215 3.46447 3.46447C4.40215 2.52678 5.67392 2 7 2H13.6667C14.9927 2 16.2645 2.52678 17.2022 3.46447C18.1399 4.40215 18.6667 5.67392 18.6667 7V8.66667" stroke="white" stroke-width="2.5" stroke-linecap="round" stroke-linejoin="round"/>
</svg>
