<svg width="45" height="58" viewBox="0 0 45 58" fill="none" xmlns="http://www.w3.org/2000/svg">
<path d="M42.9545 0H2.04545C0.914062 0 0 0.914062 0 2.04545V55.2273C0 56.3587 0.914062 57.2727 2.04545 57.2727H42.9545C44.0859 57.2727 45 56.3587 45 55.2273V2.04545C45 0.914062 44.0859 0 42.9545 0ZM32.4716 18.0192L29.4993 15.8523L26.3352 18.1151V3.83523H32.4716V18.0192Z" fill="#1F1A6B"/>
<path d="M10.0072 19.8005C9.99175 19.6936 10.0012 19.5846 10.0348 19.482C10.0685 19.3794 10.1254 19.286 10.2011 19.209C10.2769 19.1321 10.3694 19.0737 10.4714 19.0384C10.5735 19.0031 10.6823 18.9919 10.7894 19.0057H14.8012C15.3059 19.0057 15.5582 19.2706 15.5582 19.8005V29.0101C16.5546 28.0524 17.7147 27.2811 18.9834 26.7329C20.2904 26.1727 21.6993 25.8892 23.1214 25.9002C24.7879 25.8785 26.4398 26.2141 27.9658 26.8843C29.3859 27.5196 30.6626 28.4358 31.719 29.5778C32.7765 30.7447 33.599 32.1048 34.1413 33.5833C34.7206 35.1475 35.0112 36.8039 34.9992 38.4719C35.0185 40.1969 34.708 41.9097 34.0845 43.5182C33.5125 44.9957 32.6551 46.346 31.5613 47.4922C30.4885 48.604 29.2008 49.486 27.7766 50.0848C26.2892 50.7093 24.6903 51.0248 23.0772 51.012C21.688 51.015 20.3148 50.7158 19.0528 50.1352C17.7588 49.5414 16.58 48.7235 15.5708 47.7193L15.1545 49.517C15.0879 49.7769 14.9792 50.024 14.8328 50.2488C14.7481 50.362 14.6358 50.4517 14.5066 50.5091C14.3773 50.5665 14.2355 50.5898 14.0947 50.5768H10.802C10.6943 50.5908 10.5848 50.5795 10.4822 50.5439C10.3796 50.5083 10.2867 50.4493 10.2109 50.3716C10.135 50.2939 10.0782 50.1996 10.0451 50.0962C10.0119 49.9927 10.0033 49.883 10.0198 49.7757L10.0072 19.8005ZM15.1797 38.4467C15.18 39.4743 15.3948 40.4905 15.8105 41.4303C16.2017 42.3309 16.758 43.1503 17.4506 43.8462C18.1419 44.5322 18.9575 45.0802 19.8539 45.4611C20.7692 45.8511 21.7543 46.0507 22.7492 46.0477C23.7118 46.0635 24.6667 45.8737 25.55 45.4908C26.4334 45.1078 27.2247 44.5407 27.8712 43.8273C28.5 43.1209 28.9881 42.3009 29.3094 41.4114C29.6492 40.4602 29.82 39.4568 29.814 38.4467C29.821 37.4416 29.6457 36.4435 29.2968 35.5009C28.9682 34.6078 28.4786 33.7825 27.8523 33.066C27.2294 32.3687 26.472 31.8044 25.6256 31.407C24.7378 30.9891 23.7683 30.7737 22.787 30.7763C21.7776 30.7708 20.7776 30.9704 19.8476 31.3629C18.9445 31.7438 18.124 32.2966 17.4316 32.9903C16.7399 33.6916 16.1876 34.5178 15.8042 35.4252C15.3878 36.3803 15.173 37.4111 15.1734 38.453L15.1797 38.4467Z" fill="white"/>
</svg>
