<svg width="26" height="29" viewBox="0 0 26 29" fill="none" xmlns="http://www.w3.org/2000/svg">
<path d="M5.18854 6.48567C5.18854 6.14165 5.3252 5.81172 5.56846 5.56846C5.81172 5.3252 6.14165 5.18854 6.48567 5.18854H19.457C19.801 5.18854 20.131 5.3252 20.3742 5.56846C20.6175 5.81172 20.7541 6.14165 20.7541 6.48567C20.7541 6.82969 20.6175 7.15962 20.3742 7.40288C20.131 7.64614 19.801 7.7828 19.457 7.7828H6.48567C6.14165 7.7828 5.81172 7.64614 5.56846 7.40288C5.3252 7.15962 5.18854 6.82969 5.18854 6.48567Z" fill="white"/>
<path d="M5.18854 11.6742C5.18854 11.3302 5.3252 11.0003 5.56846 10.757C5.81172 10.5137 6.14165 10.3771 6.48567 10.3771H19.457C19.801 10.3771 20.131 10.5137 20.3742 10.757C20.6175 11.0003 20.7541 11.3302 20.7541 11.6742C20.7541 12.0182 20.6175 12.3482 20.3742 12.5914C20.131 12.8347 19.801 12.9713 19.457 12.9713H6.48567C6.14165 12.9713 5.81172 12.8347 5.56846 12.5914C5.3252 12.3482 5.18854 12.0182 5.18854 11.6742Z" fill="white"/>
<path d="M6.48567 15.5656C6.14165 15.5656 5.81172 15.7023 5.56846 15.9455C5.3252 16.1888 5.18854 16.5187 5.18854 16.8627C5.18854 17.2068 5.3252 17.5367 5.56846 17.78C5.81172 18.0232 6.14165 18.1599 6.48567 18.1599H19.457C19.801 18.1599 20.131 18.0232 20.3742 17.78C20.6175 17.5367 20.7541 17.2068 20.7541 16.8627C20.7541 16.5187 20.6175 16.1888 20.3742 15.9455C20.131 15.7023 19.801 15.5656 19.457 15.5656H6.48567Z" fill="white"/>
<path d="M5.18854 22.0513C5.18854 21.7073 5.3252 21.3773 5.56846 21.1341C5.81172 20.8908 6.14165 20.7542 6.48567 20.7542H11.6742C12.0182 20.7542 12.3482 20.8908 12.5914 21.1341C12.8347 21.3773 12.9713 21.7073 12.9713 22.0513C12.9713 22.3953 12.8347 22.7252 12.5914 22.9685C12.3482 23.2118 12.0182 23.3484 11.6742 23.3484H6.48567C6.14165 23.3484 5.81172 23.2118 5.56846 22.9685C5.3252 22.7252 5.18854 22.3953 5.18854 22.0513Z" fill="white"/>
<path fill-rule="evenodd" clip-rule="evenodd" d="M0 3.8914C0 2.85934 0.409986 1.86954 1.13977 1.13976C1.86954 0.409986 2.85934 0 3.8914 0H22.0513C23.0833 0 24.0731 0.409986 24.8029 1.13976C25.5327 1.86954 25.9427 2.85934 25.9427 3.8914V24.6455C25.9427 25.6776 25.5327 26.6674 24.8029 27.3972C24.0731 28.127 23.0833 28.5369 22.0513 28.5369H3.8914C2.85934 28.5369 1.86954 28.127 1.13977 27.3972C0.409986 26.6674 0 25.6776 0 24.6455V3.8914ZM3.8914 2.59427H22.0513C22.3953 2.59427 22.7252 2.73093 22.9685 2.97419C23.2117 3.21745 23.3484 3.54738 23.3484 3.8914V24.6455C23.3484 24.9896 23.2117 25.3195 22.9685 25.5627C22.7252 25.806 22.3953 25.9427 22.0513 25.9427H3.8914C3.54738 25.9427 3.21745 25.806 2.97419 25.5627C2.73093 25.3195 2.59427 24.9896 2.59427 24.6455V3.8914C2.59427 3.54738 2.73093 3.21745 2.97419 2.97419C3.21745 2.73093 3.54738 2.59427 3.8914 2.59427Z" fill="white"/>
</svg>
