<svg width="41" height="41" viewBox="0 0 41 41" fill="none" xmlns="http://www.w3.org/2000/svg">
<path d="M27.3333 29.8958V41H2.5625C1.85069 41 1.24566 40.7509 0.747396 40.2526C0.249132 39.7543 0 39.1493 0 38.4375V2.5625C0 1.85069 0.249132 1.24566 0.747396 0.747396C1.24566 0.249132 1.85069 0 2.5625 0H38.4375C39.1493 0 39.7543 0.249132 40.2526 0.747396C40.7509 1.24566 41 1.85069 41 2.5625V27.3333H29.8958C29.184 27.3333 28.579 27.5825 28.0807 28.0807C27.5825 28.579 27.3333 29.184 27.3333 29.8958ZM30.75 30.75H40.9199C40.653 32.2092 40.0747 33.3837 39.1849 34.2734L34.2734 39.1849C33.3837 40.0747 32.2092 40.653 30.75 40.9199V30.75Z" fill="#1F1A6B"/>
</svg>
