<svg width="27" height="29" viewBox="0 0 27 29" fill="none" xmlns="http://www.w3.org/2000/svg">
<path d="M12.6339 28.1241C13.1663 28.1118 13.6771 27.9117 14.0761 27.5591C14.4751 27.2065 14.7366 26.7241 14.8142 26.1973H10.3691C10.449 26.7384 10.7227 27.2321 11.1393 27.5865C11.5559 27.941 12.087 28.132 12.6339 28.1241Z" fill="black"/>
<path d="M25.1832 22.9269L24.8958 22.6733C24.0807 21.9471 23.3672 21.1142 22.7747 20.1973C22.1276 18.9318 21.7397 17.5498 21.6339 16.1325V11.9578C21.6304 11.4507 21.5852 10.9448 21.4986 10.4451C20.0672 10.1509 18.7814 9.37106 17.8589 8.23762C16.9365 7.10417 16.434 5.68678 16.4367 4.2254V3.693C15.5543 3.2588 14.6064 2.97326 13.631 2.84793V1.78314C13.631 1.48393 13.5122 1.19698 13.3006 0.985402C13.089 0.773829 12.8021 0.654968 12.5028 0.654968C12.2036 0.654968 11.9167 0.773829 11.7051 0.985402C11.4935 1.19698 11.3747 1.48393 11.3747 1.78314V2.89018C9.19077 3.19826 7.19205 4.28603 5.74752 5.95267C4.303 7.61931 3.5102 9.75229 3.5155 11.9578V16.1325C3.40966 17.5498 3.02179 18.9318 2.37465 20.1973C1.7923 21.1119 1.09031 21.9447 0.287325 22.6733L0 22.9269V25.31H25.1832V22.9269Z" fill="black"/>
<path d="M22.7747 8.45072C25.1083 8.45072 27 6.55897 27 4.22536C27 1.89176 25.1083 0 22.7747 0C20.4411 0 18.5493 1.89176 18.5493 4.22536C18.5493 6.55897 20.4411 8.45072 22.7747 8.45072Z" fill="#FF0000"/>
</svg>
