<svg width="27" height="30" viewBox="0 0 27 30" fill="none" xmlns="http://www.w3.org/2000/svg">
<path d="M27 23.8787L26.6919 23.6069C25.818 22.8282 25.0531 21.9353 24.4178 20.9522C23.724 19.5954 23.3081 18.1138 23.1946 16.5941V12.1183C23.2006 9.73143 22.3348 7.42452 20.7599 5.63102C19.1849 3.83751 17.0092 2.68085 14.6416 2.37836V1.20956C14.6416 0.888767 14.5142 0.58111 14.2873 0.354273C14.0605 0.127436 13.7528 0 13.432 0C13.1113 0 12.8036 0.127436 12.5768 0.354273C12.3499 0.58111 12.2225 0.888767 12.2225 1.20956V2.39648C9.87607 2.72077 7.72669 3.88443 6.17243 5.67191C4.61817 7.45939 3.76435 9.74958 3.76913 12.1183V16.5941C3.65565 18.1138 3.2398 19.5954 2.54597 20.9522C1.9216 21.9328 1.16897 22.8256 0.308054 23.6069L0 23.8787V26.4337H27V23.8787Z" fill="black"/>
<path d="M11.1172 27.3851C11.1966 27.9594 11.4812 28.4856 11.9184 28.8664C12.3555 29.2473 12.9158 29.4571 13.4955 29.4571C14.0753 29.4571 14.6355 29.2473 15.0727 28.8664C15.5099 28.4856 15.7944 27.9594 15.8739 27.3851H11.1172Z" fill="black"/>
</svg>
