<svg width="29" height="29" viewBox="0 0 29 29" fill="none" xmlns="http://www.w3.org/2000/svg">
<path fill-rule="evenodd" clip-rule="evenodd" d="M19.6536 10.4819C19.6536 11.8719 19.1014 13.205 18.1185 14.1878C17.1357 15.1707 15.8026 15.7229 14.4126 15.7229C13.0227 15.7229 11.6896 15.1707 10.7067 14.1878C9.72386 13.205 9.17169 11.8719 9.17169 10.4819C9.17169 9.09193 9.72386 7.75887 10.7067 6.776C11.6896 5.79314 13.0227 5.24097 14.4126 5.24097C15.8026 5.24097 17.1357 5.79314 18.1185 6.776C19.1014 7.75887 19.6536 9.09193 19.6536 10.4819ZM17.0331 10.4819C17.0331 11.1769 16.757 11.8434 16.2656 12.3349C15.7742 12.8263 15.1076 13.1024 14.4126 13.1024C13.7176 13.1024 13.0511 12.8263 12.5597 12.3349C12.0682 11.8434 11.7922 11.1769 11.7922 10.4819C11.7922 9.78692 12.0682 9.12039 12.5597 8.62896C13.0511 8.13752 13.7176 7.86144 14.4126 7.86144C15.1076 7.86144 15.7742 8.13752 16.2656 8.62896C16.757 9.12039 17.0331 9.78692 17.0331 10.4819Z" fill="white"/>
<path fill-rule="evenodd" clip-rule="evenodd" d="M14.4126 0C6.45291 0 0 6.45291 0 14.4126C0 22.3723 6.45291 28.8252 14.4126 28.8252C22.3723 28.8252 28.8252 22.3723 28.8252 14.4126C28.8252 6.45291 22.3723 0 14.4126 0ZM2.62047 14.4126C2.62047 17.151 3.55467 19.6719 5.1204 21.6739C6.21999 20.2299 7.63854 19.0597 9.26525 18.2546C10.8919 17.4496 12.6827 17.0315 14.4978 17.0331C16.2893 17.0314 18.0576 17.4386 19.6679 18.2238C21.2782 19.009 22.688 20.1513 23.79 21.5639C24.9252 20.0749 25.6896 18.337 26.0198 16.494C26.3501 14.651 26.2367 12.7558 25.6891 10.9653C25.1415 9.17484 24.1755 7.54047 22.8708 6.19746C21.5662 4.85446 19.9605 3.84143 18.1866 3.24219C16.4127 2.64295 14.5216 2.47474 12.6698 2.75146C10.818 3.02818 9.0587 3.74189 7.53749 4.83353C6.01627 5.92517 4.77687 7.36336 3.92184 9.02909C3.0668 10.6948 2.62071 12.5402 2.62047 14.4126ZM14.4126 26.2047C11.7056 26.2088 9.08028 25.2775 6.98094 23.5685C7.82595 22.3588 8.95066 21.3712 10.2594 20.6895C11.5681 20.0079 13.0222 19.6525 14.4978 19.6535C15.955 19.6524 17.3914 19.9989 18.6878 20.6643C19.9842 21.3297 21.1031 22.2948 21.9517 23.4794C19.8361 25.2439 17.1675 26.2086 14.4126 26.2047Z" fill="white"/>
</svg>
