<svg width="29" height="29" viewBox="0 0 29 29" fill="none" xmlns="http://www.w3.org/2000/svg">
<path d="M25.5865 15.9198C25.6487 15.4667 25.6797 14.9984 25.6797 14.5C25.6797 14.0167 25.6487 13.5333 25.571 13.0802L28.7231 10.6938C28.8589 10.5848 28.9517 10.4335 28.9857 10.2655C29.0197 10.0975 28.9927 9.92323 28.9094 9.7724L25.9282 4.75782C25.8404 4.60612 25.7002 4.48953 25.5326 4.42871C25.3649 4.36789 25.1805 4.36676 25.012 4.42552L21.301 5.87552C20.5246 5.30157 19.7017 4.81823 18.7856 4.45573L18.2266 0.619275C18.1991 0.446378 18.1087 0.288807 17.972 0.175177C17.8352 0.0615466 17.6611 -0.000606439 17.4813 4.46086e-06H11.5187C11.1461 4.46086e-06 10.8511 0.256775 10.789 0.619275L10.23 4.45573C9.31386 4.81823 8.47538 5.31667 7.71454 5.87552L4.00349 4.42552C3.66189 4.30469 3.2737 4.42552 3.08738 4.75782L0.121646 9.7724C-0.0646823 10.0896 -0.00257299 10.4823 0.307975 10.6938L3.46003 13.0802C3.3824 13.5333 3.32029 14.0318 3.32029 14.5C3.32029 14.9682 3.35134 15.4667 3.42898 15.9198L0.27692 18.3063C0.141093 18.4152 0.0482849 18.5665 0.0143092 18.7345C-0.0196664 18.9025 0.00729209 19.0768 0.0905915 19.2276L3.07185 24.2422C3.25818 24.5745 3.64636 24.6802 3.98796 24.5745L7.69901 23.1245C8.47538 23.6984 9.29833 24.1818 10.2144 24.5443L10.7734 28.3807C10.8511 28.7432 11.1461 29 11.5187 29H17.4813C17.8539 29 18.1645 28.7432 18.211 28.3807L18.77 24.5443C19.6861 24.1818 20.5246 23.6984 21.2855 23.1245L24.9965 24.5745C25.3381 24.6953 25.7263 24.5745 25.9126 24.2422L28.8939 19.2276C29.0802 18.8953 29.0026 18.5177 28.7076 18.3063L25.5865 15.9198ZM14.5 19.9375C11.4256 19.9375 8.91014 17.4906 8.91014 14.5C8.91014 11.5094 11.4256 9.0625 14.5 9.0625C17.5744 9.0625 20.0899 11.5094 20.0899 14.5C20.0899 17.4906 17.5744 19.9375 14.5 19.9375Z" fill="white"/>
</svg>
