<svg width="49" height="41" viewBox="0 0 49 41" fill="none" xmlns="http://www.w3.org/2000/svg">
<path d="M28 35.4091C28 36.4383 28.8344 37.2727 29.8636 37.2727H43.6364C44.6656 37.2727 45.5 36.4383 45.5 35.4091V35.4091C45.5 34.3798 44.6656 33.5455 43.6364 33.5455H29.8636C28.8344 33.5455 28 34.3798 28 35.4091V35.4091ZM17.5 20.5C17.5 21.5293 18.3344 22.3636 19.3636 22.3636H43.6364C44.6656 22.3636 45.5 21.5293 45.5 20.5V20.5C45.5 19.4707 44.6656 18.6364 43.6364 18.6364H19.3636C18.3344 18.6364 17.5 19.4707 17.5 20.5V20.5ZM35 5.59091C35 6.62017 35.8344 7.45455 36.8636 7.45455H43.6364C44.6656 7.45455 45.5 6.62017 45.5 5.59091V5.59091C45.5 4.56165 44.6656 3.72727 43.6364 3.72727H36.8636C35.8344 3.72727 35 4.56165 35 5.59091V5.59091ZM49 31.6818V39.1364C49 39.6411 48.8268 40.0779 48.4805 40.4467C48.1341 40.8156 47.724 41 47.25 41H1.75C1.27604 41 0.865885 40.8156 0.519531 40.4467C0.173177 40.0779 0 39.6411 0 39.1364V31.6818C0 31.1771 0.173177 30.7403 0.519531 30.3714C0.865885 30.0026 1.27604 29.8182 1.75 29.8182H47.25C47.724 29.8182 48.1341 30.0026 48.4805 30.3714C48.8268 30.7403 49 31.1771 49 31.6818ZM49 16.7727V24.2273C49 24.732 48.8268 25.1688 48.4805 25.5376C48.1341 25.9065 47.724 26.0909 47.25 26.0909H1.75C1.27604 26.0909 0.865885 25.9065 0.519531 25.5376C0.173177 25.1688 0 24.732 0 24.2273V16.7727C0 16.268 0.173177 15.8312 0.519531 15.4624C0.865885 15.0935 1.27604 14.9091 1.75 14.9091H47.25C47.724 14.9091 48.1341 15.0935 48.4805 15.4624C48.8268 15.8312 49 16.268 49 16.7727ZM49 1.86364V9.31818C49 9.82292 48.8268 10.2597 48.4805 10.6286C48.1341 10.9974 47.724 11.1818 47.25 11.1818H1.75C1.27604 11.1818 0.865885 10.9974 0.519531 10.6286C0.173177 10.2597 0 9.82292 0 9.31818V1.86364C0 1.3589 0.173177 0.922112 0.519531 0.553267C0.865885 0.184422 1.27604 0 1.75 0H47.25C47.724 0 48.1341 0.184422 48.4805 0.553267C48.8268 0.922112 49 1.3589 49 1.86364Z" fill="#1F1A6B"/>
</svg>
