<svg width="26" height="28" viewBox="0 0 26 28" fill="none" xmlns="http://www.w3.org/2000/svg">
<path d="M0 3.29451C0 2.42075 0.391491 1.58278 1.08835 0.964938C1.78521 0.347099 2.73035 0 3.71586 0H18.5793C19.5648 0 20.51 0.347099 21.2068 0.964938C21.9037 1.58278 22.2952 2.42075 22.2952 3.29451V19.5743L17.6596 23.7254L15.9243 22.1556C15.6696 21.9185 15.3642 21.7287 15.026 21.5971C14.6877 21.4656 14.3234 21.395 13.9541 21.3894C13.5848 21.3839 13.218 21.4434 12.8749 21.5646C12.5318 21.6859 12.2193 21.8663 11.9556 22.0956C11.6919 22.3248 11.4822 22.5982 11.3387 22.9C11.1952 23.2017 11.1207 23.5257 11.1197 23.8531C11.1187 24.1806 11.1911 24.505 11.3327 24.8074C11.4743 25.1098 11.6823 25.3843 11.9446 25.6148L12.764 26.356H3.71586C2.73035 26.356 1.78521 26.0089 1.08835 25.3911C0.391491 24.7733 0 23.9353 0 23.0615V3.29451ZM9.28965 12.3544C9.28965 12.5728 9.38752 12.7823 9.56174 12.9368C9.73595 13.0912 9.97224 13.178 10.2186 13.178H17.6503C17.8967 13.178 18.133 13.0912 18.3072 12.9368C18.4814 12.7823 18.5793 12.5728 18.5793 12.3544C18.5793 12.136 18.4814 11.9265 18.3072 11.772C18.133 11.6175 17.8967 11.5308 17.6503 11.5308H10.2186C9.97224 11.5308 9.73595 11.6175 9.56174 11.772C9.38752 11.9265 9.28965 12.136 9.28965 12.3544ZM10.2186 4.94176C9.97224 4.94176 9.73595 5.02853 9.56174 5.18299C9.38752 5.33745 9.28965 5.54695 9.28965 5.76538C9.28965 5.98382 9.38752 6.19332 9.56174 6.34778C9.73595 6.50224 9.97224 6.58901 10.2186 6.58901H17.6503C17.8967 6.58901 18.133 6.50224 18.3072 6.34778C18.4814 6.19332 18.5793 5.98382 18.5793 5.76538C18.5793 5.54695 18.4814 5.33745 18.3072 5.18299C18.133 5.02853 17.8967 4.94176 17.6503 4.94176H10.2186ZM9.28965 18.9434C9.28965 19.1618 9.38752 19.3713 9.56174 19.5258C9.73595 19.6803 9.97224 19.767 10.2186 19.767H17.6503C17.8967 19.767 18.133 19.6803 18.3072 19.5258C18.4814 19.3713 18.5793 19.1618 18.5793 18.9434C18.5793 18.725 18.4814 18.5155 18.3072 18.361C18.133 18.2066 17.8967 18.1198 17.6503 18.1198H10.2186C9.97224 18.1198 9.73595 18.2066 9.56174 18.361C9.38752 18.5155 9.28965 18.725 9.28965 18.9434ZM5.57379 14.0016C6.06654 14.0016 6.53912 13.8281 6.88755 13.5192C7.23598 13.2103 7.43172 12.7913 7.43172 12.3544C7.43172 11.9175 7.23598 11.4985 6.88755 11.1896C6.53912 10.8807 6.06654 10.7071 5.57379 10.7071C5.08104 10.7071 4.60847 10.8807 4.26004 11.1896C3.91161 11.4985 3.71586 11.9175 3.71586 12.3544C3.71586 12.7913 3.91161 13.2103 4.26004 13.5192C4.60847 13.8281 5.08104 14.0016 5.57379 14.0016ZM7.43172 5.76538C7.43172 5.32851 7.23598 4.90952 6.88755 4.6006C6.53912 4.29168 6.06654 4.11813 5.57379 4.11813C5.08104 4.11813 4.60847 4.29168 4.26004 4.6006C3.91161 4.90952 3.71586 5.32851 3.71586 5.76538C3.71586 6.20226 3.91161 6.62125 4.26004 6.93017C4.60847 7.23909 5.08104 7.41264 5.57379 7.41264C6.06654 7.41264 6.53912 7.23909 6.88755 6.93017C7.23598 6.62125 7.43172 6.20226 7.43172 5.76538ZM5.57379 20.5907C6.06654 20.5907 6.53912 20.4171 6.88755 20.1082C7.23598 19.7993 7.43172 19.3803 7.43172 18.9434C7.43172 18.5065 7.23598 18.0875 6.88755 17.7786C6.53912 17.4697 6.06654 17.2962 5.57379 17.2962C5.08104 17.2962 4.60847 17.4697 4.26004 17.7786C3.91161 18.0875 3.71586 18.5065 3.71586 18.9434C3.71586 19.3803 3.91161 19.7993 4.26004 20.1082C4.60847 20.4171 5.08104 20.5907 5.57379 20.5907Z" fill="white"/>
<path d="M25.7416 21.1705C25.9102 21.0145 26.003 20.8061 25.9999 20.5901C25.9968 20.3741 25.8981 20.1678 25.7251 20.0157C25.5521 19.8635 25.3186 19.7778 25.0749 19.7769C24.8313 19.776 24.5969 19.86 24.4225 20.0108L17.654 26.0727L14.5978 23.3086C14.5128 23.2296 14.411 23.1663 14.2983 23.1225C14.1856 23.0786 14.0641 23.0551 13.941 23.0533C13.8179 23.0514 13.6956 23.0712 13.5813 23.1117C13.4669 23.1521 13.3627 23.2122 13.2748 23.2886C13.1869 23.365 13.117 23.4562 13.0692 23.5568C13.0214 23.6573 12.9966 23.7653 12.9962 23.8745C12.9959 23.9836 13.02 24.0918 13.0672 24.1926C13.1144 24.2934 13.1838 24.3849 13.2712 24.4617L16.8551 27.7035C16.9586 27.7971 17.0821 27.8715 17.2183 27.9224C17.3545 27.9733 17.5008 27.9997 17.6486 28C17.7965 28.0003 17.9429 27.9745 18.0794 27.9242C18.2159 27.8739 18.3397 27.8 18.4437 27.7068L25.7416 21.1705Z" fill="white"/>
</svg>
