<svg width="164" height="45" viewBox="0 0 164 45" fill="none" xmlns="http://www.w3.org/2000/svg">
<path d="M0.0080595 0.893068C-0.00920129 0.77385 0.0013498 0.652255 0.0388778 0.537788C0.0764059 0.423321 0.139894 0.319081 0.224389 0.233223C0.308885 0.147365 0.412095 0.0822126 0.525947 0.042858C0.639799 0.00350339 0.761211 -0.00898128 0.880691 0.00636992H5.35643C5.91941 0.00636992 6.2009 0.301934 6.2009 0.893068V11.1676C7.31259 10.0992 8.60682 9.23873 10.0222 8.62709C11.4804 8.0021 13.0522 7.68582 14.6386 7.69816C16.4979 7.67394 18.3408 8.04827 20.0433 8.79598C21.6276 9.50474 23.0519 10.5269 24.2305 11.8009C25.4103 13.1028 26.3278 14.6201 26.9328 16.2696C27.5791 18.0147 27.9034 19.8626 27.8899 21.7235C27.9115 23.648 27.5651 25.5589 26.8695 27.3534C26.2313 29.0017 25.2748 30.5082 24.0546 31.7869C22.8577 33.0272 21.4211 34.0113 19.8322 34.6792C18.1728 35.376 16.3891 35.7279 14.5894 35.7137C13.0396 35.717 11.5076 35.3832 10.0996 34.7355C8.65599 34.073 7.3409 33.1606 6.21498 32.0403L5.75052 34.0459C5.67618 34.3357 5.55494 34.6115 5.39161 34.8622C5.29714 34.9886 5.17184 35.0886 5.02768 35.1526C4.88352 35.2167 4.72533 35.2427 4.56824 35.2282H0.894758C0.774601 35.2438 0.652462 35.2312 0.537995 35.1915C0.423529 35.1517 0.319882 35.0859 0.235235 34.9992C0.150587 34.9125 0.0872661 34.8073 0.0502817 34.6919C0.0132973 34.5766 0.00366238 34.4542 0.0221372 34.3344L0.0080595 0.893068ZM5.77866 21.6954C5.77894 22.8418 6.01863 23.9756 6.48239 25.024C6.91887 26.0287 7.53945 26.9429 8.3121 27.7193C9.08337 28.4846 9.99331 29.096 10.9933 29.5209C12.0145 29.956 13.1135 30.1787 14.2234 30.1753C15.2974 30.193 16.3627 29.9812 17.3482 29.554C18.3336 29.1268 19.2165 28.4941 19.9378 27.6982C20.6392 26.9101 21.1838 25.9953 21.5423 25.0029C21.9214 23.9417 22.1119 22.8223 22.1052 21.6954C22.113 20.574 21.9175 19.4606 21.5282 18.409C21.1616 17.4126 20.6153 16.4919 19.9166 15.6926C19.2217 14.9145 18.3768 14.285 17.4325 13.8417C16.442 13.3755 15.3604 13.1351 14.2657 13.138C13.1395 13.1319 12.0238 13.3546 10.9863 13.7925C9.97878 14.2175 9.0634 14.8341 8.29099 15.6081C7.51923 16.3904 6.90309 17.3122 6.47536 18.3245C6.0108 19.39 5.77122 20.54 5.77163 21.7024L5.77866 21.6954Z" fill="#3E63F6"/>
<path d="M32.8793 16.2133C33.5878 14.5563 34.6052 13.0493 35.8772 11.7728C37.1541 10.4945 38.6669 9.47637 40.3319 8.77485C42.0552 8.03758 43.9114 7.66155 45.7858 7.67C47.6761 7.66157 49.5484 8.03746 51.289 8.77485C52.9686 9.48325 54.4991 10.5028 55.7999 11.7798C57.085 13.0582 58.1145 14.5701 58.833 16.2344C59.5712 17.9567 59.9518 19.811 59.9518 21.6848C59.9518 23.5587 59.5712 25.4129 58.833 27.1352C58.1191 28.8041 57.0892 30.3192 55.7999 31.5969C54.5023 32.8781 52.9741 33.9024 51.296 34.6159C49.5652 35.3497 47.7044 35.7278 45.8245 35.7278C43.9445 35.7278 42.0838 35.3497 40.353 34.6159C36.9904 33.1792 34.3129 30.4991 32.8793 27.1352C32.1547 25.4058 31.7815 23.5494 31.7815 21.6743C31.7815 19.7991 32.1547 17.9427 32.8793 16.2133ZM38.4599 24.9396C38.8309 25.9385 39.3952 26.8544 40.1207 27.6349C40.827 28.3987 41.6787 29.0136 42.626 29.4435C43.6345 29.908 44.7318 30.1481 45.8421 30.1472C46.9683 30.1488 48.0818 29.9088 49.1074 29.4435C50.0656 29.0116 50.929 28.3946 51.6479 27.6278C52.3607 26.8484 52.9194 25.941 53.2946 24.9537C53.6919 23.9209 53.8924 22.823 53.8857 21.7165C53.8937 20.6122 53.6931 19.5163 53.2946 18.4864C52.9168 17.5034 52.3529 16.6026 51.6338 15.8333C50.492 14.6622 49.0229 13.8636 47.4192 13.5421C45.8155 13.2206 44.1521 13.3913 42.6471 14.0317C41.6974 14.4483 40.8425 15.0541 40.1348 15.8122C39.4197 16.5805 38.8625 17.482 38.4951 18.4652C38.1035 19.504 37.9078 20.6064 37.9181 21.7165C37.9021 22.8148 38.0857 23.9069 38.4599 24.9396Z" fill="#3E63F6"/>
<path d="M64.8147 16.2133C66.2391 12.8604 68.9116 10.193 72.2672 8.77484C73.9903 8.03699 75.8466 7.66094 77.7211 7.66999C79.6092 7.66094 81.4793 8.03687 83.2172 8.77484C84.8987 9.47976 86.4298 10.4997 87.7282 11.7798C89.0253 13.0542 90.0647 14.5666 90.7894 16.2344C91.5232 17.9578 91.9015 19.8117 91.9015 21.6848C91.9015 23.558 91.5232 25.4118 90.7894 27.1352C90.0763 28.8062 89.0436 30.3219 87.7493 31.5969C86.4555 32.8794 84.9294 33.904 83.2524 34.6159C81.5195 35.3627 79.6503 35.7413 77.7633 35.7278C75.8877 35.7413 74.03 35.3626 72.3094 34.6159C70.641 33.9036 69.1242 32.8789 67.8407 31.5969C66.5615 30.3167 65.5412 28.8018 64.8358 27.1352C64.108 25.4066 63.7332 23.5499 63.7332 21.6743C63.7332 19.7986 64.108 17.942 64.8358 16.2133H64.8147ZM70.3953 24.9396C70.7598 25.9232 71.3119 26.8266 72.0209 27.5997C72.7259 28.3648 73.578 28.9799 74.5262 29.4083C75.5344 29.8735 76.6318 30.1136 77.7422 30.112C78.829 30.1282 79.907 29.9154 80.9061 29.4874C81.9052 29.0594 82.803 28.4258 83.541 27.6278C84.2537 26.8484 84.8125 25.941 85.1877 24.9536C85.585 23.9209 85.7855 22.823 85.7788 21.7165C85.7778 20.6104 85.5677 19.5144 85.1595 18.4863C84.7844 17.5037 84.2228 16.6028 83.5058 15.8333C82.3639 14.6622 80.8949 13.8636 79.2912 13.5421C77.6875 13.2206 76.0241 13.3913 74.5191 14.0317C73.5672 14.4481 72.71 15.0539 71.9998 15.8122C71.2893 16.5828 70.7349 17.4837 70.3671 18.4652C69.973 19.5035 69.775 20.6059 69.783 21.7165C69.785 22.8183 69.9877 23.9105 70.3812 24.9396H70.3953Z" fill="#3E63F6"/>
<path d="M109.453 19.4505L121.05 33.7926C121.185 33.9379 121.275 34.1185 121.311 34.3133C121.335 34.474 121.31 34.6383 121.24 34.7848C121.176 34.9262 121.067 35.0425 120.93 35.1156C120.793 35.1989 120.634 35.2427 120.473 35.2422H115.174C114.96 35.2487 114.749 35.1898 114.569 35.0733C114.348 34.8983 114.153 34.692 113.992 34.4611L105.491 23.4125L102.838 26.0797V34.3415C102.838 34.9256 102.563 35.2141 102.014 35.2141H97.4962C96.9473 35.2141 96.6729 34.9256 96.6729 34.3415V0.893084C96.6729 0.316023 96.9473 0.0274963 97.4962 0.0274963H102.049C102.598 0.0274963 102.873 0.316023 102.873 0.893084V18.9086L112.605 8.52154C112.789 8.29098 113.032 8.11563 113.309 8.01485C113.54 7.96173 113.776 7.93574 114.013 7.93744H118.538C118.734 7.93072 118.927 7.98215 119.094 8.08523C119.235 8.17462 119.35 8.30121 119.425 8.45117C119.501 8.59051 119.529 8.75175 119.502 8.90859C119.477 9.07205 119.404 9.22419 119.291 9.3449L109.453 19.4505Z" fill="#3E63F6"/>
<path d="M159.312 8.12038H162.472C162.714 8.10563 162.953 8.18361 163.14 8.33854C163.228 8.43246 163.295 8.54349 163.337 8.66461C163.379 8.78573 163.396 8.91432 163.387 9.04227V12.5609C163.396 12.6925 163.374 12.8244 163.324 12.9465C163.274 13.0685 163.197 13.1774 163.098 13.2646C162.899 13.4263 162.65 13.5135 162.394 13.511H159.326V26.8256C159.322 27.2312 159.355 27.6364 159.425 28.036C159.47 28.3894 159.582 28.7308 159.755 29.0423C159.925 29.334 160.167 29.5766 160.459 29.7461C160.815 29.9429 161.213 30.0514 161.62 30.0627L162.324 30.105C162.551 30.1045 162.774 30.1627 162.971 30.2739C163.106 30.3523 163.216 30.4669 163.288 30.6046C163.354 30.721 163.393 30.851 163.401 30.9846C163.401 31.1113 163.401 31.2098 163.401 31.2872V34.3133C163.397 34.4149 163.385 34.5161 163.365 34.6159C163.338 34.7508 163.269 34.8738 163.168 34.9678C163.023 35.1006 162.85 35.1992 162.662 35.2563C162.369 35.352 162.062 35.3949 161.754 35.383C160.579 35.3947 159.411 35.2091 158.299 34.8341C157.297 34.504 156.374 33.975 155.582 33.2788C154.819 32.5897 154.216 31.7418 153.816 30.7946C153.379 29.7449 153.164 28.6167 153.182 27.48V13.5602H150.705C150.478 13.5502 150.261 13.4661 150.086 13.321C149.979 13.2393 149.894 13.1322 149.838 13.0093C149.783 12.8864 149.759 12.7516 149.769 12.6172V9.14079C149.76 8.99956 149.782 8.85803 149.835 8.72653C149.887 8.59504 149.968 8.4769 150.072 8.38076C150.249 8.23024 150.473 8.1457 150.705 8.14149H153.182V3.66576C153.163 3.42938 153.225 3.19353 153.358 2.99721C153.55 2.80758 153.796 2.68216 154.062 2.6383L158.425 1.37158C158.505 1.34515 158.588 1.32861 158.672 1.32233C158.772 1.31832 158.871 1.34259 158.958 1.39237C159.045 1.44215 159.117 1.51541 159.164 1.60381C159.276 1.82098 159.329 2.06351 159.319 2.30755L159.312 8.12038Z" fill="#3E63F6"/>
<path d="M141.226 33.9192C141.236 34.0404 141.219 34.1623 141.175 34.2757C141.131 34.389 141.062 34.4909 140.973 34.5737C140.807 34.7121 140.597 34.787 140.382 34.7848H135.828C135.718 34.7898 135.608 34.7717 135.505 34.7317C135.402 34.6917 135.308 34.6307 135.23 34.5526C135.074 34.3796 134.993 34.1518 135.005 33.9192V8.35266C135.005 7.7756 135.279 7.48706 135.828 7.48706H140.375C140.491 7.47129 140.61 7.48302 140.721 7.52128C140.832 7.55955 140.932 7.62329 141.014 7.70742C141.097 7.79155 141.158 7.89372 141.193 8.00576C141.229 8.11781 141.238 8.23661 141.219 8.35266L141.226 33.9192ZM141.402 43.2015C141.414 43.5491 141.31 43.8908 141.106 44.1726C140.976 44.3128 140.814 44.4207 140.635 44.4878C140.455 44.555 140.263 44.5796 140.072 44.5597H136.349C136.175 44.5753 136.001 44.5504 135.838 44.4869C135.676 44.4234 135.53 44.323 135.413 44.1937C135.209 43.9045 135.107 43.5552 135.125 43.2015V39.4646C135.104 39.2921 135.122 39.1171 135.178 38.9526C135.234 38.7881 135.326 38.6384 135.448 38.5146C135.711 38.3299 136.029 38.2405 136.349 38.2613H140.051C140.388 38.2491 140.721 38.3372 141.008 38.5146C141.144 38.6293 141.25 38.7764 141.315 38.9423C141.38 39.1082 141.403 39.2878 141.381 39.4646L141.402 43.2015Z" fill="#3E63F6"/>
</svg>
