<svg width="175" height="48" viewBox="0 0 175 48" fill="none" xmlns="http://www.w3.org/2000/svg">
<path d="M0.00863163 0.956465C-0.00985446 0.828783 0.00144562 0.698557 0.0416377 0.575964C0.0818298 0.453371 0.149825 0.341732 0.240318 0.249779C0.330812 0.157826 0.441349 0.0880487 0.563283 0.0459004C0.685217 0.00375208 0.815248 -0.00961883 0.943209 0.00682211H5.73667C6.33962 0.00682211 6.64109 0.323367 6.64109 0.956465V11.9603C7.8317 10.8161 9.21779 9.89457 10.7336 9.2395C12.2953 8.57016 13.9787 8.23142 15.6778 8.24463C17.6691 8.21869 19.6428 8.6196 21.4661 9.42038C23.1628 10.1795 24.6883 11.2742 25.9506 12.6386C27.2141 14.033 28.1968 15.658 28.8447 17.4246C29.5369 19.2936 29.8842 21.2726 29.8698 23.2656C29.8928 25.3267 29.5219 27.3733 28.7769 29.2952C28.0934 31.0605 27.069 32.6739 25.7622 34.0434C24.4803 35.3717 22.9418 36.4256 21.24 37.141C19.4628 37.8872 17.5525 38.2642 15.6251 38.249C13.9652 38.2525 12.3245 37.895 10.8165 37.2013C9.27046 36.4918 7.86201 35.5146 6.65617 34.3147L6.15873 36.4627C6.07912 36.7731 5.94927 37.0685 5.77434 37.337C5.67317 37.4723 5.53898 37.5794 5.38458 37.648C5.23019 37.7167 5.06077 37.7445 4.89253 37.7289H0.958275C0.829589 37.7456 0.698779 37.7322 0.576186 37.6896C0.453594 37.6471 0.34259 37.5766 0.251934 37.4837C0.161277 37.3909 0.0934609 37.2782 0.0538511 37.1546C0.0142413 37.0311 0.00392236 36.9 0.0237086 36.7717L0.00863163 0.956465ZM6.18887 23.2355C6.18918 24.4633 6.44588 25.6776 6.94256 26.8004C7.41003 27.8764 8.07466 28.8555 8.90216 29.6871C9.72817 30.5067 10.7027 31.1615 11.7737 31.6165C12.8673 32.0825 14.0444 32.321 15.2331 32.3174C16.3833 32.3364 17.5242 32.1095 18.5797 31.652C19.6351 31.1944 20.5806 30.5168 21.3531 29.6645C22.1044 28.8204 22.6876 27.8406 23.0715 26.7778C23.4775 25.6413 23.6816 24.4424 23.6744 23.2355C23.6827 22.0345 23.4733 20.8421 23.0564 19.7158C22.6638 18.6487 22.0788 17.6626 21.3305 16.8065C20.5862 15.9733 19.6813 15.299 18.67 14.8243C17.6092 14.325 16.4508 14.0675 15.2784 14.0706C14.0722 14.0641 12.8774 14.3026 11.7662 14.7716C10.6871 15.2267 9.70679 15.8871 8.87955 16.7161C8.053 17.554 7.39313 18.5412 6.93503 19.6253C6.43749 20.7665 6.18091 21.9981 6.18134 23.243L6.18887 23.2355Z" fill="black"/>
<path d="M35.2134 17.3643C35.9722 15.5897 37.0619 13.9757 38.4242 12.6085C39.7916 11.2395 41.4119 10.1491 43.195 9.39779C45.0407 8.60818 47.0286 8.20546 49.0361 8.2145C51.0606 8.20547 53.0658 8.60805 54.9299 9.39779C56.7287 10.1565 58.3679 11.2484 59.7611 12.616C61.1375 13.9852 62.24 15.6045 63.0095 17.3869C63.8001 19.2314 64.2077 21.2174 64.2077 23.2242C64.2077 25.2311 63.8001 27.217 63.0095 29.0615C62.2449 30.8489 61.1419 32.4715 59.7611 33.8399C58.3713 35.212 56.7347 36.3091 54.9375 37.0732C53.0838 37.8591 51.0909 38.2641 49.0775 38.2641C47.0641 38.2641 45.0713 37.8591 43.2176 37.0732C39.6164 35.5346 36.7487 32.6642 35.2134 29.0615C34.4374 27.2093 34.0377 25.2211 34.0377 23.2129C34.0377 21.2047 34.4374 19.2165 35.2134 17.3643ZM41.1902 26.71C41.5874 27.7799 42.1919 28.7608 42.9689 29.5966C43.7252 30.4147 44.6375 31.0732 45.652 31.5336C46.7321 32.0312 47.9073 32.2883 49.0964 32.2873C50.3026 32.2891 51.4951 32.032 52.5935 31.5336C53.6197 31.0711 54.5444 30.4103 55.3143 29.5891C56.0777 28.7543 56.6761 27.7825 57.0779 26.7251C57.5034 25.6191 57.7182 24.4432 57.711 23.2581C57.7196 22.0754 57.5048 20.9017 57.0779 19.7987C56.6734 18.7459 56.0694 17.7812 55.2992 16.9573C54.0763 15.7031 52.503 14.8478 50.7855 14.5035C49.0679 14.1592 47.2865 14.342 45.6746 15.0279C44.6575 15.474 43.7419 16.1228 42.984 16.9347C42.2181 17.7576 41.6214 18.723 41.2279 19.7761C40.8084 20.8886 40.5988 22.0692 40.6098 23.2581C40.5927 24.4344 40.7893 25.604 41.1902 26.71Z" fill="black"/>
<path d="M69.4158 17.3643C70.9414 13.7734 73.8037 10.9166 77.3974 9.39778C79.2429 8.60755 81.231 8.20481 83.2385 8.2145C85.2606 8.2048 87.2635 8.60742 89.1248 9.39778C90.9256 10.1527 92.5654 11.2451 93.9559 12.616C95.3451 13.9809 96.4583 15.6007 97.2345 17.3869C98.0204 19.2326 98.4255 21.2181 98.4255 23.2242C98.4255 25.2303 98.0204 27.2158 97.2345 29.0615C96.4707 30.8512 95.3647 32.4744 93.9785 33.8399C92.5929 35.2135 90.9585 36.3108 89.1625 37.0732C87.3065 37.873 85.3046 38.2785 83.2837 38.264C81.275 38.2786 79.2854 37.873 77.4426 37.0732C75.6558 36.3104 74.0313 35.2129 72.6567 33.8399C71.2867 32.4688 70.194 30.8464 69.4384 29.0615C68.6591 27.2101 68.2576 25.2216 68.2576 23.2129C68.2576 21.2041 68.6591 19.2156 69.4384 17.3643H69.4158ZM75.3926 26.71C75.783 27.7634 76.3743 28.731 77.1336 29.559C77.8887 30.3784 78.8013 31.0371 79.8168 31.4959C80.8966 31.9942 82.0719 32.2513 83.2611 32.2496C84.425 32.267 85.5796 32.0391 86.6496 31.5807C87.7196 31.1223 88.6811 30.4437 89.4715 29.5891C90.2349 28.7543 90.8333 27.7825 91.2351 26.7251C91.6606 25.6191 91.8754 24.4431 91.8682 23.2581C91.8671 22.0735 91.6421 20.8997 91.205 19.7987C90.8032 18.7463 90.2017 17.7815 89.4338 16.9573C88.2109 15.7031 86.6375 14.8478 84.92 14.5035C83.2025 14.1592 81.421 14.3419 79.8092 15.0278C78.7897 15.4738 77.8717 16.1226 77.111 16.9347C76.3501 17.76 75.7563 18.7249 75.3624 19.7761C74.9404 20.8881 74.7283 22.0687 74.7369 23.2581C74.739 24.4381 74.9561 25.6078 75.3775 26.71H75.3926Z" fill="black"/>
<path d="M117.222 20.8312L129.643 36.1914C129.787 36.347 129.884 36.5405 129.922 36.7491C129.948 36.9212 129.922 37.0972 129.847 37.2541C129.778 37.4055 129.661 37.5301 129.515 37.6084C129.367 37.6976 129.198 37.7445 129.025 37.744H123.35C123.12 37.7509 122.894 37.6878 122.702 37.5631C122.465 37.3756 122.257 37.1547 122.084 36.9074L112.979 25.0745L110.138 27.931V36.7793C110.138 37.4049 109.844 37.7139 109.256 37.7139H104.417C103.829 37.7139 103.535 37.4049 103.535 36.7793V0.956483C103.535 0.338458 103.829 0.0294495 104.417 0.0294495H109.293C109.881 0.0294495 110.175 0.338458 110.175 0.956483V20.2509L120.599 9.12646C120.795 8.87955 121.056 8.69174 121.352 8.58381C121.6 8.52691 121.853 8.49909 122.106 8.5009H126.952C127.162 8.49371 127.369 8.54879 127.548 8.65918C127.7 8.75492 127.822 8.89049 127.902 9.0511C127.984 9.20033 128.013 9.37302 127.985 9.54099C127.959 9.71605 127.88 9.879 127.759 10.0083L117.222 20.8312Z" fill="black"/>
<path d="M170.621 8.69683H174.005C174.265 8.68103 174.521 8.76455 174.721 8.93047C174.815 9.03107 174.887 9.14997 174.932 9.27969C174.977 9.40941 174.995 9.54713 174.985 9.68416V13.4526C174.995 13.5935 174.972 13.7348 174.918 13.8655C174.865 13.9962 174.782 14.1128 174.676 14.2063C174.463 14.3794 174.197 14.4728 173.922 14.4701H170.636V28.7299C170.632 29.1643 170.667 29.5982 170.742 30.0262C170.79 30.4047 170.911 30.7704 171.096 31.104C171.277 31.4164 171.537 31.6762 171.85 31.8577C172.231 32.0684 172.658 32.1847 173.093 32.1968L173.847 32.2421C174.09 32.2416 174.329 32.3039 174.54 32.4229C174.684 32.5069 174.802 32.6296 174.879 32.7772C174.95 32.9018 174.992 33.0411 175 33.1842C175 33.3198 175 33.4253 175 33.5083V36.7491C174.996 36.8579 174.983 36.9663 174.962 37.0732C174.933 37.2177 174.859 37.3495 174.751 37.4501C174.596 37.5923 174.41 37.6979 174.209 37.759C173.895 37.8616 173.566 37.9075 173.236 37.8947C171.979 37.9072 170.728 37.7085 169.536 37.3068C168.464 36.9534 167.474 36.3868 166.627 35.6412C165.809 34.9032 165.163 33.9951 164.735 32.9807C164.267 31.8565 164.037 30.6481 164.056 29.4308V14.5228H161.403C161.16 14.5121 160.927 14.4221 160.74 14.2666C160.625 14.1791 160.534 14.0644 160.475 13.9328C160.416 13.8012 160.39 13.6568 160.401 13.5129V9.78968C160.391 9.63843 160.415 9.48685 160.471 9.34602C160.527 9.20518 160.614 9.07866 160.725 8.97569C160.915 8.81449 161.155 8.72395 161.403 8.71944H164.056V3.92598C164.036 3.67282 164.102 3.42024 164.245 3.20998C164.45 3.00689 164.714 2.87257 164.999 2.82559L169.671 1.46895C169.757 1.44064 169.845 1.42293 169.935 1.4162C170.043 1.41191 170.149 1.4379 170.242 1.49121C170.336 1.54452 170.412 1.62299 170.463 1.71767C170.583 1.95025 170.64 2.21 170.629 2.47136L170.621 8.69683Z" fill="black"/>
<path d="M151.251 36.3271C151.262 36.4568 151.243 36.5874 151.196 36.7088C151.149 36.8302 151.075 36.9394 150.98 37.028C150.802 37.1763 150.578 37.2564 150.347 37.2541H145.47C145.352 37.2594 145.234 37.2401 145.124 37.1972C145.014 37.1544 144.913 37.0891 144.83 37.0054C144.663 36.8201 144.576 36.5762 144.589 36.3271V8.94559C144.589 8.32757 144.883 8.01855 145.47 8.01855H150.339C150.464 8.00166 150.591 8.01422 150.71 8.0552C150.829 8.09618 150.937 8.16445 151.025 8.25455C151.113 8.34465 151.178 8.45408 151.216 8.57407C151.254 8.69407 151.264 8.82131 151.244 8.94559L151.251 36.3271ZM151.44 46.2682C151.453 46.6405 151.341 47.0065 151.123 47.3083C150.983 47.4584 150.81 47.574 150.618 47.6459C150.426 47.7179 150.219 47.7442 150.015 47.7228H146.028C145.842 47.7396 145.655 47.713 145.481 47.6449C145.307 47.5769 145.151 47.4694 145.026 47.3309C144.807 47.0212 144.698 46.6471 144.717 46.2682V42.2662C144.694 42.0814 144.714 41.8939 144.774 41.7177C144.834 41.5416 144.933 41.3812 145.063 41.2487C145.345 41.0508 145.685 40.9551 146.028 40.9774H149.993C150.354 40.9643 150.71 41.0587 151.018 41.2487C151.164 41.3716 151.277 41.529 151.346 41.7067C151.416 41.8844 151.441 42.0767 151.417 42.2662L151.44 46.2682Z" fill="black"/>
</svg>
